<svg xmlns="http://www.w3.org/2000/svg" viewBox="844 1005 81 251">
<g title="Andaman and Nicobar" fill="#328707">
 <path title="North and Middle Andaman" d="M 870.40625 1036.75 L 869.53125 1037.6562 L 868.65625 1038.5312 L 867.6875 1042.2812 C 865.73137 1049.8247 865.72982 1049.7521 865.5625 1051.9062 C 865.43543 1053.5424 865.45657 1053.9743 865.5625 1054.5938 C 865.66957 1055.2197 865.72424 1055.3215 865.9375 1055.4375 C 866.55843 1055.7751 866.96535 1055.6221 870.28125 1053.7812 L 872.90625 1052.3125 L 873.1875 1051.625 L 873.46875 1050.9688 L 873.28125 1049.5938 C 873.17522 1048.6852 873.12466 1047.4561 873.125 1045.875 L 873.125 1043.5312 L 873.4375 1042.6875 C 873.596 1042.2185 873.71876 1041.7399 873.71875 1041.625 C 873.71875 1041.0337 873.19278 1039.1435 872.78125 1038.25 C 872.40014 1037.4225 872.27844 1037.2471 871.9375 1037.0312 C 871.62145 1036.8314 871.41736 1036.75 870.96875 1036.75 L 870.40625 1036.75 z M 864.53125 1047.25 C 864.29486 1047.2772 864.24518 1047.3221 864.21875 1047.6875 C 864.19363 1048.0347 864.22 1048.0938 864.375 1048.0938 C 864.56836 1048.0938 864.78125 1047.7323 864.78125 1047.4062 C 864.78125 1047.2513 864.74225 1047.2257 864.53125 1047.25 z M 864.15625 1049.3438 C 863.75927 1049.3438 863.62498 1049.556 863.625 1050.125 C 863.625 1050.5028 863.63088 1050.5 863.9375 1050.5 C 864.3677 1050.5 864.49997 1050.3559 864.5 1049.8125 L 864.5 1049.3438 L 864.15625 1049.3438 z M 862.78294,1042.2206 C 862.69794,1042.1356 862.66766,1041.2736 862.66766,1038.9389 L 862.66766,1035.7725 L 862.95544,1035.324 C 863.16754,1034.9935 863.33782,1034.8465 863.60298,1034.7651 C 863.96212,1034.6549 863.96369,1034.6557 864.51597,1035.2022 L 865.0692,1035.7496 L 865.0692,1038.3775 L 865.0692,1041.0054 L 864.67401,1041.6706 L 864.27881,1042.3358 L 863.58851,1042.3358 C 863.17969,1042.3358 862.85121,1042.2888 862.78294,1042.2206 L 862.78294,1042.2206 z M 867.06247,1035.6038 C 866.92106,1035.5215 866.89383,1035.358 866.89099,1034.5741 C 866.88914,1034.0616 866.82701,1033.3613 866.75293,1033.0179 L 866.61825,1032.3935 L 866.9104,1032.0904 C 867.28724,1031.6995 867.46284,1030.9053 867.46736,1029.5714 L 867.47073,1028.5745 L 867.95104,1027.9266 L 868.43135,1027.2787 L 868.43135,1026.0356 L 868.43135,1024.7925 L 868.14316,1024.5164 C 867.85991,1024.2451 867.85502,1024.2238 867.85758,1023.2737 L 867.86017,1022.307 L 868.51254,1021.0582 C 869.04981,1020.0298 870.40423,1017.5919 871.56792,1015.5587 L 871.80159,1015.1505 L 872.41019,1015.1505 C 872.78226,1015.1505 873.05576,1015.1971 873.11394,1015.2705 C 873.16628,1015.3366 873.26393,1015.6932 873.33093,1016.063 C 873.4502,1016.7214 873.92209,1018.0585 874.11913,1018.2965 C 874.1746,1018.3635 874.43632,1018.4174 874.71112,1018.4184 C 874.98203,1018.4194 875.41976,1018.4763 875.68387,1018.5447 C 876.23313,1018.6871 876.33957,1018.8931 876.03263,1019.2198 C 875.86591,1019.3973 875.83128,1019.5772 875.8078,1020.388 L 875.78005,1021.3464 L 874.95558,1021.3739 C 874.14344,1021.4011 874.12604,1021.4068 873.79122,1021.7582 C 873.48443,1022.0802 873.13836,1022.8444 873.13836,1023.1998 C 873.13836,1023.4152 873.77782,1024.2453 874.63514,1025.143 C 875.06519,1025.5933 875.4478,1026.0587 875.48541,1026.1772 C 875.63038,1026.634 874.97301,1028.0249 874.25005,1028.7912 C 873.79007,1029.2787 873.7418,1029.3752 873.62503,1030.04 C 873.55332,1030.4483 873.35804,1031.0404 873.17433,1031.4065 C 872.85177,1032.0493 872.85017,1032.0592 872.85017,1033.4147 C 872.85017,1034.7408 872.84338,1034.786 872.59353,1035.1222 C 872.45237,1035.3121 872.32827,1035.4799 872.31776,1035.4951 C 872.24065,1035.6064 871.72472,1035.2045 871.43019,1034.8036 C 870.90378,1034.0872 870.89242,1034.064 870.8364,1033.5943 L 870.78485,1033.162 L 870.33357,1033.1329 C 869.67274,1033.0903 869.34732,1033.2938 869.15625,1033.869 C 868.92067,1034.5783 868.25416,1035.4153 867.79863,1035.5739 C 867.35218,1035.7293 867.28265,1035.7321 867.06247,1035.6038 L 867.06247,1035.6038 z M 864.89629,1026.3704 C 864.83289,1026.307 864.78101,1026.1644 864.78101,1026.0534 C 864.78101,1025.7653 864.96356,1025.6212 865.32856,1025.6212 C 865.64023,1025.6212 865.64557,1025.6284 865.64557,1026.0534 C 865.64557,1026.4784 865.64023,1026.4857 865.32856,1026.4857 C 865.15421,1026.4857 864.95969,1026.4338 864.89629,1026.3704 L 864.89629,1026.3704 z M 865.0692,1019.4702 C 865.0692,1019.2086 865.11764,1019.0644 865.21846,1019.0257 C 865.36927,1018.9678 866.09218,1019.2449 866.18587,1019.3965 C 866.28347,1019.5544 865.79331,1019.851 865.42943,1019.8543 C 865.0722,1019.8574 865.0692,1019.8542 865.0692,1019.4702 L 865.0692,1019.4702 z M 867.85498,1016.1648 C 867.85498,1015.4338 867.94783,1015.2367 868.1954,1015.4421 C 868.29306,1015.5232 868.33529,1015.7577 868.33529,1016.2189 C 868.33529,1016.8596 868.32802,1016.8796 868.09513,1016.8796 C 867.86049,1016.8796 867.85498,1016.8632 867.85498,1016.1648 z M 868.78096,1013.835 C 868.67278,1013.7268 868.71507,1013.6135 868.86362,1013.6135 C 868.94287,1013.6135 869.00772,1013.6542 869.00772,1013.7039 C 869.00772,1013.825 868.85771,1013.9118 868.78096,1013.835 L 868.78096,1013.835 z M 875.2621,1014.1863 C 874.84427,1013.9968 874.84194,1013.993 875.01974,1013.7966 C 875.20706,1013.5896 875.40865,1013.5906 875.96214,1013.8016 L 876.24029,1013.9075 L 876.01744,1014.1448 C 875.75181,1014.4275 875.78911,1014.4254 875.2621,1014.1863 L 875.2621,1014.1863 z M 872.17204,1011.0092 C 872.07787,1010.8332 872.11177,1010.757 872.42831,1010.4328 C 872.77662,1010.0761 872.82071,1010.0592 873.40432,1010.0592 C 873.74049,1010.0592 874.10996,1010.1077 874.22536,1010.167 C 874.6027,1010.3609 874.96352,1010.763 874.96352,1010.9898 C 874.96352,1011.2114 874.95998,1011.2119 873.62204,1011.2119 C 872.35537,1011.2119 872.27451,1011.2006 872.17204,1011.0092 z" />
 <path title="South Andaman" d="M 861.85461,1082.0042 C 861.72668,1081.8325 861.33543,1081.26 860.98517,1080.7321 L 860.34833,1079.7722 L 860.34833,1077.7792 C 860.34833,1075.8501 860.3565,1075.7654 860.60311,1075.1368 C 860.76538,1074.7232 861.19264,1074.0362 861.77986,1073.2448 L 862.70184,1072.0023 L 862.75939,1071.0835 C 862.79715,1070.4807 862.94083,1069.702 863.17712,1068.8197 C 863.45091,1067.7974 863.55503,1067.1869 863.61129,1066.2741 C 863.6676,1065.3604 863.74572,1064.9028 863.93804,1064.3601 C 864.10607,1063.8859 864.19079,1063.4492 864.19079,1063.0572 C 864.19079,1062.5275 864.22006,1062.4396 864.47897,1062.1915 C 864.67819,1062.0006 864.76716,1061.8232 864.76716,1061.6167 C 864.76716,1061.4404 864.90384,1061.1035 865.10091,1060.7942 C 865.28448,1060.506 865.43578,1060.173 865.43713,1060.0541 C 865.43936,1059.858 865.48585,1059.838 865.93934,1059.838 C 866.36782,1059.838 866.48279,1059.7956 866.74558,1059.5409 C 867.00751,1059.2871 867.0815,1059.2596 867.25448,1059.3522 C 867.41059,1059.4357 867.45688,1059.5521 867.45688,1059.8608 C 867.45688,1060.1781 867.51846,1060.3247 867.7536,1060.5673 L 868.05032,1060.8734 L 867.66732,1062.0608 C 867.45667,1062.7139 867.25375,1063.3938 867.21638,1063.5717 C 867.17902,1063.7497 867.02332,1064.1987 866.87039,1064.5696 C 866.55679,1065.33 866.49831,1066.2418 866.73642,1066.6584 C 866.82568,1066.8145 866.87489,1067.1919 866.87711,1067.7372 C 866.88016,1068.4901 866.84914,1068.6396 866.57399,1069.1975 L 866.26746,1069.8191 L 866.61948,1070.9525 C 866.81309,1071.5758 867.01805,1072.2715 867.07495,1072.4984 C 867.19512,1072.9776 867.30051,1073.0376 868.29742,1073.1944 L 868.99386,1073.304 L 868.99386,1074.836 L 868.99386,1076.3681 L 868.65765,1076.8674 C 868.4599,1077.161 868.32143,1077.4848 868.32143,1077.6535 C 868.32143,1077.8752 868.19124,1078.0719 867.74838,1078.5194 L 867.17533,1079.0983 L 867.03548,1080.0318 C 866.95857,1080.5453 866.87255,1081.0027 866.84433,1081.0484 C 866.8161,1081.0941 866.42074,1081.1868 865.96573,1081.2545 L 865.13844,1081.3776 L 864.83272,1081.8453 L 864.52701,1082.3129 L 863.30711,1082.3146 L 862.08722,1082.3164 L 861.85461,1082.0042 z M 875.88334,1070.9332 C 875.73966,1070.6402 875.6221,1070.2491 875.6221,1070.064 C 875.6221,1069.768 875.58788,1069.7207 875.33791,1069.6707 C 875.1,1069.6231 875.02823,1069.5371 874.89713,1069.1424 L 874.74054,1068.6709 L 875.03723,1068.2086 L 875.33391,1067.7462 L 875.33391,1065.9715 L 875.33391,1064.1967 L 875.60334,1063.9386 L 875.87277,1063.6805 L 877.95685,1063.6805 L 880.04092,1063.6805 L 880.04092,1064.2052 L 880.04092,1064.73 L 878.55197,1066.6645 L 877.06302,1068.599 L 877.06302,1069.9234 L 877.06302,1071.2479 L 876.71999,1071.3123 C 876.53131,1071.3477 876.32466,1071.3967 876.26076,1071.4212 C 876.19342,1071.4471 876.03474,1071.2419 875.88334,1070.9332 z M 874.87762,1059.9686 C 874.68715,1059.8884 874.73627,1059.4719 874.94967,1059.3577 C 875.24347,1059.2005 875.54539,1059.3988 875.50778,1059.7244 C 875.48506,1059.921 875.42112,1059.9865 875.23785,1060.0006 C 875.10577,1060.0108 874.94367,1059.9964 874.87762,1059.9686 z M 877.46689,1057.014 C 877.48306,1056.8008 877.5613,1056.5982 877.64854,1056.5435 C 877.82225,1056.4347 878.17912,1056.5016 878.439,1056.6917 C 878.58859,1056.8011 878.59743,1056.8567 878.49949,1057.0716 C 878.40206,1057.2855 878.31349,1057.3283 877.91163,1057.3559 L 877.43849,1057.3884 L 877.46689,1057.014 z M 878.33583,1061.7332 L 878.02363,1061.6354 L 878.02363,1060.5479 C 878.02363,1059.5339 878.03756,1059.4531 878.22992,1059.3501 C 878.50483,1059.203 879.11579,1059.3828 879.31699,1059.6701 C 879.64027,1060.1316 879.4505,1060.9032 878.84016,1061.6088 C 878.67175,1061.8035 878.60949,1061.8189 878.33583,1061.7332 L 878.33583,1061.7332 z M 876.60193,1074.9965 C 876.45512,1074.8497 876.45296,1074.2341 876.59813,1073.9155 C 876.75035,1073.5814 877.04132,1073.5932 877.08066,1073.935 C 877.10453,1074.1425 877.16773,1074.2057 877.37522,1074.2296 C 877.60341,1074.2558 877.63939,1074.3028 877.63939,1074.5744 C 877.63939,1074.8181 877.58436,1074.9139 877.39472,1075.0003 C 877.07928,1075.144 876.74786,1075.1424 876.60193,1074.9965 L 876.60193,1074.9965 z M 878.52069,1076.9067 C 878.28251,1076.6532 878.24681,1076.2459 878.44811,1076.0788 C 878.52647,1076.0138 878.80072,1075.9782 879.09329,1075.995 C 879.55078,1076.0214 879.62437,1076.0574 879.82198,1076.3514 L 880.0418,1076.6785 L 879.71024,1076.9038 C 879.27716,1077.198 878.7955,1077.1992 878.52069,1076.9067 L 878.52069,1076.9067 z M 849.71715,1086.3145 C 849.15638,1086.2269 848.9912,1086.1594 848.82859,1085.9516 C 848.51898,1085.5558 848.57406,1085.2201 849.04758,1084.6169 C 849.45,1084.1043 849.49135,1084.0791 850.11571,1083.964 C 850.47293,1083.8982 850.77403,1083.8572 850.78481,1083.8729 C 850.79559,1083.8885 850.89848,1084.0377 851.01345,1084.2044 C 851.18504,1084.4531 851.2225,1084.6437 851.2225,1085.2683 C 851.2225,1085.9395 851.19628,1086.0539 851.00017,1086.2381 C 850.75575,1086.4678 850.71389,1086.4703 849.71715,1086.3145 L 849.71715,1086.3145 z M 860.5572,1085.9365 C 860.26162,1085.6219 860.27535,1084.9516 860.59011,1084.3305 L 860.83188,1083.8534 L 861.67532,1083.8534 L 862.51876,1083.8534 L 862.87447,1084.2176 C 863.17816,1084.5286 863.23018,1084.6452 863.23018,1085.0147 C 863.23018,1085.389 863.18101,1085.4954 862.8659,1085.8031 L 862.50161,1086.1588 L 861.63384,1086.1588 C 860.85097,1086.1588 860.74563,1086.1371 860.5572,1085.9365 L 860.5572,1085.9365 z M 866.83248,1086.5431 C 866.6647,1086.3577 866.6647,1086.3442 866.83248,1086.1588 C 867.02827,1085.9425 867.2871,1085.9175 867.73073,1086.0722 C 868.08089,1086.1942 868.08957,1086.2277 867.84655,1086.5191 C 867.61211,1086.8001 867.07654,1086.8128 866.83248,1086.5431 z M 867.16869,1084.2063 C 867.16869,1084.1363 867.27631,1083.9779 867.40784,1083.8543 C 867.64049,1083.6357 867.65227,1083.6344 867.8412,1083.8054 C 868.03434,1083.9802 868.03437,1083.9821 867.84622,1084.1574 C 867.6268,1084.3618 867.16869,1084.3949 867.16869,1084.2063 L 867.16869,1084.2063 z M 862.84931,1093.754 C 862.79144,1093.6459 862.74987,1092.8529 862.74987,1091.8571 C 862.74987,1090.2703 862.76816,1090.0902 863.00174,1089.3772 C 863.29149,1088.4928 863.64374,1088.0572 864.22987,1087.8585 C 864.69904,1087.6995 865.23706,1087.8324 865.34356,1088.1336 C 865.37984,1088.2363 865.46366,1089.1361 865.52983,1090.1333 L 865.65014,1091.9464 L 865.08858,1092.5193 C 863.86659,1093.7662 863.08613,1094.1965 862.84931,1093.754 L 862.84931,1093.754 z M 865.24204,1095.2499 C 865.13583,1094.7753 865.14722,1094.6735 865.38713,1093.9531 L 865.64749,1093.1713 L 866.15252,1093.1713 C 866.60049,1093.1713 866.67015,1093.199 866.76903,1093.416 C 866.91938,1093.746 866.9164,1095.4985 866.76524,1095.6497 C 866.69842,1095.7165 866.37825,1095.765 866.00363,1095.765 L 865.35731,1095.765 L 865.24204,1095.2499 z M 865.36754,1099.5084 C 865.1811,1099.4334 865.1514,1099.3508 865.1514,1098.9068 C 865.1514,1098.4878 865.19425,1098.3519 865.38176,1098.1757 C 865.60067,1097.9701 865.62666,1097.9668 865.90532,1098.1109 C 866.06659,1098.1943 866.28714,1098.2626 866.39543,1098.2626 C 866.57204,1098.2626 866.59233,1098.322 866.59233,1098.8389 C 866.59233,1099.4127 866.59107,1099.4153 866.30981,1099.4153 C 866.15443,1099.4153 866.00058,1099.4585 865.96793,1099.5114 C 865.89629,1099.6273 865.66045,1099.6261 865.36754,1099.5084 L 865.36754,1099.5084 z M 868.34515,1099.6793 C 868.16286,1099.484 868.15361,1099.4196 868.24866,1099.007 C 868.35147,1098.5609 868.36192,1098.5507 868.72003,1098.5507 C 869.02617,1098.5507 869.09573,1098.5885 869.14394,1098.7806 C 869.20769,1099.0346 869.01939,1099.4676 868.73212,1099.7276 C 868.55494,1099.8879 868.53789,1099.8858 868.34515,1099.6793 L 868.34515,1099.6793 z M 866.2321,1104.96 C 866.04745,1104.8758 866.01596,1104.7871 866.01596,1104.3512 C 866.01596,1103.7873 866.15152,1103.6385 866.65806,1103.6461 C 866.86178,1103.6491 866.98345,1103.7361 867.15102,1103.9985 C 867.39201,1104.3758 867.37256,1104.7947 867.11406,1104.7947 C 867.0332,1104.7947 866.8503,1104.8541 866.70763,1104.9266 C 866.5181,1105.023 866.39002,1105.032 866.2321,1104.96 z M 864.49008,1107.5248 C 864.23362,1107.1987 864.23539,1107.0809 864.50299,1106.6678 C 864.67718,1106.3989 864.78054,1106.3339 865.03554,1106.3329 L 865.35195,1106.3317 L 865.32372,1107.0282 L 865.2955,1107.7246 L 864.9944,1107.7539 C 864.76183,1107.7765 864.64707,1107.7244 864.49008,1107.5248 L 864.49008,1107.5248 z M 850.62212,1105.8437 C 850.49192,1105.7679 850.45401,1105.6173 850.45401,1105.1762 C 850.45401,1104.6143 850.4589,1104.6041 850.81424,1104.4248 C 851.07972,1104.2909 851.22771,1104.2673 851.3769,1104.3353 C 851.61913,1104.4458 851.89517,1104.9873 851.89432,1105.3504 C 851.89328,1105.7971 851.08216,1106.1117 850.62212,1105.8437 L 850.62212,1105.8437 z" />
 <path title="Nicobar" d="M 862.1735,1121.4614 C 862.10773,1121.3821 861.99864,1121.3173 861.93107,1121.3173 C 861.86351,1121.3173 861.72361,1121.1739 861.62019,1120.9986 L 861.43215,1120.6799 L 860.09774,1120.5169 C 859.36381,1120.4273 858.60651,1120.3546 858.41485,1120.3553 C 858.01175,1120.3569 857.91419,1120.2635 857.75359,1119.7223 C 857.63789,1119.3324 857.64303,1119.3169 858.21682,1118.3228 C 858.90179,1117.1362 859.09954,1116.4569 859.09954,1115.2905 C 859.09954,1114.3025 859.09952,1114.3024 858.17133,1113.8382 C 857.67996,1113.5924 857.55983,1113.4829 857.4646,1113.1944 C 857.32352,1112.7669 857.36433,1112.5524 857.80643,1111.3974 C 858.13292,1110.5444 858.23079,1110.4002 859.31598,1109.1735 L 860.47641,1107.8617 L 861.29685,1107.8892 L 862.11728,1107.9167 L 862.24144,1108.5411 C 862.3566,1109.1203 862.54162,1109.4163 862.8535,1109.5203 C 862.92247,1109.5433 862.90701,1109.9165 862.80485,1110.6956 C 862.71009,1111.4181 862.68839,1111.8772 862.74573,1111.9463 C 862.79556,1112.0064 863.08926,1112.1764 863.39839,1112.3241 C 863.81289,1112.5222 864.0289,1112.701 864.22117,1113.0049 C 864.36456,1113.2315 864.46217,1113.4763 864.43807,1113.5487 C 864.41397,1113.6211 864.3467,1113.9228 864.28858,1114.219 C 864.18958,1114.7235 864.14706,1114.7835 863.61586,1115.1683 C 863.30399,1115.3943 863.0307,1115.6274 863.00855,1115.6864 C 862.97048,1115.7879 863.18093,1117.6875 863.27586,1118.0992 C 863.30023,1118.2049 863.50853,1118.4095 863.73876,1118.5538 L 864.15737,1118.8162 L 864.0196,1119.8026 C 863.88706,1120.7515 863.86688,1120.8045 863.48797,1121.1972 C 863.14834,1121.5493 863.03897,1121.6055 862.6936,1121.6055 C 862.45478,1121.6055 862.24481,1121.5473 862.1735,1121.4614 z M 873.44067,1171.1492 C 872.98911,1170.6553 872.93238,1170.3982 872.93238,1168.8455 L 872.93238,1167.3727 L 873.48473,1166.8342 C 874.06189,1166.2716 874.59609,1166.0206 875.00054,1166.1221 C 875.13588,1166.1561 875.43531,1166.4473 875.7159,1166.818 L 876.19847,1167.4554 L 876.19847,1168.9985 L 876.19847,1170.5415 L 875.79422,1170.9534 L 875.38997,1171.3653 L 874.51414,1171.3653 C 873.72846,1171.3653 873.61795,1171.3431 873.44067,1171.1492 L 873.44067,1171.1492 z M 877.44727,1181.1859 C 877.44727,1180.6482 877.48941,1180.4737 877.69088,1180.1772 C 877.90255,1179.8657 877.98385,1179.8187 878.31076,1179.8187 C 878.5177,1179.8187 878.79713,1179.8689 878.9317,1179.9302 C 879.1616,1180.0349 879.17637,1180.0843 879.17637,1180.7481 C 879.17637,1181.4421 879.17084,1181.4579 878.86417,1181.6449 C 878.64879,1181.7762 878.38068,1181.8354 877.99962,1181.8356 L 877.44727,1181.836 L 877.44727,1181.1859 z M 880.10521,1184.5075 C 879.87701,1184.4244 879.843,1184.3698 879.89372,1184.1677 C 879.92695,1184.0353 879.97888,1183.8033 880.00911,1183.6521 C 880.0911,1183.2422 880.26151,1183.141 880.5866,1183.3091 C 880.73581,1183.3862 880.93959,1183.5396 881.03944,1183.65 C 881.2182,1183.8475 881.21707,1183.8565 880.96581,1184.2362 C 880.70138,1184.6357 880.57045,1184.677 880.10521,1184.5075 L 880.10521,1184.5075 z M 884.45829,1194.3179 C 884.34856,1193.8605 884.3547,1193.8176 884.56152,1193.5974 C 884.6868,1193.4641 884.89048,1193.3634 885.03489,1193.3634 C 885.3555,1193.3634 885.80461,1193.8183 885.80461,1194.1431 C 885.80461,1194.4624 885.33973,1194.8043 884.9055,1194.8043 C 884.58772,1194.8043 884.57047,1194.7855 884.45829,1194.3179 L 884.45829,1194.3179 z M 888.42883,1202.2731 C 888.24256,1202.0761 888.04051,1201.677 887.88164,1201.192 C 887.64715,1200.4763 887.62978,1200.3023 887.62978,1198.6704 C 887.62978,1196.6823 887.61637,1196.7095 888.36401,1197.1818 L 888.78217,1197.446 L 888.78234,1198.5567 C 888.78251,1199.6656 888.78202,1199.6679 888.49433,1199.9436 C 888.33583,1200.0954 888.20614,1200.2671 888.20614,1200.3251 C 888.20614,1200.383 888.43445,1200.6559 888.71349,1200.9315 C 889.16238,1201.3748 889.26713,1201.4325 889.62269,1201.4325 C 889.93328,1201.4325 890.0492,1201.4786 890.13308,1201.6353 C 890.22725,1201.8113 890.19334,1201.8875 889.87681,1202.2117 C 889.57016,1202.5257 889.44922,1202.5853 889.11808,1202.5853 C 888.79825,1202.5853 888.66858,1202.5265 888.42883,1202.2731 z M 891.68357,1200.6448 C 891.50324,1200.4645 891.53605,1200.4238 892.05919,1200.1788 L 892.55008,1199.9488 L 892.77965,1200.2157 C 893.16145,1200.6596 893.09211,1200.7601 892.40403,1200.7601 C 892.06141,1200.7601 891.74883,1200.7101 891.68357,1200.6448 L 891.68357,1200.6448 z M 897.53317,1213.0625 C 897.30041,1212.9081 896.98791,1212.5857 896.83873,1212.346 C 896.68955,1212.1063 896.43691,1211.8427 896.27731,1211.7602 L 895.98712,1211.6101 L 895.98371,1210.2437 C 895.98122,1209.2404 895.94382,1208.8135 895.84303,1208.6371 C 895.62806,1208.2611 895.66151,1208.0608 895.93925,1208.0608 C 896.11757,1208.0608 896.26857,1207.9369 896.52463,1207.5805 C 896.82432,1207.1633 896.91335,1207.1001 897.20167,1207.1001 C 897.99893,1207.1001 898.38865,1207.5874 898.38865,1208.5843 L 898.38865,1209.2135 L 898.70967,1209.2135 C 899.00416,1209.2135 899.04074,1209.2472 899.15256,1209.6218 C 899.29894,1210.1121 899.37706,1210.1707 899.8862,1210.1726 C 900.38186,1210.1745 900.50201,1210.3971 900.50201,1211.3134 C 900.50201,1211.9133 900.47932,1211.9851 900.20747,1212.2455 C 900.04548,1212.4007 899.79692,1212.7113 899.65512,1212.9357 L 899.3973,1213.3438 L 898.67684,1213.3436 C 898.04135,1213.3433 897.90647,1213.3102 897.53317,1213.0626 L 897.53317,1213.0625 z M 903.10685,1209.465 C 902.66284,1209.0154 902.57917,1208.8682 902.4651,1208.3363 C 902.39295,1207.9998 902.33241,1207.3996 902.33054,1207.0024 L 902.32717,1206.2803 L 901.2705,1205.2269 C 900.27042,1204.23 900.21382,1204.1526 900.21382,1203.7816 C 900.21382,1203.4715 900.274,1203.332 900.50201,1203.1136 C 900.78281,1202.8446 900.7902,1202.814 900.79054,1201.9189 C 900.79099,1200.7945 900.92189,1200.527 901.63495,1200.193 L 902.12735,1199.9624 L 902.50731,1200.2892 C 902.99886,1200.712 903.01899,1201.0212 902.58573,1201.4939 L 902.26792,1201.8407 L 902.43509,1202.9575 C 902.52703,1203.5717 902.6052,1204.085 902.6088,1204.0982 C 902.6305,1204.1777 903.91635,1204.0934 904.44052,1203.9782 C 904.78394,1203.9026 905.37832,1203.8393 905.76137,1203.8374 L 906.45781,1203.8341 L 906.45781,1204.5938 L 906.45781,1205.3535 L 905.85606,1205.8264 C 905.33863,1206.233 905.23093,1206.3734 905.08756,1206.8282 C 904.99586,1207.1192 904.92006,1207.656 904.91912,1208.0212 L 904.91741,1208.6852 L 904.28451,1209.3336 C 903.93639,1209.6902 903.64391,1209.982 903.63451,1209.982 C 903.62513,1209.982 903.38767,1209.7493 903.10685,1209.465 L 903.10685,1209.465 z M 904.91352,1192.8597 C 904.76408,1192.784 904.5845,1192.667 904.51445,1192.5997 L 904.38709,1192.4774 L 904.38709,1190.607 L 904.38709,1188.7367 L 904.65105,1188.4743 L 904.91502,1188.2118 L 905.27198,1188.2118 L 905.62894,1188.2118 L 905.7552,1188.5955 C 905.93701,1189.1479 905.94074,1189.1322 905.58428,1189.3119 C 905.34145,1189.4344 905.23277,1189.5175 904.98993,1189.7664 L 904.69276,1190.071 L 904.69276,1190.4449 C 904.69276,1190.7146 904.70534,1190.8291 904.73796,1190.8562 C 904.76759,1190.8808 905.07468,1190.8968 905.62949,1190.9028 L 906.47581,1190.9119 L 906.48581,1191.0827 L 906.49581,1191.2534 L 906.21929,1191.3882 C 906.0672,1191.4624 905.92897,1191.5488 905.91211,1191.5803 C 905.89525,1191.6118 905.88146,1191.9443 905.88146,1192.3191 L 905.88146,1193.0006 L 905.53334,1192.9989 C 905.19534,1192.9973 905.17732,1192.9932 904.91352,1192.8597 L 904.91352,1192.8597 z M 906.0246,1195.7679 C 905.92759,1195.5712 905.91542,1195.5143 905.91542,1195.2577 C 905.91542,1194.9885 905.92461,1194.9507 906.05127,1194.6987 C 906.17378,1194.4551 906.18712,1194.4035 906.18712,1194.1731 L 906.18712,1193.9176 L 906.36647,1193.9176 L 906.54582,1193.9176 L 906.67214,1194.1729 L 906.79845,1194.4282 L 906.79845,1195.0894 L 906.79845,1195.7507 L 906.56156,1195.87 C 906.43127,1195.9356 906.28172,1195.9893 906.22922,1195.9893 C 906.14553,1195.9893 906.12033,1195.9621 906.0246,1195.7679 L 906.0246,1195.7679 z M 908.65719,1232.8386 C 908.36454,1232.6796 908.2508,1232.443 908.01499,1231.5028 L 907.72842,1230.3602 L 908.01076,1229.5242 C 908.24838,1228.8205 908.41313,1228.5903 909.05081,1228.0709 C 909.9918,1227.3044 910.57178,1227.0069 911.51502,1226.8069 C 912.22823,1226.6557 912.26311,1226.6623 912.63579,1227.0193 C 913.19232,1227.5525 913.15692,1228.105 912.5279,1228.7029 C 911.67534,1229.5132 909.62416,1231.9525 909.62416,1232.156 C 909.62416,1232.4687 909.32211,1233.0433 909.16084,1233.0373 C 909.07943,1233.0344 908.85279,1232.9449 908.65719,1232.8386 L 908.65719,1232.8386 z M 907.47551,1226.1555 C 907.39313,1225.9461 907.28779,1225.5557 907.24143,1225.288 C 907.16809,1224.8646 907.20396,1224.7706 907.51715,1224.5654 C 907.85091,1224.3467 907.90169,1224.3456 908.21355,1224.55 C 908.52037,1224.751 908.5464,1224.8444 908.50968,1225.6122 C 908.46988,1226.4446 908.46471,1226.4545 908.04735,1226.4951 C 907.6934,1226.5296 907.60111,1226.4748 907.4755,1226.1555 L 907.47551,1226.1555 z M 903.78255,1223.5592 C 903.78255,1222.68 904.01636,1222.3661 904.54158,1222.5401 C 905.14624,1222.7403 905.14236,1223.2488 904.53208,1223.7846 C 904.26408,1224.0199 903.9858,1224.2124 903.91368,1224.2124 C 903.84156,1224.2124 903.78255,1223.9185 903.78255,1223.5592 L 903.78255,1223.5592 z M 916.10437,1250.7435 C 915.96742,1250.7085 915.71356,1250.35 915.52701,1249.9281 C 915.26275,1249.3306 915.19406,1248.9476 915.19405,1248.0714 C 915.19402,1246.3668 914.75341,1245.1074 913.76183,1243.978 C 913.32953,1243.4856 912.54019,1242.5014 912.00776,1241.7908 L 911.03971,1240.4989 L 911.181,1239.386 C 911.25872,1238.7739 911.37306,1238.1945 911.43509,1238.0986 C 911.63613,1237.7876 914.81544,1235.1078 915.28049,1234.8573 L 915.73184,1234.6142 L 916.21014,1235.0778 C 916.67685,1235.5302 916.68843,1235.5671 916.68843,1236.6018 L 916.68843,1237.6622 L 917.85533,1238.9542 L 919.02223,1240.2462 L 918.94619,1242.3163 C 918.90437,1243.4548 918.8317,1244.7099 918.78469,1245.1052 C 918.71771,1245.6686 918.76216,1245.9792 918.99024,1246.5411 C 919.15031,1246.9355 919.36366,1247.5705 919.46436,1247.9522 C 919.64121,1248.6226 919.63639,1248.6566 919.32267,1248.9514 C 919.12882,1249.1335 918.99791,1249.4112 918.99791,1249.6403 L 918.99791,1250.0242 L 917.85219,1250.0242 C 916.71163,1250.0242 916.70629,1250.0258 916.66349,1250.3873 C 916.61805,1250.7712 916.50183,1250.8453 916.10438,1250.7435 L 916.10437,1250.7435 z M 911.4808,1235.8051 C 911.37393,1235.6982 911.35692,1234.2654 911.46252,1234.2654 C 911.50228,1234.2654 911.74681,1234.354 912.00592,1234.4623 C 912.41686,1234.634 912.47704,1234.7202 912.47704,1235.1368 C 912.47704,1235.47 912.39757,1235.6569 912.21427,1235.755 C 911.91317,1235.9162 911.6124,1235.9367 911.4808,1235.8051 L 911.4808,1235.8051 z" />
</g>
<g class="label" text-anchor="middle" font-size="6" font-family="sans-serif"  fill="#444">
<text x="870" y="1024">North and Middle Andaman</text>
<text x="867" y="1081">South Andaman</text>
<text x="894" y="1194">Nicobar</text>
</g>
</svg>
