<svg xmlns="http://www.w3.org/2000/svg" viewBox="320 792 278 258">
<g title="Andhra Pradesh" fill="#328707">
<path title="Srikakulam" d="M 554.58668,862.37975 C 554.14868,861.67099 554.74898,860.21291 555.74844,859.55804 C 556.56401,859.02366 556.71355,858.63087 556.71355,857.02317 C 556.71355,855.29791 556.60616,855.06513 555.56082,854.52456 C 554.50068,853.97634 554.40808,853.76539 554.40808,851.89841 C 554.40808,850.70832 554.64151,849.55976 554.97223,849.1225 C 555.82018,848.00144 555.68581,847.61173 554.31202,847.20729 C 552.80996,846.76509 552.53957,845.61365 553.43467,843.47131 C 554.13615,841.79242 556.53223,840.11535 558.22937,840.11535 C 558.97,840.11535 559.51713,839.85207 559.77399,839.37212 C 560.28404,838.41906 560.28639,836.05232 559.77822,835.10278 C 559.11129,833.8566 559.70372,832.61837 561.25296,832.02037 C 562.03198,831.71968 562.79905,831.41515 562.95755,831.34365 C 563.11605,831.27215 563.24573,831.90644 563.24573,832.75318 C 563.24573,835.10218 565.90851,837.80987 568.2186,837.80987 C 568.64995,837.80987 569.21887,838.15569 569.48284,838.57836 C 569.89049,839.23115 570.36826,839.34434 572.6561,839.33012 C 577.88199,839.29765 579.76829,838.50875 579.76829,836.3556 C 579.76829,835.75752 580.03723,835.36212 580.53206,835.23273 C 580.95212,835.12288 581.88495,834.21296 582.60499,833.21068 C 584.12191,831.09929 589.89874,826.77322 591.67599,826.41778 L 592.88829,826.17531 L 590.65105,829.36722 C 589.42058,831.12277 587.58297,833.47264 586.56744,834.58915 C 585.55196,835.70565 584.77286,836.84459 584.83611,837.12011 C 584.8994,837.39563 584.10282,838.39841 583.06601,839.34851 C 582.02916,840.29861 580.30105,842.12659 579.22578,843.41068 C 570.29887,854.0711 569.00404,855.50625 567.95186,855.90628 C 567.44484,856.09904 566.25357,856.79099 565.30452,857.44394 C 563.62264,858.60111 555.63263,862.78476 555.10318,862.78548 C 554.95717,862.78568 554.72474,862.6031 554.58672,862.37975 L 554.58668,862.37975 z"/>
<path title="Vizianagaram" d="M 538.96894,870.01097 C 538.90104,869.5444 537.90104,868.40057 536.73278,867.45323 C 535.57044,866.51069 534.57808,865.46398 534.52752,865.12723 C 534.47691,864.78959 534.9913,864.1684 535.67441,863.74235 C 536.56406,863.18749 536.97601,862.59188 537.13608,861.629 C 537.53159,859.24995 538.12002,858.5484 539.49009,858.82242 C 540.66119,859.05664 540.68878,859.03072 540.46392,857.90652 C 540.31679,857.17086 540.44037,856.4529 540.80325,855.93479 C 541.31038,855.21077 541.30607,855.0164 540.76456,854.18999 C 540.42942,853.67848 539.81831,853.17187 539.40655,853.06419 C 538.9948,852.95651 538.54481,852.54941 538.40655,852.1595 C 538.26834,851.7696 537.81332,851.07034 537.39541,850.60559 C 536.96014,850.12154 536.73666,849.49715 536.87222,849.14386 C 537.00237,848.80465 536.67222,847.66546 536.13858,846.6123 C 535.11538,844.59316 535.12337,844.53964 536.7654,842.42082 C 537.33858,841.68115 537.92329,840.68674 538.06469,840.21103 C 538.29113,839.4492 538.49766,839.37422 539.79706,839.582 C 540.93243,839.76356 541.70108,839.59905 543.1332,838.86791 C 544.15668,838.3454 545.48294,837.6843 546.08048,837.39879 C 547.7916,836.58119 548.05784,835.70462 547.13366,833.93147 C 546.20766,832.155 546.41977,831.95596 549.05592,832.12754 L 550.75775,832.23831 L 550.87487,830.41314 C 551.00609,828.3679 551.40224,828.13255 552.33008,829.54859 C 552.67625,830.07693 553.08036,830.50921 553.22814,830.50921 C 553.37588,830.50921 554.07482,829.73771 554.78134,828.79477 C 555.48785,827.85182 556.19471,827.15993 556.35213,827.25723 C 556.50956,827.35452 557.00178,828.63056 557.44593,830.09288 C 557.89011,831.55519 558.42787,832.80975 558.64101,832.8808 C 558.85415,832.95184 559.13845,834.43577 559.27286,836.17841 L 559.51716,839.34686 L 558.47198,839.34686 C 557.33669,839.34686 554.53269,840.8374 553.48024,842.00036 C 553.11613,842.4027 552.7282,843.65151 552.60923,844.80438 C 552.40954,846.73917 552.4651,846.92913 553.41223,847.54972 C 553.97189,847.91642 554.59782,848.1126 554.80316,847.98567 C 555.40308,847.6149 555.23244,848.4283 554.6002,848.953 C 554.19859,849.28632 554.02384,850.17129 554.02384,851.87202 C 554.02384,854.19525 554.07932,854.34139 555.17657,854.90881 C 556.14956,855.41195 556.32931,855.73185 556.32931,856.96014 C 556.32931,858.08418 556.06038,858.6722 555.14756,859.54393 C 554.19275,860.45578 553.99417,860.91817 554.11336,861.95184 C 554.2432,863.07782 554.0344,863.43483 552.37169,864.92975 C 550.24013,866.84621 549.94914,866.94404 549.60501,865.85981 C 549.47087,865.43714 549.07014,865.08947 548.71456,865.08722 C 548.35898,865.08498 547.47713,864.47502 546.75491,863.73178 C 545.26434,862.1978 544.77274,862.19134 544.36913,863.70041 C 544.21366,864.28156 543.64232,865.33945 543.09939,866.05128 C 542.54461,866.77861 542.11222,867.85212 542.11222,868.5021 C 542.11222,870.44452 539.23307,871.8266 538.96894,870.01097 L 538.96894,870.01097 z"/>
<path title="Visakhapatnam" d="M 520.04261,887.94964 C 519.87343,887.04758 519.99773,886.17112 520.42163,885.27784 C 521.2229,883.58929 520.7862,882.09553 519.22313,881.17824 C 517.67904,880.27211 517.41821,880.30798 516.72834,881.52134 C 516.25037,882.36189 515.86436,882.5691 514.83162,882.53941 C 513.66075,882.50574 513.49533,882.35655 513.12619,881.00133 C 512.76219,879.66494 512.44381,879.36744 510.21983,878.28568 C 507.39234,876.91038 505.29835,876.39127 504.75794,876.93168 C 504.03193,877.6577 502.84227,876.88726 502.13247,875.23137 C 501.59827,873.98512 501.1505,873.50927 500.34432,873.33103 C 499.75281,873.20025 499.09592,873.04494 498.88458,872.98589 C 498.67325,872.92684 499.25879,872.16866 500.18577,871.30105 L 501.87121,869.72357 L 501.67801,867.0232 C 501.51274,864.71349 501.57465,864.32248 502.10591,864.32046 C 502.44752,864.31915 503.22111,864.06041 503.82496,863.74548 C 504.83725,863.21753 505.10288,863.24556 507.23058,864.10498 L 509.53828,865.03711 L 510.40342,864.10359 C 510.94094,863.52359 511.69568,863.17009 512.39647,863.17009 C 514.39358,863.17009 515.11543,861.58907 513.70221,860.31013 C 512.88642,859.57183 512.82997,859.81651 514.89214,855.15058 C 515.56365,853.63116 515.57779,853.40859 515.04046,852.81485 C 513.56688,851.18658 515.47547,847.98909 517.76472,848.2508 C 518.74647,848.36303 518.85498,848.51035 518.7693,849.61451 C 518.65629,851.07115 520.13717,854.60124 521.2911,855.62598 C 522.08653,856.33232 522.1273,856.32217 523.99246,854.953 C 525.03404,854.18841 526.16933,853.13082 526.5153,852.60278 C 527.30454,851.39819 528.06078,851.3976 530.64276,852.59958 C 533.48856,853.92439 534.12656,853.84712 535.38953,852.02463 C 536.56629,850.3266 537.05432,850.40452 537.89078,852.42395 C 538.17278,853.10475 538.64832,853.56395 539.07134,853.56395 C 540.09197,853.56395 540.71414,854.89188 540.16997,855.9087 C 539.9322,856.35298 539.82346,857.04462 539.92836,857.44568 C 540.08248,858.03508 539.91034,858.17489 539.03042,858.17489 C 538.19303,858.17489 537.80229,858.45452 537.33728,859.38667 C 537.00483,860.05314 536.73278,860.9918 536.73278,861.47257 C 536.73278,862.3366 535.83372,863.55433 535.1958,863.55433 C 534.68821,863.55433 533.65882,864.70149 533.65882,865.26712 C 533.65882,865.54496 534.69136,866.52684 535.95334,867.44908 C 537.47203,868.55895 538.32552,869.47728 538.47764,870.16515 C 538.9986,872.52128 542.22707,871.35583 542.73105,868.6297 C 542.87595,867.84593 543.40117,866.60257 543.89823,865.86667 C 544.39525,865.13077 544.80194,864.22299 544.80194,863.84938 C 544.80194,862.86526 545.35571,863.01162 546.59329,864.32282 C 547.19168,864.95683 547.97277,865.47556 548.32908,865.47556 C 548.68536,865.47556 549.08962,865.83085 549.22745,866.2651 C 549.56355,867.32414 547.10745,870.84962 542.26438,876.25973 C 539.23487,879.6439 538.06423,880.66675 536.18189,881.57426 C 526.8184,886.08856 524.03496,887.37756 523.65045,887.37756 C 523.4086,887.37756 522.75173,887.69503 522.19077,888.08305 C 520.35354,889.35387 520.30551,889.35089 520.04265,887.94964 L 520.04261,887.94964 z"/>
<path title="East Godavari" d="M 493.77412,920.34584 C 492.86186,919.43358 493.4709,917.46273 495.48332,914.81486 C 496.66602,913.25872 496.62323,912.44864 495.28324,911.02696 C 493.95851,909.62146 492.67052,905.56781 492.12686,901.0929 C 491.91646,899.36118 491.4643,896.8204 491.12203,895.44672 C 490.1707,891.62857 490.06196,889.53987 490.78331,888.9412 C 491.9232,887.99517 491.50166,886.74745 489.4607,885.02649 C 488.39861,884.13092 487.42885,882.99671 487.30569,882.50603 C 487.18255,882.01535 486.92762,881.61388 486.73919,881.61388 C 486.55076,881.61388 486.3966,880.61027 486.3966,879.38363 C 486.3966,877.56934 486.61001,876.81687 487.54088,875.34905 C 488.17023,874.35667 488.91163,873.54472 489.18843,873.54472 C 489.46524,873.54472 490.29037,873.03302 491.02206,872.4076 C 491.75375,871.78218 492.56041,871.26345 492.81464,871.25486 C 493.84381,871.22009 495.23425,870.30547 495.23425,869.66326 C 495.23425,869.28699 495.40716,868.87226 495.6185,868.74165 C 495.82983,868.61104 496.00274,868.07253 496.00274,867.54498 C 496.00274,866.75253 496.38062,866.41278 498.17649,865.5906 C 500.26453,864.63467 500.37059,864.62325 500.86621,865.30106 C 501.15,865.68915 501.38218,866.8031 501.38218,867.77649 C 501.38218,869.33496 501.19865,869.72551 499.8452,871.04712 C 498.07675,872.77396 497.89888,873.54472 499.26883,873.54472 C 500.33095,873.54472 501.76643,874.75935 501.76643,875.65807 C 501.76643,875.97507 502.1136,876.58161 502.53792,877.00594 C 503.17747,877.64548 503.65393,877.74365 505.3237,877.57992 C 507.05837,877.40982 507.68228,877.55609 509.81814,878.63359 C 512.03036,879.7496 512.34279,880.05082 512.71013,881.42176 C 513.09337,882.85211 513.22747,882.96738 514.64296,883.08338 C 515.89518,883.18598 516.30167,883.03533 516.94309,882.23092 C 517.92515,880.9993 519.23154,881.24562 520.04334,882.81545 C 520.54993,883.79509 520.5482,884.04696 520.02797,885.05301 C 519.70551,885.67652 519.44173,886.97211 519.44173,887.9321 C 519.44173,889.65232 519.40146,889.70747 516.65595,891.74793 C 515.12377,892.88664 512.61656,895.11729 511.08438,896.70492 C 508.69214,899.18373 508.2986,899.78408 508.2986,900.95465 C 508.2986,902.78467 508.7367,902.94217 510.0408,901.58099 C 510.641,900.9545 511.29749,900.44192 511.49964,900.44192 C 512.07236,900.44192 511.47136,905.50177 510.5109,908.76641 C 509.77255,911.27601 509.42816,911.85259 507.92225,913.10038 C 505.44761,915.15084 495.63589,920.80694 494.55357,920.80694 C 494.37847,920.80694 494.02772,920.59944 493.77412,920.34584 L 493.77412,920.34584 z M 509.42936,908.55214 C 510.27324,906.97536 506.8274,904.65063 505.40102,905.83442 C 504.63769,906.46792 504.69617,907.07136 505.63677,908.26713 C 506.62819,909.52752 508.81924,909.69217 509.42936,908.55214 L 509.42936,908.55214 z"/>
<path title="West Godavari" d="M 484.40215,921.30242 C 483.83354,921.21558 482.71906,920.54985 481.92552,919.823 C 481.132,919.09616 480.21393,918.496 479.8854,918.48932 C 478.96061,918.47051 477.1747,916.70967 477.1747,915.81665 C 477.1747,914.64561 476.04914,913.12202 475.18402,913.12202 C 474.77176,913.12202 474.10247,913.2997 473.69669,913.51687 C 473.13809,913.81581 472.58805,913.7225 471.43179,913.13262 C 469.52596,912.16034 469.06244,912.15964 467.9467,913.12732 C 467.03385,913.91902 465.90393,913.8642 465.00786,912.98472 C 464.37505,912.36364 463.32165,908.56892 463.71462,908.32605 C 463.89414,908.21511 464.31731,908.23036 464.65501,908.35995 C 464.99272,908.48954 465.69996,908.31321 466.22667,907.9681 C 467.4794,907.14728 467.47826,905.60059 466.2237,903.90013 C 465.12534,902.41139 465.01293,901.51211 465.83946,900.82616 C 466.15646,900.56307 466.41583,899.84222 466.41583,899.22426 C 466.41583,898.38212 466.13062,897.93701 465.27718,897.4472 C 463.29121,896.30741 463.08597,895.4129 464.24755,892.95961 C 465.48367,890.3489 466.10589,890.06728 470.63799,890.06728 C 473.92639,890.06728 474.08165,890.02726 475.22392,888.88499 C 475.87417,888.23473 476.40769,887.49986 476.4095,887.25195 C 476.41263,886.82343 479.38886,885.77272 482.06914,885.25391 C 482.85567,885.10166 483.78784,884.45863 484.6036,883.50561 C 485.99565,881.87931 486.78085,881.58637 486.78085,882.69333 C 486.78085,883.07569 487.73185,884.20958 488.8942,885.21307 C 490.05654,886.21656 491.00755,887.21651 491.00755,887.43516 C 491.00755,887.65382 490.66173,888.27236 490.23906,888.8097 C 489.31491,889.98455 489.26278,891.39736 490.0721,893.33434 C 490.40295,894.12617 490.92415,896.69771 491.23033,899.04889 C 492.00524,904.99956 493.46191,909.93571 494.87848,911.41121 C 495.49682,912.05528 496.00274,912.71576 496.00274,912.87896 C 496.00274,913.04216 495.47439,913.94362 494.82862,914.88221 C 494.18287,915.82079 493.3956,917.20837 493.07916,917.96572 C 492.56495,919.19642 492.56721,919.43945 493.10054,920.25343 C 493.42874,920.75432 493.69727,921.25668 493.69727,921.36979 C 493.69727,921.60166 485.9963,921.54584 484.40215,921.30241 L 484.40215,921.30242 z"/>
<path title="Krishna" d="M 458.73091,942.78082 C 458.73091,942.60903 459.24914,941.97197 459.88254,941.36514 C 461.72547,939.5995 462.57337,936.76928 462.57337,932.38332 C 462.57337,928.62052 462.57244,928.61687 460.65214,924.87925 C 459.59547,922.82256 458.73091,920.97045 458.73091,920.76345 C 458.73091,920.33307 453.48135,915.14271 450.98517,913.10506 C 450.06762,912.35606 448.5388,911.51334 447.58779,911.23234 C 446.63678,910.95135 445.32656,910.56637 444.67619,910.37683 C 443.85792,910.13836 443.21938,909.53167 442.60308,908.4071 C 441.37869,906.17293 440.30038,905.05512 439.35559,905.04064 C 438.32783,905.02489 437.39334,904.30467 437.06714,903.2769 C 436.92532,902.83008 436.46788,902.15553 436.05061,901.7779 C 435.09268,900.91099 435.11223,900.49645 436.1703,899.23774 C 436.87242,898.40249 437.46661,898.17979 439.57173,897.96296 C 442.03392,897.70934 442.16866,897.74083 443.45495,898.8702 C 444.18785,899.51369 444.92654,899.91443 445.0965,899.76074 C 445.26646,899.60705 445.27526,899.70695 445.11605,899.98275 C 444.81745,900.50001 448.16728,904.41279 449.69177,905.32743 C 450.55445,905.84502 452.92256,905.96658 453.58514,905.52729 C 453.83498,905.36164 453.99377,904.16041 453.96939,902.62035 C 453.91792,899.36922 453.31776,898.72885 450.64318,899.07132 C 449.48727,899.21932 448.66179,899.1242 448.2053,898.79041 C 447.57139,898.32689 447.56151,898.17464 448.08425,896.92357 C 448.54905,895.81111 448.9065,895.52034 450.03415,895.33735 C 450.79356,895.21411 451.98032,894.68399 452.67138,894.15931 C 454.29983,892.92292 455.83107,893.15733 456.66541,894.77075 C 457.1822,895.77012 457.42087,895.89469 458.4872,895.72165 C 460.23135,895.43861 462.90866,896.22292 464.59066,897.50962 C 466.11598,898.67647 466.40427,899.65427 465.45521,900.44192 C 464.60904,901.14418 464.7308,903.26279 465.66597,904.10912 C 466.23583,904.62483 466.42144,905.1981 466.3384,906.18596 C 466.23199,907.45187 466.1316,907.55046 464.949,907.55046 C 463.29904,907.55046 462.90297,908.28617 463.38703,910.45195 C 463.90962,912.79008 464.63454,913.77579 466.06208,914.08933 C 466.98197,914.29137 467.53609,914.1592 468.37761,913.53704 L 469.48388,912.71914 L 471.10339,913.54536 C 472.51952,914.26781 472.88537,914.31284 474.01629,913.9039 C 475.15268,913.49298 475.37471,913.52208 475.84571,914.14367 C 476.14054,914.53277 476.38727,915.34513 476.39399,915.94891 C 476.40377,916.82691 476.5385,916.99594 477.06693,916.79316 C 477.43032,916.65371 477.60165,916.66561 477.44766,916.8196 C 477.06858,917.19868 478.6938,918.88311 479.45109,918.89604 C 479.78409,918.90173 480.66173,919.41581 481.40141,920.03844 L 482.74627,921.17051 L 480.32564,921.18085 C 476.28808,921.19809 474.51982,922.6844 471.58513,928.52771 C 470.63157,930.42637 469.25251,932.8134 468.52056,933.83222 C 467.7886,934.85104 466.77046,936.6327 466.258,937.79146 C 464.97285,940.69742 462.24157,943.09318 460.2138,943.09318 C 459.39822,943.09318 458.73091,942.95262 458.73091,942.78083 L 458.73091,942.78082 z"/>
<path title="Guntur" d="M 458.2738,940.49953 C 458.16261,939.156 457.99296,938.97656 455.76417,937.84487 C 453.20231,936.54407 451.77277,936.48104 448.63311,937.53049 C 447.23045,937.99935 447.16241,937.98028 446.64116,936.9723 C 446.34434,936.3983 445.81607,935.6918 445.46725,935.4023 C 444.98095,934.99869 444.88883,934.50375 445.07233,933.28009 C 445.23542,932.1926 445.15397,931.55503 444.81667,931.27859 C 444.10318,930.69383 439.23386,930.23987 438.65164,930.70383 C 438.38881,930.91328 437.35244,931.20349 436.3486,931.34876 L 434.52344,931.61291 L 434.52344,929.9198 C 434.52344,927.56146 433.78854,927.01286 430.22589,926.71171 C 427.20429,926.45629 426.29999,926.8084 427.49288,927.77588 C 428.04167,928.22094 428.08987,928.21857 427.81353,927.76005 C 427.59108,927.39096 427.63049,927.30826 427.93816,927.49842 C 428.18558,927.65133 428.29077,927.93385 428.17188,928.12621 C 428.05299,928.31859 428.15647,928.85108 428.40184,929.30955 C 428.64721,929.76802 428.92636,930.89551 429.02219,931.81509 L 429.19641,933.48704 L 427.24521,933.48704 C 425.76952,933.48704 425.13367,933.67432 424.63602,934.25553 C 423.85937,935.1626 422.67922,935.26251 422.36653,934.44766 C 422.22332,934.07446 421.62773,933.87129 420.67693,933.87129 C 418.54443,933.87129 418.00087,933.13068 418.00087,930.22508 C 418.00087,928.42904 418.24263,927.29726 418.91837,925.92976 C 420.38388,922.96401 420.44405,922.50214 419.48172,921.6056 C 418.4855,920.67747 416.39333,920.54235 415.71292,921.36219 C 415.45947,921.66758 414.27115,922.11726 413.07222,922.36146 C 411.87328,922.60567 410.52754,923.14125 410.08169,923.55164 C 409.37882,924.19859 409.13179,924.23435 408.22348,923.8205 C 407.26453,923.38358 407.19595,923.21153 407.41276,921.78688 C 407.54303,920.93091 407.68758,919.53892 407.73398,918.69358 C 407.7843,917.77714 408.4152,916.03975 409.29664,914.39031 C 410.75825,911.65519 410.79723,911.6197 412.75485,911.2414 C 413.84381,911.03097 416.03161,910.74357 417.61663,910.60273 C 419.20164,910.46191 420.93075,910.11814 421.45908,909.83882 C 423.32577,908.85193 426.77533,907.43328 427.91921,907.18204 C 428.76835,906.99554 429.59627,907.19033 431.01933,907.91145 C 432.0872,908.45258 433.27987,908.89532 433.66972,908.89532 C 434.68108,908.89532 435.91454,907.61976 436.43857,906.03195 C 436.88961,904.6653 437.3457,904.33475 437.78952,905.05286 C 437.92014,905.2642 438.4337,905.43711 438.93078,905.43711 C 439.91363,905.43711 441.53751,907.11552 442.49274,909.11865 C 443.05201,910.29146 445.17793,911.58504 446.54609,911.58504 C 447.54818,911.58504 449.19293,912.4231 451.046,913.87789 C 453.3716,915.70367 458.34667,920.64871 458.34667,921.13451 C 458.34667,921.34876 459.21122,923.20681 460.2679,925.2635 C 462.14719,928.92131 462.18912,929.07721 462.18912,932.40536 C 462.18912,935.14772 462.00283,936.26626 461.22884,938.17107 C 460.2942,940.47122 459.30639,941.94045 458.69456,941.94045 C 458.52872,941.94045 458.33939,941.29203 458.2738,940.49953 L 458.2738,940.49953 z"/>
<path title="Prakasam" d="M 423.07292,965.30258 C 422.81931,965.04898 422.61182,964.6253 422.61182,964.36106 C 422.61182,963.35404 421.35783,963.12581 420.26481,963.93391 C 419.50122,964.49846 418.91474,964.64025 418.12645,964.45089 C 417.52904,964.30737 416.60798,964.10356 416.07964,963.99796 C 414.04046,963.59037 412.0208,962.91737 411.4687,962.46148 C 411.15169,962.19972 409.80696,961.7626 408.48039,961.49011 C 406.35818,961.05418 405.85702,961.07304 404.30821,961.64707 C 403.34006,962.0059 402.39374,962.20416 402.20525,962.08766 C 402.01678,961.97118 401.86256,961.31546 401.86256,960.63053 C 401.86256,959.02549 401.26832,958.46301 399.57266,958.46301 C 398.62111,958.46301 398.05893,958.22919 397.72503,957.69452 C 397.35956,957.1093 396.82896,956.92603 395.50017,956.92603 C 393.71425,956.92603 391.30926,957.86307 391.65585,958.42387 C 391.76205,958.59567 391.42187,958.65461 390.89993,958.55483 C 389.58613,958.30369 389.64536,956.81459 391.09648,953.61424 C 392.15253,951.28518 392.26083,950.63297 392.48296,945.26533 C 392.61548,942.06297 392.95202,938.73884 393.23081,937.87838 C 393.8991,935.8158 395.3119,933.66221 396.38705,933.06717 C 397.12817,932.65701 397.25161,932.27272 397.25161,930.37559 C 397.25161,928.84899 397.05875,927.96964 396.62991,927.54079 C 396.0785,926.98938 396.06926,926.75867 396.54823,925.50023 C 397.28261,923.57073 398.37027,923.12476 402.35817,923.11807 C 404.98539,923.11365 406.07023,923.28311 407.24199,923.8809 C 409.11615,924.83702 409.63816,924.84215 410.47928,923.91273 C 410.86966,923.48136 411.9264,923.06872 413.02918,922.91705 C 414.06496,922.7746 415.33199,922.328 415.84482,921.92461 C 416.89448,921.09896 417.70643,921.00656 418.79462,921.58894 C 419.78065,922.11664 419.71533,923.27913 418.56874,925.61001 C 417.83584,927.09991 417.62286,928.14328 417.62014,930.25746 C 417.61614,933.36023 418.03376,933.99217 420.3638,934.40915 C 421.13506,934.54719 421.97757,934.91491 422.23601,935.22631 C 422.92882,936.06109 424.43486,935.93871 424.72517,935.02402 C 424.92983,934.37921 425.30655,934.25553 427.06605,934.25553 C 428.96435,934.25553 429.19858,934.162 429.53838,933.26825 C 429.96853,932.1369 429.72561,930.83279 428.70523,928.79534 C 428.31255,928.01125 427.99126,927.26394 427.99126,927.13465 C 427.99126,926.81489 432.24867,927.3516 433.06155,927.77382 C 433.50428,928.00377 433.75053,928.69632 433.83005,929.93507 L 433.94707,931.75794 L 435.80547,931.87642 C 437.01997,931.95383 437.98274,931.78596 438.58414,931.39191 C 439.2854,930.93242 440.03184,930.84811 441.72092,931.03762 C 444.56448,931.35666 444.86948,931.61802 444.61473,933.51734 C 444.45423,934.71403 444.5798,935.24268 445.18166,935.90384 C 446.27536,937.1053 446.94752,938.48224 446.44033,938.48224 C 445.43598,938.48224 442.83961,940.70419 441.5002,942.70996 C 440.6926,943.91936 439.28465,946.70496 438.37145,948.90016 C 437.45823,951.09537 436.32029,953.32372 435.84269,953.85206 C 435.36508,954.3804 434.78848,955.50432 434.56137,956.34966 C 434.33426,957.195 433.62836,958.66474 432.99272,959.61575 C 432.23389,960.75106 431.83644,961.82889 431.83536,962.75435 C 431.83284,964.91671 431.52451,965.37943 430.08618,965.37943 C 429.38159,965.37943 428.69824,965.20652 428.56763,964.99519 C 428.22299,964.43755 426.81405,964.52823 425.5458,965.18968 C 424.21408,965.88422 423.67899,965.90865 423.07292,965.30258 L 423.07292,965.30258 z"/>
<path title="Sri Potti Sriramulu Nellore" d="M 431.91601,1017.0401 C 431.19813,1015.932 431.10033,1015.4576 431.38055,1014.4428 C 431.98781,1012.2435 430.72532,1010.4905 428.37551,1010.2702 C 427.28158,1010.1676 427.05171,1010.0007 427.14353,1009.3756 C 427.42976,1007.4271 427.15735,1005.518 426.42377,1004.331 C 425.48818,1002.8172 424.85387,1002.7027 424.03693,1003.9001 C 423.4926,1004.6979 423.40742,1004.7148 422.93339,1004.1188 C 422.25104,1003.2608 420.90383,1003.0536 420.88713,1003.804 C 420.87392,1004.3982 419.15988,1004.4096 418.76936,1003.818 C 418.24149,1003.0184 415.90409,1002.2144 414.74135,1002.4326 C 413.50565,1002.6644 413.49459,1002.6528 413.24954,1000.865 C 413.1033,999.79803 413.18796,998.55139 413.45723,997.80675 C 413.83094,996.77327 413.80114,996.28929 413.28965,995.08559 C 412.94749,994.28034 412.55643,992.41111 412.42067,990.93177 C 412.09545,987.38814 410.52213,982.96078 408.70562,980.47748 C 407.90063,979.37699 407.24199,978.31747 407.24199,978.12299 C 407.24199,977.9285 407.00144,977.56974 406.70742,977.32574 C 406.41342,977.08173 406.07902,976.41214 405.96434,975.83776 C 405.84966,975.26339 404.96629,972.56738 404.00131,969.84663 C 401.66254,963.25249 401.67471,963.01039 404.38793,962.15513 C 406.24656,961.56924 406.79155,961.54406 408.51857,961.96428 C 409.61281,962.23052 410.76745,962.64485 411.08445,962.885 C 411.65955,963.3207 413.7049,963.97776 415.88752,964.42799 C 418.97017,965.06387 419.56743,965.06419 420.5346,964.43048 C 421.07975,964.0733 421.56309,963.83809 421.60872,963.90781 C 421.65435,963.97753 421.98915,964.51008 422.35273,965.09125 C 423.12037,966.31829 424.20688,966.44342 426.0612,965.51837 C 427.23036,964.93512 427.40158,964.93512 428.38894,965.51837 C 428.97509,965.86463 429.873,966.14792 430.38426,966.14792 C 431.21273,966.14792 431.35877,966.38961 431.7271,968.37021 C 431.95441,969.59246 432.7734,972.22935 433.54708,974.22995 C 436.22474,981.15388 436.44466,981.89214 436.44466,983.95706 C 436.44466,985.22646 435.92284,987.75266 435.0998,990.4676 C 433.34184,996.26659 433.35905,997.64796 435.23615,1001.411 C 437.16416,1005.2761 437.22697,1005.5945 437.26399,1011.6917 C 437.29429,1016.6812 437.26229,1016.8983 436.38974,1017.6252 C 435.87602,1018.0532 434.90202,1018.3832 434.13919,1018.3878 C 433.01817,1018.3945 432.64815,1018.1702 431.91602,1017.0401 L 431.91601,1017.0401 z"/>
<path title="Chittoor" d="M 373.12296,1044.7859 C 371.82519,1044.0655 370.73866,1042.0351 370.73866,1040.3303 C 370.73866,1039.0515 370.95538,1038.6633 372.23487,1037.6499 C 373.89817,1036.3325 374.99865,1036.1554 375.76707,1037.0813 C 376.43381,1037.8847 377.87905,1038.4235 378.61236,1038.1421 C 379.43221,1037.8275 379.33142,1036.5767 378.42357,1035.7994 C 377.25916,1034.8024 377.49203,1033.7048 379.22373,1032.028 C 381.27325,1030.0435 383.01207,1026.7629 383.02873,1024.8493 C 383.03576,1024.0424 380.43313,1022.6345 378.91919,1022.6262 C 376.86394,1022.6149 376.78759,1022.3925 377.09134,1017.3033 L 377.36957,1012.6416 L 376.02365,1012.6416 C 375.2834,1012.6416 373.99047,1012.8841 373.15047,1013.1805 C 371.46505,1013.7752 370.96853,1013.6231 370.58555,1012.3948 C 370.44438,1011.942 369.80016,1011.3526 369.15399,1011.0849 C 368.07151,1010.6365 367.99827,1010.4898 368.22267,1009.2184 C 368.35663,1008.4595 368.46844,1007.3973 368.47115,1006.858 C 368.47634,1005.8217 369.70641,1005.0522 372.08125,1004.5996 C 372.92315,1004.4392 373.43942,1003.9796 374.0061,1002.8861 C 374.43201,1002.0642 375.12468,1001.2397 375.54535,1001.0539 C 375.96602,1000.8681 377.00186,1000.2138 377.8472,999.59995 C 379.25093,998.58057 379.44163,998.53559 380.04681,999.08122 C 380.53254,999.51916 381.12563,999.6121 382.26853,999.42934 C 383.61532,999.21399 383.94969,999.31173 384.72394,1000.1472 C 385.2169,1000.6791 385.81655,1001.1143 386.05648,1001.1143 C 386.29641,1001.1143 386.49273,1001.443 386.49273,1001.8448 C 386.49273,1002.2795 387.06671,1002.914 387.91025,1003.4117 L 389.32778,1004.2481 L 390.74835,1003.4497 C 392.58502,1002.4174 395.83192,1002.4007 399.13966,1003.4065 C 400.49509,1003.8187 401.7754,1004.05 401.98481,1003.9206 C 402.19825,1003.7887 402.24508,1003.8802 402.09137,1004.1289 C 401.91268,1004.418 402.14429,1004.5725 402.7563,1004.5725 C 403.76307,1004.5725 404.64808,1005.6234 405.06366,1007.3124 C 405.50289,1009.0974 408.68504,1009.337 411.33431,1007.7844 C 413.10394,1006.7474 413.95971,1005.3782 413.58202,1004.1882 C 413.43101,1003.7124 413.68664,1003.3901 414.47356,1003.0641 C 415.38768,1002.6855 415.81752,1002.7219 416.98097,1003.2767 C 417.75325,1003.645 418.38512,1004.0872 418.38512,1004.2594 C 418.38512,1004.7159 419.73306,1004.6421 420.87168,1004.1234 C 421.72284,1003.7355 421.96342,1003.788 422.63384,1004.5076 C 423.5985,1005.5431 424.0277,1005.5594 424.34093,1004.5725 C 424.66997,1003.5358 425.08802,1003.6049 426.08303,1004.8607 C 426.79575,1005.7601 426.88751,1006.2365 426.6999,1008.0625 C 426.44867,1010.5077 426.83085,1011.1626 428.33548,1010.8654 C 429.01706,1010.7307 429.60472,1010.9193 430.17847,1011.4568 C 430.89936,1012.1322 431.00419,1012.5864 430.9055,1014.6074 C 430.81541,1016.4524 430.63119,1017.0557 430.06315,1017.366 C 428.98791,1017.9535 428.78805,1018.4177 428.82467,1020.2425 C 428.84291,1021.1506 428.75492,1021.9965 428.62916,1022.1222 C 428.50338,1022.248 427.05482,1022.8215 425.4101,1023.3967 C 423.08483,1024.21 422.24877,1024.708 421.65121,1025.6359 C 420.59334,1027.2785 419.59752,1027.1858 416.21074,1025.1296 C 414.11437,1023.8569 412.96417,1023.4005 411.85283,1023.4005 C 410.02945,1023.4005 409.23471,1024.4036 409.96983,1025.7772 C 410.36293,1026.5117 410.27047,1026.7498 409.23185,1027.6778 C 408.57879,1028.2614 407.38841,1028.848 406.58656,1028.9814 C 404.03969,1029.4053 404.04344,1029.4015 404.30321,1031.2968 C 404.52637,1032.9249 404.47703,1033.0544 403.48985,1033.4318 C 402.91184,1033.6528 401.74728,1033.7198 400.90194,1033.5807 C 400.0566,1033.4416 398.50041,1033.2949 397.44373,1033.2547 C 395.30748,1033.1734 393.60375,1032.2553 393.2781,1031.0101 C 393.08034,1030.2538 392.88773,1030.217 390.27542,1030.436 C 387.50103,1030.6686 387.47264,1030.6824 385.606,1032.7029 C 383.93294,1034.5139 383.68951,1035.0033 383.37583,1037.1865 C 383.08329,1039.2226 382.75853,1039.954 381.45635,1041.5093 C 380.5943,1042.5389 379.70878,1043.3813 379.48853,1043.3813 C 379.26827,1043.3813 378.68744,1043.8136 378.1978,1044.3419 C 377.5085,1045.0857 376.93474,1045.2995 375.65614,1045.2889 C 374.74788,1045.2814 373.60794,1045.0551 373.12296,1044.7859 L 373.12296,1044.7859 z"/>
<path title="Anantapur" d="M 345.23051,1005.9309 C 344.8892,1005.41 344.60995,1004.7451 344.60995,1004.4534 C 344.60995,1003.4728 343.28317,1002.7458 340.38325,1002.1374 C 338.79824,1001.8048 337.11236,1001.4184 336.63686,1001.2787 C 335.87546,1001.0549 335.7723,1001.1627 335.7723,1002.1816 C 335.7723,1002.9309 335.37507,1003.7637 334.64478,1004.5455 C 333.38466,1005.8945 332.28564,1005.8805 330.2968,1004.4903 C 329.04724,1003.6168 328.94779,1002.6507 330.00862,1001.6906 C 330.98851,1000.8039 330.98265,999.56532 329.98932,997.61824 C 328.88617,995.45588 329.04936,992.13903 330.26743,991.96557 C 330.91201,991.87376 331.47512,992.37484 332.73499,994.16134 C 334.20668,996.24821 334.53347,996.50095 336.05496,996.72911 C 336.98315,996.86831 338.40847,996.89287 339.22237,996.7837 C 340.46521,996.617 340.85731,996.74786 341.671,997.60095 C 342.20386,998.1596 342.82115,999.09661 343.04276,999.6832 C 343.52263,1000.9534 344.40256,1001.3805 345.19121,1000.726 C 345.93327,1000.1101 345.91555,998.62583 345.13889,996.34646 L 344.51509,994.51573 L 346.1126,992.88799 C 348.23037,990.73013 348.59017,988.90055 347.1236,987.74695 C 346.01058,986.87146 345.1135,986.99018 344.29998,988.12068 C 343.57136,989.13321 343.02442,988.98945 341.72734,987.44453 C 340.05778,985.45596 338.48353,985.22369 335.65507,986.54862 L 333.42447,987.59349 L 331.45043,986.89831 C 328.50174,985.85989 327.50785,984.00146 329.43225,983.12464 C 329.96059,982.88392 330.39286,982.43926 330.39286,982.13651 C 330.39286,981.38065 328.19975,979.59652 327.27063,979.59652 C 326.08359,979.59652 325.03199,976.85116 325.02186,973.72582 C 325.01503,971.61687 325.22276,970.70282 326.11344,968.92274 C 327.56472,966.02224 327.91364,964.11124 327.11323,963.44696 C 326.04366,962.5593 325.71879,961.6044 326.18807,960.72754 C 326.73827,959.69951 328.41432,959.95623 330.23908,961.34804 C 332.38779,962.98695 334.01528,962.54221 337.07841,959.47909 C 338.22148,958.336 339.21657,957.09024 339.28969,956.71071 C 339.49641,955.6378 341.3532,955.32264 346.06851,955.5601 C 349.15766,955.71567 350.68763,955.96131 351.37572,956.41216 C 352.27408,957.00079 352.43697,957.0006 353.67659,956.40946 C 354.41032,956.05957 355.10076,955.77329 355.21089,955.77329 C 355.321,955.77329 355.82214,956.70268 356.3245,957.83861 C 357.08456,959.55721 357.40232,959.90393 358.2174,959.90393 C 358.75614,959.90393 359.39423,959.66618 359.63539,959.37559 C 359.87655,959.08501 360.39853,958.84726 360.79532,958.84726 C 361.19211,958.84726 361.51676,958.58789 361.51676,958.27089 C 361.51676,957.41604 362.18274,957.57078 363.11418,958.64203 C 363.5673,959.16316 364.08291,959.5 364.25998,959.39056 C 364.43705,959.28113 364.47895,959.45993 364.35309,959.78791 C 364.22725,960.11589 364.29406,960.38424 364.50159,960.38424 C 364.70912,960.38424 364.9867,960.92321 365.11845,961.58195 C 365.30932,962.5363 365.51159,962.73949 366.11396,962.58197 C 366.52974,962.47325 366.83261,962.5052 366.787,962.65299 C 366.74139,962.80077 367.3131,963.45801 368.05747,964.11351 C 369.30514,965.21224 369.40565,965.46177 369.34415,967.30807 C 369.29801,968.69302 369.06227,969.50452 368.57993,969.93878 C 368.00717,970.45445 368.01756,970.39497 368.63812,969.60613 L 369.3938,968.64552 L 368.52924,969.3775 C 367.8562,969.94734 367.66469,970.51477 367.66469,971.93911 C 367.66469,973.48566 367.82818,973.89207 368.72137,974.56587 L 369.77804,975.36299 L 368.39674,976.61522 C 367.63703,977.30392 366.38342,978.35029 365.61096,978.94047 C 364.8385,979.53066 364.20648,980.24255 364.20648,980.52246 C 364.20648,980.96758 366.00962,982.42911 368.05761,983.64402 C 368.42585,983.86247 369.16343,984.55971 369.69669,985.19345 C 370.22996,985.82719 372.0226,987.00214 373.68036,987.80445 C 375.33813,988.60674 377.09833,989.4657 377.59194,989.71323 C 378.44021,990.13861 378.49401,990.39002 378.57338,994.30035 L 378.65737,998.43741 L 377.30988,999.29553 C 376.56877,999.76751 375.53726,1000.4186 375.01764,1000.7424 C 374.15537,1001.2798 373.81962,1001.7345 373.04084,1003.4198 C 372.89434,1003.7368 372.31352,1004.0511 371.7501,1004.1183 C 371.18669,1004.1855 370.26075,1004.4818 369.69248,1004.7766 C 368.71456,1005.2839 368.6348,1005.2568 368.20251,1004.2701 C 367.9513,1003.6967 367.46742,1002.8818 367.12721,1002.4591 C 366.51537,1001.699 366.49914,1001.7021 365.63132,1002.7473 C 364.64209,1003.9388 363.67382,1004.1604 363.95275,1003.1316 C 364.8394,999.86113 364.51258,998.99237 362.64106,999.64478 C 362.0174,999.86218 361.2362,999.9361 360.90505,999.80903 C 359.77005,999.37348 358.59007,999.98121 358.13663,1001.2348 C 357.42017,1003.2157 354.31001,1005.0099 351.18745,1005.2439 C 349.68292,1005.3566 348.1553,1005.7291 347.44644,1006.1562 C 345.94155,1007.0628 345.97437,1007.0661 345.23051,1005.9309 L 345.23051,1005.9309 z"/>
<path title="Kurnool" d="M 382.85902,964.41882 L 383.12308,962.30547 L 381.99794,962.30547 C 381.24939,962.30547 380.50319,962.69128 379.76843,963.4582 C 378.33536,964.954 377.89671,964.91525 378.19611,963.31929 C 378.50495,961.6731 377.82278,961.06211 375.85673,961.224 C 374.69144,961.31994 374.38604,961.5032 374.37467,962.11334 C 374.36679,962.53601 374.25105,962.88183 374.11745,962.88183 C 373.98384,962.88183 373.47155,963.25806 372.97902,963.7179 C 371.49327,965.10505 370.08833,965.24734 368.88848,964.13224 C 368.32106,963.6049 367.38131,962.87181 366.80014,962.50314 C 366.21897,962.13446 365.74346,961.49338 365.74346,961.07849 C 365.74346,960.1589 362.77894,957.31027 361.82194,957.31027 C 361.44276,957.31027 361.13252,957.47507 361.13252,957.67649 C 361.13252,957.87792 360.4841,958.33926 359.69159,958.70172 C 358.89909,959.06418 358.12282,959.42718 357.96656,959.5084 C 357.81029,959.58961 357.25785,958.69599 356.73891,957.52256 C 355.72895,955.23885 355.27661,955.0196 353.48581,955.94565 C 352.58495,956.4115 352.29046,956.41901 351.67972,955.99165 C 350.32148,955.04123 344.38507,954.57242 340.86356,955.13747 C 339.01061,955.43479 338.84627,955.40028 338.84627,954.71395 C 338.84627,953.18021 338.01506,951.61384 336.97186,951.18173 C 336.28222,950.89607 335.57439,950.04814 334.93172,948.73777 C 334.04205,946.92375 333.9727,946.45769 334.20893,943.88042 C 334.35263,942.31248 334.63352,940.97248 334.83308,940.90266 C 337.59662,939.93582 337.85356,938.75853 335.97955,935.6499 C 335.23156,934.40912 334.61957,933.25077 334.61957,933.0758 C 334.61957,932.24346 337.2491,930.87169 339.32052,930.6234 C 340.53236,930.47814 341.63055,930.18669 341.76092,929.97574 C 341.8913,929.7648 342.28307,929.70561 342.63153,929.84423 C 342.97999,929.98284 344.73455,930.23373 346.53056,930.40173 C 349.03489,930.63601 349.96712,930.58736 350.53007,930.19306 C 351.17203,929.7434 351.41276,929.80399 352.44903,930.67596 C 354.48938,932.39281 356.77918,933.12282 361.11597,933.4391 C 363.34408,933.60158 365.54478,933.93822 366.00639,934.18716 C 366.46799,934.43611 367.58121,934.63978 368.48021,934.63978 C 370.57775,934.63978 372.40368,933.41238 373.3154,931.38954 C 373.69454,930.54834 374.40916,929.37932 374.90345,928.79172 L 375.80217,927.72336 L 381.05138,927.72589 C 385.64344,927.7281 386.44492,927.82399 387.45334,928.49185 C 388.89326,929.44547 393.26406,929.58902 393.94316,928.705 C 394.17779,928.39956 394.84527,928.035 395.42644,927.89486 L 396.48312,927.64005 L 396.48312,929.82219 C 396.48312,931.81031 396.34561,932.16738 394.93649,933.83852 C 392.94619,936.19889 392.57555,937.37922 392.21135,942.51681 C 391.73646,949.21583 391.29427,951.99639 390.40872,953.85206 C 389.41176,955.94118 389.30827,958.38145 390.18929,959.02566 C 391.00724,959.62377 390.97559,962.32962 390.13399,963.75434 C 389.26386,965.22737 387.50256,966.17698 386.14441,965.90535 C 385.52506,965.78148 384.93534,965.87009 384.78755,966.10921 C 384.64378,966.34185 384.09163,966.53217 383.56056,966.53217 C 382.61431,966.53217 382.60026,966.48985 382.85902,964.41882 z"/>
<path title="Mahbubnagar" d="M 365.55134,933.48704 C 365.12867,933.30541 363.67121,933.14466 362.31253,933.1298 C 360.95387,933.11494 359.31121,932.94104 358.6622,932.74334 C 358.0132,932.54565 356.79054,932.20471 355.9452,931.98571 C 355.09986,931.76672 353.77516,931.06399 353.00143,930.4241 C 351.74759,929.38716 351.57353,929.02044 351.40038,927.05109 C 351.29353,925.83582 351.08596,924.28177 350.93911,923.59763 C 350.48158,921.46615 350.97177,920.52196 353.09426,919.44642 L 355.03334,918.46381 L 354.3168,917.23384 C 353.6031,916.00875 353.58506,916.003 349.77753,915.78674 C 345.57395,915.54798 342.86883,914.67905 342.47601,913.44139 C 342.15984,912.44522 342.31456,912.32873 344.29003,912.07558 C 346.23948,911.82576 348.345,910.84528 349.37299,909.70859 C 350.24336,908.74619 350.64408,905.50766 350.03387,904.36748 C 349.66976,903.68714 349.77004,903.43913 350.71675,902.67841 C 351.82564,901.7874 351.82652,901.78307 351.99458,896.49562 C 352.12466,892.40298 352.04717,891.10854 351.65244,890.78095 C 351.37178,890.54802 351.14213,890.1055 351.14213,889.79758 C 351.14213,889.36734 351.43125,889.29955 352.39093,889.50475 C 353.07777,889.65162 353.85586,889.94589 354.12003,890.1587 C 354.43639,890.41355 354.76429,890.41631 355.08065,890.16679 C 355.77363,889.62021 358.54978,889.26255 359.94047,889.54069 C 361.10908,889.77441 361.13252,889.82285 361.13252,892.00511 C 361.13252,894.75204 360.89323,895.41063 359.73525,895.85089 C 359.02222,896.12198 358.82704,896.48164 358.82704,897.5244 C 358.82704,899.56142 360.14483,900.27502 364.49467,900.59352 L 368.04894,900.85378 L 368.04894,897.81782 C 368.04894,895.36369 367.90166,894.59463 367.28045,893.80489 C 366.19569,892.42584 366.29901,892.11188 368.145,891.17784 C 369.04317,890.72337 369.91632,890.11467 370.08532,889.82517 C 370.55624,889.01848 371.01365,889.19543 371.28852,890.29062 C 371.52158,891.21917 371.64067,891.26537 373.15535,891.01479 C 375.16673,890.68203 375.31492,890.5928 375.74804,889.45359 C 376.34419,887.88561 377.73172,888.23597 378.55887,890.16334 C 379.32232,891.94232 380.67248,893.60581 381.12561,893.32576 C 381.28228,893.22893 381.64619,893.4504 381.9343,893.81791 C 382.41723,894.43392 382.39813,894.44274 381.68966,893.93078 C 380.96533,893.40737 380.95697,893.41478 381.54416,894.05975 C 381.96201,894.5187 382.90233,894.79599 384.39968,894.90179 C 385.9485,895.01123 386.88433,895.29641 387.45552,895.83302 C 387.90835,896.25842 388.41011,896.47522 388.57055,896.31479 C 388.73098,896.15435 388.80461,896.2667 388.73416,896.56444 C 388.64868,896.92577 389.18105,897.25072 390.33519,897.54164 C 391.72724,897.89255 392.1413,898.19897 392.45933,899.11365 C 392.67662,899.73853 393.15211,900.80316 393.51601,901.47951 C 393.87992,902.15585 394.17764,902.81462 394.17764,902.94343 C 394.17764,903.07225 393.28574,904.12069 392.19564,905.27332 C 390.42985,907.14036 390.21678,907.54658 390.24251,908.99671 C 390.2584,909.89196 390.46173,911.11929 390.69438,911.72412 C 391.04168,912.62704 391.27085,912.77592 391.97508,912.55614 C 395.28787,911.52221 396.0264,911.46998 397.88965,912.13784 C 398.9124,912.50444 400.03945,912.82645 400.39419,912.85342 C 400.74892,912.88039 401.0083,913.04949 400.97056,913.22919 C 400.93281,913.4089 402.28523,914.29934 403.97591,915.20796 C 406.77632,916.71297 407.06968,916.9815 407.27243,918.22548 C 407.40454,919.03604 407.29296,919.95518 406.99786,920.48714 C 406.72445,920.98002 406.49461,921.6859 406.48712,922.05573 C 406.47496,922.65583 406.00457,922.72816 402.11423,922.72816 C 398.41652,922.72816 397.66068,922.83234 397.13369,923.41466 C 396.32365,924.30975 395.29257,926.78898 395.60178,927.09818 C 395.7343,927.23069 395.56126,927.33911 395.21727,927.33911 C 394.87327,927.33911 394.25951,927.69581 393.85335,928.13177 C 393.19584,928.83752 392.84665,928.89438 390.66835,928.6503 C 389.32277,928.49954 387.79591,928.0996 387.27533,927.76158 C 386.51413,927.2673 385.29002,927.1557 381.02254,927.19146 C 374.96838,927.2422 374.81047,927.31013 373.15412,930.57648 C 371.78236,933.28163 370.96019,933.84851 368.43318,933.8315 C 367.27084,933.82369 365.97401,933.66867 365.55134,933.48704 z"/>
<path title="Rangareddi" d="M 364.24039,900.15536 C 360.78964,899.99316 359.09628,899.05913 359.28583,897.42252 C 359.36778,896.71503 359.65994,896.37084 360.2498,896.28693 C 361.27097,896.14166 361.43577,895.6437 361.58898,892.24071 L 361.70736,889.61106 L 360.28546,889.12223 C 359.1204,888.72171 358.49828,888.72815 356.84151,889.15792 C 354.8056,889.68603 354.01148,889.62356 352.3523,888.80479 C 351.59373,888.43046 351.36496,888.47421 350.92339,889.07808 C 350.48885,889.67237 350.2956,889.71237 349.80928,889.30876 C 348.89245,888.54786 349.10701,887.63871 350.52858,886.26086 C 351.2478,885.56376 352.12438,884.23897 352.47653,883.31689 C 353.02204,881.88851 353.43986,881.48071 355.29949,880.56164 C 356.84367,879.79848 357.5181,879.23257 357.60497,878.62716 C 357.67249,878.1565 357.99652,877.77142 358.32502,877.77142 C 358.65351,877.77142 359.60719,876.99332 360.4443,876.04232 C 361.37418,874.98592 362.29264,874.31321 362.80508,874.31321 C 363.64089,874.31321 365.69862,875.53246 367.82159,877.2856 C 368.53851,877.87763 369.23159,878.13503 369.75503,878.00366 C 370.29016,877.86934 370.72165,878.04019 371.00887,878.50011 C 371.3164,878.99254 372.49438,879.40482 374.96503,879.88471 L 378.48326,880.56807 L 380.56642,878.51076 C 381.99564,877.09931 382.58341,876.24485 382.43871,875.78896 C 382.30082,875.35448 382.55909,874.90739 383.18484,874.49739 C 383.72072,874.14626 384.19413,873.42135 384.26062,872.85004 C 384.45674,871.16519 385.86376,870.96146 389.4166,872.10346 L 392.44854,873.07803 L 392.56101,876.24776 C 392.63162,878.23733 392.88199,879.71516 393.23345,880.21695 C 393.55483,880.67577 393.79875,881.92132 393.80597,883.1403 C 393.82861,886.96541 394.43581,890.36216 395.29137,891.44983 C 396.23819,892.65351 396.33487,894.00402 395.5225,894.67823 C 395.2055,894.94132 394.94613,895.39477 394.94613,895.68589 C 394.94613,895.97702 394.64354,896.21628 394.2737,896.21758 C 393.90387,896.21888 393.09229,896.48536 392.47021,896.80975 C 391.15842,897.49381 389.67297,897.09262 388.02971,895.61046 C 387.37092,895.01626 386.34471,894.65999 384.76362,894.47657 C 382.84596,894.2541 382.22302,893.98399 381.06033,892.8708 C 380.29153,892.13473 379.34495,890.76241 378.95682,889.82121 C 378.29153,888.20792 378.17356,888.11648 376.89642,888.22406 C 375.92477,888.30592 375.43449,888.58262 375.16243,889.20273 C 374.93588,889.71911 374.44562,890.06728 373.94506,890.06728 C 373.48411,890.06728 372.82316,890.1762 372.47627,890.30931 C 372.04326,890.47547 371.78064,890.30312 371.63848,889.75953 C 371.35361,888.67016 370.47581,888.41995 369.88462,889.25958 C 369.61468,889.64299 368.65893,890.3309 367.76075,890.78828 C 365.90333,891.73414 365.67417,892.63558 366.8962,894.18914 C 367.49519,894.95063 367.66469,895.74794 367.66469,897.80402 C 367.66469,899.25486 367.53501,900.40756 367.37651,900.36557 C 367.21801,900.32358 365.80676,900.22898 364.24039,900.15536 L 364.24039,900.15536 z M 385.79926,886.7293 C 386.39201,886.16143 386.87697,885.29688 386.87697,884.80808 C 386.87697,884.30193 387.10885,883.91935 387.41561,883.91935 C 387.78869,883.91935 388.03737,883.20325 388.22463,881.58981 C 388.45817,879.57765 388.39787,879.18668 387.78205,878.72019 C 387.38992,878.42315 386.7665,878.17461 386.39667,878.16789 C 385.5819,878.15308 384.18726,879.47445 384.18726,880.26121 C 384.18726,880.57392 383.51694,881.17174 382.69766,881.5897 C 381.1228,882.39314 380.53921,883.26835 381.01662,884.11073 C 381.44915,884.87394 384.18058,887.76181 384.4699,887.76181 C 384.60832,887.76181 385.20654,887.29718 385.79927,886.72931 L 385.79926,886.7293 z"/>
<path title="Medak" d="M 374.84167,879.36268 C 372.8558,878.94599 371.70868,878.50391 371.46043,878.05961 C 371.23544,877.65694 370.63164,877.38718 369.95536,877.38718 C 369.2155,877.38718 368.06256,876.80782 366.61231,875.70728 C 365.39477,874.78334 363.86549,873.91138 363.21391,873.7696 C 362.15188,873.53851 361.85366,873.70227 360.33372,875.35121 C 359.4012,876.36287 358.41607,877.13958 358.14454,877.07723 C 357.873,877.01487 357.02682,876.54037 356.2641,876.02278 C 355.50138,875.50519 354.55565,875.0817 354.16247,875.0817 C 353.24942,875.0817 353.26692,874.79182 354.41628,870.87473 C 354.94017,869.08924 355.36883,867.0688 355.36883,866.38486 C 355.36883,864.65165 355.98763,863.20631 357.10648,862.32623 C 358.22466,861.44666 358.28773,860.98624 357.42119,860.02873 C 356.855,859.4031 356.83994,859.09059 357.28626,857.23011 C 357.60016,855.92162 357.70353,854.11998 357.56173,852.42863 C 357.36221,850.04879 357.41368,849.72149 357.98738,849.72149 C 359.50081,849.72149 361.389,850.56056 362.28525,851.63138 C 363.02583,852.5162 363.61249,852.80296 364.84646,852.88333 C 365.72678,852.94066 366.41842,853.16049 366.38344,853.37182 C 366.34846,853.58316 366.49892,853.72519 366.7178,853.68745 C 366.93668,853.64971 367.14577,853.90908 367.18244,854.26382 C 367.50314,857.36589 368.5382,858.71201 370.95086,859.16463 C 371.90844,859.34427 372.65799,859.17429 373.87945,858.5005 C 375.30953,857.71162 375.55812,857.37789 375.80861,855.91062 C 376.17658,853.75504 376.31891,853.64191 377.39317,854.65113 C 378.47632,855.6687 379.09879,855.68739 380.33244,854.73941 C 381.02976,854.20356 381.464,854.10885 381.97342,854.38148 C 382.35443,854.58538 382.80507,854.66637 382.97486,854.56143 C 383.14464,854.45651 383.27075,854.74864 383.2551,855.21064 C 383.23293,855.86517 383.59263,856.17835 384.8842,856.62906 C 386.46053,857.17913 386.57351,857.16865 387.18967,856.41529 C 387.54603,855.97959 388.58729,855.04706 389.50359,854.34302 C 391.13385,853.09039 391.21072,853.07242 393.08717,853.50556 C 395.84091,854.1412 397.25161,854.08197 397.25161,853.33071 C 397.25161,852.89903 397.45394,852.79204 397.92404,852.97513 C 398.29387,853.11917 399.51823,853.42371 400.64482,853.65189 C 402.63731,854.05544 402.71829,854.12356 403.61399,856.1489 C 404.12045,857.29407 404.70967,858.12297 404.92339,857.99089 C 405.13953,857.85731 405.22264,857.9835 405.11069,858.27524 C 404.99998,858.56372 405.26134,859.11823 405.69146,859.50749 C 406.12159,859.89674 406.4735,860.51116 406.4735,860.87286 C 406.4735,861.45066 406.13939,861.50659 403.72114,861.33357 C 401.43252,861.16981 401.00448,861.22968 401.18069,861.68885 C 401.32773,862.07207 401.08568,862.26648 400.38976,862.32407 C 398.67788,862.46575 398.28794,863.21937 398.36414,866.23888 C 398.42782,868.76232 398.34108,869.09518 397.26608,870.45248 C 396.62412,871.26303 396.09887,872.11746 396.09887,872.35121 C 396.09887,873.27116 389.60553,872.23468 388.97475,871.21404 C 388.67504,870.7291 385.47239,870.7571 384.54624,871.25276 C 384.13514,871.47277 383.80301,872.05402 383.80301,872.55343 C 383.80301,873.09252 383.41594,873.70995 382.8424,874.08575 C 382.18973,874.51339 381.88178,875.06619 381.88178,875.81011 C 381.88178,876.61473 381.42557,877.32557 380.16126,878.49098 C 379.21497,879.36323 378.30719,880.05809 378.14397,880.03511 C 377.98075,880.01212 376.49471,879.70953 374.84167,879.36268 L 374.84167,879.36268 z"/>
<path title="Nizamabad" d="M 369.06138,857.76276 C 368.50453,857.32475 368.04894,856.62174 368.04894,856.20052 C 368.04894,854.37653 366.2362,852.43397 364.52083,852.41975 C 363.82772,852.414 363.22994,852.04554 362.69507,851.29439 C 361.83026,850.07989 358.97967,848.88455 357.72847,849.21174 C 357.01967,849.3971 356.98524,849.25635 357.1808,846.97185 C 357.29557,845.63113 357.61295,844.27481 357.88609,843.9578 C 358.15922,843.6408 358.43946,842.77625 358.50882,842.03658 C 358.63048,840.7391 358.69582,840.68739 360.36333,840.5689 C 362.19837,840.43851 363.43799,839.64082 363.43799,838.59038 C 363.43799,838.23983 364.81767,836.6672 366.50396,835.09566 C 368.19024,833.52412 369.57352,832.02884 369.57792,831.77281 C 369.58232,831.51679 370.32079,831.12377 371.21896,830.89943 C 372.11714,830.67509 373.15225,830.3226 373.51922,830.11613 C 373.88619,829.90965 374.42698,829.74071 374.72098,829.74071 C 375.01496,829.74071 375.46007,829.49423 375.71009,829.19298 C 376.32839,828.44797 378.97231,827.16987 379.51852,827.35194 C 379.76164,827.43298 379.96055,827.72983 379.96055,828.01161 C 379.96055,828.81106 380.80592,828.90993 382.1638,828.2693 C 383.12479,827.81592 383.60379,827.77962 384.27715,828.10916 C 384.75605,828.34352 385.98682,828.64683 387.01221,828.78317 C 388.7788,829.01806 388.86632,829.08456 388.68149,830.05142 C 388.5742,830.61262 388.7048,831.50716 388.97169,832.03929 C 389.23858,832.57143 389.56367,833.56825 389.69411,834.25446 C 389.82454,834.94068 390.62734,836.38272 391.47809,837.459 C 392.32883,838.53527 393.02491,839.74776 393.02491,840.1534 C 393.02491,840.62473 392.33102,841.31789 391.10255,842.07378 C 389.97381,842.7683 389.08784,843.62458 388.95649,844.14794 C 388.74334,844.99721 389.32753,850.92688 389.79415,852.65043 C 389.96277,853.27326 389.71224,853.67387 388.73415,854.3454 C 388.02971,854.82905 387.18172,855.55799 386.84974,855.96526 C 386.2837,856.65965 386.15814,856.66897 384.83245,856.11506 C 384.05492,855.7902 383.41876,855.27718 383.41876,854.97503 C 383.41876,854.67288 382.91373,854.21648 382.29647,853.9608 C 381.30973,853.55208 381.03128,853.60157 379.99121,854.37053 L 378.80826,855.24512 L 377.73034,854.21242 C 377.13748,853.64442 376.54486,853.1797 376.4134,853.1797 C 376.00403,853.1797 374.96536,855.55768 374.96536,856.49496 C 374.96536,858.38597 370.94987,859.24825 369.06137,857.76276 L 369.06138,857.76276 z"/>
<path title="Adilabad" d="M 425.10942,838.96261 C 424.502,838.32861 423.79259,837.80987 423.53295,837.80987 C 423.27332,837.80987 422.42235,837.13603 421.64192,836.31245 C 420.86149,835.48886 419.53965,834.50689 418.70449,834.13029 C 417.40666,833.54505 416.99398,833.515 415.86434,833.92348 C 414.8066,834.30596 414.27408,834.30429 413.1978,833.9151 C 412.45813,833.64763 411.85294,833.29061 411.85294,833.12173 C 411.85294,832.95286 411.5155,832.81468 411.10307,832.81468 C 410.59283,832.81468 409.78156,831.92441 408.56445,830.0289 C 405.66573,825.51444 405.66513,825.51401 402.15456,825.51401 C 400.48682,825.51401 398.75035,825.71308 398.29572,825.95639 C 395.03174,827.70323 386.12725,828.79872 384.49355,827.65444 C 383.41462,826.89872 382.75487,826.8915 382.01901,827.62736 C 381.28811,828.35827 380.3448,828.37286 380.3448,827.65326 C 380.3448,826.34835 377.57165,826.90329 375.49973,828.62283 C 374.8264,829.18166 371.23101,830.47812 370.30316,830.49666 C 369.95797,830.50356 369.58718,830.17126 369.47916,829.75821 C 369.36821,829.33396 368.80541,828.89028 368.18555,828.73844 C 366.73331,828.38269 366.52481,827.99484 366.51784,825.63624 C 366.51264,823.87955 366.64171,823.55272 367.61399,822.86039 C 368.40613,822.29635 368.78776,821.62713 368.97109,820.48063 C 369.45472,817.45615 369.65917,817.30859 372.98946,817.5803 C 374.60453,817.71208 376.38456,817.92534 376.94504,818.05422 C 378.16978,818.33585 379.43907,817.25126 379.78277,815.62946 C 379.90708,815.04291 380.0962,814.14001 380.20304,813.623 C 380.30989,813.106 380.99069,812.12337 381.71592,811.43939 C 382.50403,810.69611 383.03452,809.8259 383.03452,809.27636 C 383.03452,808.77067 383.48278,807.93773 384.03066,807.42538 C 384.85009,806.65909 384.99358,806.24332 384.83954,805.08149 C 384.73089,804.26196 384.87726,803.23548 385.18826,802.63603 C 385.80458,801.4481 385.87457,800.46713 385.38047,799.94246 C 384.76524,799.28917 384.46003,797.07983 384.98501,797.07983 C 385.77288,797.07983 388.05349,799.01357 388.42831,799.99944 C 388.72717,800.78548 389.03611,800.92229 390.51228,800.92229 C 392.20072,800.92229 393.71261,801.18146 397.25161,802.07756 C 398.20262,802.31836 399.66468,802.54599 400.50064,802.58339 C 401.85915,802.64418 402.04581,802.77381 402.25833,803.80413 C 402.3891,804.43814 402.91552,805.60167 403.42813,806.38975 C 404.2197,807.6067 404.95938,808.06413 408.33653,809.42514 C 412.7049,811.18561 412.35199,811.24603 413.80845,808.48839 L 414.5815,807.02471 L 415.97505,808.24827 C 417.71849,809.77903 419.31082,810.45041 422.75386,811.10645 C 425.66324,811.66081 426.50878,811.47827 427.64548,810.05041 C 428.20669,809.34546 428.39104,809.32087 429.75883,809.76854 C 431.68167,810.39788 433.55125,811.93868 434.94969,814.04652 C 436.47302,816.3426 436.41899,818.15243 434.71556,821.89036 C 433.19984,825.21638 433.0352,826.98773 434.10048,828.50747 C 434.50188,829.08009 434.92599,830.45637 435.04299,831.56588 C 435.28092,833.82217 435.06682,833.96835 432.75085,833.13088 C 431.14601,832.55057 430.29673,833.17254 430.29673,834.92815 C 430.29673,836.67853 429.35709,838.7346 428.21523,839.48278 C 426.86779,840.36566 426.37445,840.28302 425.10942,838.96261 z"/>
<path title="Karimnagar" d="M 408.13687,862.34699 C 407.67803,862.11597 407.1913,861.48341 407.05523,860.9413 C 406.91916,860.39918 406.35957,859.42528 405.81169,858.77708 C 405.26379,858.12888 404.42019,856.70778 403.937,855.61909 L 403.05847,853.63966 L 400.11253,852.94515 C 397.24635,852.26946 397.15233,852.27014 396.6403,852.97039 C 396.17442,853.6075 395.94261,853.63877 394.62094,853.24279 C 393.79974,852.99676 392.51191,852.79545 391.75908,852.79545 C 390.42005,852.79545 390.38071,852.75161 389.94904,850.77816 C 389.70635,849.66866 389.56427,847.56114 389.6333,846.0948 L 389.75882,843.42872 L 391.48792,842.42202 C 393.919,841.00662 394.03005,839.64543 391.9189,837.13905 C 390.43403,835.37617 389.71343,833.52897 389.29516,830.41314 C 389.10516,828.99775 389.12457,828.97201 390.39089,828.96 C 391.09992,828.95328 392.01569,828.69391 392.42592,828.38364 C 392.83616,828.07335 393.71511,827.81949 394.37916,827.81949 C 395.04322,827.81949 395.70128,827.70475 395.84152,827.56451 C 396.51815,826.88787 400.33989,825.89826 402.27629,825.89826 C 405.01383,825.89826 405.84769,826.51875 408.21542,830.31763 C 410.47739,833.9468 411.38512,834.45174 415.75701,834.51279 L 419.08471,834.55926 L 421.21143,836.47275 C 425.9881,840.77047 426.71262,841.10334 428.59947,839.86702 C 429.75512,839.10982 430.68098,837.05762 430.68098,835.25329 C 430.68098,833.61287 431.31026,833.34379 433.57957,834.01384 C 434.78595,834.37003 435.3687,834.76689 435.47477,835.30448 C 435.92554,837.58882 436.14643,838.06326 437.06882,838.72803 C 437.78653,839.2453 439.04153,839.52232 441.43342,839.69146 C 444.62949,839.91747 444.86704,839.9979 446.38244,841.36697 C 447.25793,842.15792 448.14666,842.80507 448.35739,842.80507 C 448.56812,842.80507 448.74053,842.97798 448.74053,843.18931 C 448.74053,843.40065 448.0572,843.57356 447.22203,843.57356 L 445.70352,843.57356 L 444.17299,846.83965 C 442.72,849.94024 442.16154,850.57833 441.63976,849.73407 C 441.51342,849.52966 440.93487,849.45745 440.3541,849.57361 C 439.29368,849.78569 438.85784,849.33 438.23551,847.35863 C 438.00657,846.63344 435.53892,845.70203 434.69971,846.02407 C 434.39143,846.14237 434.13919,846.67686 434.13919,847.21183 C 434.13919,848.3155 433.54522,848.46155 432.58623,847.59367 C 432.05714,847.11487 431.74754,847.08751 430.95334,847.44937 C 430.12432,847.8271 429.79668,847.77012 428.82691,847.07959 C 427.33007,846.01375 426.30977,846.04976 424.27862,847.24009 C 422.52338,848.26874 422.35208,848.53956 423.02877,849.21624 C 423.32854,849.51601 423.27883,849.95591 422.85192,850.78146 C 422.38814,851.67828 422.30935,852.65557 422.49204,855.24443 L 422.72596,858.55914 L 421.61223,858.57476 C 420.26171,858.59369 417.773,860.5693 418.20965,861.27581 C 418.39718,861.57922 418.34587,861.6542 418.06819,861.48258 C 417.82857,861.33449 417.26126,861.41201 416.8075,861.65485 C 416.35376,861.8977 415.26949,862.16055 414.39803,862.23899 C 413.52656,862.31743 411.949,862.46832 410.89233,862.57431 C 409.83565,862.68029 408.59569,862.578 408.13686,862.34699 L 408.13687,862.34699 z"/>
<path title="Warangal" d="M 428.43718,886.01462 C 428.19192,885.47634 427.98576,884.74147 427.97904,884.38158 C 427.95912,883.31507 427.11867,882.52934 425.69635,882.24752 C 424.96249,882.10211 423.83856,881.48625 423.19875,880.87895 C 422.50084,880.2165 421.42057,879.67737 420.49847,879.53131 C 419.65313,879.3974 418.09693,879.1573 417.04026,878.99774 C 415.98358,878.83818 414.32957,878.32407 413.36467,877.85528 C 412.39978,877.38648 411.3516,877.00293 411.03539,877.00293 C 410.7192,877.00293 410.0702,876.47505 409.5932,875.82987 C 409.11619,875.18468 408.32465,874.47397 407.8342,874.25051 C 407.34377,874.02706 406.76393,873.45232 406.54568,872.97332 C 406.15217,872.10968 402.95392,869.70226 402.20009,869.70226 C 401.98427,869.70226 401.5483,869.4429 401.23129,869.12589 C 400.9143,868.80889 400.34565,868.54953 399.96764,868.54953 C 399.41591,868.54953 399.23667,868.12633 399.0589,866.40393 C 398.79827,863.87858 398.99764,863.17009 399.96892,863.17009 C 400.36153,863.17009 400.87984,862.80189 401.12068,862.35187 C 401.51142,861.62175 401.79683,861.55525 403.77143,861.7343 C 404.98852,861.84466 406.74278,862.26092 407.66982,862.65931 C 409.01671,863.23813 409.74134,863.32009 411.27657,863.06724 C 412.33325,862.89321 413.88944,862.70704 414.73478,862.65354 C 416.52165,862.54045 417.61096,862.00532 419.44788,860.33818 C 420.17671,859.67671 421.14787,859.12652 421.606,859.11553 C 422.06412,859.10455 422.65078,858.96466 422.90964,858.80468 C 423.50845,858.43459 423.52612,855.07286 422.93606,853.77781 C 422.57613,852.98785 422.62005,852.51838 423.16749,851.30438 C 423.53911,850.48027 423.73917,849.47835 423.61208,849.0779 C 423.10559,847.48209 426.92743,846.4064 428.69787,847.64647 C 429.27273,848.04912 429.99812,848.1861 430.80066,848.04356 C 431.58148,847.90487 432.29636,848.03033 432.77171,848.38947 C 433.18195,848.69941 433.83819,848.953 434.23004,848.953 C 434.83617,848.953 434.90485,848.75229 434.69021,847.60814 C 434.4029,846.07666 434.64085,845.98093 436.64913,846.82004 C 437.4934,847.1728 437.98165,847.63902 437.98165,848.09244 C 437.98165,849.20381 439.44498,850.56514 440.33573,850.28243 C 440.75194,850.15033 441.34356,850.25061 441.65042,850.50528 C 442.48007,851.19383 443.08228,850.51766 444.55585,847.24306 C 445.75027,844.58879 445.91931,844.39589 447.19029,844.23683 C 448.89685,844.02326 448.99367,844.11775 448.47534,845.49096 C 448.1025,846.47871 448.22419,846.94073 449.50877,849.41481 C 450.30958,850.95717 451.07909,852.76204 451.21878,853.42566 C 451.38619,854.22096 452.12038,855.17832 453.37273,856.23431 C 455.21503,857.78775 455.2727,857.89903 455.2727,859.89943 C 455.2727,862.98404 454.16874,863.81115 451.73287,862.55151 C 450.18975,861.75353 447.97231,862.03847 446.46689,863.22817 C 445.83877,863.72456 445.31527,864.44573 445.30357,864.83077 C 445.29187,865.21581 444.8304,866.30198 444.27805,867.24448 C 443.39591,868.74974 443.32014,869.14075 443.65497,870.45984 C 444.18593,872.55171 443.14952,873.54472 440.43527,873.54472 C 438.1576,873.54472 437.5974,873.99982 437.5974,875.85019 C 437.5974,876.611 437.41093,877.41995 437.18302,877.64786 C 436.63548,878.19539 438.58098,882.14803 439.20743,881.76086 C 439.45916,881.60528 439.53053,881.66801 439.37961,881.9122 C 439.23785,882.14159 439.29758,882.43788 439.51236,882.57062 C 440.21866,883.00713 439.92111,884.14235 438.82517,885.19232 C 437.58844,886.3772 436.17512,886.52857 435.46146,885.55259 C 435.13041,885.09985 434.40317,884.86507 433.23421,884.83354 C 431.79114,884.79463 431.32029,884.97275 430.44148,885.89003 C 429.14906,887.23902 428.9993,887.24833 428.43718,886.01462 L 428.43718,886.01462 z"/>
<path title="Khammam" d="M 450.04744,904.96228 C 449.60388,904.6951 447.88555,902.95868 446.22892,901.10357 C 444.57228,899.24846 442.86026,897.65109 442.42442,897.55386 C 441.98858,897.45662 440.57012,897.41825 439.27229,897.46857 L 436.91259,897.56007 L 434.60428,895.06248 C 432.93346,893.25468 432.23126,892.16947 432.06177,891.1332 C 431.90149,890.15337 431.46474,889.43325 430.67792,888.85152 C 430.04561,888.38403 429.52824,887.85284 429.52824,887.67112 C 429.52824,886.96898 431.65994,885.46394 432.41328,885.63419 C 432.83771,885.73012 433.434,885.65469 433.73838,885.46657 C 434.12702,885.22638 434.55998,885.41391 435.19254,886.09646 C 435.90037,886.86021 436.31609,887.01332 437.13353,886.81132 C 439.59748,886.20244 441.17356,883.21214 439.68267,881.97482 C 439.35023,881.69891 438.73188,880.79429 438.30858,879.96456 C 437.69562,878.76303 437.61995,878.2494 437.93689,877.44125 C 438.15575,876.88317 438.38505,875.90783 438.44642,875.27382 C 438.55585,874.14343 438.59538,874.12331 440.48541,874.23594 C 442.20398,874.33835 442.53382,874.22449 443.52959,873.18513 C 444.57489,872.09406 444.61824,871.92784 444.2069,870.58758 C 443.81453,869.3091 443.86917,868.98209 444.717,867.53538 C 445.23927,866.64422 445.66656,865.58934 445.66656,865.19122 C 445.66656,864.37855 447.28373,863.0485 448.74053,862.66301 C 449.29627,862.51594 450.44675,862.67371 451.47021,863.03731 C 454.60386,864.15059 456.04119,863.0009 456.04119,859.38108 C 456.04119,858.21642 455.72593,857.71882 453.92784,856.04542 C 452.7655,854.96367 451.81449,853.82398 451.81449,853.51277 C 451.81449,853.20155 451.13708,851.54613 450.30914,849.83404 C 449.05649,847.24375 448.83968,846.45348 449.01764,845.12672 C 449.16007,844.06475 449.39249,843.59407 449.7136,843.71729 C 449.97876,843.81904 450.59771,843.47437 451.08906,842.95135 C 451.72952,842.26962 452.30869,842.03273 453.13489,842.11455 C 454.09976,842.21012 454.43893,842.54628 455.21847,844.17963 C 455.73294,845.2576 456.70626,846.512 457.39366,846.98302 C 459.5044,848.42931 460.86491,853.0964 459.90884,855.61104 C 459.12025,857.68519 460.58177,859.13794 462.45074,858.1377 C 463.18886,857.74267 463.54723,857.73404 464.12885,858.09727 C 465.15339,858.73711 466.03548,858.67471 466.88934,857.90199 C 467.51576,857.33508 467.66422,857.32189 467.97038,857.80593 C 468.44039,858.54897 468.43151,859.60815 467.95281,859.904 C 467.46998,860.2024 467.44409,863.8163 467.92266,864.11207 C 468.11742,864.23243 468.3971,865.49624 468.54419,866.92052 C 468.92989,870.6553 469.31516,870.96939 473.12847,870.65778 C 475.13902,870.49349 476.61572,870.56083 477.36683,870.85109 C 479.28148,871.59098 487.29639,870.27593 489.17549,868.91357 C 489.75287,868.49496 491.0497,868.04494 492.05733,867.91351 C 493.06496,867.78209 494.21784,867.50568 494.61928,867.29928 C 495.29018,866.95433 495.3301,867.04152 495.1132,868.3781 C 494.86365,869.91585 494.48233,870.32538 492.92878,870.72408 C 492.40044,870.85967 491.40019,871.46333 490.70599,872.06554 C 490.0118,872.66776 489.20677,873.16047 488.91704,873.16047 C 488.39588,873.16047 486.04411,876.36496 485.97821,877.16487 C 485.95944,877.3928 485.97022,878.36237 486.00219,879.31946 C 486.05375,880.86297 485.8761,881.26461 484.43018,882.87373 C 482.96446,884.50487 482.63261,884.68784 481.14011,884.68784 C 480.22714,884.68784 479.48018,884.8491 479.48018,885.04619 C 479.48018,885.40251 479.09843,885.55482 477.07864,886.00431 C 476.49747,886.13364 476.02197,886.48224 476.02197,886.77896 C 476.02197,887.07567 475.48993,887.85048 474.83967,888.50074 C 473.6974,889.64301 473.54214,889.68304 470.25374,889.68304 C 465.62732,889.68304 465.1452,889.92141 463.67554,892.93561 C 462.39983,895.55199 461.82694,895.89685 460.20138,895.02688 C 459.63405,894.72326 459.30068,894.72325 458.99706,895.02688 C 458.29147,895.73248 457.62561,895.50029 457.02523,894.33929 C 456.18374,892.71202 454.09772,892.39116 452.45725,893.63665 C 451.78673,894.14574 450.60708,894.67938 449.83581,894.82253 C 448.14799,895.13581 447.7401,895.57604 447.38699,897.46563 C 447.12671,898.85836 447.16707,898.92891 448.5559,899.5092 C 449.57629,899.93554 450.11371,899.99092 450.40492,899.69971 C 451.04855,899.05608 452.39912,899.21762 453.13042,900.0257 C 453.67394,900.6263 453.71446,900.9164 453.34992,901.59755 C 453.00768,902.23703 453.01263,902.69783 453.37102,903.56306 C 453.6285,904.18467 453.75085,904.78156 453.64292,904.88949 C 453.1744,905.35803 450.78472,905.4064 450.04743,904.96228 L 450.04744,904.96228 z"/>
<path title="Nalgonda" d="M 405.89713,915.67755 C 397.41381,910.73531 396.56423,910.49136 392.35932,911.79037 C 391.66421,912.00511 391.42748,911.86034 391.11052,911.02668 C 390.3009,908.89721 390.61571,907.7717 392.64066,905.55608 C 393.69734,904.3999 394.56189,903.18883 394.56189,902.8648 C 394.56189,902.54077 394.19433,901.56047 393.74509,900.68635 C 392.39503,898.05945 392.25641,897.77027 392.25641,897.58071 C 392.25641,897.48066 392.94806,897.19158 393.7934,896.93831 C 394.63874,896.68504 395.33038,896.26699 395.33038,896.00932 C 395.33038,895.75164 395.58975,895.32557 395.90675,895.06248 C 396.75141,894.36147 396.63321,892.00568 395.70373,891.0163 C 395.04498,890.31511 394.88774,889.47855 394.68786,885.6121 C 394.50375,882.05072 394.2934,880.81161 393.73813,880.01758 C 393.25709,879.32969 393.02662,878.32895 393.03015,876.94361 C 393.03869,873.59657 393.26473,873.16047 394.99095,873.16047 C 395.81164,873.16047 396.48312,872.98029 396.48312,872.76007 C 396.48312,872.1614 398.91817,868.96604 399.38758,868.94876 C 399.61134,868.94052 400.13009,869.18764 400.54032,869.49792 C 400.95053,869.8082 401.49366,870.06757 401.74723,870.07429 C 402.61061,870.09717 405.75723,872.47931 406.09396,873.36497 C 406.27849,873.85033 406.78532,874.36039 407.22024,874.49843 C 407.65515,874.63647 408.46368,875.3429 409.01696,876.06829 C 409.6209,876.86011 410.35788,877.38718 410.86109,877.38718 C 411.32207,877.38718 411.90118,877.58911 412.148,877.83593 C 412.93855,878.62648 415.41187,879.36325 418.85632,879.83424 C 421.80208,880.23705 422.36436,880.44297 423.48556,881.52967 C 424.18745,882.20999 425.08573,882.76662 425.4817,882.76662 C 426.44006,882.76662 427.60635,883.85823 427.3531,884.51818 C 427.24196,884.80782 427.51298,885.55315 427.95538,886.17444 C 428.39779,886.79574 428.75975,887.4273 428.75975,887.5779 C 428.75975,887.72851 429.45139,888.52295 430.29673,889.34333 C 431.28225,890.29974 431.83372,891.17958 431.83372,891.79552 C 431.83372,892.39873 432.4151,893.3552 433.39634,894.3663 C 434.25579,895.25189 435.29451,896.4477 435.70462,897.02365 L 436.45027,898.07082 L 435.46036,899.24727 L 434.47043,900.42371 L 435.45755,901.71788 C 436.00046,902.42968 436.44466,903.38128 436.44466,903.83256 C 436.44466,905.16016 435.34389,907.52527 434.4728,908.06928 C 433.76806,908.5094 433.35652,908.42043 431.21079,907.36409 C 428.51199,906.03548 428.41757,906.04076 424.72517,907.72688 C 423.45716,908.30591 421.81451,909.043 421.07484,909.36486 C 420.33517,909.68671 417.76248,910.1424 415.35775,910.37751 C 410.47709,910.85468 410.64424,910.75345 408.76375,914.37082 C 408.13202,915.586 407.57444,916.5786 407.52465,916.5766 C 407.47486,916.5746 406.74248,916.17002 405.89713,915.67754 L 405.89713,915.67755 z"/>
<path title="Hyderabad" d="M 382.74633,885.47316 C 382.05949,884.67285 381.49754,883.73999 381.49754,883.40014 C 381.49754,883.06029 382.18641,882.4308 383.02837,882.00126 C 383.99895,881.50611 384.64794,880.86673 384.80168,880.25421 C 385.13007,878.94575 386.24502,878.3787 387.25237,879.00781 C 387.6799,879.27481 388.02971,879.71376 388.02971,879.98325 C 388.02971,880.78043 387.09544,883.53511 386.82507,883.53511 C 386.68811,883.53511 386.45737,884.01061 386.31233,884.59178 C 386.01207,885.79484 385.04008,887.00904 384.41589,886.96079 C 384.18447,886.94291 383.43317,886.27347 382.74633,885.47316 L 382.74633,885.47316 z"/>
<path title="Y.S.R." d="M 406.76263,1008.1398 C 406.00025,1008.0243 405.63635,1007.6933 405.45304,1006.9486 C 405.04784,1005.3024 404.21341,1004.2855 403.09407,1004.0737 C 402.52241,1003.9655 401.27658,1003.576 400.32557,1003.208 C 399.37456,1002.8401 397.08962,1002.457 395.24793,1002.3567 C 392.35987,1002.1994 391.73187,1002.2804 390.6812,1002.9456 C 389.46505,1003.7156 389.46087,1003.7156 388.17,1002.954 C 387.42304,1002.5133 386.87697,1001.8826 386.87697,1001.4606 C 386.87697,1001.0588 386.68066,1000.73 386.44073,1000.73 C 386.20079,1000.73 385.59057,1000.2834 385.08467,999.73754 C 384.28388,998.87346 383.9657,998.77869 382.62578,999.00506 C 379.88443,999.46822 378.67708,997.39734 379.05841,992.88627 C 379.2932,990.10869 379.28905,990.09254 378.12717,989.26521 C 377.48525,988.80814 376.72741,988.43198 376.44303,988.4293 C 375.65765,988.42192 371.44039,986.19994 370.45536,985.27455 C 369.97717,984.8253 369.58592,984.22853 369.58592,983.94837 C 369.58592,983.66821 369.33527,983.43898 369.02893,983.43898 C 368.72258,983.43898 367.58815,982.79056 366.50799,981.99806 L 364.54403,980.55713 L 365.97658,979.4044 C 366.76447,978.77039 368.10926,977.58613 368.96499,976.77271 L 370.52088,975.29376 L 369.28144,974.2751 C 367.80015,973.05769 367.61527,971.23927 368.81743,969.71098 C 369.2401,969.17364 369.58828,968.36827 369.59117,967.92127 C 369.6025,966.1654 370.03972,965.37943 371.00515,965.37943 C 371.93971,965.37943 373.46636,964.10375 374.58501,962.38809 C 375.06278,961.65535 375.36819,961.55288 376.43115,961.76867 C 377.59864,962.00568 377.69561,962.13418 377.59429,963.31027 C 377.40762,965.47685 378.19931,965.75438 379.88126,964.11199 C 380.68237,963.32974 381.63047,962.68971 381.98815,962.68971 C 382.55361,962.68971 382.60705,962.99058 382.39752,964.99519 C 382.16168,967.25152 382.17662,967.30066 383.09846,967.30066 C 383.61652,967.30066 384.37602,967.05146 384.78624,966.74688 C 385.19646,966.44232 385.92248,966.28848 386.3996,966.40503 C 386.87671,966.52158 387.82772,966.35035 388.51295,966.0245 C 390.27332,965.18739 391.27095,963.31718 391.23823,960.91556 C 391.21434,959.16216 391.32641,958.88138 392.27352,958.32191 C 392.88856,957.95861 394.1749,957.69452 395.32958,957.69452 C 396.98316,957.69452 397.35699,957.82239 397.51944,958.44358 C 397.67198,959.02689 398.11015,959.2182 399.49945,959.30813 L 401.28359,959.42362 L 401.73265,962.88183 C 402.16348,966.19952 403.92249,972.26888 405.12985,974.60365 C 405.4462,975.21539 405.70501,975.98513 405.70501,976.31418 C 405.70501,976.64324 406.62594,978.25125 407.75151,979.88754 C 410.41095,983.75365 411.32513,986.4037 412.09166,992.46875 C 412.19848,993.31409 412.38961,994.2651 412.51635,994.5821 C 412.64311,994.8991 412.77592,997.64472 412.81152,1000.6835 L 412.87622,1006.2085 L 411.13661,1007.3117 C 409.44506,1008.3845 408.97029,1008.4744 406.76263,1008.1398 L 406.76263,1008.1398 z"/>
</g>
<g class="label" text-anchor="middle" font-size="6" font-family="sans-serif">
<text x="567" y="844">Srikakulam</text>
<text x="547" y="855">Vizianagaram</text>
<text x="524" y="870">Visakhapatnam</text>
<text x="502" y="888">East Godavari</text>
<text x="479" y="904">West Godavari</text>
<text x="460" y="916">Krishna</text>
<text x="433" y="924">Guntur</text>
<text x="418" y="944">Prakasam</text>
<text x="422" y="988">Sri Potti Sriramulu Nellore</text>
<text x="396" y="1018">Chittoor</text>
<text x="348" y="975">Anantapur</text>
<text x="366" y="948">Kurnool</text>
<text x="375" y="915">Mahbubnagar</text>
<text x="370" y="888">Rangareddi</text>
<text x="379" y="868">Medak</text>
<text x="377" y="843">Nizamabad</text>
<text x="400" y="820">Adilabad</text>
<text x="410" y="846">Karimnagar</text>
<text x="428" y="866">Warangal</text>
<text x="460" y="884">Khammam</text>
<text x="411" y="892">Nalgonda</text>
<text x="385" y="883">Hyderabad</text>
<text x="388" y="981">Y.S.R.</text>
</g>
</svg>

