<svg xmlns="http://www.w3.org/2000/svg" viewBox="794 456 188 106">
<g title="Arunachal Pradesh" fill="#328707">
<path title="Tawang" d="M 813.46401,536.82518 L 812.48597,535.92886 L 808.61447,535.72842 C 804.53429,535.51716 802.65026,535.15743 801.1978,534.31233 C 799.54209,533.34897 798.78175,530.49837 799.90852,529.47866 C 800.6888,528.77251 800.58572,527.51708 799.63187,526.10941 C 798.71323,524.75371 798.5507,523.27231 799.27606,522.86638 C 799.61649,522.67587 800.07224,522.85237 801.09368,523.57033 C 801.84347,524.09734 803.03283,524.68046 803.7367,524.86614 C 804.92905,525.18067 807.27773,526.56353 807.65422,527.1727 C 807.74538,527.3202 808.37562,527.44089 809.05474,527.44089 C 810.13675,527.44089 810.49612,527.27103 811.95951,526.06789 C 812.87801,525.31273 813.94256,524.18177 814.32518,523.55464 C 815.01228,522.4284 818.7451,519.29454 819.40319,519.29142 C 819.59585,519.29051 819.74282,519.625 819.74282,520.06437 C 819.74282,521.89534 820.94154,523.36535 822.43462,523.36535 C 822.79178,523.36535 823.73948,524.13877 824.97127,525.43552 C 827.07491,527.65011 827.20652,528.0533 826.36017,529.69042 C 826.14546,530.10576 826.0548,530.58314 826.15871,530.75128 C 826.26667,530.92597 826.2264,530.98205 826.06475,530.88214 C 825.74062,530.68182 825.06164,531.38261 825.26429,531.70831 C 825.3381,531.82693 824.56894,531.88397 823.55505,531.83507 C 821.7816,531.74954 821.69004,531.77648 821.1428,532.545 C 820.82995,532.98436 820.66207,533.44134 820.76973,533.5605 C 820.8774,533.67967 820.81827,533.6927 820.63835,533.58945 C 820.25216,533.36785 818.87956,533.66404 819.04585,533.9331 C 819.10877,534.03489 818.83967,534.14471 818.44786,534.17713 C 817.74809,534.23505 817.22196,534.70654 817.44835,535.07284 C 817.51159,535.17518 817.3507,535.24215 817.09079,535.22167 C 816.83088,535.20118 816.64401,535.32286 816.67551,535.49208 C 816.70702,535.6613 816.52881,535.78356 816.27951,535.76378 C 816.03021,535.74401 815.66904,536.04839 815.47691,536.44019 C 814.83954,537.73998 814.52738,537.79968 813.46402,536.82518 L 813.46401,536.82518 z"/>
<path title="West Kameng" d="M 817.72157,553.88522 C 817.43177,553.16372 816.55804,551.90093 815.77993,551.07902 L 814.3652,549.58466 L 814.90877,547.54689 C 815.67261,544.68337 815.87815,540.01043 815.29194,538.83535 C 814.89704,538.04376 814.8934,537.89868 815.25818,537.49559 C 815.48319,537.24696 815.66728,536.90208 815.66728,536.72917 C 815.66728,536.55627 816.15634,536.09114 816.75409,535.69557 C 817.35183,535.3 817.8409,534.87034 817.8409,534.74076 C 817.8409,534.61117 818.08543,534.50516 818.38431,534.50516 C 818.68318,534.50516 818.92771,534.40446 818.92771,534.28138 C 818.92771,534.15829 819.37423,533.94433 819.91998,533.8059 C 820.46573,533.66746 821.04649,533.30967 821.21057,533.01079 C 821.66916,532.17545 821.93541,532.06848 823.56722,532.06399 C 824.78826,532.06064 825.19059,531.94124 825.64113,531.4485 C 826.38399,530.63607 826.96717,529.42284 827.17931,528.24846 C 827.34157,527.35019 827.24998,527.18857 825.72126,525.67579 C 824.8241,524.788 824.09006,523.98137 824.09006,523.88329 C 824.09006,523.78522 824.42826,523.63734 824.84161,523.55467 C 825.25497,523.472 826.42349,522.79142 827.43833,522.04228 C 829.34467,520.63505 830.3129,520.2019 832.00305,520.0002 C 832.7951,519.90568 832.98105,519.97084 832.95401,520.33344 C 832.93552,520.58134 833.05885,520.7584 833.22806,520.7269 C 833.39729,520.6954 833.51955,520.8788 833.49977,521.13446 C 833.48,521.39011 833.58607,521.5789 833.73551,521.554 C 833.88828,521.52853 834.00721,522.14159 834.00721,522.95449 C 834.00721,523.76527 833.89743,524.33242 833.75726,524.24579 C 833.61894,524.16031 833.58722,524.29955 833.68622,524.55755 C 833.78463,524.81398 833.75809,524.95763 833.62725,524.87677 C 833.49642,524.79591 833.31447,526.04279 833.22293,527.64761 C 833.01426,531.30595 832.9874,531.50594 832.72633,531.34459 C 832.60891,531.27203 832.51285,531.50155 832.51285,531.85465 C 832.51285,532.22928 832.90132,532.87316 833.44562,533.40072 C 833.95865,533.89796 834.52689,534.66332 834.7084,535.10151 C 835.03039,535.87887 835.08197,535.89676 836.83228,535.83832 C 838.33852,535.78804 838.61411,535.84733 838.55103,536.20812 C 838.50971,536.44445 838.6014,536.71537 838.7548,536.81018 C 838.90821,536.90499 839.03371,537.49956 839.03371,538.13147 C 839.03371,539.15062 839.18715,539.43151 840.39222,540.61847 C 841.48079,541.69067 841.75074,542.13575 841.75074,542.85833 C 841.75074,543.40773 841.59209,543.82098 841.34474,543.9159 C 841.12145,544.00159 840.98789,544.15058 841.04795,544.247 C 841.10802,544.34341 840.35688,544.38056 839.37878,544.32954 C 836.70999,544.19033 835.48822,544.64005 833.86108,546.36051 C 832.87723,547.40077 832.50281,548.0013 832.56875,548.43319 C 832.61982,548.76762 832.80713,549.01215 832.985,548.97659 C 833.16287,548.94101 833.2461,549.07427 833.16996,549.27268 C 833.09381,549.4711 833.22048,549.79028 833.45144,549.98195 C 834.0734,550.49813 833.97122,551.48238 833.26003,551.82582 C 832.18026,552.34725 830.8246,552.70924 829.95158,552.70924 C 829.4841,552.70924 828.86045,552.87006 828.56569,553.06661 C 827.76599,553.59985 825.94075,554.06775 824.66031,554.06775 C 824.03728,554.06775 823.25674,554.24089 822.92577,554.4525 C 822.59479,554.66411 821.407,554.91821 820.28622,555.01715 L 818.24845,555.19707 L 817.72157,553.88522 z M 834.14306,546.32423 C 834.65,545.8012 835.1259,545.37327 835.20062,545.37327 C 835.27534,545.37327 834.9217,545.8012 834.41477,546.32423 C 833.90783,546.84725 833.43193,547.27519 833.35721,547.27519 C 833.28249,547.27519 833.63612,546.84725 834.14306,546.32423 z"/>
<path title="East Kameng" d="M 845.94503,551.86989 C 844.23727,550.07367 840.15671,548.43469 838.73685,548.97468 C 838.37709,549.1115 837.22689,549.44556 836.18083,549.71704 C 834.41585,550.17511 834.24287,550.17856 833.77827,549.76484 C 832.51038,548.63584 832.60363,548.05385 834.3288,546.32868 C 835.57707,545.08041 836.96975,544.55816 839.05018,544.55816 C 839.91829,544.55816 840.94218,544.43892 841.3255,544.29318 C 841.92492,544.06528 842.02244,543.86424 842.02244,542.85653 C 842.02244,541.81006 841.87726,541.54186 840.66393,540.34677 C 839.47077,539.17155 839.30541,538.87265 839.30541,537.89109 C 839.30541,536.29224 838.49432,535.59197 836.64245,535.59197 C 835.31562,535.59197 835.21608,535.54267 834.85943,534.70894 C 834.65167,534.22327 834.09983,533.4668 833.63312,533.02789 C 832.74091,532.18883 832.57383,531.56413 833.1007,531.03726 C 833.27458,530.86338 833.51926,529.34116 833.64443,527.65456 C 833.76959,525.96796 833.94573,524.00194 834.03583,523.28562 C 834.17671,522.16562 834.09609,521.82673 833.46006,520.86563 C 832.72216,519.75057 832.72173,519.74705 833.27307,519.31514 C 833.577,519.07705 833.96972,518.38882 834.14578,517.78574 C 834.36926,517.02023 834.61619,516.68922 834.96379,516.68922 C 835.23762,516.68923 835.40347,516.78341 835.33233,516.89852 C 835.26118,517.01363 835.60639,517.35888 836.09946,517.66573 C 836.8156,518.11141 837.35984,518.2079 838.80489,518.1454 C 839.7998,518.10236 840.55345,518.1642 840.47964,518.28282 C 840.30361,518.56574 840.93547,519.32198 841.20744,519.15389 C 841.32307,519.08242 841.40092,519.2366 841.38043,519.49651 C 841.35995,519.75641 841.48163,519.94329 841.65085,519.91179 C 841.82007,519.88029 841.94233,520.06369 841.92255,520.31935 C 841.90278,520.575 842.04851,520.75058 842.24641,520.70951 C 842.44634,520.66803 842.52507,520.7662 842.42357,520.93041 C 842.17486,521.33283 843.12003,522.33254 843.5817,522.15538 C 843.78569,522.0771 843.8801,522.13034 843.79151,522.27368 C 843.40961,522.8916 846.26877,523.0659 848.40745,522.55507 C 849.15464,522.3766 850.24902,522.2108 850.83942,522.18663 C 851.84306,522.14555 851.92468,522.19972 852.09448,523.0198 C 852.19437,523.50221 852.17826,523.83645 852.05869,523.76255 C 851.61104,523.48589 851.56789,524.15671 851.86821,526.72312 C 852.10621,528.75702 852.26203,529.32934 852.54789,529.21965 C 852.75188,529.14137 852.85144,529.18628 852.76913,529.31945 C 852.62345,529.55517 854.09934,530.21707 854.30718,530.00923 C 854.47838,529.83804 854.07553,532.70029 853.85775,533.20249 C 853.66628,533.64404 854.03536,534.12293 855.44586,535.26305 C 856.11791,535.80628 855.96121,536.70423 855.02596,537.66916 C 854.48959,538.22256 854.16161,538.84816 854.14293,539.35353 C 854.12658,539.79572 854.0357,540.10994 853.94097,540.05181 C 853.65722,539.8777 853.09333,541.50981 853.31391,541.86671 C 853.43666,542.06531 853.40431,542.12658 853.2327,542.02052 C 852.91463,541.82394 852.61885,542.41431 852.61885,543.24575 C 852.61885,543.73113 852.73786,543.77071 853.70566,543.6072 C 854.34993,543.49835 854.79247,543.5304 854.79247,543.6859 C 854.79247,544.14402 854.14145,544.51087 853.16339,544.60389 C 852.58194,544.65919 852.18554,544.85385 852.13758,545.10765 C 852.05218,545.55955 853.86015,547.68274 854.33035,547.68274 C 854.49047,547.68274 854.62938,548.17181 854.63905,548.76955 C 854.65228,549.58766 854.75738,549.83477 855.06417,549.76903 C 855.95843,549.5774 854.7492,550.40305 853.49011,550.84378 C 852.78676,551.08998 851.4777,551.60752 850.58108,551.99388 C 848.29796,552.97767 846.96437,552.94201 845.94504,551.86989 L 845.94503,551.86989 z"/>
<path title="Kurung Kumey" d="M 864.67892,528.88424 C 864.36316,528.82215 863.96842,528.47201 863.80171,528.10613 C 863.62931,527.72776 863.26764,527.44089 862.963,527.44089 C 862.6684,527.44089 861.86539,527.0616 861.17851,526.59803 C 860.11102,525.87759 859.82295,525.79539 859.19505,526.03206 C 858.79102,526.18434 858.01796,526.36994 857.47714,526.4445 C 856.32726,526.60303 853.66443,527.69767 853.8191,527.94825 C 853.87747,528.04279 853.64052,528.1372 853.29256,528.15805 C 852.84309,528.18498 852.57722,527.9883 852.37436,527.47879 C 851.93755,526.38173 851.93397,524.12645 852.36794,523.43233 C 853.17167,522.14678 851.38614,520.99889 849.82341,521.79649 C 848.2708,522.58891 845.80603,522.7883 844.1505,522.25539 C 843.40904,522.01672 842.92856,521.57876 842.27327,520.54429 C 840.74111,518.12551 840.48381,517.9323 838.78257,517.92307 C 837.55939,517.91642 836.9537,517.73394 835.63743,516.97551 C 834.74081,516.45887 834.12022,516.03465 834.25835,516.03277 C 834.39647,516.0309 834.23797,515.74036 833.90612,515.38712 C 833.31928,514.76246 833.31502,514.7142 833.75032,513.62626 C 834.24871,512.38067 835.2568,511.63366 837.10149,511.14298 C 837.77993,510.96252 839.34208,510.05644 840.72579,509.04083 C 842.06335,508.05909 844.03083,506.90053 845.09797,506.46625 C 846.40202,505.93557 847.29419,505.36614 847.8188,504.7297 C 848.35752,504.07612 848.69681,503.86361 848.91389,504.04377 C 849.08688,504.18734 850.17455,504.30975 851.33093,504.31579 C 852.48731,504.32183 853.68061,504.45905 853.98272,504.62073 C 854.28482,504.78241 854.65476,504.83882 854.80481,504.74608 C 854.95487,504.65334 855.04404,504.73939 855.00298,504.93729 C 854.96192,505.1352 855.13749,505.28093 855.39314,505.26116 C 855.64881,505.24138 855.8322,505.36364 855.8007,505.53286 C 855.76409,505.72957 856.24872,505.84052 857.14462,505.84052 C 857.91528,505.84052 858.48411,505.93984 858.4087,506.06124 C 858.3333,506.18263 859.3874,506.25742 860.75115,506.22745 C 862.1149,506.19747 863.31892,506.27059 863.42675,506.38992 C 863.53459,506.50926 863.43941,506.50823 863.21525,506.38763 C 862.9019,506.21905 862.87907,506.24581 863.11649,506.50342 C 863.40813,506.81988 864.35569,506.81361 868.41962,506.4683 C 868.96576,506.4219 869.3526,506.48098 869.27927,506.59961 C 869.09392,506.89943 869.74412,507.63372 870.03549,507.45364 C 870.16628,507.3728 870.19279,507.51647 870.09439,507.7729 C 869.97382,508.0871 870.01812,508.1757 870.23024,508.04461 C 870.44236,507.9135 870.48666,508.00211 870.36609,508.31631 C 870.24552,508.6305 870.28982,508.71911 870.50194,508.58801 C 870.70287,508.46383 870.762,508.53603 870.66544,508.78766 C 870.58225,509.00445 870.64478,509.26256 870.80441,509.36121 C 870.96403,509.45987 871.09463,510.09078 871.09463,510.76324 C 871.09463,511.4357 871.19486,511.92396 871.31736,511.84825 C 871.43987,511.77253 871.53313,512.12141 871.52461,512.62352 C 871.51609,513.12563 871.42,513.48136 871.31107,513.41405 C 871.00186,513.22295 869.42968,515.54694 869.58838,515.96052 C 869.66621,516.16335 869.60903,516.2546 869.4613,516.1633 C 869.31358,516.072 869.19271,516.18648 869.19271,516.41768 C 869.19271,516.69802 869.55475,516.89595 870.27952,517.01185 C 871.45112,517.19919 871.59849,517.40038 870.95519,517.93427 C 870.72906,518.12194 870.57623,518.4704 870.61556,518.70862 C 870.65489,518.94685 870.56481,519.14638 870.41537,519.15202 C 869.93679,519.17009 869.45048,519.59085 869.60995,519.84887 C 869.69486,519.98627 869.5972,520.03455 869.39291,519.95616 C 868.87881,519.75888 867.5625,521.04039 867.5625,521.73819 C 867.5625,522.10169 867.67699,522.23985 867.87618,522.11674 C 868.06256,522.00155 868.11641,522.04172 868.00889,522.2157 C 867.90935,522.37675 868.09436,522.96013 868.42003,523.51209 C 869.05763,524.59273 869.29089,526.08636 868.80852,525.9996 C 868.64623,525.9704 868.54255,526.09496 868.57812,526.27637 C 868.61369,526.45779 868.48044,526.54393 868.28202,526.46779 C 867.93496,526.3346 867.43602,526.7378 867.24597,527.30504 C 867.19591,527.45447 867.04794,527.54107 866.91716,527.49748 C 866.57649,527.38392 865.64561,528.28367 865.81695,528.5609 C 865.89591,528.68865 865.7507,528.71267 865.49427,528.61427 C 865.17795,528.49288 865.0912,528.53756 865.22449,528.75323 C 865.33254,528.92806 865.38316,529.05445 865.33698,529.0341 C 865.29081,529.01375 864.99467,528.94631 864.67892,528.88423 L 864.67892,528.88424 z"/>
<path title="Upper Subansiri" d="M 881.58537,519.96906 C 880.21527,518.59896 879.64078,518.203 879.02307,518.203 C 878.58514,518.203 877.83299,518.12423 877.35163,518.02796 C 876.55647,517.86893 876.49083,517.78095 876.63383,517.06597 C 876.82563,516.10697 876.31948,515.21558 875.58029,515.21056 C 874.75467,515.20494 873.81166,514.90755 873.81166,514.65279 C 873.81166,514.17035 872.12233,511.95383 871.75464,511.95383 C 871.48212,511.95383 871.36633,511.62656 871.36633,510.8562 C 871.36633,509.65643 870.6514,508.03585 869.64128,506.94591 C 868.92756,506.1758 867.46506,505.7463 867.17186,506.22071 C 866.95538,506.57097 863.31731,506.63301 863.10535,506.29005 C 863.02725,506.1637 861.51111,505.98731 859.73612,505.89806 C 856.7381,505.74732 856.41236,505.67581 855.15016,504.89118 C 853.93286,504.13446 853.56475,504.04507 851.61321,504.03228 C 849.10271,504.01581 848.7489,503.86852 848.67497,502.80914 C 848.64533,502.38429 848.35781,501.33319 848.03603,500.47335 L 847.45099,498.91002 L 848.09582,497.88857 C 849.24212,496.07269 849.97652,495.57058 852.25383,495.0457 C 855.76784,494.23578 856.5703,494.17543 857.27374,494.66814 C 858.25174,495.35316 858.79642,495.20414 860.13388,493.8856 C 861.22909,492.80588 861.51528,492.66294 862.58191,492.66294 C 863.2462,492.66294 864.34317,492.8023 865.01959,492.97263 C 866.1371,493.25401 866.30322,493.22986 866.83805,492.70816 C 867.16178,492.39239 867.88514,491.7513 868.44553,491.28352 C 869.25598,490.60702 869.46441,490.24424 869.46441,489.51021 C 869.46441,488.61928 869.69578,488.36593 870.12103,488.79118 C 870.2331,488.90325 870.46745,489.00051 870.64179,489.0073 C 870.81614,489.0141 870.92208,489.18534 870.87721,489.38785 C 870.83235,489.59036 871.18491,490.15767 871.66068,490.64853 C 872.26158,491.2685 872.48093,491.71222 872.37908,492.10171 C 872.21321,492.73598 872.4002,492.91386 873.31214,492.98934 C 873.76646,493.02694 873.95912,493.22083 873.98699,493.66858 C 874.05691,494.7916 874.29153,495.03892 876.09553,495.89127 C 877.514,496.56146 877.90917,496.88447 878.04233,497.4825 C 878.36962,498.95238 878.47286,499.18976 878.71876,499.03779 C 878.85572,498.95314 878.89497,499.07363 878.80598,499.30555 C 878.67457,499.648 878.87306,499.72721 879.86263,499.72721 C 880.61425,499.72721 881.21069,499.57106 881.41933,499.31966 C 881.86063,498.78793 882.67574,498.79752 882.88271,499.33688 C 882.97237,499.5705 883.15744,499.6926 883.294,499.60821 C 883.43056,499.52381 883.47329,499.71858 883.38897,500.04103 C 883.30179,500.37438 883.34597,500.55912 883.49137,500.46926 C 883.63201,500.38234 883.74297,500.63832 883.73794,501.0381 C 883.73007,501.66448 883.85305,501.77692 884.62742,501.85128 C 885.12167,501.89875 885.59297,502.11201 885.67477,502.3252 C 885.75659,502.53839 885.90241,502.66415 885.99882,502.60467 C 886.24102,502.45525 886.20711,504.5396 885.96337,504.78334 C 885.85514,504.89157 885.76658,506.31638 885.76658,507.94958 C 885.76658,511.84067 886.08912,512.4829 888.06671,512.52941 C 888.81902,512.54711 889.53535,512.54408 889.65854,512.52268 C 889.78172,512.50129 889.80454,512.60993 889.70924,512.76413 C 889.61395,512.91832 889.72712,513.11783 889.96075,513.20748 C 890.19437,513.29714 890.38552,513.57795 890.38552,513.83152 C 890.38552,514.08509 890.81346,514.70733 891.33648,515.21427 C 893.00653,516.83294 892.514,518.18693 890.15091,518.47346 C 889.3882,518.56594 888.91667,518.75327 888.95582,518.94823 C 888.99268,519.13172 888.84656,519.20351 888.6162,519.11511 C 888.35862,519.01626 888.2119,519.12317 888.2119,519.40971 C 888.2119,519.65706 887.84307,520.01453 887.39227,520.20407 C 886.94147,520.39362 886.6479,520.62397 886.73989,520.71596 C 886.83187,520.80794 886.67627,520.82283 886.3941,520.74904 C 886.08815,520.66904 885.67645,520.84098 885.37415,521.17501 C 884.44547,522.2012 883.52431,521.908 881.58537,519.96906 L 881.58537,519.96906 z"/>
<path title="West Siang" d="M 885.59761,527.86921 C 884.22154,527.43863 883.06907,526.62732 883.05939,526.08237 C 883.051,525.6101 884.78571,523.63705 885.20932,523.63705 C 885.57407,523.63705 885.58137,522.74542 885.21957,522.38362 C 884.83685,522.0009 885.90631,521.07276 887.21204,520.65444 C 887.78289,520.47155 888.32551,520.12026 888.41786,519.87379 C 888.69092,519.14505 889.37029,518.76425 890.41378,518.75504 C 891.06804,518.74927 891.63155,518.5253 892.11192,518.08012 C 893.15182,517.11636 893.04388,516.25407 891.74404,515.14145 C 891.14629,514.6298 890.65723,514.01782 890.65723,513.78148 C 890.65723,513.02 889.32415,512.22554 888.04639,512.22554 C 887.01555,512.22554 886.81524,512.12477 886.45281,511.42392 C 885.96714,510.48474 885.87142,505.83185 886.31725,504.83442 C 886.51682,504.38792 886.49432,503.86235 886.23819,502.98764 C 885.92074,501.90356 885.77688,501.74958 884.96878,501.62913 C 884.14127,501.50578 884.00616,501.3495 883.50079,499.93099 C 883.04223,498.64387 882.83424,498.3687 882.31992,498.3687 C 881.97657,498.3687 881.54293,498.61323 881.35628,498.9121 C 881.11517,499.29817 880.72266,499.45551 880.00064,499.45551 C 879.11265,499.45551 878.96377,499.36119 878.82125,498.70833 C 878.40844,496.81729 878.11246,496.45113 876.35122,495.65255 C 875.40012,495.2213 874.55081,494.64732 874.46387,494.37703 C 874.08867,493.21063 873.68576,492.66294 873.20289,492.66294 C 872.81844,492.66294 872.70729,492.50013 872.76921,492.02768 C 872.83011,491.56287 872.36147,490.84384 871.02258,489.34786 C 869.60659,487.76574 869.19271,487.11495 869.19271,486.47051 C 869.19271,485.70928 869.32201,485.58934 870.69727,485.07479 C 871.52477,484.76518 872.2774,484.51186 872.36976,484.51186 C 872.92659,484.51186 874.48739,482.88323 875.4935,481.25236 L 876.66454,479.35416 L 878.90608,479.35183 C 881.2675,479.34938 881.58837,479.38581 881.50147,479.64651 C 881.43555,479.84425 883.8129,482.20239 884.07816,482.20239 C 884.18285,482.20239 884.23084,482.36648 884.18479,482.56704 C 884.12017,482.84843 884.47156,482.91047 885.72375,482.83874 C 886.61624,482.78762 887.29265,482.83229 887.22689,482.938 C 887.05577,483.2131 888.71748,484.0239 889.04172,483.82351 C 889.19047,483.73158 889.27858,483.81828 889.23752,484.01618 C 889.19646,484.21409 889.37203,484.35983 889.62769,484.34005 C 889.88335,484.32027 890.06674,484.44253 890.03524,484.61175 C 890.00375,484.78097 890.19062,484.90265 890.45053,484.88216 C 890.71228,484.86152 890.84577,484.97001 890.74977,485.12533 C 890.6413,485.30083 890.83164,485.35698 891.25843,485.27539 C 891.76184,485.17916 891.93248,485.25777 891.91015,485.57562 C 891.89192,485.83484 892.07635,485.99 892.37348,485.96547 C 892.64496,485.94305 892.80457,485.98722 892.72818,486.06361 C 892.55271,486.23908 894.22704,487.65913 894.5064,487.57178 C 894.62014,487.53621 894.6357,487.7091 894.54096,487.95597 C 894.42618,488.25509 894.47373,488.33994 894.68348,488.21031 C 894.89561,488.07921 894.93991,488.16781 894.81933,488.48201 C 894.70947,488.76832 894.74805,488.88173 894.9193,488.77589 C 895.23286,488.5821 895.20565,490.48739 894.88751,491.00215 C 894.62145,491.43266 895.78417,493.25561 896.18241,493.03233 C 896.3858,492.9183 896.3775,492.98565 896.15921,493.22083 C 895.77524,493.6345 895.69349,496.08508 896.05619,496.30924 C 896.18632,496.38967 896.36667,496.82482 896.45695,497.27623 C 896.60623,498.02263 896.718,498.097 897.69055,498.097 C 898.54485,498.097 898.89774,498.26068 899.44464,498.91064 C 899.82119,499.35814 900.20766,499.97125 900.30346,500.2731 C 900.39925,500.57495 900.58971,500.75266 900.72668,500.668 C 900.86394,500.58317 900.89541,500.72335 900.79679,500.98033 C 900.69486,501.24596 900.72852,501.37819 900.87503,501.28765 C 901.02427,501.19541 901.16504,501.88922 901.21051,502.94122 C 901.29054,504.79259 901.84889,506.14432 902.39436,505.8072 C 902.58099,505.69186 902.61934,505.74492 902.49488,505.9463 C 902.26885,506.31201 902.8266,507.13064 903.161,506.92397 C 903.5499,506.68362 903.07135,508.00665 902.65853,508.31314 C 902.41573,508.49341 902.3165,508.8442 902.40864,509.19655 C 902.4927,509.51798 902.46695,509.72254 902.35142,509.65114 C 902.03137,509.45335 901.17481,510.51968 901.38306,510.85663 C 901.48353,511.01919 901.41107,511.11859 901.22204,511.07753 C 900.79871,510.98558 900.60512,511.76977 900.82998,512.66569 C 900.93107,513.06844 901.1195,513.2594 901.30358,513.14563 C 901.49099,513.0298 901.53369,513.07901 901.41393,513.2728 C 901.15893,513.68538 901.49053,514.72444 901.81349,514.52484 C 901.95075,514.44001 901.98222,514.58019 901.8836,514.83717 C 901.76936,515.1349 901.81042,515.23807 901.99723,515.12261 C 902.18654,515.00561 902.23567,515.14868 902.13645,515.52808 C 902.02523,515.95342 902.07691,516.0564 902.32475,515.90322 C 902.59594,515.73561 902.59974,515.81658 902.34312,516.29607 C 902.16534,516.62825 902.08061,517.13224 902.15483,517.41604 C 902.22905,517.69984 902.1789,517.86353 902.0434,517.77978 C 901.82902,517.64729 901.68493,518.41806 901.72356,519.49066 C 901.73023,519.67585 901.63336,519.76412 901.50829,519.68683 C 901.13065,519.45342 900.76685,520.45699 900.90352,521.35513 C 901.02817,522.17424 900.96462,522.23237 898.62944,523.43512 C 897.30818,524.11565 895.00447,525.18956 893.5101,525.82157 C 892.01574,526.45358 890.12061,527.25698 889.29871,527.60689 C 887.60181,528.32932 887.16663,528.36017 885.59761,527.86921 L 885.59761,527.86921 z"/>
<path title="Upper Siang" d="M 909.68267,503.67355 C 909.38036,503.35176 909.13301,502.93681 909.13301,502.75145 C 909.13301,502.56608 908.64395,501.69424 908.0462,500.81402 C 906.82561,499.01663 906.79061,498.839 907.37936,497.42992 C 907.64616,496.79138 907.77003,495.8153 907.71899,494.75371 L 907.63865,493.08264 L 905.82779,491.97156 C 904.61784,491.22918 903.28952,490.69434 901.82485,490.35982 C 899.79646,489.89655 899.55635,489.89138 898.60921,490.29065 C 898.04626,490.52797 897.06663,490.78031 896.43227,490.8514 C 895.32594,490.97538 895.28558,490.95398 895.443,490.32678 C 895.66996,489.42251 894.70099,487.46768 893.59451,486.59757 C 893.09977,486.20852 892.48103,485.70235 892.21952,485.47274 C 891.958,485.24313 891.5777,485.05527 891.3744,485.05527 C 891.1711,485.05527 890.55264,484.74845 890.00006,484.37346 C 888.20694,483.15661 886.89725,482.60994 885.77514,482.60994 C 884.78015,482.60994 884.51006,482.44148 882.94359,480.84387 L 881.21196,479.07781 L 879.00617,479.07781 C 877.79299,479.07781 876.80039,478.9745 876.80039,478.84823 C 876.80039,478.72196 877.28241,477.87286 877.87155,476.96135 C 878.89546,475.37718 879.08347,475.23445 882.13262,473.72672 L 885.32251,472.14939 L 885.7065,470.79087 C 886.20152,469.03952 886.45828,468.7531 887.53322,468.7531 C 888.1677,468.7531 888.86392,469.09919 889.99277,469.97576 C 890.85878,470.64823 891.85808,471.19843 892.21346,471.19843 C 892.56884,471.19843 893.92297,471.50261 895.22263,471.87438 C 896.52229,472.24616 898.3043,472.686 899.18265,472.85181 C 900.12512,473.02973 902.05763,473.80829 903.89778,474.75142 C 905.69335,475.67171 907.55133,476.42381 908.27824,476.52462 C 909.22618,476.65609 909.70203,476.89923 910.18888,477.5009 C 910.78315,478.2353 910.8093,478.38663 910.50262,479.31588 C 910.31861,479.87345 910.21026,480.62875 910.26186,480.99432 C 910.33934,481.54327 910.53011,481.67349 911.35768,481.7423 C 912.15046,481.80822 912.37739,481.95006 912.44449,482.42156 C 912.49113,482.74932 912.71269,483.02305 912.93685,483.02984 C 913.161,483.03664 913.31195,483.19515 913.27227,483.38209 C 913.23261,483.56903 913.49207,484.11367 913.84888,484.5924 C 914.56509,485.55336 914.94189,486.96379 914.4589,486.87584 C 914.29424,486.84586 914.17627,487.03398 914.19676,487.29389 C 914.21725,487.5538 914.134,487.70463 914.01176,487.62909 C 913.64961,487.40527 913.4092,488.03854 913.71598,488.4082 C 914.05383,488.81527 915.39762,494.87818 915.1107,494.70085 C 914.77757,494.49497 913.95464,495.59189 914.17488,495.94823 C 914.30531,496.1593 914.26578,496.20887 914.06564,496.08517 C 913.8559,495.95554 913.75196,496.15413 913.75196,496.68452 C 913.75196,498.05428 914.08686,499.99193 914.30076,499.85973 C 914.41349,499.79006 914.48895,499.94571 914.46846,500.20562 C 914.44022,500.56394 914.67749,500.69855 915.4501,500.7625 C 916.31555,500.83413 916.46898,500.9433 916.46898,501.48746 C 916.46898,501.83981 916.54016,502.31357 916.62715,502.54027 C 916.74263,502.84122 916.48838,503.04142 915.68509,503.28209 C 915.07599,503.46459 914.66027,503.73375 914.7538,503.88508 C 914.85177,504.0436 914.78597,504.07389 914.59714,503.95719 C 914.41807,503.84652 914.12408,503.87703 913.94383,504.02499 C 913.76359,504.17296 912.85475,504.28606 911.92422,504.27633 C 910.55767,504.26204 910.12663,504.14613 909.68267,503.67356 L 909.68267,503.67355 z"/>
<path title="Dibang Valley" d="M 925.81404,496.68721 C 925.08264,496.26383 923.91306,495.7448 923.21497,495.53383 C 921.27571,494.94774 920.83739,494.62873 920.3715,493.46439 C 920.0481,492.65613 919.78994,492.39124 919.32563,492.39124 C 918.64031,492.39124 917.96225,493.03665 918.21609,493.44737 C 918.48004,493.87446 917.78946,494.13402 916.61241,494.05012 C 916.01049,494.00722 915.4973,493.95231 915.47198,493.9281 C 915.44666,493.90389 915.22018,492.84516 914.96871,491.57537 C 914.71723,490.30558 914.35018,489.01049 914.15303,488.6974 C 913.84555,488.2091 913.86857,488.01591 914.31488,487.33889 C 915.07643,486.18368 914.96537,485.50497 913.75313,483.90604 C 913.15603,483.11847 912.66696,482.19899 912.66631,481.86276 C 912.6653,481.32805 912.52506,481.25143 911.5475,481.25143 C 910.43087,481.25143 910.43001,481.25063 910.60943,480.36839 C 911.07595,478.07445 911.07955,477.82286 910.65094,477.46714 C 910.0697,476.98477 910.10747,476.63248 910.7404,476.63248 C 911.43353,476.63248 912.74858,474.92914 913.71027,472.78571 C 914.67552,470.63435 916.37074,468.89576 919.52335,466.82391 C 920.82966,465.96542 923.12625,464.27543 924.62687,463.06837 C 927.16296,461.02842 927.44442,460.87372 928.61996,460.87372 C 930.34282,460.87372 931.37926,461.64564 932.46304,463.73596 C 933.84805,466.4073 933.9345,466.45226 936.96807,466.07946 C 939.72749,465.74034 942.55244,465.66326 942.55244,465.92709 C 942.55244,466.01658 942.36819,466.4781 942.14299,466.95267 C 941.83634,467.59889 941.20529,468.08392 939.62974,468.88437 C 935.25396,471.10748 934.67307,471.81276 934.67307,474.90247 C 934.67307,476.55029 934.73782,476.74665 935.52308,477.48019 C 936.79018,478.66385 937.90457,478.37148 939.83542,476.34884 C 940.74845,475.3924 941.99956,474.44991 943.05149,473.92608 C 944.67513,473.11757 944.81055,473.09321 945.42889,473.49836 C 945.78952,473.73465 946.08458,474.02464 946.08458,474.14277 C 946.08458,475.50945 947.00038,480.68539 947.33167,481.19097 C 948.23584,482.57092 947.17294,484.35527 944.32337,486.24114 C 943.47298,486.80392 942.91074,486.95718 941.69649,486.95718 C 939.50229,486.95718 939.29201,486.82871 939.29201,485.48809 C 939.29201,484.20083 938.88521,483.60907 938.2315,483.94541 C 937.99288,484.06818 937.33575,484.25204 936.77121,484.35397 C 936.20667,484.45591 935.80017,484.62895 935.86788,484.7385 C 935.93558,484.84805 935.66388,484.93357 935.2641,484.92855 C 934.80111,484.92273 934.56432,485.05005 934.61187,485.27924 C 934.65293,485.47714 934.56737,485.56542 934.42173,485.4754 C 934.07571,485.26156 933.50452,486.33343 933.75152,486.73308 C 933.86799,486.92154 933.82058,486.96615 933.62939,486.84799 C 933.44271,486.73262 933.18943,486.93453 933.00039,487.34942 C 932.70896,487.98905 932.54638,488.044 930.94543,488.044 C 929.86906,488.044 929.27016,488.14629 929.37294,488.31259 C 929.46813,488.4666 929.35907,488.51215 929.11727,488.41937 C 928.61505,488.22665 928.61042,488.26196 928.99378,489.36164 C 929.15777,489.83208 929.3909,490.15582 929.51184,490.08107 C 929.63278,490.00632 929.66275,490.20898 929.57843,490.53143 C 929.47415,490.93019 929.5247,491.05615 929.7365,490.92525 C 930.29239,490.5817 929.74914,491.66361 928.92323,492.54495 C 928.49391,493.00309 928.21408,493.44936 928.30139,493.53667 C 928.3887,493.62398 928.25117,493.67707 927.99578,493.65466 C 927.74038,493.63224 927.48299,493.7503 927.42379,493.91701 C 927.35879,494.10006 927.80993,494.27578 928.56271,494.36063 C 929.24831,494.43791 929.88601,494.57788 929.97981,494.67168 C 930.07361,494.76549 929.82132,495.18567 929.41918,495.60542 C 929.01703,496.02517 928.7538,496.4344 928.83422,496.51482 C 929.04981,496.73042 928.1832,497.38043 927.62537,497.42152 C 927.36055,497.44103 926.54545,497.11059 925.81404,496.68721 L 925.81404,496.68721 z M 928.69561,496.53609 C 928.69561,496.46138 928.51221,496.55245 928.28805,496.73848 C 928.0639,496.92451 927.8805,497.13786 927.8805,497.21257 C 927.8805,497.28729 928.0639,497.19622 928.28805,497.01018 C 928.51221,496.82415 928.69561,496.61081 928.69561,496.53609 L 928.69561,496.53609 z"/>
<path title="Lower Dibang Valley" d="M 919.60133,512.29559 C 919.46991,511.77199 919.66653,511.38051 920.53305,510.44045 C 921.59326,509.29026 921.63134,509.18447 921.63134,507.38936 C 921.63134,505.63999 921.06878,503.27185 920.47275,502.51216 C 920.32619,502.32537 919.80641,502.17254 919.31766,502.17254 C 918.77841,502.17254 918.36755,502.0123 918.27265,501.76498 C 918.18663,501.54083 917.94399,501.35743 917.73344,501.35743 C 917.5229,501.35743 917.19842,501.17403 917.01239,500.94987 C 916.82636,500.72572 916.27616,500.54232 915.78973,500.54232 C 914.62815,500.54232 914.39399,500.19857 914.16162,498.15222 C 913.98179,496.56841 914.02262,496.36163 914.71172,495.36727 C 915.3662,494.42284 915.58579,494.29316 916.53045,494.29316 C 917.38411,494.29316 917.75176,494.12571 918.32007,493.47805 C 919.25825,492.40887 919.58507,492.44964 920.08464,493.69819 C 920.4057,494.50058 920.76373,494.84511 921.67643,495.22987 C 922.3241,495.5029 923.75254,496.13716 924.85077,496.63934 C 925.94899,497.14151 926.97658,497.47263 927.1343,497.37515 C 927.30236,497.27129 927.3408,497.32777 927.22719,497.51161 C 926.75691,498.27252 927.71005,497.70746 929.13662,496.37962 C 930.82012,494.81261 930.86038,494.41806 929.36533,494.13759 C 928.84755,494.04046 928.4239,493.87519 928.4239,493.77035 C 928.4239,493.6655 928.7907,493.2283 929.23901,492.79879 C 930.16773,491.90903 930.2253,491.50879 929.62967,490.08323 C 929.00036,488.57707 929.22308,488.3157 931.13578,488.3157 L 932.7779,488.3157 L 933.72232,486.83932 C 934.83583,485.09863 934.84589,485.09121 936.5078,484.78335 C 939.06444,484.30973 938.87049,484.23631 939.02031,485.73452 L 939.15616,487.09304 L 940.819,487.17301 L 942.48185,487.25298 L 941.06496,488.70424 C 939.70997,490.09211 939.64066,490.23509 939.47789,491.97817 C 939.30949,493.7815 939.31831,493.81357 940.30835,494.99797 C 940.85871,495.65637 941.4542,496.19508 941.63166,496.19508 C 941.81748,496.19508 941.99473,496.70262 942.04961,497.3918 C 942.10202,498.05001 942.05933,498.53565 941.95474,498.47101 C 941.55243,498.22234 941.15842,499.52805 941.32976,500.54217 C 941.47648,501.41067 941.4161,501.63652 940.9739,501.87318 C 940.68099,502.02994 940.3638,502.46709 940.26905,502.84463 C 940.08772,503.56705 939.36088,503.76293 938.8303,503.23236 C 938.66333,503.06539 938.26804,503.01732 937.93395,503.12335 C 937.45808,503.27439 937.35981,503.47324 937.45169,504.09922 C 937.51515,504.53162 937.50931,504.82765 937.43872,504.75706 C 937.23015,504.54848 936.03158,507.3321 936.03158,508.02509 C 936.03158,508.37502 935.90098,508.74205 935.74135,508.8407 C 935.58173,508.93935 935.51333,509.18216 935.58935,509.38028 C 935.66538,509.57839 935.55145,509.88666 935.33617,510.06532 C 935.1209,510.24398 934.94477,510.2896 934.94477,510.16669 C 934.94477,510.04379 934.79805,510.08995 934.61873,510.26928 C 934.4394,510.4486 933.6141,510.59451 932.78473,510.59352 C 929.88396,510.59007 923.74806,511.54825 921.4468,512.36406 L 919.76789,512.95924 L 919.60133,512.29559 z"/>
<path title="Lohit" d="M 934.28409,524.8143 C 933.64298,524.46723 933.3849,524.44719 932.9615,524.71161 C 932.5081,524.99477 932.30536,524.91513 931.4933,524.13482 C 930.1879,522.88043 929.78242,521.98939 929.78242,520.3752 C 929.78242,518.90626 929.87831,518.73369 933.17902,514.26331 C 933.9192,513.26084 934.38629,512.33682 934.39203,511.86371 C 934.3977,511.39665 934.77504,510.6383 935.35232,509.93381 C 935.87535,509.29552 936.30448,508.48021 936.30594,508.12201 C 936.3074,507.76381 936.61306,506.8167 936.98519,506.01732 C 937.35733,505.21794 937.6618,504.34459 937.6618,504.07654 C 937.6618,503.49111 938.24343,503.21663 938.77324,503.55203 C 939.5393,504.03698 940.36049,503.83456 940.54075,503.11633 C 940.6355,502.73879 940.95844,502.29857 941.25837,502.13805 C 941.71365,501.89439 941.77874,501.66002 941.6525,500.71878 C 941.55583,499.99805 941.63839,499.34634 941.88138,498.9121 C 942.09045,498.53851 942.26582,497.95851 942.27111,497.62322 C 942.27867,497.14506 942.41257,497.03477 942.89207,497.1118 C 943.29394,497.17636 943.47446,497.36887 943.41894,497.67366 C 943.31952,498.21937 943.86752,498.97102 944.21033,498.75915 C 944.34112,498.67832 944.38007,498.78956 944.29688,499.00636 C 944.15162,499.3849 944.59417,499.85021 945.10773,499.8589 C 945.24292,499.86119 945.39994,500.41326 945.45666,501.08573 C 945.51338,501.75819 945.61534,502.46757 945.68322,502.66213 C 945.75618,502.87124 945.68192,502.93878 945.50156,502.82731 C 945.2924,502.69804 945.2352,502.90266 945.31966,503.47811 C 945.38742,503.93975 945.35656,504.26413 945.25109,504.19895 C 944.93413,504.00306 944.39205,504.84062 944.6088,505.19134 C 944.72829,505.38467 944.69511,505.4459 944.52713,505.34209 C 944.17581,505.12496 943.53243,505.85541 943.75615,506.2174 C 943.84616,506.36306 943.77667,506.5707 943.60171,506.67884 C 943.39075,506.80921 943.35028,506.7469 943.48157,506.49383 C 943.59045,506.28395 943.48709,506.34956 943.25185,506.63964 C 943.01661,506.92971 942.82415,507.24463 942.82415,507.33946 C 942.82415,507.69315 944.12183,508.71521 944.47273,508.63788 C 944.6732,508.5937 944.84833,508.74095 944.86192,508.9651 C 944.8755,509.18926 945.03389,509.34209 945.21389,509.30473 C 945.39389,509.26737 945.51061,509.37045 945.47325,509.53379 C 945.43589,509.69714 945.60226,509.96087 945.84296,510.11986 C 946.18329,510.34467 946.63635,510.19497 947.88072,509.44659 C 950.95721,507.59633 952.4234,506.97749 952.562,507.47074 C 952.60398,507.62018 952.88973,508.01003 953.19697,508.33708 C 953.64272,508.81156 953.72051,509.14095 953.58192,509.96729 C 953.48641,510.53687 953.38482,511.20786 953.35619,511.45841 C 953.32755,511.70895 953.18727,511.84172 953.04446,511.75346 C 952.89508,511.66115 952.86079,511.79103 952.96371,512.05922 C 953.06479,512.32259 953.03169,512.4569 952.88766,512.36789 C 952.57208,512.17284 952.06204,513.08095 952.06204,513.83789 C 952.06204,514.30967 952.23188,514.39916 953.12725,514.39916 C 954.07106,514.39916 954.2114,514.48521 954.35831,515.15414 C 954.54228,515.99177 955.43574,516.69482 955.94486,516.40257 C 956.1256,516.29884 956.18146,516.31534 956.06906,516.43924 C 955.95665,516.56316 956.02977,516.85786 956.23153,517.09414 C 956.75035,517.70169 957.03175,518.55564 956.6317,518.30839 C 956.41958,518.17729 956.37527,518.26589 956.49585,518.58009 C 956.61643,518.89429 956.57211,518.98289 956.36,518.85179 C 956.14788,518.7207 956.10356,518.8093 956.22414,519.1235 C 956.34473,519.4377 956.30041,519.5263 956.08829,519.3952 C 955.87617,519.2641 955.83186,519.3527 955.95244,519.6669 C 956.05085,519.92333 956.02094,520.06489 955.88598,519.98148 C 955.751,519.89807 955.59958,519.94755 955.54945,520.09143 C 955.39295,520.54066 951.4935,520.99409 949.3298,520.81465 C 947.3077,520.64696 947.26505,520.65669 946.49401,521.46147 C 946.06347,521.91086 945.81417,522.27854 945.94001,522.27854 C 946.06584,522.27854 945.95496,522.51482 945.69361,522.80362 C 945.43225,523.09241 945.05887,523.26748 944.86387,523.19265 C 944.66887,523.11782 944.42861,523.1872 944.32996,523.34683 C 943.99464,523.88939 942.55427,523.66358 941.84849,522.95779 C 941.13686,522.24617 940.52663,522.09127 940.24297,522.55024 C 940.15061,522.69968 939.72973,522.82194 939.30766,522.82194 C 938.58497,522.82194 938.27397,523.20671 938.0998,524.31631 C 938.07635,524.46574 937.86224,524.55583 937.62402,524.5165 C 937.38579,524.47717 937.03733,524.63 936.84967,524.85613 C 936.41258,525.38278 935.30069,525.36465 934.28409,524.8143 L 934.28409,524.8143 z M 945.81288,522.34785 C 945.81288,522.27313 945.62948,522.36421 945.40532,522.55024 C 945.18117,522.73627 944.99777,522.94961 944.99777,523.02433 C 944.99777,523.09905 945.18117,523.00797 945.40532,522.82194 C 945.62948,522.63591 945.81288,522.42257 945.81288,522.34785 L 945.81288,522.34785 z"/>
<path title="Anjaw" d="M 956.53391,518.98864 C 957.16809,517.61985 957.17896,517.51632 956.7391,517.0303 C 956.4837,516.74806 955.94837,516.34839 955.54951,516.14213 C 955.10603,515.9128 954.75437,515.44863 954.64425,514.94729 C 954.48128,514.20533 954.36298,514.12746 953.39895,514.12746 C 952.76722,514.12746 952.33374,513.99819 952.33374,513.8098 C 952.33374,513.63508 952.70054,512.8422 953.14885,512.04785 C 953.67136,511.12201 953.96396,510.22014 953.96396,509.53546 C 953.96396,508.62315 953.81324,508.34799 952.93059,507.64892 L 951.89722,506.83049 L 949.48214,508.17954 C 948.15381,508.92151 946.90482,509.66321 946.70656,509.82775 C 946.31998,510.14859 946.07408,509.99208 944.13363,508.19013 L 943.13364,507.26151 L 944.21215,505.83304 C 945.36667,504.30389 945.81288,503.1398 945.81288,501.65695 C 945.81288,500.93992 945.43481,500.23553 944.14211,498.54409 C 943.22319,497.34172 942.59476,496.31682 942.7456,496.26654 C 942.89643,496.21626 944.19979,495.33334 945.64194,494.3045 C 948.05866,492.58038 948.40443,492.41883 950.05679,492.24188 C 953.34295,491.88996 955.12508,492.19701 957.87289,493.58857 C 960.18869,494.76134 960.52487,494.85297 963.066,495.00401 C 966.20482,495.19057 967.66894,495.74817 968.50005,497.07353 C 969.13426,498.08491 970.30212,498.44402 972.19801,498.21064 L 973.45061,498.05645 L 973.6335,499.20007 C 973.76875,500.04585 973.70786,500.46356 973.39975,500.80402 C 973.17062,501.05721 972.98315,501.59721 972.98315,502.00402 C 972.98315,502.59121 973.17736,502.82482 973.92539,503.13736 C 974.4436,503.35389 975.19234,503.53105 975.58924,503.53105 C 976.29436,503.53105 976.30803,503.5637 976.18715,504.95749 C 976.10463,505.90876 975.82068,506.7378 975.33468,507.44623 C 974.93384,508.03049 974.53213,508.96986 974.44197,509.5337 L 974.278,510.55888 L 972.54258,510.74473 C 970.83134,510.92799 970.79521,510.94904 969.9475,512.25731 L 969.0878,513.58405 L 967.35398,513.58405 C 966.34461,513.58405 965.29105,513.75426 964.83245,513.99141 C 963.88097,514.48345 961.57163,517.63485 961.57163,518.44128 C 961.57163,518.87131 961.40329,519.0181 960.91007,519.0181 C 960.03988,519.0181 958.7863,519.50288 958.95416,519.77448 C 959.02687,519.89217 958.88142,520.01367 958.63089,520.04446 C 958.38035,520.07526 957.65537,520.17546 957.01985,520.26715 L 955.86436,520.43384 L 956.53391,518.98864 z"/>
<path title="Changlang" d="M 927.6088,545.10971 C 927.6088,544.22622 927.46129,543.92197 926.79369,543.42839 L 925.97858,542.82576 L 925.97858,539.75227 L 925.97858,536.67878 L 926.90256,536.67878 C 927.41075,536.67878 928.48058,536.37431 929.27996,536.00218 C 930.77755,535.30501 932.3399,535.11401 932.6353,535.59197 C 933.00171,536.18484 934.34653,535.87143 935.05647,535.02772 C 935.44334,534.56794 935.76328,534.04831 935.76744,533.87298 C 935.77159,533.69765 936.13839,533.07392 936.58254,532.48691 C 937.50876,531.26279 937.60412,530.43582 936.89322,529.79247 C 936.3104,529.26502 934.8896,529.20297 934.13833,529.67215 C 933.84828,529.85329 933.55896,529.94499 933.49539,529.87593 C 933.43182,529.80686 933.32591,528.68053 933.26004,527.37296 C 933.14299,525.04969 933.15426,524.99556 933.75478,524.99556 C 934.09276,524.99556 934.44486,525.11783 934.53721,525.26727 C 934.62957,525.4167 935.13302,525.53897 935.65599,525.53897 C 936.67382,525.53897 938.74861,524.14136 938.74861,523.45573 C 938.74861,523.2403 939.05674,523.09365 939.50937,523.09365 C 939.9278,523.09365 940.40114,522.96265 940.56125,522.80254 C 940.76825,522.59553 941.07015,522.71327 941.60622,523.21009 C 942.86583,524.37746 944.03501,524.18584 945.9237,522.50248 L 947.50151,521.0962 L 950.39311,521.06743 C 954.8922,521.02268 957.73242,520.64974 959.09884,519.92432 C 959.75623,519.57534 960.56128,519.28981 960.88792,519.28981 C 961.45814,519.28981 961.47692,519.37382 961.35949,521.4023 C 961.18818,524.36151 961.8134,526.69746 963.1455,528.07508 C 964.48497,529.46034 967.13953,531.54806 968.55662,532.33073 C 970.29144,533.2889 970.6539,535.19841 969.36901,536.61085 C 968.88769,537.13996 968.54165,537.22219 966.79648,537.22219 C 965.39376,537.22219 964.54425,537.0829 964.0053,536.76452 C 963.57683,536.51144 962.46505,535.09814 961.51805,533.60281 C 960.57614,532.11559 959.52017,530.71125 959.17133,530.48208 C 958.79695,530.2361 957.67721,530.01562 956.43811,529.94389 C 954.63311,529.8394 954.17015,529.90983 953.13266,530.44678 C 952.15925,530.95055 951.27435,531.11057 948.55183,531.27509 C 945.77068,531.44317 945.0542,531.57601 944.47629,532.03077 C 944.09064,532.33422 942.8132,533.1574 941.63753,533.86005 C 940.11052,534.77268 938.20916,536.39089 934.98082,539.52543 C 929.8641,544.4935 928.03295,546.18838 927.78219,546.18838 C 927.68682,546.18838 927.6088,545.70297 927.6088,545.1097 L 927.6088,545.10971 z"/>
<path title="Tirap" d="M 916.07307,556.71686 C 916.01414,556.53006 915.91261,556.01043 915.84745,555.56212 C 915.65586,554.24396 915.07017,552.08312 914.70597,551.35073 C 914.52018,550.97714 914.29009,549.81561 914.19466,548.76955 C 914.09923,547.7235 913.94743,546.53722 913.85735,546.13339 C 913.70561,545.45318 913.87066,545.28357 916.10016,543.82866 C 917.42379,542.96489 919.17922,541.93703 920.00112,541.54453 C 920.82302,541.15203 921.73367,540.56331 922.02478,540.23627 C 922.52884,539.66999 922.53311,539.5851 922.11444,538.45546 C 921.87264,537.80306 921.74654,537.19755 921.83421,537.10988 C 921.92188,537.02221 922.82909,536.95048 923.85024,536.95048 L 925.70688,536.95048 L 925.70688,540.06808 L 925.70688,543.1857 L 926.52198,543.6072 C 927.26663,543.99227 927.33709,544.14896 927.33709,545.41969 C 927.33709,546.78491 927.30062,546.84697 925.36725,548.77217 C 924.28383,549.851 923.0122,550.9305 922.54139,551.17106 C 922.07059,551.41161 920.5515,552.83425 919.16566,554.33246 C 917.77981,555.83068 916.54116,557.05648 916.41308,557.05648 C 916.28502,557.05648 916.13201,556.90365 916.07308,556.71686 L 916.07307,556.71686 z"/>
<path title="Papum Pare" d="M 859.13971,550.62844 C 858.01894,550.57378 856.85741,550.41935 856.55854,550.28527 C 856.25966,550.15118 855.79839,549.97204 855.53349,549.88716 C 855.04462,549.73052 854.95721,549.57333 854.68549,548.362 C 854.60168,547.98841 854.1024,547.21744 853.57598,546.64874 C 852.41814,545.3979 852.38186,545.10156 853.38659,545.10156 C 854.26134,545.10156 855.50778,543.96931 855.19326,543.46041 C 855.06808,543.25784 854.60187,543.1901 853.94213,543.27859 C 853.36376,543.35616 852.89111,543.33958 852.8918,543.24172 C 852.8969,542.51697 854.72382,538.5552 855.36038,537.88851 C 856.20693,537.00186 856.43532,535.57248 855.81135,535.06603 C 853.8639,533.48534 853.84045,533.45722 854.18114,533.1112 C 854.36793,532.92148 854.52077,532.11989 854.52077,531.32988 C 854.52077,529.94513 854.48659,529.87922 853.56981,529.49617 C 853.04678,529.27763 852.61885,528.98728 852.61885,528.85094 C 852.61885,528.48206 856.60139,526.87944 858.11112,526.64078 C 858.83244,526.52676 859.49671,526.35935 859.5873,526.26875 C 859.81508,526.04098 861.07073,526.72247 861.69571,527.41307 C 861.98003,527.72725 862.4863,527.98429 862.82074,527.98429 C 863.54534,527.98429 863.75866,528.44526 863.75866,530.01102 C 863.75866,530.77929 863.91577,531.30563 864.21837,531.55109 C 864.60989,531.86868 864.64397,531.86738 864.44809,531.54237 C 864.2908,531.2814 864.31866,531.22291 864.53622,531.35737 C 864.71117,531.46551 864.79255,531.65394 864.71704,531.77612 C 864.64153,531.8983 864.7618,532.14935 864.98431,532.33402 C 865.20683,532.51868 865.38887,533.03586 865.38887,533.48331 C 865.38887,534.16326 865.47816,534.27349 865.93265,534.15463 C 866.27512,534.06507 866.41028,534.11948 866.29772,534.30159 C 866.1832,534.48688 866.3296,534.53569 866.70528,534.43745 C 867.08095,534.3392 867.22735,534.388 867.11283,534.5733 C 866.99278,534.76754 867.14874,534.79276 867.58794,534.65013 C 867.94753,534.53335 869.06705,534.46156 870.07575,534.49061 C 871.49358,534.53142 871.90974,534.45691 871.90974,534.1622 C 871.90974,533.95255 872.39163,533.39374 872.98062,532.92041 C 873.97917,532.11796 874.19571,532.05983 876.18671,532.05983 C 877.44321,532.05983 878.45152,531.93024 878.63683,531.74493 C 878.93614,531.44563 881.3189,531.32543 881.58946,531.59599 C 882.09759,532.10412 880.92985,533.53284 877.08163,537.1113 C 871.88847,541.94041 870.34924,544.14471 871.50219,545.10156 C 872.32116,545.78126 871.99117,546.66164 870.61915,547.45744 C 869.90933,547.86914 869.29359,548.28489 869.25084,548.38132 C 868.90665,549.15771 868.22259,549.52665 866.25759,549.99573 C 863.64585,550.61919 861.9821,550.76708 859.13971,550.62844 L 859.13971,550.62844 z"/>
<path title="Lower Subansiri" d="M 866.40776,534.16702 C 865.8352,533.97503 865.66058,533.74233 865.66058,533.17136 C 865.66058,532.72788 865.3856,532.16794 864.98132,531.78813 C 864.01079,530.87637 864.03298,529.43166 865.0233,529.05514 C 866.01187,528.6793 869.46441,525.58012 869.46441,525.06858 C 869.46441,524.84065 869.09106,524.00159 868.63473,523.20402 C 867.70616,521.58106 867.78415,521.09716 869.11375,520.23179 C 870.01732,519.64371 871.77389,517.70009 871.77389,517.28839 C 871.77389,517.12841 871.25533,516.89497 870.62155,516.76963 L 869.46921,516.54175 L 870.00202,515.53838 C 870.29507,514.98653 870.89088,514.11403 871.32604,513.5995 L 872.11725,512.664 L 872.82,513.46365 C 873.20654,513.90346 873.52665,514.41184 873.53137,514.59338 C 873.54273,515.02995 874.4254,515.48597 875.25909,515.48597 C 876.0287,515.48597 876.35653,516.06498 876.27692,517.28365 C 876.21475,518.23538 876.65136,518.46438 878.5406,518.47099 C 879.42486,518.47408 879.776,518.65808 880.64905,519.57584 C 881.25439,520.2122 881.82778,520.59588 882.00747,520.48482 C 882.19087,520.37148 882.2444,520.4124 882.13798,520.58458 C 881.91897,520.93897 883.21129,522.00683 883.85919,522.00683 C 884.11475,522.00683 884.54371,522.24978 884.81243,522.54671 C 885.28813,523.07234 885.27114,523.11356 884.16876,524.109 C 883.27096,524.9197 882.95215,525.46273 882.62912,526.73137 C 882.17016,528.53387 882.27962,529.22019 883.05855,529.42389 C 883.73575,529.60098 883.71999,529.84321 882.97185,530.7561 C 882.41995,531.42954 882.28058,531.46965 881.28348,531.24201 C 880.10836,530.97374 878.1589,531.16661 878.1589,531.55116 C 878.1589,531.68149 877.23068,531.78813 876.09618,531.78813 C 873.93224,531.78813 873.58672,531.93496 871.71114,533.65158 C 871.10048,534.2105 870.83973,534.26965 869.67054,534.11455 C 868.93328,534.01675 868.38988,534.03406 868.46298,534.15302 C 868.65014,534.45759 867.30165,534.46679 866.40776,534.16703 L 866.40776,534.16702 z"/>
<path title="East Siang" d="M 901.25363,521.16713 C 901.25363,520.72184 901.41935,520.0867 901.62188,519.75573 C 901.82442,519.42476 902.13333,518.47561 902.30835,517.64652 C 902.60944,516.22019 902.58232,516.03177 901.80425,514.14494 C 901.35197,513.04816 900.98193,512.01016 900.98193,511.83828 C 900.98193,511.66639 901.34376,511.10244 901.786,510.58506 C 902.22824,510.06768 902.59503,509.42656 902.6011,509.16035 C 902.60718,508.89415 902.79555,508.60597 903.0197,508.51995 C 903.6787,508.26707 903.48907,507.08358 902.61215,505.97637 C 902.01432,505.22156 901.79704,504.65795 901.79704,503.86208 C 901.79704,502.68428 900.45088,499.45591 899.53475,498.43662 C 899.14766,498.00595 898.67965,497.82529 897.95102,497.82529 C 897.04713,497.82529 896.89424,497.7311 896.73825,497.07811 C 896.64008,496.66716 896.43856,496.17711 896.29043,495.98911 C 896.1423,495.8011 896.0862,495.06977 896.16576,494.36392 C 896.27954,493.35445 896.19372,492.91668 895.76365,492.3127 C 895.46292,491.89038 895.27999,491.48175 895.3571,491.40463 C 895.4877,491.27404 897.29996,490.9297 899.69348,490.58071 C 901.22028,490.35809 904.15501,491.19956 905.87258,492.35243 C 907.32503,493.32734 907.36921,493.39426 907.44779,494.73836 C 907.50019,495.63477 907.33806,496.62279 906.9869,497.54696 L 906.44517,498.97268 L 907.65324,500.77348 C 908.31768,501.76393 908.86131,502.77061 908.86131,503.01056 C 908.86131,503.61107 909.83733,504.4467 910.24468,504.19494 C 910.46404,504.05937 910.50524,504.10416 910.36697,504.32787 C 910.21643,504.57147 910.37468,504.64549 910.93632,504.59416 C 911.36415,504.55506 912.11976,504.61705 912.61547,504.73191 C 913.28363,504.88673 913.64084,504.82845 913.99651,504.50658 C 914.26036,504.26779 915.05765,503.87431 915.76824,503.63219 C 917.03617,503.20016 917.05697,503.17461 916.88537,502.25992 L 916.71052,501.32787 L 917.60863,501.81813 C 918.1026,502.08777 918.87224,502.36952 919.31895,502.44424 C 920.49329,502.64066 920.92364,503.71618 921.04268,506.75217 L 921.14234,509.29403 L 920.12992,510.33084 C 919.2322,511.25019 919.13764,511.47494 919.29521,512.31485 C 919.41662,512.96208 919.32425,513.57378 919.00354,514.24633 C 918.60853,515.07464 918.30637,515.29683 917.09662,515.64852 C 915.88661,516.00028 915.50503,516.01073 914.68594,515.71454 C 913.82737,515.40407 913.61118,515.42287 912.84935,515.87427 C 911.3604,516.75651 909.42344,517.65959 909.02015,517.65959 C 908.80717,517.65959 907.67562,518.31358 906.50557,519.11289 C 905.33553,519.91221 903.67518,520.88357 902.81592,521.27148 L 901.25363,521.97677 L 901.25363,521.16713 z"/>
</g>
<g class="label" text-anchor="middle" font-size="6" font-family="sans-serif"  fill="#444">
<text x="815" y="530">Tawang</text>
<text x="829" y="544">West Kameng</text>
<text x="845" y="534">East Kameng</text>
<text x="860" y="516">Kurung Kumey</text>
<text x="876" y="505">Upper Subansiri</text>
<text x="892" y="495">West Siang</text>
<text x="904" y="488">Upper Siang</text>
<text x="929" y="480">Dibang Valley</text>
<text x="930" y="500">Lower Dibang Valley</text>
<text x="942" y="515">Lohit</text>
<text x="960" y="508">Anjaw</text>
<text x="948" y="530">Changlang</text>
<text x="920" y="547">Tirap</text>
<text x="863" y="540">Papum Pare</text>
<text x="875" y="525">Lower Subansiri</text>
<text x="907" y="511">East Siang</text>
</g>
</svg>
