<svg xmlns="http://www.w3.org/2000/svg" viewBox="741 506 201 147">
<g title="Assam" fill="#328707">
<path title="Kokrajhar" d="M 752.54812,581.57765 C 752.48421,581.46558 752.35017,580.92062 752.25025,580.36664 C 752.04213,579.21267 751.1084,576.9886 750.73524,576.75797 C 750.59702,576.67254 750.23807,576.25738 749.93759,575.83538 L 749.39124,575.06811 L 750.06078,574.16059 C 750.69959,573.29474 750.73052,573.07152 750.73449,569.29825 C 750.73677,567.12309 750.85473,565.16002 750.99659,564.93586 C 751.19107,564.62859 751.80842,564.52589 753.50568,564.51847 L 755.75683,564.50863 L 758.33801,561.88141 L 760.91918,559.2542 L 762.95695,559.51804 C 764.07773,559.66315 765.50801,559.91638 766.13537,560.08077 C 767.22145,560.36534 767.27994,560.4334 767.35803,561.50302 C 767.41343,562.2617 767.55686,562.60215 767.79987,562.55173 C 767.99777,562.51067 768.08533,562.5974 767.99444,562.74446 C 767.90355,562.89152 767.97857,563.25104 768.16115,563.54339 C 768.41691,563.95292 768.42121,564.31407 768.17986,565.11673 C 768.00758,565.68972 767.79374,566.43121 767.70466,566.76449 C 767.60286,567.14534 767.09466,567.56863 766.33663,567.90395 C 764.95028,568.51719 764.7855,569.16421 765.67398,570.50577 C 765.97088,570.95408 766.21461,571.70341 766.21559,572.17095 C 766.21704,572.85852 766.3732,573.08556 767.03249,573.35865 C 767.69978,573.63505 767.8476,573.85512 767.8476,574.57216 C 767.8476,575.1428 768.05902,575.62842 768.45425,575.96564 C 769.05484,576.47806 769.05688,576.4778 768.65803,575.93982 C 768.29519,575.45043 768.29781,575.42966 768.68433,575.73089 C 768.96656,575.95084 769.07229,576.34622 768.99312,576.88563 C 768.87988,577.65729 768.80108,577.70589 767.66335,577.70589 C 766.99819,577.70589 765.85054,577.96548 765.11302,578.28275 C 763.87727,578.81436 763.6628,579.08693 763.69858,580.08037 C 763.70525,580.26556 763.60976,580.35468 763.48638,580.27843 C 763.363,580.20218 763.1388,580.35632 762.98816,580.62098 C 762.5828,581.33315 761.84147,580.76351 761.47045,579.45477 C 761.17581,578.41545 761.13677,578.38783 760.09224,578.47986 C 759.501,578.53195 758.895,578.67397 758.74556,578.79545 C 758.59612,578.91693 758.10706,579.05771 757.65875,579.10829 C 756.91536,579.19217 756.83642,579.29911 756.76161,580.32385 C 756.68773,581.33597 756.59675,581.46401 755.84462,581.61444 C 754.6869,581.84598 752.68841,581.82368 752.54812,581.57765 L 752.54812,581.57765 z"/>
<path title="Chirang" d="M 774.683,573.18045 C 773.80343,572.48738 773.69342,572.47023 771.18478,572.63501 C 769.76024,572.72859 768.44028,572.9333 768.25156,573.08993 C 767.69757,573.54969 766.41793,572.845 766.59276,572.17644 C 766.67122,571.87639 766.44051,571.14283 766.06748,570.5063 C 765.70162,569.882 765.40228,569.22225 765.40228,569.04018 C 765.40228,568.85811 765.95147,568.46621 766.62271,568.16929 C 767.52789,567.76889 767.88389,567.43946 768.00092,566.89398 C 768.08771,566.48948 768.35087,565.70211 768.58574,565.14427 C 769.00081,564.15842 768.99219,564.09895 768.27809,563.01986 C 767.86091,562.38948 767.57979,561.62927 767.62758,561.26082 L 767.71175,560.61194 L 770.15707,561.70901 C 772.7446,562.86989 773.29894,562.91871 777.25407,562.33398 C 778.02297,562.22031 778.63569,562.30401 779.21042,562.60121 C 780.31793,563.17393 780.9441,563.14694 781.77858,562.49054 C 782.15853,562.19167 782.54182,561.94713 782.63033,561.94713 C 782.92049,561.94713 782.79859,564.81984 782.49558,565.12285 C 782.33295,565.28547 782.13391,566.68542 782.05326,568.23385 C 781.88276,571.50739 781.61832,572.00013 780.03211,572.00013 C 779.12324,572.00013 778.98741,572.08135 778.98741,572.62481 C 778.98741,573.08568 778.75079,573.33504 778.08509,573.57577 C 776.68713,574.08128 775.67731,573.96394 774.683,573.18045 L 774.683,573.18045 z"/>
<path title="Baksa" d="M 783.37663,574.4477 C 783.42609,573.60963 783.28425,573.19282 782.75255,572.61371 C 782.07145,571.87189 782.06659,571.83328 782.27385,568.81154 C 782.41407,566.76742 782.6239,565.55799 782.90895,565.15102 C 783.18566,564.75596 783.33466,563.94631 783.33466,562.83764 C 783.33466,561.61069 783.43477,561.13202 783.69138,561.13202 C 783.88757,561.13202 784.39951,560.76523 784.82902,560.31692 C 785.25853,559.86861 785.7816,559.50181 785.9914,559.50181 C 786.2012,559.50181 786.85388,559.91354 787.44179,560.41678 C 789.44084,562.12788 792.18632,561.84221 793.6622,559.76952 C 794.33843,558.81983 794.24506,558.81056 797.7349,560.17393 C 801.32014,561.57457 800.96975,561.59077 802.99495,559.93074 L 804.80489,558.44717 L 806.63603,558.55239 L 808.46716,558.65762 L 808.63611,559.96274 C 808.72902,560.68057 808.9423,561.75694 809.11006,562.35469 C 809.27783,562.95243 809.41577,563.84387 809.4166,564.33566 C 809.41743,564.82745 809.77787,565.92785 810.21756,566.78098 C 811.49085,569.25156 811.52795,569.70504 810.50019,570.23652 C 809.94559,570.52331 809.37161,570.61921 808.91337,570.50164 C 808.51852,570.40033 806.78252,570.33523 805.0556,570.35697 C 803.32869,570.37871 801.56732,570.26403 801.14147,570.10212 C 800.52436,569.8675 799.94837,569.92471 798.30386,570.38397 C 797.16903,570.7009 796.02823,571.07192 795.76874,571.20846 C 794.94022,571.64444 794.20276,571.50545 794.20276,570.91332 C 794.20276,570.4431 794.02163,570.36992 792.85775,570.36992 C 791.89077,570.36992 791.44228,570.49582 791.26205,570.81788 C 791.06875,571.16328 790.75708,571.23173 789.90066,571.11686 C 788.81793,570.97163 787.9853,571.39276 788.31215,571.92031 C 788.38564,572.03893 787.9988,572.13598 787.45251,572.13598 C 786.5305,572.13598 786.45313,572.19933 786.3741,573.01902 C 786.29615,573.82745 786.21007,573.90205 785.35521,573.90205 C 784.49885,573.90205 784.42147,573.96961 784.42147,574.71716 C 784.42147,575.35653 784.30193,575.53227 783.86705,575.53227 C 783.39088,575.53227 783.32167,575.37922 783.37664,574.44771 L 783.37663,574.4477 z"/>
<path title="Udalguri" d="M 810.55798,566.62939 C 809.97822,565.43884 809.71483,564.22255 809.19089,560.31664 C 809.08061,559.49459 808.90782,558.68838 808.80689,558.52507 C 808.70596,558.36177 808.74316,557.79434 808.88956,557.26412 C 809.10861,556.47075 809.31122,556.27206 810.03411,556.1417 C 811.01581,555.96467 812.86088,556.31503 813.30951,556.76366 C 813.47056,556.92471 814.30866,557.05648 815.17195,557.05648 C 816.52122,557.05648 816.8005,556.96654 817.16138,556.41576 C 817.53318,555.84832 817.8634,555.75373 820.04817,555.5888 C 821.405,555.48637 822.77779,555.23823 823.09882,555.03737 C 823.41984,554.83652 824.49828,554.61215 825.49534,554.5388 L 827.30817,554.40543 L 826.4928,555.91255 C 825.86807,557.06725 825.73646,557.55192 825.92992,557.98526 C 826.52893,559.32701 826.88806,560.52545 826.99501,561.53958 C 827.05806,562.13732 827.20668,562.87092 827.32528,563.1698 C 828.10371,565.13132 828.12246,565.42508 827.50614,566.00408 C 827.17711,566.31318 826.70758,566.56608 826.46273,566.56608 C 826.21788,566.56608 825.71629,566.70334 825.34809,566.87111 C 824.81224,567.11525 824.29967,567.06102 822.77988,566.5994 C 820.31239,565.84992 820.01452,565.86097 820.01452,566.70193 C 820.01452,567.22529 819.87421,567.38112 819.40319,567.38091 C 818.95261,567.3807 818.59127,567.02349 818.029,566.0224 C 817.44573,564.98391 817.1132,564.66416 816.61645,564.66416 C 816.06717,564.66416 815.89394,564.89513 815.49569,566.15852 C 814.97656,567.80543 814.69779,567.99686 814.30876,566.97363 C 814.02794,566.235 813.96325,566.21404 812.72735,566.46122 C 812.16357,566.57398 811.86628,566.80932 811.81035,567.18712 C 811.66602,568.16206 811.20414,567.95637 810.55797,566.6294 L 810.55798,566.62939 z"/>
<path title="Sonitpur" d="M 827.35049,567.87418 C 827.35049,567.09368 827.52906,566.54688 827.91976,566.131 C 828.50655,565.50639 828.45998,565.03563 827.59997,562.89809 C 827.47972,562.59922 827.32019,561.86562 827.24545,561.26788 C 826.99314,559.24988 826.74258,558.28107 826.35959,557.84262 C 826.03124,557.46674 826.03584,557.35832 826.39268,557.06217 C 826.6206,556.87301 826.80709,556.58987 826.80709,556.43297 C 826.80709,555.87487 827.76317,554.08166 828.06441,554.07476 C 828.23291,554.07091 828.52298,553.88435 828.70901,553.6602 C 828.89504,553.43605 829.49078,553.25079 830.03286,553.24852 C 832.03736,553.24013 834.32761,552.23271 834.46372,551.2995 C 834.53428,550.81567 834.9081,550.60194 836.45254,550.1624 C 840.11356,549.1205 842.7373,549.67519 845.24556,552.02137 C 846.44002,553.13866 846.68505,553.25205 847.89222,553.2462 C 848.70282,553.24227 849.85947,552.96747 850.85278,552.54281 C 853.87005,551.2529 855.9947,550.56496 856.27755,550.78633 C 856.4321,550.90728 857.92418,551.07473 859.5933,551.15844 C 862.109,551.28461 863.13878,551.20497 865.61394,550.69283 L 868.59981,550.07501 L 868.89627,550.72566 C 869.05931,551.08351 869.19271,551.79154 869.19271,552.29906 C 869.19271,552.94047 869.37412,553.34889 869.78765,553.63855 C 870.49092,554.13114 870.53904,554.07924 868.64931,554.86622 C 866.35531,555.82154 866.27851,555.93146 866.88148,557.39611 C 867.03882,557.77829 866.93652,557.87159 866.36018,557.87159 C 865.96579,557.87159 865.20419,557.68819 864.66771,557.46404 C 863.26016,556.87593 860.97107,556.94283 859.6627,557.61031 C 859.01231,557.94211 858.65225,558.28571 858.76454,558.4674 C 858.87662,558.64875 858.82908,558.69471 858.64627,558.58173 C 858.47812,558.47781 857.97625,558.58119 857.53097,558.81145 C 857.08569,559.04171 856.41389,559.23011 856.03808,559.23011 C 855.66226,559.23011 854.93677,559.59713 854.42586,560.04571 C 853.91496,560.49429 853.08541,560.93733 852.58242,561.03024 C 852.07943,561.12315 851.5452,561.34961 851.39524,561.53348 C 851.24529,561.71735 850.43366,561.95386 849.59164,562.05906 C 848.7496,562.16427 847.83303,562.42276 847.55481,562.6335 C 847.27658,562.84424 846.67289,563.02055 846.21327,563.0253 C 845.44949,563.0332 843.99391,564.09974 844.31234,564.41816 C 844.37901,564.48485 843.9578,564.49404 843.37629,564.43858 C 842.61834,564.3663 842.09207,564.49934 841.51745,564.90851 C 841.0766,565.22243 840.5251,565.47927 840.29191,565.47927 C 840.05873,565.47927 839.73707,565.7238 839.57712,566.02267 C 839.34135,566.4632 839.00822,566.56608 837.81752,566.56608 C 837.00971,566.56608 836.27848,566.67979 836.19258,566.81877 C 835.94447,567.22021 833.10595,567.48897 832.69717,567.14971 C 832.44119,566.93727 831.96818,566.94741 831.00108,567.18607 C 829.83801,567.4731 829.64855,567.61623 829.574,568.26422 C 829.49645,568.93813 829.38321,569.0114 828.41926,569.0114 L 827.35049,569.0114 L 827.35049,567.87418 z"/>
<path title="Lakhimpur" d="M 871.09463,554.48141 C 871.09463,554.26079 870.78897,553.88 870.41537,553.63521 C 869.94625,553.32783 869.73612,552.94349 869.73612,552.3928 C 869.73612,551.95425 869.54972,551.23499 869.3219,550.79444 C 868.94779,550.07097 868.95037,549.92828 869.34867,549.3204 C 869.59121,548.95023 870.38895,548.27862 871.1214,547.82794 C 872.60153,546.91721 872.8147,546.20503 872.01328,544.84834 C 871.58619,544.12533 871.60196,544.06101 872.5565,542.63279 C 873.09719,541.82379 875.37019,539.46568 877.6076,537.39254 C 879.84502,535.31941 881.75477,533.37386 881.8515,533.0691 C 881.94823,532.76433 882.50189,532.02115 883.08187,531.41757 C 884.30848,530.14102 884.4002,529.52821 883.4571,528.91027 C 882.76418,528.45624 882.57557,527.86968 883.03182,527.58769 C 883.17152,527.50137 883.84398,527.70191 884.52619,528.03336 C 885.50439,528.5086 885.77026,528.78247 885.78402,529.32902 C 885.81426,530.53049 886.44488,533.11852 886.79196,533.4656 C 886.97518,533.64882 887.12509,534.19221 887.12509,534.67313 C 887.12509,536.3389 887.1996,536.38156 889.38244,535.96527 C 891.90136,535.48488 892.81011,535.49347 893.0043,535.99952 C 893.09031,536.22368 893.4404,536.40708 893.78226,536.40708 C 894.36145,536.40708 894.3877,536.47655 894.16723,537.42596 C 894.03709,537.98635 893.92771,539.07675 893.92414,539.84906 C 893.9158,541.65633 893.72641,542.11283 892.98499,542.11283 C 892.4253,542.11283 891.34319,542.99015 891.14916,543.60124 C 891.10275,543.7474 890.88138,543.89377 890.65723,543.92652 C 890.43307,543.95926 890.00055,544.29818 889.69606,544.67966 C 889.32279,545.14732 888.87582,545.37327 888.32396,545.37327 C 887.8738,545.37327 887.36556,545.51318 887.19455,545.6842 C 886.96112,545.91763 886.68313,545.91208 886.07919,545.66192 C 884.98288,545.2078 883.98933,545.37402 884.04127,546.00284 C 884.06368,546.27425 884.01247,546.42675 883.92746,546.34175 C 883.71748,546.13176 882.75814,547.02348 882.91718,547.28082 C 882.98677,547.39341 882.83766,547.46877 882.58582,547.44829 C 882.33399,547.4278 881.8768,547.80369 881.56986,548.28361 C 881.07993,549.04961 880.86246,549.15766 879.78912,549.16836 C 878.70486,549.17916 878.50708,549.28031 878.04198,550.06186 C 877.75353,550.54658 877.53234,551.01324 877.55048,551.09887 C 877.56861,551.18451 877.37669,551.25441 877.12399,551.25421 C 875.67026,551.25306 875.17017,551.38208 875.17017,551.75828 C 875.17017,551.98244 874.65054,552.68547 874.01544,553.32057 C 873.38033,553.95568 872.88087,554.53644 872.90553,554.61116 C 872.93018,554.68588 872.53282,554.7775 872.0225,554.81477 C 871.35486,554.86353 871.09463,554.77003 871.09463,554.48141 L 871.09463,554.48141 z"/>
<path title="Dhemaji" d="M 887.6685,534.85064 C 887.6685,534.14333 887.49386,533.61623 887.15915,533.31332 C 886.87902,533.0598 886.5721,532.33782 886.47712,531.70892 C 886.38213,531.08002 886.23514,530.13754 886.15046,529.61451 L 885.99647,528.66355 L 887.216,528.65707 C 887.95872,528.65313 889.05575,528.3628 890.02186,527.91452 C 890.89433,527.50968 893.07538,526.56042 894.86862,525.80505 C 896.66186,525.04968 899.16831,523.84382 900.43852,523.12536 C 901.70873,522.40691 903.17593,521.65683 903.69896,521.45854 C 904.22198,521.26024 905.59109,520.45775 906.7414,519.67521 C 907.89171,518.89267 909.19469,518.17295 909.63688,518.07583 C 910.07908,517.97871 911.15529,517.46684 912.02849,516.93834 C 913.47496,516.06286 913.69376,516.00516 914.48952,516.28923 C 914.96992,516.4607 915.77141,516.52438 916.27067,516.43072 C 917.0648,516.28174 917.21886,516.34931 917.50203,516.97082 C 917.78025,517.58148 917.72786,517.87427 917.12881,519.05642 C 916.74555,519.81278 916.50001,520.609 916.58321,520.82579 C 916.66768,521.0459 916.61587,521.14665 916.46586,521.05395 C 916.31813,520.96265 916.19728,521.06573 916.19728,521.283 C 916.19728,521.53983 915.79326,521.73784 915.04254,521.84892 C 914.40744,521.9429 913.45988,522.08735 912.93685,522.16992 C 912.3434,522.26362 911.68677,522.16427 911.19026,521.90565 C 910.75266,521.67772 910.26359,521.57034 910.10345,521.66702 C 908.96825,522.35232 907.24981,523.71967 907.33928,523.86645 C 907.39903,523.96444 907.02313,524.06712 906.50399,524.09464 C 905.26511,524.1603 904.14382,524.89024 904.37126,525.48299 C 904.46559,525.72882 904.45165,525.83883 904.34028,525.72746 C 904.01106,525.39824 901.25363,528.2986 901.25363,528.97412 C 901.25363,529.75481 899.45779,531.24473 898.5168,531.24473 C 897.72662,531.24473 896.75133,532.13253 897.03582,532.59285 C 897.13628,532.75541 897.06253,532.85481 896.87191,532.81375 C 896.68129,532.77269 896.39254,533.13146 896.23024,533.61103 C 896.06794,534.09059 895.6433,534.79362 895.2866,535.17332 C 894.62924,535.87304 893.37425,536.1223 893.37425,535.55315 C 893.37425,535.23966 890.08663,535.37431 888.41568,535.75624 C 887.69757,535.92038 887.6685,535.88514 887.6685,534.85065 L 887.6685,534.85064 z"/>
<path title="Tinsukia" d="M 920.86013,535.79565 C 920.71173,535.31003 920.50801,534.4259 920.40742,533.8309 C 920.30687,533.23591 920.10888,532.53288 919.96746,532.26861 C 919.63992,531.65665 918.25643,531.63664 916.85173,532.22356 C 915.82203,532.6538 915.80223,532.65038 915.18834,531.9367 C 914.37158,530.98716 914.40442,530.46397 915.36394,529.1394 C 915.85681,528.45899 916.10737,527.83502 916.02073,527.50371 C 915.9437,527.20911 916.20372,526.33052 916.59859,525.55131 C 917.26782,524.23057 917.28779,524.09071 916.89276,523.4878 C 916.26689,522.53261 916.37008,521.58549 917.32602,519.51155 C 918.07494,517.88677 918.14172,517.5615 917.85551,516.93334 C 917.52265,516.20276 917.76829,515.7727 918.52466,515.76183 C 918.68393,515.75954 919.09483,515.25846 919.43774,514.64832 C 920.54205,512.68344 923.45115,511.87647 931.75226,511.23231 C 933.83592,511.07062 933.85788,511.07567 933.84967,511.71515 C 933.84511,512.07058 933.38661,512.99763 932.83079,513.77526 C 929.14128,518.93703 929.23901,518.75306 929.23901,520.53673 C 929.23901,521.94169 929.3615,522.3661 930.03554,523.29659 C 930.47363,523.90135 931.2636,524.7253 931.79101,525.12758 C 932.73493,525.84754 932.75118,525.89375 932.82848,528.07638 C 932.90276,530.17474 932.9415,530.29865 933.54966,530.38469 C 933.90311,530.43471 934.32496,530.34301 934.48703,530.18092 C 935.15178,529.51617 936.84669,530.00696 936.84669,530.86421 C 936.84669,531.19434 935.40797,533.53414 934.44261,534.774 C 933.95278,535.40306 933.85076,535.42683 932.98462,535.11363 C 931.60323,534.61411 930.56878,534.70049 929.11435,535.43681 C 928.09965,535.9505 927.2013,536.13435 925.06069,536.26636 C 923.54814,536.35964 922.04495,536.49054 921.72029,536.55726 C 921.24628,536.65468 921.07684,536.50464 920.86013,535.79564 L 920.86013,535.79565 z"/>
<path title="Dibrugarh" d="M 900.6238,541.35234 C 900.37247,541.07462 900.16682,540.64125 900.16682,540.38931 C 900.16682,539.89427 898.67604,538.85507 897.96353,538.85342 C 897.72305,538.85286 896.97069,539.34147 896.29162,539.93921 C 894.74192,541.30331 894.18936,541.34876 894.18936,540.11215 C 894.18936,538.14147 894.7269,536.30314 895.5521,535.45176 C 895.99808,534.99162 896.36298,534.42534 896.36298,534.19336 C 896.36298,533.96139 896.73055,533.26417 897.1798,532.64401 C 897.78208,531.81257 898.18505,531.51643 898.71411,531.51643 C 899.66586,531.51643 901.79459,529.77271 901.80451,528.98499 C 901.81481,528.1659 905.3871,524.45216 906.16469,524.45216 C 906.4891,524.45216 907.52556,523.90196 908.46794,523.2295 C 910.2123,521.98475 910.85514,521.76784 911.1907,522.31077 C 911.32095,522.52149 912.11753,522.5569 913.7879,522.42622 C 915.8873,522.262 916.19728,522.29328 916.19728,522.66938 C 916.19728,522.90678 916.34408,523.3361 916.52354,523.62343 C 916.7922,524.05363 916.73283,524.39552 916.18731,525.56024 C 915.82296,526.33816 915.55867,527.2327 915.6,527.54811 C 915.6413,527.86352 915.3647,528.54238 914.98527,529.05669 C 914.1484,530.19099 914.10702,531.2037 914.85849,532.15904 C 915.48368,532.95386 916.26037,533.0526 917.28409,532.46739 C 918.23013,531.92658 919.38577,531.95923 919.68831,532.53531 C 919.82563,532.79683 920.02807,533.56099 920.13817,534.23346 C 920.24823,534.90592 920.69641,536.36092 921.13407,537.46678 C 921.57175,538.57264 921.87535,539.61945 921.80876,539.79302 C 921.69171,540.09805 918.11148,541.99032 918.01234,541.79955 C 917.98538,541.7477 917.77587,541.33848 917.54672,540.89017 C 917.31702,540.44082 916.86869,540.03727 916.54756,539.99083 C 916.22717,539.9445 915.81894,539.73053 915.64035,539.51535 C 915.46176,539.30016 915.17114,539.12411 914.99454,539.12411 C 914.50656,539.12411 912.07582,540.73189 912.21733,540.96111 C 912.46006,541.35432 909.8771,541.31564 908.46419,540.9049 C 907.29296,540.56441 906.96268,540.33139 906.67837,539.64504 C 906.23288,538.5695 905.37362,538.21195 904.6826,538.81457 C 903.98419,539.42362 902.83467,541.27006 902.9937,541.52737 C 903.06488,541.64256 902.66361,541.76392 902.10197,541.79706 C 901.39519,541.83876 900.94009,541.70185 900.6238,541.35235 L 900.6238,541.35234 z M 904.24236,539.5982 C 904.24236,539.52348 904.42576,539.31014 904.64992,539.12411 C 904.87407,538.93807 905.05747,538.847 905.05747,538.92172 C 905.05747,538.99644 904.87407,539.20978 904.64992,539.39581 C 904.42576,539.58184 904.24236,539.67291 904.24236,539.5982 L 904.24236,539.5982 z"/>
<path title="Sivasagar" d="M 894.88384,556.54254 C 894.6604,556.11043 894.10706,555.62772 893.65421,555.46986 C 893.20136,555.312 892.83085,554.98924 892.83085,554.75262 C 892.83085,554.516 892.65864,554.25632 892.44817,554.17555 C 892.02944,554.01487 891.54362,552.94965 891.41705,551.91466 C 891.36798,551.51346 891.01781,551.0807 890.52138,550.80772 C 889.08775,550.01939 889.28191,549.24339 891.41661,547.22962 C 893.27652,545.47508 893.91766,544.36764 893.91766,542.90962 C 893.91766,541.78653 894.18427,541.29773 894.79683,541.29773 C 895.09897,541.29773 895.81983,540.86979 896.39876,540.34677 C 896.9777,539.82374 897.68979,539.39581 897.9812,539.39581 C 898.79657,539.39581 899.89512,539.98158 899.89512,540.41636 C 899.89512,540.63082 900.14797,541.16139 900.45703,541.59541 C 901.32183,542.80992 902.34164,542.67917 903.30874,541.2298 C 905.07771,538.57862 905.62772,538.3205 906.3373,539.80851 C 906.70986,540.58974 907.04109,540.83822 908.14828,541.16702 C 910.33826,541.81737 911.41132,541.69634 913.01187,540.61847 C 914.44276,539.65484 915.21323,539.44602 915.51802,539.93921 C 915.61038,540.08865 915.97718,540.21092 916.33313,540.21092 C 917.06999,540.21092 917.15357,540.3072 917.39462,541.43358 C 917.56237,542.21757 917.47809,542.30574 915.18679,543.74305 C 913.87653,544.56495 912.1669,545.81242 911.38757,546.51521 C 909.67538,548.05924 908.62199,548.6337 907.50279,548.6337 C 905.71632,548.6337 902.88021,550.74306 902.36799,552.45274 C 902.10311,553.33686 901.68923,553.81276 900.32463,554.80241 C 898.99665,555.7655 895.93301,557.32819 895.37285,557.32819 C 895.32735,557.32819 895.1073,556.97464 894.88385,556.54254 L 894.88384,556.54254 z"/>
<path title="Jorhat" d="M 882.68193,569.80402 C 882.16248,568.04525 881.96135,567.03055 881.95311,566.127 C 881.94782,565.5466 881.76875,564.76605 881.55519,564.39246 C 881.34162,564.01887 881.16255,563.13199 881.15726,562.42163 C 881.14608,560.92242 880.37888,559.3025 879.46487,558.8482 C 879.03051,558.6323 878.73532,558.12194 878.50308,557.18526 C 878.18734,555.91179 877.60324,555.14872 876.95223,555.1592 C 876.79399,555.16174 876.06073,555.51927 875.32273,555.9537 L 873.98093,556.74357 L 872.94534,556.21525 C 872.37576,555.92467 871.91416,555.59771 871.91957,555.48867 C 871.92497,555.37963 872.55775,554.86248 873.32573,554.33946 C 874.0937,553.81643 874.91407,553.00834 875.14876,552.54371 C 875.47102,551.90568 875.84142,551.63969 876.66215,551.4569 C 877.449,551.28166 877.89912,550.97412 878.2935,550.34231 C 878.78036,549.56234 878.97512,549.46863 880.12875,549.45927 C 880.83857,549.45352 881.41933,549.32201 881.41933,549.16704 C 881.41933,549.01207 882.16026,548.1535 883.06584,547.2591 L 884.71235,545.63291 L 885.80706,545.9609 C 886.65215,546.2141 887.01931,546.21547 887.41729,545.96693 C 887.70083,545.78985 888.24916,545.64497 888.63578,545.64497 C 889.14117,545.64497 889.72259,545.22497 890.7045,544.15061 C 891.75898,542.99683 892.24983,542.65624 892.85811,542.65624 C 894.37405,542.65624 893.59926,544.69659 891.26708,546.8461 C 890.30711,547.73088 889.40991,548.74879 889.27329,549.10813 C 888.98339,549.87061 889.44372,550.69493 890.43452,551.18755 C 890.79878,551.36866 891.13283,551.8419 891.22603,552.30885 C 891.47994,553.58113 891.78669,554.33946 892.04743,554.33946 C 892.17943,554.33946 892.28744,554.57451 892.28744,554.86179 C 892.28744,555.21832 892.5908,555.48424 893.24313,555.69953 C 893.82747,555.89238 894.35439,556.31579 894.59921,556.78922 L 894.99961,557.5635 L 893.41531,558.52591 C 891.72404,559.5533 889.29871,561.94275 889.29871,562.58161 C 889.29871,562.79393 889.56466,563.14425 889.88972,563.36007 C 890.84804,563.99637 890.36532,564.66416 888.94705,564.66416 C 888.0356,564.66416 887.61639,564.50787 887.12509,563.9849 C 886.77412,563.61131 886.35544,563.30672 886.1947,563.30802 C 885.7332,563.31177 883.86466,566.39969 883.86466,567.1586 C 883.86466,568.51011 882.92231,570.61788 882.68193,569.80402 L 882.68193,569.80402 z"/>
<path title="Golaghat" d="M 873.57821,587.73737 C 873.04818,587.16843 872.80372,586.36284 872.55415,584.36261 C 872.33871,582.63596 873.89745,575.88787 875.03221,573.63453 C 875.95727,571.79761 875.96836,571.73849 875.44077,571.45614 C 875.13012,571.28988 874.89847,570.88739 874.89847,570.5139 C 874.89847,569.29212 874.41612,568.468 873.70103,568.468 C 872.86324,568.468 871.90974,567.19737 871.90974,566.0809 C 871.90974,565.47581 871.6702,565.08935 870.95878,564.54673 C 870.43575,564.14779 870.00782,563.62034 870.00782,563.37461 C 870.00782,563.12887 869.69538,562.60171 869.31352,562.20313 C 868.65882,561.51978 868.5077,561.48577 866.66442,561.6069 C 864.78274,561.73056 860.64997,562.78085 858.48401,563.68585 C 857.41297,564.13336 855.60396,564.27895 855.61223,563.91698 C 855.61962,563.59363 856.64316,559.73194 856.74152,559.65632 C 856.79032,559.6188 857.76229,559.07963 858.90146,558.45815 C 861.19666,557.20599 863.01042,556.97035 864.47478,557.73407 C 865.25725,558.14215 867.05319,558.29033 867.37052,557.973 C 867.46419,557.87933 867.36552,557.4637 867.15126,557.04937 C 866.69176,556.1608 866.79237,556.04387 868.75177,555.18918 C 870.32594,554.50253 870.55123,554.48119 870.55123,555.01871 C 870.55123,555.24513 870.79274,555.42627 871.09463,555.42627 C 871.3935,555.42627 871.63804,555.55477 871.63804,555.71184 C 871.63804,555.8689 872.05761,556.17271 872.57042,556.38698 C 873.08322,556.60124 873.57816,556.89849 873.67028,557.04754 C 873.77059,557.20985 874.24113,557.06524 874.84359,556.68693 C 876.91164,555.38832 877.00875,555.36292 877.60927,555.96345 C 877.91158,556.26574 878.1589,556.82305 878.1589,557.20189 C 878.1589,558.02429 878.89255,559.23011 879.39291,559.23011 C 879.9442,559.23011 880.60423,560.81325 880.60423,562.13555 C 880.60423,562.7911 880.84872,563.80653 881.14763,564.39246 C 881.4465,564.9783 881.69104,565.88055 881.69104,566.39746 C 881.69104,566.91437 881.88413,568.091 882.12013,569.01219 C 882.50225,570.50379 882.50449,570.73664 882.14054,571.13984 C 881.91577,571.38885 881.14192,572.81223 880.42086,574.30291 L 879.10986,577.01324 L 878.97401,581.42396 C 878.8206,586.40481 879.02015,585.96642 876.21895,587.47631 C 874.40072,588.45636 874.26094,588.47018 873.57822,587.73737 L 873.57821,587.73737 z"/>
<path title="Karbi Anglong" d="M 860.02097,596.92886 C 859.87132,596.74206 859.49809,596.09121 859.19157,595.48252 C 858.88506,594.87383 858.19863,594.0791 857.66618,593.71645 C 856.74772,593.09089 856.69801,592.97786 856.69624,591.51084 C 856.69522,590.6604 856.81665,589.88902 856.96609,589.79666 C 857.51231,589.45908 857.20815,588.78183 855.87928,587.37675 C 855.0113,586.45898 854.52077,585.7005 854.52077,585.27613 C 854.52077,584.84893 854.13299,584.25541 853.43395,583.61269 C 852.83621,583.06309 852.34714,582.44518 852.34714,582.23954 C 852.34714,581.6949 851.55594,581.11312 850.26166,580.70608 C 849.43941,580.44749 849.08155,580.16765 848.96151,579.68938 C 848.86322,579.2977 848.49381,578.92416 848.05268,578.77039 C 847.64392,578.62789 847.18972,578.23839 847.04336,577.90482 C 846.897,577.57126 846.50214,577.25927 846.16591,577.21151 C 845.82968,577.16376 845.55458,576.9498 845.55458,576.73603 C 845.55458,576.50918 845.28867,576.34738 844.91586,576.34738 C 843.96281,576.34738 842.6299,575.8194 842.45907,575.37421 C 842.37639,575.15873 842.44082,574.69252 842.60226,574.33819 C 842.84581,573.80365 843.16843,573.66311 844.49689,573.51281 C 845.95242,573.34813 846.09798,573.27274 846.09798,572.68359 C 846.09798,572.32714 845.98515,571.73873 845.84723,571.37599 C 845.65895,570.88078 845.72342,570.50775 846.10598,569.87868 C 846.61093,569.04835 847.0904,568.86327 849.22256,568.6756 C 849.99706,568.60742 850.04187,568.53616 850.1219,567.24534 C 850.22229,565.62603 850.34574,565.47418 851.77408,565.21299 C 852.70646,565.04249 852.94891,565.09944 853.35823,565.5851 L 853.84151,566.15852 L 853.16225,565.61512 L 852.483,565.07171 L 853.00058,565.68305 C 853.79215,566.61797 854.71312,566.47921 855.25474,565.34342 C 855.65208,564.51016 855.83241,564.39246 856.71153,564.39246 C 857.26334,564.39246 858.18827,564.19372 858.7669,563.95082 C 860.74816,563.11913 864.16612,562.27116 866.29086,562.08418 C 868.10227,561.92478 868.49283,561.96719 868.93996,562.37184 C 869.22841,562.63288 869.46441,563.06177 869.46441,563.32493 C 869.46441,563.58808 869.95348,564.19074 870.55123,564.66416 C 871.33115,565.28187 871.63832,565.72947 871.63905,566.24928 C 871.64065,567.38668 872.571,568.68654 873.45613,568.78804 C 874.12047,568.86423 874.25202,569.03376 874.47273,570.09821 C 874.61217,570.77068 874.90042,571.45113 875.1133,571.61032 C 875.43927,571.85408 875.36864,572.16071 874.66578,573.55306 C 873.3128,576.23329 871.57231,584.71546 872.21614,585.49123 C 872.65168,586.01601 872.34201,586.23373 871.67092,585.87457 C 871.17534,585.60935 870.9479,585.77765 869.60988,587.39979 C 868.78269,588.40263 868.1059,589.43695 868.1059,589.69827 C 868.1059,589.95959 867.88688,590.33317 867.6192,590.52844 C 867.35151,590.72371 866.78619,591.48125 866.36292,592.21188 C 865.50478,593.69317 864.41482,594.73928 862.15689,596.24874 C 860.45326,597.38762 860.40167,597.40406 860.02097,596.92886 L 860.02097,596.92886 z M 837.78503,599.63555 C 836.89266,598.64859 833.55819,595.79478 832.63394,595.227 C 830.84966,594.13088 827.97003,594.4541 825.47233,596.03083 C 824.54256,596.61777 824.25288,596.68592 823.775,596.43017 C 823.21947,596.13286 823.20717,596.01804 823.43212,593.23093 C 823.56046,591.64095 823.67072,589.59466 823.67716,588.68361 C 823.68745,587.22734 823.79462,586.89899 824.56404,585.96659 C 826.44927,583.68202 827.86847,582.75202 829.11321,582.98554 C 829.84296,583.12244 830.02889,583.04054 830.34983,582.44087 C 830.55758,582.05268 831.04646,581.57017 831.43622,581.36861 C 831.82597,581.16706 832.29329,580.82331 832.4747,580.60473 C 832.96349,580.01577 833.87136,580.35734 833.87136,581.13022 C 833.87136,581.60931 834.11478,581.87585 834.82232,582.17147 C 835.74373,582.55646 835.77328,582.61469 835.77328,584.04535 C 835.77328,585.27545 835.86079,585.54477 836.29758,585.659 C 836.85051,585.80359 839.57712,584.15504 839.57712,583.67613 C 839.57712,582.58392 841.79414,584.83865 842.26478,586.40951 L 842.58765,587.48719 L 844.04146,587.48719 C 846.06273,587.48719 847.59838,588.23592 848.57436,589.69727 C 849.28161,590.75626 849.31892,590.91261 848.92218,591.15517 C 847.23283,592.18803 846.68725,592.70365 845.70789,594.1929 C 845.10054,595.11647 844.46575,595.88064 844.29726,595.89105 C 844.12876,595.90145 843.8493,596.08058 843.67625,596.2891 C 843.5032,596.49763 842.90745,596.7532 842.35239,596.85704 C 841.60922,596.99608 840.98232,597.43331 839.97426,598.51568 C 838.54879,600.04623 838.28044,600.18349 837.78502,599.63555 L 837.78503,599.63555 z"/>
<path title="Dima Hasao" d="M 853.16225,617.22078 C 853.16225,616.48357 852.71641,615.45342 852.27185,615.16343 C 851.82544,614.87224 849.83673,615.20516 848.5071,615.79366 L 847.24824,616.35084 L 846.42426,615.74167 C 845.8175,615.29306 845.36151,615.1694 844.6944,615.27254 C 843.68173,615.42912 840.87369,614.95941 840.99405,614.65359 C 841.12823,614.31265 844.03214,611.76622 844.67154,611.42881 C 845.90287,610.77904 845.17415,609.03538 843.17272,607.84249 C 842.61479,607.50994 841.66923,606.778 841.07148,606.21594 C 840.47374,605.65388 839.37334,604.83966 838.62616,604.40657 C 837.39752,603.69441 837.26012,603.51687 837.18896,602.5495 C 837.11556,601.55165 837.20315,601.40694 838.49426,600.39307 C 839.25546,599.79532 840.18333,598.90913 840.55621,598.42375 C 841.02002,597.82001 841.61353,597.44573 842.4352,597.23883 C 843.09576,597.0725 843.77716,596.76659 843.94941,596.55904 C 844.12166,596.35148 844.40046,596.18073 844.56896,596.17958 C 844.73746,596.17843 845.14489,595.70532 845.47436,595.12823 C 846.40157,593.50413 847.42846,592.40318 848.54952,591.83126 C 849.54325,591.3243 851.34936,591.19628 851.06833,591.65273 C 850.99185,591.77696 851.27661,592.24113 851.70113,592.68424 C 852.43633,593.45163 852.57194,593.4875 854.55686,593.43966 C 857.10596,593.37822 857.85607,593.81317 859.14757,596.10158 C 859.81341,597.2814 860.0305,598.00733 860.05651,599.14102 C 860.09006,600.60388 860.11733,600.65214 861.58504,601.84699 C 863.14181,603.11434 864.27905,604.65381 864.29358,605.51354 C 864.29824,605.78938 863.65267,607.01205 862.85896,608.23057 C 862.06525,609.44909 861.26183,610.99626 861.07357,611.66873 C 860.88531,612.34119 860.39078,613.38046 859.97461,613.9782 C 859.55845,614.57595 859.00711,615.70691 858.74944,616.49145 L 858.28094,617.91789 L 855.72159,617.91789 L 853.16225,617.91789 L 853.16225,617.22078 z"/>
<path title="Cachar" d="M 846.45043,637.14789 C 846.21026,636.88251 845.84895,636.66538 845.64751,636.66538 C 845.44607,636.66538 845.06938,636.17631 844.81042,635.57857 C 844.54409,634.96381 844.15196,634.49176 843.90763,634.49176 C 843.29593,634.49176 842.46353,633.52535 841.44903,631.63737 C 840.67657,630.19981 840.55522,629.67918 840.41511,627.20135 C 840.25994,624.45717 840.23642,624.3762 839.36905,623.60128 C 838.58383,622.89976 838.28088,622.80854 836.73599,622.80854 C 835.77584,622.80854 834.92177,622.69775 834.83808,622.56235 C 834.75439,622.42694 834.44152,622.38007 834.14279,622.45818 C 833.65285,622.5863 833.59966,622.46622 833.59966,621.23224 C 833.59966,620.47984 833.53138,619.68634 833.44794,619.46888 C 833.35576,619.22867 833.80891,618.55354 834.60267,617.74851 C 835.76185,616.5729 836.16948,616.35417 838.2186,615.80826 C 840.24326,615.26888 840.74257,615.22854 842.26734,615.48119 C 843.22393,615.6397 844.33236,615.69784 844.73049,615.61039 C 845.22968,615.50075 845.673,615.62336 846.15866,616.00539 C 847.03202,616.69236 847.47722,616.69846 848.76578,616.04109 C 849.32454,615.75603 850.30972,615.48467 850.95505,615.43807 C 851.96628,615.36506 852.17969,615.44605 852.49984,616.02429 C 852.70415,616.39331 852.87563,617.03146 852.88092,617.44241 L 852.89055,618.18959 L 855.60758,618.18959 L 858.3246,618.18959 L 858.3246,619.10737 C 858.3246,620.35166 857.68647,621.79946 856.24399,623.82788 C 854.62699,626.10171 854.35088,626.86924 854.1309,629.70165 C 854.02796,631.02715 853.70676,632.71284 853.41713,633.44762 C 852.74744,635.14664 852.7469,635.86358 853.41516,636.03833 C 853.99592,636.19021 854.30359,636.75054 854.09899,637.28374 C 854.00055,637.54026 853.04569,637.63039 850.42652,637.63039 C 847.38106,637.6304 846.82614,637.56305 846.45042,637.14788 L 846.45043,637.14789 z"/>
<path title="Hailakandi" d="M 835.07807,647.05801 C 834.98887,646.64706 834.78101,646.03298 834.61615,645.69339 C 834.35441,645.15424 834.44116,644.94754 835.30037,644.06317 C 835.84155,643.50614 836.41388,642.7062 836.57221,642.28552 C 836.74896,641.81595 836.86009,638.6853 836.86009,634.17638 C 836.86009,627.05957 836.87848,626.80628 837.45397,625.99809 C 837.85898,625.42931 838.02831,624.83298 837.98641,624.12299 C 837.92738,623.1225 837.94982,623.09323 838.56192,623.37211 C 839.65902,623.87199 839.96271,624.69101 840.13509,627.61487 C 840.27595,630.00416 840.39781,630.53377 841.02453,631.48081 C 841.42394,632.08438 841.75432,632.73364 841.7587,632.92364 C 841.76997,633.41248 843.34612,635.08876 843.6297,634.9135 C 843.75907,634.83353 844.07459,635.08812 844.33085,635.47923 C 844.71479,636.06518 844.73197,636.2314 844.4285,636.42369 C 844.22594,636.55205 843.97992,636.65893 843.8818,636.66122 C 843.4671,636.67089 841.14315,641.0286 840.61938,642.77869 C 840.30631,643.82475 839.78001,644.98627 839.4498,645.35987 C 839.1196,645.73346 838.57691,646.43649 838.24381,646.92216 C 837.7148,647.6935 837.48655,647.80519 836.43921,647.80519 C 835.35167,647.80519 835.22515,647.73574 835.07806,647.05801 L 835.07807,647.05801 z"/>
<path title="Karimganj" d="M 828.50523,646.1665 C 827.70345,645.84423 827.73251,645.13011 828.59938,643.85271 C 829.24227,642.90535 829.28845,642.65988 829.11988,641.08585 C 828.95463,639.5427 828.82182,639.2499 827.87404,638.33919 C 826.86633,637.37088 826.82763,637.27281 827.10172,636.38127 C 827.26042,635.86506 827.47947,632.78308 827.58851,629.53241 C 827.71771,625.68077 827.89591,623.51296 828.1001,623.30877 C 828.33674,623.07214 828.68256,623.23858 829.51296,623.9888 C 830.85648,625.20259 831.94645,625.30155 832.94738,624.30063 C 833.32222,623.92578 833.55942,623.50666 833.47449,623.36923 C 833.26456,623.02955 834.32519,622.71866 834.75196,622.99478 C 834.9401,623.11651 835.64422,623.21609 836.31668,623.21609 C 837.49797,623.21609 837.54223,623.24603 837.62461,624.10076 C 837.67941,624.66927 837.50948,625.26686 837.14913,625.77292 C 836.61628,626.52125 836.58778,626.92991 836.57613,633.99029 C 836.56271,642.1289 836.55868,642.15274 834.89095,643.9754 C 833.99254,644.95727 833.73119,645.08816 832.66912,645.08816 C 831.70884,645.08816 831.35744,645.22551 830.93117,645.76742 C 830.37589,646.47335 829.59018,646.6026 828.50523,646.16651 L 828.50523,646.1665 z"/>
<path title="Dhubri" d="M 751.06744,606.55623 C 750.80414,606.38624 750.78923,605.99827 751.00274,604.87242 C 751.30136,603.29783 751.12424,602.40896 750.11031,600.39372 C 749.61413,599.40753 749.56125,598.74482 749.53575,593.1936 C 749.50372,586.22066 749.42989,585.92485 747.04153,583.20042 C 745.54776,581.49646 745.56846,580.99978 747.2074,579.22174 C 747.82595,578.55068 748.28758,577.77626 748.29105,577.4038 C 748.29437,577.04692 748.5185,576.46705 748.78912,576.11519 L 749.28115,575.47545 L 750.0856,576.52275 C 751.07395,577.80945 751.52357,578.79504 751.92681,580.55877 L 752.2374,581.91728 L 754.54052,581.91728 L 756.84364,581.91728 L 756.92719,580.76255 C 756.99895,579.77071 757.09703,579.60781 757.62244,579.60781 C 757.95888,579.60781 758.47148,579.4283 758.76155,579.2089 C 759.05163,578.9895 759.67105,578.8061 760.13804,578.80134 C 760.87597,578.79383 761.00955,578.9049 761.15854,579.64984 C 761.39097,580.81203 761.79773,581.23803 762.67503,581.23803 C 763.29354,581.23803 763.47067,581.06443 763.76639,580.16841 C 764.06136,579.27463 764.33363,579.00662 765.42253,578.53819 C 766.13926,578.22986 767.19628,577.97759 767.77146,577.97759 C 768.63765,577.97759 768.8973,578.11311 769.28338,578.7667 C 770.05758,580.07728 769.88624,580.56711 768.25837,581.69721 C 767.09192,582.50698 766.76653,582.88876 766.76401,583.4505 C 766.76,584.34464 766.37368,584.49688 764.08947,584.5045 C 761.53852,584.51301 761.14317,584.87834 760.86483,587.48428 L 760.64748,589.51915 L 759.28897,590.01775 C 758.11349,590.44916 757.85202,590.6875 757.34831,591.78672 C 757.02813,592.48542 756.69207,593.48519 756.60149,594.00841 C 756.51092,594.53164 756.00872,595.56185 755.48549,596.29778 C 754.96226,597.03372 754.53417,597.8344 754.53417,598.07708 C 754.53417,598.31976 754.3981,598.65438 754.2318,598.82069 C 753.83047,599.22201 754.11101,599.62391 755.16273,600.15431 C 756.25609,600.70571 757.5229,601.87989 757.5229,602.34191 C 757.5229,602.53595 756.7893,603.06504 755.89268,603.51765 C 754.64082,604.14958 754.26048,604.48155 754.25393,604.948 C 754.23955,605.97081 751.95031,607.1262 751.06744,606.55623 L 751.06744,606.55623 z"/>
<path title="Bongaigaon" d="M 767.21363,583.77391 C 766.78815,583.34844 767.12169,582.88595 768.52686,581.95298 C 769.85502,581.07112 770.02122,580.8571 770.02122,580.02862 C 770.02122,579.51594 769.89896,579.02091 769.74952,578.92855 C 769.60008,578.8362 769.47782,578.28816 769.47782,577.7107 C 769.47782,576.98718 769.26665,576.40981 768.79856,575.85352 C 768.06447,574.9811 767.9119,573.86902 768.4635,573.41123 C 768.65281,573.25412 769.86783,573.03955 771.16355,572.93442 C 773.50265,572.74463 773.5276,572.74929 774.67075,573.58997 C 775.63373,574.29816 775.98652,574.41038 776.82722,574.27595 C 778.06426,574.07813 778.33423,574.43102 777.77426,575.51388 C 777.38118,576.27403 777.38808,576.34478 777.88115,576.60867 C 778.17107,576.76383 778.66085,576.89078 778.96955,576.89078 C 779.53987,576.89078 779.69632,577.17812 779.32704,577.5474 C 779.21496,577.65948 779.12052,577.89382 779.11717,578.06816 C 779.11382,578.2425 778.90907,578.35134 778.66218,578.31002 C 778.24301,578.23986 777.7784,578.66757 777.76891,579.13233 C 777.76662,579.24441 777.70362,579.32151 777.6289,579.30368 C 777.19386,579.19984 775.57798,580.41959 775.50615,580.90605 C 775.43831,581.36545 775.16426,581.5188 774.14764,581.66622 C 772.5964,581.89116 771.84571,582.25145 772.09336,582.65215 C 772.20767,582.83713 772.15391,582.87501 771.95317,582.75095 C 771.77408,582.64027 771.33155,582.74364 770.96979,582.98067 C 770.60803,583.2177 770.00929,583.41165 769.63926,583.41165 C 769.26924,583.41165 768.89092,583.53391 768.79856,583.68335 C 768.60992,583.98858 767.49216,584.05245 767.21363,583.77392 L 767.21363,583.77391 z"/>
<path title="Barpeta" d="M 778.92227,584.63756 C 778.71927,584.25012 777.86736,583.47767 777.02913,582.92103 L 775.50508,581.90894 L 775.87462,581.03008 C 776.07786,580.5467 776.40628,580.15121 776.60444,580.15121 C 776.8026,580.15121 777.15848,579.93725 777.3953,579.67573 C 777.6321,579.41422 778.27658,578.78733 778.82745,578.28264 C 780.02944,577.18144 780.0132,576.51716 778.78141,576.39809 C 778.29696,576.35126 777.9006,576.18902 777.9006,576.03756 C 777.9006,575.68915 779.27249,574.30515 779.78827,574.13322 C 780.11402,574.02463 780.1027,573.89871 779.71773,573.3491 C 779.06288,572.41417 779.1168,572.33787 780.51079,572.227 C 781.52464,572.14637 781.89031,572.24593 782.4353,572.75101 C 782.98612,573.2615 783.09171,573.5825 783.01761,574.52134 C 782.92946,575.63824 782.9501,575.67034 783.81013,575.75326 C 784.63706,575.83299 784.69317,575.78416 784.69317,574.98483 C 784.69317,574.16376 784.73197,574.13465 785.71205,574.22043 C 786.71176,574.30792 786.73253,574.29042 786.81527,573.29072 C 786.88645,572.43074 786.99778,572.27184 787.52918,572.27184 C 787.87545,572.27184 788.32183,572.07536 788.52113,571.83522 C 788.79603,571.50396 789.16711,571.43747 790.05876,571.55969 C 790.95539,571.68258 791.27076,571.62506 791.38895,571.31705 C 791.49147,571.04987 791.9246,570.9132 792.66954,570.91295 L 793.79521,570.91258 L 793.70272,572.39718 C 793.63139,573.54232 793.76562,574.22118 794.2898,575.36612 L 794.96935,576.85047 L 794.38228,577.3461 L 793.79521,577.84174 L 794.33862,577.16248 L 794.88202,576.48323 L 794.2955,576.97837 C 793.79244,577.40305 793.6816,577.87503 793.51665,580.29503 L 793.32434,583.11656 L 791.522,583.19618 C 790.28785,583.2507 789.74005,583.37978 789.78433,583.60565 C 789.81991,583.78707 789.68616,583.87301 789.48713,583.79663 C 789.2881,583.72026 788.72644,584.03033 788.239,584.48567 C 787.41798,585.2526 787.20597,585.31357 785.35973,585.31357 C 784.26358,585.31357 783.29088,585.19085 783.19819,585.04087 C 783.10549,584.89088 782.76204,584.82307 782.43497,584.89018 C 782.10789,584.95729 781.26679,585.08641 780.56584,585.17711 C 779.39225,585.32898 779.26217,585.28627 778.92228,584.63757 L 778.92227,584.63756 z"/>
<path title="Nalbari" d="M 796.64809,583.41165 C 796.42393,583.26679 795.66305,583.14639 794.95723,583.1441 L 793.67392,583.13994 L 793.84332,580.49084 C 793.98344,578.29975 794.11798,577.71505 794.62149,577.10896 L 795.23026,576.37618 L 794.58065,575.09307 C 794.22338,574.38736 793.93106,573.35446 793.93106,572.79773 C 793.93106,571.83203 793.97788,571.77961 794.94995,571.65705 C 795.51033,571.5864 796.70243,571.30488 797.59905,571.03145 C 799.2604,570.52481 800.51142,570.46265 802.54066,570.78592 C 803.61562,570.95716 803.66437,571.00416 803.4237,571.63719 C 803.28359,572.0057 803.16895,572.62105 803.16895,573.00464 C 803.16895,573.38822 802.91583,574.11163 802.60645,574.61221 C 802.29708,575.11279 802.13256,575.66575 802.24088,575.841 C 802.35523,576.02603 802.32084,576.08734 802.15885,575.98723 C 802.00543,575.89241 801.11949,576.67044 800.19009,577.71617 L 798.50027,579.61751 L 798.59307,581.17495 C 798.71549,583.22978 797.87043,584.20159 796.64809,583.41165 z"/>
<path title="Kamrup" d="M 794.31575,595.01677 C 794.43843,594.19871 794.36079,593.59196 794.055,592.979 C 793.57156,592.00993 793.03687,591.89637 791.85642,592.51201 C 790.79406,593.06607 790.0682,593.02392 789.36335,592.36725 C 788.62917,591.68326 788.62084,591.28752 789.31211,589.93251 C 789.96829,588.64629 790.00118,587.89805 789.4221,587.42998 C 787.39014,585.78751 787.3697,585.4697 789.21447,584.20047 C 790.39853,583.38581 790.43784,583.3791 793.32525,583.4987 C 794.92865,583.56511 796.6258,583.70706 797.09668,583.81414 C 797.77253,583.96783 798.07336,583.88829 798.52524,583.43642 C 799.02001,582.94164 799.07407,582.66329 798.92378,581.38458 L 798.7499,579.90516 L 800.51076,577.92249 C 802.67364,575.48717 803.71105,573.73878 803.71652,572.51967 C 803.7188,572.00977 803.81051,571.45818 803.9203,571.29393 C 804.1704,570.91973 808.62749,570.59261 809.14212,570.91067 C 809.37382,571.05387 809.79938,571.00182 810.23382,570.77716 C 810.90941,570.4278 810.96859,570.4531 811.39183,571.27248 C 811.97745,572.40623 812.15984,575.52632 811.62853,575.32147 C 811.33028,575.20649 811.29541,575.45227 811.45025,576.57806 C 811.63719,577.93736 811.62343,577.97759 810.97124,577.97759 C 810.60192,577.97759 810.14755,577.79419 809.96152,577.57004 C 809.38413,576.87433 808.41524,577.06164 808.20477,577.90967 C 808.10276,578.32062 807.77827,578.9152 807.48365,579.23097 C 807.18903,579.54674 806.98413,579.96911 807.02831,580.16958 C 807.0725,580.37005 806.98638,580.54132 806.83694,580.55018 C 806.38626,580.5769 804.81084,581.85221 804.95012,582.07757 C 805.0214,582.19292 804.93658,582.37576 804.76162,582.48389 C 804.56294,582.60669 804.51629,582.56273 804.63737,582.36682 C 804.74401,582.1943 804.70176,582.05313 804.5435,582.05313 C 804.14443,582.05313 804.18408,582.39789 804.65468,583.02009 C 805.41758,584.02872 805.19053,584.2942 803.73605,584.09416 C 801.65647,583.80816 801.26703,584.14914 801.26703,586.25604 C 801.26703,587.94649 801.24659,587.99687 800.52667,588.08047 C 799.59111,588.18911 798.56087,589.90174 798.55448,591.35895 C 798.5506,592.23971 798.46529,592.37784 797.92509,592.37784 C 796.96935,592.37784 796.64809,592.89685 796.64809,594.44088 C 796.64809,595.97671 796.4499,596.18167 794.9648,596.18167 C 794.14854,596.18167 794.14265,596.1711 794.31575,595.01677 L 794.31575,595.01677 z"/>
<path title="Darrang" d="M 811.9931,577.77382 C 811.89666,577.06399 811.75848,576.26866 811.68602,576.00641 C 811.6096,575.72984 811.73329,575.46089 811.98056,575.36601 C 812.6128,575.1234 812.56002,572.37372 811.90403,571.37885 C 811.45067,570.6913 811.43836,570.49235 811.76997,569.21394 C 811.97081,568.43967 812.13514,567.58828 812.13514,567.32197 C 812.13514,567.05567 812.30854,566.83778 812.52047,566.83778 C 812.73241,566.83778 813.09553,566.76498 813.32741,566.676 C 813.63302,566.55872 813.87149,566.82034 814.19424,567.62696 C 814.43912,568.23896 814.72492,568.7397 814.82936,568.7397 C 814.9338,568.7397 815.26313,567.97554 815.56122,567.04156 C 816.32359,564.65285 816.90704,564.61704 818.11572,566.88477 C 818.61504,567.82156 819.07331,568.43875 819.13413,568.25631 C 819.19494,568.07386 819.47904,567.92459 819.76546,567.92459 C 820.13645,567.92459 820.28622,567.73385 820.28622,567.26137 C 820.28622,566.8966 820.37792,566.54265 820.49,566.47482 C 820.60208,566.40698 821.42738,566.58645 822.32399,566.87363 C 823.31092,567.18973 824.32947,567.33788 824.90517,567.24907 C 827.01914,566.92294 826.93629,566.89251 827.02945,568.02915 C 827.10858,568.99465 826.99589,569.1974 825.70798,570.40655 C 824.62711,571.42133 824.09725,571.72843 823.42728,571.72843 C 822.48361,571.72843 821.28655,572.72319 821.42856,573.38936 C 821.47274,573.59663 821.36778,573.73954 821.19532,573.70696 C 821.02286,573.67438 820.71719,573.85068 820.51606,574.09875 C 820.20309,574.48475 820.20912,574.51639 820.55793,574.3182 C 820.80083,574.18019 820.87401,574.18656 820.73906,574.33397 C 820.61453,574.47001 820.37,574.58687 820.19566,574.59366 C 820.02131,574.60045 819.90444,574.7389 819.93594,574.90132 C 819.96745,575.06375 819.84517,575.18643 819.66424,575.17395 C 818.9547,575.12503 815.96835,576.7816 815.68793,577.37967 C 815.39515,578.00411 813.49347,579.04717 812.62727,579.05844 C 812.28432,579.0629 812.12416,578.73844 811.9931,577.77382 L 811.9931,577.77382 z"/>
<path title="Morigaon" d="M 825.04041,583.95406 C 824.94839,583.80517 824.63578,583.68335 824.34573,583.68335 C 823.89675,583.68335 823.81836,583.48896 823.81836,582.37567 C 823.81836,581.29674 823.68766,580.94786 823.07118,580.38123 C 822.24622,579.62299 821.10787,579.12812 819.91112,579.00746 C 819.37722,578.95364 818.83061,578.56676 818.19143,577.79033 L 817.25439,576.6521 L 818.32553,576.10566 C 819.53038,575.49099 821.30461,573.87217 822.00629,572.74732 C 822.38571,572.13906 822.66991,572.00013 823.53481,572.00013 C 824.44263,572.00013 824.80022,571.80243 825.99198,570.64162 C 827.16648,569.49762 827.54868,569.28311 828.41241,569.28311 C 829.37169,569.28311 829.45895,569.35267 829.76005,570.35767 C 830.18586,571.77891 831.30868,573.08694 832.10287,573.08694 C 832.5647,573.08694 832.81118,573.31583 833.03226,573.95002 C 833.32534,574.79074 833.29011,574.85291 831.6721,576.35017 C 830.29686,577.6228 829.97335,578.09354 829.79182,579.08625 C 829.62505,579.9983 829.67581,580.46002 830.00395,581.01552 C 830.58669,582.00203 830.09976,582.59654 828.70901,582.59654 C 827.69279,582.59654 826.90173,583.12514 827.28493,583.54813 C 827.39571,583.67042 827.33711,583.68474 827.1547,583.57996 C 826.97229,583.47517 826.4596,583.57739 826.01538,583.8071 C 825.50738,584.06981 825.14564,584.12432 825.0404,583.95406 L 825.04041,583.95406 z M 831.11967,572.33976 C 830.78171,571.90882 830.79132,571.89921 831.22226,572.23718 C 831.67485,572.59212 831.81878,572.81524 831.59515,572.81524 C 831.53873,572.81524 831.32477,572.60128 831.11967,572.33976 z"/>
<path title="Nagaon" d="M 851.83548,592.23663 C 851.37367,591.71065 850.69247,591.16498 850.32171,591.02401 C 849.95094,590.88305 849.2554,590.17504 848.77607,589.45066 C 847.74521,587.89283 846.38018,587.21549 844.27161,587.21549 C 842.86935,587.21549 842.85636,587.20767 842.5799,586.1966 C 842.24059,584.95564 840.62651,583.13994 839.86267,583.13994 C 839.55618,583.13994 839.30541,583.25634 839.30541,583.39859 C 839.30541,583.75421 836.99777,585.31357 836.47151,585.31357 C 836.13516,585.31357 836.04498,584.99467 836.04498,583.80534 C 836.04498,582.33846 836.01891,582.28621 835.09402,581.89977 C 834.38517,581.6036 834.14306,581.33793 834.14306,580.85628 C 834.14306,579.84348 832.96441,579.67987 831.93122,580.54923 C 831.48101,580.92807 831.01473,581.23803 830.89505,581.23803 C 830.33931,581.23803 830.00457,580.35882 830.14934,579.27943 C 830.27779,578.32181 830.56372,577.89898 831.95084,576.61537 C 832.85769,575.77619 833.59966,574.9629 833.59966,574.80807 C 833.59966,574.65323 833.46543,574.1415 833.30137,573.67089 C 833.08718,573.05646 832.83244,572.81524 832.39778,572.81524 C 831.13754,572.81524 829.77116,570.46086 829.99708,568.67866 C 830.11174,567.77421 830.22551,567.64787 831.0677,567.48988 C 831.6372,567.38304 832.131,567.43406 832.31578,567.61885 C 832.8379,568.14097 834.78868,567.88053 836.38092,567.07613 C 836.6404,566.94504 837.46141,566.83778 838.20536,566.83778 C 839.27993,566.83778 839.61779,566.72607 839.84882,566.29438 C 840.00877,565.9955 840.3649,565.75097 840.64022,565.75097 C 840.91554,565.75097 841.293,565.56757 841.47904,565.34342 C 841.66712,565.11679 842.25939,564.93586 842.81316,564.93586 C 843.5236,564.93586 844.07865,564.7054 844.74973,564.1318 C 845.33261,563.63357 846.00564,563.32353 846.51912,563.31669 C 846.9749,563.31061 847.48039,563.17307 847.64243,563.01103 C 847.80448,562.84899 848.68982,562.64815 849.60987,562.56472 C 850.85977,562.45139 851.35097,562.28545 851.55278,561.90838 C 851.7216,561.59292 852.12131,561.40373 852.61895,561.40373 C 853.11607,561.40373 853.7637,561.09761 854.3434,560.58862 C 855.55881,559.52148 856.28214,559.4927 856.05067,560.52069 C 854.72327,566.41605 854.64749,566.5436 853.13215,565.43333 C 851.45316,564.20316 849.63012,565.14505 849.63012,567.24268 L 849.63012,568.468 L 848.52981,568.468 C 846.30535,568.468 845.02648,569.88707 845.56349,571.75951 C 845.89394,572.91169 845.73178,573.08694 844.33529,573.08694 C 843.02618,573.08694 842.39821,573.52865 842.11756,574.64687 C 841.97748,575.20496 842.09494,575.48683 842.67571,575.98639 C 843.08025,576.33436 843.76516,576.61908 844.19771,576.61908 C 844.63027,576.61908 845.08194,576.78885 845.20145,576.99635 C 845.32095,577.20385 845.66326,577.41852 845.96213,577.47341 C 846.261,577.5283 846.62115,577.83581 846.76246,578.15676 C 846.90377,578.47772 847.39284,578.90493 847.84927,579.10613 C 848.33109,579.31852 848.71343,579.71203 848.76088,580.04435 C 848.83726,580.57941 849.20542,580.76368 851.46411,581.39739 C 851.65091,581.4498 851.80374,581.86331 851.80374,582.31631 C 851.80374,582.81222 851.9447,583.13994 852.15799,583.13994 C 852.74667,583.13994 854.24906,584.88729 854.24906,585.57195 C 854.24906,585.96948 854.77685,586.77008 855.6419,587.68473 C 856.67459,588.77665 856.9556,589.23658 856.72871,589.46347 C 856.5604,589.63178 856.42268,590.46264 856.42268,591.30982 L 856.42268,592.85015 L 855.4038,593.01855 C 853.28278,593.36914 852.72193,593.24624 851.83548,592.23663 L 851.83548,592.23663 z"/>
<path title="Goalpara" d="M 775.72698,591.18424 C 775.72698,590.71617 775.13776,590.47592 773.98979,590.47592 C 773.33755,590.47592 772.96337,590.27469 772.53288,589.69242 C 771.93795,588.88774 769.94105,587.75889 769.11252,587.75889 C 768.85652,587.75889 767.40975,588.43135 765.89745,589.25326 C 762.90607,590.87901 762.20906,591.02906 761.46539,590.20732 C 761.0485,589.74664 761.00319,589.37623 761.15801,587.69406 C 761.39266,585.14446 761.79173,584.78943 764.45132,584.76421 C 766.27532,584.74692 768.69419,584.28585 769.10238,583.87765 C 769.20924,583.77078 769.58013,583.68335 769.92657,583.68335 C 770.27302,583.68335 771.15259,583.31655 771.88118,582.86824 C 773.77282,581.70431 774.81206,581.77241 776.82535,583.19222 C 777.71372,583.81872 778.50111,584.52205 778.5751,584.75518 C 778.80961,585.49403 779.70508,585.88057 780.49048,585.58196 C 781.40557,585.23405 783.25471,585.2361 783.47051,585.58527 C 783.56286,585.73471 784.48277,585.85697 785.51475,585.85697 C 787.03947,585.85697 787.43984,585.94809 787.6513,586.34321 C 787.79442,586.61064 788.22463,586.99701 788.60732,587.20182 C 789.60142,587.73384 789.68933,588.34229 788.98232,589.79752 L 788.36147,591.07544 L 787.00279,590.88878 C 786.25553,590.78613 785.01258,590.71743 784.24068,590.73613 C 783.46879,590.75484 782.75837,590.64253 782.66199,590.48658 C 782.56172,590.32433 782.05792,590.26879 781.48426,590.35675 C 780.57752,590.4958 780.43757,590.43098 780.01893,589.67808 C 779.75637,589.20587 779.33371,588.8457 779.04216,588.8457 C 778.33806,588.8457 777.6289,589.69395 777.6289,590.53617 C 777.6289,590.92084 777.43641,591.30675 777.19912,591.39781 C 776.45529,591.68324 775.72698,591.57759 775.72698,591.18424 z"/>
<path title="Kamrup Metropolitan" d="M 800.99533,592.38499 C 800.77118,592.23619 800.19041,592.11258 799.70474,592.11029 C 798.94138,592.1067 798.82171,592.01262 798.82171,591.41605 C 798.82171,591.03651 799.0645,590.25007 799.36124,589.66841 C 799.76242,588.88204 800.09337,588.5887 800.65183,588.52449 C 801.37687,588.44114 801.40557,588.37696 801.48044,586.67208 C 801.5764,584.48707 801.86484,584.21555 803.87019,584.42252 C 805.29146,584.5692 805.34257,584.55146 805.34257,583.91155 C 805.34257,583.54694 805.20997,583.11602 805.04791,582.95396 C 804.83615,582.7422 805.26031,582.14467 806.55536,580.83035 C 807.63239,579.73729 808.42055,578.68613 808.51421,578.2178 C 808.68589,577.35943 809.1629,577.20684 809.68982,577.84174 C 809.87585,578.0659 810.38291,578.2493 810.81662,578.2493 C 811.39973,578.2493 811.67,578.41977 811.85395,578.9036 C 812.07291,579.47951 812.21046,579.5335 813.00196,579.35425 C 814.41342,579.03461 815.6631,578.28404 815.99437,577.55697 C 816.43499,576.58992 816.85374,576.7251 818.13896,578.2493 C 819.13269,579.4278 819.41753,579.60781 820.28857,579.60781 C 820.88361,579.60781 821.66878,579.86059 822.21589,580.2283 C 823.04216,580.78364 823.14773,580.99762 823.22123,582.26607 C 823.29276,583.50046 823.23753,583.68335 822.79334,583.68335 C 822.51283,583.68335 821.37548,583.99915 820.26589,584.38512 C 818.92533,584.85143 817.59423,585.10213 816.29857,585.1323 C 814.51132,585.17392 814.28346,585.11539 813.56668,584.43053 C 812.40792,583.32338 810.93181,583.3898 809.53131,584.61211 C 808.57991,585.44246 808.50314,585.6004 808.80678,586.10278 C 809.46117,587.18547 809.0694,589.38911 808.22253,589.38911 C 808.02379,589.38911 807.55549,589.14865 807.18187,588.85476 C 806.37925,588.22343 804.56231,587.89823 803.98406,588.28242 C 803.70847,588.46552 803.53252,589.19441 803.44066,590.53345 L 803.3048,592.51369 L 802.35385,592.5846 C 801.83082,592.6236 801.21949,592.53377 800.99533,592.38498 L 800.99533,592.38499 z"/>
</g>
<g class="label" text-anchor="middle" font-size="4" font-family="sans-serif"  fill="#444">
<text x="762" y="573">Kokrajhar</text>
<text x="774" y="568">Chirang</text>
<text x="793" y="568">Baksa</text>
<text x="818" y="562">Udalguri</text>
<text x="845" y="559">Sonitpur</text>
<text x="882" y="544">Lakhimpur</text>
<text x="903" y="526">Dhemaji</text>
<text x="925" y="527">Tinsukia</text>
<text x="909" y="535">Dibrugarh</text>
<text x="901" y="547">Sivasagar</text>
<text x="885" y="556">Jorhat</text>
<text x="872" y="565">Golaghat</text>
<text x="861" y="575">Karbi Anglong</text>
<text x="850" y="605">Dima Hasao</text>
<text x="847" y="623">Cachar</text>
<text x="839" y="639">Hailakandi</text>
<text x="832" y="634">Karimganj</text>
<text x="755" y="588">Dhubri</text>
<text x="773" y="578">Bongaigaon</text>
<text x="785" y="582">Barpeta</text>
<text x="799" y="576">Nalbari</text>
<text x="801" y="582">Kamrup</text>
<text x="818" y="572">Darrang</text>
<text x="827" y="577">Morigaon</text>
<text x="840" y="580">Nagaon</text>
<text x="777" y="588">Goalpara</text>
<text x="812" y="587">Kamrup Metropolitan</text>
</g>
</svg>
