<svg xmlns="http://www.w3.org/2000/svg" viewBox="543 534 159 119">
<g title="Bihar" fill="#328707">
<path title="Paschim Champaran" d="M 582.47648,570.42447 C 581.62293,570.02087 579.94177,568.84517 578.74057,567.81179 L 576.55657,565.93292 L 576.55657,564.49299 C 576.55657,562.86425 576.1871,562.49054 574.57684,562.49054 C 574.06024,562.49054 573.23857,562.21515 572.72498,561.86988 C 571.73297,561.20297 570.0357,558.8367 570.0357,558.12059 C 570.0357,557.88053 569.77985,557.45256 569.46713,557.16956 C 568.43788,556.23811 568.27227,555.62677 568.27093,552.75411 C 568.26972,550.13191 568.22719,549.91166 567.62821,549.42575 C 567.22351,549.09745 566.56549,548.9054 565.84531,548.9054 C 564.91212,548.9054 564.60531,548.76907 564.16384,548.15822 C 563.6546,547.4536 562.331,544.27993 562.49011,544.14503 C 562.53069,544.11063 563.59552,543.19831 564.85641,542.11765 C 568.18039,539.2688 568.18123,539.2686 569.71731,540.95224 C 570.41545,541.71746 571.29233,542.52565 571.66592,542.74822 C 572.03951,542.97079 574.49956,543.64875 577.1327,544.25481 C 585.13848,546.09746 585.46912,546.31461 585.69246,549.87645 C 585.93474,553.74042 587.55532,556.15616 590.24346,556.66046 C 591.39907,556.87725 591.50051,557.35855 590.71572,558.9013 C 589.75331,560.79322 589.05489,563.57713 589.05489,565.52138 C 589.05489,566.65225 588.89446,567.71842 588.65444,568.18257 C 588.21741,569.02769 585.18804,571.19317 584.47291,571.17165 C 584.22843,571.16428 583.33003,570.82806 582.47648,570.42446 L 582.47648,570.42447 z"/>
<path title="Purba Champaran" d="M 594.0844,580.42604 C 593.65653,579.97945 593.08345,579.54328 592.81089,579.45678 C 592.53834,579.37027 592.31533,579.08718 592.31533,578.82769 C 592.31533,578.19732 590.73016,576.70121 589.82649,576.4787 C 589.12891,576.30693 584.97935,572.31635 584.97935,571.81726 C 584.97935,571.68236 585.77521,571.04873 586.74792,570.40921 C 588.87759,569.00903 589.3266,568.23482 589.3266,565.96278 C 589.3266,564.10804 590.10612,560.89761 590.96547,559.21315 C 591.25958,558.63663 591.50022,557.85441 591.50022,557.47486 C 591.50022,556.67849 591.66735,556.65491 593.62292,557.17545 C 595.26768,557.61326 596.39087,558.26416 596.39087,558.7795 C 596.39087,558.97309 596.57478,559.75079 596.79957,560.50773 L 597.20826,561.88398 L 598.90526,561.99305 C 600.98091,562.12645 602.87224,562.99298 604.18531,564.41215 C 604.9019,565.18665 605.39655,565.471 606.13437,565.53259 C 607.09228,565.61254 607.12577,565.652 607.20802,566.79742 C 607.25472,567.44769 607.16892,568.33543 607.01737,568.77017 C 606.82163,569.33165 606.86029,570.60256 607.15084,573.15777 C 607.62394,577.31839 607.47361,580.06097 606.76359,580.223 C 606.51302,580.28018 605.95246,580.15202 605.5179,579.93821 C 605.06889,579.71728 603.30938,579.45685 601.44236,579.33495 C 598.66672,579.15374 598.08415,579.18498 597.68786,579.5363 C 597.42988,579.76501 597.28339,580.05666 597.36234,580.18441 C 597.44131,580.31217 597.339,580.35265 597.13502,580.27437 C 596.93103,580.19609 596.53893,580.3809 596.26369,580.68504 C 595.57411,581.44702 594.99681,581.37841 594.08439,580.42604 L 594.0844,580.42604 z"/>
<path title="Sitamarhi" d="M 619.46503,580.80466 C 618.63475,579.91592 617.53273,579.33611 616.6738,579.33611 C 616.30797,579.33611 615.31135,579.70291 614.4591,580.15121 C 613.60685,580.59952 612.82039,580.96632 612.71142,580.96632 C 612.60244,580.96632 612.50688,580.32443 612.49907,579.53988 C 612.45175,574.79071 612.41395,574.46063 611.88504,574.17756 C 611.60115,574.02563 611.08905,573.40344 610.74704,572.79491 C 610.08956,571.62509 610.21163,571.65429 608.16281,572.17667 C 607.63755,572.31059 607.55159,572.18925 607.38505,571.07869 C 607.28206,570.39199 607.29498,569.37082 607.41373,568.80944 C 607.53247,568.24805 607.59764,567.28429 607.55854,566.66773 L 607.48744,565.54672 L 609.88645,564.2605 C 612.22984,563.00412 612.31375,562.98166 613.50463,563.29201 C 615.17979,563.72856 615.56095,564.14419 617.0055,567.10948 C 618.099,569.35413 618.40463,569.76038 619.34975,570.2254 C 619.9872,570.53904 621.19485,570.80449 622.27055,570.86739 C 624.06664,570.97243 624.10454,570.99017 624.10454,571.72582 C 624.10454,572.13897 623.92114,572.62921 623.69699,572.81524 C 623.47283,573.00127 623.28943,573.32597 623.28943,573.5368 C 623.28943,573.74762 623.00098,574.49682 622.64843,575.20167 C 622.29588,575.90653 621.94028,577.16339 621.8582,577.99471 C 621.68016,579.79797 621.01766,581.50973 620.49778,581.50973 C 620.29205,581.50973 619.82731,581.19244 619.46503,580.80466 L 619.46503,580.80466 z"/>
<path title="Madhubani" d="M 640.29638,588.32843 C 639.75931,587.77843 639.31989,587.2067 639.31989,587.05791 C 639.31989,586.90913 638.98366,586.39352 638.57271,585.9121 C 637.99696,585.23762 637.48974,584.97504 636.36201,584.76763 C 634.36228,584.39984 634.30743,584.40742 633.39199,585.17771 C 632.17322,586.20324 631.56191,586.05586 630.01102,584.36261 L 628.6423,582.86824 L 626.81222,582.86824 C 625.16693,582.86824 624.93784,582.80062 624.54335,582.19854 C 624.30201,581.83021 624.10065,581.18831 624.0959,580.7721 C 624.08547,579.85883 623.6025,579.1659 622.87511,579.02061 C 622.41043,578.9278 622.3515,578.73226 622.43556,577.56247 C 622.48897,576.81945 622.76406,575.7579 623.04689,575.20346 C 623.32974,574.64903 623.56114,574.0221 623.56114,573.81029 C 623.56114,573.59848 623.74454,573.27298 623.96869,573.08694 C 624.19285,572.90091 624.37688,572.36631 624.37766,571.89894 C 624.37901,571.07963 624.44475,571.03166 626.21165,570.56044 C 629.31525,569.73273 629.56164,569.72894 630.97941,570.48715 C 632.61938,571.36418 633.64388,571.36903 634.91429,570.50577 C 636.61336,569.35121 638.45209,569.67412 641.22181,571.61346 C 641.89428,572.08432 643.06154,572.67118 643.81574,572.91761 C 644.78618,573.2347 645.61734,573.80142 646.65933,574.85652 C 647.75065,575.96157 648.32964,576.34738 648.89666,576.34738 C 649.74215,576.34738 650.14837,576.96304 649.67735,577.53057 C 649.5125,577.72922 649.43512,577.94925 649.50541,578.01954 C 649.57569,578.08982 649.055,578.68991 648.34831,579.35305 L 647.06342,580.55877 L 648.28535,579.20026 L 649.5073,577.84174 L 647.93337,579.33611 C 646.84273,580.37161 646.39878,580.98273 646.48755,581.32633 C 646.67045,582.03428 645.84991,582.86824 644.97044,582.86824 C 644.11681,582.86824 643.7336,583.73363 644.10685,584.81848 C 644.38462,585.62581 644.42904,586.67127 644.17902,586.51674 C 643.98077,586.39423 642.27238,588.99043 642.44043,589.15885 C 642.49224,589.21077 642.25073,589.27017 641.90374,589.29085 C 641.50245,589.31476 640.91751,588.96453 640.29638,588.32843 L 640.29638,588.32843 z"/>
<path title="Supaul" d="M 648.37466,590.29689 C 648.04977,590.22811 647.58845,589.87345 647.3495,589.50876 C 647.03407,589.02736 646.6692,588.8457 646.01771,588.8457 C 645.41295,588.8457 644.91326,588.62524 644.48516,588.16954 C 643.85268,587.49629 643.85211,587.48935 644.35388,586.55761 C 644.77855,585.76904 644.8056,585.50719 644.52579,584.89307 C 644.01469,583.77135 644.34811,583.13994 645.45152,583.13994 C 646.0994,583.13994 646.38417,583.01551 646.38417,582.73239 C 646.38417,582.50824 646.52069,582.32484 646.68754,582.32484 C 646.86555,582.32484 646.93665,582.04093 646.85959,581.63785 C 646.75134,581.07155 647.03214,580.65747 648.45814,579.28061 C 649.57908,578.1983 650.188,577.39451 650.188,576.99717 C 650.188,576.32946 650.42844,576.21822 652.47479,575.93923 C 654.36138,575.68201 656.56394,574.63782 657.6509,573.48531 C 658.29621,572.80107 658.76803,572.52862 659.20052,572.59046 C 659.73266,572.66657 659.88964,572.96968 660.28911,574.69231 C 660.54584,575.79943 660.9126,576.80208 661.10412,576.92045 C 661.30784,577.04636 661.41885,577.52448 661.37163,578.0726 C 661.32724,578.58791 661.42148,579.09022 661.58106,579.18885 C 661.74065,579.28748 661.87122,579.65166 661.87122,579.99813 C 661.87122,580.3446 662.05462,580.78029 662.27877,580.96632 C 662.50293,581.15235 662.68633,581.58804 662.68633,581.93452 C 662.68633,582.28099 662.80859,582.64003 662.95803,582.73239 C 663.10747,582.82475 663.22973,583.32824 663.22973,583.85127 C 663.22973,584.3743 663.32143,584.74515 663.43351,584.67537 C 663.54559,584.6056 663.59778,585.50346 663.5495,586.67061 C 663.4736,588.50573 663.39003,588.81146 662.9316,588.93134 C 662.2639,589.10595 660.77043,588.69961 659.34052,587.9543 C 658.20361,587.36171 655.72126,587.12927 655.80275,587.62304 C 655.8274,587.77248 655.47828,587.9214 655.02691,587.95398 C 653.98348,588.02929 652.20781,588.89661 652.28304,589.29421 C 652.31455,589.46067 652.13114,589.5807 651.87549,589.56092 C 651.61984,589.54114 651.4325,589.65159 651.45918,589.80636 C 651.48586,589.96114 651.30247,590.10899 651.05163,590.13492 C 650.80079,590.16085 650.22876,590.23604 649.78045,590.302 C 649.33214,590.36797 648.69953,590.36567 648.37465,590.29689 L 648.37466,590.29689 z"/>
<path title="Araria" d="M 665.87464,590.77288 C 665.77195,590.38019 665.50786,590.20421 665.02124,590.20421 C 664.50482,590.20421 664.31654,590.06332 664.31654,589.67685 C 664.31654,589.38679 664.21322,589.08561 664.08693,589.00756 C 663.96063,588.92951 663.77879,587.49333 663.68282,585.81606 C 663.58685,584.13878 663.38452,582.64264 663.23318,582.49131 C 663.08185,582.33997 662.95803,581.99442 662.95803,581.7234 C 662.95803,581.45239 662.85375,581.01835 662.72631,580.75886 C 661.70703,578.68362 661.56316,578.24848 661.72629,577.73449 C 661.89012,577.21831 662.11158,577.16251 663.99523,577.1627 C 665.14329,577.16281 667.11661,576.95766 668.38038,576.7068 C 670.41685,576.30255 671.1584,576.28858 674.90125,576.58391 C 678.69215,576.88304 679.17668,576.97835 679.63575,577.51529 C 679.91703,577.84427 680.24885,578.08434 680.37315,578.04878 C 680.49745,578.01321 680.52164,578.1861 680.4269,578.43298 C 680.31212,578.7321 680.35967,578.81694 680.56942,578.68731 C 680.78155,578.55621 680.82585,578.64481 680.70527,578.95901 C 680.58471,579.27321 680.629,579.36181 680.84113,579.23072 C 681.05325,579.09961 681.09755,579.18822 680.97698,579.50242 C 680.84599,579.84378 680.89445,579.90909 681.15792,579.74625 C 681.37924,579.60947 681.45237,579.62968 681.34788,579.79875 C 681.25443,579.94995 681.31193,580.79414 681.47565,581.67473 C 681.89461,583.92813 682.15272,586.9164 681.91575,586.76994 C 681.61899,586.58653 680.5812,587.20669 680.74402,587.47014 C 680.82132,587.59521 680.67191,587.68078 680.41201,587.66029 C 680.1521,587.63981 679.96855,587.77147 680.00412,587.95289 C 680.03969,588.1343 679.91155,588.2224 679.71937,588.14866 C 679.5272,588.07491 679.07016,588.35354 678.70375,588.76782 L 678.03753,589.52107 L 678.71679,588.97961 L 679.39604,588.43815 L 678.88425,589.04307 C 678.60277,589.37578 678.27498,589.58775 678.15584,589.51412 C 678.03671,589.44049 677.85936,589.50948 677.76174,589.66743 C 677.66412,589.82538 677.37777,589.88909 677.12542,589.80899 C 676.87306,589.7289 675.81353,589.85409 674.77089,590.08719 C 673.72826,590.32029 671.77478,590.62 670.42986,590.75321 C 669.08493,590.88641 667.54326,591.07328 667.00394,591.16847 C 666.16078,591.31728 666.00251,591.26184 665.87464,590.77288 L 665.87464,590.77288 z"/>
<path title="Kishanganj" d="M 684.57266,591.50008 C 683.93636,591.14399 684.05556,590.68504 685.1018,589.46275 C 685.62483,588.85171 686.05276,588.17221 686.05276,587.95274 C 686.05276,587.73329 686.23616,587.40152 686.46032,587.21549 C 686.68447,587.02945 686.86787,586.64768 686.86787,586.36711 C 686.86787,585.93057 686.6546,585.85697 685.38954,585.85697 C 684.57646,585.85697 683.83565,585.97924 683.74329,586.12867 C 683.65093,586.27811 683.33805,586.40038 683.048,586.40038 C 682.62374,586.40038 682.52063,586.20934 682.52063,585.42331 C 682.52063,584.88593 682.34723,583.81609 682.13529,583.04591 C 681.92335,582.27573 681.67715,581.20767 681.58816,580.67244 C 681.49917,580.13722 680.99802,578.98798 680.47449,578.11858 C 679.56189,576.60308 679.54081,576.51009 679.96329,575.8653 C 680.3791,575.23068 680.51344,575.19986 682.34533,575.3187 C 684.48622,575.45759 685.6532,575.94154 687.20828,577.33536 C 688.42328,578.42437 689.50681,578.52982 690.31773,577.63796 C 690.62346,577.30173 691.27233,575.9568 691.75968,574.64923 C 692.61836,572.34536 692.67246,572.27184 693.50891,572.27184 C 694.1585,572.27184 694.72281,572.59113 695.78981,573.56242 C 697.1363,574.78815 697.21574,574.93623 697.37019,576.50874 C 697.50998,577.93193 697.43054,578.39236 696.80457,579.78722 C 696.20002,581.13433 695.75574,581.64988 694.18912,582.82226 C 692.94227,583.75533 692.30192,584.42087 692.30192,584.7837 C 692.30192,585.17116 691.96129,585.47889 691.14515,585.82873 C 689.35744,586.59503 688.44313,587.52612 687.43876,589.60317 C 686.66686,591.19947 686.39047,591.53124 685.75487,591.62453 C 685.33663,591.68591 684.80464,591.62991 684.57265,591.50008 L 684.57266,591.50008 z"/>
<path title="Purnia" d="M 664.48432,608.67158 C 663.8065,608.07645 663.51674,607.55546 663.38871,606.70171 C 663.29298,606.06331 663.03464,605.19402 662.81463,604.76996 C 662.59463,604.3459 662.41463,603.67332 662.41463,603.27534 C 662.41463,602.87737 662.22809,602.28544 662.00011,601.95995 C 661.72055,601.56082 661.56874,600.61833 661.5338,599.065 C 661.48989,597.11189 661.56311,596.67225 662.01562,596.17223 C 662.44394,595.69895 662.53151,595.27492 662.45942,594.02343 C 662.37534,592.56377 662.42945,592.40081 663.30723,591.47009 C 664.42752,590.28224 665.30296,590.17649 665.68556,591.1828 C 665.8842,591.70525 666.07738,591.84066 666.42602,591.70183 C 666.68545,591.59852 667.87585,591.45327 669.07134,591.37906 C 670.26683,591.30484 671.64781,591.12112 672.14017,590.97078 C 673.35529,590.59976 675.95079,590.1861 676.96658,590.20157 C 677.52556,590.21009 678.0147,589.98034 678.46095,589.4997 C 679.50185,588.37857 682.01827,586.76909 683.06403,586.55562 C 685.34048,586.09091 686.59617,586.06287 686.59617,586.47674 C 686.59617,586.69702 686.41277,587.02945 686.18861,587.21549 C 685.96446,587.40152 685.78106,587.66836 685.78106,587.80846 C 685.78106,587.94857 685.35313,588.62364 684.8301,589.30863 C 684.30707,589.99361 683.87914,590.77671 683.87914,591.04884 C 683.87914,591.72469 684.82909,592.17937 685.79699,591.96678 L 686.59617,591.79125 L 686.59617,593.1372 C 686.59617,593.87746 686.77128,594.97948 686.98532,595.58611 C 687.32306,596.54335 687.32305,596.73176 686.98532,597.01206 C 686.77129,597.18969 686.59617,597.63259 686.59617,597.99629 C 686.59617,598.51926 686.33913,598.77126 685.36708,599.20124 C 684.62848,599.52795 684.21153,599.86389 684.32225,600.04305 C 684.42941,600.21642 684.38201,600.26424 684.20899,600.1573 C 684.04536,600.05617 682.89551,600.4523 681.65376,601.03757 C 680.41202,601.62285 678.95943,602.2369 678.42579,602.40213 C 677.21599,602.77671 674.91295,602.79553 674.91295,602.43084 C 674.91295,602.2814 674.66412,602.15913 674.35999,602.15913 C 674.05585,602.15913 673.53361,601.97999 673.19945,601.76104 C 672.41252,601.24542 670.67769,601.08642 670.76622,601.53802 C 670.80623,601.74206 670.6587,601.8018 670.37943,601.69463 C 670.03928,601.5641 669.97068,601.63271 670.1012,601.97285 C 670.20837,602.25213 670.14864,602.39965 669.9446,602.35965 C 669.74176,602.31988 669.61518,602.62527 669.61586,603.15276 C 669.61648,603.62454 669.52478,603.95356 669.41209,603.88391 C 669.2994,603.81427 669.206,604.03959 669.20454,604.38465 C 669.20308,604.7297 668.89977,605.66097 668.53051,606.45414 C 668.16126,607.24732 667.88735,608.03649 667.92184,608.20786 C 667.95632,608.37923 667.80113,608.53056 667.57698,608.54415 C 667.35282,608.55773 667.20302,608.72521 667.24408,608.91632 C 667.28514,609.10743 667.2037,609.1927 667.0631,609.10581 C 666.9225,609.01891 666.49211,609.06771 666.10667,609.21426 C 665.51048,609.44093 665.26829,609.35992 664.48432,608.67158 L 664.48432,608.67158 z"/>
<path title="Katihar" d="M 682.92818,614.15154 C 682.181,613.72926 680.77494,612.91237 679.8036,612.33622 C 678.31281,611.45197 677.69873,611.25729 675.86391,611.08724 C 670.88272,610.62561 669.08583,610.28949 668.46001,609.70229 C 667.6873,608.97726 667.69434,608.75289 668.53707,607.24507 C 668.91568,606.56766 669.35591,605.27284 669.51535,604.36771 C 669.86845,602.3631 670.71218,601.34837 671.85577,601.55293 C 672.26701,601.6265 672.78688,601.83622 673.01103,602.01899 C 674.26071,603.03793 675.19246,603.23939 677.29981,602.94628 C 678.98862,602.7114 680.0325,602.31995 683.11306,600.76639 C 686.40283,599.10733 686.86787,598.79027 686.86787,598.20649 C 686.86787,597.28019 687.75863,597.32836 688.36327,598.28737 C 688.62238,598.69832 689.85086,600.01268 691.09324,601.20817 L 693.35214,603.3818 L 693.51762,605.48749 L 693.68309,607.59319 L 692.99358,607.59319 C 692.61437,607.59319 691.563,607.33672 690.65724,607.02326 C 689.25703,606.53869 688.88982,606.50328 688.20533,606.7868 C 687.19032,607.20723 686.05385,608.53836 686.04926,609.31218 C 686.04732,609.63695 685.80598,610.66748 685.51293,611.60225 C 685.19439,612.61835 685.04556,613.62906 685.14285,614.1155 C 685.35638,615.18314 684.77038,615.19268 682.92818,614.15154 z"/>
<path title="Bhagalpur" d="M 666.76187,623.38025 C 666.20155,623.06836 663.67479,622.7659 661.87122,622.79485 C 660.7951,622.81212 660.14872,622.6658 659.56175,622.27207 C 658.9517,621.86287 658.29697,621.72486 656.95923,621.72352 C 655.43515,621.72199 654.99483,621.6038 653.9705,620.92126 C 651.82363,619.49074 651.12887,616.30492 652.91003,616.05857 C 653.74021,615.94374 655.20659,614.02678 655.60987,612.52911 C 655.76815,611.94128 656.08018,611.30885 656.30327,611.1237 C 656.52634,610.93856 656.70887,610.45488 656.70887,610.04886 C 656.70887,609.00148 657.49453,608.73654 660.84766,608.65319 C 663.42639,608.58909 663.77109,608.63895 664.45201,609.17456 C 665.31252,609.85144 665.64339,609.89338 666.61834,609.44917 C 667.22869,609.17107 667.40788,609.21742 668.05756,609.82142 C 668.46571,610.20086 669.2887,610.60082 669.88645,610.71021 C 673.17871,611.31274 674.13366,611.44934 675.86391,611.56521 C 678.41076,611.73577 678.63582,611.82273 678.09037,612.42545 C 677.85459,612.68598 677.29307,613.75326 676.84255,614.79719 C 676.34452,615.9512 675.88565,616.65883 675.67196,616.60238 C 675.47866,616.55131 674.68671,616.66059 673.91208,616.84523 L 672.50366,617.18093 L 671.46675,619.44446 C 670.69953,621.11931 670.24251,621.78613 669.70951,622.00841 C 669.31333,622.17365 668.71124,622.60466 668.37156,622.96624 C 667.71447,623.66569 667.41363,623.74306 666.76187,623.38026 L 666.76187,623.38025 z"/>
<path title="Banka" d="M 656.9384,640.09355 C 656.5561,639.30668 656.0473,638.75373 655.43834,638.46334 C 654.26581,637.9042 654.03099,637.91129 652.6071,638.54878 C 651.28741,639.13962 651.00311,639.07652 651.00311,638.19271 C 651.00311,637.85488 650.69745,637.31271 650.32385,636.98788 C 649.92463,636.64075 649.6446,636.10578 649.6446,635.69021 C 649.6446,634.58268 648.83111,633.44782 647.89379,633.24774 C 646.22264,632.89103 645.9532,632.11845 647.08718,630.93483 C 647.68877,630.30691 647.81196,629.88335 647.94111,627.99915 L 648.09203,625.79727 L 649.15788,625.79727 C 650.61559,625.79727 651.27395,625.39369 651.27882,624.49712 C 651.28101,624.09143 651.45917,623.45383 651.67471,623.08024 C 651.89024,622.70665 652.19108,622.12589 652.34323,621.78966 C 652.65916,621.09152 653.28296,621.02532 654.26354,621.58588 C 654.6444,621.80359 655.6825,621.97841 656.62657,621.9838 C 657.89616,621.99107 658.63055,622.1637 659.61216,622.68562 C 660.59902,623.21034 661.14753,623.33836 661.87922,623.21474 C 662.84625,623.05137 666.27888,623.47841 666.93071,623.84319 C 667.19081,623.98875 666.97509,624.67405 666.0688,626.58119 C 665.13734,628.54133 664.85774,629.44462 664.85032,630.51781 C 664.84503,631.28383 664.66596,632.21625 664.4524,632.58984 C 664.22379,632.98974 664.06014,634.0307 664.05447,635.12095 C 664.0389,638.11502 663.23198,638.79944 661.61911,637.18658 C 661.15858,636.72606 660.63292,636.39889 660.45097,636.45954 C 660.03301,636.59885 659.75949,637.56426 659.72468,639.02306 C 659.70359,639.90695 659.5392,640.28267 658.9817,640.7212 C 657.94409,641.53739 657.5865,641.42755 656.93839,640.09356 L 656.9384,640.09355 z"/>
<path title="Jamui" d="M 641.90107,644.34619 L 640.54256,643.59048 L 640.54256,641.14682 L 640.54256,638.70315 L 639.00129,638.62229 C 637.54713,638.546 637.43943,638.58439 637.09571,639.30155 C 636.84127,639.83243 636.52765,640.06166 636.0558,640.06166 C 635.38074,640.06166 635.38015,640.05929 635.30338,637.00501 L 635.22656,633.94835 L 634.39349,633.94835 C 633.93529,633.94835 633.14457,633.75102 632.63632,633.50984 C 631.90344,633.16207 631.71222,632.91078 631.71222,632.29544 C 631.71222,631.50233 630.80879,629.62485 630.25429,629.26564 C 630.08481,629.15585 629.56773,629.06415 629.10523,629.06186 C 628.61358,629.05943 628.06005,628.83201 627.77253,628.5143 C 627.50205,628.21542 627.12185,627.97089 626.92762,627.97089 C 626.53506,627.97089 626.13156,626.29951 626.37253,625.67156 C 626.72959,624.74107 628.39974,624.90825 630.70265,626.10499 C 631.21164,626.36948 633.82685,626.14249 634.29339,625.79332 C 634.71848,625.47516 636.58843,625.32912 636.40339,625.62852 C 636.31006,625.77953 636.43861,625.81418 636.70826,625.7107 C 636.97162,625.60964 637.10593,625.64273 637.01692,625.78675 C 636.88094,626.00676 637.65333,626.61238 638.06992,626.61238 C 638.14925,626.61238 638.66233,626.2189 639.21007,625.73797 C 640.31929,624.76408 641.98514,624.45513 641.9309,625.23338 C 641.91449,625.4688 642.03952,625.63565 642.20873,625.60415 C 642.37796,625.57264 642.50022,625.75605 642.48044,626.0117 C 642.46067,626.26735 642.59731,626.44596 642.7841,626.4086 C 642.9709,626.37124 643.09317,626.49351 643.05581,626.6803 C 643.01706,626.87404 643.24469,627.01129 643.5857,626.99981 C 643.91451,626.98874 644.12126,627.08044 644.04515,627.20359 C 643.96905,627.32673 644.70872,627.42749 645.68887,627.42749 L 647.47098,627.42749 L 647.47098,628.60174 C 647.47098,629.48351 647.26982,630.04186 646.66343,630.84329 C 646.21927,631.43031 645.85248,632.04447 645.84832,632.2081 C 645.83612,632.68831 646.72255,633.32977 647.67948,633.53318 C 648.65359,633.74026 649.3729,634.77756 649.3729,635.97529 C 649.3729,636.35776 649.61743,636.88007 649.9163,637.13598 C 650.77077,637.86759 650.59245,638.62498 649.40626,639.30219 C 648.82916,639.63166 647.97424,640.22329 647.50643,640.61693 C 646.77119,641.23559 646.65587,641.50932 646.65587,642.63574 C 646.65587,643.71584 646.54289,644.01288 645.99574,644.37139 C 644.75078,645.18711 643.39782,645.17879 641.90107,644.34619 L 641.90107,644.34619 z"/>
<path title="Nawada" d="M 609.88544,640.83148 C 609.78581,640.73186 609.7043,640.32288 609.7043,639.92264 C 609.7043,639.52239 609.47015,638.98302 609.18396,638.72402 C 608.83111,638.4047 608.61974,637.75702 608.52732,636.71207 C 608.45236,635.86449 608.31027,634.80383 608.21156,634.35506 C 608.06633,633.69472 608.16564,633.41365 608.73235,632.88126 C 609.19221,632.44925 609.4326,631.93486 609.4326,631.38289 C 609.4326,630.41535 610.54365,628.62946 611.29368,628.39141 C 611.57381,628.30249 611.91563,627.83528 612.0533,627.35314 C 612.23084,626.73135 612.49047,626.44974 612.94645,626.38439 C 613.67515,626.27994 618.42555,623.36228 618.5463,622.945 C 618.58964,622.79522 618.69831,622.33832 618.78779,621.92964 C 618.96883,621.10274 620.11922,620.61645 620.64664,621.14388 C 620.81503,621.31226 621.28017,621.45003 621.68029,621.45003 C 622.77937,621.45003 623.13584,622.0358 622.72617,623.1687 C 622.25829,624.46263 622.49638,624.84587 624.01188,625.23818 C 624.73531,625.42545 625.48004,625.62402 625.66683,625.67944 C 625.85363,625.73486 626.00646,626.08176 626.00646,626.45031 C 626.00646,627.55559 626.4927,628.5143 627.05328,628.5143 C 627.33756,628.5143 627.72235,628.6977 627.90838,628.92185 C 628.09441,629.14601 628.56788,629.33128 628.96053,629.33357 C 629.93605,629.33925 630.27281,629.59925 630.90125,630.83189 C 631.58858,632.18007 631.58004,632.69694 630.85663,633.52893 C 629.91875,634.60759 628.60859,634.41171 627.03699,632.95785 C 625.98874,631.98815 625.56949,631.77473 624.71278,631.77473 C 622.91081,631.77473 620.4178,633.69184 619.7924,635.55846 C 619.62086,636.07042 619.18465,636.80403 618.82303,637.18868 C 618.4614,637.57332 617.82064,638.29119 617.39912,638.78392 C 616.76128,639.52951 616.35925,639.72 615.0025,639.91943 C 614.10588,640.05124 612.76095,640.34979 612.01377,640.5829 C 610.50052,641.05502 610.14991,641.09597 609.88544,640.83149 L 609.88544,640.83148 z"/>
<path title="Gaya" d="M 581.97709,647.54289 C 580.95847,647.00429 578.88541,644.30683 578.59216,643.13844 C 578.42682,642.47972 578.50211,642.42624 580.19256,642.00161 C 581.16819,641.75655 582.55601,641.55603 583.27659,641.55603 C 584.93085,641.55603 585.71907,641.01505 585.96013,639.71423 C 586.07152,639.11318 586.58305,638.20732 587.22152,637.48049 C 588.83104,635.64821 589.41636,634.3471 589.21043,633.05929 C 589.10442,632.39627 589.15958,631.84012 589.35469,631.60503 C 589.56903,631.34676 589.62859,630.35154 589.5399,628.50981 C 589.44012,626.43787 589.49589,625.7233 589.77545,625.49129 C 589.97689,625.32412 590.1417,624.97366 590.1417,624.7125 C 590.1417,624.07018 592.52206,623.35061 592.85655,623.89182 C 592.97839,624.08898 593.32304,624.18006 593.63674,624.09803 C 593.97773,624.00886 594.17561,624.07366 594.14003,624.26285 C 594.10768,624.43483 594.49543,624.61413 595.00486,624.66276 C 595.51277,624.71125 596.23371,624.95101 596.60696,625.19557 C 597.12664,625.53609 597.79975,625.62074 599.48091,625.55704 C 601.45304,625.48232 601.76702,625.39414 602.56935,624.68968 C 603.82319,623.58881 604.73514,623.18043 606.34527,622.99883 C 607.58628,622.85886 607.96284,622.95428 609.74155,623.85942 C 611.87861,624.9469 612.08765,625.27341 611.76112,627.01397 C 611.65472,627.58105 611.36421,627.99393 610.93351,628.19017 C 610.18715,628.53024 609.16089,630.33387 609.16089,631.30552 C 609.16089,631.66112 608.79921,632.29128 608.34579,632.72569 C 607.43915,633.59431 607.33698,634.13181 607.92959,634.91531 C 608.14899,635.20537 608.33239,636.02843 608.33715,636.74431 C 608.34264,637.57215 608.53372,638.31385 608.86213,638.78208 C 609.14612,639.18698 609.45036,640.01996 609.53823,640.63315 C 609.69324,641.715 609.66788,641.76106 608.68225,642.18689 C 608.12361,642.42826 607.20856,642.70422 606.64883,642.80015 C 605.76852,642.95103 605.5301,643.16308 604.88276,644.371 C 604.24952,645.55261 604.00051,645.78037 603.26403,645.85161 C 602.78533,645.89792 601.94365,645.81155 601.39363,645.65969 C 600.3281,645.36547 599.30025,645.69599 598.57936,646.56461 C 597.99043,647.27421 597.10907,647.08531 596.70031,646.16185 C 596.49868,645.70632 596.05949,645.0033 595.72435,644.59956 C 595.38922,644.19583 595.03683,643.54475 594.94128,643.15271 C 594.83334,642.7098 594.46369,642.31406 593.96498,642.10748 C 592.84161,641.64218 591.5779,642.10984 589.9124,643.60728 C 589.17819,644.26739 587.99906,645.05542 587.2921,645.35846 C 586.58515,645.66151 585.68386,646.25452 585.28926,646.67628 C 584.57384,647.44092 583.58365,648.08766 583.16322,648.06488 C 583.04132,648.05828 582.50756,647.82338 581.97708,647.54289 L 581.97709,647.54289 z"/>
<path title="Aurangabad" d="M 576.96412,641.42726 C 575.69316,640.64445 574.17683,640.55016 572.48103,641.14847 C 571.84571,641.37263 571.28013,641.55603 571.2242,641.55603 C 571.16827,641.55603 571.12251,641.15648 571.12251,640.66814 C 571.12251,640.16876 570.8253,639.34286 570.44326,638.78064 C 569.98682,638.10891 569.77455,637.44207 569.79615,636.74772 C 569.86105,634.66148 570.07209,634.34672 572.905,632.11093 C 576.00675,629.66296 576.82783,628.74643 576.82929,627.73047 C 576.831,626.53781 577.74069,625.42252 579.45876,624.5068 L 581.08238,623.64143 L 584.32145,623.89273 C 586.10294,624.03096 588.01903,624.22373 588.57941,624.32113 C 589.56962,624.49322 589.92084,625.02245 589.29963,625.40638 C 589.09405,625.53344 589.06013,626.41775 589.19082,628.24359 C 589.3537,630.51929 589.31333,630.99898 588.90676,631.61949 C 588.50909,632.22642 588.48755,632.44498 588.77288,632.97813 C 589.24953,633.86875 588.72036,635.21328 587.21666,636.93224 C 586.52635,637.72136 586.11189,638.42148 586.22588,638.60591 C 586.3462,638.8006 586.30384,638.85004 586.11611,638.73402 C 585.92756,638.61749 585.74658,638.83569 585.64388,639.30337 C 585.5523,639.72043 585.42958,640.21633 585.37117,640.40537 C 585.21527,640.90999 584.03412,641.28388 582.58427,641.28755 C 581.88418,641.28933 580.6389,641.47127 579.817,641.69188 C 577.96217,642.18974 578.24461,642.21593 576.96412,641.42726 L 576.96412,641.42726 z"/>
<path title="Rohtas" d="M 559.4393,641.33867 C 559.4393,640.45597 559.58594,639.61614 559.77268,639.4294 C 559.98654,639.21555 560.15702,637.79808 560.24816,635.47594 C 560.32632,633.4849 560.51759,631.68478 560.67322,631.47567 C 561.07742,630.93256 561.53355,629.4459 561.86676,627.5856 C 562.02515,626.70122 562.32222,625.78422 562.52689,625.54783 C 562.7496,625.2906 562.96554,624.12832 563.06468,622.65328 C 563.22586,620.25493 563.62346,618.86995 564.45672,617.80427 C 564.8055,617.35822 564.96572,617.32935 565.56841,617.60395 C 565.9557,617.78042 566.40458,617.84322 566.56591,617.74351 C 566.72993,617.64215 566.78153,617.68796 566.68296,617.84744 C 566.58601,618.0043 566.71762,618.2136 566.97543,618.31252 C 567.23323,618.41145 567.48725,618.36313 567.53991,618.20514 C 567.59257,618.04716 567.86052,617.91789 568.13535,617.91789 C 568.46582,617.91789 568.74167,617.59481 568.94988,616.96393 C 569.5509,615.14286 570.66134,614.65806 575.2431,614.21646 L 576.78252,614.06809 L 577.35917,615.37173 C 578.01016,616.84339 578.69026,617.70293 579.03509,617.48982 C 579.16285,617.41086 579.20333,617.51316 579.12505,617.71715 C 578.91841,618.25562 579.96404,619.10068 580.62355,618.92822 C 580.92754,618.84872 581.10891,618.89266 581.02659,619.02586 C 580.94426,619.15905 581.25024,619.49507 581.70653,619.77256 C 582.51548,620.26451 582.52325,620.28874 582.01859,620.74546 C 581.73394,621.00307 581.42116,621.63962 581.32353,622.16001 C 581.19665,622.83626 580.89835,623.25066 580.27774,623.61273 C 577.13562,625.44588 576.55657,626.05706 576.55657,627.54039 C 576.55657,628.44355 575.37429,629.74963 572.58567,631.92715 C 571.32749,632.90961 570.3633,633.81897 570.44302,633.94797 C 570.52275,634.07696 570.44482,634.27098 570.26986,634.37911 C 570.0523,634.51357 570.02444,634.45509 570.18173,634.19411 C 570.37761,633.86911 570.34353,633.86781 569.95201,634.1854 C 569.64671,634.43304 569.4923,634.9587 569.4923,635.75035 C 569.4923,636.62304 569.34145,637.06907 568.92923,637.41522 C 568.61955,637.67528 567.92683,638.48221 567.38986,639.20842 C 566.5689,640.31871 566.00461,640.7186 563.84343,641.72167 C 562.40836,642.38774 560.86834,642.91454 560.3563,642.91454 L 559.4393,642.91454 L 559.4393,641.33867 z"/>
<path title="Kaimur (Bhabua)" d="M 555.87594,642.53969 C 555.33573,642.34665 554.49731,641.90641 554.01277,641.56139 C 553.22767,641.00235 553.14884,640.82893 553.28855,639.96804 C 553.55466,638.32812 552.69024,635.76277 551.29775,634.06 C 548.2896,630.38155 548.29949,630.40563 548.29949,626.7536 C 548.29949,624.95989 548.45188,622.51318 548.63813,621.31644 C 548.94952,619.3157 549.06731,619.05199 550.10147,618.04021 C 550.72004,617.43502 552.00428,616.53304 552.95532,616.03579 C 553.90637,615.53856 555.2347,614.79042 555.90716,614.37327 C 556.57963,613.95613 557.84145,613.41032 558.71121,613.16036 C 560.19281,612.73455 560.3246,612.73484 560.79978,613.16488 C 561.07874,613.41733 561.43997,613.54168 561.60253,613.44122 C 561.76509,613.34076 561.86449,613.36408 561.82343,613.49304 C 561.78237,613.62201 562.34756,614.42954 563.07941,615.28755 L 564.41004,616.84757 L 563.68869,618.32076 C 563.13568,619.45016 562.92655,620.38349 562.79255,622.32013 C 562.66498,624.1638 562.48201,625.02138 562.11534,625.49428 C 561.839,625.85066 561.61292,626.39305 561.61292,626.69959 C 561.61292,627.56902 560.7658,630.78085 560.42489,631.20397 C 560.25044,631.42049 560.05738,633.14272 559.97646,635.20424 C 559.88532,637.52637 559.71484,638.94384 559.50098,639.1577 C 559.30816,639.35052 559.16759,640.21279 559.16759,641.20281 L 559.16759,642.91454 L 558.01286,642.90262 C 557.37775,642.89606 556.41614,642.73274 555.87594,642.53969 L 555.87594,642.53969 z"/>
<path title="Buxar" d="M 565.99478,617.35877 C 564.76253,616.60542 561.61467,613.27372 561.6137,612.7218 C 561.61239,611.97989 565.59232,606.8953 566.97192,605.87637 C 567.68567,605.34922 568.75295,604.41945 569.34366,603.81023 C 569.93438,603.20099 570.55869,602.70254 570.73103,602.70254 C 570.90337,602.70254 571.61952,602.26338 572.32248,601.72663 L 573.60059,600.75072 L 576.27918,600.8436 C 577.75239,600.89468 579.02669,601.00567 579.11095,601.09024 C 579.26462,601.24447 578.8626,602.69851 578.42207,603.58189 C 578.29266,603.84138 578.18678,604.27103 578.18678,604.53668 C 578.18678,604.80233 577.94225,605.6887 577.64338,606.50638 C 577.34451,607.32406 577.09458,608.66726 577.08798,609.49127 C 577.08139,610.31529 576.91535,611.6008 576.719,612.34799 L 576.36201,613.7065 L 573.64684,613.9782 C 571.34217,614.20883 570.78512,614.36241 569.96234,614.99409 C 569.42834,615.40406 568.85162,616.1667 568.67818,616.69223 C 568.50502,617.21691 568.19943,617.64619 567.99908,617.64619 C 567.79874,617.64619 567.47199,617.70756 567.27297,617.78258 C 567.07395,617.85759 566.49877,617.66687 565.99478,617.35876 L 565.99478,617.35877 z"/>
<path title="Bhojpur" d="M 581.78685,619.47022 C 581.45061,619.31795 581.17551,619.0995 581.17551,618.98477 C 581.17551,618.87004 580.83928,618.69816 580.42833,618.60282 C 579.28071,618.33654 576.98601,614.57054 577.04386,613.04832 C 577.12958,610.79281 577.6121,607.56285 578.02112,606.50638 C 578.28147,605.83391 578.5584,605.03918 578.6365,604.74031 C 578.71461,604.44144 578.84805,604.01351 578.93305,603.78935 C 579.01805,603.5652 579.0634,603.2309 579.03382,603.04646 C 579.00425,602.86203 579.14969,602.38735 579.35702,601.99162 C 579.71339,601.31147 579.85144,601.27013 581.8812,601.23572 C 584.36496,601.19362 586.06616,600.59268 586.06616,599.7574 C 586.06616,599.35563 586.2955,599.20308 587.02807,599.11756 C 587.62885,599.04742 588.10515,599.14403 588.29674,599.37488 C 588.52002,599.64392 589.26089,599.73004 591.01939,599.69139 C 592.53286,599.65813 593.55089,599.75389 593.74476,599.94775 C 593.91496,600.11796 593.94732,600.25722 593.81667,600.25722 C 593.68601,600.25722 593.86291,600.5593 594.20976,600.92851 C 594.66583,601.41398 594.76307,601.69602 594.56102,601.94739 C 594.2853,602.29044 593.9435,603.91127 593.90507,605.05795 C 593.89421,605.38209 593.5015,605.99342 593.0324,606.41647 L 592.17947,607.18563 L 592.92666,606.35566 C 593.9404,605.22958 593.87599,604.85292 592.8392,605.84421 C 592.18083,606.47369 592.03594,606.80003 592.15315,607.38941 C 592.23488,607.80036 592.19351,608.13659 592.06122,608.13659 C 591.92894,608.13659 591.7392,609.20642 591.63959,610.51399 C 591.37346,614.00736 590.90416,614.98658 588.85375,616.32672 C 587.91836,616.93808 587.23678,617.56198 587.33344,617.71837 C 587.4298,617.87429 587.39503,617.93164 587.25617,617.84582 C 586.86899,617.60653 585.1076,618.06174 585.17247,618.38431 C 585.20398,618.54092 585.02058,618.65289 584.76492,618.63311 C 584.50927,618.61333 584.32587,618.7356 584.35737,618.90481 C 584.38887,619.07403 584.20547,619.19629 583.94981,619.17651 C 583.69417,619.15674 583.50531,619.26282 583.53016,619.41226 C 583.59097,619.7781 582.54359,619.81291 581.78685,619.47021 L 581.78685,619.47022 z"/>
<path title="Saran" d="M 602.77588,600.48939 C 601.72982,600.03517 600.67962,599.56381 600.4421,599.44191 C 600.20457,599.32001 599.83777,599.32945 599.62699,599.46288 C 599.41621,599.59632 598.92248,599.70736 598.52983,599.70965 C 598.13718,599.71194 597.67672,599.88153 597.5066,600.08652 C 597.33647,600.2915 596.62351,600.5239 595.92223,600.60294 C 594.80357,600.72903 594.52992,600.65 593.69105,599.95853 C 592.81886,599.23959 592.55095,599.1704 590.63924,599.1704 C 589.44312,599.1704 588.46639,599.04555 588.36379,598.87953 C 588.25433,598.70241 587.77833,598.6572 587.14664,598.76392 C 586.21065,598.92206 586.10052,598.87835 586.01979,598.31669 C 585.92013,597.62334 585.71382,597.49898 581.85477,595.80614 C 579.5198,594.78186 579.13774,594.52429 579.13774,593.97443 C 579.13774,593.43034 579.48172,593.18747 581.43623,592.3515 C 583.1669,591.61128 583.99153,591.07358 584.77428,590.17498 C 585.97734,588.79386 587.74493,585.74362 588.92768,583.00768 C 590.3359,579.7502 590.92154,578.7927 591.50574,578.7927 C 591.80158,578.7927 592.04362,578.96127 592.04362,579.16729 C 592.04362,579.37331 592.39834,579.68881 592.83189,579.8684 C 593.26543,580.04798 593.89455,580.48697 594.2299,580.84395 C 594.56526,581.20091 594.96303,581.41672 595.11383,581.32352 C 595.26888,581.2277 595.30441,581.28935 595.19559,581.46542 C 595.08975,581.63667 595.44338,582.56397 595.98142,583.52608 C 597.26459,585.82059 598.29115,588.47012 598.29935,589.50855 C 598.30533,590.26711 598.47816,590.42593 600.26919,591.3187 C 601.88972,592.12649 602.32756,592.49037 602.77712,593.403 C 603.35812,594.58246 603.93527,595.29792 603.63739,594.46942 C 603.52611,594.15992 603.56698,594.0451 603.74848,594.15727 C 603.90638,594.25487 603.96869,594.50905 603.88693,594.72212 C 603.80516,594.93519 604.14757,595.68699 604.64781,596.39278 C 605.98784,598.28339 606.2854,601.36707 605.12421,601.32963 C 604.87869,601.32172 603.82194,600.94361 602.77588,600.48939 z"/>
<path title="Siwan" d="M 577.77923,592.37282 C 577.33092,592.09596 576.04713,591.61733 574.92635,591.30921 C 572.28485,590.58301 570.89083,589.59868 570.07381,587.88277 C 569.50064,586.67901 569.46893,586.43539 569.7748,585.58527 C 569.96298,585.06224 570.37377,584.45433 570.68766,584.23436 C 571.00155,584.01439 571.77232,583.36215 572.40049,582.78494 L 573.54261,581.73548 L 575.2879,581.92238 C 576.45691,582.04757 577.09438,582.0103 577.21847,581.80951 C 577.32037,581.64463 577.75611,581.50973 578.18678,581.50973 C 578.61746,581.50973 579.0276,581.41624 579.09822,581.30198 C 579.19327,581.14818 585.36649,581.10475 589.11071,581.23153 C 589.43186,581.24241 587.75686,584.92328 586.35288,587.29197 C 584.66713,590.13605 583.8578,590.88842 581.2769,592.01069 C 578.88747,593.04971 578.87701,593.0508 577.77923,592.37282 L 577.77923,592.37282 z"/>
<path title="Gopalganj" d="M 575.33391,581.60348 C 575.03503,581.54028 574.5154,581.42987 574.17917,581.35812 C 573.84294,581.28637 573.56784,581.06495 573.56784,580.86606 C 573.56784,580.66718 573.22179,580.02761 572.79884,579.4448 C 572.13465,578.52957 571.7088,578.28102 569.67426,577.62111 L 567.31868,576.85708 L 567.31868,575.84419 C 567.31868,574.84663 567.36375,574.80387 570.30048,573.01602 L 573.28228,571.20073 L 576.72565,570.92112 C 578.6195,570.76733 580.31863,570.51733 580.5015,570.36556 C 580.73523,570.17159 581.34882,570.32638 582.56705,570.88665 C 583.95005,571.5227 584.74682,572.17134 586.51177,574.09803 C 588.1591,575.89632 589.00838,576.60642 589.84012,576.88092 C 590.45431,577.08362 590.95681,577.41058 590.95681,577.60751 C 590.95681,577.80443 590.62974,578.63243 590.23,579.4475 L 589.50318,580.92945 L 584.25346,580.83649 C 581.28078,580.78386 578.93745,580.85078 578.85092,580.99078 C 578.76689,581.12676 578.34575,581.23803 577.91508,581.23803 C 577.48441,581.23803 577.05648,581.36029 576.96412,581.50973 C 576.79404,581.78493 576.32068,581.81215 575.33391,581.60348 z"/>
<path title="Muzaffarpur" d="M 615.56271,594.91769 C 615.09755,594.66297 613.70315,594.40026 612.22145,594.2882 C 609.70184,594.09763 609.66791,594.08549 608.52638,592.96515 C 607.51304,591.97064 607.22822,591.83632 606.16188,591.85009 C 605.49507,591.85871 604.46044,591.95283 603.86269,592.05925 C 602.91517,592.22796 602.52341,592.11568 600.80604,591.18324 C 599.5426,590.49726 598.83619,589.94668 598.83619,589.64791 C 598.83619,588.92038 597.53789,585.62616 596.50854,583.74192 C 595.99551,582.8028 595.57576,581.94247 595.57576,581.83007 C 595.57576,581.71768 596.20704,581.15443 596.9786,580.5784 L 598.38146,579.53108 L 601.2841,579.68421 C 603.01707,579.77563 604.61288,580.01538 605.24423,580.27918 C 605.82585,580.52219 606.57822,580.65161 606.91619,580.56679 C 607.3997,580.44543 607.53068,580.52745 607.53068,580.95159 C 607.53068,581.53523 608.45835,582.18356 608.90154,581.90965 C 609.0516,581.81691 609.14076,581.89419 609.0997,582.08137 C 609.05384,582.29044 609.48302,582.5045 610.21246,582.63638 C 611.30703,582.83428 611.48761,582.77979 612.52193,581.93953 C 614.40604,580.40892 615.47197,579.88161 616.68412,579.88053 C 618.78182,579.87865 621.32791,582.74454 621.37274,585.15807 C 621.38087,585.59557 621.18396,586.82849 620.93516,587.89789 C 620.59816,589.34641 620.33834,589.90571 619.91628,590.09115 C 619.51171,590.2689 619.29879,590.68962 619.17152,591.56273 C 619.07349,592.23519 618.86704,593.26771 618.71272,593.8572 C 618.5584,594.4467 618.47908,595.00497 618.53645,595.09779 C 618.76872,595.47361 616.30546,595.32443 615.56271,594.91769 L 615.56271,594.91769 z"/>
<path title="Sheohar" d="M 608.80266,581.75339 L 607.76518,581.20595 L 607.84551,578.84459 C 607.88971,577.54584 607.82291,575.61467 607.69708,574.5531 L 607.46829,572.62297 L 608.65422,572.43147 C 609.68921,572.26436 609.89202,572.31598 610.2477,572.83706 C 610.47186,573.16545 611.0064,573.7858 611.43558,574.21562 C 612.06259,574.84355 612.18426,575.15531 612.05486,575.80233 C 611.96629,576.24521 612.02901,577.28077 612.19425,578.10357 C 612.40362,579.1461 612.40858,579.70378 612.21062,579.94332 C 612.05438,580.13238 611.84087,580.74556 611.73615,581.30595 C 611.56343,582.23017 611.46651,582.32372 610.69295,582.31283 C 610.2239,582.30622 609.37328,582.05448 608.80266,581.75339 L 608.80266,581.75339 z"/>
<path title="Dharbanga" d="M 639.64934,600.40422 C 638.75624,599.91117 637.7242,598.8921 637.54447,598.32581 C 637.32328,597.62892 635.73587,596.72508 634.73312,596.72508 C 633.91186,596.72508 633.67442,596.64882 632.32724,595.95239 C 631.99304,595.77963 631.33817,595.63827 630.87198,595.63827 C 630.30021,595.63827 629.85695,595.42544 629.50994,594.9843 C 629.22702,594.62461 627.7785,593.70518 626.29102,592.94111 C 624.80355,592.17705 623.51246,591.43207 623.42194,591.28561 C 623.33143,591.13916 622.91673,591.01932 622.5004,591.01932 C 622.08408,591.01932 621.55366,590.80536 621.32171,590.54384 C 620.8733,590.03826 620.95876,588.94701 621.64623,586.40038 C 621.93199,585.34179 621.9072,584.98084 621.46147,583.71065 C 620.95121,582.25655 620.95161,582.23076 621.50672,580.79448 C 621.95196,579.64246 622.1921,579.34444 622.6781,579.34075 C 623.04244,579.33798 623.28943,579.50077 623.28943,579.74366 C 623.28943,579.96782 623.4117,580.15121 623.56114,580.15121 C 623.71057,580.15121 623.83284,580.46295 623.83284,580.84396 C 623.83284,581.22498 624.01938,581.89744 624.24737,582.33833 C 624.64572,583.10867 624.73515,583.13994 626.53914,583.13994 L 628.41638,583.13994 L 629.85884,584.63431 C 631.50909,586.34394 632.36894,586.53888 633.61921,585.48684 C 634.31912,584.8979 634.51268,584.86462 635.9679,585.08286 C 637.25947,585.27655 637.69251,585.48202 638.30101,586.1899 C 638.71196,586.66797 639.04819,587.19257 639.04819,587.3557 C 639.04819,587.51883 639.48655,588.07364 640.02233,588.58862 C 641.28026,589.79773 641.7629,590.74403 641.77485,592.02472 C 641.78014,592.59252 641.95921,593.36276 642.17277,593.73635 C 642.39025,594.11679 642.56531,595.15487 642.5707,596.09606 C 642.576,597.02031 642.70222,598.09713 642.85121,598.48899 C 643.00018,598.88085 643.01957,599.1381 642.89426,599.06065 C 642.76895,598.98321 642.25628,599.34302 641.75497,599.86023 C 640.76893,600.87758 640.59033,600.92372 639.64934,600.40422 L 639.64934,600.40422 z"/>
<path title="Saharsa" d="M 650.88418,602.15561 C 649.25932,601.46264 648.70714,601.36053 646.88336,601.41578 C 644.7809,601.47947 644.76133,601.47367 643.78146,600.49606 C 642.96448,599.68097 642.84357,599.42218 643.07645,598.98706 C 643.25038,598.66204 643.26277,598.31211 643.10894,598.06895 C 642.97221,597.85285 642.85848,596.79683 642.85619,595.72223 C 642.8539,594.64764 642.72976,593.69286 642.58033,593.6005 C 642.43089,593.50814 642.30862,592.95648 642.30862,592.37459 C 642.30862,591.79269 642.16873,591.00956 641.99775,590.6343 C 641.71957,590.02377 641.77975,589.86526 642.56989,589.12715 C 643.55696,588.20508 643.98569,588.11153 644.48225,588.70985 C 644.66828,588.934 645.23063,589.1174 645.73191,589.1174 C 646.40429,589.1174 646.76008,589.29556 647.08841,589.79666 C 647.33319,590.17025 647.69485,590.47592 647.89209,590.47592 C 648.08933,590.47592 648.55959,590.59335 648.93711,590.73689 C 649.59105,590.98552 649.60482,591.03369 649.22817,591.75577 C 649.01074,592.17263 648.83208,592.76678 648.83116,593.07611 C 648.82873,593.89522 650.64402,595.90997 651.38448,595.90997 C 651.72037,595.90997 652.28236,596.21564 652.63333,596.58923 C 653.16207,597.15205 653.52439,597.26849 654.747,597.26849 L 656.22254,597.26849 L 656.0806,598.28737 C 655.79338,600.34939 655.17904,601.97415 654.60651,602.18594 C 654.29902,602.29969 653.96659,602.52359 653.86776,602.6835 C 653.58559,603.14004 652.91366,603.02116 650.88417,602.15561 L 650.88418,602.15561 z M 650.32385,594.82316 C 649.89435,594.37485 649.60407,594.00805 649.67878,594.00805 C 649.75351,594.00805 650.16605,594.37485 650.59556,594.82316 C 651.02506,595.27147 651.31535,595.63827 651.24063,595.63827 C 651.1659,595.63827 650.75336,595.27147 650.32385,594.82316 z"/>
<path title="Madhopura" d="M 656.09754,608.39681 C 655.83602,608.23884 655.62206,607.90958 655.62206,607.66512 C 655.62206,607.42067 655.34778,606.92871 655.01256,606.57188 C 654.51742,606.04482 654.40273,605.60825 654.40123,604.2449 C 654.39955,602.71074 654.45187,602.55924 655.01073,602.47987 C 655.46916,602.41476 655.62355,602.21089 655.62802,601.66476 C 655.6313,601.2642 655.87584,600.40349 656.17143,599.75207 C 657.19411,597.49826 656.80776,596.72508 654.65887,596.72508 C 653.60601,596.72508 653.13956,596.59095 652.76918,596.18167 C 652.4987,595.8828 652.05636,595.63827 651.7862,595.63827 C 651.51603,595.63827 650.80444,595.12775 650.20488,594.50379 C 649.01138,593.26171 648.96209,592.60741 649.96456,591.31363 C 650.58093,590.51815 653.42262,588.59238 653.99587,588.58168 C 654.22223,588.57746 654.88331,588.31895 655.46493,588.00722 C 656.42199,587.49427 656.64095,587.47299 657.77038,587.78316 C 658.45677,587.97166 659.49096,588.36868 660.0686,588.66543 C 660.67653,588.97774 661.70642,589.21677 662.51393,589.23296 C 663.72751,589.25731 663.91997,589.33759 663.9934,589.85005 C 664.04624,590.21873 663.87741,590.54641 663.54221,590.7258 C 662.51314,591.27654 661.90363,592.66292 662.06638,594.08264 C 662.1745,595.02572 662.10205,595.50787 661.80103,595.8487 C 661.21446,596.51284 661.02299,598.22053 661.32196,600.12136 C 661.79389,603.12177 661.92094,603.6476 662.44392,604.76448 C 662.73004,605.37552 662.99333,606.35365 663.02901,606.9381 L 663.09388,608.00074 L 660.51271,608.17154 C 659.09306,608.26549 657.62587,608.41923 657.25227,608.51319 C 656.87868,608.60715 656.35905,608.55478 656.09754,608.39681 L 656.09754,608.39681 z"/>
<path title="Munger" d="M 643.80324,626.82445 C 643.50449,626.65129 642.67919,625.91326 641.96924,625.18437 L 640.67841,623.85913 L 640.66877,621.36399 C 640.66242,619.7149 640.52749,618.63853 640.27085,618.18959 C 639.643,617.09128 639.78431,616.67753 640.96985,616.14292 C 642.17316,615.60031 642.96664,614.74395 643.5421,613.36687 C 643.74507,612.8812 644.03962,612.48384 644.19668,612.48384 C 644.35374,612.48384 644.48225,611.99617 644.48225,611.40013 C 644.48225,609.83668 645.11021,609.2234 646.71108,609.2234 C 647.85009,609.2234 648.02356,609.30122 648.16807,609.87699 C 648.2583,610.23646 648.54508,610.58627 648.80539,610.65434 C 649.5288,610.84352 650.45971,612.87149 650.45971,614.25827 C 650.45971,615.0265 650.58447,615.48777 650.79933,615.51395 C 650.98613,615.53671 651.32236,615.57299 651.54652,615.59457 C 651.77067,615.61615 651.90525,615.81149 651.84559,616.02866 C 651.5069,617.26148 651.53421,618.02243 651.94849,618.89546 C 652.48452,620.02505 652.33458,621.39264 651.55265,622.50597 C 651.27834,622.89653 650.97692,623.66862 650.88283,624.22171 L 650.71176,625.22733 L 649.1593,625.30852 C 647.62575,625.38873 647.60579,625.40048 647.52169,626.27275 L 647.43655,627.15578 L 645.89147,627.14752 C 645.04168,627.14298 644.10197,626.99759 643.80323,626.82444 L 643.80324,626.82445 z"/>
<path title="Khagaria" d="M 652.21894,615.18981 C 652.12283,615.0343 651.80995,614.9814 651.52365,615.07227 C 651.0768,615.2141 651.00311,615.09957 651.00311,614.26321 C 651.00311,613.14533 649.81678,610.69318 649.08699,610.30262 C 648.81617,610.15768 648.51694,609.79443 648.42203,609.4954 C 648.27725,609.03928 648.0111,608.9517 646.76972,608.9517 C 645.95586,608.9517 645.06916,609.08961 644.79927,609.25816 C 644.39449,609.51095 644.05014,609.38348 642.83311,608.53042 C 640.15072,606.65021 639.31989,605.54823 639.31989,603.87057 C 639.31989,603.19669 641.85282,599.98551 642.38437,599.98551 C 642.53064,599.98551 643.14092,600.42874 643.74054,600.97047 L 644.83078,601.95542 L 646.7622,601.78126 C 648.51402,601.6233 648.87051,601.68262 650.59556,602.41917 C 651.64161,602.86581 652.77258,603.23455 653.10881,603.2386 C 653.59946,603.24449 653.72014,603.4003 653.72014,604.02787 C 653.72014,604.98289 654.35283,606.56015 654.9271,607.03675 C 655.1599,607.22995 655.35035,607.61328 655.35035,607.8886 C 655.35035,608.16392 655.59135,608.51815 655.8859,608.67579 C 656.31444,608.90514 656.38715,609.13776 656.24982,609.84009 C 656.15543,610.32281 655.92644,610.9623 655.74095,611.26118 C 655.55547,611.56005 655.32566,612.18004 655.23028,612.63893 C 654.8748,614.34925 652.79059,616.11476 652.21894,615.18981 L 652.21894,615.18981 z"/>
<path title="Lakhisarai" d="M 636.64812,625.54655 C 635.75072,625.08717 634.2891,625.09289 634.00233,625.55689 C 633.76193,625.94589 631.51489,625.83263 630.06513,625.35844 C 628.98205,625.00419 628.72349,624.80115 628.72349,624.3049 C 628.72349,623.96681 628.90689,623.53798 629.13104,623.35195 C 630.01573,622.61772 629.16995,619.71503 627.56824,617.9885 C 627.08445,617.46701 627.04942,617.2793 627.32359,616.67756 C 627.49959,616.29129 627.5786,615.87012 627.49919,615.74162 C 627.34578,615.4934 628.99818,614.11405 629.44896,614.11405 C 629.59559,614.11405 630.00273,614.41972 630.35371,614.79331 C 630.70468,615.1669 631.28336,615.47257 631.63966,615.47257 C 631.99596,615.47257 632.73882,615.82917 633.29044,616.26501 C 634.72236,617.3964 636.08618,617.70852 637.4678,617.22106 C 639.08428,616.65073 639.23971,616.7073 639.85059,618.08828 C 640.2767,619.05157 640.40671,619.91746 640.40671,621.79211 L 640.40671,624.23874 L 639.43639,625.15385 C 638.35955,626.16945 637.97172,626.22407 636.64813,625.54654 L 636.64812,625.54655 z"/>
<path title="Sheikhpura" d="M 623.92027,624.89357 C 622.71063,624.44677 622.65109,624.33234 623.05173,623.22439 C 623.50085,621.98235 623.16289,621.36539 621.93092,621.17832 C 620.71378,620.99351 620.29865,620.30095 620.96419,619.56554 C 621.76576,618.6798 623.15591,618.41032 624.11024,618.95567 C 624.76567,619.33021 624.99562,619.35087 625.38993,619.07066 C 627.13096,617.83338 627.53605,617.97961 628.60045,620.22955 C 629.36741,621.85077 629.43563,622.60197 628.85934,623.08024 C 628.63519,623.26628 628.45179,623.70918 628.45179,624.06447 C 628.45179,624.59822 628.31295,624.71046 627.65271,624.71046 C 627.21322,624.71046 626.77808,624.83273 626.68572,624.98216 C 626.46435,625.34034 625.00309,625.29352 623.92027,624.89357 L 623.92027,624.89357 z"/>
<path title="Nalanda" d="M 612.09974,625.33691 C 612.02835,624.72901 611.66906,624.42952 609.981,623.57085 C 608.56839,622.8523 607.59442,622.53684 606.78849,622.53684 L 605.62876,622.53684 L 605.62876,620.82511 C 605.62876,619.88366 605.75527,618.98688 605.90989,618.83225 C 606.0645,618.67763 606.21734,617.49185 606.24952,616.19718 C 606.29683,614.29284 606.38729,613.84315 606.72304,613.84279 C 606.95131,613.84255 607.39596,613.66171 607.71116,613.44093 C 608.02636,613.22016 609.39755,612.9134 610.75823,612.75927 C 612.11892,612.60513 613.81391,612.36614 614.5249,612.2282 C 616.88574,611.77014 617.32352,611.7393 617.49629,612.01885 C 617.60249,612.19069 617.52257,612.21334 617.28603,612.0784 C 616.99196,611.91064 616.97606,611.93838 617.21675,612.19932 C 617.38853,612.38555 617.8353,612.55632 618.20956,612.57881 C 618.58382,612.60129 618.82328,612.72782 618.74167,612.85997 C 618.66007,612.99213 618.97101,613.04481 619.43265,612.97706 C 619.9448,612.9019 620.20726,612.95862 620.10593,613.12258 C 620.00724,613.28225 620.12904,613.3187 620.4061,613.21238 C 620.7203,613.0918 620.8089,613.13611 620.6778,613.34823 C 620.5467,613.56035 620.6353,613.60465 620.9495,613.48408 C 621.26371,613.36351 621.3523,613.40781 621.2212,613.61993 C 621.09011,613.83205 621.17871,613.87635 621.49291,613.75578 C 621.74934,613.65738 621.8909,613.6873 621.80749,613.82226 C 621.59477,614.16644 623.48128,615.28229 623.86987,615.04213 C 624.06051,614.9243 624.11607,614.9624 624.00817,615.13699 C 623.7522,615.55115 625.52331,616.0794 626.41635,615.85525 C 627.13216,615.6756 627.14733,615.69607 626.96137,616.5904 C 626.85615,617.09636 626.41513,617.87452 625.98131,618.31963 L 625.19255,619.12891 L 624.26895,618.63153 C 623.63279,618.28893 623.08694,618.19089 622.51504,618.3165 C 621.53563,618.53162 620.3007,619.43838 620.3007,619.94242 C 620.3007,620.1376 619.93472,620.44889 619.48739,620.63417 C 618.89165,620.88095 618.60061,621.24392 618.39942,621.99108 C 618.16088,622.87697 617.80761,623.21215 615.71295,624.54003 C 612.97522,626.27559 612.2293,626.4401 612.09974,625.33692 L 612.09974,625.33691 z"/>
<path title="Jehanabad" d="M 587.96808,623.92179 C 587.74393,623.79599 586.23857,623.62909 584.62285,623.55091 C 583.00712,623.47272 581.61517,623.33876 581.52962,623.25321 C 581.29483,623.01843 582.00487,621.41789 582.7428,620.51851 C 583.51706,619.57489 585.61962,618.18988 586.27938,618.1889 C 586.5357,618.18852 587.66242,617.57751 588.78319,616.83108 C 590.83665,615.4635 591.44307,615.2524 591.92728,615.73661 C 592.0725,615.88184 593.05084,616.08054 594.10136,616.17817 L 596.01139,616.35569 L 596.29095,617.56062 C 596.62813,619.01389 596.09007,621.61624 595.31404,622.28553 C 594.96814,622.58385 594.86165,622.94267 594.96246,623.47007 C 595.10296,624.20508 595.08085,624.22098 594.18669,624.02796 C 593.68047,623.91868 593.22553,623.72187 593.17572,623.5906 C 593.04539,623.24719 592.28857,623.29505 590.50543,623.7595 C 588.72045,624.22443 588.52911,624.23667 587.96808,623.92179 L 587.96808,623.92179 z"/>
<path title="Arwal" d="M 596.32294,624.66354 C 595.22889,624.07322 595.00289,623.32307 595.68867,622.55823 C 596.28588,621.89217 596.92586,619.00498 596.75413,617.7515 C 596.55483,616.29677 597.23585,615.12982 598.1502,615.3593 C 598.48735,615.44392 599.27803,615.37454 599.90725,615.20511 C 600.7766,614.97101 601.1446,614.97449 601.43991,615.21957 C 601.88531,615.58922 604.44687,615.34631 605.00718,614.8813 C 605.1958,614.72475 605.53368,614.6671 605.758,614.75318 C 606.08671,614.87932 606.13333,615.24111 605.99818,616.61757 C 605.90595,617.5569 605.72397,618.4416 605.59377,618.58356 C 605.46358,618.72553 605.35706,619.66995 605.35706,620.68228 C 605.35706,622.48645 605.33958,622.53169 604.47402,622.96783 C 603.98835,623.21256 603.22419,623.75054 602.77588,624.16336 C 602.05784,624.82456 601.68575,624.93176 599.6513,625.06362 C 597.66871,625.19211 597.19761,625.13549 596.32294,624.66354 L 596.32294,624.66354 z"/>
<path title="Patna" d="M 593.23189,615.82192 C 592.01193,615.66814 591.12561,614.65513 591.47382,613.81255 C 591.62144,613.45535 591.82101,612.09326 591.91731,610.7857 C 592.01361,609.47813 592.20369,608.4083 592.33972,608.4083 C 592.47574,608.4083 592.58703,607.99344 592.58703,607.48641 C 592.58703,606.93032 592.74387,606.50433 592.98231,606.41283 C 593.52042,606.20634 594.4844,604.2562 594.50881,603.3247 C 594.54326,602.0092 595.3588,600.94785 596.41096,600.84917 C 596.92293,600.80116 597.45798,600.64833 597.59994,600.50955 C 597.74191,600.37076 598.17595,600.25722 598.56449,600.25722 C 598.95302,600.25722 599.41516,600.11297 599.59147,599.93666 C 599.82657,599.70156 600.07646,599.69409 600.52884,599.90862 C 600.86809,600.0695 601.81813,600.47049 602.64003,600.79969 C 603.46193,601.1289 604.57003,601.81647 605.10247,602.32763 C 605.63491,602.83878 606.161,603.16654 606.27157,603.05598 C 606.38213,602.94542 606.40498,603.03463 606.32234,603.25423 C 606.11013,603.8182 608.73722,606.62283 609.28192,606.41381 C 609.52675,606.31986 609.67118,606.38989 609.63311,606.58408 C 609.59755,606.7655 609.7811,606.89717 610.041,606.87668 C 610.3009,606.85619 610.44975,606.94269 610.37175,607.06889 C 610.16263,607.40725 611.72482,608.13659 612.65869,608.13659 C 613.1239,608.13659 613.80878,607.84853 614.27369,607.45734 C 615.28449,606.60681 615.53859,606.6093 616.57323,607.4799 C 617.19901,608.00646 617.58198,608.13732 618.10682,608.00392 C 618.49156,607.90613 619.23427,607.76418 619.7573,607.68847 C 620.28033,607.61276 621.10564,607.37121 621.59133,607.15169 C 622.26754,606.84605 622.70707,606.8168 623.46775,607.02684 C 624.0141,607.17769 624.5673,607.23548 624.69711,607.15525 C 624.82692,607.07503 624.89952,607.16725 624.85846,607.36019 C 624.8174,607.55313 625.1506,607.90697 625.59891,608.1465 C 626.04722,608.38603 626.95803,609.09686 627.62293,609.7261 C 628.28783,610.35535 628.99721,610.80672 629.19933,610.72916 C 629.40145,610.6516 629.49329,610.70712 629.40341,610.85255 C 629.31353,610.99797 629.61612,611.34569 630.07582,611.62525 C 630.80354,612.0678 630.85799,612.17807 630.49682,612.47781 C 629.91696,612.95905 629.97476,613.44959 630.55748,612.99258 C 630.98648,612.65614 630.99722,612.66532 630.66727,613.08648 C 630.46614,613.34322 630.22161,613.53777 630.12387,613.51883 C 629.82262,613.46043 628.89306,613.90894 628.18008,614.45669 C 627.80649,614.7437 627.08956,615.15039 626.58689,615.36044 C 625.77084,615.70146 625.55261,615.68872 624.54912,615.24145 C 623.93101,614.96594 622.82293,614.35653 622.08673,613.8872 C 621.35052,613.41786 620.31126,612.95194 619.77725,612.8518 C 619.24325,612.75167 618.40526,612.44452 617.91504,612.16924 C 616.92776,611.61484 615.47476,611.53258 613.71581,611.93151 C 613.07857,612.07604 611.48667,612.33334 610.17828,612.50328 C 608.86989,612.67322 607.73171,612.92177 607.649,613.05561 C 607.56628,613.18944 607.1619,613.29895 606.75037,613.29895 C 606.27939,613.29895 605.72239,613.59093 605.24719,614.08693 C 604.35229,615.02101 602.46011,615.43247 601.58184,614.88398 C 601.13821,614.60693 600.78106,614.60594 599.76044,614.87891 C 598.64469,615.17733 598.4293,615.16274 597.98261,614.75849 C 597.41608,614.24579 597.4397,614.23359 596.99511,615.26879 C 596.70454,615.94535 596.55168,616.01186 595.37781,615.97249 C 594.66479,615.94857 593.69912,615.88082 593.2319,615.82193 L 593.23189,615.82192 z"/>
<path title="Vaishali" d="M 609.63828,606.41383 C 608.78007,605.79227 607.62543,604.7131 607.0724,604.01568 C 606.07843,602.76218 606.06674,602.71849 606.05161,600.20295 C 606.03659,597.70589 606.01724,597.63172 605.01743,596.24008 C 604.45704,595.46008 603.99854,594.75232 603.99854,594.66727 C 603.99854,594.58222 603.80864,594.32274 603.57653,594.09063 C 603.34442,593.85853 603.19159,593.40876 603.2369,593.09115 C 603.30801,592.59272 603.57519,592.48289 605.18924,592.28864 L 607.05921,592.06359 L 608.22922,593.21187 C 609.37561,594.33697 609.44755,594.36416 611.79331,594.559 C 613.11005,594.66837 614.66083,594.95594 615.23946,595.19806 C 615.81809,595.44017 616.64339,595.63827 617.07345,595.63827 L 617.85538,595.63827 L 617.85538,597.80225 C 617.85538,599.59465 617.74078,600.1715 617.188,601.16162 C 616.82095,601.81908 616.3966,603.13779 616.245,604.09207 C 616.06999,605.19379 615.80443,605.9263 615.51747,606.09882 C 615.26892,606.24826 614.72805,606.64563 614.31555,606.98186 C 613.09274,607.97857 611.53808,607.78977 609.63828,606.41383 L 609.63828,606.41383 z"/>
<path title="Samastipur" d="M 616.64988,607.06876 C 616.20407,606.57613 616.17933,606.37227 616.45408,605.45523 C 616.62705,604.87791 616.76857,604.01534 616.76857,603.53841 C 616.76857,603.06148 617.07424,602.12376 617.44783,601.4546 C 618.01555,600.43771 618.12708,599.87835 618.12708,598.04797 C 618.12708,596.34918 618.2408,595.69625 618.6341,595.13681 C 619.12468,594.439 619.35245,593.63462 619.66537,591.4948 C 619.83637,590.32555 620.2717,590.19994 621.31338,591.01932 C 621.69334,591.3182 622.21477,591.56273 622.47214,591.56273 C 623.28188,591.56273 627.83511,593.94327 628.9474,594.94816 C 629.669,595.60008 630.2752,595.90997 630.82885,595.90997 C 631.2781,595.90997 631.79789,596.09337 631.98392,596.31753 C 632.16995,596.54168 632.60564,596.72508 632.95212,596.72508 C 633.29859,596.72508 633.65763,596.84735 633.74999,596.99678 C 633.84235,597.14622 634.38191,597.26849 634.94901,597.26849 C 636.08856,597.26849 636.82967,597.82009 637.96138,599.51058 C 638.33497,600.06862 638.83963,600.52604 639.08285,600.52706 C 639.66971,600.52953 640.23414,601.23718 640.04415,601.73229 C 639.96074,601.94964 639.58192,602.33098 639.20231,602.57971 C 638.53299,603.01826 638.4681,603.00273 637.05696,602.06607 C 636.25664,601.53484 635.26569,600.65951 634.85486,600.12089 C 634.18023,599.23641 633.9985,599.14956 632.97799,599.22392 C 632.33103,599.27107 631.87196,599.436 631.90397,599.60982 C 631.93472,599.77678 631.62906,600.20471 631.22472,600.56078 L 630.48956,601.20817 L 631.14825,600.46099 C 631.94379,599.55858 631.51065,599.45078 630.67277,600.34265 C 630.26047,600.78152 630.082,601.31505 630.082,602.10872 C 630.082,603.0374 629.98907,603.24595 629.57524,603.24595 C 629.29651,603.24595 628.7576,603.00141 628.37765,602.70254 C 627.41877,601.94828 626.60068,601.99793 626.39361,602.82295 C 626.30197,603.18805 626.30874,603.61901 626.40863,603.78064 C 626.50898,603.94299 626.42922,604.0411 626.23043,603.99986 C 626.03253,603.9588 625.86905,604.13054 625.86715,604.3815 C 625.86182,605.0832 625.57473,605.23203 624.17464,605.2589 C 623.11753,605.27919 622.83418,605.39239 622.6202,605.87989 C 622.27942,606.65629 620.84207,607.25174 618.79837,607.46316 C 617.36107,607.61185 617.09761,607.56349 616.64989,607.06876 L 616.64988,607.06876 z"/>
<path title="Begusarai" d="M 634.90473,616.9293 C 634.64321,616.85336 634.42925,616.67794 634.42925,616.53946 C 634.42925,616.40098 634.2648,616.28768 634.0638,616.28768 C 633.86281,616.28768 633.47706,616.04314 633.20658,615.74427 C 632.93611,615.4454 632.38591,615.20086 631.98392,615.20086 C 631.19873,615.20086 630.35371,614.46937 630.35371,613.78967 C 630.35371,613.56008 630.59205,613.06922 630.88337,612.69887 L 631.41304,612.0255 L 629.63158,610.84576 C 628.65179,610.1969 627.59662,609.32313 627.28678,608.90404 C 626.97692,608.48495 626.47277,608.06251 626.16642,607.96528 C 625.25711,607.67667 624.10454,606.70885 624.10454,606.2339 C 624.10454,605.99081 624.50331,605.60175 624.9907,605.36934 C 625.811,604.97817 626.27115,604.3714 626.65255,603.17802 C 626.84042,602.59022 627.98448,602.54703 628.45179,603.11009 C 628.85809,603.59966 629.84766,603.64331 630.29936,603.1916 C 630.47869,603.01228 630.62541,602.45622 630.62541,601.95591 C 630.62541,600.7295 631.74175,599.73419 633.13052,599.7224 C 633.94135,599.71551 634.25918,599.87328 634.73732,600.52 C 635.33466,601.32796 637.98253,603.24595 638.50061,603.24595 C 638.65234,603.24595 638.77649,603.60553 638.77649,604.04502 C 638.77649,604.48451 638.89876,604.91966 639.04819,605.01201 C 639.19763,605.10437 639.31995,605.38669 639.32003,605.63938 C 639.32017,606.13138 641.16836,607.8322 643.05581,609.07728 C 644.12176,609.78045 644.21054,609.93025 644.21054,611.02558 C 644.21054,611.67818 644.08393,612.21213 643.92918,612.21213 C 643.77443,612.21213 643.42237,612.73177 643.14682,613.36687 C 642.87128,614.00198 642.33396,614.81 641.95279,615.16247 C 640.87545,616.15872 636.24693,617.31901 634.90473,616.92929 L 634.90473,616.9293 z"/>
</g>
<g class="label" text-anchor="middle" font-size="4" font-family="sans-serif"  fill="#444">
<text x="576" y="556">Paschim Champaran</text>
<text x="597" y="568">Purba Champaran</text>
<text x="616" y="574">Sitamarhi</text>
<text x="637" y="580">Madhubani</text>
<text x="654" y="584">Supaul</text>
<text x="672" y="586">Araria</text>
<text x="687" y="581">Kishanganj</text>
<text x="674" y="599">Purnia</text>
<text x="682" y="606">Katihar</text>
<text x="665" y="616">Bhagalpur</text>
<text x="656" y="631">Banka</text>
<text x="640" y="632">Jamui</text>
<text x="618" y="631">Nawada</text>
<text x="598" y="638">Gaya</text>
<text x="581" y="635">Aurangabad</text>
<text x="570" y="623">Rohtas</text>
<text x="557" y="627">Kaimur (Bhabua)</text>
<text x="572" y="609">Buxar</text>
<text x="586" y="609">Bhojpur</text>
<text x="595" y="593">Saran</text>
<text x="577" y="586">Siwan</text>
<text x="579" y="578">Gopalganj</text>
<text x="610" y="587">Muzaffarpur</text>
<text x="610" y="578">Sheohar</text>
<text x="632" y="590">Dharbanga</text>
<text x="648" y="595">Saharsa</text>
<text x="657" y="600">Madhopura</text>
<text x="647" y="617">Munger</text>
<text x="650" y="608">Khagaria</text>
<text x="633" y="620">Lakhisarai</text>
<text x="625" y="624">Sheikhpura</text>
<text x="617" y="616">Nalanda</text>
<text x="590" y="621">Jehanabad</text>
<text x="601" y="619">Arwal</text>
<text x="611" y="609">Patna</text>
<text x="610" y="599">Vaishali</text>
<text x="628" y="600">Samastipur</text>
<text x="634" y="611">Begusarai</text>
</g>
</svg>
