<svg xmlns="http://www.w3.org/2000/svg" viewBox="440 652 145 223">
<g title="Chhattisgarh" fill="#328707">
<path title="Dakshin Bastar Dantewada" d="M 477.77185,870.34072 C 476.82927,869.94976 475.09346,869.71225 474.17178,869.84814 C 473.76083,869.90873 472.72157,870.04279 471.86231,870.14606 L 470.30002,870.33382 L 469.87627,869.89182 C 469.47996,869.47845 469.446,869.36261 469.3521,868.10389 C 469.29688,867.36363 469.16663,866.59289 469.06264,866.39112 C 468.94737,866.16745 468.87358,865.59934 468.87358,864.9355 C 468.87358,863.98576 468.83889,863.82815 468.60188,863.70131 C 468.35277,863.56799 468.33018,863.41686 468.33018,861.88359 C 468.33018,860.38381 468.35821,860.18592 468.60188,859.9654 C 468.81394,859.77348 468.87358,859.54698 468.87358,858.93348 C 468.87358,858.50115 468.81245,858.10966 468.73773,858.06348 C 468.66301,858.0173 468.60188,857.68158 468.60188,857.31743 C 468.60188,856.77554 468.55275,856.63976 468.33125,856.56945 C 468.08366,856.49087 468.07678,856.45249 468.25041,856.11878 C 468.35481,855.91815 468.59885,855.6058 468.79275,855.42466 C 468.98665,855.24352 469.14528,854.96091 469.14528,854.79663 C 469.14528,854.41267 468.62916,853.24076 468.46006,853.24076 C 468.38905,853.24076 468.08625,853.01968 467.78716,852.74947 C 467.26467,852.27742 467.24337,852.22539 467.24337,851.42118 C 467.24337,850.39308 467.43046,850.09942 468.28908,849.77988 C 469.30505,849.40179 471.01762,848.48729 471.09698,848.2805 C 471.27853,847.80738 470.5396,846.50238 469.56432,845.5737 L 469.14528,845.17469 L 469.14737,841.29439 C 469.14851,839.16021 469.20518,837.32599 469.2733,837.21833 C 469.47415,836.90089 469.07585,836.28498 468.63708,836.23452 C 468.3352,836.1998 468.25337,836.1134 468.21663,835.79056 C 468.18611,835.52231 468.2519,835.33056 468.41552,835.21092 C 469.07579,834.72812 469.4219,830.66928 468.87876,829.7785 C 468.53507,829.21482 468.6309,828.06255 469.06119,827.58496 C 469.47898,827.12124 471.39105,826.19507 472.33238,826.00046 C 473.04822,825.85246 473.22783,825.86256 473.88197,826.08762 C 474.30853,826.23438 475.00121,826.34309 475.5176,826.34431 C 476.01025,826.34548 476.76195,826.42848 477.18804,826.52876 L 477.96274,826.71108 L 478.75033,826.17926 C 479.1835,825.88676 479.96584,825.43044 480.48887,825.16521 C 481.0119,824.89999 481.88301,824.35184 482.42468,823.94712 C 483.39144,823.22478 483.41584,823.21538 483.75238,823.43589 C 483.94095,823.55944 484.14947,823.75745 484.21576,823.8759 C 484.40179,824.20832 483.89988,825.0613 482.88218,826.14231 C 481.42044,827.69497 481.1653,828.14166 481.1841,829.11524 C 481.20627,830.26303 481.35451,830.80698 481.69354,830.98451 C 481.85288,831.06794 482.21266,831.34134 482.49307,831.59207 C 483.08153,832.11824 483.59234,832.17895 484.02344,831.77395 C 484.3356,831.4807 486.14442,830.9148 486.26989,831.07114 C 486.31128,831.12272 486.42108,831.47058 486.5139,831.84417 C 486.74277,832.76543 487.56355,833.6203 488.09189,833.48769 C 488.29127,833.43765 488.55649,833.21884 488.68125,833.00146 C 488.94087,832.5491 489.18347,832.45876 490.13432,832.46034 C 491.72043,832.46297 494.00608,834.2229 494.00608,835.44155 C 494.00608,836.20144 494.2214,836.29727 495.79767,836.23892 L 497.22946,836.18592 L 497.44544,836.56226 C 497.61631,836.85997 497.76017,836.93859 498.13408,836.93859 C 498.48295,836.93859 498.62868,837.00779 498.69058,837.20282 C 498.75288,837.39912 498.92111,837.47769 499.34503,837.50848 L 499.91562,837.54992 L 499.98354,839.24807 C 500.03017,840.41368 500.11696,841.06413 500.26032,841.32225 C 500.44415,841.65322 500.44753,841.86955 500.28856,843.12732 C 500.0101,845.3304 499.6229,846.04815 497.05593,849.1196 C 495.8797,850.52698 494.76846,851.90297 494.58649,852.17736 C 494.26643,852.65998 494.2217,852.67943 493.21428,852.77383 C 492.64153,852.8275 492.00585,852.91932 491.80166,852.97789 C 491.19115,853.15299 489.72455,854.4696 489.39029,855.14267 C 489.2233,855.47891 488.60896,856.43215 488.02508,857.261 C 486.84416,858.93737 486.67011,859.46722 486.67011,861.38601 L 486.67011,862.4171 L 485.59461,863.48629 L 484.51911,864.55548 L 483.87644,867.15108 C 483.52297,868.57867 483.21292,869.77146 483.18744,869.80174 C 483.10022,869.90535 480.21821,870.45757 479.33414,870.54007 C 478.61903,870.6068 478.32192,870.56889 477.77185,870.34072 L 477.77185,870.34072 z"/>
<path title="Bijapur" d="M 460.76583,857.75838 C 460.28167,857.36899 460.18199,856.68946 460.48176,855.82193 C 460.62376,855.41098 460.82867,854.57681 460.9371,853.96821 L 461.13426,852.86168 L 460.3741,850.70778 C 459.95602,849.52314 459.54832,848.35803 459.46811,848.11866 C 459.36368,847.80703 458.94274,847.39192 457.98574,846.65683 C 456.66405,845.6416 456.64172,845.61479 455.97304,844.23917 C 455.60114,843.4741 455.0804,842.55775 454.81585,842.20283 L 454.33485,841.55754 L 452.87576,841.55569 L 451.41668,841.55385 L 450.73168,842.32168 L 450.04667,843.08951 L 448.77501,842.33084 C 447.63779,841.65239 445.3713,839.85914 445.3713,839.63783 C 445.3713,839.5905 445.72281,839.4376 446.15244,839.29804 L 446.93359,839.04429 L 446.97404,838.22918 C 447.01294,837.44508 447.04254,837.38562 447.75195,836.66621 C 448.33851,836.0714 448.55437,835.72389 448.80679,834.96807 C 449.09963,834.09123 449.11174,833.94467 448.96357,833.07161 C 448.80891,832.16028 448.77356,832.09909 448.00414,831.41072 C 447.56478,831.01763 447.15944,830.69454 447.1034,830.69273 C 447.04736,830.69092 447.00151,830.59001 447.00151,830.46849 C 447.00151,830.00177 447.87512,827.31872 448.31076,826.44747 C 448.66719,825.73463 448.76871,825.36146 448.7727,824.74933 C 448.7776,824.00007 448.82205,823.90097 449.76129,822.54547 C 450.72751,821.15104 450.77116,821.11021 452.25065,820.21728 C 453.70129,819.34176 456.08582,818.19111 456.44954,818.19111 C 456.54625,818.19111 456.6668,818.38979 456.71743,818.63262 C 456.76806,818.87546 456.89659,819.21169 457.00306,819.37981 C 457.19132,819.67709 457.25896,819.6854 459.46901,819.68276 C 462.56516,819.67906 463.71745,819.48139 464.63466,818.79663 C 465.02346,818.50636 465.376,818.16041 465.41807,818.02785 C 465.49082,817.79862 465.51904,817.79933 465.99537,818.04244 C 466.27082,818.18302 466.61264,818.42682 466.75498,818.58421 C 466.89731,818.74159 467.11128,818.86944 467.23046,818.86832 C 467.5898,818.86493 468.43776,818.5305 468.70867,818.28533 C 468.88863,818.12248 469.20314,818.05526 469.78515,818.05526 L 470.60739,818.05526 L 470.75504,818.64161 C 470.83625,818.96411 471.0269,819.34038 471.17872,819.47777 C 471.33054,819.61517 471.45476,819.85871 471.45476,820.01899 C 471.45476,820.17925 471.51071,820.36846 471.57911,820.43945 C 471.64749,820.51043 471.72391,820.72134 471.74892,820.90813 C 471.79089,821.22165 471.85707,821.25119 472.60949,821.29232 C 473.66675,821.35011 474.82827,821.08352 475.26603,820.68259 C 475.54252,820.42935 475.76612,820.36473 476.36575,820.36473 C 476.94587,820.36473 477.17477,820.30245 477.36429,820.09303 C 477.52056,819.92035 477.78271,819.82132 478.08354,819.82132 C 478.45466,819.82132 478.75667,819.65992 479.48168,819.07414 L 480.40645,818.32696 L 481.49573,818.32696 C 482.43363,818.32696 482.60455,818.36348 482.72564,818.58973 C 482.80298,818.73425 482.86627,819.65527 482.86627,820.63643 C 482.86627,821.61759 482.92713,822.53408 483.00152,822.67308 C 483.11409,822.88341 483.02864,823.01855 482.49208,823.47882 C 482.1375,823.783 481.41945,824.25312 480.89643,824.52355 C 480.3734,824.79399 479.47687,825.31811 478.90414,825.68828 C 477.90905,826.33143 477.83967,826.3549 477.34185,826.21666 C 477.05532,826.1371 476.38954,826.07166 475.86234,826.07124 C 475.24211,826.07076 474.59862,825.96742 474.0391,825.77847 C 473.24243,825.50943 473.1041,825.50022 472.28062,825.66143 C 471.28068,825.85717 469.41011,826.72873 468.83962,827.2647 C 468.59352,827.49591 468.46603,827.75439 468.46603,828.02214 C 468.46603,828.24569 468.39535,828.62406 468.30896,828.86295 C 468.17144,829.24327 468.18998,829.3508 468.45801,829.72721 C 468.74918,830.13613 468.76043,830.24467 468.6885,831.9516 C 468.58714,834.35688 468.50067,834.87152 468.18083,834.97303 C 467.86055,835.07468 467.70723,835.63857 467.87206,836.1086 C 467.95352,836.34089 468.15722,836.51543 468.46292,836.61485 C 468.95165,836.7738 469.12295,836.98825 468.88075,837.13794 C 468.7859,837.19656 468.73773,838.56439 468.73773,841.19928 L 468.73773,845.17223 L 469.21866,845.63836 C 469.83296,846.23376 470.60059,847.36062 470.71352,847.83274 C 470.79608,848.17791 470.74125,848.22819 469.73539,848.72966 C 469.14932,849.02186 468.37621,849.37118 468.01738,849.50595 C 467.10832,849.84737 466.97166,850.09766 466.97166,851.42118 L 466.97166,852.52988 L 467.51546,853.02118 C 467.81455,853.29138 468.11939,853.51246 468.19289,853.51246 C 468.34751,853.51246 468.73773,854.38495 468.73773,854.73066 C 468.73773,854.85939 468.62393,855.0677 468.48484,855.19357 C 468.34576,855.31945 468.12251,855.66515 467.98873,855.96181 C 467.85496,856.25847 467.65855,856.50119 467.55228,856.50119 C 467.446,856.50119 467.00654,856.83742 466.5757,857.24837 C 465.65951,858.12227 465.30456,858.18759 464.73012,857.588 C 464.38363,857.22635 464.25038,857.18045 463.54705,857.18045 C 462.93589,857.18045 462.63849,857.2563 462.24792,857.5118 C 461.53857,857.97584 461.12232,858.04509 460.76583,857.75838 z"/>
<path title="Narayanpur" d="M 472.03213,820.54036 C 471.93873,820.33925 471.86231,820.06932 471.86231,819.94051 C 471.86231,819.8117 471.70641,819.52104 471.51587,819.29459 C 471.32533,819.06815 471.09359,818.62024 471.00089,818.29925 L 470.83236,817.71563 L 469.87005,817.67606 C 469.02677,817.64138 468.85944,817.67611 468.51708,817.95689 C 468.3022,818.13311 467.92479,818.35823 467.67837,818.45715 C 467.26162,818.62446 467.20472,818.61305 466.86326,818.29372 C 466.66137,818.10491 466.2975,817.85017 466.05467,817.72765 C 465.6725,817.53482 465.61315,817.43513 465.61315,816.98601 C 465.61315,816.63968 465.70349,816.38539 465.88485,816.22126 C 466.08204,816.04281 466.15655,815.80284 466.15655,815.34629 L 466.15655,814.71721 L 467.2094,813.97043 C 468.20526,813.26407 468.26449,813.19317 468.30354,812.66066 C 468.35523,811.95594 467.83441,810.86844 467.24385,810.44792 C 466.61245,809.99833 464.69209,809.20713 462.31875,808.41875 L 460.1791,807.708 L 460.1791,806.6527 L 460.1791,805.5974 L 461.55183,805.06772 C 462.48203,804.7088 462.95966,804.45046 463.03341,804.26634 C 463.09327,804.11691 463.39254,803.75298 463.69844,803.45763 C 464.12842,803.04248 464.25464,802.81897 464.25464,802.4727 C 464.25464,802.04036 464.23567,802.0248 463.70864,802.0248 C 463.18224,802.0248 463.16581,802.01139 463.25067,801.6512 C 463.29908,801.44573 463.46434,801.04836 463.6179,800.76817 C 463.88999,800.27173 463.91687,800.25873 464.67143,800.25873 L 465.44574,800.25873 L 465.75264,799.50258 C 466.02154,798.84005 466.17956,798.66545 467.02901,798.09225 C 467.56222,797.73244 468.08059,797.33911 468.18096,797.21818 C 468.31123,797.06121 468.59191,796.9983 469.16192,796.9983 L 469.96039,796.9983 L 469.96039,795.93176 C 469.96039,795.34516 470.02963,794.66659 470.11426,794.42383 L 470.26813,793.98244 L 471.31498,794.02997 C 472.21369,794.07079 472.46231,794.13998 473.07205,794.51902 C 473.71602,794.91933 473.8818,794.96053 474.84892,794.96053 L 475.91556,794.96053 L 476.00249,795.94545 C 476.11308,797.19834 476.11269,799.20622 476.00159,800.58216 L 475.91514,801.65278 L 476.51574,802.28031 C 476.84607,802.62544 477.34761,803.19821 477.63027,803.55312 L 478.1442,804.19842 L 479.20549,804.19842 C 480.14747,804.19842 480.27648,804.22896 480.35302,804.47012 C 480.43445,804.72667 480.55857,804.74182 482.57831,804.74182 L 484.71735,804.74182 L 485.11637,804.32214 C 485.60373,803.80953 486.02599,803.58507 486.73803,803.46012 C 487.03691,803.40767 487.41559,803.33259 487.57956,803.29328 C 487.85472,803.2273 487.88088,803.27772 487.91919,803.94784 L 487.9607,804.6739 L 489.35317,804.71261 C 490.17891,804.73557 490.74565,804.80743 490.74565,804.88917 C 490.74565,805.12614 490.37861,805.74985 490.0803,806.01982 C 489.70055,806.36349 489.69856,807.16414 490.07625,807.64431 L 490.35781,808.00226 L 489.28832,808.00226 C 488.14807,808.00226 487.89277,808.11814 487.89277,808.63573 C 487.89277,809.03685 487.41191,810.24988 487.0532,810.75364 C 486.67105,811.29032 486.76283,812.62567 487.26297,813.80581 C 487.7324,814.91349 487.71961,815.19191 487.17955,815.6215 C 486.70494,815.99901 486.83917,815.99708 484.60182,815.6586 C 484.15415,815.59088 484.07738,815.62251 483.93591,815.93301 C 483.84796,816.12603 483.65698,816.32174 483.51151,816.36791 C 483.36083,816.41573 483.10737,816.76761 482.9225,817.18563 L 482.59799,817.9194 L 481.49054,817.9194 L 480.38307,817.9194 L 479.4583,818.66659 C 478.74563,819.24239 478.42823,819.41377 478.07448,819.41377 C 477.76048,819.41377 477.51461,819.52108 477.29637,819.7534 C 477.03089,820.03599 476.85156,820.09303 476.22859,820.09303 C 475.69578,820.09303 475.39901,820.16472 475.19943,820.34165 C 474.81047,820.68645 473.9479,820.90833 473.00129,820.90707 C 472.26658,820.9061 472.18821,820.87645 472.03213,820.54036 L 472.03213,820.54036 z"/>
<path title="Uttar Bastar Kanker" d="M 459.89809,804.84371 C 459.80012,804.60088 459.26247,803.92841 458.70331,803.34935 L 457.68665,802.2965 L 456.45359,802.28606 C 454.81541,802.27219 454.18748,802.08008 454.03973,801.54758 C 453.9721,801.30382 453.98872,800.87841 454.08134,800.48228 C 454.22463,799.86946 454.19179,798.81501 453.98283,797.31924 L 453.90431,796.75714 L 454.98815,796.6612 C 456.03142,796.56885 456.09294,796.54392 456.6313,795.99537 C 457.14287,795.47412 457.20184,795.33895 457.32214,794.41185 C 457.39449,793.85436 457.45557,792.62031 457.45787,791.66952 L 457.46207,789.94081 L 458.31114,789.26976 C 459.05647,788.68069 459.3013,788.57036 460.31495,788.36674 C 460.95005,788.23917 461.73039,788.10546 462.04904,788.06961 C 462.65791,788.00111 463.03197,787.65908 463.03197,787.17086 C 463.03197,786.90695 463.53363,786.32608 464.73012,785.20458 C 465.10371,784.85441 465.99353,784.00265 466.70751,783.31179 C 467.77441,782.27944 468.13135,782.01836 468.71132,781.84613 C 469.38231,781.64687 469.41699,781.61385 469.41699,781.17437 C 469.41699,780.92016 469.47761,780.6747 469.5517,780.62891 C 469.74251,780.51098 470.79639,781.26695 471.22553,781.82957 C 471.67314,782.41642 472.39571,782.59805 474.28279,782.59805 C 475.43478,782.59805 475.66338,782.55807 476.07613,782.2844 C 476.33631,782.11189 476.87575,781.83784 477.2749,781.6754 C 477.67403,781.51297 478.48405,780.9721 479.07493,780.47346 C 480.05877,779.64321 480.14924,779.52466 480.14924,779.06574 C 480.14924,778.43291 480.40954,778.20555 481.37191,777.99779 C 481.78286,777.90907 482.72505,777.56291 483.46566,777.22854 C 484.20628,776.89417 484.83289,776.62059 484.85814,776.62059 C 484.88339,776.62059 484.90404,776.79703 484.90404,777.01266 C 484.90404,777.35475 485.02874,777.47882 485.88205,777.98576 C 486.74949,778.5011 486.97604,778.57364 487.88586,778.62741 C 488.88468,778.68643 488.92811,778.70396 489.53743,779.29416 C 490.22203,779.95726 491.28748,780.51337 492.13208,780.64843 C 492.42946,780.69598 492.84405,780.879 493.05338,781.05514 C 493.2627,781.23128 493.55982,781.37539 493.71364,781.37539 C 494.15763,781.37539 494.64314,781.6502 494.79744,781.98884 C 494.87557,782.16032 495.1251,782.41026 495.35195,782.54426 C 495.80289,782.81064 496.04385,783.33509 496.04385,784.05018 C 496.04385,784.30352 496.15597,784.73761 496.293,785.01483 C 496.43003,785.29204 496.65167,785.93475 496.78552,786.44305 C 496.99831,787.25112 497.00725,787.46916 496.85676,788.17834 C 496.70397,788.89832 496.59847,789.06917 495.91747,789.69946 C 495.49552,790.08999 494.77731,790.60819 494.32144,790.85102 C 493.55935,791.25697 493.39201,791.29254 492.24436,791.29254 L 490.99615,791.29254 L 489.02427,792.81879 L 487.0524,794.34504 L 487.12769,795.43393 C 487.3313,798.37899 487.32107,798.33718 488.11317,799.4643 C 488.51498,800.03607 488.84373,800.55176 488.84373,800.61029 C 488.84373,800.66881 488.9744,800.85579 489.13412,801.0258 C 489.38588,801.29378 489.40337,801.38531 489.26561,801.71381 C 488.98847,802.3747 488.18787,802.92084 487.34937,803.021 C 486.12401,803.16736 485.58631,803.37494 484.97651,803.93703 L 484.39818,804.47012 L 482.57809,804.47012 C 480.90513,804.47012 480.74429,804.44816 480.58833,804.19842 C 480.44389,803.96714 480.27152,803.92671 479.42974,803.92671 L 478.44083,803.92671 L 477.38281,802.77068 L 476.3248,801.61464 L 476.4093,800.49517 C 476.52662,798.94093 476.51847,797.1404 476.38793,795.77563 L 476.27748,794.6209 L 475.00033,794.58157 C 473.98799,794.55039 473.64478,794.48641 473.34512,794.27304 C 472.7382,793.84087 471.89167,793.60201 470.96698,793.60201 C 469.8897,793.60201 469.79489,793.73858 469.69367,795.43601 L 469.62076,796.65867 L 468.83962,796.69941 C 468.40999,796.72182 468.05847,796.79717 468.05847,796.86685 C 468.05847,796.93654 467.55413,797.33016 466.9377,797.74158 C 465.94377,798.40495 465.78395,798.5705 465.52557,799.20435 L 465.23421,799.9191 L 464.47011,799.95992 C 463.75644,799.99805 463.68444,800.03391 463.37912,800.50333 C 463.01801,801.05851 462.70205,802.09238 462.83013,802.29963 C 462.87525,802.37263 463.15308,802.43235 463.44755,802.43235 C 463.78793,802.43235 463.98113,802.4942 463.97798,802.60216 C 463.97526,802.69556 463.6438,803.12121 463.24142,803.54805 C 462.63346,804.19295 462.30838,804.40534 461.31805,804.80467 C 460.66258,805.06898 460.11503,805.28523 460.10125,805.28523 C 460.08748,805.28523 459.99605,805.08655 459.89809,804.84371 L 459.89809,804.84371 z"/>
<path title="Rajnandgaon" d="M 455.04392,789.771 C 454.93674,789.66383 454.88089,789.09243 454.88089,788.10309 C 454.88089,786.01906 454.90167,785.99434 456.65274,785.99434 L 458.00162,785.99434 L 458.33793,785.48489 C 458.52289,785.2047 458.74541,784.63922 458.8324,784.22827 C 458.91938,783.81732 459.10654,783.31687 459.24829,783.11615 C 459.39004,782.91544 459.6877,782.36295 459.90977,781.8884 C 460.47793,780.67426 460.56094,779.42001 460.1897,777.65849 C 460.03443,776.92176 459.90739,776.29591 459.90739,776.26772 C 459.90739,776.23953 459.4851,776.00379 458.96896,775.74387 C 458.02092,775.26644 457.46207,774.69591 457.46207,774.20547 C 457.46207,774.05836 457.67603,773.23219 457.93755,772.36953 C 458.38675,770.88775 458.41303,770.69247 458.41303,768.83603 C 458.41303,766.98523 458.42882,766.86685 458.68473,766.79993 C 459.05401,766.70336 459.02972,766.49386 458.50735,765.26974 L 458.05826,764.21735 L 456.77524,763.65075 L 455.49222,763.08415 L 455.4243,760.78429 C 455.36827,758.88715 455.31474,758.42562 455.11863,758.14854 C 454.98384,757.9581 454.88089,757.56712 454.88089,757.24562 C 454.88089,756.48865 455.40424,756.03507 456.89613,755.49905 C 457.8126,755.16977 458.07278,755.01132 458.29958,754.64435 C 458.48366,754.3465 458.88704,754.03824 459.49014,753.73453 C 460.46156,753.24533 461.07641,752.57287 461.92159,751.07529 C 462.30703,750.39235 462.32913,750.28632 462.19567,749.76054 C 462.05791,749.21779 462.07467,749.15552 462.52472,748.53834 C 462.78554,748.18067 463.18155,747.52123 463.40476,747.07292 C 463.77799,746.32328 463.82331,746.07247 463.9691,743.95028 C 464.09769,742.0784 464.20741,741.37307 464.55026,740.21437 C 465.23826,737.88915 465.84174,736.44336 466.44866,735.66627 L 467.01461,734.94163 L 467.66963,735.13615 C 468.02989,735.24313 468.71452,735.50559 469.19102,735.71938 C 469.97276,736.07013 470.118,736.09422 470.67806,735.96606 L 471.29873,735.82403 L 472.69919,736.94297 C 473.68894,737.73376 474.19986,738.24776 474.44138,738.69565 C 474.84827,739.45023 475.28159,739.5709 476.01995,739.13526 C 476.35808,738.93575 476.73163,738.85392 477.30413,738.85392 L 478.11147,738.85392 L 478.11147,739.288 C 478.11147,739.56304 477.98988,739.84924 477.7796,740.06915 C 477.36726,740.50035 475.93785,743.922 475.93785,744.47783 C 475.93785,744.75404 475.79602,745.0327 475.49998,745.33813 C 475.12099,745.72915 475.08446,745.82568 475.22828,746.05598 C 475.31967,746.20232 475.39445,746.52737 475.39445,746.77832 C 475.39445,747.06923 475.49779,747.32811 475.6796,747.49265 C 475.92665,747.71623 475.95794,747.87131 475.91376,748.65319 C 475.86852,749.45388 475.79806,749.64792 475.28898,750.37366 C 474.73797,751.15918 474.71519,751.23217 474.71519,752.21254 C 474.71519,753.70953 474.94937,754.58629 475.41328,754.82619 C 475.61966,754.93291 475.91783,755.02023 476.07589,755.02023 C 476.63136,755.02023 476.88881,755.26922 476.88881,755.8064 C 476.88881,756.23243 476.68979,756.57661 475.61508,758.00921 C 474.91453,758.94305 473.63334,760.47126 472.76799,761.40524 C 471.75869,762.49458 471.19255,763.21246 471.18884,763.40762 C 471.18566,763.57495 471.03322,764.09458 470.85008,764.56236 C 470.66695,765.03013 470.41716,765.77965 470.29501,766.22796 C 470.17286,766.67627 469.85827,767.50896 469.59591,768.07837 C 469.15732,769.03031 469.07508,769.12679 468.57455,769.27676 C 468.27516,769.36646 467.95038,769.47048 467.85283,769.50791 C 467.75405,769.54581 467.63588,769.45124 467.58611,769.29444 C 467.5093,769.05244 467.38658,769.01292 466.71186,769.01292 C 465.65789,769.01292 465.42378,769.25835 465.52158,770.26073 C 465.65043,771.58131 465.77241,771.91795 466.31237,772.44316 C 466.87565,772.99105 467.2676,773.0721 468.0444,772.80131 C 468.61573,772.60214 468.95482,772.89388 469.0601,773.67517 C 469.1022,773.98759 469.17476,774.49446 469.22135,774.80156 C 469.28529,775.22303 469.23638,775.49648 469.02189,775.91692 C 468.78354,776.38414 468.73773,776.71973 468.73773,777.9989 C 468.73773,779.35277 468.7692,779.55738 469.01818,779.82241 C 469.28213,780.10337 469.28738,780.15951 469.10739,780.77677 C 468.94026,781.34999 468.85786,781.44729 468.45335,781.5491 C 468.15222,781.62489 467.6109,782.03342 466.90374,782.71857 C 466.30599,783.29771 465.37316,784.15621 464.83078,784.62633 C 464.2884,785.09644 463.74338,785.65249 463.61963,785.86199 C 463.49587,786.07148 463.25189,786.30792 463.07745,786.3874 C 462.87128,786.48134 462.76027,786.64791 462.76027,786.86335 C 462.76027,787.4502 462.62083,787.62455 462.15149,787.62455 C 461.90736,787.62455 461.46281,787.71093 461.16359,787.8165 C 460.86437,787.92207 460.27821,788.05109 459.86102,788.10322 C 459.23869,788.18097 458.95138,788.31494 458.26096,788.84929 C 457.79811,789.20751 457.36485,789.59811 457.29815,789.71731 C 457.14742,789.98665 455.30348,790.03057 455.04391,789.771 L 455.04392,789.771 z"/>
<path title="Kabeerdham" d="M 475.02305,738.95887 C 474.94712,738.86379 474.78563,738.59029 474.66418,738.3511 C 474.49037,738.00879 473.03975,736.73071 471.49909,735.56248 C 471.40425,735.49057 471.1056,735.5046 470.76204,735.59711 C 470.23025,735.7403 470.08664,735.71466 468.95164,735.27388 C 468.27361,735.01057 467.60552,734.76027 467.46701,734.71768 C 467.28955,734.6631 467.24443,734.57036 467.31422,734.40364 C 467.56629,733.80146 467.67444,732.89812 467.76808,730.61256 L 467.86918,728.14488 L 468.99861,726.43986 L 470.12803,724.73484 L 470.52308,724.93912 C 470.80741,725.08616 471.25032,725.13242 472.10344,725.10421 L 473.28875,725.065 L 473.35668,724.09055 C 473.40993,723.32663 473.49064,723.0459 473.73027,722.79121 C 473.97242,722.53382 474.03593,722.30775 474.03593,721.7032 C 474.03593,720.8918 474.679,718.89149 475.08356,718.44445 C 475.20187,718.31372 475.67686,717.98553 476.13909,717.71514 L 476.97952,717.22351 L 477.9753,714.87691 L 478.97108,712.5303 L 479.72714,712.21694 C 480.14296,712.04459 480.729,711.68001 481.02943,711.40676 C 481.34513,711.11964 481.99746,710.75053 482.57498,710.53224 C 483.53446,710.16959 483.6292,710.15929 484.95238,710.2738 L 486.33048,710.39306 L 486.52481,710.83458 C 486.64769,711.11374 486.81585,711.27609 486.98215,711.27609 C 487.22411,711.27609 487.23784,711.34455 487.15361,712.13101 C 487.07253,712.88812 487.09404,713.01487 487.34156,713.23888 C 487.66594,713.53243 487.71386,714.3622 487.47165,715.49156 C 487.33541,716.12683 487.34739,716.21505 487.6075,716.49193 C 487.78711,716.68311 487.89277,716.97488 487.89277,717.27968 C 487.89277,717.54593 487.98447,717.98324 488.09655,718.25148 C 488.20863,718.51972 488.30033,719.05469 488.30033,719.44031 C 488.30033,720.04477 488.36306,720.21086 488.75535,720.64508 C 489.10291,721.02979 489.23333,721.32178 489.30757,721.88139 C 489.36102,722.28435 489.53409,722.84416 489.69216,723.12541 L 489.97957,723.63679 L 489.70632,723.94334 C 489.45064,724.23017 488.97958,725.48891 488.97958,725.88529 C 488.97958,725.98305 488.83204,726.23839 488.65171,726.4527 C 488.47138,726.66701 488.30327,727.02321 488.27812,727.24427 C 488.23908,727.58748 488.16753,727.65243 487.78825,727.68895 C 487.24304,727.74144 487.03582,728.03715 486.72342,729.20847 C 486.54206,729.88848 486.31068,730.31015 485.71708,731.04246 C 484.7243,732.26724 484.63234,732.45396 484.63234,733.24485 C 484.63234,734.16062 484.36188,734.50667 483.64618,734.50667 C 483.20853,734.50667 482.99069,734.59526 482.66896,734.90407 C 482.44125,735.12263 481.73531,735.67231 481.1002,736.12558 C 480.13013,736.81792 479.85437,736.94989 479.3758,736.95085 C 478.7062,736.9522 478.38318,737.29398 478.38318,738.00111 L 478.38318,738.44636 L 477.42672,738.44636 C 476.70297,738.44636 476.3807,738.50968 476.10217,738.7066 C 475.58836,739.06986 475.18667,739.16377 475.02305,738.95887 L 475.02305,738.95887 z"/>
<path title="Bilaspur" d="M 513.39886,738.76446 C 513.03333,738.61285 512.88942,738.47052 512.88942,738.26064 C 512.88942,738.06227 512.08576,737.16535 510.3923,735.47375 L 507.89518,732.97937 L 506.72265,733.15381 C 505.58628,733.32287 505.54048,733.31919 505.23737,733.03443 C 504.81384,732.63655 503.55905,732.63522 502.33286,733.03137 C 501.31371,733.36062 501.044,733.28868 500.93363,732.65815 C 500.84314,732.14124 500.38569,732.07385 499.67575,732.47286 C 499.14346,732.77203 499.13967,732.77218 498.7865,732.5085 C 498.59143,732.36286 498.30375,732.00399 498.14721,731.71101 C 497.99067,731.41803 497.70082,730.92432 497.50309,730.61388 L 497.14358,730.04944 L 495.78988,730.00255 C 494.54018,729.95926 494.39126,729.92407 493.8517,729.54456 C 493.53023,729.31846 493.1076,728.89844 492.91251,728.61118 C 492.51296,728.02286 491.83589,727.71941 490.91546,727.71615 C 490.42798,727.71442 490.3381,727.7564 490.3381,727.98581 C 490.3381,728.26711 490.01034,728.36069 489.86257,728.12159 C 489.81637,728.04683 489.50709,727.9173 489.1753,727.83376 C 488.65691,727.70322 488.57203,727.6326 488.57203,727.33182 C 488.57203,727.13931 488.71644,726.82561 488.89294,726.63473 C 489.06945,726.44384 489.27905,726.04313 489.35872,725.74426 C 489.59612,724.85372 489.8636,724.20941 490.10802,723.93933 C 490.39851,723.61833 490.3961,723.55819 490.07465,723.10676 C 489.92976,722.90327 489.73964,722.31307 489.65216,721.7952 C 489.52403,721.03661 489.40575,720.7612 489.04358,720.37813 C 488.66815,719.98105 488.58147,719.76826 488.51782,719.08754 C 488.30593,716.82123 488.27101,716.63722 487.99665,716.34088 C 487.73994,716.06359 487.73009,715.97772 487.87315,715.26537 C 488.11183,714.0769 488.07332,713.44688 487.74032,713.09242 C 487.49023,712.82621 487.46427,712.68757 487.54439,712.04629 L 487.63676,711.30704 L 489.53661,710.13683 C 491.18546,709.12122 491.51736,708.96662 492.04876,708.96662 C 492.38552,708.96662 492.82695,708.88084 493.0297,708.77599 C 493.23245,708.67114 493.69488,708.54089 494.05732,708.48654 C 494.49741,708.42055 494.8691,708.25357 495.1763,707.98384 C 495.59751,707.61401 495.6363,707.515 495.6363,706.80949 L 495.6363,706.03902 L 496.65518,705.02693 L 497.67407,704.01484 L 497.67407,702.9695 L 497.67407,701.92415 L 498.65899,701.21171 C 499.2007,700.81987 499.68883,700.43288 499.74372,700.35174 C 499.79862,700.27059 499.84447,699.82991 499.84561,699.37244 C 499.84763,698.56322 499.86371,698.52639 500.43849,698.01392 C 500.76344,697.72422 501.54288,697.19441 502.1706,696.83657 C 502.79832,696.47873 503.60228,695.97379 503.95719,695.71448 L 504.60249,695.24299 L 504.60249,693.91512 L 504.60249,692.58725 L 505.31571,691.89425 C 505.99123,691.23787 506.08278,691.19358 507.04781,691.05631 C 507.87878,690.9381 508.11775,690.84753 508.3435,690.56525 C 508.49575,690.37488 508.65599,690.21913 508.69959,690.21913 C 508.7432,690.21913 508.81942,690.52477 508.86897,690.89832 C 508.94064,691.43852 509.03456,691.62418 509.32799,691.80559 C 509.5309,691.93104 509.92616,692.24914 510.20636,692.51249 C 510.64221,692.92213 510.7158,693.0759 510.7158,693.57691 C 510.7158,694.23714 510.85018,694.5268 511.53091,695.3339 C 511.79242,695.64396 512.10225,696.0361 512.21942,696.20531 L 512.43244,696.51297 L 512.86304,696.19462 C 513.385,695.80871 513.53957,695.91648 513.32303,696.51532 C 513.23399,696.76158 513.16112,697.13818 513.16112,697.35222 C 513.16112,697.56625 513.04778,697.86758 512.90926,698.02183 C 512.77074,698.17608 512.51595,698.66909 512.34308,699.1174 C 511.97777,700.06476 511.376,700.67969 510.81421,700.67969 C 510.45933,700.67969 510.43045,700.71653 510.46945,701.1195 C 510.50412,701.47772 510.61913,701.61822 511.08939,701.87686 C 511.76916,702.25073 511.82526,702.55779 511.32288,703.15483 C 510.78644,703.79236 511.06426,704.39312 512.36128,705.40035 C 513.38498,706.19533 514.65549,707.95269 514.65549,708.57369 C 514.65549,708.81068 514.55858,709.07545 514.44014,709.16206 C 514.3217,709.24866 514.18191,709.5305 514.12949,709.78836 C 514.03608,710.24785 514.01801,710.25877 513.22406,710.33547 C 512.4642,710.40888 511.93846,710.55133 511.93846,710.68381 C 511.93846,710.71566 512.08845,711.03772 512.27178,711.39949 L 512.6051,712.05727 L 512.13593,713.03626 C 511.49712,714.36923 511.51816,714.60415 512.34968,715.42317 C 512.93694,716.0016 513.02089,716.14913 512.949,716.47643 C 512.84587,716.94598 513.19087,717.52525 513.57365,717.52525 C 513.87051,717.52525 514.30313,717.73939 514.72341,718.09436 C 514.88719,718.23268 515.29193,718.34062 515.7423,718.36607 L 516.48948,718.40829 L 516.60925,719.38505 C 516.7281,720.35433 516.7257,720.36599 516.29715,720.90709 C 516.05962,721.20699 515.53019,721.64408 515.12064,721.87841 C 514.54534,722.20756 514.29965,722.45511 514.04026,722.96699 C 513.65262,723.73197 513.58857,724.98116 513.90831,725.54048 C 514.05492,725.79697 514.10363,726.44164 514.10727,728.17382 C 514.10992,729.43537 514.17044,730.68859 514.24176,730.95878 C 514.31308,731.22896 514.40685,731.62175 514.45014,731.83164 C 514.49343,732.04153 514.7713,732.4763 515.06765,732.79779 C 515.52844,733.29769 515.60645,733.4705 515.60645,733.99137 C 515.60645,734.42372 515.68369,734.67032 515.87269,734.84136 C 516.13711,735.08066 516.13711,735.08587 515.87269,735.60419 C 515.47644,736.38089 515.52486,736.92281 516.03776,737.45199 C 516.44889,737.87617 516.45817,737.90902 516.23619,738.15432 C 516.01834,738.39504 514.44489,738.99827 514.07527,738.98277 C 513.98344,738.97891 513.67906,738.88068 513.39886,738.76446 L 513.39886,738.76446 z"/>
<path title="Koriya" d="M 511.94783,695.36019 C 511.30082,694.60828 511.12335,694.2192 511.12335,693.55264 C 511.12335,693.02943 511.05283,692.91025 510.34199,692.23223 C 509.91225,691.82232 509.49137,691.4615 509.40672,691.4304 C 509.32208,691.39931 509.20976,690.99675 509.15714,690.53583 C 509.06598,689.73734 509.07587,689.69566 509.36659,689.65279 C 509.60322,689.6179 509.7716,689.37333 510.1167,688.56323 C 510.36145,687.98871 511.04867,686.67435 511.64386,685.64242 C 512.5282,684.10919 512.75427,683.59762 512.88051,682.8441 C 512.96548,682.33694 512.99792,681.862 512.9526,681.78866 C 512.75479,681.46861 511.49423,681.00806 510.24032,680.79772 C 509.49314,680.67239 508.16844,680.34758 507.29655,680.07592 L 505.7113,679.58198 L 505.57236,679.02499 C 505.49595,678.71864 505.39088,678.14293 505.33888,677.74564 C 505.27088,677.22623 505.1637,676.9716 504.95737,676.83928 C 504.45334,676.51608 501.87673,675.68304 501.38107,675.68304 C 501.04863,675.68304 500.70565,675.53819 500.25524,675.20756 C 499.63547,674.7526 499.55787,674.73208 498.4574,674.73208 C 497.41001,674.73208 497.25996,674.76644 496.77746,675.11675 C 496.48605,675.32831 496.01154,675.79017 495.72298,676.14309 C 495.24602,676.72644 495.15959,676.77657 494.77202,676.69472 C 494.53755,676.6452 494.14703,676.48403 493.90419,676.33656 C 493.47599,676.07651 493.46268,676.04072 493.46268,675.14916 L 493.46268,674.22989 L 492.91927,674.01643 C 492.46215,673.83687 492.37587,673.74143 492.37587,673.41539 C 492.37587,673.10563 492.47818,672.97407 492.88531,672.76026 C 493.1655,672.61311 493.74627,672.16198 494.1759,671.75773 L 494.95704,671.02273 L 494.95704,668.48078 C 494.95704,667.0827 494.89797,665.62734 494.82577,665.24665 C 494.69279,664.54545 494.88196,663.73867 495.22975,663.52372 C 495.30728,663.4758 496.28739,664.02182 497.40776,664.73709 C 499.37965,665.99599 499.46996,666.03759 500.23089,666.03759 C 500.76976,666.03759 501.46098,665.88806 502.42887,665.56211 C 504.21147,664.96179 504.56521,664.96179 505.55345,665.56211 L 506.33617,666.03759 L 508.08447,666.03905 C 510.16938,666.04078 513.15557,666.33857 514.69712,666.69848 C 515.30933,666.84141 516.83136,667.03543 518.0794,667.12962 L 520.34858,667.30089 L 520.41569,667.65416 C 520.4526,667.84846 520.52278,668.39115 520.57164,668.86013 C 520.6511,669.62297 520.70197,669.73429 521.05426,669.91647 C 521.52011,670.15737 521.53885,670.26055 521.17635,670.58861 C 520.94891,670.79445 520.90465,671.00703 520.90465,671.89373 L 520.90465,672.95296 L 521.50278,673.36448 L 522.10091,673.77601 L 522.18385,675.03519 C 522.41728,678.57926 522.38316,678.38489 522.81063,678.60594 C 523.07004,678.74009 523.6067,678.80762 524.41341,678.80762 C 525.36444,678.80762 525.66551,678.855 525.8084,679.02718 C 526.06711,679.33892 526.33426,680.16083 526.33666,680.6525 C 526.33779,680.88264 526.48544,681.43161 526.66479,681.87244 L 526.99088,682.67394 L 526.65135,683.35592 C 526.46461,683.731 525.96827,684.38941 525.54837,684.81904 C 524.88692,685.49582 524.71675,685.60019 524.27471,685.60019 C 523.84712,685.60019 523.73094,685.66509 523.55724,686.00099 C 523.44324,686.22144 523.34997,686.58536 523.34997,686.80971 C 523.34997,687.41472 523.0928,687.87068 522.64753,688.05511 C 521.79078,688.40999 521.58391,688.6857 521.58391,689.47265 C 521.58391,690.08151 521.62843,690.21495 521.85561,690.28706 C 522.17317,690.38785 522.20599,690.8085 521.97454,691.81122 C 521.83891,692.3988 521.85406,692.53638 522.1095,693.03709 L 522.39724,693.6011 L 521.99165,693.84069 C 521.76294,693.9758 521.52176,694.27513 521.4386,694.5271 L 521.29114,694.97393 L 518.6057,694.97393 C 516.09279,694.97393 515.90446,694.99139 515.67437,695.24563 C 515.47051,695.4709 515.25215,695.51816 514.39669,695.52215 C 513.75956,695.52512 513.23499,695.60122 513.02527,695.72111 C 512.54734,695.99432 512.47166,695.96897 511.94783,695.3602 L 511.94783,695.36019 z"/>
<path title="Surguja" d="M 547.93907,705.69445 L 547.93907,704.73176 L 547.19008,704.0121 C 546.45599,703.30676 546.42079,703.29054 545.42071,703.19683 C 544.60378,703.12028 544.24682,703.00877 543.63048,702.63763 C 543.20705,702.38266 542.74762,702.17405 542.60948,702.17405 C 542.08843,702.17405 541.17727,702.78085 540.0905,703.85162 L 538.96656,704.959 L 539.05307,705.53637 L 539.13958,706.11374 L 537.56186,706.11374 C 536.01648,706.11374 535.98414,706.10748 535.9835,705.80808 C 535.98285,705.49975 534.84168,704.68211 532.82561,703.54547 C 532.21024,703.19854 532.04446,703.03511 532.04446,702.77541 C 532.04446,702.45097 532.02521,702.44575 530.82755,702.44575 C 529.62953,702.44575 529.57902,702.43205 527.57158,701.56272 C 526.08369,700.91838 525.37084,700.67969 524.9344,700.67969 L 524.33628,700.67969 L 524.1748,699.85889 C 524.08599,699.40745 523.86407,698.81815 523.68165,698.54934 C 523.42566,698.17212 523.34997,697.88338 523.34997,697.28398 C 523.34997,696.60398 523.29017,696.42904 522.86924,695.87777 C 522.60484,695.53149 522.23804,695.21041 522.05413,695.16425 C 521.4591,695.01491 521.66877,694.43905 522.52114,693.88162 L 522.84114,693.67235 L 522.5311,693.06652 C 522.24171,692.50101 522.23152,692.39947 522.37797,691.54116 C 522.59122,690.29135 522.58414,690.23576 522.18864,690.05556 C 521.88814,689.91864 521.84777,689.82483 521.88297,689.34525 C 521.92067,688.83173 521.97391,688.7657 522.63652,688.4106 C 523.46367,687.96734 523.65199,687.68791 523.75237,686.75492 C 523.82353,686.09354 523.83797,686.07455 524.30093,686.03324 C 524.68066,685.99936 524.97141,685.79818 525.74468,685.0343 C 526.3088,684.47703 526.84525,683.79531 527.02992,683.40103 L 527.3469,682.72427 L 527.04655,681.88672 C 526.88136,681.42607 526.74621,680.85825 526.74623,680.62492 C 526.74626,680.08282 526.30891,679.09047 525.90111,678.70736 C 525.62731,678.45013 525.40491,678.40542 524.22989,678.37139 L 522.87449,678.33214 L 522.76982,677.38118 C 522.71225,676.85815 522.63005,675.83238 522.58715,675.10169 L 522.50915,673.77315 L 521.91068,673.27289 L 521.3122,672.77262 L 521.3122,671.82522 C 521.3122,671.03018 521.36136,670.82525 521.61787,670.55088 L 521.92354,670.22393 L 521.4276,669.79494 C 520.95922,669.38979 520.92649,669.30744 520.83864,668.3131 L 520.74562,667.26025 L 521.4025,667.25753 C 522.53226,667.25285 524.46037,666.67916 525.17164,666.13607 C 525.60735,665.80338 526.00896,665.62615 526.47119,665.56258 C 527.26467,665.45344 527.36497,665.35294 527.5617,664.46974 C 527.66528,664.00478 527.86539,663.6382 528.20755,663.2866 C 528.68067,662.80043 528.74395,662.77714 529.59274,662.77665 C 530.55792,662.7761 531.3652,662.43031 531.3652,662.01744 C 531.3652,661.69018 531.6251,661.8361 533.02953,662.95184 C 533.97268,663.70112 534.71224,664.14258 535.99526,664.72212 C 537.68218,665.4841 537.72113,665.49419 538.97503,665.49419 L 540.24554,665.49419 L 541.74887,664.67635 C 542.80241,664.10321 543.33981,663.72351 543.54501,663.40728 C 543.76381,663.07008 544.08631,662.85619 544.82108,662.56094 C 545.66181,662.2231 545.90649,662.04297 546.50898,661.31833 L 547.21361,660.47084 L 547.36864,658.88823 C 547.45394,658.01779 547.55473,657.2746 547.59265,657.23668 C 547.63056,657.19877 548.00216,657.26463 548.41842,657.38305 C 549.29587,657.63266 552.07578,659.55466 552.7043,660.34624 C 553.19865,660.96884 553.31658,661.28813 553.43686,662.32946 L 553.53422,663.17234 L 555.21974,664.68504 C 556.14677,665.51701 556.90526,666.25103 556.90526,666.31619 C 556.90526,666.38134 557.63016,667.18589 558.51617,668.10408 L 560.12707,669.7735 L 560.42227,671.24766 L 560.71747,672.72181 L 561.83405,674.00948 L 562.95064,675.29716 L 564.58086,675.21728 C 565.47748,675.17335 566.8746,675.1016 567.68558,675.05782 L 569.16008,674.97824 L 569.08464,675.50045 C 569.04316,675.78767 568.97254,676.51173 568.92771,677.10948 C 568.8415,678.25889 568.48932,679.34785 567.92302,680.21603 L 567.58032,680.74141 L 567.98989,681.09907 C 568.21513,681.29578 568.77819,681.74704 569.24113,682.10187 L 570.08284,682.74703 L 570.07806,684.68305 C 570.07522,685.84119 569.99526,686.97387 569.87906,687.50211 C 569.77223,687.98777 569.68269,688.58382 569.68005,688.82666 L 569.67529,689.26817 L 568.46064,689.26817 C 567.79259,689.26817 567.20821,689.32931 567.16204,689.40402 C 567.11586,689.47874 566.92642,689.53988 566.74105,689.53988 C 566.55569,689.53988 566.16437,689.66214 565.87145,689.81158 C 565.57853,689.96101 565.24883,690.08328 565.13877,690.08328 C 565.02872,690.08328 564.70874,689.7929 564.42771,689.43799 C 564.14668,689.08308 563.71963,688.57873 563.47871,688.31721 C 563.23779,688.0557 563.02042,687.6889 562.99567,687.50211 C 562.95073,687.16311 562.94725,687.16234 561.11665,687.08825 C 559.8364,687.03644 559.08877,686.94062 558.6405,686.77089 L 557.99833,686.52775 L 555.78762,688.26336 C 554.57173,689.21795 553.33979,690.18215 553.04997,690.40602 C 552.41727,690.89477 552.15046,691.47648 552.15046,692.36712 C 552.15046,692.73142 552.0282,693.38485 551.87876,693.81919 C 551.54414,694.79179 551.54414,694.9537 551.87876,695.38148 C 552.03199,695.57737 552.14569,695.93525 552.14745,696.22707 C 552.1499,696.6397 552.21937,696.76893 552.52405,696.92773 C 553.10487,697.23044 555.51663,699.84796 556.11334,700.82325 C 556.30058,701.1293 556.31515,701.29328 556.19659,701.76033 C 556.05939,702.30092 556.07288,702.34708 556.49599,702.78361 L 556.93907,703.24076 L 556.84811,704.57536 C 556.70095,706.73424 556.73679,706.65715 555.88036,706.65715 C 555.28779,706.65715 555.12112,706.60551 555.00334,706.38544 C 554.92146,706.23246 554.71889,706.11374 554.53972,706.11374 C 554.3647,706.11374 554.1454,706.02204 554.05238,705.90996 C 553.95936,705.79789 553.68115,705.70619 553.43412,705.70619 C 553.18709,705.70619 552.89328,705.79789 552.78121,705.90996 C 552.66913,706.02204 552.36123,706.11374 552.09702,706.11374 C 551.75565,706.11374 551.57453,706.19238 551.4712,706.38544 C 551.33773,706.63484 551.18676,706.65715 549.63243,706.65715 L 547.93907,706.65715 L 547.93907,705.69445 z"/>
<path title="Jashpur" d="M 563.56198,718.22556 C 563.56198,717.7399 563.49076,717.50291 563.29027,717.32148 C 563.14084,717.18624 563.01857,716.97345 563.01857,716.84862 C 563.01857,716.49829 562.40731,715.991 562.10197,716.08791 C 561.93442,716.14109 561.75314,716.07296 561.59387,715.89696 C 561.40489,715.68814 561.17541,715.62334 560.6249,715.62334 C 560.04258,715.62334 559.87553,715.57097 559.75814,715.35163 C 559.64721,715.14437 559.47369,715.07993 559.02644,715.07993 C 558.704,715.07993 558.24765,715.01282 558.01234,714.93079 L 557.58452,714.78164 L 557.58452,713.02194 L 557.58452,711.26223 L 557.1134,711.06538 C 556.78988,710.93021 556.11952,710.86793 554.97374,710.86658 L 553.3052,710.86462 L 552.93161,710.18725 C 552.72613,709.8147 552.55802,709.39987 552.55802,709.26542 C 552.55802,708.82358 552.26411,708.69492 551.25479,708.69492 C 550.15366,708.69492 550.11269,708.65797 550.11269,707.66492 L 550.11269,707.0647 L 550.79486,707.0647 C 551.39067,707.0647 551.49662,707.02171 551.63178,706.72507 C 551.76581,706.4309 551.87452,706.38544 552.44397,706.38544 C 552.80556,706.38544 553.10142,706.32431 553.10142,706.24959 C 553.10142,706.17487 553.25064,706.11374 553.43303,706.11374 C 553.61541,706.11374 553.80243,706.17487 553.8486,706.24959 C 553.89478,706.32431 554.07476,706.38544 554.24855,706.38544 C 554.4357,706.38544 554.65528,706.52393 554.78706,706.72507 C 554.98531,707.02762 555.10195,707.06447 555.85555,707.06262 C 556.32081,707.06148 556.76899,707.01563 556.8515,706.96073 C 556.93417,706.90575 557.07177,706.04018 557.15793,705.03344 L 557.31436,703.20596 L 556.85645,702.72397 C 556.43968,702.28526 556.40996,702.20041 556.52546,701.7792 C 556.69889,701.14667 556.59268,700.82614 555.97733,700.12496 C 555.68769,699.79496 555.35583,699.34155 555.23983,699.1174 C 554.99829,698.65067 552.93783,696.60415 552.70946,696.60415 C 552.62619,696.60415 552.55802,696.4175 552.55802,696.18938 C 552.55802,695.96126 552.41082,695.55801 552.23093,695.29327 L 551.90384,694.81192 L 552.23093,693.85025 C 552.41082,693.32132 552.56231,692.57833 552.56757,692.19915 C 552.57281,691.81996 552.61866,691.4093 552.66945,691.28656 C 552.78019,691.01897 557.95055,686.95741 558.17503,686.96168 C 558.2612,686.96332 558.59818,687.08559 558.9239,687.23339 C 559.40286,687.45072 559.81199,687.50211 561.06356,687.50211 C 562.46434,687.50211 562.61102,687.52533 562.61102,687.74716 C 562.61102,687.88194 562.82987,688.20289 563.09738,688.46038 C 563.36487,688.71787 563.79246,689.21137 564.04758,689.55704 C 564.69152,690.42959 565.1349,690.59489 565.85119,690.22947 C 566.15524,690.07435 566.53088,689.94743 566.68592,689.94743 C 566.84098,689.94743 567.11188,689.85304 567.28794,689.73767 C 567.52382,689.58312 567.88794,689.53843 568.67151,689.56786 L 569.73492,689.6078 L 569.91415,690.24377 C 570.09075,690.87045 570.10668,690.88407 571.00509,691.17626 C 572.29981,691.59733 572.45163,691.7897 572.92997,693.61542 C 573.15512,694.47468 573.43418,695.24724 573.55013,695.33224 C 573.66608,695.41723 574.15799,695.52929 574.64325,695.58125 C 575.12852,695.63322 575.88919,695.8235 576.33363,696.00409 C 577.02532,696.28515 577.36574,696.33244 578.69693,696.33244 L 580.25214,696.33244 L 580.33831,697.11359 C 580.3857,697.54322 580.45258,698.04757 580.48692,698.23436 C 580.57843,698.73211 577.93873,701.34584 576.65646,702.02711 C 575.77752,702.49409 575.71221,702.56481 575.03381,703.78379 C 574.61947,704.52829 574.00922,705.375 573.55914,705.82981 C 572.81847,706.57831 572.74468,706.61691 571.47105,706.9223 C 570.7449,707.09642 569.85674,707.32541 569.49737,707.43116 C 568.78498,707.6408 567.7207,708.49757 567.82737,708.77555 C 567.86399,708.87099 567.83647,708.9683 567.76622,708.9918 C 567.62219,709.04 567.37638,710.73442 567.37001,711.72302 C 567.3675,712.11306 567.47466,712.58707 567.63752,712.90631 C 567.78695,713.19923 567.90922,713.55975 567.90922,713.70746 C 567.90922,713.85517 567.57947,714.50123 567.17644,715.14314 C 566.77341,715.78505 566.40335,716.53778 566.35409,716.81586 C 566.20072,717.6816 566.14695,717.77081 565.4388,718.33465 C 564.87039,718.78723 564.64479,718.88377 564.15556,718.88377 L 563.56198,718.88377 L 563.56198,718.22556 z"/>
<path title="Raigarh" d="M 544.67864,749.94053 L 544.67864,749.58617 L 542.50979,749.58617 C 540.10347,749.58617 540.17941,749.6153 539.99284,748.6208 C 539.91795,748.2216 539.77778,748.06117 539.19964,747.713 C 538.45968,747.26737 534.9614,745.73523 534.31372,745.57312 C 534.0539,745.50808 533.78562,745.24627 533.46465,744.74452 C 532.92544,743.9016 532.88684,743.61324 533.26712,743.26909 C 533.47465,743.08127 533.53883,742.85067 533.53883,742.29271 C 533.53883,741.89094 533.63053,741.34275 533.7426,741.07451 C 533.85468,740.80627 533.94638,740.40934 533.94638,740.19245 C 533.94638,739.67597 534.81237,737.96483 535.2032,737.70905 C 535.76971,737.3383 536.5641,737.30291 537.27373,737.61681 C 537.662,737.78856 538.20399,737.90296 538.62947,737.90296 C 539.1658,737.90296 539.39817,737.96909 539.58421,738.17466 C 539.79947,738.41252 540.00263,738.44636 541.21521,738.44636 C 541.97702,738.44636 542.79284,738.37925 543.02815,738.29722 C 543.41791,738.16135 543.45597,738.09648 543.45597,737.56816 C 543.45597,736.67292 542.55704,734.71663 541.73157,733.81544 C 541.54976,733.61695 541.28696,733.01305 541.12812,732.42869 C 540.86536,731.46207 540.80045,731.35878 540.14755,730.86836 C 539.62242,730.47391 539.1007,730.24828 538.05185,729.96201 C 537.28377,729.75238 536.50432,729.46207 536.31975,729.31688 C 535.99794,729.06374 535.98415,728.98931 535.98415,727.50525 C 535.98415,726.09664 535.95974,725.94453 535.71245,725.81219 C 535.52254,725.71055 535.44074,725.52774 535.44074,725.20492 C 535.44074,724.41 535.64227,724.09213 536.28104,723.87949 C 536.81458,723.70189 536.87395,723.63659 536.94255,723.15203 C 537.02649,722.55916 537.222,722.14175 537.53902,721.87865 C 537.67173,721.76852 537.75022,721.48033 537.75022,721.10327 C 537.75022,720.74827 537.8725,720.26955 538.04959,719.9312 C 538.21424,719.61663 538.38994,718.99245 538.44003,718.54414 C 538.49011,718.09583 538.69491,717.34484 538.89513,716.87528 C 539.24714,716.04974 539.25667,715.95993 539.18349,714.15825 C 539.14187,713.13345 539.07414,710.96533 539.03299,709.34021 C 538.96128,706.50831 538.96884,706.38544 539.21459,706.38544 C 539.59725,706.38544 539.62615,706.30073 539.4725,705.62931 L 539.33198,705.01521 L 540.20528,704.12715 C 540.68559,703.63872 541.41974,703.06494 541.83671,702.85208 L 542.59485,702.46507 L 543.44754,702.93767 C 544.09317,703.29551 544.5736,703.44556 545.42599,703.55559 C 546.39303,703.68043 546.5717,703.7447 546.69323,704.01143 C 546.77105,704.18222 547.01978,704.43127 547.24597,704.56488 C 547.6432,704.79953 547.65856,704.84516 547.69626,705.9023 L 547.73529,706.99677 L 548.72021,707.03669 L 549.70514,707.0766 L 549.70514,707.68873 C 549.70514,708.0254 549.79841,708.48122 549.91241,708.70166 C 550.11386,709.09127 550.14805,709.10247 551.13507,709.10247 C 551.97508,709.10247 552.15046,709.14 552.15046,709.31973 C 552.15046,709.43923 552.37312,709.89773 552.64525,710.33862 L 553.14004,711.14024 L 554.75532,711.14024 C 555.8585,711.14024 556.51993,711.20265 556.84169,711.33709 L 557.31281,711.53393 L 557.31281,713.29364 L 557.31281,715.05335 L 557.74064,715.20249 C 557.97594,715.28452 558.43303,715.35163 558.7564,715.35163 C 559.2336,715.35163 559.38623,715.41559 559.56686,715.69126 C 559.76137,715.98813 559.8874,716.03089 560.56781,716.03089 C 561.16925,716.03089 561.4012,716.09162 561.58797,716.298 C 561.72092,716.44491 561.95589,716.55189 562.1101,716.53574 C 562.28454,716.51747 562.4507,716.62382 562.54979,716.81713 C 562.6374,716.98805 562.83984,717.26708 562.99967,717.43721 C 563.19788,717.64819 563.29027,717.92158 563.29027,718.29704 C 563.29027,718.831 563.26941,718.85621 562.5963,719.13594 C 562.21461,719.29456 561.4963,719.49182 561.00005,719.5743 C 559.98623,719.74279 558.93639,720.35372 557.19881,721.78631 L 556.20178,722.60835 L 556.28723,723.3612 C 556.33423,723.77526 556.40652,724.36555 556.44786,724.67295 L 556.52301,725.23185 L 555.08596,726.0879 C 554.29555,726.55872 553.61995,727.04081 553.58459,727.15921 C 553.54924,727.2776 553.45137,728.0303 553.36712,728.83186 L 553.21392,730.28923 L 553.72532,731.14133 C 554.00658,731.60998 554.58208,732.39079 555.0042,732.87646 C 555.42631,733.36213 555.81346,733.8312 555.86453,733.91883 C 555.99947,734.15038 553.89307,734.95027 552.90536,735.04256 L 552.09797,735.118 L 551.77057,735.93311 C 551.55463,736.47071 551.39011,737.28012 551.28737,738.31051 L 551.13158,739.8728 L 549.77306,740.12184 C 549.02588,740.2588 548.28654,740.42127 548.13008,740.48286 C 547.92851,740.56221 547.71674,740.95222 547.4035,741.82093 L 546.96139,743.047 L 547.00872,745.49482 C 547.042,747.21701 547.10638,747.99295 547.22585,748.11233 C 547.45689,748.34318 547.43916,748.80649 547.17836,749.3534 C 546.98462,749.75966 546.87038,749.82749 546.12551,749.97851 C 545.66596,750.07168 545.15242,750.18099 544.9843,750.2214 C 544.72666,750.28334 544.67864,750.23922 544.67864,749.94053 L 544.67864,749.94053 z"/>
<path title="Mahasamund" d="M 514.04415,765.48077 C 513.67617,765.10718 513.26583,764.76683 513.13226,764.72444 C 512.9987,764.68205 512.88866,764.57507 512.88774,764.4867 C 512.88496,764.22156 511.9741,763.71477 511.49885,763.71395 C 511.25496,763.71353 510.59693,763.57353 510.03654,763.40285 L 509.01766,763.09252 L 508.9784,761.90932 L 508.93916,760.72611 L 508.36707,760.43804 C 508.05243,760.2796 507.36706,759.75703 506.84404,759.27677 C 505.54378,758.08283 505.59797,758.13679 505.14356,757.58347 C 504.60181,756.92381 504.57304,756.03799 505.07797,755.56363 C 505.26476,755.38815 505.4217,755.08711 505.42673,754.89466 C 505.43695,754.50297 506.43428,753.60972 508.02991,752.56317 C 508.82971,752.03859 508.94443,751.91097 508.9469,751.54311 C 508.95147,750.86413 509.54116,750.47542 510.87487,750.27223 C 511.34777,750.20018 511.86732,750.1022 512.02943,750.05449 C 512.28466,749.97938 512.40673,750.10879 512.94009,751.01992 C 513.27884,751.59862 513.59428,752.24636 513.64106,752.45935 C 513.72277,752.83141 513.75737,752.84661 514.52241,752.84661 C 514.96038,752.84661 515.35649,752.78547 515.40267,752.71075 C 515.54073,752.48737 515.95519,752.55645 516.21778,752.84661 C 516.35302,752.99604 516.55287,753.11831 516.66189,753.11831 C 516.77091,753.11831 517.63258,752.69723 518.57671,752.18259 C 519.52085,751.66794 520.57744,751.14239 520.9247,751.01471 C 521.27197,750.88702 521.74602,750.58659 521.97816,750.34708 C 522.38637,749.92591 522.42584,749.91482 523.18077,750.00913 C 523.61006,750.06277 524.2364,750.11071 524.57264,750.11568 L 525.18397,750.1247 L 525.99786,748.73467 C 526.4455,747.97014 527.01888,747.11451 527.27204,746.83325 C 527.5252,746.552 527.77261,746.12406 527.82184,745.88229 L 527.91135,745.44271 L 528.95903,745.40303 C 529.89511,745.36758 530.00669,745.33502 530.00669,745.09737 C 530.00669,744.73832 530.56288,744.74192 530.88972,745.10308 C 531.227,745.47576 531.31735,745.4535 531.99227,744.83138 C 532.31651,744.5325 532.63138,744.28797 532.69198,744.28797 C 532.75258,744.28797 533.00254,744.6186 533.24745,745.02269 C 533.5511,745.5237 533.8087,745.78633 534.0573,745.84831 C 534.66808,746.00059 538.60038,747.71442 539.1293,748.05885 C 539.4999,748.30019 539.64882,748.5084 539.71816,748.88214 C 539.892,749.81909 539.99299,749.85788 542.25863,749.85788 C 544.00444,749.85788 544.29122,749.88814 544.3649,750.08014 C 544.41181,750.20238 544.21293,751.25693 543.92294,752.42357 C 543.35819,754.69563 542.44562,756.83635 541.77995,757.45064 L 541.42807,757.77535 L 539.96274,757.3513 C 539.1568,757.11808 538.0389,756.8599 537.47852,756.77757 C 536.91813,756.69525 535.94264,756.48013 535.31077,756.29954 C 533.90006,755.89635 533.4753,755.89075 532.48258,756.26223 C 531.86493,756.49336 531.2434,756.57424 529.46329,756.65515 C 527.06761,756.76403 525.27987,757.12643 523.79088,757.80502 C 522.88679,758.21704 522.80329,758.42849 522.691,760.59013 L 522.60279,762.28828 L 521.76132,763.39106 L 520.91984,764.49383 L 519.51977,765.05582 C 518.29017,765.54937 515.78523,766.16004 514.99028,766.16004 C 514.83755,766.16004 514.41292,765.85517 514.04415,765.48078 L 514.04415,765.48077 z"/>
<path title="Raipur" d="M 519.07349,801.62229 C 517.88651,800.42764 517.83669,800.39458 517.22344,800.39458 C 516.67947,800.39458 516.47459,800.48477 515.72625,801.05363 C 514.44127,802.03044 514.48726,802.03842 513.9994,800.75408 C 513.59434,799.68773 513.50565,799.57161 511.8291,797.91274 L 510.08112,796.18319 L 509.04876,796.18319 L 508.01639,796.18319 L 507.63399,795.63791 L 507.25159,795.09262 L 505.55345,795.11236 L 503.85531,795.13211 L 503.14716,793.92723 C 502.61416,793.02037 502.34536,792.69408 502.06035,792.60802 C 501.26868,792.36896 501.29876,792.39143 501.47924,792.17397 C 501.57665,792.05659 501.88221,791.96978 502.20776,791.96698 C 502.51616,791.96434 502.92133,791.8748 503.10812,791.76802 C 503.29492,791.66124 503.73355,791.5717 504.08287,791.56906 C 504.68789,791.56447 504.73303,791.53689 505.03567,790.98687 C 505.32747,790.45657 505.40304,790.40594 505.96285,790.36579 C 506.50412,790.32698 506.62175,790.25539 507.01385,789.72621 C 507.44223,789.14807 507.45537,789.09025 507.45537,787.7832 C 507.45537,786.93299 507.53054,786.22299 507.65914,785.85848 C 507.77122,785.54082 507.86292,784.9716 507.86292,784.59353 C 507.86292,784.08969 507.93657,783.82775 508.13876,783.61254 C 508.40419,783.33 508.40799,783.26562 508.23954,781.90564 L 508.06449,780.49236 L 507.1486,780.45218 C 506.34136,780.41678 506.2327,780.38025 506.2327,780.14426 C 506.2327,779.79102 504.84751,777.03844 504.16069,776.02689 C 503.20822,774.62408 502.97227,773.85312 502.97227,772.14369 C 502.97227,770.65074 502.97211,770.65003 502.59868,770.461 C 502.39321,770.35699 501.99584,770.23038 501.71565,770.17965 L 501.2062,770.08741 L 501.2062,768.75169 C 501.2062,767.27847 501.18186,767.22898 500.30889,766.92793 C 499.81204,766.75658 499.77732,766.70879 499.73964,766.14443 C 499.69612,765.49255 499.64151,765.45484 498.14955,765.04637 C 497.45609,764.85651 497.26651,764.70413 497.26651,764.33658 C 497.26651,763.86807 496.99699,763.71471 496.17359,763.71471 C 495.56678,763.71471 495.35275,763.65509 495.14823,763.4291 C 494.6538,762.88276 494.22161,762.76375 492.73194,762.76375 C 491.09547,762.76375 490.96305,762.69427 490.82328,761.76221 C 490.76463,761.37112 490.56569,760.94533 490.26476,760.56678 L 489.79733,759.9788 L 489.79601,756.90924 C 489.79477,754.01311 489.77934,753.82578 489.52299,753.59379 C 489.31268,753.40347 489.25128,753.17537 489.25128,752.58441 L 489.25128,751.82092 L 490.27017,750.80884 C 491.09192,749.99257 491.28906,749.71699 491.28906,749.38451 C 491.28906,749.1194 491.38603,748.91172 491.56076,748.80259 C 491.76953,748.67221 491.83246,748.48578 491.83246,747.9977 C 491.83246,747.62809 491.95293,747.11364 492.12056,746.76735 C 492.30045,746.39574 492.44267,745.75458 492.49921,745.06028 C 492.5863,743.99079 492.6168,743.91162 493.29792,742.9863 C 494.09095,741.90896 494.15343,741.57725 493.72245,740.73245 L 493.43882,740.17649 L 494.18117,739.41332 C 494.63798,738.94369 495.01801,738.39523 495.16917,737.98742 C 495.47918,737.15107 495.90364,736.952 497.37695,736.952 C 498.27454,736.952 498.48671,736.90819 498.69295,736.6803 C 498.87053,736.48408 499.11227,736.40831 499.56308,736.40758 C 500.47584,736.40611 501.58917,735.49773 502.22452,734.2361 C 502.4787,733.73138 502.78649,733.28011 502.9085,733.23329 C 503.03052,733.18647 503.53405,733.14816 504.02748,733.14816 C 504.73501,733.14816 504.98519,733.20508 505.2113,733.41749 C 505.48114,733.671 505.56813,733.67745 506.69131,733.52717 L 507.88462,733.3675 L 510.25117,735.74488 C 512.10938,737.61158 512.61772,738.19873 512.61772,738.47832 C 512.61772,738.78575 512.72045,738.87283 513.36961,739.11571 L 514.12151,739.39703 L 514.92761,739.12548 C 515.37098,738.97612 515.80873,738.85392 515.90039,738.85392 C 515.99206,738.85392 516.22324,738.70836 516.41412,738.53045 L 516.76118,738.20699 L 519.66868,738.34942 C 521.69008,738.44845 523.08986,738.44868 524.26168,738.35018 C 526.17869,738.18904 529.20355,738.34434 530.07462,738.64861 C 530.37349,738.75302 530.97674,738.90231 531.41517,738.98037 C 531.85359,739.05844 532.49549,739.29699 532.84161,739.5105 C 533.43142,739.87433 533.46885,739.93196 533.43825,740.42915 C 533.32655,742.24363 533.23153,742.72876 532.91389,743.10625 C 532.73458,743.31935 532.58787,743.61128 532.58787,743.75499 C 532.58787,743.89869 532.52691,744.01627 532.45241,744.01627 C 532.37791,744.01627 532.08099,744.22944 531.7926,744.48998 C 531.26865,744.96334 531.26808,744.96348 531.0181,744.68726 C 530.65357,744.28447 529.68564,744.36093 529.62365,744.79741 C 529.58308,745.08308 529.5142,745.10308 528.5708,745.10308 C 527.5794,745.10308 527.56137,745.10927 527.56137,745.44945 C 527.56137,745.87143 527.27888,746.44215 526.90055,746.78454 C 526.74595,746.92444 526.2411,747.6782 525.77867,748.45954 C 524.95993,749.84289 524.92683,749.87829 524.51751,749.80851 C 524.28631,749.7691 523.67963,749.69531 523.16932,749.64453 L 522.24149,749.5522 L 521.74288,750.03542 C 521.46865,750.30119 520.93861,750.64109 520.56502,750.79074 C 520.19143,750.9404 519.15428,751.46247 518.26024,751.9509 L 516.6347,752.83896 L 516.34956,752.57108 C 516.0501,752.28975 515.27513,752.20579 515.13097,752.43905 C 515.08479,752.51377 514.81271,752.5749 514.52635,752.5749 C 514.07903,752.5749 513.99321,752.52518 513.9171,752.22194 C 513.85143,751.96031 512.87967,750.12669 512.53047,749.60552 C 512.51257,749.57881 512.20393,749.62183 511.8446,749.70112 C 511.48528,749.78042 510.8513,749.91106 510.43578,749.99144 C 510.02025,750.07182 509.45477,750.29082 509.17915,750.47811 C 508.77044,750.75584 508.67803,750.90186 508.67803,751.26998 C 508.67803,751.66914 508.5877,751.78091 507.89688,752.23661 C 506.45515,753.18765 505.01004,754.47441 505.01004,754.80712 C 505.01004,754.97589 504.88778,755.22462 504.73834,755.35986 C 504.5245,755.55338 504.46664,755.77827 504.46664,756.41582 C 504.46664,757.44587 504.62308,757.6623 506.77611,759.61083 C 507.3365,760.11799 507.99147,760.61344 508.2316,760.71184 L 508.66821,760.89073 L 508.70708,762.12745 L 508.74595,763.36417 L 509.76484,763.67453 C 510.32523,763.84522 510.99047,763.98523 511.24317,763.98565 C 511.76681,763.98652 512.61772,764.4564 512.61772,764.74468 C 512.61772,764.85066 512.68339,764.93738 512.76365,764.93738 C 512.84392,764.93738 513.27185,765.28291 513.71461,765.70524 C 514.26828,766.23334 514.51964,766.57675 514.51964,766.80505 C 514.51964,766.98763 514.61047,767.29927 514.72149,767.49759 C 514.8325,767.69592 515.10082,768.57613 515.31774,769.45363 L 515.71214,771.04909 L 515.11598,772.98577 C 514.65191,774.49335 514.51981,775.13412 514.51973,775.87776 C 514.51964,776.81962 514.53016,776.84766 515.26682,777.86915 L 516.014,778.90523 L 516.014,780.35188 C 516.014,781.14754 516.0839,782.22178 516.16933,782.73909 C 516.28581,783.44442 516.28586,784.02082 516.16953,785.04388 L 516.0144,786.40812 L 516.62535,787.62459 L 517.23631,788.84107 L 517.10185,791.05172 C 517.0279,792.26759 516.96879,793.56805 516.97049,793.94164 L 516.97359,794.6209 L 517.88627,795.24815 C 518.79449,795.87234 520.36804,796.43157 521.85561,796.65884 C 524.39356,797.04659 526.18263,797.45183 526.77148,797.77232 C 527.51605,798.17756 527.69518,798.58265 527.69646,799.86408 C 527.69736,800.76618 527.51007,800.99285 526.59418,801.1981 C 526.08328,801.31259 525.80227,801.2895 525.03451,801.06995 C 524.42727,800.89629 523.68507,800.80213 522.92342,800.80213 C 521.58236,800.80213 521.58926,800.79637 521.45922,802.0248 L 521.38013,802.77198 L 520.83672,802.81099 C 520.31545,802.84842 520.24365,802.80001 519.07349,801.62229 L 519.07349,801.62229 z"/>
<path title="Dhamtari" d="M 499.03262,792.01105 C 499.0326,791.92056 498.75735,791.5086 498.42095,791.09559 C 498.08455,790.68258 497.62729,790.04885 497.40482,789.6873 C 497.05093,789.11213 497.01698,788.97189 497.13343,788.56588 C 497.39993,787.63663 497.19272,786.08286 496.66662,785.0655 C 496.54825,784.83659 496.45141,784.45469 496.45141,784.21681 C 496.45141,783.41749 496.15368,782.72748 495.64507,782.34801 C 495.37874,782.1493 495.1365,781.92906 495.10679,781.85859 C 494.958,781.50575 494.38766,781.10369 494.03594,781.10369 C 493.79995,781.10369 493.52499,780.975 493.33981,780.77788 C 493.14234,780.56768 492.80854,780.41958 492.39913,780.3605 C 491.46435,780.2256 490.35256,779.67554 489.65884,779.00473 C 489.08105,778.44603 488.99758,778.41066 488.13739,778.36016 C 487.42694,778.31846 487.02458,778.2013 486.30339,777.82616 C 485.50145,777.40902 485.37407,777.29108 485.33824,776.93251 C 485.31096,776.65951 485.36698,776.49256 485.50341,776.4402 C 485.61696,776.39663 486.29272,775.92288 487.00509,775.38742 L 488.30033,774.41387 L 488.30334,771.95113 C 488.30609,769.71609 488.33093,769.457 488.57203,769.14877 C 488.71814,768.96197 488.83905,768.73727 488.84071,768.64943 C 488.84237,768.56159 488.5992,767.98406 488.30033,767.36603 C 488.00145,766.748 487.75692,766.17199 487.75692,766.08602 C 487.75692,765.93925 488.5359,765.17084 489.95427,763.91849 C 490.29276,763.61962 490.634,763.25562 490.71257,763.1096 C 490.83723,762.87793 490.90117,762.86495 491.21449,763.00771 C 491.4188,763.1008 492.16537,763.17131 492.9468,763.17131 C 494.23611,763.17131 494.34988,763.19415 494.80778,763.5449 C 495.17429,763.82565 495.49821,763.93537 496.11119,763.98642 C 496.91162,764.05307 496.92767,764.06242 496.9687,764.48574 C 497.02127,765.02808 497.115,765.09703 498.31227,765.47406 L 499.29011,765.782 L 499.33116,766.33077 C 499.37404,766.90402 499.43979,766.97085 500.28921,767.30455 L 500.79865,767.50469 L 500.80073,768.76824 C 500.80187,769.4632 500.84919,770.10476 500.90588,770.19393 C 500.96257,770.2831 501.31315,770.43292 501.68495,770.52687 C 502.05674,770.62083 502.43736,770.75404 502.53075,770.8229 C 502.64846,770.90969 502.70057,771.39999 502.70057,772.42081 C 502.70057,774.10163 502.89594,774.76439 503.77157,776.05403 C 504.41897,777.00755 505.8378,779.80526 505.95351,780.35651 C 506.03614,780.75011 506.06771,780.76544 506.87591,780.80432 C 507.83279,780.85036 507.79614,780.79857 507.93584,782.3019 C 508.01778,783.18367 507.9974,783.32989 507.75593,783.59249 C 507.46625,783.90751 507.3911,784.44292 507.20909,787.4887 C 507.12311,788.92773 507.08499,789.09119 506.72602,789.56043 C 506.38217,790.00993 506.26746,790.06988 505.75128,790.06988 C 505.20345,790.06988 505.14604,790.10659 504.84832,790.64725 C 504.50319,791.27403 504.3737,791.31745 502.25944,791.51528 C 501.66983,791.57045 501.42037,791.66226 501.24055,791.89028 C 501.03232,792.15432 500.87882,792.19117 500.01755,792.1839 C 499.34169,792.17818 499.03265,792.12395 499.03262,792.01104 L 499.03262,792.01105 z"/>
<path title="Bastar" d="M 500.48089,840.93467 C 500.31387,840.58445 500.25524,840.08149 500.25524,838.99892 C 500.25524,837.38396 500.18158,837.2103 499.49652,837.2103 C 499.18489,837.2103 499.00157,837.11527 498.8413,836.87067 C 498.69645,836.6496 498.49289,836.53104 498.2582,836.53104 C 498.01902,836.53104 497.77591,836.38523 497.53606,836.09793 C 497.19685,835.69161 497.14937,835.67522 496.76853,835.83297 C 496.53774,835.92857 495.95795,835.98356 495.42485,835.96041 C 494.40447,835.91612 494.43081,835.94018 494.20777,834.8489 C 494.09441,834.29427 492.73336,832.98853 491.78833,832.52777 C 490.38714,831.84461 489.00326,831.9308 488.42921,832.73698 C 488.27343,832.95576 488.07043,833.13476 487.9781,833.13476 C 487.67409,833.13476 486.94886,832.25342 486.85713,831.77251 C 486.71044,831.00339 486.41378,830.5186 486.15148,830.61935 C 486.02577,830.66764 485.50007,830.82436 484.98324,830.96762 C 484.46642,831.11089 483.90671,831.35667 483.73944,831.51381 C 483.3907,831.84143 483.14187,831.7631 482.3521,831.07706 C 482.10667,830.86387 481.85354,830.68943 481.7896,830.68943 C 481.72566,830.68943 481.63898,830.49075 481.59699,830.24791 C 481.55501,830.00508 481.48126,829.61464 481.43312,829.38026 C 481.29466,828.70623 481.76378,827.8648 483.02196,826.53045 C 484.75618,824.69125 485.00349,823.79179 483.94663,823.16748 C 483.25753,822.76042 483.1382,822.34389 483.13589,820.33751 C 483.13475,819.34379 483.08034,818.4463 483.01498,818.3431 C 482.88405,818.13638 483.3674,816.80465 483.60833,816.70829 C 483.68587,816.67728 483.92148,816.46778 484.13192,816.24274 C 484.48833,815.8616 484.54482,815.84453 484.95667,815.99346 C 485.19985,816.08139 485.56342,816.15334 485.7646,816.15334 C 485.96578,816.15334 486.24924,816.22756 486.3945,816.31827 C 486.61445,816.45563 486.71067,816.43711 486.97002,816.2075 C 487.1413,816.05586 487.44956,815.8274 487.65503,815.69981 C 488.14339,815.39655 488.1354,815.03851 487.61108,813.73064 C 487.01316,812.23919 486.95367,811.53388 487.37152,810.89021 C 487.77554,810.26784 488.30033,809.00967 488.30033,808.6634 C 488.30033,808.44173 488.41203,808.40981 489.18772,808.40981 C 489.67968,808.40981 490.29839,808.31652 490.57614,808.20047 L 491.07716,807.99113 L 490.57177,807.52814 C 489.99838,807.00284 489.93865,806.66544 490.35278,806.29121 C 490.64256,806.02934 491.28906,804.86882 491.28906,804.61049 C 491.28906,804.52241 490.73242,804.47012 489.79469,804.47012 L 488.30033,804.47012 L 488.30033,803.81455 C 488.30033,803.14621 488.5121,802.81765 489.16733,802.46943 C 489.30796,802.39469 489.50422,802.09733 489.60348,801.80861 C 489.76498,801.33883 489.75808,801.25481 489.53786,801.00894 C 489.40251,800.85784 489.2554,800.63083 489.21094,800.50447 C 489.16648,800.37812 488.82114,799.84995 488.44351,799.33076 C 487.91115,798.59884 487.75692,798.27338 487.75692,797.88196 C 487.75692,797.60431 487.6621,797.01122 487.54621,796.56397 C 487.43032,796.11673 487.3539,795.46601 487.37639,795.11792 L 487.41729,794.48505 L 489.31838,793.02464 L 491.21947,791.56424 L 492.41287,791.56424 C 493.47709,791.56424 493.69646,791.51872 494.43939,791.14369 C 494.89759,790.91238 495.58951,790.42332 495.97697,790.05688 C 496.36442,789.69043 496.71639,789.39062 496.75912,789.39062 C 496.80184,789.39062 496.97689,789.61987 497.14812,789.90006 C 497.31935,790.18026 497.75226,790.78449 498.11016,791.2428 C 498.46806,791.70111 498.76088,792.16628 498.76088,792.27652 C 498.76088,792.38675 499.01486,792.76548 499.32527,793.11813 L 499.88966,793.75931 L 499.73263,795.20899 C 499.64626,796.00631 499.57568,797.15963 499.57579,797.77191 C 499.57597,798.75123 499.63228,799.00869 500.04389,799.91192 C 500.59065,801.11169 502.10744,802.93573 503.61292,804.2039 C 504.39334,804.8613 504.61183,805.12894 504.68457,805.51669 C 504.82048,806.24115 504.82255,809.20345 504.68844,811.05891 C 504.5738,812.64483 504.58041,812.71312 504.93155,813.57216 C 505.26971,814.39945 505.37362,814.51485 506.57751,815.40022 C 507.28426,815.91999 508.0761,816.56397 508.33713,816.83129 C 508.77121,817.27584 508.80067,817.35593 508.68212,817.7693 C 508.61082,818.01788 508.48855,818.84109 508.41039,819.59866 C 508.11235,822.48743 507.68334,825.33529 507.50196,825.62902 C 507.34566,825.88213 507.34042,826.14719 507.47149,827.16919 C 507.62872,828.39521 507.63563,828.41097 508.48488,829.48015 C 509.47015,830.72057 510.38205,832.30722 510.51089,833.00526 C 510.70367,834.0497 509.68249,836.90002 508.77317,837.85559 C 508.35892,838.29091 508.33559,838.29711 507.11036,838.29711 C 506.22149,838.29711 505.64284,838.37447 505.07797,838.56881 C 504.64362,838.71825 504.17555,838.84051 504.03781,838.84051 C 503.90008,838.84051 503.78738,838.90525 503.78738,838.98438 C 503.78738,839.06351 503.72502,839.08971 503.6488,839.04261 C 503.57259,838.9955 502.97654,839.45636 502.32425,840.06674 C 500.77843,841.51326 500.76076,841.52158 500.48088,840.93468 L 500.48089,840.93467 z"/>
<path title="Durg" d="M 472.44036,782.14129 C 471.84913,782.01304 471.66903,781.89998 471.38261,781.47728 C 471.19275,781.19709 470.98196,780.96784 470.9142,780.96784 C 470.84643,780.96784 470.4207,780.62502 469.96814,780.20602 L 469.14528,779.4442 L 469.14528,777.89114 C 469.14528,776.5832 469.19016,776.2501 469.4296,775.78077 C 469.63651,775.37518 469.69087,775.09005 469.62927,774.73333 C 469.58272,774.46376 469.50063,773.99595 469.44685,773.69376 C 469.32515,773.00996 468.86467,772.4092 468.46224,772.4092 C 468.29486,772.4092 467.92392,772.47931 467.63793,772.565 C 467.13793,772.7148 467.10093,772.70305 466.6758,772.25933 C 466.10835,771.66709 465.84646,771.0194 465.83003,770.16765 L 465.81693,769.4884 L 466.53015,769.44734 C 467.17219,769.41037 467.24337,769.43409 467.24337,769.68507 C 467.24337,770.03907 467.48742,770.03238 468.53366,769.64968 C 469.25829,769.38463 469.38985,769.2765 469.72227,768.67283 C 469.92786,768.29949 470.25306,767.4744 470.44494,766.8393 C 470.63682,766.20419 470.94252,765.30183 471.12428,764.83406 C 471.30605,764.36628 471.45476,763.83912 471.45476,763.66258 C 471.45476,763.44186 471.95668,762.79521 473.06174,761.59228 C 473.94557,760.63015 475.22937,759.09036 475.91461,758.17053 C 477.12587,756.54462 477.16051,756.47766 477.16051,755.76266 C 477.16051,755.08564 477.12867,755.01074 476.75971,754.81994 C 476.53926,754.70594 476.21831,754.61174 476.04649,754.61059 C 475.33922,754.60589 475.12274,754.06465 475.12274,752.30109 C 475.12274,751.21218 475.14746,751.11246 475.53343,750.64421 C 476.38335,749.61311 476.6276,747.93432 476.02231,747.28413 C 475.81171,747.05791 475.67595,746.71535 475.6324,746.30029 C 475.57285,745.73268 475.60795,745.62292 475.9555,745.28995 C 476.24105,745.01637 476.34578,744.78685 476.34679,744.43237 C 476.34845,743.8547 477.6786,740.60527 478.09474,740.16232 C 478.27929,739.96587 478.38318,739.67785 478.38318,739.36262 C 478.38318,739.09165 478.44431,738.83217 478.51903,738.78599 C 478.59375,738.73981 478.65488,738.51822 478.65488,738.29356 C 478.65488,737.61079 478.87084,737.35955 479.45774,737.35955 C 479.87516,737.35955 480.19305,737.20599 481.04922,736.59079 C 481.63765,736.16796 482.33305,735.62125 482.59457,735.37586 C 482.9777,735.01634 483.20109,734.9216 483.7448,734.888 C 484.33983,734.85123 484.45619,734.79176 484.72972,734.3847 C 484.9481,734.05971 485.03989,733.72536 485.03989,733.25499 C 485.03989,732.45575 485.14908,732.22861 486.01864,731.2188 C 486.55011,730.60163 486.76156,730.20125 487.05901,729.24896 L 487.43234,728.05373 L 488.19612,728.06885 C 488.69512,728.07872 489.15925,728.18788 489.53503,728.38374 C 490.20187,728.73131 490.74565,728.67345 490.74565,728.25492 C 490.74565,727.6582 492.14047,728.13439 492.71549,728.92743 C 493.48975,729.99524 494.45407,730.43113 496.04208,730.43113 L 497.08658,730.43113 L 497.44605,731.16529 C 497.88318,732.05802 498.39479,732.68482 498.89924,732.94568 C 499.24779,733.12592 499.31514,733.11507 499.77212,732.80495 C 500.36187,732.40473 500.52695,732.3851 500.52695,732.71519 C 500.52695,732.85065 500.70617,733.13318 500.92522,733.34305 C 501.28142,733.68431 501.36752,733.70927 501.74033,733.57931 C 501.96959,733.49939 502.15716,733.46003 502.15716,733.49185 C 502.15716,733.52366 501.99775,733.872 501.80292,734.26592 C 501.30696,735.26866 500.35363,736.00104 499.54432,736.00104 C 499.07973,736.00104 498.87199,736.07778 498.62503,736.34067 C 498.33405,736.6504 498.20601,736.6803 497.17055,736.6803 C 495.62659,736.6803 495.21108,736.86958 494.89756,737.71572 C 494.73917,738.14321 494.35865,738.6791 493.82552,739.2255 L 492.99903,740.07256 L 493.29878,740.68953 C 493.74209,741.60201 493.68869,741.90187 492.88974,742.9863 C 492.19502,743.92925 492.1792,743.97186 492.09266,745.13337 C 492.03788,745.86864 491.92019,746.44688 491.78256,746.65692 C 491.64488,746.86706 491.56076,747.28062 491.56076,747.7474 C 491.56076,748.16098 491.50399,748.49936 491.43461,748.49936 C 491.16754,748.49936 490.8815,748.94523 490.8815,749.36154 C 490.8815,749.72261 490.70792,749.96918 489.86262,750.80884 L 488.84373,751.82092 L 488.84373,752.58714 C 488.84373,753.14766 488.91667,753.4461 489.11543,753.69878 C 489.36798,754.01984 489.38714,754.2499 489.38714,756.96206 L 489.38714,759.87991 L 489.91795,760.67654 C 490.24686,761.17017 490.48448,761.71348 490.54268,762.105 C 490.63503,762.72624 490.62548,762.74788 489.97284,763.39559 C 489.60776,763.7579 488.86356,764.44463 488.31906,764.92164 C 487.1793,765.92014 487.19006,765.83382 487.99101,767.556 L 488.4823,768.61233 L 488.18753,769.13679 C 487.91708,769.61799 487.89277,769.85249 487.89277,771.98008 L 487.89277,774.29891 L 486.78248,775.1441 C 486.17182,775.60896 485.4251,776.07442 485.1231,776.17847 C 484.82111,776.28252 483.95843,776.63569 483.20603,776.96331 C 482.45363,777.29093 481.56504,777.60017 481.23138,777.65052 C 480.44141,777.76973 479.87754,778.27912 479.87754,778.87357 C 479.87754,779.52016 478.46095,780.71524 476.61711,781.62417 C 475.26292,782.29173 475.13906,782.32654 474.17178,782.3116 C 473.6114,782.30294 472.83225,782.2263 472.44035,782.14129 L 472.44036,782.14129 z"/>
<path title="Janjgir - Champa" d="M 532.92749,739.16158 C 532.61616,738.95785 531.89094,738.69896 531.22935,738.55539 C 530.59425,738.41756 529.83008,738.24972 529.53121,738.18241 C 528.54944,737.96131 525.503,737.87215 524.09716,738.02339 C 523.11922,738.12859 521.92658,738.12713 519.83984,738.01816 L 516.94104,737.86679 L 516.41299,737.3075 C 515.80738,736.66607 515.77402,736.46602 516.14985,735.72934 C 516.29929,735.43642 516.42156,735.11209 516.42156,735.00862 C 516.42156,734.90515 516.29929,734.70984 516.14985,734.5746 C 515.95716,734.40021 515.87815,734.15618 515.87815,733.7354 C 515.87815,733.22812 515.79612,733.05309 515.31237,732.52829 C 514.6004,731.7559 514.52312,731.38774 514.37307,728.05373 C 514.30917,726.63409 514.22281,725.04463 514.18115,724.5216 C 514.08417,723.30383 514.39417,722.69802 515.43355,722.07417 C 515.82412,721.83974 516.36343,721.36015 516.632,721.00842 L 517.12031,720.3689 L 516.97471,719.4305 C 516.89463,718.91438 516.82911,718.45795 516.82911,718.41623 C 516.82911,718.3745 517.4425,718.34036 518.19221,718.34036 L 519.5553,718.34036 L 519.82318,718.79438 C 520.19911,719.43154 520.59088,719.56302 522.11343,719.56302 C 522.84595,719.56302 523.62623,719.6261 523.84738,719.7032 C 524.47373,719.92154 524.57264,720.40768 524.57264,723.26771 L 524.57264,725.79836 L 525.02697,726.1449 C 525.83166,726.75866 526.7371,726.52375 528.21874,725.31681 C 528.75463,724.88027 529.0643,724.72538 529.40113,724.72538 C 529.65211,724.72538 530.16846,724.65868 530.54856,724.57716 C 530.986,724.48335 531.30009,724.47611 531.40432,724.55745 C 531.49488,724.62813 531.77776,724.7563 532.03293,724.84227 C 532.41498,724.97099 532.53745,724.96187 532.72667,724.79063 C 532.93259,724.60428 532.97433,724.6042 533.12843,724.78987 C 533.24965,724.93594 533.55602,724.99708 534.16679,724.99708 C 535.03121,724.99708 535.03319,724.99797 535.03319,725.38901 C 535.03319,725.65716 535.14045,725.85122 535.37282,726.00347 C 535.70036,726.21808 535.71245,726.27819 535.71245,727.69182 C 535.71245,729.1146 535.72342,729.16802 536.08604,729.51124 C 536.33956,729.7512 536.93991,730.00367 537.95399,730.29677 C 539.98845,730.8848 540.48355,731.28541 540.807,732.60528 C 540.97896,733.30695 541.18303,733.73473 541.56812,734.20075 C 542.21989,734.98947 543.05164,736.6474 543.14509,737.3441 C 543.21089,737.83466 543.18871,737.87483 542.77183,738.02015 C 542.52806,738.10514 541.84222,738.17466 541.24773,738.17466 C 540.29298,738.17466 540.11973,738.13503 539.76321,737.83503 C 539.44654,737.56857 539.20818,737.49539 538.65679,737.49534 C 538.27025,737.4953 537.62116,737.36877 537.21437,737.21415 C 535.87544,736.70525 534.8531,737.20486 534.06744,738.75203 C 533.84927,739.18166 533.6258,739.52958 533.57083,739.52518 C 533.51587,739.52079 533.22637,739.35717 532.92749,739.16158 L 532.92749,739.16158 z"/>
<path title="Korba" d="M 525.28586,725.93241 L 524.84434,725.64965 L 524.84434,723.14761 C 524.84434,720.25382 524.72397,719.64236 524.11235,719.42915 C 523.8949,719.35334 523.08019,719.29132 522.30189,719.29132 C 521.52358,719.29132 520.77551,719.23177 520.63951,719.15898 C 520.5035,719.08619 520.26505,718.81109 520.10961,718.54765 L 519.827,718.06866 L 517.52958,718.06866 C 515.6884,718.06866 515.1997,718.02954 515.06868,717.87168 C 514.91627,717.68803 514.09406,717.25942 513.52282,717.06585 C 513.31753,716.99628 513.28838,716.89082 513.35871,716.47211 C 513.43946,715.9913 513.40232,715.92164 512.69134,715.22042 C 512.27726,714.81203 511.93846,714.39785 511.93846,714.30003 C 511.93846,714.20222 512.15243,713.69731 512.41394,713.17801 C 512.96708,712.07962 512.97779,711.9819 512.62161,711.28372 C 512.29822,710.64982 512.37213,710.59684 513.57979,710.59684 L 514.38379,710.59684 L 514.38379,710.18279 C 514.38379,709.91565 514.50428,709.65708 514.72341,709.454 C 515.31722,708.90368 515.20002,708.278 514.25642,706.96078 C 513.81404,706.34324 513.15474,705.60294 512.79132,705.31568 C 512.03463,704.71754 511.39506,703.99898 511.39506,703.74697 C 511.39506,703.65221 511.51732,703.46403 511.66676,703.32879 C 511.85867,703.15511 511.93846,702.91037 511.93846,702.49539 C 511.93846,701.94672 511.90253,701.88954 511.39506,701.63065 C 510.83763,701.34627 510.66216,700.95139 511.09322,700.95139 C 511.60606,700.95139 512.21945,700.35346 512.55653,699.52495 C 512.73893,699.07664 512.88844,698.6429 512.88879,698.56108 C 512.88914,698.47927 513.00565,698.30714 513.1477,698.17858 C 513.28976,698.05002 513.43679,697.7196 513.47443,697.44431 C 513.51208,697.16901 513.62478,696.71453 513.72487,696.43433 C 513.90445,695.93163 513.91649,695.92489 514.63516,695.92489 C 515.2138,695.92489 515.44638,695.8551 515.76707,695.58526 C 516.16588,695.24969 516.20083,695.24563 518.69173,695.24563 C 520.13905,695.24563 521.42197,695.30935 521.704,695.39524 C 522.02747,695.49376 522.34602,695.74698 522.63675,696.13672 C 523.01816,696.64799 523.07827,696.83775 523.07827,697.53044 C 523.07827,698.15726 523.15089,698.43931 523.41094,698.82252 C 523.60529,699.10891 523.78909,699.63929 523.85298,700.0981 L 523.96235,700.88346 L 524.77694,700.96301 C 525.3731,701.02123 526.13513,701.28532 527.61888,701.94793 C 529.55984,702.81472 529.69155,702.85331 530.7095,702.85331 C 531.64304,702.85331 531.77276,702.88316 531.77276,703.09798 C 531.77276,703.26136 532.12257,703.54056 532.82561,703.93829 C 534.85309,705.08531 535.71245,705.71861 535.71245,706.06575 C 535.71245,706.38197 535.72859,706.38544 537.19971,706.38544 L 538.68698,706.38544 L 538.76634,709.54399 C 538.94091,716.49143 538.96164,715.97913 538.46344,717.03106 C 538.17217,717.64607 538.02192,718.168 538.02192,718.5648 C 538.02192,718.8982 537.90082,719.40368 537.75022,719.69888 C 537.60078,719.9918 537.47852,720.47228 537.47852,720.76662 C 537.47852,721.15309 537.3464,721.49811 537.00304,722.00835 C 536.74152,722.39696 536.52756,722.88249 536.52756,723.08731 C 536.52756,723.40525 536.44655,723.48398 535.97362,723.62567 C 535.54146,723.75515 535.3768,723.89427 535.22462,724.2585 C 535.03795,724.70527 534.99923,724.72538 534.32558,724.72538 C 533.74301,724.72538 533.55449,724.66106 533.23235,724.35243 L 532.84308,723.97948 L 532.59615,724.30684 L 532.34923,724.63419 L 531.80553,724.3508 C 531.36211,724.11968 531.16487,724.0899 530.73615,724.18937 C 530.44703,724.25646 529.92744,724.3128 529.58152,724.31458 C 529.04325,724.31735 528.8376,724.40767 528.15508,724.941 C 527.33127,725.58476 526.20725,726.22146 525.9017,726.21745 C 525.80582,726.21619 525.52869,726.08792 525.28586,725.93241 z"/>
</g>
<g class="label" text-anchor="middle" font-size="6" font-family="sans-serif"  fill="#444">
<text x="480" y="846">Dakshin Bastar Dantewada</text>
<text x="460" y="833">Bijapur</text>
<text x="475" y="809">Narayanpur</text>
<text x="475" y="792">Uttar Bastar Kanker</text>
<text x="466" y="765">Rajnandgaon</text>
<text x="481" y="725">Kabeerdham</text>
<text x="505" y="716">Bilaspur</text>
<text x="511" y="676">Koriya</text>
<text x="544" y="686">Surguja</text>
<text x="562" y="704">Jashpur</text>
<text x="546" y="720">Raigarh</text>
<text x="522" y="756">Mahasamund</text>
<text x="511" y="747">Raipur</text>
<text x="497" y="777">Dhamtari</text>
<text x="496" y="822">Bastar</text>
<text x="483" y="753">Durg</text>
<text x="528" y="730">Janjgir - Champa</text>
<text x="523" y="711">Korba</text>
</g>
</svg>
