<svg xmlns="http://www.w3.org/2000/svg" viewBox="348 483 25 26">
<g title="Delhi" fill="#328707">
 <path title="South West" d="M 361.17687,501.02099 L 361.08226,501.01134 L 361.09651,500.85875 L 361.11076,500.70616 L 360.99645,500.59527 C 360.93359,500.53428 360.836,500.46132 360.7796,500.43314 C 360.7232,500.40496 360.59473,500.32444 360.49412,500.25421 C 360.3596,500.16031 360.31107,500.11209 360.31075,500.072 C 360.31046,500.03538 360.2731,499.99048 360.19692,499.93519 L 360.08353,499.8529 L 359.81367,499.86491 C 359.5988,499.87447 359.53391,499.8859 359.49516,499.92101 C 359.36772,500.03648 359.23342,500.04248 359.04338,499.94119 C 358.91144,499.87087 358.90001,499.85793 358.88573,499.76272 C 358.87727,499.70626 358.8631,499.64898 358.85425,499.63542 C 358.82458,499.58998 358.32893,499.24497 358.16899,499.15843 C 358.04388,499.09074 357.97182,499.06941 357.82419,499.05637 C 357.57443,499.03432 357.53633,499.05541 357.53633,499.21565 C 357.53633,499.35668 357.58651,499.49167 357.67221,499.58114 C 357.74225,499.65427 357.7307,499.71708 357.64093,499.75121 C 357.60842,499.76357 357.46165,499.77368 357.31478,499.77368 C 357.09886,499.77368 357.03008,499.76468 356.95555,499.72666 C 356.87843,499.68731 356.84582,499.68356 356.75577,499.70369 C 356.69659,499.71692 356.61532,499.75852 356.57517,499.79615 C 356.47769,499.88749 356.18787,500.0555 356.04211,500.10517 C 355.89482,500.15536 355.69971,500.13906 355.43937,500.05484 C 355.33663,500.0216 355.17785,499.98727 355.08653,499.97856 C 354.97982,499.96838 354.88418,499.942 354.81884,499.9047 C 354.76292,499.87279 354.70204,499.84668 354.68354,499.84668 C 354.61091,499.84668 354.34643,499.96783 354.23754,500.05097 C 354.17436,500.09921 354.11415,500.13868 354.10373,500.13868 C 354.07068,500.13868 354.03654,499.98755 354.01978,499.76718 L 354.00357,499.55384 L 353.88459,499.45352 C 353.79632,499.37908 353.75253,499.31797 353.71489,499.21669 C 353.6502,499.04263 353.53055,498.92 353.30854,498.80025 C 353.19944,498.7414 353.06071,498.63501 352.94464,498.52119 L 352.75707,498.33723 L 352.74318,498.12471 C 352.73555,498.00782 352.71691,497.89019 352.70177,497.86331 C 352.68663,497.83642 352.6708,497.76669 352.66659,497.70835 C 352.65988,497.6154 352.66788,497.59512 352.73122,497.54444 C 352.80524,497.48521 352.946,497.46563 352.97384,497.51069 C 353.01082,497.57051 353.38803,497.51981 353.44057,497.44795 C 353.45709,497.42536 353.58212,497.15375 353.7184,496.84437 C 354.08571,496.01057 354.09042,496.00203 354.18332,496.00203 C 354.22583,496.00203 354.34989,496.0311 354.45901,496.06664 L 354.65742,496.13125 L 354.77094,496.05315 C 354.86624,495.98758 354.90293,495.97623 354.99962,495.98245 C 355.10747,495.98939 355.11966,495.99731 355.19128,496.107 C 355.3277,496.31591 355.36977,496.34893 355.47761,496.33175 C 355.52973,496.32345 355.60364,496.2944 355.64186,496.26718 C 355.70414,496.22283 355.71133,496.20357 355.71133,496.08115 C 355.71133,495.96333 355.69816,495.92431 355.61536,495.79689 C 355.51322,495.63972 355.383,495.37321 355.35851,495.27124 C 355.34656,495.22145 355.3704,495.17591 355.48268,495.03399 L 355.62164,494.85836 L 355.8105,494.85836 C 355.91437,494.85836 356.01537,494.85222 356.03494,494.84471 C 356.05867,494.8356 356.07877,494.85467 356.09525,494.90195 C 356.11493,494.9584 356.13848,494.97585 356.21082,494.98759 C 356.26892,494.99702 356.32611,494.9897 356.36946,494.96728 C 356.43126,494.93532 356.44891,494.93739 356.56964,494.99079 C 356.64247,495.02299 356.81049,495.12525 356.94302,495.21803 C 357.07556,495.3108 357.20827,495.39442 357.23793,495.40383 C 357.2676,495.41325 357.40786,495.57086 357.54961,495.75407 C 357.69137,495.93729 357.8367,496.10039 357.87259,496.11651 C 357.90847,496.13264 357.98206,496.14633 358.03612,496.14693 C 358.11226,496.14778 358.16639,496.17133 358.27632,496.25144 C 358.39615,496.33877 358.4308,496.3823 358.49906,496.53127 L 358.57989,496.70769 L 358.85691,496.70769 C 359.09128,496.70769 359.15612,496.69884 359.27805,496.65017 C 359.38673,496.60679 359.51261,496.58521 359.79008,496.56238 C 359.99244,496.54573 360.19502,496.54021 360.24025,496.55012 C 360.28548,496.56003 360.41099,496.61596 360.51915,496.67441 C 360.71039,496.77776 360.77729,496.79606 360.85491,496.76627 C 360.87558,496.75834 361.00364,496.61599 361.13949,496.44994 C 361.37435,496.16288 361.39091,496.14803 361.47621,496.14803 C 361.54322,496.14803 361.60254,496.12157 361.7107,496.04344 C 361.79033,495.98592 361.94126,495.8799 362.04609,495.80784 L 362.2367,495.67681 L 362.31963,495.72147 L 362.40255,495.76613 L 362.57918,495.68781 C 362.67633,495.64473 362.80783,495.6032 362.8714,495.59553 C 362.98578,495.58173 362.98698,495.58231 362.98729,495.65189 C 362.98746,495.69056 362.95824,495.81839 362.92235,495.93597 L 362.85711,496.14975 L 362.94638,496.24116 C 362.99548,496.29144 363.03565,496.34212 363.03565,496.35378 C 363.03565,496.36544 362.9371,496.55755 362.81665,496.78069 C 362.67161,497.04938 362.59765,497.21258 362.59765,497.26391 C 362.59765,497.36289 362.71905,497.62883 362.79495,497.69611 C 362.83345,497.73024 362.90222,497.75317 362.99812,497.76384 C 363.07786,497.77271 363.16121,497.79636 363.18334,497.81639 C 363.20548,497.83642 363.28625,497.86301 363.36285,497.87548 C 363.44229,497.88841 363.56916,497.93564 363.65821,497.98544 L 363.81431,498.07274 L 363.81431,498.22466 L 363.81431,498.37658 L 363.60139,498.47234 C 363.48429,498.52501 363.36266,498.59572 363.3311,498.62948 C 363.29955,498.66323 363.22503,498.78766 363.1655,498.90597 C 363.06306,499.10959 363.0593,499.12419 363.09513,499.17887 C 363.11595,499.21064 363.13298,499.26873 363.13298,499.30796 C 363.13298,499.36649 363.11208,499.39268 363.01645,499.45405 C 362.84209,499.56594 362.79231,499.64633 362.79231,499.81604 C 362.79231,499.95635 362.79097,499.95902 362.6524,500.09511 C 362.56804,500.17795 362.45719,500.25672 362.37326,500.29345 C 362.17554,500.37999 362.03363,500.48313 361.77824,500.72592 C 361.65545,500.84265 361.52953,500.95414 361.4984,500.97368 C 361.43098,501.01602 361.30696,501.03427 361.17687,501.021 L 361.17687,501.02099 z" />
 <path title="West" d="M 360.55365,496.63429 C 360.24225,496.47162 360.20975,496.46669 359.75065,496.51249 C 359.44053,496.54343 359.32584,496.56466 359.24671,496.60578 C 359.15961,496.65105 359.10444,496.65903 358.87837,496.65903 L 358.61247,496.65903 L 358.54403,496.49799 C 358.48549,496.36027 358.45286,496.31975 358.31866,496.21815 C 358.19645,496.12564 358.14181,496.09936 358.07166,496.09936 C 357.89742,496.09936 357.85215,496.06376 357.58854,495.71944 C 357.4457,495.53286 357.30871,495.37841 357.27221,495.36279 C 357.2368,495.34763 357.09286,495.25668 356.95233,495.16067 C 356.81181,495.06466 356.63859,494.96117 356.56742,494.93069 C 356.44719,494.87921 356.4325,494.87788 356.36058,494.91202 C 356.28173,494.94946 356.1868,494.93159 356.14362,494.8712 C 356.11441,494.83034 356.11982,494.81971 356.24368,494.67456 C 356.35698,494.54179 356.36287,494.52765 356.37382,494.36234 C 356.38222,494.23549 356.40416,494.15213 356.45589,494.05057 L 356.5265,493.91194 L 356.72564,493.91065 L 356.92479,493.90937 L 357.12714,494.07557 C 357.43172,494.32572 357.52207,494.37171 357.7088,494.37164 C 357.85539,494.37158 357.87587,494.36422 358.04733,494.25003 C 358.26193,494.10711 358.2874,494.1045 358.64476,494.18894 C 358.86663,494.24137 358.92634,494.24668 359.08864,494.22844 C 359.27434,494.20758 359.27688,494.20805 359.35031,494.27737 C 359.43764,494.35979 359.46706,494.36281 359.58209,494.30116 C 359.71713,494.22878 359.87947,494.25584 360.02269,494.37461 C 360.08531,494.42654 360.14483,494.46903 360.15495,494.46903 C 360.16507,494.46903 360.22334,494.42723 360.28442,494.37613 C 360.46007,494.22921 360.45994,494.2292 360.69688,494.41816 C 360.9664,494.63309 361.04725,494.65466 361.64523,494.67124 C 361.91888,494.67882 362.10225,494.6939 362.11851,494.71016 C 362.1331,494.72475 362.21736,494.7367 362.30574,494.7367 C 362.45669,494.7367 362.47132,494.74174 362.547,494.81982 L 362.62757,494.90295 L 362.56194,494.989 C 362.48665,495.08771 362.49213,495.12824 362.59615,495.24214 C 362.66493,495.31744 362.67554,495.3207 362.85238,495.3207 C 363.02995,495.3207 363.03778,495.32313 363.06158,495.38574 C 363.09507,495.47384 363.0598,495.50217 362.87257,495.53752 C 362.78957,495.55319 362.64952,495.59873 362.56134,495.63871 C 362.41348,495.70575 362.39688,495.70851 362.34791,495.67422 C 362.31871,495.65376 362.27262,495.63738 362.24548,495.6378 C 362.21835,495.63822 362.04832,495.74206 361.86765,495.86856 C 361.59893,496.05668 361.5229,496.09861 361.44984,496.09895 C 361.36582,496.09934 361.34799,496.11484 361.14864,496.36094 C 360.90336,496.66375 360.83437,496.73248 360.77738,496.73082 C 360.75471,496.73016 360.65403,496.68672 360.55365,496.63429 L 360.55365,496.63429 z" />
 <path title="North West" d="M 362.56115,494.76103 C 362.49724,494.69433 362.47732,494.68803 362.33029,494.68803 C 362.24179,494.68803 362.15715,494.6758 362.1422,494.66085 C 362.12508,494.64373 361.95435,494.62972 361.68109,494.62299 C 361.07479,494.60807 360.9819,494.58356 360.71377,494.36778 C 360.46931,494.17105 360.44563,494.16865 360.26575,494.32241 L 360.15598,494.41623 L 360.04457,494.32369 C 359.89458,494.19912 359.71103,494.17207 359.55775,494.25196 L 359.45555,494.30523 L 359.3765,494.22862 L 359.29746,494.15201 L 359.10431,494.17284 C 358.9393,494.19063 358.8757,494.18543 358.66783,494.13712 C 358.30763,494.05342 358.24775,494.05849 358.05291,494.1892 C 357.89653,494.29411 357.88222,494.2987 357.7118,494.2987 C 357.49745,494.2987 357.46622,494.28397 357.17315,494.04468 L 356.94781,493.8607 L 356.73107,493.8607 C 356.52591,493.8607 356.51433,493.85792 356.51433,493.80869 C 356.51433,493.77482 356.44219,493.68918 356.3075,493.56316 C 356.19374,493.45673 356.10067,493.3577 356.10067,493.3431 C 356.10067,493.3285 356.16089,493.23793 356.2345,493.14183 C 356.41937,492.90046 356.41336,492.80077 356.19467,492.48149 C 356.15635,492.42554 356.125,492.35368 356.125,492.32179 C 356.125,492.28913 356.09312,492.23327 356.052,492.19387 C 355.94993,492.09608 355.95008,491.95267 356.05242,491.80392 C 356.15411,491.65613 356.20485,491.35437 356.12801,491.35437 C 356.11809,491.35437 356.09093,491.34045 356.06766,491.32344 C 356.02824,491.29461 356.03124,491.27961 356.11168,491.10309 C 356.15916,490.99892 356.198,490.90101 356.198,490.88553 C 356.198,490.87005 356.1527,490.81122 356.09733,490.75481 C 356.00512,490.66086 355.99649,490.64111 355.99474,490.52008 C 355.99357,490.43859 356.01062,490.3485 356.03923,490.28505 C 356.08075,490.19297 356.11008,490.1698 356.31823,490.06461 C 356.51068,489.96736 356.56931,489.92361 356.65788,489.81122 C 356.71676,489.73651 356.76921,489.67538 356.77444,489.67538 C 356.77966,489.67538 356.82686,489.69728 356.87933,489.72405 C 357.07647,489.82462 357.14574,489.7877 357.31217,489.49337 C 357.45825,489.23505 357.48102,489.22372 357.8362,489.23273 C 358.22419,489.24257 358.42237,489.27458 358.52439,489.34391 C 358.59536,489.39213 358.62317,489.39733 358.72255,489.38098 C 358.78614,489.37051 358.85185,489.3613 358.86857,489.3605 C 358.8853,489.3597 358.89899,489.33167 358.89899,489.29821 C 358.89899,489.26036 358.91278,489.23738 358.93549,489.23738 C 358.96277,489.23738 358.97199,489.20843 358.97199,489.12286 C 358.97199,489.02699 358.99376,488.97249 359.10566,488.78828 C 359.30066,488.46723 359.39014,488.37819 359.58032,488.31588 C 359.71655,488.27125 359.76043,488.2407 359.89665,488.09566 C 360.03198,487.95158 360.06969,487.92519 360.15775,487.91294 C 360.25636,487.89923 360.26331,487.90259 360.32315,487.99303 C 360.41,488.12427 360.54841,488.22926 360.76785,488.33037 C 360.87086,488.37783 361.00092,488.44803 361.05687,488.48636 C 361.14092,488.54395 361.18318,488.55586 361.3002,488.55495 C 361.37809,488.55435 361.47467,488.53949 361.51482,488.52193 C 361.578,488.4943 361.59949,488.49584 361.67461,488.53342 C 361.82262,488.60745 361.82715,488.6213 361.80802,488.9418 L 361.79083,489.22988 L 361.90785,489.33289 C 362.01862,489.43039 362.03074,489.43505 362.13484,489.42007 C 362.2323,489.40604 362.27112,489.37859 362.47598,489.17887 C 362.92692,488.73923 363.15912,488.60575 363.28102,488.71606 C 363.36757,488.79439 363.57098,489.15474 363.57098,489.22974 C 363.57098,489.27979 363.59769,489.32603 363.66223,489.3877 C 363.74866,489.47028 363.76427,489.47558 363.95778,489.48791 C 364.14488,489.49984 364.16835,489.50719 364.23642,489.57526 C 364.30027,489.63911 364.3121,489.67112 364.32038,489.8024 C 364.33251,489.99472 364.28755,490.0599 364.08873,490.13825 C 363.84254,490.23528 363.67123,490.33612 363.60492,490.42306 C 363.54718,490.49877 363.54213,490.52128 363.55614,490.64049 C 363.56733,490.73569 363.59895,490.81623 363.66746,490.92398 L 363.76315,491.07448 L 363.69748,491.14456 C 363.66136,491.1831 363.54015,491.29535 363.42813,491.39401 C 363.23463,491.5644 363.21853,491.57337 363.10618,491.57337 C 362.97775,491.57337 362.98417,491.56525 362.95177,491.76886 C 362.94026,491.84115 362.9013,491.88548 362.70703,492.04733 C 362.48438,492.23282 362.47598,492.24343 362.47598,492.33912 C 362.47598,492.43033 362.49036,492.45247 362.6524,492.61072 C 362.82653,492.78079 363.24838,493.12493 363.34087,493.17236 C 363.36706,493.18579 363.5363,493.23265 363.71698,493.2765 C 363.89765,493.32034 364.05365,493.36347 364.06364,493.37234 C 364.07362,493.3812 364.09325,493.45042 364.10725,493.52617 C 364.13234,493.66184 364.13127,493.66641 364.03546,493.83549 C 363.92658,494.02764 363.85159,494.10316 363.69542,494.17795 C 363.5978,494.2247 363.56344,494.22762 363.29233,494.21217 L 362.99596,494.19529 L 362.89374,494.31391 L 362.79153,494.43253 L 362.80597,494.5907 C 362.82039,494.74871 362.82033,494.7489 362.74355,494.79145 C 362.64381,494.84672 362.64313,494.8466 362.56115,494.76103 z" />
 <path title="North" d="M 364.15498,495.54074 C 364.1349,495.52719 364.07978,495.51594 364.03248,495.51573 C 363.96071,495.51542 363.92461,495.49322 363.81431,495.38153 C 363.69273,495.25842 363.6733,495.2477 363.5718,495.2477 C 363.51111,495.2477 363.38516,495.23173 363.29192,495.21222 C 363.14339,495.18115 363.11751,495.18115 363.08318,495.21222 C 363.05573,495.23706 362.98575,495.2477 362.84972,495.2477 C 362.66156,495.2477 362.65375,495.24537 362.60082,495.17378 L 362.54617,495.09987 L 362.63329,494.9812 C 362.6812,494.91593 362.7583,494.84017 362.80463,494.81284 C 362.89401,494.7601 362.89157,494.77324 362.85428,494.54464 C 362.84294,494.47514 362.85484,494.44497 362.92953,494.35381 L 363.01826,494.24553 L 363.31287,494.26194 C 363.54767,494.27501 363.62477,494.27097 363.69264,494.24205 C 363.84721,494.17619 363.96967,494.05629 364.07794,493.86481 L 364.1834,493.6783 L 364.15865,493.51158 C 364.14504,493.41988 364.12849,493.33944 364.12186,493.33281 C 364.11524,493.32619 363.94638,493.27964 363.74663,493.22937 C 363.54687,493.17911 363.36815,493.12882 363.34946,493.11763 C 363.25504,493.0611 362.8345,492.71681 362.70106,492.58679 C 362.56403,492.45327 362.549,492.42891 362.54919,492.34057 C 362.54938,492.247 362.55891,492.23478 362.75825,492.0722 C 362.982,491.88973 363.01131,491.8535 363.01131,491.75946 C 363.01131,491.6459 363.0344,491.62204 363.14432,491.62204 C 363.25774,491.62204 363.32625,491.57323 363.64398,491.26605 C 363.80068,491.11455 363.80267,491.11353 363.85839,491.1559 C 363.89124,491.18089 363.99839,491.38038 364.11595,491.63544 C 364.22667,491.87566 364.34644,492.1148 364.38211,492.16685 C 364.41779,492.21891 364.44697,492.27526 364.44697,492.29208 C 364.44697,492.3089 364.48804,492.3582 364.53822,492.40163 C 364.58841,492.44507 364.68611,492.53362 364.75534,492.59842 L 364.8812,492.71623 L 364.86016,493.23841 C 364.84345,493.6532 364.82882,493.79393 364.78905,493.92271 C 364.74672,494.05974 364.73897,494.14965 364.73897,494.50367 L 364.73897,494.92252 L 364.81718,495.02427 C 364.86019,495.08024 364.91494,495.12603 364.93885,495.12603 C 364.97423,495.12603 364.98231,495.14669 364.98231,495.23713 C 364.98231,495.29823 364.99364,495.36941 365.0075,495.39529 C 365.03108,495.43936 365.02351,495.44236 364.88881,495.44236 C 364.79524,495.44236 364.73506,495.45426 364.71669,495.47639 C 364.66997,495.53268 364.21949,495.58429 364.15498,495.54074 z" />
 <path title="North East" d="M 364.85456,494.98739 C 364.78793,494.89957 364.78764,494.8975 364.78764,494.50418 C 364.78764,494.18111 364.79631,494.08099 364.83522,493.95451 C 364.89848,493.74891 364.90528,493.68396 364.92022,493.14287 L 364.933,492.68054 L 364.71432,492.48711 C 364.59404,492.38072 364.49564,492.28096 364.49564,492.26542 C 364.49564,492.24988 364.46632,492.19457 364.43048,492.14252 C 364.37648,492.0641 364.00898,491.30109 364.00898,491.26741 C 364.00898,491.26171 364.04765,491.25704 364.09492,491.25704 C 364.1422,491.25704 364.21795,491.24155 364.26327,491.22261 C 364.30859,491.20368 364.35204,491.19455 364.35982,491.20233 C 364.36761,491.21012 364.37397,491.29023 364.37397,491.38036 L 364.37397,491.54423 L 364.54485,491.69872 C 364.70676,491.8451 364.71793,491.86214 364.75777,492.02354 L 364.79981,492.19387 L 364.93897,492.20883 C 365.0926,492.22534 365.20073,492.28187 365.20237,492.34651 C 365.20671,492.51857 365.24902,492.89609 365.26581,492.91266 C 365.27717,492.92387 365.4338,492.95835 365.61387,492.98929 L 365.94127,493.04554 L 366.0323,493.2037 C 366.13563,493.38324 366.14172,493.41363 366.08659,493.47455 C 366.03435,493.53227 366.05585,493.60933 366.1556,493.72195 C 366.22465,493.79989 366.25361,493.81395 366.3693,493.82568 C 366.5019,493.83913 366.50441,493.83814 366.64104,493.71954 C 366.87613,493.51546 367.09899,493.50214 367.27309,493.68177 L 367.35249,493.76368 L 367.32356,493.93237 C 367.29527,494.09732 367.29624,494.10448 367.36728,494.25463 C 367.45655,494.44334 367.46416,494.60665 367.38931,494.72774 C 367.33902,494.80911 367.33733,494.8097 367.15206,494.81056 C 367.04229,494.81107 366.94099,494.82498 366.90601,494.84435 C 366.85556,494.87229 366.82793,494.87172 366.72351,494.84056 C 366.62779,494.812 366.53562,494.80745 366.30847,494.82009 C 366.05136,494.83439 365.97097,494.85073 365.63565,494.95685 C 365.32967,495.05368 365.22208,495.07719 365.08815,495.07648 C 364.92551,495.07561 364.91986,495.07346 364.85456,494.98739 L 364.85456,494.98739 z" />
 <path title="East" d="M 366.40111,497.95375 C 366.35838,497.93089 366.28594,497.86839 366.24013,497.81485 C 366.18063,497.74532 366.11704,497.70401 366.01743,497.6702 C 365.89631,497.62909 365.86588,497.60514 365.78555,497.4877 C 365.73469,497.41335 365.65908,497.32036 365.61753,497.28105 C 365.57597,497.24175 365.54197,497.19223 365.54197,497.17102 C 365.54197,497.1498 365.50753,497.09066 365.46543,497.03959 C 365.38055,496.93661 365.33602,496.76488 365.3706,496.67391 C 365.38635,496.63251 365.38187,496.60105 365.35471,496.56228 C 365.29191,496.47262 365.2265,496.17204 365.22606,495.97108 C 365.2257,495.81142 365.21387,495.75646 365.15007,495.61824 C 365.09884,495.50727 365.07036,495.40162 365.06163,495.29028 L 365.04877,495.12603 L 365.16397,495.12603 C 365.23408,495.12603 365.42821,495.07921 365.65998,495.00641 C 365.98225,494.90518 366.0823,494.88432 366.3107,494.87077 C 366.52442,494.85809 366.60896,494.86301 366.71691,494.89439 C 366.84068,494.93037 366.85998,494.93054 366.92639,494.89619 C 366.96883,494.87425 367.06115,494.85836 367.14624,494.85836 C 367.2888,494.85836 367.29229,494.8599 367.27043,494.91311 C 367.25805,494.94323 367.22489,495.07189 367.19674,495.19903 C 367.16858,495.32617 367.12558,495.49042 367.10117,495.56403 C 367.07677,495.63764 367.04973,495.75406 367.04109,495.82276 L 367.02538,495.94765 L 367.28535,496.18775 C 367.51014,496.39536 367.55644,496.4518 367.62745,496.60478 L 367.70957,496.7817 L 367.65641,497.00676 L 367.60325,497.23182 L 367.40602,497.31364 C 367.07823,497.44962 366.7039,497.656 366.59574,497.76035 C 366.50991,497.84317 366.49588,497.86984 366.50753,497.92809 C 366.52345,498.00767 366.5086,498.01126 366.40111,497.95375 L 366.40111,497.95375 z" />
 <path title="South" d="M 362.35554,503.68239 C 362.34262,503.64842 362.31083,503.49145 362.28488,503.33356 C 362.23262,503.01559 362.15593,502.78507 362.07569,502.70485 C 362.0143,502.64344 361.59967,502.49901 361.48481,502.49901 C 361.44161,502.49901 361.31297,502.45469 361.19896,502.40052 L 360.99165,502.30203 L 360.99165,502.20743 C 360.99165,502.1554 360.98088,502.08452 360.96772,502.04989 C 360.95455,502.01527 360.93768,501.86947 360.93021,501.72589 C 360.91763,501.48386 360.92159,501.45066 360.98457,501.27018 L 361.05249,501.07551 L 361.24965,501.07458 C 361.48449,501.07346 361.49308,501.0688 361.80257,500.77459 C 362.05798,500.53178 362.1999,500.42864 362.39759,500.34214 C 362.48525,500.30378 362.59314,500.2258 362.6889,500.13157 C 362.84089,499.98201 362.84098,499.98183 362.84098,499.84032 C 362.84098,499.67067 362.89078,499.59026 363.06512,499.47839 C 363.16955,499.41137 363.18164,499.39433 363.18164,499.31423 C 363.18164,499.26507 363.16489,499.20092 363.14441,499.17169 C 363.10972,499.12215 363.11382,499.1056 363.20458,498.92902 C 363.25816,498.8248 363.32358,498.71442 363.34997,498.68374 C 363.37636,498.65306 363.50258,498.57906 363.63046,498.5193 L 363.86298,498.41065 L 363.86393,498.12492 L 363.86487,497.83919 L 363.97408,497.75884 C 364.18833,497.60121 364.28992,497.54058 364.36789,497.52382 C 364.41139,497.51447 364.44697,497.49762 364.44697,497.48637 C 364.44697,497.47512 364.51541,497.39748 364.59905,497.31384 C 364.78822,497.12467 364.93022,497.05849 365.19254,497.03721 L 365.39061,497.02115 L 365.44196,497.09326 C 365.4702,497.13292 365.4933,497.17897 365.4933,497.19559 C 365.4933,497.21221 365.53984,497.2766 365.59672,497.33868 C 365.6536,497.40076 365.73378,497.50074 365.7749,497.56087 C 365.83651,497.65096 365.87459,497.67862 365.99146,497.71818 C 366.09619,497.75364 366.15298,497.79097 366.2087,497.86098 C 366.25367,497.91748 366.33573,497.97879 366.41189,498.01275 C 366.49851,498.0514 366.53963,498.08403 366.53963,498.11415 C 366.53963,498.13857 366.50679,498.25574 366.46663,498.37452 C 366.42648,498.4933 366.39364,498.6055 366.39364,498.62385 C 366.39364,498.66467 366.63398,498.98324 366.81042,499.17629 C 366.88167,499.25426 367.01141,499.37199 367.09872,499.43791 C 367.18603,499.50382 367.35328,499.64545 367.47038,499.75264 L 367.6833,499.94752 L 367.6833,500.10347 C 367.6833,500.24952 367.68716,500.26039 367.74413,500.27469 C 367.77759,500.28309 367.80496,500.30191 367.80496,500.31653 C 367.80496,500.37985 367.49891,500.79889 367.33069,500.9659 L 367.14697,501.14828 L 366.98322,501.14839 C 366.84087,501.1485 366.79084,501.13496 366.60047,501.04485 C 366.41277,500.956 366.34889,500.93844 366.15353,500.92193 L 365.92558,500.90267 L 365.79163,500.99651 C 365.69909,501.06133 365.57021,501.11685 365.37479,501.17609 C 365.10545,501.25773 364.75218,501.42585 364.45306,501.61474 C 364.3307,501.692 364.32539,501.69978 364.32719,501.79912 C 364.32948,501.92488 364.40038,502.13613 364.44851,502.16057 C 364.46774,502.17034 364.57872,502.22233 364.69514,502.27612 C 364.90512,502.37312 364.90673,502.37454 364.89686,502.4547 C 364.89139,502.49915 364.88119,502.64394 364.87418,502.77647 C 364.8645,502.95975 364.85116,503.02885 364.81847,503.06509 C 364.74828,503.14288 364.42377,503.29283 364.23155,503.33628 C 364.01547,503.38512 363.8133,503.48313 363.79656,503.54714 C 363.7862,503.58673 363.76199,503.594 363.64066,503.594 C 363.53175,503.594 363.47506,503.60786 363.40624,503.65127 C 363.32227,503.70426 363.28044,503.70988 362.84725,503.72635 L 362.37902,503.74416 L 362.35554,503.68239 z" />
 <path title="New Delhi" d="M 363.63619,497.91464 C 363.55163,497.86613 363.44489,497.82751 363.37127,497.81879 C 363.30345,497.81076 363.22907,497.78709 363.20598,497.76619 C 363.18288,497.74529 363.105,497.72175 363.0329,497.71387 C 362.9608,497.706 362.87604,497.68344 362.84453,497.66374 C 362.78117,497.62411 362.64631,497.34957 362.64631,497.2602 C 362.64631,497.1983 363.0548,496.43002 363.16339,496.28766 C 363.2002,496.23941 363.23031,496.18411 363.23031,496.16477 C 363.23031,496.14542 363.26208,496.11644 363.30091,496.10035 C 363.33974,496.08427 363.39639,496.04462 363.42682,496.01224 C 363.46487,495.97173 363.50867,495.95336 363.56722,495.95336 C 363.61402,495.95336 363.67005,495.93731 363.69173,495.91769 C 363.72305,495.88935 363.7755,495.88514 363.94691,495.89724 C 364.16047,495.91231 364.16479,495.91391 364.37153,496.05458 C 364.51083,496.14937 364.60454,496.19669 364.65294,496.19669 C 364.70292,496.19669 364.80261,496.24967 364.97346,496.36703 C 365.10984,496.46071 365.23806,496.53736 365.25839,496.53736 C 365.30382,496.53736 365.3297,496.61109 365.31104,496.68737 C 365.30339,496.71862 365.30686,496.79542 365.31875,496.85802 L 365.34037,496.97185 L 365.15526,496.989 C 364.89374,497.01323 364.7551,497.08217 364.54872,497.2906 C 364.45325,497.38703 364.3475,497.47331 364.31373,497.48234 C 364.27996,497.49138 364.15397,497.56989 364.03375,497.65681 C 363.82586,497.80713 363.81516,497.81931 363.81474,497.9061 C 363.81451,497.95629 363.8061,497.99702 363.79606,497.99662 C 363.78602,497.99621 363.71408,497.95932 363.63619,497.91464 L 363.63619,497.91464 z" />
 <path title="Central" d="M 364.95797,496.29352 C 364.78505,496.16866 364.70615,496.12624 364.64483,496.12515 C 364.58655,496.12411 364.5089,496.08588 364.37613,495.99285 L 364.18939,495.862 L 363.94589,495.84457 C 363.73851,495.82973 363.69761,495.83289 363.6702,495.86592 C 363.65136,495.88862 363.60067,495.90469 363.54791,495.90469 C 363.48405,495.90469 363.44168,495.92185 363.40248,495.96357 C 363.37206,495.99595 363.31582,496.03543 363.2775,496.0513 C 363.23342,496.06956 363.18882,496.11943 363.15607,496.18709 C 363.1276,496.24591 363.09648,496.29403 363.08691,496.29403 C 363.07735,496.29403 363.03487,496.25827 362.99252,496.21458 L 362.91552,496.13513 L 362.97558,495.94598 C 363.00862,495.84196 363.03565,495.71408 363.03565,495.66181 C 363.03565,495.59137 363.04955,495.55705 363.0894,495.52914 C 363.13893,495.49445 363.14099,495.48338 363.11566,495.38848 C 363.10054,495.33183 363.09342,495.27698 363.09984,495.26659 C 363.11827,495.23677 363.23621,495.24445 363.36636,495.28393 C 363.43206,495.30386 363.52862,495.32029 363.58094,495.32043 C 363.66257,495.32066 363.6955,495.33922 363.81287,495.45117 C 363.94807,495.58014 363.95185,495.58185 364.13951,495.59944 C 364.3939,495.62327 364.64959,495.59608 364.7244,495.53724 C 364.76485,495.50542 364.82222,495.49103 364.90859,495.49103 L 365.03402,495.49103 L 365.1055,495.64866 C 365.16478,495.77939 365.17702,495.83856 365.17726,495.99541 C 365.17742,496.09942 365.19372,496.24475 365.21347,496.31836 C 365.23323,496.39197 365.24952,496.45493 365.24968,496.45827 C 365.25117,496.48956 365.15157,496.43331 364.95797,496.29352 z" />
</g>
<g class="label" text-anchor="middle" font-size="1" font-family="sans-serif"  fill="#444">
<text x="358" y="498">South West</text>
<text x="360" y="495.8">West</text>
<text x="360" y="491">North West</text>
<text x="364" y="494">North</text>
<text x="366" y="493">North East</text>
<text x="366.8" y="496">East</text>
<text x="365" y="500">South</text>
<text x="364" y="497">New Delhi</text>
<text x="364" y="496">Central</text>
</g>
</svg>
