<svg xmlns="http://www.w3.org/2000/svg" viewBox="205 766 18 19">
<g title="Dadra and Nagar Haveli" fill="#328707">
<path title="Dadra and Nagar Haveli" d="M 213.53882,780.50054 C 212.61377,780.18616 211.30765,779.43288 210.81908,778.93198 L 210.59694,778.70423 L 210.59685,777.97453 C 210.59677,777.2881 210.59392,777.24017 210.54891,777.16635 C 210.52259,777.12318 210.32271,776.85056 210.10472,776.56051 L 209.70837,776.03316 L 209.70837,775.21589 L 209.70837,774.39862 L 210.00036,773.81644 L 210.29235,773.23426 L 210.42712,772.69392 L 210.56188,772.15357 L 211.04953,771.90603 L 211.53718,771.65848 L 211.94079,771.79301 L 212.34441,771.92753 L 213.03768,771.92048 L 213.73094,771.91342 L 214.16874,771.61923 L 214.60654,771.32504 L 214.95226,771.32504 L 215.29799,771.32504 L 215.93137,771.8316 C 216.27973,772.1102 216.56682,772.34011 216.56935,772.34252 C 216.58047,772.35308 216.33871,773.27755 216.32068,773.29343 C 216.30963,773.30316 215.77815,773.76772 215.13962,774.32577 C 214.28598,775.07182 213.96943,775.36247 213.94384,775.42373 C 213.91497,775.49282 213.91022,775.67182 213.91605,776.472 C 213.92275,777.39317 213.92525,777.43992 213.9711,777.50238 C 214.0632,777.62784 214.1643,777.64632 214.70911,777.63725 L 215.20067,777.62907 L 215.6432,777.33489 L 216.08573,777.0407 L 216.44511,777.0407 L 216.80449,777.0407 L 217.30302,777.5388 L 217.80155,778.0369 L 217.80155,778.97485 L 217.80155,779.91279 L 217.71149,779.99881 C 217.63637,780.07056 217.5537,780.10709 217.21317,780.21896 C 216.98863,780.29273 216.54317,780.41831 216.22328,780.49804 L 215.64164,780.643 L 214.79436,780.64115 L 213.94708,780.63929 L 213.53882,780.50054 z"/>
</g>
</svg>
