<svg xmlns="http://www.w3.org/2000/svg" viewBox="217 924 30 42">
<g title="Goa" fill="#328707">
 <path title="North Goa" d="M 230.63036,948.09317 C 230.06291,947.86407 229.67227,947.18358 229.35931,945.87898 C 228.91938,944.04516 228.85727,943.98268 227.00216,943.50723 C 224.95941,942.98369 224.55973,942.53618 224.14091,940.30369 C 223.99331,939.51693 223.72884,938.96202 223.5532,939.07058 C 223.37755,939.17913 223.32411,938.70211 223.43443,938.01054 C 223.56122,937.21566 223.27017,935.63969 222.64318,933.72618 C 222.09767,932.06136 221.65134,930.48578 221.65134,930.22491 C 221.65134,929.91268 222.66841,929.65842 224.62745,929.4809 L 227.60356,929.21121 L 228.9502,930.75595 C 231.32167,933.47625 232.41022,934.92628 232.41022,935.36495 C 232.41022,935.97748 233.63386,935.89222 234.60497,935.21203 C 235.12957,934.84459 235.52183,934.77408 235.67376,935.01991 C 235.80578,935.2335 236.76814,935.40827 237.81234,935.40827 C 238.85654,935.40827 239.72387,935.53795 239.73974,935.69645 C 239.75562,935.85496 239.81108,936.97266 239.86302,938.18025 C 239.95575,940.33682 239.925,940.4078 238.1334,942.17247 C 236.5075,943.77391 236.17509,943.94222 235.07327,943.72186 C 233.30747,943.3687 232.79447,943.97302 232.79447,946.40632 C 232.79447,948.61542 232.49744,948.84694 230.63037,948.09317 L 230.63036,948.09317 z" />
 <path title="South Goa" d="M 234.24913,959.71181 C 233.90139,959.13064 232.23513,957.24875 230.54633,955.52983 L 227.47577,952.40453 L 227.54137,948.32522 C 227.61455,943.77299 228.1753,942.92946 228.95837,946.19365 C 229.44597,948.22622 230.21318,948.85687 232.1983,948.85687 C 233.19367,948.85687 233.54919,948.02785 233.55771,945.68684 C 233.56297,944.24642 233.56353,944.24592 235.21206,944.24592 C 236.65898,944.24592 237.06922,944.03393 238.55815,942.51681 C 239.4915,941.56581 240.36003,940.78771 240.48822,940.78771 C 240.84531,940.78771 242.01636,943.41174 242.01636,944.21191 C 242.01636,944.60154 241.757,945.13557 241.43999,945.39866 C 240.67514,946.03343 240.70547,948.04523 241.49302,948.91547 C 241.99169,949.46648 242.0264,949.72665 241.66012,950.16798 C 241.40586,950.47436 241.11179,951.7312 241.00664,952.96097 C 240.71104,956.41802 240.54668,956.89449 239.56482,957.14092 C 239.06825,957.26556 237.91096,958.13274 236.99307,959.068 C 236.07518,960.00326 235.22455,960.76848 235.10278,960.76848 C 234.98102,960.76848 234.59687,960.29298 234.24913,959.71181 z" />
</g>
<g class="label" text-anchor="middle" font-size="3" font-family="sans-serif"  fill="#444">
<text x="231" y="939">North Goa</text>
<text x="235" y="953">South Goa</text>
</g>
</svg>

