<svg xmlns="http://www.w3.org/2000/svg" viewBox="74 614 196 171">
<g title="Gujarat" fill="#328707">
<path title="Valsad" d="M 199.71723,779.35603 C 199.71723,779.24921 200.32206,778.33219 201.06129,777.3182 C 201.91398,776.14859 202.34409,775.31494 202.23778,775.0379 C 202.1399,774.78281 202.18259,774.67066 202.34045,774.76823 C 202.70865,774.9958 203.82259,772.63888 203.6094,772.08332 C 203.46078,771.69601 203.51963,771.68173 204.06399,771.97307 C 204.91286,772.42738 206.73133,772.14559 208.39666,771.3017 C 209.50413,770.74051 209.79387,770.43776 210.02704,769.59813 C 210.65073,767.3523 210.09666,765.12199 208.73385,764.39264 C 208.13482,764.07204 207.72677,762.49659 208.13662,762.08675 C 208.52862,761.69474 208.50358,756.12572 208.11091,756.36841 C 207.90447,756.49599 207.87244,756.35183 208.00881,755.90897 C 208.1181,755.55402 208.2483,755.21783 208.29814,755.16188 C 208.4671,754.97221 210.12403,756.51807 210.90013,757.58945 C 211.57433,758.52014 211.67215,758.89756 211.67215,760.56799 C 211.67215,762.15068 211.75421,762.50701 212.14763,762.63275 C 212.40914,762.71632 212.86764,762.89102 213.16651,763.02095 C 214.02713,763.39509 214.48522,763.41426 215.06843,763.10055 C 216.10441,762.5433 218.42429,762.4046 219.07584,762.86096 C 220.04168,763.53746 223.72002,763.43364 224.91322,762.69619 C 226.21701,761.8904 226.33514,762.18633 226.33892,766.26757 C 226.34172,769.2976 226.27775,769.76641 225.74569,770.61481 C 225.34021,771.26137 225.09225,772.21556 224.97103,773.5957 L 224.79275,775.62563 L 223.34306,776.92406 C 222.25668,777.89708 221.67718,778.22249 221.03079,778.22249 C 220.55638,778.22249 219.85734,778.46702 219.47739,778.7659 C 218.5722,779.47792 218.46472,779.45448 218.46472,778.54503 C 218.46472,777.19348 216.19883,775.6425 215.61184,776.59227 C 215.29192,777.10992 214.66088,776.87193 214.66088,776.23363 C 214.66088,775.83047 215.10151,775.20734 215.88354,774.50463 C 217.47072,773.07843 217.54182,772.13671 216.1347,771.17832 C 215.26356,770.58499 215.07539,770.55226 214.25028,770.85062 C 213.74613,771.03292 212.84999,771.15354 212.25883,771.11866 C 210.48581,771.01405 209.62407,771.99418 208.99914,774.82621 C 208.83847,775.55431 208.70542,775.64507 207.75273,775.67653 C 207.16614,775.6959 206.55481,775.8793 206.39422,776.08409 C 205.9483,776.65274 199.71723,779.70617 199.71723,779.35603 L 199.71723,779.35603 z"/>
<path title="Navsari" d="M 212.96413,762.51191 L 211.94662,762.05618 L 211.94525,760.20322 C 211.94403,758.58489 211.83934,758.19834 211.1185,757.15063 C 210.66455,756.49084 210.05305,755.82253 209.75961,755.66548 C 209.46617,755.50845 208.92076,754.7774 208.54757,754.04095 C 207.87852,752.72064 207.04098,751.97316 206.65554,752.35237 C 206.54696,752.45919 206.49844,752.36318 206.54769,752.13903 C 206.68302,751.52316 205.94544,749.94629 205.61699,750.14928 C 205.43857,750.25955 205.3965,750.15464 205.50537,749.87091 C 205.72596,749.29607 205.16588,748.0224 204.79368,748.25243 C 204.62494,748.35672 204.58378,748.24648 204.68903,747.97221 C 204.91602,747.38066 204.63148,746.65832 204.26153,746.88696 C 204.07732,747.0008 204.03829,746.8934 204.15415,746.59147 C 204.25426,746.33058 204.33618,746.06848 204.33618,746.00902 C 204.33618,745.8354 206.45638,744.80306 206.81296,744.80306 C 206.9916,744.80306 207.55486,745.1212 208.06466,745.51004 C 208.89892,746.14635 209.18333,746.20746 210.91054,746.12137 C 212.41307,746.04647 212.874,746.11417 213.03446,746.43327 C 213.14716,746.65743 213.40131,747.18606 213.5992,747.60802 C 213.7971,748.02997 214.3309,748.53067 214.78543,748.72067 C 215.89243,749.18341 216.2802,749.70199 216.67422,751.24657 C 217.01816,752.59479 217.52326,753.03718 219.08385,753.35706 C 219.5978,753.4624 219.98054,753.809 220.28273,754.4427 L 220.72664,755.37359 L 221.48855,754.83107 C 221.90761,754.53267 222.40824,753.95773 222.60107,753.55341 C 222.8751,752.97882 223.17376,752.79987 223.96863,752.73396 C 225.10096,752.64006 225.10388,752.6475 224.69129,754.57133 C 224.45256,755.68445 224.48357,756.28877 224.85549,757.77175 C 225.10767,758.77726 225.48462,759.84357 225.69319,760.14133 C 226.38928,761.13516 226.16468,761.7457 224.91378,762.25996 C 223.38383,762.88894 220.18546,762.89938 218.88585,762.27964 C 218.13679,761.92244 217.79684,761.88905 217.31434,762.12527 C 216.97571,762.29107 216.33185,762.48474 215.88354,762.55567 C 215.43523,762.6266 214.8239,762.74831 214.52503,762.82614 C 214.22615,762.90397 213.52375,762.76257 212.96412,762.51191 L 212.96413,762.51191 z"/>
<path title="Surat" d="M 220.42538,753.79059 C 220.01259,753.23227 219.48215,752.91866 218.68335,752.76069 C 217.59011,752.5445 217.51471,752.46593 217.11674,751.12829 C 216.67125,749.6309 215.73102,748.33519 215.08995,748.33519 C 214.61959,748.33519 213.57407,747.06566 213.57407,746.49451 C 213.57407,745.68221 212.70628,745.38282 210.81173,745.54148 C 209.23609,745.67345 208.90424,745.61758 208.26184,745.11227 C 207.37079,744.41136 206.57577,744.37912 205.291,744.99178 C 204.08924,745.56487 204.0476,745.52723 202.22647,742.22083 C 201.1212,740.21414 200.85704,739.47048 200.75669,738.08309 C 200.6894,737.15282 200.68784,736.4452 200.75322,736.51059 C 200.81861,736.57597 201.19302,736.00656 201.58525,735.24525 C 201.98063,734.47783 202.93074,733.32078 203.71748,732.64861 L 205.13656,731.43619 L 206.06433,732.0096 C 206.57461,732.32497 207.13321,732.75301 207.30566,732.9608 C 207.54619,733.25062 208.13863,733.30478 209.84946,733.19334 C 212.32216,733.03229 212.68813,732.86319 212.81076,731.82507 C 212.87654,731.26818 213.10066,731.06047 213.8416,730.8697 C 214.65502,730.66028 214.84149,730.7059 215.16533,731.19363 C 215.37264,731.50587 215.6918,731.76133 215.87457,731.76133 C 216.3163,731.76133 217.02632,730.93943 217.14608,730.28948 C 217.19886,730.00298 217.4054,729.7142 217.60504,729.64772 C 217.89362,729.55163 217.92897,729.83939 217.7775,731.05164 L 217.58699,732.57643 L 218.77304,732.5668 C 219.42536,732.56151 220.25549,732.39297 220.61777,732.19227 C 221.08263,731.93474 221.92211,731.86714 223.47065,731.96254 C 225.45651,732.08487 225.71398,732.04304 226.18243,731.52196 C 227.08715,730.5156 229.87623,731.03318 229.87623,732.20743 C 229.87623,732.96027 230.21782,733.1803 231.77694,733.43179 C 235.07782,733.96424 236.6688,734.60728 236.6688,735.409 C 236.6688,735.61509 236.33257,735.90516 235.92162,736.0536 C 235.51067,736.20205 234.52255,736.88647 233.72581,737.57455 C 232.36495,738.74981 232.18213,738.8256 230.70823,738.8256 C 229.33349,738.8256 228.98509,738.70788 227.89383,737.87464 C 227.20884,737.35161 226.57993,736.92368 226.49625,736.92368 C 226.41256,736.92368 226.34081,737.62671 226.33679,738.48597 C 226.32834,740.29126 225.75713,741.13895 223.55914,742.60804 L 222.26855,743.47065 L 222.26855,745.20282 C 222.26855,746.65406 222.37872,747.06591 222.94781,747.74224 C 223.64849,748.57495 223.89251,750.3127 223.35537,750.64466 C 223.20593,750.73702 223.08366,751.13197 223.08366,751.52234 C 223.08366,751.9127 222.88055,752.45653 222.6323,752.73084 C 222.38405,753.00514 222.04783,753.49419 221.88512,753.81759 C 221.44591,754.69059 221.08585,754.68393 220.42538,753.79059 L 220.42538,753.79059 z"/>
<path title="Bharuch" d="M 206.64565,731.93152 C 205.95639,731.33347 205.65823,730.90044 205.83054,730.74775 C 211.25785,725.93846 211.56548,725.56172 210.74054,724.73468 C 210.38981,724.38307 209.54161,724.26095 206.705,724.15365 L 203.11351,724.0178 L 203.09205,722.52343 C 203.06767,720.82584 203.19385,720.28343 203.56043,720.50999 C 203.71064,720.60283 203.73835,720.36345 203.62818,719.9245 C 203.49235,719.3833 203.52992,719.23641 203.76674,719.38277 C 204.00877,719.53235 204.07087,719.14411 204.01015,717.861 L 203.92862,716.13842 L 203.01763,716.05119 C 202.51658,716.00322 202.17211,716.06992 202.25214,716.19942 C 202.37283,716.39468 201.57081,716.45282 200.73612,716.30931 C 200.62404,716.29004 200.53234,715.85356 200.53234,715.33935 C 200.53234,714.82514 200.41007,714.32886 200.26064,714.2365 C 200.1112,714.14414 199.98893,713.64337 199.98893,713.12366 C 199.98893,712.33361 200.25968,711.90208 201.64098,710.4906 C 203.82408,708.2598 204.33942,707.51502 204.16402,706.84429 C 204.04959,706.40675 204.20384,706.22585 204.89745,705.98405 C 205.38053,705.81565 206.25464,705.67787 206.83991,705.67787 C 207.42517,705.67787 208.1711,705.53446 208.4975,705.35918 C 208.82391,705.1839 209.80215,704.89169 210.67136,704.70983 L 212.25174,704.37916 L 212.53875,705.09644 C 212.69661,705.49094 212.9917,706.3447 213.19451,706.99367 C 213.54624,708.11916 213.53136,708.21545 212.87222,709.07962 C 212.22676,709.92585 212.2075,710.03621 212.58011,710.75255 C 213.15434,711.8565 214.07225,712.60207 215.52158,713.14176 C 217.00785,713.69519 217.40662,714.55264 216.6879,715.64956 C 216.26799,716.29041 216.27694,716.36003 216.85871,716.9793 C 217.19637,717.33872 217.62074,717.63279 217.80176,717.63279 C 217.98279,717.63279 218.48111,717.81543 218.90914,718.03867 C 219.33717,718.2619 220.33233,718.4453 221.12061,718.44622 C 222.49622,718.44783 222.5604,718.41513 222.71686,717.63279 C 222.9303,716.56558 223.61636,716.57391 224.41446,717.65341 C 224.95556,718.38529 225.021,718.74822 224.94104,720.57421 L 224.84973,722.65929 L 225.71442,722.91409 C 226.67423,723.19692 226.87817,723.65239 226.88379,725.52575 C 226.88584,726.20569 227.01025,726.88475 227.16028,727.03478 C 227.34285,727.21735 227.253,727.68024 226.88858,728.43451 C 226.58911,729.05432 226.3441,729.85806 226.3441,730.22057 C 226.3441,731.35329 225.74718,731.58558 223.27957,731.41313 C 221.57739,731.29418 220.9204,731.34935 220.51848,731.64503 C 220.2284,731.85844 219.51229,732.03303 218.92712,732.03303 C 218.02333,732.03303 217.89148,731.96145 218.05121,731.55755 C 218.42142,730.62141 218.53765,729.316 218.25079,729.316 C 218.09401,729.316 217.76827,729.24022 217.52691,729.1476 C 217.19905,729.02179 216.97686,729.26229 216.64836,730.09856 C 216.19125,731.26224 215.83889,731.50002 215.57821,730.82071 C 215.3369,730.19185 214.51108,730.07288 213.45377,730.51465 C 212.721,730.82083 212.43735,731.12783 212.31306,731.7493 C 212.16413,732.49386 212.04632,732.57643 211.1327,732.57643 C 210.57449,732.57643 209.58108,732.64351 208.92512,732.72549 C 207.85093,732.85973 207.6245,732.78086 206.64565,731.93152 L 206.64565,731.93152 z"/>
<path title="Anand" d="M 202.29444,705.68428 C 202.40302,705.50859 201.96007,705.40616 201.09178,705.40616 C 200.30548,705.40616 199.71723,705.28302 199.71723,705.11843 C 199.71723,704.96017 199.58186,704.91435 199.41642,705.0166 C 199.2115,705.14325 199.17747,705.0076 199.30968,704.59106 C 199.45509,704.13291 199.41675,704.03337 199.15676,704.19405 C 198.90688,704.34848 198.86065,704.27593 198.99156,703.93478 C 199.21974,703.34015 198.92641,702.09865 198.60471,702.29747 C 198.47038,702.38049 198.44224,701.88394 198.54059,701.16632 C 198.67377,700.19481 198.63613,699.93651 198.38414,700.09225 C 198.13477,700.24637 198.09792,700.05443 198.23577,699.3196 C 198.35697,698.67362 198.31675,698.34189 198.11725,698.34189 C 197.95119,698.34189 197.81531,698.20012 197.81531,698.02683 C 197.81531,697.68469 200.73999,694.48813 201.25594,694.26635 C 201.64143,694.10065 203.52107,691.40052 203.52107,691.01247 C 203.52107,690.65725 203.37905,690.64266 206.10224,691.27762 C 208.67762,691.87812 209.92325,691.96116 210.17778,691.54933 C 210.27014,691.39989 210.58006,691.27762 210.86649,691.27762 C 211.15291,691.27762 211.77668,690.84969 212.25262,690.32666 C 212.72857,689.80364 213.32155,689.3757 213.57036,689.3757 C 214.07506,689.3757 215.20428,690.46091 215.20428,690.94595 C 215.20428,691.33608 216.08106,691.82103 216.7864,691.82103 C 217.1764,691.82103 217.36399,691.57283 217.49276,690.88645 C 217.69798,689.79252 219.01068,688.5606 219.97113,688.5606 C 220.69746,688.5606 222.45382,690.67192 223.16662,692.40189 L 223.57389,693.39031 L 222.22983,695.39063 C 221.49062,696.49079 220.46914,698.12453 219.9599,699.02115 C 219.45066,699.91777 218.44741,701.22097 217.73048,701.91716 C 216.6713,702.94568 216.19776,703.20892 215.20428,703.32147 C 213.64857,703.49773 209.31348,704.52556 208.66733,704.87137 C 208.39695,705.01607 207.69688,705.13446 207.11161,705.13446 C 206.52634,705.13446 205.69301,705.24664 205.25975,705.38374 C 203.91863,705.80814 202.10424,705.99203 202.29444,705.68428 L 202.29444,705.68428 z"/>
<path title="Ahmadabad" d="M 192.17748,713.55912 C 191.54818,713.17622 191.29445,712.82036 191.29445,712.32072 C 191.29445,711.9351 191.16872,711.38469 191.01506,711.09757 C 190.7605,710.62192 190.52244,710.59067 188.33624,710.74585 C 185.87004,710.9209 183.34783,710.61496 180.89967,709.84381 C 179.73592,709.47724 179.54818,709.30003 179.01816,708.06796 C 178.48661,706.83234 178.26767,706.62676 176.76564,705.95284 C 174.85492,705.09556 174.17718,704.24772 174.17718,702.71473 C 174.17718,702.12054 174.05491,701.55883 173.90547,701.46647 C 173.35282,701.12491 173.90817,697.25508 174.50984,697.25508 C 174.65732,697.25508 175.14125,697.56075 175.58524,697.93434 C 176.60362,698.79125 176.99339,698.78821 177.62701,697.91839 C 178.08533,697.28922 178.21006,697.25266 178.94025,697.53358 C 179.39635,697.70905 180.29204,697.77311 181.0007,697.68093 C 181.93421,697.55951 182.34043,697.62163 182.59152,697.92417 C 182.8328,698.21489 183.06638,698.2568 183.41262,698.0715 C 183.95829,697.77947 185.04528,696.06177 185.04528,695.49153 C 185.04528,695.28554 185.3809,695.07894 185.79247,695.03158 C 186.37168,694.96494 186.67456,694.67076 187.13978,693.72295 C 187.77291,692.43304 187.94723,690.88057 187.49061,690.59837 C 186.96102,690.27106 187.23003,689.19501 188.03401,688.42474 C 188.85181,687.64124 189.14338,686.3292 188.57742,685.97942 C 188.42798,685.88706 188.30572,685.32662 188.30572,684.734 C 188.30572,683.84213 188.19166,683.61313 187.64365,683.40478 C 187.01054,683.16408 186.97596,683.02471 186.85294,680.219 C 186.78218,678.60526 186.58568,676.4902 186.41625,675.51887 C 185.71777,671.5145 185.72602,671.3624 186.67154,670.8069 C 187.46205,670.34246 187.49563,670.264 187.13664,669.72009 C 186.92383,669.39766 186.39678,669.09388 185.96542,669.04502 C 184.80815,668.91394 184.69487,668.67308 184.91171,666.80478 C 185.06961,665.44429 185.25893,664.96523 185.86104,664.40259 C 186.27471,664.01605 186.69922,663.39413 186.80443,663.02054 C 187.28405,661.31737 187.60515,660.88591 188.52089,660.71411 C 189.27036,660.57352 189.86691,660.76522 191.8217,661.77482 C 194.15009,662.97739 194.25216,663.00299 196.04895,662.8352 C 197.65739,662.68501 197.8597,662.71604 197.64898,663.08066 C 197.23324,663.80002 195.38375,665.73757 195.11282,665.73757 C 194.62269,665.73757 193.52883,667.50614 193.34833,668.59045 C 192.71893,672.37136 192.83736,673.61695 193.82622,673.61695 C 194.28576,673.61695 194.53316,673.85876 194.78439,674.55353 C 195.18702,675.66701 195.94666,675.98839 196.7861,675.40042 C 197.11979,675.16669 197.84659,674.97546 198.40121,674.97546 C 199.2806,674.97546 199.5075,675.12017 200.17475,676.1066 L 200.93989,677.23774 L 203.91278,677.23521 C 206.671,677.23286 206.90411,677.19142 207.14065,676.6613 C 207.39695,676.08692 207.75379,675.96549 210.08536,675.65922 C 211.19569,675.51338 211.40461,675.56881 211.78351,676.10975 C 212.02113,676.44902 212.21555,676.9214 212.21555,677.15951 C 212.21555,677.39761 212.70462,677.86729 213.30237,678.20325 C 213.90769,678.54346 214.3865,679.01701 214.38313,679.27216 C 214.37391,679.97101 213.55836,680.83683 212.33323,681.44841 C 211.72548,681.75179 211.06255,682.19966 210.86004,682.44367 C 210.38429,683.0169 208.4714,683.94051 207.74935,683.9456 C 207.16836,683.9497 205.15062,684.59259 204.31481,685.0399 C 203.63393,685.40429 203.21822,686.88376 203.14066,689.21851 C 203.08386,690.92837 202.96263,691.38189 202.34639,692.18982 C 201.94641,692.71422 201.61915,693.27371 201.61915,693.43312 C 201.61915,693.59252 201.37776,693.72295 201.08272,693.72295 C 200.77372,693.72295 200.38004,694.03973 200.15416,694.47013 C 199.93848,694.88108 199.26288,695.70063 198.65281,696.29134 C 198.04276,696.88206 197.54361,697.56063 197.54361,697.79929 C 197.54361,698.03795 197.39078,698.39787 197.20398,698.59911 C 196.93906,698.88454 196.93837,698.92326 197.20087,698.7752 C 197.42637,698.648 197.4842,698.72396 197.37617,699.00548 C 197.2875,699.23654 197.11731,699.36523 196.99795,699.29146 C 196.80571,699.17265 196.50668,700.91706 196.42746,702.61941 C 196.41185,702.95466 196.29861,703.16685 196.1758,703.09095 C 195.87166,702.90298 195.55855,703.96502 195.80198,704.3589 C 195.93193,704.56917 195.87799,704.60124 195.64087,704.4547 C 195.37528,704.29056 195.32348,704.38388 195.4377,704.82065 C 195.52951,705.17171 195.48321,705.34028 195.32229,705.24084 C 195.15614,705.13815 195.08296,705.55273 195.13057,706.32696 C 195.18071,707.14228 195.07459,707.69777 194.82641,707.91911 C 194.52305,708.18964 194.52577,708.1481 194.83969,707.71564 C 195.20352,707.21442 195.19746,707.20099 194.76165,707.54265 C 194.50179,707.74637 194.34934,708.01044 194.4229,708.12946 C 194.6421,708.48412 194.24953,709.22128 193.94251,709.03153 C 193.75095,708.91313 193.70581,709.44208 193.80356,710.65983 C 193.90093,711.87293 193.85583,712.40631 193.66579,712.28886 C 193.48002,712.17404 193.4429,712.41252 193.55741,712.9851 C 193.65602,713.47814 193.62555,713.79043 193.48718,713.70491 C 193.35275,713.62183 193.20177,713.67594 193.15165,713.82514 C 193.1011,713.97562 192.66731,713.85717 192.17748,713.55912 L 192.17748,713.55912 z"/>
<path title="Bhavnagar" d="M 169.01482,742.57333 C 169.01482,741.24881 168.16837,739.56297 167.1107,738.78101 C 166.66361,738.45045 166.2978,738.00162 166.2978,737.7836 C 166.2978,737.56558 166.73139,736.85806 167.26133,736.21134 C 168.17903,735.0914 168.22103,734.94927 168.14436,733.22299 C 168.05528,731.21704 167.5632,730.52834 166.63743,731.11388 C 165.95378,731.54629 164.3126,730.7506 164.48988,730.07269 C 164.56743,729.77619 164.36233,729.38703 163.96295,729.07288 C 163.60331,728.78999 163.30907,728.4233 163.30907,728.25801 C 163.30907,727.88331 164.03271,727.86138 164.26003,728.22919 C 164.57534,728.73938 165.46279,728.50176 166.43716,727.64626 L 167.41053,726.79163 L 166.68301,726.03227 C 165.77011,725.07939 165.93002,724.63242 167.5259,723.67617 C 168.67943,722.98499 168.76445,722.85791 168.69937,721.92232 C 168.64837,721.18922 168.79323,720.73905 169.22957,720.27459 C 170.17075,719.27276 170.00441,718.40013 168.642,717.19191 C 167.98863,716.61249 166.90578,715.81782 166.23566,715.42597 L 165.01728,714.71352 L 164.87731,712.75741 C 164.80033,711.68156 164.59939,710.66334 164.43076,710.49472 C 163.93759,710.00155 164.07529,709.48684 164.77119,709.22226 C 165.20341,709.05793 165.78061,708.25975 166.50982,706.81797 L 167.60142,704.65967 L 166.90342,703.96167 C 166.31072,703.36897 166.2593,703.19876 166.56255,702.83336 C 166.75896,702.5967 167.05916,701.70326 167.22965,700.84795 C 167.53,699.34111 167.56884,699.29021 168.481,699.20764 C 169.01072,699.15969 169.85916,698.77499 170.42121,698.32792 C 172.54257,696.6405 173.84058,696.56208 173.51075,698.14125 C 173.05073,700.34371 173.04153,701.22356 173.47474,701.58309 C 173.72506,701.79083 173.90547,702.35916 173.90547,702.93994 C 173.90547,704.6019 174.41489,705.28474 176.35493,706.22327 C 177.92803,706.98429 178.20949,707.24333 178.80384,708.47714 C 179.42505,709.76669 179.58738,709.90503 180.96974,710.32297 C 183.51269,711.09178 185.9258,711.42429 188.30878,711.33422 L 190.59587,711.24777 L 190.76703,712.26966 C 190.86116,712.8317 190.98777,713.33578 191.04839,713.38984 C 191.35797,713.66595 193.08786,714.47658 193.26429,714.42822 C 193.37637,714.39749 193.46807,715.23543 193.46807,716.29031 C 193.46807,717.6724 193.3803,718.15402 193.15395,718.01413 C 192.92896,717.87507 192.88925,718.06706 193.01401,718.69086 C 193.13782,719.30994 193.09829,719.50616 192.87726,719.36956 C 192.64689,719.22718 192.6085,720.06996 192.7291,722.62239 C 192.84458,725.06641 192.80625,726.01446 192.59718,725.88524 C 192.40287,725.76515 192.3488,725.94548 192.43846,726.41452 C 192.5237,726.86042 192.47047,727.06167 192.29583,726.95373 C 192.12696,726.84938 192.08506,726.95835 192.18945,727.2304 C 192.29566,727.50716 192.23522,727.65447 192.03185,727.6146 C 191.85044,727.57904 191.70044,727.75527 191.69854,728.00624 C 191.69663,728.2572 191.58533,728.56287 191.4512,728.68549 C 191.30912,728.81538 191.29973,728.74916 191.42872,728.52684 C 191.58232,728.26207 191.54839,728.2081 191.3179,728.35054 C 191.1352,728.46346 191.04983,728.72298 191.1282,728.92723 C 191.20659,729.13148 191.1349,729.38254 190.9689,729.48513 C 190.77342,729.60594 190.74453,729.54635 190.88689,729.316 C 191.03671,729.07358 191.00093,729.02571 190.7745,729.16565 C 190.59179,729.27857 190.50174,729.5259 190.57441,729.71525 C 190.64707,729.90461 190.07464,730.65641 189.30234,731.38591 L 187.89816,732.71229 L 189.25656,731.21792 L 190.61494,729.72356 L 189.04801,731.21334 C 188.18621,732.03272 187.53553,732.845 187.60207,733.01841 C 187.66862,733.19181 187.39566,733.62181 186.9955,733.97395 L 186.26795,734.61421 L 186.81135,733.92186 C 187.26915,733.33858 187.23705,733.34996 186.60757,733.99407 C 185.82745,734.79234 185.6382,735.66748 186.17408,735.99866 C 186.38165,736.12694 186.41339,736.07221 186.26795,735.83687 C 186.13549,735.62254 186.15508,735.5473 186.31726,735.64753 C 186.46527,735.73901 186.56874,736.05337 186.54717,736.3461 C 186.49809,737.01221 185.87988,737.7829 185.55547,737.58241 C 185.1736,737.3464 184.20242,737.74576 184.39611,738.05916 C 184.50833,738.24075 184.35327,738.27164 183.95847,738.14634 C 183.50033,738.00093 183.40078,738.03927 183.56147,738.29925 C 183.71394,738.54596 183.64525,738.5961 183.32379,738.47274 C 182.73224,738.24575 182.00989,738.53029 182.23854,738.90024 C 182.3507,739.08173 182.2488,739.12495 181.96527,739.01615 C 181.3769,738.79038 180.65088,739.07288 180.87743,739.43945 C 180.97502,739.59737 180.92465,739.6449 180.76454,739.54595 C 180.36296,739.29776 179.57699,739.63719 179.78267,739.96999 C 179.88833,740.14096 179.72338,740.17009 179.33953,740.04826 C 178.8847,739.9039 178.78234,739.942 178.93993,740.19698 C 179.07818,740.4207 179.04197,740.47191 178.83567,740.3444 C 178.38736,740.06733 177.39157,740.43322 177.61408,740.79325 C 177.73248,740.98483 177.63668,741.02949 177.34633,740.91807 C 176.76784,740.69609 176.03039,740.9723 176.25053,741.3285 C 176.35619,741.49947 176.19125,741.5286 175.80739,741.40677 C 175.34924,741.26136 175.2497,741.2997 175.41039,741.55969 C 175.56286,741.80639 175.49417,741.85653 175.1727,741.73317 C 174.59421,741.5112 173.85676,741.7874 174.07691,742.14361 C 174.18257,742.31458 174.01763,742.34371 173.63377,742.22188 C 173.17894,742.07752 173.07658,742.11562 173.23417,742.3706 C 173.37243,742.59432 173.33622,742.64553 173.12991,742.51803 C 172.6816,742.24095 171.68582,742.60684 171.90833,742.96687 C 172.02672,743.15845 171.93093,743.20311 171.64057,743.09169 C 171.12336,742.89323 170.31542,743.13101 170.4988,743.42773 C 170.56609,743.5366 170.25972,743.62568 169.81798,743.62568 C 169.06649,743.62567 169.01482,743.55799 169.01482,742.57333 L 169.01482,742.57333 z M 186.4038,736.72129 C 186.4038,736.64657 186.2204,736.73765 185.99624,736.92368 C 185.77209,737.10971 185.58869,737.32305 185.58869,737.39777 C 185.58869,737.47249 185.77209,737.38141 185.99624,737.19538 C 186.2204,737.00935 186.4038,736.79601 186.4038,736.72129 L 186.4038,736.72129 z"/>
<path title="Amreli" d="M 158.69073,746.13029 C 158.68998,744.24927 157.99033,743.17284 156.76848,743.17284 C 155.98742,743.17284 155.97309,743.14644 155.97309,741.70754 C 155.97309,740.6557 155.8581,740.19812 155.56554,740.08585 C 155.34139,739.99984 155.15799,739.59808 155.15799,739.19305 C 155.15799,738.3708 153.5152,736.65198 152.72934,736.65198 C 152.47721,736.65198 151.91181,736.27465 151.47291,735.81348 C 150.33221,734.61494 149.87469,734.42131 149.0602,734.79242 C 148.53798,735.03035 148.19671,735.03211 147.68616,734.79949 C 147.12017,734.54161 147.0069,734.30164 147.0069,733.36044 L 147.0069,732.23087 L 148.19629,732.3939 C 149.13561,732.52264 149.47835,732.45451 149.8265,732.0698 C 150.45758,731.37247 150.39902,731.2103 149.11743,730.10652 L 147.96752,729.11616 L 148.91366,728.18276 C 149.43402,727.66939 150.13762,727.05903 150.4772,726.8264 C 151.1644,726.35563 151.05493,725.5133 150.30619,725.51049 C 150.06067,725.50957 149.50957,725.32617 149.08154,725.10294 C 148.65351,724.8797 148.13388,724.69706 147.92681,724.69706 C 147.71974,724.69706 147.55031,724.59924 147.55031,724.47969 C 147.55031,724.11911 148.1747,723.61056 148.62354,723.60555 C 148.85516,723.60297 149.32515,723.30506 149.66794,722.94352 L 150.29121,722.28619 L 148.98868,721.02525 C 146.91581,719.01857 146.56032,718.7196 146.24716,718.7196 C 145.62582,718.7196 145.67246,718.18928 146.36632,717.36467 C 147.15831,716.42345 146.69515,716.46178 152.28866,716.87454 C 153.34234,716.9523 153.35928,716.93876 153.37547,716.00681 C 153.38915,715.21976 153.56376,714.94859 154.4108,714.39899 C 155.48814,713.69998 155.63256,713.21295 155.10551,712.05621 C 154.68595,711.13538 155.09734,710.85005 156.85272,710.84438 C 158.0572,710.84048 158.18397,710.7704 158.82597,709.75341 C 159.56792,708.57809 160.59204,708.25009 160.59204,709.18778 C 160.59204,709.97048 160.8806,710.56852 161.25825,710.56852 C 161.88161,710.56852 162.49396,709.58178 162.49396,708.57728 C 162.49396,707.53625 162.71905,707.39031 163.59863,707.86105 C 164.2037,708.18487 164.26683,708.71724 163.7906,709.47982 C 163.51739,709.91728 163.54198,710.15779 163.92645,710.80864 C 164.21818,711.30251 164.39588,712.16969 164.39588,713.09953 C 164.39588,714.44122 164.48343,714.66942 165.24356,715.30903 C 165.70978,715.70133 166.47394,716.21522 166.9417,716.45101 C 169.12312,717.55063 169.88963,719.17638 168.72403,720.23124 C 168.28817,720.62568 168.19873,720.93865 168.32678,721.62119 C 168.47858,722.43032 168.39713,722.56361 167.32699,723.2574 C 166.68621,723.67282 166.07212,724.13612 165.96233,724.28696 C 165.54987,724.85361 165.75972,725.92818 166.35548,726.30024 L 166.95657,726.67562 L 166.04167,727.43944 C 165.34235,728.02324 165.01284,728.14227 164.64333,727.94451 C 163.21239,727.1787 162.14398,728.19056 163.40986,729.11268 C 163.90743,729.47514 164.09217,729.80393 163.98607,730.13822 C 163.86899,730.50708 164.12061,730.80362 164.99121,731.32277 C 165.73929,731.76887 166.24603,731.92177 166.41535,731.75246 C 166.55991,731.6079 166.89826,731.48962 167.16725,731.48962 C 167.59098,731.48962 167.65483,731.73459 167.64527,733.32362 C 167.63545,734.95452 167.54518,735.26178 166.83016,736.09831 C 165.8127,737.28866 165.7701,738.37363 166.71649,738.99373 C 167.91942,739.78191 168.78047,741.58439 168.70842,743.16349 C 168.66185,744.18414 168.55011,744.51543 168.28654,744.41429 C 167.77027,744.21617 167.08419,744.53679 167.29489,744.8777 C 167.40731,745.0596 167.3046,745.1022 167.01841,744.99237 C 166.44357,744.77179 165.16989,745.33187 165.39993,745.70407 C 165.50422,745.8728 165.39398,745.91396 165.1197,745.80872 C 164.52816,745.58173 163.80581,745.86626 164.03446,746.23621 C 164.14687,746.41811 164.04417,746.46071 163.75797,746.35089 C 163.21307,746.14179 161.90404,746.68161 162.11769,747.0273 C 162.20202,747.16374 161.94244,747.1885 161.52524,747.08379 C 161.03401,746.9605 160.84251,746.99422 160.95944,747.18342 C 161.07162,747.36492 160.92201,747.4134 160.54993,747.31609 C 160.1908,747.22218 160.02953,747.26936 160.13367,747.43787 C 160.23504,747.60189 159.97817,747.70144 159.49752,747.68444 C 158.70296,747.65635 158.69135,747.634 158.69074,746.13029 L 158.69073,746.13029 z"/>
<path title="Junagadh" d="M 142.52381,748.82921 C 141.32832,748.69772 140.0759,748.58092 139.74066,748.56966 C 139.40541,748.55839 139.19866,748.4399 139.28121,748.30634 C 139.36376,748.17277 139.14898,748.05916 138.80393,748.05386 C 138.45888,748.04857 137.87706,747.87837 137.511,747.67565 C 137.14494,747.47292 136.66638,747.37577 136.44754,747.45974 C 136.20587,747.55249 136.12095,747.49707 136.23125,747.3186 C 136.33863,747.14487 135.66275,746.60696 134.57768,746.00257 C 133.24349,745.25942 131.55289,743.80592 128.38468,740.67814 C 125.98788,738.31191 123.77162,736.19714 123.45967,735.97864 C 122.95311,735.62383 122.91821,735.44257 123.13315,734.28268 C 123.26552,733.56839 123.55608,732.35384 123.77884,731.58366 C 124.00161,730.81348 124.18388,729.41399 124.18388,728.47368 C 124.18388,727.07967 124.05482,726.57781 123.48483,725.75531 C 123.10035,725.20051 122.43385,724.60081 122.00371,724.42264 C 120.67088,723.87057 119.68887,722.01376 120.20896,721.02907 C 120.36682,720.7302 120.56159,719.38527 120.64178,718.04034 C 120.77598,715.78972 120.83464,715.58832 121.37848,715.51087 C 121.83345,715.44608 122.08164,715.66482 122.45748,716.46183 C 123.07555,717.77252 123.79406,718.37011 125.00454,718.58024 C 126.5585,718.85 126.77237,719.07652 126.37619,720.03299 C 125.63854,721.81383 126.99514,722.6762 128.37057,721.30077 C 128.74416,720.92718 129.35281,720.62152 129.72312,720.62152 C 130.1578,720.62152 130.45755,720.42892 130.56889,720.07811 C 130.66375,719.77924 130.85539,719.5347 130.99475,719.5347 C 131.13412,719.5347 131.24815,719.30198 131.24815,719.01753 C 131.24815,718.5519 131.5122,718.48949 133.89725,718.39146 C 135.93697,718.30761 136.65512,718.37321 137.01919,718.67665 C 137.27925,718.8934 138.31851,719.14925 139.32866,719.2452 C 140.6543,719.37112 141.46767,719.61963 142.25211,720.13838 C 143.65332,721.06503 144.72384,720.92323 144.97545,719.77765 C 145.18526,718.82238 145.9303,718.73333 146.71007,719.57032 C 147.00677,719.88878 147.51937,720.28615 147.8492,720.45336 C 148.17902,720.62056 148.69204,721.08493 148.98923,721.48529 C 149.48036,722.14693 149.4907,722.25207 149.10275,722.64002 C 148.868,722.87477 148.56625,723.06684 148.43219,723.06684 C 148.08526,723.06684 147.0069,724.2621 147.0069,724.64664 C 147.0069,724.82381 147.2976,724.96876 147.65289,724.96876 C 148.00819,724.96876 148.45109,725.15216 148.63712,725.37631 C 148.82315,725.60047 149.32719,725.78387 149.7572,725.78387 C 150.18721,725.78387 150.53898,725.87557 150.53891,725.98764 C 150.53883,726.09972 149.9275,726.71784 149.18039,727.36123 C 148.43328,728.00463 147.82201,728.75613 147.82201,729.03123 C 147.82201,729.30633 148.25658,729.91297 148.78773,730.37932 C 149.6727,731.15634 149.71712,731.26355 149.319,731.66167 C 149.01629,731.96438 148.62929,732.04505 148.04269,731.92773 C 146.9226,731.70371 146.4635,732.1401 146.4635,733.4288 C 146.4635,734.32875 146.59509,734.56773 147.34653,735.03252 C 148.19525,735.55748 148.50717,735.57716 149.49702,735.16824 C 149.80429,735.04131 150.29413,735.29285 151.02432,735.95253 C 151.61554,736.48667 152.24381,736.92368 152.42048,736.92368 C 153.13047,736.92368 154.61456,738.41736 154.61457,739.13196 C 154.61457,739.52461 154.79218,739.99327 155.00925,740.17342 C 155.24732,740.371 155.43598,741.1119 155.48473,742.04068 L 155.56554,743.58039 L 156.5165,743.66353 C 157.03953,743.70925 157.62029,743.94658 157.80709,744.19094 C 158.22305,744.73508 158.2671,747.79179 157.85898,747.79179 C 157.70072,747.79179 157.62816,747.88349 157.69772,747.99556 C 157.7673,748.10764 156.09335,748.16498 153.97785,748.12298 C 151.21032,748.06803 150.2458,748.12744 150.53904,748.33478 C 150.83484,748.54394 150.46231,748.57788 149.18053,748.45858 C 147.86314,748.33597 147.518,748.37005 147.82201,748.59277 C 148.12777,748.81676 147.8563,748.85054 146.7352,748.72798 C 145.64206,748.60847 145.35026,748.64211 145.64839,748.85329 C 146.13043,749.19474 145.8257,749.19239 142.52381,748.82921 L 142.52381,748.82921 z"/>
<path title="Porbandar" d="M 121.53492,734.48345 C 121.21712,734.18738 120.1306,732.75075 119.12043,731.29094 C 118.11026,729.83114 116.99098,728.35701 116.63316,728.01511 C 116.27185,727.66988 116.05034,727.21684 116.135,726.99623 C 116.34012,726.4617 116.04318,725.74538 115.70351,725.9553 C 115.53817,726.05749 115.49766,725.91413 115.60041,725.59041 C 115.77891,725.028 115.63977,724.79044 112.94197,721.05173 C 112.08832,719.86871 110.70341,717.54565 109.86439,715.88938 C 108.54279,713.28046 108.01871,712.56187 105.94308,710.51267 C 104.62538,709.21175 103.63607,708.09437 103.74464,708.0296 C 103.8532,707.96483 104.62687,707.7711 105.4639,707.59909 C 106.53694,707.37857 107.21301,707.04915 107.75628,706.4821 C 108.32691,705.88649 108.77791,705.67751 109.49484,705.67648 C 110.04629,705.67568 110.9306,705.38701 111.5497,705.0057 C 112.6156,704.34919 113.85917,704.10042 113.85917,704.5437 C 113.85917,704.86435 112.65834,705.94957 112.30352,705.94957 C 111.89294,705.94957 110.76837,707.32943 110.34401,708.35392 C 109.72313,709.85286 109.99496,710.02511 112.9812,710.02511 C 114.69654,710.02511 115.76908,710.14178 115.97846,710.35115 C 116.15778,710.53047 116.30637,711.23351 116.30866,711.91344 C 116.31408,713.52445 116.59447,713.95146 117.498,713.7247 C 118.07368,713.58021 118.20642,713.64282 118.20642,714.05883 C 118.20642,714.71173 119.21192,716.00257 119.7205,716.00257 C 120.21612,716.00257 120.26122,719.36894 119.78681,720.95237 C 119.49745,721.91819 119.53094,722.14572 120.12172,723.22719 C 120.48276,723.8881 121.00228,724.49999 121.27621,724.58693 C 121.55013,724.67388 122.19415,725.11368 122.70737,725.56429 C 123.60579,726.35311 123.64047,726.45526 123.64047,728.31214 C 123.64047,730.15669 122.6615,735.02176 122.29033,735.02176 C 122.19264,735.02176 121.85271,734.77952 121.53492,734.48345 L 121.53492,734.48345 z"/>
<path title="Jamnagar" d="M 116.76673,713.1138 C 116.66194,713.00901 116.5762,712.35127 116.5762,711.65215 C 116.5762,709.75633 116.13517,709.4817 113.0906,709.4817 C 110.73373,709.4817 110.59874,709.45053 110.59874,708.90633 C 110.59874,708.35978 111.55084,707.28687 113.53901,705.593 C 115.30822,704.08568 113.69955,703.09015 111.66756,704.43486 C 110.99437,704.88036 110.23289,705.13446 109.57106,705.13446 C 108.73994,705.13446 108.34706,705.32498 107.61001,706.08542 C 107.10307,706.60845 106.42606,707.03638 106.10553,707.03638 C 105.785,707.03638 104.92394,707.2166 104.19206,707.43686 L 102.86137,707.83734 L 101.67741,706.68968 C 100.29145,705.34621 95.518092,699.48006 94.606969,698.00057 C 94.26129,697.43925 93.850777,697.05891 93.694719,697.15536 C 93.533075,697.25526 93.467614,697.1683 93.542598,696.95328 C 93.614994,696.74568 93.335765,696.14365 92.922089,695.61544 C 92.508419,695.08722 91.955833,694.20603 91.694129,693.65723 C 91.432427,693.10843 91.103086,692.73062 90.962265,692.81765 C 90.810736,692.9113 90.785444,692.7263 90.900295,692.36443 C 91.041254,691.92031 91.00408,691.80878 90.764444,691.95688 C 90.524807,692.10498 90.487633,691.99345 90.628592,691.54933 C 90.769552,691.1052 90.732377,690.99367 90.492741,691.14177 C 90.253105,691.28987 90.21593,691.17835 90.35689,690.73422 C 90.471507,690.37309 90.446348,690.18742 90.29543,690.28069 C 90.154889,690.36754 90.039394,690.10776 90.038772,689.70338 C 90.038152,689.299 89.945735,688.47909 89.833405,687.88134 C 89.721073,687.28359 89.719684,686.88433 89.830313,686.99408 C 90.102462,687.26408 90.743014,686.38195 90.764389,685.70772 C 90.790647,684.87952 91.992513,683.66995 92.78918,683.66995 C 93.169942,683.66995 93.481471,683.78221 93.481471,683.91943 C 93.481471,684.05664 93.563381,684.38237 93.663495,684.64326 C 93.787593,684.96666 93.744368,685.05509 93.527644,684.92115 C 93.053167,684.6279 93.125326,685.97865 93.605422,686.3771 C 93.823026,686.5577 94.120247,686.63181 94.265904,686.54178 C 94.411566,686.45176 94.619207,686.52126 94.727339,686.69623 C 94.858406,686.9083 94.805391,686.94107 94.568282,686.79453 C 94.325863,686.64471 94.277992,686.68049 94.417932,686.90692 C 94.53086,687.08964 94.790363,687.175 94.994618,687.09662 C 95.198874,687.01824 95.449927,687.08993 95.552519,687.25593 C 95.673335,687.4514 95.613739,687.4803 95.38339,687.33793 C 95.148049,687.19249 95.093312,687.22424 95.221593,687.4318 C 95.32822,687.60433 95.713911,687.74549 96.078682,687.74549 C 96.498235,687.74549 96.741903,687.90111 96.741903,688.16908 C 96.741903,688.40205 96.864169,688.5171 97.013606,688.42474 C 97.163042,688.33239 97.285309,688.31517 97.285309,688.38649 C 97.285309,688.45781 97.357976,688.74012 97.44679,689.01385 C 97.58109,689.42778 97.558924,689.44295 97.315101,689.104 C 97.153853,688.87985 97.020053,688.83279 97.017766,688.99943 C 97.015475,689.16608 97.267012,689.62458 97.576732,690.01832 C 98.122563,690.71223 98.22938,690.73422 101.05453,690.73422 C 104.1507,690.73422 104.62128,690.56573 104.62128,689.45721 C 104.62128,689.11351 104.75076,688.8323 104.90902,688.8323 C 105.06728,688.8323 105.12119,688.71003 105.02884,688.5606 C 104.85224,688.27486 104.95732,688.24181 106.2169,688.187 C 106.66796,688.16738 106.95063,688.27497 106.88658,688.44189 C 106.82562,688.60075 107.00748,688.94046 107.29073,689.19679 C 107.70319,689.57006 107.95306,689.60683 108.54577,689.38148 C 108.9528,689.22673 109.38256,689.1599 109.50079,689.23296 C 109.89266,689.47516 113.96596,686.31263 113.65834,686.00501 C 113.56955,685.91622 113.86911,685.84357 114.32403,685.84357 C 114.79357,685.84357 115.3067,686.04913 115.51094,686.31905 C 115.81703,686.72355 115.81388,686.74383 115.48987,686.4549 C 115.2804,686.2681 114.98063,686.11608 114.82372,686.11706 C 114.66681,686.11805 114.90523,686.36177 115.35354,686.65868 C 116.48666,687.40911 119.0411,687.34979 118.56784,686.58403 C 118.45436,686.40042 118.56054,686.36046 118.85834,686.47474 C 119.14859,686.58612 119.70806,686.39638 120.32449,685.9775 C 120.87273,685.60497 121.54466,685.30016 121.81766,685.30016 C 122.11141,685.30016 122.23814,685.17737 122.12812,684.99935 C 122.00147,684.79443 122.13712,684.7604 122.55366,684.89261 C 122.93045,685.0122 123.10182,684.98425 123.00018,684.8198 C 122.89696,684.65279 123.29706,684.60497 124.06929,684.69201 C 124.74801,684.76851 125.57109,684.6947 125.89834,684.52798 C 126.2256,684.36125 127.10468,684.19169 127.85186,684.15117 C 129.09125,684.08396 129.20446,684.02251 129.14286,683.45039 C 129.10572,683.10547 129.17859,682.88709 129.30479,682.96508 C 129.43099,683.04307 129.82817,682.47454 130.18742,681.70166 C 130.90894,680.14938 132.21801,678.3808 134.43475,675.96339 C 135.23829,675.0871 135.83702,674.31142 135.76526,674.23965 C 135.62714,674.10154 137.31467,672.53014 137.60111,672.53014 C 137.69345,672.53014 137.76901,673.56972 137.76901,674.84032 L 137.76901,677.1505 L 138.82209,678.10188 C 140.45003,679.57263 140.43684,680.16735 138.70682,683.29851 C 137.89216,684.77297 137.22561,686.23955 137.22561,686.55758 C 137.22561,686.8756 137.50071,687.33081 137.83694,687.56916 C 138.41201,687.97682 138.42007,688.02487 137.97279,688.37944 C 137.71128,688.58674 137.49731,688.94684 137.49731,689.17966 C 137.49731,689.95855 137.17198,690.46251 136.66917,690.46251 C 135.87942,690.46251 135.7731,690.97475 136.49461,691.30349 C 137.08705,691.57343 137.13923,691.72952 137.01718,692.86693 C 136.94261,693.5619 136.83997,694.17822 136.78908,694.23653 C 136.7382,694.29485 136.20392,693.89748 135.60179,693.3535 C 134.37718,692.24714 133.5574,692.08813 133.34117,692.915 C 133.03636,694.0806 137.05411,697.52679 138.71783,697.52679 C 139.5134,697.52679 139.68907,697.64031 139.84309,698.25396 C 139.94561,698.66244 139.87296,699.34713 139.67733,699.81625 C 139.48578,700.27556 139.19478,701.171 139.03067,701.8061 L 138.73228,702.96084 L 135.58098,702.96084 C 132.52965,702.96084 132.40879,702.98343 131.77099,703.67284 C 131.4087,704.06445 130.60835,704.60358 129.99241,704.87091 C 129.05737,705.27675 128.84226,705.51832 128.68914,706.33452 C 128.52454,707.21192 128.43634,707.29465 127.82823,707.14202 C 127.00546,706.93552 126.0858,707.66259 126.0858,708.51956 C 126.0858,708.84067 125.68261,709.49419 125.18983,709.97181 C 124.39713,710.74012 124.11712,710.84022 122.76054,710.84022 C 121.91721,710.84022 121.16179,710.94609 121.08181,711.07548 C 121.00184,711.20488 120.63009,711.25219 120.25569,711.18062 C 119.01797,710.94402 118.23871,711.31898 117.99235,712.26969 C 117.77508,713.10818 117.17464,713.52171 116.76673,713.1138 L 116.76673,713.1138 z M 97.794056,689.98704 C 97.456093,689.5561 97.465703,689.54649 97.89664,689.88445 C 98.158154,690.08955 98.37212,690.30351 98.37212,690.35993 C 98.37212,690.58355 98.149,690.43962 97.794056,689.98704 z M 107.30365,688.90022 C 106.96569,688.46929 106.9753,688.45968 107.40623,688.79764 C 107.66775,689.00273 107.88171,689.2167 107.88171,689.27312 C 107.88171,689.49674 107.65859,689.35281 107.30365,688.90022 z"/>
<path title="Rajkot" d="M 126.71208,721.26071 C 126.61761,721.01451 126.67487,720.45661 126.83933,720.02091 C 127.09223,719.3509 127.05718,719.14757 126.61207,718.70246 C 126.31555,718.40595 125.71429,718.17619 125.23484,718.17619 C 124.61107,718.17619 124.13959,717.91716 123.46878,717.20589 C 122.96546,716.67222 122.55366,716.01301 122.55366,715.74098 C 122.55366,715.04532 121.35827,714.79635 120.55266,715.32421 C 119.9688,715.70677 119.86086,715.70128 119.32388,715.26176 C 118.69147,714.74412 118.18867,712.13799 118.66448,711.84392 C 118.80382,711.75781 120.16439,711.60149 121.68798,711.49656 L 124.45814,711.30576 L 125.54367,710.1281 C 126.14071,709.48039 126.6292,708.71815 126.6292,708.43423 C 126.6292,707.77757 127.47763,707.00867 127.64699,707.51186 C 127.70986,707.69866 127.97975,707.85149 128.24675,707.85149 C 128.59025,707.85149 128.8323,707.49397 129.07453,706.62883 C 129.32107,705.74824 129.55636,705.40616 129.91549,705.40616 C 130.18975,705.40616 130.86609,705.0088 131.41849,704.52313 C 132.41422,703.64768 132.45221,703.63893 135.84311,703.50424 L 139.26338,703.36839 L 139.41411,702.28158 C 139.49701,701.68384 139.71098,700.92771 139.88959,700.6013 C 140.28891,699.87154 140.31218,698.21729 139.93308,697.50892 C 139.7367,697.14199 139.36289,696.98338 138.69448,696.98338 C 138.0331,696.98338 137.38509,696.71288 136.59834,696.10839 C 134.78795,694.71739 133.69347,693.64498 133.69347,693.26209 C 133.69347,692.63617 134.47878,692.88233 135.53972,693.84083 C 136.15708,694.39857 136.70423,694.69236 136.90014,694.57128 C 137.08975,694.4541 137.27483,693.52033 137.33934,692.35545 C 137.40075,691.24655 137.58332,690.29799 137.74577,690.24384 C 137.90799,690.18977 138.04072,689.86502 138.04072,689.52218 C 138.04072,689.17934 138.22411,688.74663 138.44827,688.5606 C 139.03053,688.07736 138.95194,687.54291 138.24449,687.17484 C 137.90826,686.99991 137.59802,686.828 137.55506,686.79284 C 137.41906,686.68149 138.11044,685.2329 139.31765,683.09984 C 140.86442,680.3668 140.8795,679.43694 139.39923,678.06735 L 138.31242,677.06179 L 138.31242,674.38301 C 138.31242,672.01033 138.38827,671.58407 138.97624,670.65267 C 139.34135,670.0743 139.56422,669.52527 139.47153,669.43257 C 139.37884,669.33988 139.71046,669.34554 140.20847,669.44514 C 140.90061,669.58356 141.06396,669.54537 140.90182,669.28301 C 140.7439,669.02751 140.84597,668.98939 141.30115,669.13385 C 141.6883,669.25673 141.85026,669.22705 141.74266,669.05296 C 141.63422,668.87748 141.94551,668.82799 142.60295,668.91617 C 143.34463,669.01566 143.73445,668.93232 143.99479,668.61862 C 144.19368,668.37897 144.53206,668.18289 144.74673,668.18289 C 144.96141,668.18289 145.07685,668.08547 145.00326,667.9664 C 144.92967,667.84733 145.6826,667.71989 146.67644,667.6832 C 147.67028,667.64651 148.54857,667.51923 148.6282,667.40038 C 148.83221,667.09584 150.02972,666.82111 149.84412,667.12142 C 149.76038,667.25692 149.85191,667.38589 150.04752,667.40801 C 150.24314,667.43013 150.58659,667.47317 150.81074,667.50364 C 151.0349,667.5341 151.37835,667.57713 151.57396,667.59926 C 151.76958,667.62139 151.86283,667.74756 151.78119,667.87966 C 151.69956,668.01175 152.00351,668.2734 152.45665,668.4611 C 153.07611,668.71769 153.44518,668.72736 153.94402,668.50007 C 154.6661,668.17107 155.52541,668.38978 155.63347,668.93008 C 155.67082,669.11687 155.45686,669.2697 155.15799,669.2697 C 154.70992,669.2697 154.61458,669.45084 154.61458,670.30217 C 154.61458,670.87004 154.48329,671.46594 154.32281,671.62641 C 154.15772,671.7915 153.99634,673.3191 153.9511,675.14496 C 153.90229,677.11495 153.7291,678.67436 153.50643,679.14869 C 153.18025,679.84357 153.19629,679.96554 153.65838,680.30343 C 153.94254,680.51121 154.37629,680.68122 154.62228,680.68122 C 155.31058,680.68122 158.14672,682.8257 158.14672,683.34614 C 158.14672,683.59991 157.72288,684.40367 157.20485,685.13229 C 156.68683,685.8609 156.07673,687.09775 155.84908,687.88083 C 155.62143,688.66391 155.25054,689.45785 155.02488,689.64513 C 154.53064,690.05532 154.48767,690.89541 154.94643,691.17895 C 155.12895,691.29175 155.60998,691.35877 156.01538,691.32788 C 156.94431,691.25709 157.24351,691.71121 156.67897,692.33502 C 156.07517,693.00221 156.1372,694.05629 156.83227,694.93993 L 157.41975,695.68678 L 156.3568,696.58019 L 155.29384,697.47359 L 155.37301,700.81425 C 155.41737,702.68646 155.58128,704.31048 155.7459,704.50883 C 156.17947,705.03125 157.27606,704.93931 158.16553,704.30596 C 158.77567,703.87151 159.06454,703.8118 159.4802,704.03425 C 160.26761,704.45567 161.32558,704.3804 161.51393,703.88958 C 161.92767,702.81139 161.67643,702.15102 160.59204,701.46647 C 159.06861,700.50477 159.24834,699.41942 160.7995,700.21369 C 163.23857,701.4626 163.33134,701.48837 163.68104,701.014 C 163.95059,700.64834 164.27932,700.59621 165.39434,700.7423 L 166.77409,700.92307 L 166.35854,702.21984 C 165.96179,703.45794 165.9684,703.54399 166.50476,704.12176 L 167.06652,704.72691 L 166.30801,706.38837 C 165.44399,708.28095 165.00723,708.68358 164.52848,708.02885 C 164.34789,707.78187 164.06077,707.57979 163.89045,707.57979 C 163.72012,707.57979 163.58077,707.45752 163.58077,707.30808 C 163.58077,706.9179 162.56564,706.97241 162.31574,707.37601 C 162.20009,707.5628 162.04004,708.19475 161.96008,708.78033 C 161.79688,709.97561 161.13545,710.47406 161.13545,709.40176 C 161.13545,708.61492 160.54347,708.04038 159.86697,708.17066 C 159.60327,708.22144 159.03911,708.78174 158.6133,709.41575 C 157.88458,710.50077 157.76337,710.56852 156.55047,710.56852 C 154.89929,710.56852 154.15069,711.06025 154.58018,711.86275 C 155.09621,712.82698 154.93129,713.33074 153.77573,714.31986 C 152.94402,715.03177 152.69461,715.42445 152.78242,715.88378 L 152.89967,716.49712 L 149.86672,716.34775 L 146.83377,716.19838 L 145.86989,717.39106 C 145.33975,718.04704 144.78851,718.95054 144.64491,719.39885 C 144.45361,719.9961 144.18971,720.23694 143.65759,720.29993 C 143.25817,720.34722 142.93136,720.26447 142.93136,720.11606 C 142.93136,719.64462 141.26029,718.9913 140.05443,718.9913 C 138.76641,718.9913 137.56172,718.61484 137.1119,718.07177 C 136.89102,717.80511 136.09275,717.74795 133.89725,717.84157 C 131.26012,717.95402 130.97644,718.01591 130.97644,718.47871 C 130.97644,718.99583 130.08542,720.07811 129.65968,720.07811 C 129.10767,720.07811 127.71601,720.96778 127.71601,721.32067 C 127.71601,721.85675 126.92262,721.80936 126.71208,721.26071 L 126.71208,721.26071 z"/>
<path title="Surendranagar" d="M 156.15971,704.38728 C 156.09528,704.2752 155.95816,702.76625 155.855,701.03405 L 155.66743,697.8846 L 156.63537,697.03473 C 157.75753,696.04946 157.80704,695.72952 157.0388,694.42745 C 156.48881,693.49527 156.48692,693.44932 156.96538,692.63935 C 157.61294,691.54311 157.215,690.8401 156.00291,690.93903 C 155.33245,690.99375 155.15799,690.90244 155.15799,690.49682 C 155.15799,690.21567 155.32511,689.84695 155.52937,689.67743 C 155.73363,689.5079 156.11034,688.70286 156.36651,687.88844 C 156.62268,687.07402 157.19308,685.90959 157.63407,685.30081 C 158.07507,684.69204 158.49748,683.86208 158.57277,683.45647 C 158.69466,682.79979 158.51062,682.57759 156.89293,681.4284 C 155.89373,680.71858 154.78893,680.13781 154.43783,680.13781 C 153.98708,680.13781 153.79947,679.98282 153.79947,679.61044 C 153.79947,679.32039 153.9066,679.01686 154.03752,678.93595 C 154.16845,678.85503 154.27868,677.32677 154.28248,675.53983 C 154.28784,673.01097 154.38564,672.15339 154.72368,671.67077 C 154.96254,671.32974 155.15799,670.77225 155.15799,670.43191 C 155.15799,669.9624 155.31302,669.81311 155.8006,669.81311 C 156.15405,669.81311 156.73567,669.59914 157.09312,669.33763 C 158.41728,668.36884 158.99413,668.18289 160.6753,668.18289 C 162.24922,668.18289 162.49099,668.26408 163.50713,669.13385 C 164.11818,669.65688 164.76279,670.08481 164.93962,670.08481 C 165.11645,670.08481 165.572,670.32934 165.95195,670.62822 C 166.36796,670.95544 167.05419,671.17162 167.67692,671.17162 C 168.24568,671.17162 168.78662,671.29389 168.87897,671.44333 C 168.97133,671.59276 169.39926,671.71503 169.82993,671.71503 C 170.2606,671.71503 170.68853,671.59276 170.78089,671.44333 C 171.06897,670.9772 173.96617,671.14541 175.94912,671.7434 C 178.87001,672.62423 179.93019,672.68507 180.54376,672.0071 C 180.87327,671.64298 181.04609,671.07446 181.02546,670.42241 C 180.9992,669.59327 180.79048,669.22864 179.8947,668.44719 C 179.29049,667.92009 178.79566,667.30875 178.79511,667.08867 C 178.79454,666.8686 178.56928,666.31988 178.29451,665.86932 C 178.01974,665.41875 177.63479,664.19609 177.43908,663.15229 C 177.24335,662.10849 176.93116,661.00994 176.7453,660.71107 C 176.55945,660.4122 176.32528,659.89256 176.22493,659.55633 C 176.04888,658.96644 176.10429,658.945 177.80463,658.945 C 178.77381,658.945 179.76645,659.02162 180.01047,659.11526 C 180.2545,659.2089 180.87737,660.1259 181.39462,661.15303 C 181.91188,662.18016 182.47097,663.02054 182.63705,663.02054 C 182.80313,663.02054 183.42331,662.47034 184.01524,661.79788 C 184.87547,660.82061 185.2686,660.57522 185.97405,660.57522 C 187.12643,660.57522 187.2854,660.77336 186.82206,661.63223 C 186.61168,662.02221 186.367,662.68167 186.27832,663.09771 C 186.18658,663.52816 185.8398,663.98048 185.4736,664.14733 C 184.93446,664.39298 184.78436,664.74874 184.54802,666.34106 C 184.17843,668.83121 184.41974,669.47947 185.7582,669.59214 C 186.98733,669.69561 187.21234,670.14849 186.25201,670.58604 C 185.57292,670.89545 185.54868,670.98129 185.68237,672.60271 C 185.75917,673.53413 185.9426,675.0298 186.08998,675.92642 C 186.23736,676.82304 186.37013,678.7793 186.38503,680.27366 C 186.41332,683.11077 186.50402,683.46034 187.28683,683.74916 C 187.61237,683.86928 187.76231,684.21667 187.76231,684.85081 C 187.76231,685.36024 187.94571,685.92924 188.16986,686.11527 C 188.78837,686.62858 188.66866,687.09952 187.62646,688.25312 C 186.69325,689.28607 186.40943,690.266 186.9472,690.59837 C 187.32853,690.83404 187.27825,692.03408 186.83338,693.31539 C 186.54177,694.15532 186.28698,694.43306 185.71179,694.53806 C 184.944,694.67821 184.84851,694.79492 184.10966,696.49636 C 183.56108,697.75966 183.23458,697.96526 182.63649,697.424 C 182.27876,697.10025 181.83109,697.03569 180.79497,697.1584 C 179.91994,697.26203 179.19614,697.19747 178.78873,696.97942 C 178.21965,696.67486 178.09022,696.71501 177.58051,697.35426 C 176.87261,698.24204 176.60235,698.24678 175.58321,697.38922 C 175.12875,697.00683 174.59285,696.77775 174.36093,696.86674 C 174.13378,696.95391 173.69495,696.88983 173.38575,696.72435 C 172.73982,696.37866 171.7256,696.80076 170.06254,698.10742 C 169.40189,698.62648 168.75629,698.8853 168.12214,698.8853 C 167.32191,698.8853 167.14341,698.99845 166.992,699.60174 C 166.81665,700.30039 166.77231,700.31402 165.20703,700.15042 C 163.88739,700.01248 163.55765,700.06167 163.35325,700.42691 C 163.11497,700.85269 162.87751,700.82732 161.95055,700.27703 C 160.30228,699.29853 159.39066,699.24648 159.05856,700.11192 C 158.86775,700.60917 159.65171,701.56484 160.52411,701.89848 C 160.97182,702.06971 161.13545,702.35225 161.13545,702.95411 C 161.13545,703.63091 161.02756,703.77258 160.52411,703.75685 C 160.18788,703.74635 159.66825,703.64211 159.36938,703.52521 C 158.99178,703.37753 158.51673,703.50771 157.81249,703.95186 C 156.74986,704.62204 156.35455,704.72618 156.15971,704.38728 L 156.15971,704.38728 z"/>
<path title="Patan" d="M 181.77668,661.0507 C 180.72475,658.72243 180.64866,658.6733 178.09447,658.6733 C 176.0206,658.6733 175.80552,658.62078 175.31253,657.99404 C 175.01866,657.62045 174.64793,657.31478 174.48868,657.31478 C 174.32943,657.31478 173.70018,656.82572 173.09036,656.22797 C 172.48054,655.63023 171.75139,655.14116 171.47002,655.14116 C 170.80369,655.14116 169.36758,653.92561 169.12868,653.15938 C 169.02589,652.82971 168.57496,652.04628 168.1266,651.41843 C 167.51102,650.55638 167.34927,650.08755 167.46604,649.50371 C 167.66549,648.50645 167.45123,648.19053 166.22907,647.67988 C 164.76088,647.06643 163.21474,647.16195 161.50268,647.97189 C 159.29636,649.01564 159.06761,648.50708 160.88096,646.58973 C 162.41409,644.96868 165.85785,642.64352 166.72815,642.64182 C 167.01449,642.64126 167.64908,642.39673 168.13836,642.09842 C 169.31085,641.38355 169.40522,641.39742 170.91674,642.50699 C 172.35348,643.56165 172.7406,643.64393 173.51391,643.05903 C 174.1638,642.56748 176.63397,642.51631 177.21008,642.98247 C 177.96568,643.59387 178.52422,644.65021 178.535,645.48825 C 178.54605,646.34815 180.07241,649.18158 180.62355,649.36529 C 180.7987,649.42367 181.21833,649.15364 181.55607,648.7652 C 182.11418,648.12333 182.34447,648.06148 184.08319,648.08657 C 186.02929,648.11465 187.50931,647.80999 188.1962,647.23993 C 188.71086,646.8128 188.6776,645.47745 188.12917,644.54904 C 187.57235,643.6064 187.80657,642.91454 188.68252,642.91454 C 189.70623,642.91454 190.2261,642.62964 190.49554,641.92095 C 190.7387,641.28142 190.75484,641.27881 191.76532,641.71585 C 193.42877,642.43529 193.73034,642.46389 194.29211,641.9555 C 194.69252,641.59312 194.82658,641.11891 194.82658,640.06484 C 194.82658,639.291 194.8939,638.59055 194.97617,638.50828 C 195.05844,638.42601 195.70034,638.56369 196.40261,638.81424 C 197.36886,639.15897 197.78492,639.49162 198.11298,640.1817 C 198.36873,640.71968 198.96549,641.30857 199.56829,641.61783 C 201.01945,642.36232 203.9733,644.53451 205.50513,645.98364 C 206.80314,647.21158 206.8095,647.22619 206.72779,648.79422 L 206.64565,650.37044 L 205.28714,650.75094 C 203.66988,651.20389 203.53175,651.3773 203.52152,652.96754 C 203.50959,654.82041 203.29058,655.31338 202.14148,656.07382 C 200.75484,656.99145 200.419,656.95591 199.71511,655.81698 C 199.39069,655.29207 198.92222,654.75631 198.67406,654.62643 C 197.98501,654.26577 196.98903,654.774 196.65605,655.65617 C 196.21058,656.83637 194.69246,657.22269 192.87385,656.61865 C 191.76683,656.25096 191.30724,656.22056 190.51375,656.46258 C 189.28811,656.83639 186.90236,658.61778 186.54315,659.42735 C 186.38679,659.77974 186.03297,660.03181 185.69472,660.03181 C 185.35513,660.03181 184.64706,660.53892 183.98748,661.25447 C 183.36763,661.92694 182.76162,662.47714 182.64081,662.47714 C 182.52,662.47714 182.13113,661.83524 181.77667,661.0507 L 181.77668,661.0507 z"/>
<path title="Banas Kantha" d="M 179.79027,647.56465 C 179.39292,646.8346 179.06782,645.90147 179.06782,645.49102 C 179.06782,644.62111 178.18994,643.09169 177.35487,642.50678 C 176.58258,641.96586 174.6976,641.98962 173.5115,642.55523 C 172.45871,643.05727 172.04344,642.93906 170.4863,641.69414 L 169.69408,641.06077 L 170.35304,640.35716 C 170.94851,639.72133 171.02392,639.36387 171.13589,636.64643 C 171.21951,634.61672 171.15988,633.5394 170.95241,633.33193 C 170.77234,633.15186 170.64504,632.07609 170.64504,630.73443 C 170.64504,628.50593 170.67022,628.41644 171.58065,627.4087 C 172.93846,625.90577 173.01689,625.19016 172.37105,620.19749 C 172.24179,619.19829 172.29347,619.0629 172.86225,618.91061 C 174.02831,618.59841 174.91344,618.72731 176.1128,619.38397 C 177.22223,619.99139 177.55166,620.03121 181.03767,619.97916 C 183.09242,619.94849 184.77358,620.02504 184.77358,620.14929 C 184.77358,620.52368 187.28131,621.99343 187.92011,621.99343 C 188.25476,621.99343 188.70959,621.69633 188.95999,621.31418 C 189.514,620.46866 190.49066,620.42968 191.74214,621.20313 C 192.65853,621.7695 192.66306,621.76959 193.13272,621.2318 C 193.39189,620.93505 193.9193,620.62113 194.30477,620.53419 C 194.86502,620.40783 195.12558,620.53836 195.6035,621.18477 C 196.20052,621.99229 196.20538,621.99343 199.04611,621.99343 L 201.89085,621.99343 L 201.89085,623.04698 C 201.89085,623.65199 201.71734,624.24452 201.4833,624.43876 C 201.25914,624.62479 201.07574,624.98525 201.07574,625.23977 C 201.07574,625.92469 202.22861,626.88408 203.05165,626.88408 C 203.6181,626.88408 203.92494,627.1487 204.5037,628.13628 C 205.21047,629.34228 207.05928,630.95962 207.73111,630.95962 C 208.26217,630.95962 208.95512,630.01554 208.95512,629.29202 C 208.95512,628.92139 209.12791,628.38185 209.3391,628.09304 C 209.71164,627.58357 209.75818,627.59422 210.90139,628.45081 C 211.54947,628.9364 212.46685,629.50562 212.94004,629.71576 C 213.41322,629.92589 214.25855,630.71153 214.81855,631.46162 C 216.19254,633.30205 218.73715,634.62761 220.89608,634.62761 C 223.23987,634.62761 223.11866,635.21282 220.08348,638.55064 C 218.71417,640.05649 217.40586,641.39373 217.17613,641.52229 C 216.91755,641.667 216.48831,641.61509 216.04929,641.38601 C 214.95783,640.81649 212.25195,640.90963 211.19667,641.55305 C 210.48644,641.98609 210.31364,642.26761 210.31364,642.99167 C 210.31364,643.6732 210.04799,644.16834 209.22009,645.02994 C 207.8318,646.47472 207.0626,646.68384 205.97777,645.91137 C 205.5232,645.58769 205.15128,645.2208 205.15128,645.09606 C 205.15128,644.7732 200.57966,641.54425 199.67706,641.22961 C 199.26306,641.08529 198.84414,640.70232 198.74614,640.37858 C 198.47166,639.47181 197.51629,638.5673 196.83302,638.5673 C 196.4943,638.5673 196.1416,638.44503 196.04924,638.29559 C 195.95689,638.14616 195.58871,638.02389 195.23107,638.02389 C 194.6245,638.02389 194.57537,638.13609 194.49992,639.69378 C 194.40169,641.72159 193.96666,642.15257 192.59195,641.58402 C 191.19862,641.00777 190.38199,641.06074 190.08083,641.74691 C 189.89494,642.17042 189.54006,642.36898 188.86671,642.42617 C 188.17201,642.48518 187.80861,642.69786 187.52014,643.21425 C 187.15967,643.85954 187.17678,643.99415 187.71538,644.75056 C 189.0926,646.68467 187.83497,647.67707 184.14413,647.56866 C 182.15543,647.51024 181.98564,647.55035 181.47531,648.19914 C 181.17556,648.58021 180.83634,648.892 180.7215,648.892 C 180.60666,648.892 180.1876,648.29469 179.79026,647.56464 L 179.79027,647.56465 z"/>
<path title="Sabar Kantha" d="M 226.79376,677.73902 C 226.54644,677.46574 226.3441,677.03351 226.3441,676.7785 C 226.3441,675.81018 224.20117,673.36045 223.35537,673.36185 C 223.13121,673.36222 222.71048,673.54204 222.4204,673.76144 C 222.13032,673.98084 221.56447,674.16035 221.16294,674.16035 C 220.51995,674.16035 220.36642,673.97405 219.87548,672.59806 C 219.56891,671.7388 219.20869,670.67234 219.07502,670.22816 C 218.77395,669.22769 217.81537,668.9381 216.75531,669.52736 C 216.01804,669.93719 215.97631,669.92423 215.26095,669.06348 C 214.76337,668.46478 214.28903,668.17879 213.79635,668.18044 C 212.98606,668.18316 211.83758,666.87405 212.08488,666.22961 C 212.16348,666.02479 212.88314,665.46522 213.68413,664.98613 L 215.14049,664.11505 L 215.31063,662.27721 C 215.73703,657.67146 215.7882,655.67177 215.52321,653.96973 C 215.32033,652.66658 215.32324,651.8923 215.53326,651.28981 C 215.75003,650.668 215.74556,650.30949 215.51646,649.94265 C 215.04401,649.18613 215.10651,648.90253 216.42695,645.81134 C 217.09941,644.23709 217.64961,642.70599 217.64961,642.40891 C 217.64961,642.10501 218.84376,640.55466 220.37984,638.86428 C 223.00743,635.97278 223.10326,635.82346 222.92874,634.89321 C 222.79829,634.19786 222.86649,633.79503 223.17178,633.45769 C 223.43025,633.17209 223.62875,632.35314 223.67954,631.36286 L 223.76292,629.73696 L 224.67138,629.64992 C 225.98981,629.52361 226.61479,630.19682 226.61996,631.74892 C 226.62491,633.23467 226.75158,633.46158 227.90639,634.05327 C 228.39205,634.30211 228.78942,634.68345 228.78942,634.90069 C 228.78942,635.11793 228.22117,635.81782 227.52665,636.456 C 226.24661,637.63221 225.52899,638.88716 225.52899,639.94947 C 225.52899,640.27095 225.98749,641.28015 226.54787,642.19212 C 227.10826,643.1041 227.75016,644.40389 227.97431,645.08054 C 228.468,646.57084 228.91685,646.69315 231.08968,645.92946 C 232.37708,645.47697 232.87811,645.42795 234.01386,645.64334 C 234.76769,645.78631 235.4289,645.90327 235.48322,645.90327 C 235.53755,645.90327 235.58199,646.31963 235.58199,646.82852 C 235.58199,647.47981 235.31293,648.07581 234.67331,648.84139 C 234.17354,649.43958 233.6063,650.49452 233.41278,651.1857 C 233.10012,652.30244 233.11592,652.54451 233.55472,653.35931 C 233.86012,653.92639 234.46903,654.46714 235.15069,654.77662 C 236.48348,655.38171 236.9312,656.19176 236.9365,658.00763 C 236.93871,658.76228 237.08722,659.52644 237.26654,659.70577 C 237.44587,659.88509 238.29891,660.03181 239.1622,660.03181 C 240.50543,660.03181 240.79155,660.12298 241.14599,660.66393 C 241.48978,661.18862 241.51063,661.56962 241.26867,662.90548 C 241.10834,663.79067 240.86365,664.72721 240.7249,664.9867 C 240.58615,665.24619 240.47264,665.70468 240.47264,666.00558 C 240.47264,666.30649 240.34629,666.55268 240.19188,666.55268 C 239.93938,666.55268 239.04979,667.31032 237.28013,669.03254 C 236.9439,669.35976 236.6688,669.85265 236.6688,670.12785 C 236.6688,670.53835 236.45325,670.62822 235.46866,670.62822 C 234.80859,670.62822 233.717,670.86463 233.04291,671.15358 C 231.91231,671.6382 231.77972,671.80146 231.33269,673.25927 C 231.06616,674.12845 230.56828,675.21795 230.22631,675.68036 C 229.88433,676.14279 229.60357,676.75411 229.60241,677.03888 C 229.60026,677.56389 228.52694,678.23589 227.69055,678.23589 C 227.44463,678.23589 227.04108,678.0123 226.79376,677.73902 L 226.79376,677.73902 z"/>
<path title="Panch Mahals" d="M 238.02731,705.27953 C 238.02731,705.20988 238.23082,704.72613 238.47956,704.20453 C 238.92248,703.27572 238.91828,703.24492 238.27578,702.70999 C 237.25369,701.85904 236.7632,702.00491 236.17847,703.3337 C 235.85743,704.06327 235.76041,704.10289 234.68963,703.94172 C 233.86499,703.81761 233.32943,703.52295 232.77726,702.8896 C 231.67641,701.6269 231.39074,700.99626 230.43777,697.72489 L 229.58627,694.80183 L 230.27465,693.62719 C 231.01887,692.35728 231.13878,691.56204 230.65848,691.08174 C 230.43352,690.8568 230.45785,690.46971 230.75152,689.60096 C 231.00349,688.85555 231.104,687.81549 231.02593,686.76127 C 230.94789,685.70742 231.01336,685.02943 231.2046,684.91124 C 231.37061,684.80863 231.50645,684.45193 231.50645,684.11855 C 231.50645,682.95239 232.35327,680.27493 232.9093,679.68307 L 233.47025,679.08594 L 232.86496,678.23589 L 232.25967,677.38584 L 232.88138,676.72405 C 233.28709,676.29219 233.80293,676.06227 234.36614,676.06227 C 236.01738,676.06227 236.77084,675.5995 237.41863,674.18744 C 237.98484,672.95322 237.99831,672.79879 237.61893,671.89081 C 237.09281,670.63163 237.10233,669.65179 237.64494,669.21249 C 237.88294,669.0198 238.58004,668.40365 239.19404,667.84326 C 240.45568,666.69179 240.90287,666.58318 241.15189,667.36778 C 241.2855,667.78874 241.56299,667.91119 242.3833,667.91119 C 243.1839,667.91119 243.5174,668.05161 243.75029,668.48678 C 244.01179,668.9754 244.22864,669.03952 245.18546,668.91119 C 246.26562,668.76631 246.36636,668.81821 247.604,670.15741 L 248.89542,671.5548 L 248.89542,673.9189 L 248.89542,676.283 L 247.546,677.25246 C 246.26634,678.17181 245.09158,679.87452 245.09158,680.80993 C 245.09158,681.27216 244.5487,682.3478 244.17947,682.61714 C 243.79914,682.89459 244.28543,684.00713 245.26348,685.09717 C 245.76668,685.65799 246.17839,686.18566 246.17839,686.26977 C 246.17839,686.83061 245.51704,687.47379 244.94035,687.47379 C 244.22319,687.47379 244.03253,687.78277 243.48184,689.83754 C 243.28419,690.57502 242.89013,691.1822 242.36774,691.55418 C 241.35151,692.27779 241.30711,693.2221 242.25676,693.91388 C 242.73619,694.26311 242.99803,694.75838 243.09471,695.49883 C 243.22081,696.46442 243.13461,696.67269 242.26155,697.51216 L 241.28774,698.44849 L 241.28774,701.05892 C 241.28774,703.65505 241.28284,703.67411 240.39177,704.53776 C 239.83311,705.07923 239.21939,705.40616 238.76156,705.40616 C 238.35772,705.40616 238.02731,705.34918 238.02731,705.27953 L 238.02731,705.27953 z"/>
<path title="Dohad" d="M 244.77716,698.06445 C 244.61979,697.61299 244.25935,697.11963 243.97619,696.96809 C 243.6022,696.76793 243.46137,696.39431 243.46137,695.60233 C 243.46137,694.78844 243.2892,694.35255 242.78211,693.88259 C 241.92026,693.08385 241.9152,692.28498 242.76911,691.82799 C 243.44047,691.46868 243.99744,690.32245 244.01341,689.26723 C 244.02527,688.48408 244.63563,687.74549 245.27097,687.74549 C 246.70277,687.74549 246.81812,686.25249 245.49914,684.79254 C 244.39026,683.56514 244.37308,683.45482 245.09158,682.17558 C 245.39046,681.64346 245.63544,680.93671 245.636,680.60503 C 245.63764,679.63546 246.56423,678.38539 247.91282,677.53337 L 249.16614,676.74153 L 249.16664,674.22828 C 249.16691,672.84599 249.23995,671.71503 249.32896,671.71503 C 249.41796,671.71503 249.81533,671.93854 250.21199,672.21173 C 250.60865,672.48491 251.72792,673.14858 252.69926,673.68655 C 254.58729,674.73221 256.44824,676.48072 257.141,677.85994 C 257.40776,678.39101 257.84923,678.77316 258.32528,678.88505 C 259.57285,679.1783 261.77325,681.98251 262.33959,684.00092 C 262.60257,684.93813 263.16978,686.21666 263.60009,686.8421 C 264.48183,688.12365 264.6647,689.89005 263.97492,690.46251 C 263.75077,690.64855 263.56737,691.1985 263.56737,691.68464 C 263.56737,692.17078 263.26324,693.2562 262.89154,694.09669 L 262.2157,695.62487 L 260.70918,695.62487 C 258.9025,695.62487 257.43723,696.18032 257.19013,696.95886 C 256.94076,697.74458 256.10258,698.14162 254.20874,698.3711 C 252.60788,698.56509 252.58299,698.55744 251.38553,697.50339 C 250.72108,696.91851 250.08033,696.43997 249.96167,696.43997 C 249.2423,696.43997 248.34401,697.05653 248.1943,697.65303 C 248.05251,698.218 247.85854,698.34189 247.11593,698.34189 C 246.61792,698.34189 246.1349,698.46416 246.04254,698.6136 C 245.70985,699.15191 245.05758,698.86884 244.77717,698.06446 L 244.77716,698.06445 z"/>
<path title="Vadadora" d="M 247.98983,719.36565 C 247.55714,716.40874 247.41231,716.07024 245.86535,714.40011 L 244.32966,712.74214 L 241.38225,712.7325 C 239.3406,712.72584 238.22613,712.60356 237.75561,712.33458 C 236.6654,711.71136 232.92895,711.79826 231.914,712.47043 C 231.46569,712.76734 230.90021,713.01107 230.65738,713.01205 C 230.39258,713.01312 230.15537,713.31629 230.06473,713.76947 C 229.96681,714.25906 229.47656,714.83896 228.67226,715.41657 C 227.63138,716.16408 227.43091,716.45209 227.43091,717.2 C 227.43091,718.15111 226.75182,718.9913 225.98307,718.9913 C 225.73222,718.9913 225.52842,718.77849 225.52773,718.51582 C 225.52606,717.88301 223.99609,716.27427 223.39593,716.27427 C 222.7824,716.27427 222.26855,716.79439 222.26855,717.41542 C 222.26855,717.82496 222.034,717.90449 220.82612,717.90449 C 219.97847,717.90449 219.16621,717.74 218.85628,717.50557 C 218.56621,717.28617 218.12987,717.10278 217.88665,717.09802 C 217.03953,717.08147 216.75085,716.38282 217.26617,715.59635 C 217.69296,714.94499 217.69761,714.80576 217.31893,714.01588 C 217.00718,713.3656 216.5477,713.01424 215.47552,712.60629 C 214.19115,712.11759 212.75896,710.82272 212.75896,710.15018 C 212.75896,710.02303 213.06654,709.59795 213.44247,709.20556 L 214.12598,708.49212 L 213.46371,706.47367 C 213.06518,705.25902 212.89957,704.35402 213.04786,704.20113 C 213.18339,704.06139 214.05707,703.89188 214.98937,703.82445 C 216.65585,703.7039 216.70982,703.67459 218.18592,702.08812 C 219.01173,701.20057 220.02844,699.84175 220.4453,699.06852 C 221.89947,696.37117 224.02264,693.4834 224.79263,693.15562 C 225.69809,692.77017 226.3441,691.92033 226.3441,691.11459 C 226.3441,690.79254 226.52749,690.37684 226.75165,690.19081 C 226.9758,690.00478 227.1592,689.45269 227.1592,688.96395 C 227.1592,687.97823 227.49773,687.74549 228.93146,687.74549 C 229.43344,687.74549 229.91972,687.62322 230.01208,687.47379 C 230.31543,686.98296 230.69134,687.18961 230.69134,687.84718 C 230.69134,688.20198 230.50557,689.0188 230.27852,689.66232 C 229.99808,690.45719 229.95452,690.92118 230.14267,691.10934 C 230.58427,691.55095 230.46591,692.52665 229.84256,693.58315 C 229.17387,694.71648 229.22115,695.29089 230.26467,698.71204 C 230.6597,700.00715 231.43007,701.69638 232.047,702.62024 C 233.02384,704.08307 233.24691,704.26259 234.25589,704.39792 C 235.57665,704.57507 236.6688,704.15809 236.6688,703.47667 C 236.6688,702.7789 237.05609,702.64037 237.85218,703.05339 C 238.50382,703.39145 238.52197,703.45293 238.13381,704.0071 C 237.45424,704.97734 237.73831,705.799 238.78822,705.89988 C 239.52855,705.97101 239.87217,705.79886 240.75807,704.91296 L 241.83115,703.83988 L 241.83115,701.11061 C 241.83115,698.4733 241.85572,698.36201 242.56019,697.80787 C 243.51778,697.05463 244.06427,697.19562 244.37407,698.27583 C 244.65778,699.26506 244.80006,699.29464 247.04507,698.83094 C 248.41668,698.54763 248.62372,698.42292 248.62372,697.87998 C 248.62372,697.53628 248.71542,697.25341 248.82749,697.25137 C 248.93957,697.24934 249.29058,697.17807 249.60751,697.09301 C 250.01153,696.98457 250.47843,697.19709 251.1698,697.80412 C 252.09277,698.6145 252.15585,698.77177 252.15585,700.2624 C 252.15585,702.22019 252.47592,702.45697 255.41629,702.67435 C 257.22274,702.80789 257.46332,702.88983 257.53562,703.3962 C 257.58987,703.77606 257.28496,704.2591 256.62536,704.83824 C 255.54589,705.78603 254.90024,705.79912 253.03775,704.91096 C 252.20504,704.51387 252.1063,704.52249 251.40644,705.05335 C 250.95665,705.39452 250.6977,705.81858 250.75289,706.12362 C 250.80316,706.40149 250.98656,707.56696 251.16044,708.71358 C 251.33434,709.86019 251.5683,710.88927 251.68037,711.00041 C 252.1569,711.47297 251.79028,719.44744 251.26801,719.96971 C 251.19004,720.04768 250.45525,720.18072 249.63513,720.26536 L 248.14401,720.41927 L 247.98983,719.36565 z"/>
<path title="Narmada" d="M 237.06867,735.22376 C 236.80203,734.16134 235.37506,733.55368 232.32156,733.20225 C 230.9232,733.04132 230.41964,732.72478 230.41964,732.00674 C 230.41964,731.33431 229.08069,730.67452 227.7161,730.67452 C 226.36959,730.67452 226.27135,730.1711 227.31711,728.63009 C 227.87251,727.81167 227.96177,727.47872 227.74611,727.02988 C 227.59634,726.71817 227.4038,725.68856 227.31825,724.74187 C 227.13215,722.68259 227.05076,722.52343 226.18368,722.52343 C 225.34137,722.52343 225.14724,722.03073 225.37943,720.48233 C 225.54063,719.4074 225.64364,719.263 226.24927,719.263 C 227.12045,719.263 227.95037,718.28351 227.97587,717.22523 C 227.99128,716.58548 228.25625,716.21831 229.20757,715.51848 C 229.94118,714.9788 230.41964,714.41236 230.41964,714.08351 C 230.41964,713.78469 230.6336,713.47108 230.89512,713.3866 C 231.15663,713.30214 231.73739,713.0507 232.1857,712.82786 C 232.79455,712.52524 233.55084,712.46047 235.17443,712.57193 C 236.36993,712.654 238.8969,712.82868 240.78994,712.96011 L 244.23181,713.19908 L 245.6023,714.66875 C 246.64286,715.78462 246.97528,716.34714 246.98314,717.00542 C 246.98885,717.48227 247.11577,717.94798 247.2652,718.04034 C 247.41464,718.1327 247.53691,718.74683 247.53691,719.40509 C 247.53691,720.48287 247.43603,720.67047 246.52288,721.29098 C 245.96516,721.66996 245.30763,721.98003 245.06169,721.98003 C 244.29716,721.98003 242.72054,722.75306 242.54336,723.21479 C 242.24296,723.99761 242.3628,724.60219 242.91796,725.10461 C 243.74813,725.85591 243.61135,726.78722 242.57833,727.41706 C 242.09266,727.71317 241.4775,727.95592 241.21129,727.95647 C 240.45322,727.95806 240.36243,728.66341 240.87604,730.56084 C 241.22615,731.85428 241.56241,732.4803 242.15693,732.94559 L 242.96309,733.5765 L 242.46369,734.63875 L 241.96428,735.70102 L 239.59605,735.7794 C 237.31192,735.85501 237.22216,735.83528 237.06868,735.22377 L 237.06867,735.22376 z"/>
<path title="Tapi" d="M 225.39314,752.41073 C 225.30078,752.2613 224.79024,752.13903 224.2586,752.13903 C 223.37733,752.13903 223.30986,752.08506 223.49448,751.5277 C 224.00499,749.98645 223.9587,748.36739 223.38092,747.55597 C 222.95566,746.95875 222.81196,746.3458 222.81196,745.12907 L 222.81196,743.50119 L 224.17354,742.62746 C 226.00126,741.45462 226.6158,740.53869 226.6158,738.98743 C 226.6158,738.30067 226.69596,737.73879 226.79393,737.73879 C 226.89189,737.73879 227.37281,738.04445 227.86261,738.41804 C 228.62099,738.99648 229.04203,739.0973 230.69944,739.0973 C 232.59531,739.0973 232.67847,739.06822 233.91008,737.97466 C 235.72195,736.36588 236.50955,736.10857 239.62189,736.10857 L 242.32073,736.10857 L 242.82312,734.88692 L 243.32551,733.66529 L 245.22743,733.66009 C 246.27349,733.65724 248.10748,733.40193 249.30297,733.09275 C 251.36587,732.55924 255.11524,732.3737 256.11113,732.75586 C 256.66991,732.97028 256.59584,734.27634 255.9879,734.92889 C 255.42888,735.52892 252.38288,735.97737 250.89183,735.67916 C 250.46286,735.59336 249.56308,735.71424 248.89232,735.94777 C 248.22156,736.1813 247.33473,736.37414 246.92158,736.37632 C 246.03746,736.38097 245.09423,737.68608 245.0926,738.90702 C 245.091,740.10803 244.36536,741.27092 243.61754,741.27092 C 243.2628,741.27092 242.37109,741.67569 241.63595,742.1704 C 240.9008,742.66511 239.45189,743.41835 238.41614,743.84426 C 234.25861,745.55387 234.22347,745.57297 234.22347,746.12241 C 234.22347,746.59014 234.53141,746.6993 236.67874,746.99274 C 238.85615,747.2903 239.19396,747.41247 239.66375,748.07222 C 240.12407,748.71868 241.28774,751.16217 241.28774,751.4823 C 241.28774,751.54463 240.79868,751.59562 240.20093,751.59562 C 239.51783,751.59562 239.11049,751.46946 239.10435,751.256 C 239.09898,751.0692 238.82388,750.58599 238.49302,750.18219 C 238.05845,749.65183 237.62747,749.44177 236.9405,749.42553 C 235.83506,749.39939 233.67396,749.7692 233.19222,750.06692 C 232.69388,750.37492 231.8283,750.00803 231.63789,749.40811 C 231.36526,748.54914 230.51939,748.79357 228.99607,750.17149 C 227.55031,751.47925 225.9742,752.68244 225.70686,752.68244 C 225.62666,752.68244 225.48549,752.56017 225.39314,752.41073 z"/>
<path title="The Dangs" d="M 231.37343,762.7956 C 229.80838,760.78026 228.80834,760.17419 227.4155,760.39691 C 226.5318,760.53822 226.31689,760.47525 226.06288,760.00063 C 225.39326,758.74943 224.97021,756.38362 225.143,754.85637 C 225.30247,753.44675 225.39757,753.27386 226.27266,752.8026 C 226.79819,752.51958 227.95087,751.64317 228.83417,750.85501 C 229.71747,750.06686 230.58954,749.422 230.7721,749.422 C 230.95466,749.422 231.26104,749.67341 231.45294,749.98069 C 231.77201,750.49159 231.96932,750.52348 233.75984,750.35344 C 234.83673,750.25117 235.84011,750.07174 235.98954,749.95469 C 236.7323,749.37293 238.40944,750.33513 238.61295,751.45977 C 238.69313,751.90293 238.98321,752.02824 240.18522,752.13903 C 241.47481,752.25789 241.68193,752.35984 241.84125,752.95414 C 241.9414,753.32773 242.28531,754.06133 242.60549,754.58435 C 243.04841,755.30787 243.18788,755.97301 243.18865,757.36539 L 243.18966,759.19547 L 241.56719,760.0145 C 240.67484,760.46496 239.78121,760.83352 239.58136,760.83352 C 238.76486,760.83352 238.1935,761.59956 238.04355,762.89527 L 237.89146,764.20947 L 235.2417,764.28706 L 232.59193,764.36467 L 231.37343,762.7956 z"/>
<path title="Kheda" d="M 223.49125,691.99885 C 222.9758,690.76521 221.05189,688.37053 220.41341,688.16789 C 219.2871,687.81041 217.1062,689.42042 217.1062,690.60936 C 217.1062,691.66539 216.26249,691.43078 215.11245,690.05496 C 213.87435,688.5738 213.26269,688.51785 212.14238,689.78326 C 211.6371,690.35399 211.04885,690.73422 210.6712,690.73422 C 210.32511,690.73422 210.04193,690.85648 210.04193,691.00592 C 210.04193,691.40842 208.37088,691.33601 206.15588,690.83754 C 203.36534,690.20954 203.27697,690.14261 203.42385,688.76836 C 203.62549,686.88185 204.09297,685.64514 204.71022,685.36532 C 206.68289,684.47104 207.41436,684.21335 207.9802,684.21335 C 208.81991,684.21335 210.39944,683.54206 210.85701,682.99073 C 211.05735,682.74932 211.78122,682.23311 212.4656,681.84359 C 213.92724,681.01166 214.64645,680.22138 214.65484,679.43799 C 214.66353,678.62583 215.59327,677.88641 217.97836,676.79477 C 219.54754,676.07656 220.11384,675.67397 220.23522,675.19036 C 220.37185,674.64597 220.53568,674.5609 221.28009,674.64781 C 221.85632,674.71508 222.28717,674.60116 222.52071,674.31976 C 222.71749,674.08265 223.09383,673.88865 223.35702,673.88865 C 223.98722,673.88865 225.73836,675.84438 225.96614,676.8026 C 226.22755,677.90236 226.86371,678.5076 227.75821,678.5076 C 228.90706,678.5076 230.14793,677.78506 230.14793,677.11612 C 230.14793,676.8068 230.38729,676.21757 230.67983,675.80673 C 230.97237,675.3959 231.43087,674.39889 231.69871,673.59117 C 232.28256,671.8305 233.30815,671.1727 235.47045,671.17204 C 236.69303,671.17167 236.89025,671.25276 237.17232,671.87184 C 237.43016,672.43776 237.40206,672.82349 237.0258,673.88287 C 236.62701,675.00569 236.4174,675.23647 235.56411,675.49212 C 235.01625,675.65627 234.26725,675.79057 233.89968,675.79057 C 233.21268,675.79057 232.04985,676.78966 232.04985,677.37993 C 232.04985,677.56235 232.24937,678.0161 232.49322,678.38827 C 232.88927,678.9927 232.89283,679.11493 232.52663,679.53344 C 232.11849,679.99989 231.82934,680.79911 231.22667,683.12654 C 231.05255,683.79901 230.79973,684.56151 230.66486,684.821 C 230.52999,685.08049 230.41964,685.6172 230.41964,686.01371 C 230.41964,686.99296 229.72614,687.43839 228.46489,687.26922 C 227.79481,687.17934 227.43091,687.23875 227.43091,687.43801 C 227.43091,687.60713 227.24751,687.74549 227.02335,687.74549 C 226.73002,687.74549 226.6158,688.0456 226.6158,688.81626 C 226.6158,689.40519 226.49353,689.9626 226.3441,690.05496 C 226.19466,690.14732 226.07239,690.50348 226.07239,690.84643 C 226.07239,691.57762 224.93218,692.90784 224.30543,692.90784 C 224.06653,692.90784 223.70013,692.49879 223.49124,691.99885 L 223.49125,691.99885 z"/>
<path title="Gandhinagar" d="M 213.5248,677.81856 C 213.12411,677.60099 212.71228,677.14739 212.60963,676.81055 C 212.25842,675.65814 211.66094,675.24707 210.33945,675.24868 C 208.55059,675.25085 207.11568,675.70911 206.91467,676.34243 C 206.73407,676.91143 206.24778,676.98527 204.53995,676.70299 C 203.24968,676.48972 203.20665,675.9044 204.33125,673.86413 C 204.89849,672.83505 205.14292,672.01618 205.14636,671.13336 C 205.15029,670.1288 205.34491,669.60402 206.10364,668.55219 C 207.30991,666.87995 207.79604,665.86448 207.99972,664.59157 C 208.08863,664.03599 208.34869,663.39409 208.57765,663.16513 C 209.06915,662.67363 210.64824,662.61797 211.47952,663.06286 C 211.80225,663.23557 212.74176,663.45036 213.56736,663.54018 L 215.06843,663.70346 L 213.50453,664.60553 C 211.35689,665.84429 211.13316,666.33897 212.1503,667.59979 C 212.70013,668.28135 213.20993,668.61652 213.78419,668.67402 C 214.308,668.72647 214.78083,669.00476 215.0537,669.4212 C 215.5164,670.12738 216.26307,670.26434 217.12767,669.80162 C 217.44536,669.6316 217.82732,669.61386 218.0835,669.75723 C 218.59373,670.04276 219.79538,673.40521 219.81169,674.59299 C 219.8225,675.37959 219.68581,675.49766 217.66847,676.44434 C 216.48335,677.00048 215.36798,677.6311 215.18988,677.8457 C 214.78871,678.32908 214.45499,678.32364 213.5248,677.81856 L 213.5248,677.81856 z"/>
<path title="Mahesana" d="M 200.68824,675.99435 C 200.29912,675.50868 199.8555,674.95848 199.70242,674.77168 C 199.32393,674.30982 197.85003,674.34644 196.90122,674.84128 C 195.76408,675.43434 195.55421,675.35681 195.05053,674.15759 C 194.71912,673.36852 194.43557,673.07354 194.00847,673.07354 C 193.4549,673.07354 193.42962,672.97747 193.56174,671.3754 C 193.86133,667.74252 194.39152,666.28097 195.40976,666.28097 C 195.69615,666.28097 196.00508,666.06701 196.09629,665.80549 C 196.18751,665.54398 196.75043,664.81945 197.34723,664.19542 C 198.09684,663.41161 198.37719,662.91717 198.25401,662.59617 C 198.09838,662.19062 197.81449,662.15518 196.02248,662.31756 C 193.97333,662.50325 193.96488,662.50128 191.74883,661.31723 C 189.82186,660.28766 189.35779,660.14587 188.23779,660.24454 C 187.10543,660.34429 186.9472,660.29406 186.9472,659.83483 C 186.9472,659.20427 187.74063,658.44998 189.4164,657.4874 C 190.83842,656.67058 191.71132,656.59769 193.10377,657.1795 C 193.90373,657.51374 194.28329,657.52972 195.20074,657.26778 C 196.59735,656.86902 197.0002,656.5701 197.0002,655.93256 C 197.0002,655.36098 197.94494,654.7568 198.50352,654.97115 C 198.70925,655.0501 199.13011,655.60971 199.43877,656.21474 C 200.11619,657.54259 200.54199,657.58581 202.25345,656.50044 C 203.73554,655.56052 203.75262,655.52869 204.00798,653.22995 L 204.20032,651.49853 L 205.3201,651.21415 C 207.07322,650.76892 207.32491,650.4262 207.32491,648.48414 C 207.32491,646.85566 207.35875,646.77028 208.13136,646.45026 C 209.19065,646.01148 210.85704,643.95855 210.85704,643.09231 C 210.85704,642.6748 211.14218,642.18629 211.59275,641.83187 C 212.24008,641.32268 212.54197,641.27501 214.106,641.43501 C 215.08365,641.53503 215.99969,641.72544 216.14166,641.85814 C 216.28362,641.99085 216.62809,642.09943 216.90715,642.09943 C 217.52761,642.09943 217.47903,642.2841 215.84942,646.1192 C 214.65111,648.93931 214.50814,649.4638 214.84573,649.80139 C 215.1172,650.07286 215.25584,657.00939 215.05428,660.23559 L 214.8803,663.02054 L 213.78816,663.02054 C 213.1875,663.02054 212.12434,662.81749 211.42561,662.56932 C 209.21145,661.78292 208.07861,662.40893 207.47601,664.75188 C 207.23502,665.68884 206.55817,667.09063 205.83614,668.14816 C 204.78254,669.6913 204.60651,670.14334 204.60586,671.30747 C 204.60532,672.27501 204.41245,672.97877 203.93571,673.7528 C 203.56756,674.35054 203.26251,675.22272 203.25785,675.69095 C 203.25138,676.34035 203.10435,676.58116 202.63803,676.70613 C 201.61435,676.98046 201.42212,676.91029 200.68825,675.99435 L 200.68824,675.99435 z"/>
<path title="Kachchh" d="M 112.50066,676.35304 C 111.97763,676.24845 111.29068,676.02228 110.97409,675.85044 C 110.65751,675.67859 110.33569,675.60078 110.25894,675.67753 C 110.02579,675.91068 106.54246,674.0773 106.70841,673.80879 C 106.79766,673.6644 106.60458,673.64073 106.2515,673.7528 C 105.79632,673.89727 105.69426,673.85914 105.85217,673.60364 C 106.01358,673.34247 105.8561,673.30206 105.19343,673.43459 C 104.6493,673.54342 104.38462,673.50836 104.48796,673.34115 C 104.64186,673.09212 103.00609,672.91775 101.39574,673.01152 C 101.04134,673.03215 100.82494,672.97548 100.91484,672.88558 C 101.00475,672.79567 100.43973,672.42626 99.659257,672.06466 C 98.878783,671.70306 97.827309,671.09227 97.322651,670.70735 C 96.817988,670.32243 96.144641,669.97936 95.826314,669.94498 C 94.887391,669.84356 94.836816,669.82374 94.90791,669.58515 C 94.945269,669.45977 94.576286,669.01914 94.087949,668.60596 C 93.415955,668.03738 93.030545,667.89726 92.502893,668.0297 C 92.014382,668.1523 91.863383,668.11138 91.998365,667.89297 C 92.131358,667.67779 92.012738,667.63785 91.615286,667.764 C 91.185721,667.90034 91.076997,667.84918 91.187009,667.56249 C 91.336897,667.1719 88.54385,664.44183 85.084993,661.59805 C 84.128129,660.81133 83.128823,659.862 82.864326,659.48841 C 82.283119,658.66747 81.859635,656.88102 82.312607,657.16098 C 82.506926,657.28107 82.613362,657.05869 82.613362,656.53259 C 82.613362,655.87739 82.371786,655.54484 81.376667,654.8302 L 80.139963,653.94207 L 80.217988,652.36799 C 80.260884,651.50225 80.365183,650.79392 80.44975,650.79392 C 80.534312,650.79392 80.584653,650.05926 80.561602,649.16134 C 80.533706,648.07452 80.370087,647.36346 80.072162,647.03425 C 79.826013,646.76227 79.624633,646.20592 79.624633,645.79792 C 79.624633,645.38991 79.517106,645.12255 79.385686,645.20377 C 79.254269,645.28499 79.162564,644.69284 79.181909,643.88787 C 79.201257,643.0829 79.308778,642.48068 79.420856,642.5496 C 79.532933,642.61852 79.624633,642.50324 79.624633,642.29343 C 79.624633,641.64051 80.575864,641.01262 81.565038,641.01262 C 82.262203,641.01262 82.717506,640.7978 83.292619,640.19751 C 83.884086,639.58015 84.316803,639.38241 85.076252,639.38241 C 85.627744,639.38241 86.219931,639.21255 86.392228,639.00494 C 86.763021,638.55816 88.118391,638.23265 87.858771,638.65272 C 87.753114,638.82369 87.866718,638.86222 88.152807,638.75243 C 88.467012,638.63186 88.555609,638.67616 88.42451,638.88828 C 88.293416,639.10041 88.382013,639.14471 88.696213,639.02414 C 88.989252,638.91169 89.096613,638.95175 88.985223,639.13199 C 88.880226,639.30187 89.010279,639.38366 89.304292,639.33265 C 89.646664,639.27325 89.802592,639.41509 89.807037,639.78996 C 89.812096,640.21613 89.996574,640.33324 90.662145,640.33279 C 91.258796,640.3324 91.469433,640.44003 91.37149,640.69527 C 91.264879,640.97307 91.544084,641.04185 92.5606,640.98819 C 93.54625,640.93615 93.868112,641.01053 93.807979,641.27641 C 93.664837,641.90929 95.167063,643.23125 95.838022,643.06286 C 96.167401,642.98018 96.524416,643.05415 96.63138,643.22723 C 96.759912,643.43518 96.696445,643.4736 96.444256,643.3405 C 96.234379,643.22972 96.368312,643.39151 96.741903,643.70003 C 97.948171,644.69619 100.22875,644.14291 99.80487,642.95694 C 99.716415,642.70947 99.740898,642.59454 99.859265,642.70155 C 99.977624,642.80856 100.31165,642.59459 100.60153,642.22607 C 100.94557,641.7887 101.40251,641.55603 101.91741,641.55603 C 102.77629,641.55603 104.46055,640.67075 104.16464,640.37484 C 104.06399,640.2742 104.35317,640.26616 104.80724,640.35697 C 105.77147,640.54982 107.46582,639.80854 107.16677,639.32466 C 107.04518,639.12792 107.12956,639.07672 107.40265,639.18152 C 107.87382,639.36232 112.05983,636.85852 111.77035,636.56904 C 111.67391,636.47259 112.23391,636.39368 113.01482,636.39368 C 113.79573,636.39368 114.367,636.50313 114.28432,636.63691 C 114.07862,636.96975 114.84273,637.23135 115.39811,637.01823 C 115.68163,636.90943 115.78354,636.95265 115.67137,637.13414 C 115.25412,637.80927 117.35143,637.96887 118.31801,637.33555 C 119.16174,636.78271 120.05337,636.62833 120.28045,636.99576 C 120.39822,637.18632 120.33654,637.21397 120.10834,637.07293 C 119.88583,636.93542 119.81859,636.95978 119.92874,637.138 C 120.02557,637.29468 120.78497,637.4183 121.61629,637.4127 C 122.55221,637.4064 123.25126,637.5417 123.45205,637.76803 C 123.67834,638.0231 123.61213,638.01435 123.23292,637.73909 C 122.73085,637.37464 122.71788,637.38081 123.06241,637.82011 C 123.28622,638.1055 123.8022,638.29559 124.353,638.29559 C 125.18284,638.29559 125.27069,638.37044 125.27069,639.07744 C 125.27069,639.85121 125.8414,640.62304 126.17034,640.29411 C 126.26405,640.20039 126.23341,640.49791 126.10224,640.95527 C 125.97107,641.41263 125.94428,641.87664 126.0427,641.98642 C 126.14113,642.0962 125.99716,642.1052 125.72278,642.00642 C 125.25415,641.83772 125.22944,642.01479 125.31522,644.92643 C 125.36544,646.63121 125.33272,647.98017 125.24249,647.92413 C 125.01464,647.7826 124.45558,649.0714 124.45558,649.7382 C 124.45558,650.17427 124.5743,650.24945 125.03301,650.10386 C 125.45595,649.96963 125.55415,650.01168 125.40004,650.26103 C 125.24196,650.51682 125.37427,650.55513 125.93219,650.4151 C 126.47767,650.27819 126.62081,650.31598 126.47154,650.5575 C 126.32967,650.78706 126.4124,650.83099 126.74569,650.70309 C 127.17204,650.53949 127.21308,650.68191 127.12989,652.03661 L 127.03676,653.5533 L 127.78117,653.44373 C 128.32697,653.3634 128.68942,653.52085 129.13968,654.03389 L 129.75378,654.73361 L 128.93867,654.05435 L 128.12357,653.3751 L 128.78979,654.13029 C 129.1562,654.54564 129.6147,654.82458 129.80867,654.75014 C 130.00263,654.67571 130.16134,654.74046 130.16134,654.89402 C 130.16134,655.04759 130.27636,655.10214 130.41695,655.01526 C 130.56942,654.92102 130.60713,655.26044 130.51039,655.85657 C 130.38634,656.62102 130.42889,656.80601 130.69144,656.64375 C 130.94749,656.4855 130.9848,656.58872 130.83835,657.05016 C 130.67794,657.55553 130.72492,657.63689 131.09505,657.49485 C 131.35767,657.39408 131.47939,657.43214 131.38466,657.58541 C 131.1597,657.9494 132.85775,658.94274 133.70706,658.94398 C 134.08812,658.94455 134.54662,658.79828 134.72594,658.61896 C 135.1574,658.1875 135.16461,656.94141 134.73411,657.20747 C 134.52037,657.33956 134.47307,657.25581 134.58973,656.9518 C 134.81171,656.37332 134.5355,655.63586 134.1793,655.856 C 134.00833,655.96167 133.97919,655.79672 134.10103,655.41287 C 134.2227,655.0295 134.19365,654.86411 134.02314,654.96949 C 133.87129,655.06334 133.75779,654.86838 133.76614,654.52803 C 133.77436,654.19279 133.67947,653.68448 133.55526,653.39845 C 133.40555,653.05372 133.42606,652.93813 133.61609,653.05557 C 134.00245,653.29436 135.63445,652.70715 135.44343,652.39808 C 135.36021,652.26342 135.57432,652.18363 135.91924,652.22077 C 136.32484,652.26443 136.51936,652.15932 136.46993,651.92318 C 136.4279,651.72238 136.55017,651.61416 136.74164,651.68269 C 137.2293,651.85725 138.09169,651.36792 137.88521,651.03382 C 137.79131,650.88188 137.87958,650.78972 138.08138,650.82902 C 138.6864,650.94682 139.69171,650.50394 139.505,650.20184 C 139.39277,650.02025 139.54784,649.98936 139.94263,650.11466 C 140.38676,650.25562 140.49829,650.21845 140.35019,649.97881 C 140.20209,649.73917 140.31361,649.702 140.75774,649.84296 C 141.20187,649.98392 141.3134,649.94674 141.1653,649.70711 C 141.01719,649.46747 141.12872,649.4303 141.57285,649.57126 C 142.01698,649.71222 142.12851,649.67504 141.9804,649.43541 C 141.8323,649.19577 141.94383,649.1586 142.38796,649.29955 C 142.83209,649.44051 142.94361,649.40334 142.79551,649.1637 C 142.64985,648.92802 142.75257,648.88487 143.15514,649.01264 C 143.58391,649.14872 143.98428,648.92589 144.82929,648.08088 C 145.44014,647.47004 145.85901,646.83935 145.76013,646.67936 C 145.64336,646.49043 145.77486,646.4502 146.13525,646.56458 C 146.60395,646.71334 146.66591,646.64793 146.53403,646.14365 C 146.43454,645.76315 146.48165,645.61071 146.66393,645.72337 C 147.39988,646.17821 147.31928,643.71006 146.5712,642.88343 C 146.32259,642.60872 146.02853,642.43997 145.91774,642.50844 C 145.80696,642.57691 145.71632,642.33459 145.71632,641.96995 C 145.71632,641.60531 145.79273,641.32785 145.88613,641.35337 C 145.97953,641.37889 146.30048,641.26844 146.59935,641.10793 C 147.52848,640.60894 148.71189,640.40013 148.47946,640.7762 C 148.33337,641.01258 148.42242,641.04554 148.79633,640.89348 C 150.26011,640.2982 151.15455,640.16153 151.45465,640.48731 C 151.6888,640.7415 151.67109,640.76895 151.38009,640.60295 C 151.11618,640.4524 151.06181,640.48772 151.2038,640.71746 C 151.31672,640.90017 151.56866,640.98845 151.76366,640.91362 C 151.95865,640.83879 152.34365,641.04442 152.61921,641.37057 L 153.12022,641.96358 L 152.44096,641.42018 L 151.7617,640.87677 L 152.28796,641.49769 C 152.57741,641.83918 152.98112,642.05455 153.18511,641.97628 C 153.3891,641.898 153.48986,641.94097 153.40902,642.07176 C 153.32819,642.20255 153.46757,642.47625 153.71877,642.67998 C 154.02495,642.9283 154.10887,642.93947 153.97337,642.71387 C 153.83623,642.48555 153.90632,642.42919 154.19135,642.53857 C 154.42241,642.62723 154.53335,642.82616 154.43789,642.98062 C 154.32271,643.16701 154.60636,643.19729 155.28131,643.07067 C 155.90163,642.9543 156.23621,642.98032 156.13914,643.13738 C 155.85978,643.5894 157.51976,644.05675 159.05937,643.95953 C 159.87841,643.90782 160.50149,643.91214 160.44399,643.96915 C 160.38649,644.02616 160.46962,644.31601 160.62871,644.61327 C 160.80417,644.94113 160.81161,645.08801 160.64762,644.98666 C 160.49894,644.89476 160.30717,645.00228 160.22148,645.22557 C 160.1358,645.44887 159.8101,645.63157 159.49772,645.63157 C 159.18535,645.63157 159.00521,645.75365 159.09742,645.90286 C 159.19415,646.05937 158.99976,646.14559 158.63798,646.10664 C 158.18644,646.05803 158.02129,646.17143 158.04811,646.51168 C 158.0693,646.78042 157.96149,646.90768 157.79816,646.80673 C 157.61743,646.69503 157.57729,646.80207 157.68988,647.09547 C 157.79317,647.36465 157.75863,647.49363 157.60816,647.40064 C 157.2918,647.20511 156.93524,648.47048 157.19037,648.88329 C 157.29028,649.04493 157.27121,649.15966 157.14803,649.13826 C 156.64364,649.05064 156.22108,649.17721 156.34555,649.37862 C 156.41861,649.49683 156.05903,649.54458 155.54648,649.48475 C 154.82603,649.40064 154.61458,649.47518 154.61458,649.81323 C 154.61458,650.05374 154.49231,650.25051 154.34288,650.25051 C 153.96836,650.25051 154.00012,650.98964 154.38486,651.22742 C 154.59243,651.3557 154.62418,651.30096 154.47873,651.06562 C 154.33636,650.83527 154.36526,650.77568 154.56073,650.89649 C 154.72673,650.99908 154.78598,651.28257 154.69239,651.52645 C 154.56637,651.85485 154.62231,651.91177 154.90804,651.74589 C 155.12022,651.6227 155.20738,651.61778 155.1017,651.73496 C 154.99603,651.85214 155.17376,652.45251 155.49667,653.06911 C 156.09596,654.21347 156.60815,657.6752 156.13491,657.38272 C 155.99512,657.29632 155.95278,657.41334 156.04081,657.64275 C 156.14306,657.9092 155.77924,658.47366 155.03354,659.20551 C 154.11097,660.11094 153.70256,660.33191 153.08566,660.25941 C 152.524,660.19339 152.31262,660.28195 152.33189,660.57522 C 152.35269,660.89168 152.07941,660.96699 151.10923,660.91217 C 149.97532,660.84809 149.74672,660.94651 148.63712,661.97653 C 147.96466,662.60077 147.56729,663.02269 147.75409,662.91414 C 147.94088,662.80559 148.09372,662.78082 148.09372,662.8591 C 148.09372,662.93738 147.83443,663.14019 147.51752,663.30979 C 147.12099,663.52201 146.99831,663.52596 147.12408,663.32246 C 147.23785,663.13837 147.14827,663.08761 146.88672,663.18798 C 146.65567,663.27664 146.5334,663.45724 146.61502,663.5893 C 146.69664,663.72137 146.60424,663.77247 146.40969,663.70285 C 146.21513,663.63324 145.62801,663.9506 145.10499,664.4081 C 144.58196,664.8656 144.33743,665.14889 144.56158,665.03763 C 144.8014,664.91859 144.87595,664.93713 144.74272,665.08268 C 144.525,665.3205 144.43152,665.35154 143.67855,665.43606 C 143.43949,665.4629 143.45961,665.55971 143.74647,665.763 C 144.06101,665.9859 143.9701,666.02199 143.34814,665.92115 C 142.51046,665.78533 141.13855,666.56087 141.51414,666.95791 C 141.62114,667.07104 141.41829,667.07417 141.06335,666.96487 C 140.6552,666.8392 140.47986,666.86626 140.58631,667.0385 C 140.67888,667.18829 140.56557,667.38339 140.33452,667.47205 C 140.05748,667.57836 139.97351,667.51866 140.08795,667.29675 C 140.1834,667.11166 140.00852,667.2659 139.69933,667.63949 C 139.39015,668.01308 139.18126,668.44282 139.23515,668.59448 C 139.29465,668.76192 138.90525,668.8294 138.24359,668.7663 C 137.4345,668.68915 137.20698,668.74805 137.3597,668.99516 C 137.50557,669.23117 137.41073,669.27884 137.03352,669.15912 C 136.52216,668.99683 136.00307,669.38301 135.45889,670.33057 C 135.30621,670.59641 135.3417,670.64916 135.57585,670.50444 C 135.79147,670.37118 135.75532,670.59964 135.475,671.14172 C 135.23466,671.60647 134.97282,671.98673 134.89312,671.98673 C 134.81343,671.98673 134.82563,671.8339 134.92025,671.6471 C 135.01487,671.46031 134.9169,671.52144 134.70255,671.78295 C 134.17374,672.42811 133.69411,672.38147 132.60666,671.57918 C 131.61764,670.8495 131.39633,670.75196 131.64586,671.1557 C 131.73281,671.29637 131.46492,671.38807 131.05056,671.35947 C 130.49575,671.32118 130.30619,671.42713 130.33134,671.76147 C 130.35415,672.06466 130.22654,672.16214 129.94714,672.05492 C 129.67452,671.95031 129.59656,672.00404 129.72332,672.20915 C 129.85442,672.42127 129.76582,672.46557 129.45162,672.345 C 129.13742,672.22443 129.04882,672.26873 129.17992,672.48085 C 129.31102,672.69298 129.22242,672.73727 128.90821,672.6167 C 128.63857,672.51323 128.51002,672.54788 128.60334,672.69888 C 128.69855,672.85294 128.39583,672.91691 127.8649,672.85493 C 127.33382,672.79292 126.87906,672.88907 126.75516,673.08954 C 126.60787,673.32786 126.6591,673.36315 126.92685,673.20781 C 127.13673,673.08605 127.22079,673.0835 127.11364,673.20215 C 126.84316,673.50167 121.66188,673.37174 121.34458,673.05748 C 121.20262,672.91688 120.56769,672.80184 119.93363,672.80184 C 118.91047,672.80184 118.59584,672.97308 117.1364,674.32426 C 116.23197,675.16159 115.55863,675.95448 115.64005,676.08624 C 115.72149,676.21799 115.38466,676.2562 114.89157,676.17116 C 114.2103,676.05365 114.09288,676.08625 114.40258,676.30694 C 114.73389,676.54302 114.68307,676.59229 114.13088,676.57027 C 113.75729,676.55537 113.02369,676.45762 112.50066,676.35303 L 112.50066,676.35304 z M 155.97309,657.88375 C 155.97309,657.80904 155.48403,658.22547 154.88628,658.80915 C 154.28854,659.39283 153.79947,659.93153 153.79947,660.00624 C 153.79947,660.08096 154.28854,659.66453 154.88628,659.08085 C 155.48403,658.49717 155.97309,657.95848 155.97309,657.88376 L 155.97309,657.88375 z M 115.46125,652.82224 C 115.92503,652.29401 116.30263,651.71324 116.30034,651.53165 C 116.29774,651.32537 116.22127,651.30343 116.09656,651.47318 C 115.98219,651.62886 115.37486,651.67529 114.67428,651.58191 C 114.00182,651.49228 113.56726,651.40058 113.70859,651.37813 C 114.0292,651.32722 111.50331,649.70711 111.10331,649.70711 C 110.94289,649.70711 110.04337,649.09578 109.10438,648.34859 C 107.48099,647.05683 106.01797,646.53301 106.33405,647.35672 C 106.44364,647.64229 106.25481,647.68285 105.48009,647.54015 C 104.93303,647.43937 104.21919,647.21369 103.89378,647.03863 C 103.56837,646.86356 103.08982,646.8018 102.83033,646.90138 C 102.53051,647.01643 102.42372,646.97693 102.53738,646.79302 C 102.72827,646.48416 102.15807,646.17497 101.39758,646.17497 C 101.08103,646.17497 100.94448,646.38349 100.96431,646.83656 C 101.00729,647.81827 101.57777,648.3727 102.34643,648.17978 C 103.07612,647.99664 103.84286,648.48025 103.64408,648.99825 C 103.45839,649.48215 104.56709,650.79392 105.16177,650.79392 C 105.43734,650.79392 105.72448,650.94675 105.79985,651.13355 C 105.87523,651.32034 105.94655,651.34489 105.95834,651.18811 C 105.98316,650.85843 107.86004,651.00403 108.31919,651.37125 C 108.48508,651.50392 108.56695,651.89424 108.50111,652.23861 C 108.31866,653.19304 109.0035,653.57613 110.70013,653.4687 C 111.51314,653.41721 112.12137,653.46679 112.05176,653.57887 C 111.98213,653.69095 112.53107,653.78265 113.27159,653.78265 C 114.47268,653.78265 114.70899,653.679 115.46124,652.82223 L 115.46125,652.82224 z M 104.31492,650.04674 C 103.97696,649.6158 103.98657,649.60619 104.4175,649.94415 C 104.87009,650.2991 105.01402,650.52222 104.7904,650.52222 C 104.73398,650.52222 104.52002,650.30825 104.31492,650.04674 z M 101.32619,647.60141 C 100.98823,647.17048 100.99784,647.16087 101.42877,647.49883 C 101.88136,647.85377 102.02529,648.07689 101.80167,648.07689 C 101.74525,648.07689 101.53129,647.86293 101.32619,647.60141 z M 103.39862,648.6203 C 103.30626,648.47086 103.08508,648.35047 102.9071,648.35275 C 102.71267,648.35525 102.74618,648.46204 102.99107,648.6203 C 103.51304,648.95762 103.6071,648.95762 103.39862,648.6203 z M 116.0328,675.765 C 116.0328,675.69028 116.52186,675.15159 117.11961,674.56791 C 117.71735,673.98422 118.20642,673.5678 118.20642,673.64251 C 118.20642,673.71724 117.71735,674.25593 117.11961,674.83961 C 116.52186,675.42329 116.0328,675.83972 116.0328,675.765 L 116.0328,675.765 z M 94.678313,642.30321 L 94.160728,641.69188 L 94.772059,642.20947 C 95.108291,642.49414 95.38339,642.76924 95.38339,642.8208 C 95.38339,643.03823 95.164726,642.87771 94.678318,642.30321 L 94.678313,642.30321 z"/>
</g>
<g class="label" text-anchor="middle" font-size="6" font-family="sans-serif"  fill="#444">
<text x="216" y="770">Valsad</text>
<text x="213" y="753">Navsari</text>
<text x="214" y="740">Surat</text>
<text x="213" y="718">Bharuch</text>
<text x="207" y="698">Anand</text>
<text x="193" y="691">Ahmadabad</text>
<text x="179" y="725">Bhavnagar</text>
<text x="157" y="732">Amreli</text>
<text x="137" y="739">Junagadh</text>
<text x="115" y="718">Porbandar</text>
<text x="112" y="698">Jamnagar</text>
<text x="145" y="696">Rajkot</text>
<text x="171" y="682">Surendranagar</text>
<text x="184" y="655">Patan</text>
<text x="194" y="634">Banas Kantha</text>
<text x="228" y="657">Sabar Kantha</text>
<text x="239" y="688">Panch Mahals</text>
<text x="253" y="694">Dohad</text>
<text x="234" y="705">Vadadora</text>
<text x="236" y="723">Narmada</text>
<text x="234" y="744">Tapi</text>
<text x="234" y="758">The Dangs</text>
<text x="223" y="683">Kheda</text>
<text x="212" y="671">Gandhinagar</text>
<text x="202" y="663">Mahesana</text>
<text x="125" y="665">Kachchh</text>
</g>
</svg>
