<svg xmlns="http://www.w3.org/2000/svg" viewBox="318 334 105 109">
<g title="Himachal Pradesh" fill="#328707">
<path title="Chamba" d="M 351.7349,372.45536 C 351.36131,372.25063 350.54496,371.87255 349.9208,371.61519 C 349.29663,371.35782 348.44077,370.78407 348.01888,370.34018 C 347.59698,369.89629 346.88501,369.34394 346.4367,369.11275 C 345.35287,368.55382 343.84816,367.31525 342.13487,365.57181 C 340.88223,364.29714 340.60822,364.14342 339.59224,364.14537 C 338.96595,364.14658 338.35733,364.3004 338.23975,364.48719 C 338.12217,364.67399 337.96211,365.86608 337.88408,367.13629 C 337.75487,369.23969 337.6901,369.45319 337.15827,369.529 C 336.40214,369.63678 334.21363,367.01364 333.9682,365.70539 C 333.74362,364.50826 332.53764,363.36788 331.35987,363.23894 C 330.58861,363.15451 330.31958,362.93428 329.75724,361.92703 L 329.08145,360.71658 L 330.0318,359.47195 C 330.55448,358.78741 331.2082,357.48067 331.48451,356.56809 C 331.92111,355.12609 331.9436,354.71541 331.65627,353.43148 C 331.47442,352.61893 331.08084,351.64289 330.78162,351.2625 C 330.08628,350.37851 329.81683,348.79946 330.26848,348.25526 C 330.6536,347.79122 332.75891,347.71069 334.42037,348.09645 C 334.98435,348.22739 335.68168,348.27283 335.97001,348.19743 C 336.74577,347.99457 337.44522,346.75357 337.3747,345.70515 C 337.33734,345.14997 337.49486,344.58659 337.77348,344.27871 C 338.29005,343.70791 339.5051,343.60366 339.98997,344.08853 C 340.59027,344.68884 341.65971,343.88765 342.35419,342.31732 C 342.70689,341.51978 343.38177,340.54221 343.8539,340.14493 C 344.68536,339.44531 344.82157,339.42262 348.19034,339.42262 C 350.81018,339.42262 351.74488,339.51481 351.97846,339.79627 C 352.14902,340.00177 352.77532,340.24775 353.37024,340.34288 C 354.01963,340.44673 354.45193,340.66433 354.45193,340.88736 C 354.45193,341.09169 354.75607,341.9232 355.12779,342.73516 C 355.49952,343.54712 355.8816,344.60116 355.97687,345.07747 C 356.13348,345.86056 356.08698,345.94348 355.49119,345.94348 C 354.54763,345.94348 354.18022,346.43705 354.18022,347.70457 C 354.18022,348.77748 354.14264,348.82409 353.02549,349.13661 C 350.49016,349.84585 349.95298,349.84055 348.67865,349.09375 C 348.01706,348.70603 347.15915,348.38881 346.77217,348.38881 C 345.35053,348.38881 343.99426,351.22324 344.64782,352.82844 C 344.84009,353.30065 345.06039,353.96211 345.13739,354.29834 C 345.2197,354.65777 345.48164,354.90967 345.77308,354.90967 C 346.04571,354.90967 346.34434,355.03194 346.4367,355.18138 C 346.52905,355.33081 347.01295,355.45308 347.51202,355.45308 C 348.23275,355.45308 348.70013,355.72794 349.78386,356.78911 C 350.53431,357.52392 351.28459,358.37978 351.45116,358.69102 C 351.61774,359.00227 351.96368,359.25568 352.21994,359.25417 C 353.045,359.2493 356.20913,360.45548 356.4897,360.88182 C 356.93568,361.55951 357.13859,362.50404 356.87341,362.66794 C 356.73709,362.75219 356.62555,363.16422 356.62555,363.58355 C 356.62555,364.00289 356.38101,364.65686 356.08214,365.03681 C 355.78327,365.41677 355.53874,365.83674 355.53874,365.97007 C 355.53874,366.10341 355.39119,366.36006 355.21085,366.5404 C 355.02716,366.72408 354.84909,367.79357 354.80595,368.97214 C 354.73228,370.98474 354.68776,371.11428 353.77931,371.95902 C 352.70579,372.95725 352.66766,372.96651 351.7349,372.45536 L 351.7349,372.45536 z"/>
<path title="Lahul &amp; Spiti" d="M 392.4903,389.53608 C 391.78283,389.03337 391.34052,388.90387 390.76282,389.03032 C 390.27659,389.13674 389.59514,389.02389 388.94,388.72847 L 387.8937,388.25665 L 387.81461,386.32304 C 387.74331,384.58016 387.67782,384.3812 387.15075,384.30608 C 386.29082,384.18351 385.8879,382.96301 386.11289,381.16225 C 386.28354,379.79647 386.22733,379.53391 385.52751,378.42774 C 385.00704,377.60505 384.50401,377.14931 383.9924,377.03695 C 383.57387,376.94502 382.71025,376.47198 382.07325,375.98575 C 381.43625,375.49951 380.55454,375.01379 380.11389,374.90635 C 379.67324,374.79892 379.12835,374.47332 378.90301,374.18279 C 378.5916,373.78127 377.90717,373.58109 376.05014,373.34835 C 374.69437,373.17844 373.40108,372.86314 373.14437,372.63995 C 372.88995,372.41874 372.0396,371.30389 371.25472,370.1625 C 370.46985,369.02111 369.63875,367.93848 369.40785,367.75664 C 368.72402,367.21813 364.98866,366.04948 363.95125,366.04948 C 363.1734,366.04948 362.90076,365.89525 362.51038,365.23438 C 362.19988,364.70875 361.80941,364.41927 361.41091,364.41927 C 361.01586,364.41927 360.27844,363.88019 359.36671,362.9249 C 358.58228,362.103 357.78755,361.43054 357.60063,361.43054 C 357.41371,361.43054 357.10845,361.14591 356.92227,360.79803 C 356.68785,360.36002 356.02032,359.98406 354.75139,359.57537 C 353.74357,359.25079 352.71802,358.98521 352.47236,358.98521 C 352.22671,358.98521 351.88719,358.72637 351.71788,358.41002 C 351.07918,357.21658 348.41224,354.90967 347.67126,354.90967 C 345.31159,354.90967 344.23062,352.47925 345.49126,350.0082 C 345.9601,349.08919 346.16821,348.93247 346.9177,348.934 C 347.40033,348.93499 348.16201,349.17872 348.61032,349.47562 C 349.5515,350.09894 350.32635,350.14186 352.70981,349.70269 L 354.42662,349.38635 L 354.5072,348.00454 C 354.58229,346.7168 354.64699,346.6036 355.45764,346.34157 C 355.93605,346.18693 356.39414,345.99375 356.4756,345.9123 C 356.67845,345.70945 355.87043,343.05436 355.21314,341.76396 L 354.67578,340.70901 L 355.7186,339.68444 C 356.8107,338.61142 357.16895,338.55281 357.16895,339.44718 C 357.16895,339.74193 357.38292,340.06027 357.64443,340.15462 C 359.08016,340.67257 359.5547,341.33013 360.4371,344.02435 C 361.22332,346.42485 361.40467,346.7481 362.03154,346.86637 C 362.42056,346.93976 363.63235,347.14978 364.72439,347.33307 C 366.65714,347.65747 366.72826,347.69761 367.39931,348.84268 C 367.77847,349.48967 368.17494,350.01902 368.28034,350.01902 C 368.38575,350.01902 369.15789,350.63036 369.99621,351.37754 C 370.83453,352.12472 371.74755,352.73605 372.02515,352.73605 C 372.30275,352.73605 372.98825,352.42457 373.54849,352.04388 C 374.5032,351.39513 374.66382,351.36957 376.10811,351.63657 C 377.63013,351.91792 377.67964,351.90628 380.12814,350.69112 C 382.58101,349.47379 382.61771,349.4652 383.60429,349.87742 C 384.31685,350.17515 384.64615,350.5068 384.7582,351.03957 C 385.01616,352.26611 385.30128,352.5933 386.23654,352.73605 C 387.10083,352.86797 387.16123,352.96638 388.32058,356.13234 C 389.83125,360.25764 390.25616,360.61564 393.64123,360.61502 L 395.88659,360.61462 L 397.60919,358.98481 C 399.35374,357.33422 400.04704,357.04641 400.61886,357.73541 C 401.02316,358.22256 400.51067,360.50437 399.81946,361.29469 C 398.84668,362.40694 398.16455,364.15577 398.24925,365.32037 C 398.33122,366.44746 398.3416,366.45774 399.4813,366.54033 C 400.5316,366.61643 400.67632,366.54616 401.15998,365.72522 C 401.45109,365.2311 401.9067,364.60917 402.17245,364.34315 C 402.63568,363.87946 402.70659,363.91045 403.89006,365.09391 C 405.00939,366.21325 405.12413,366.44832 405.12076,367.61535 C 405.11767,368.68354 404.94443,369.12535 404.10181,370.21385 C 403.54342,370.93517 403.01199,371.82249 402.92084,372.18568 C 402.68844,373.11158 403.4364,374.13118 404.80236,374.75053 C 405.42783,375.03413 406.32181,375.60718 406.78897,376.02396 C 407.79763,376.92384 409.47954,379.58152 409.21058,379.85048 C 409.10682,379.95424 408.3284,380.10095 407.48076,380.1765 L 405.93959,380.31388 L 405.85702,381.91228 L 405.77447,383.51068 L 404.46522,383.35562 C 403.28327,383.21564 403.08465,383.27502 402.42228,383.96639 C 401.8843,384.52791 401.31888,384.78126 400.30287,384.91604 C 398.49907,385.15532 397.8542,385.50639 398.05519,386.13967 C 398.18196,386.53906 397.97543,386.70406 396.98144,386.99755 C 396.30455,387.19741 395.75074,387.4565 395.75074,387.57332 C 395.75074,387.69013 395.56967,387.7857 395.34836,387.7857 C 395.12705,387.7857 394.87524,388.12193 394.78877,388.53288 C 394.41622,390.30354 393.89221,390.53225 392.4903,389.53609 L 392.4903,389.53608 z"/>
<path title="Kinnaur" d="M 415.15767,412.57441 C 414.99731,412.46462 414.78487,412.15475 414.68554,411.88582 C 414.5862,411.61688 413.80038,411.08907 412.93928,410.71291 C 412.07817,410.33675 411.04912,409.85376 410.65247,409.6396 C 410.25582,409.42544 409.56493,409.25021 409.11715,409.25021 C 408.66938,409.25021 407.64898,408.94574 406.8496,408.57361 C 406.05022,408.20148 405.1098,407.89581 404.75978,407.89436 C 404.40977,407.8929 403.81251,407.64717 403.43255,407.3483 C 403.05259,407.04942 402.51924,406.80489 402.24731,406.80489 C 401.97539,406.80489 401.45008,406.50208 401.07998,406.13197 C 400.70503,405.75703 399.66556,405.25289 398.73258,404.9935 C 397.39593,404.62189 396.91565,404.33281 396.352,403.56073 C 395.21662,402.00547 395.00886,401.91424 392.60255,401.91424 L 390.37333,401.91424 L 389.54302,400.62032 C 389.08635,399.90866 388.51211,398.84628 388.26693,398.25948 C 388.02175,397.67267 387.52678,396.75937 387.16699,396.2299 C 386.80353,395.69502 386.51285,394.86998 386.51285,394.37327 C 386.51285,393.70495 386.23287,393.17558 385.40358,392.2759 C 384.75716,391.57464 384.333,390.86858 384.38703,390.58383 C 384.43976,390.30597 385.16089,389.75509 386.0588,389.30677 L 387.63783,388.51837 L 388.63763,389.02165 C 389.21837,389.31399 390.06196,389.49254 390.65031,389.44765 C 391.34581,389.39458 391.92063,389.55368 392.48477,389.95538 C 393.84354,390.92291 394.69479,390.54257 395.06047,388.80459 C 395.14695,388.39364 395.39875,388.0574 395.62006,388.0574 C 395.84137,388.0574 396.02244,387.9605 396.02244,387.84205 C 396.02244,387.72361 396.57264,387.47955 397.2451,387.29969 C 398.26315,387.0274 398.46776,386.86369 398.46776,386.32145 C 398.46776,385.57794 398.74693,385.43019 400.62154,385.18151 C 401.52402,385.0618 402.16583,384.79122 402.57143,384.35948 C 403.11038,383.78579 403.33343,383.73441 404.62574,383.88629 L 406.07544,384.05667 L 406.07544,382.41813 C 406.07544,380.53491 406.18256,380.44242 408.33921,380.46337 L 409.74343,380.47701 L 410.49061,382.05577 C 411.10308,383.34992 411.23779,384.00936 411.23779,385.7138 C 411.23779,386.8574 411.10072,388.01256 410.93318,388.28083 C 410.7069,388.64316 410.71496,389.32344 410.96452,390.92625 C 411.1493,392.11295 411.35867,393.72333 411.4298,394.50486 C 411.5562,395.89328 411.53732,395.93869 410.60564,396.4884 C 408.90166,397.49377 408.18475,399.23847 409.03155,400.31918 C 409.30913,400.67344 410.03808,401.96275 410.65144,403.18433 C 412.04347,405.95667 412.50322,406.3091 414.43223,406.08239 C 415.76311,405.92598 415.9001,405.96105 416.03946,406.49399 C 416.12325,406.81442 416.29983,407.07659 416.43182,407.07659 C 416.56384,407.07659 416.67185,407.26165 416.67185,407.48783 C 416.67185,407.71402 416.77911,408.11138 416.91018,408.37087 C 417.62715,409.79004 417.92075,411.50035 417.59373,412.35257 C 417.42098,412.80285 415.71779,412.95795 415.15767,412.57441 L 415.15767,412.57441 z"/>
<path title="Shimla" d="M 377.7531,422.26891 C 375.78775,421.98102 374.55793,421.12883 374.55793,420.05488 C 374.55793,419.57756 374.28094,419.00153 373.83881,418.5594 C 373.20273,417.92331 373.15391,417.74962 373.41606,417.05511 C 373.72098,416.24731 373.49387,415.17003 372.94748,414.83234 C 372.79048,414.73531 372.26331,414.82986 371.77598,415.04245 C 370.14085,415.75576 368.63395,416.11512 367.97325,415.94929 C 367.3686,415.79754 366.39605,414.82538 363.14641,411.12442 C 362.47395,410.35856 361.89188,409.53186 361.85293,409.28731 C 361.81398,409.04274 361.70956,408.38975 361.62088,407.8362 C 361.42115,406.58948 362.00625,405.09476 362.60278,405.32778 C 362.82706,405.41539 364.57828,405.55791 366.49437,405.64448 L 369.97818,405.80188 L 371.53031,404.12975 L 373.08243,402.45765 L 375.05966,402.45765 C 378.19237,402.45765 380.67514,401.02724 382.60555,398.11018 C 383.23196,397.16362 383.27218,396.95581 382.99288,396.10953 C 382.82147,395.59011 382.50406,395.01813 382.28756,394.83844 C 381.83668,394.46425 381.77171,393.41235 382.15522,392.69575 C 382.29894,392.4272 382.80492,392.0466 383.27962,391.84997 C 384.11913,391.50222 384.17134,391.52318 385.19192,392.6173 C 385.96733,393.44859 386.24161,393.9753 386.24293,394.63567 C 386.24392,395.12712 386.49181,395.89603 386.7938,396.34434 C 387.09578,396.79265 387.5902,397.70853 387.89249,398.37962 C 388.19478,399.05073 388.8155,400.18168 389.27187,400.89287 L 390.10163,402.18594 L 392.33086,402.18594 C 394.74518,402.18594 394.94141,402.27322 396.10474,403.86448 C 396.67779,404.64832 397.17235,404.96043 398.39871,405.31218 C 400.21081,405.83193 401.18479,406.39175 401.18479,406.91355 C 401.18479,407.43707 398.61143,408.47654 396.77948,408.69302 C 395.92564,408.79391 395.00864,409.07028 394.74171,409.30717 C 393.98949,409.97475 390.59761,411.42384 389.78728,411.42384 C 388.73569,411.42384 387.36469,412.86449 387.1523,414.1927 C 387.05822,414.78101 386.71218,415.65886 386.38331,416.14348 C 386.05444,416.6281 385.45647,417.8853 385.05449,418.93728 C 384.54572,420.26871 384.11317,420.96259 383.63112,421.22057 C 383.25025,421.4244 382.82153,421.80999 382.67841,422.07741 C 382.38747,422.62104 380.62476,422.68958 377.7531,422.26892 L 377.7531,422.26891 z"/>
<path title="Sirmaur" d="M 376.40528,436.76011 C 376.04983,436.34916 375.32063,435.78793 374.78483,435.51293 C 373.88098,435.04902 373.75034,435.04413 372.97512,435.44501 C 371.82124,436.0417 371.43564,435.98885 371.0688,435.18371 C 370.72121,434.42083 369.60589,433.86599 367.83328,433.57412 C 366.9586,433.4301 366.67855,433.26188 366.67855,432.8805 C 366.67855,432.60358 366.56979,432.3098 366.43687,432.22765 C 366.30395,432.14549 366.13073,431.67978 366.05195,431.19273 C 365.80678,429.67687 365.31744,427.66479 364.72977,425.75615 C 364.29529,424.34501 364.04765,423.92216 363.65575,423.92216 C 363.28014,423.92216 363.14641,423.72421 363.14641,423.16818 C 363.14641,422.59052 363.62496,421.93923 365.19271,420.38323 C 366.52758,419.05837 367.34297,418.00635 367.53801,417.35735 C 367.83639,416.36447 367.84085,416.36206 369.72298,416.17304 C 370.94249,416.05056 371.6602,415.85007 371.75399,415.60566 C 371.83377,415.39776 372.12816,415.22767 372.4082,415.22767 C 373.0174,415.22767 373.42193,416.47235 372.96216,416.93213 C 372.41806,417.47623 372.60441,418.48194 373.29821,418.74572 C 373.98934,419.0085 374.28622,419.53471 374.28622,420.497 C 374.28622,421.88219 376.72372,422.8174 380.36353,422.82871 L 382.50115,422.83535 L 382.31132,424.86118 L 382.12147,426.88699 L 383.36621,428.21771 C 384.68407,429.62661 384.86483,430.16577 384.20337,430.71473 C 383.97922,430.90076 383.79582,431.32329 383.79582,431.65367 C 383.79582,431.98407 383.71284,432.33736 383.61142,432.43877 C 383.51,432.54019 383.2349,433.15478 383.00009,433.80452 C 382.34153,435.62676 381.30051,436.69219 380.17855,436.69219 C 379.66412,436.69219 378.8043,436.87559 378.26782,437.09974 C 377.03659,437.61418 377.16412,437.63744 376.40528,436.76011 L 376.40528,436.76011 z"/>
<path title="Solan" d="M 361.85582,423.09858 C 361.51959,422.96344 361.24449,422.72778 361.24449,422.5749 C 361.24449,422.42202 360.81807,422.02072 360.2969,421.68311 C 359.60275,421.23346 359.3484,420.87313 359.34594,420.33593 C 359.34242,419.57016 357.92537,418.2164 357.12731,418.2164 C 356.90847,418.2164 356.49207,418.04019 356.202,417.82483 C 355.90376,417.60339 355.3994,417.50053 355.04125,417.5881 C 354.54846,417.7086 354.1415,417.48148 353.20726,416.56459 C 352.10963,415.48735 352.0066,415.27144 352.0066,414.04844 C 352.0066,413.15521 351.81316,412.39764 351.42451,411.76879 C 350.88823,410.90108 350.8615,410.64191 351.08488,408.47629 L 351.32734,406.12563 L 352.5351,406.0395 C 353.51794,405.9694 353.82594,406.0635 354.189,406.54483 C 354.61067,407.10386 354.67964,407.11329 355.44636,406.71681 C 356.48397,406.18025 356.75302,405.82929 357.14935,404.49542 C 357.32696,403.89767 357.7277,402.83402 358.03989,402.13174 C 358.60318,400.86462 358.6132,400.85781 359.35328,401.24052 C 359.76346,401.45263 360.48972,402.11942 360.96718,402.72226 C 361.73015,403.6856 361.81311,403.94966 361.6521,404.90264 C 361.55136,405.49901 361.35729,406.05593 361.22085,406.14025 C 361.08443,406.22457 360.97463,406.62257 360.97688,407.0247 C 360.98401,408.29907 361.63775,409.70581 362.81776,410.98597 C 363.44683,411.66844 363.96152,412.36238 363.96152,412.52809 C 363.96152,412.6938 364.70967,413.6085 365.62407,414.56076 C 367.21765,416.22031 367.27862,416.3348 367.09368,417.32059 C 366.94355,418.12087 366.45412,418.78281 364.88772,420.30413 C 363.66887,421.4879 362.87471,422.48005 362.87471,422.81899 C 362.87471,423.43264 362.76309,423.46326 361.85582,423.09859 L 361.85582,423.09858 z"/>
<path title="Bilaspur" d="M 354.3442,406.10094 C 354.212,405.75645 353.83374,405.68544 352.48113,405.75118 C 351.54767,405.79654 350.60013,405.71596 350.37547,405.5721 C 350.15081,405.42823 349.05583,404.21013 347.94217,402.8652 C 346.82852,401.52027 345.76796,400.32706 345.58537,400.21361 C 345.34655,400.06523 345.32411,399.76076 345.50542,399.1286 C 345.64402,398.64528 345.75744,397.79054 345.75744,397.22916 C 345.75744,396.36643 345.84768,396.20848 346.34059,396.20848 C 346.66133,396.20848 347.51195,396.75868 348.23087,397.43115 C 348.94979,398.10361 349.65677,398.65381 349.80193,398.65381 C 350.34191,398.65381 350.92007,397.77249 350.92866,396.93626 C 350.93354,396.46126 351.16878,395.40017 351.45142,394.57827 C 351.90413,393.26183 352.06107,393.07405 352.76953,393.00112 C 353.53666,392.92214 353.61447,393.01609 354.45734,395.03889 C 354.94332,396.20519 355.48853,397.58738 355.66891,398.1104 C 355.84928,398.63343 356.24755,399.1884 356.55393,399.34367 C 358.21284,400.18438 358.23953,400.41011 357.06642,403.67904 C 356.20714,406.0735 354.81048,407.31607 354.3442,406.10094 L 354.3442,406.10094 z"/>
<path title="Una" d="M 340.55776,402.23477 C 340.31307,402.1332 339.54631,401.4179 338.85383,400.64522 C 337.40879,399.03281 335.21748,394.41358 334.88015,392.2688 C 334.5767,390.33941 334.12288,388.66792 333.65889,387.77065 C 333.43901,387.34546 333.25911,386.74215 333.25911,386.42996 C 333.25911,386.11778 332.83118,385.2269 332.30815,384.45025 C 331.13111,382.70244 331.07664,382.07348 332.10438,382.09716 C 333.58671,382.13134 338.69604,385.44418 339.44903,386.85937 C 339.6406,387.21942 339.89888,387.514 340.023,387.514 C 340.41076,387.514 342.32493,389.14739 342.83155,389.91057 C 343.58451,391.04483 345.48591,396.08 345.48422,396.93519 C 345.48338,397.35741 345.35537,398.16135 345.19975,398.72173 C 344.97765,399.52144 344.78247,399.74062 344.29241,399.74062 C 343.61617,399.74062 342.77397,400.49903 342.76007,401.12053 C 342.73674,402.16288 341.67663,402.69924 340.55776,402.23477 L 340.55776,402.23477 z"/>
<path title="Kangra" d="M 339.72942,386.61277 C 339.2742,385.76775 336.21214,383.35701 334.61763,382.58829 C 333.94516,382.26409 332.9059,381.92539 332.30815,381.83562 C 331.25706,381.67775 331.21688,381.63312 331.08549,380.47733 C 330.93801,379.17995 330.66913,378.93392 329.13085,378.68881 C 328.45388,378.58095 327.74185,378.15608 326.94348,377.38361 C 326.29245,376.75371 325.21578,376.04399 324.55088,375.80646 L 323.34197,375.37458 L 323.26314,373.47928 L 323.18434,371.58398 L 324.88849,370.10732 C 325.82578,369.29516 326.95689,368.20273 327.40208,367.6797 C 327.84726,367.15667 328.73588,366.22492 329.37679,365.60913 C 330.01771,364.99335 330.54209,364.29032 330.54209,364.04684 C 330.54209,363.3597 331.74093,363.50489 332.69486,364.30757 C 333.15463,364.69444 333.53082,365.25268 333.53082,365.54809 C 333.53082,366.64019 335.62151,369.46024 336.74894,369.88889 C 337.95316,370.34673 338.38967,369.59264 338.47929,366.89954 L 338.55732,364.55512 L 339.49504,364.4659 C 340.32032,364.38738 340.60271,364.55029 341.84993,365.82441 C 343.57072,367.58232 345.07505,368.82288 346.16499,369.38289 C 346.6133,369.61323 347.28577,370.13587 347.65936,370.54431 C 348.03295,370.95275 349.25561,371.72439 350.37638,372.25906 C 351.49716,372.79372 352.48145,373.26795 352.56369,373.31289 C 352.64595,373.35782 353.21574,372.96446 353.82992,372.43874 C 354.9328,371.49473 354.94899,371.45429 355.13929,369.16972 C 355.24526,367.89746 355.42697,366.79782 355.54307,366.72606 C 355.89603,366.50793 356.89725,364.43447 356.89725,363.92166 C 356.89725,363.33297 357.5042,361.97898 357.7694,361.97606 C 357.87549,361.97489 358.53411,362.58527 359.23302,363.33246 C 360.0286,364.183 360.73215,364.69097 361.11457,364.69097 C 361.45052,364.69097 361.9044,364.96607 362.12318,365.3023 C 362.59212,366.02299 362.91446,368.43817 362.57011,368.65099 C 362.43876,368.73216 362.33036,369.37213 362.32921,370.07314 C 362.32758,371.05812 362.01894,371.96096 360.9707,374.04701 C 360.22466,375.53164 359.61428,376.87772 359.61428,377.03831 C 359.61428,377.45992 358.58683,378.04856 358.39439,377.7372 C 358.30734,377.59636 357.79017,377.35798 357.24511,377.20748 C 356.14469,376.90365 355.53874,377.1872 355.53874,378.00598 C 355.53874,378.50745 354.81583,378.8095 353.60058,378.8158 C 352.80458,378.81993 352.56,379.34226 352.55372,381.0515 C 352.54959,382.17217 351.6907,382.95953 351.10798,382.37682 C 350.68166,381.95049 349.6849,382.01116 349.28957,382.4875 C 349.07488,382.74619 348.47496,382.89505 347.64716,382.89505 C 346.39758,382.89505 346.32985,382.93487 346.02914,383.84601 C 345.71798,384.78884 345.70169,384.79697 344.12411,384.79697 C 342.55534,384.79697 342.52202,384.81321 341.75872,385.94973 C 340.83783,387.32091 340.2197,387.52287 339.72942,386.61277 L 339.72942,386.61277 z"/>
<path title="Kullu" d="M 373.03769,401.50035 C 372.94305,401.12327 372.60622,400.63306 372.28917,400.41099 C 371.77739,400.05253 371.6897,399.6342 371.50742,396.68142 C 371.19195,391.57087 371.11803,391.30358 369.63854,389.92278 C 368.85508,389.19157 368.58047,388.71975 368.58047,388.10483 C 368.58047,387.64807 368.4582,387.1988 368.30876,387.10644 C 368.15933,387.01409 368.03706,386.71317 368.03706,386.43773 C 368.03706,385.91238 366.83405,385.34038 365.72915,385.34038 C 364.83321,385.34038 364.23322,384.49915 364.23322,383.24295 C 364.23322,382.41405 363.99638,381.81059 363.2819,380.81902 C 362.75869,380.09288 362.20926,379.21775 362.06097,378.87429 C 361.91268,378.53084 361.36265,378.0707 360.83867,377.85176 C 360.31469,377.63283 359.88598,377.35268 359.88598,377.22921 C 359.88598,377.10574 360.48523,375.8277 361.21765,374.38914 C 362.51127,371.84832 362.81393,370.69139 362.95516,367.74763 L 363.01056,366.59289 L 364.26806,366.59289 C 365.41008,366.59289 368.08024,367.41269 369.14002,368.08869 C 369.37306,368.23734 370.20416,369.29282 370.9869,370.4342 C 371.76965,371.57559 372.63007,372.70854 372.89895,372.95188 C 373.20063,373.22489 374.31409,373.50939 375.80687,373.69487 C 377.51418,373.907 378.34582,374.13701 378.63347,374.47662 C 378.85762,374.74126 379.34669,375.0487 379.72028,375.15981 C 380.09387,375.27092 380.89135,375.69861 381.49247,376.11024 C 382.09358,376.52187 383.02297,377.04148 383.55777,377.26494 C 384.09259,377.48839 384.82342,378.08242 385.18187,378.58499 C 385.74918,379.38041 385.82377,379.75433 385.75782,381.47181 C 385.67469,383.63628 385.9764,384.52527 386.79411,384.52527 C 387.27307,384.52527 387.32795,384.71757 387.32795,386.39546 L 387.32795,388.26564 L 385.77124,389.04456 C 384.91503,389.47296 384.07278,390.10997 383.89956,390.46012 C 383.72633,390.81028 383.22502,391.31545 382.78553,391.58272 C 381.72065,392.23032 381.15533,393.57004 381.60232,394.38673 C 381.78266,394.71624 382.16128,395.40385 382.44369,395.91478 C 382.93179,396.79782 382.93424,396.8835 382.49346,397.64776 C 380.95115,400.32191 377.85816,402.18594 374.96323,402.18594 C 373.31515,402.18594 373.19942,402.14474 373.03769,401.50035 L 373.03769,401.50035 z"/>
<path title="Mandi" d="M 364.01966,405.11138 C 362.26047,404.87843 362.05812,404.79227 362.20242,404.33761 C 362.50774,403.37566 359.87893,400.78688 357.05476,399.26834 C 356.15937,398.7869 353.89826,393.01861 353.90418,391.23094 C 353.90756,390.21054 353.7252,389.65493 353.07829,388.71469 C 351.8962,386.99656 351.46295,385.81918 351.46491,384.33022 C 351.46644,383.17217 351.55506,382.98058 352.28002,382.56806 C 353.03,382.1413 353.09341,381.98775 353.09341,380.59822 L 353.09341,379.09121 L 353.97645,379.08751 C 355.50978,379.08106 356.08214,378.81497 356.08214,378.10857 C 356.08214,377.3511 356.65177,377.26542 357.77886,377.85337 C 358.22293,378.08502 358.89483,378.18233 359.43974,378.0939 C 360.38584,377.94037 361.5162,378.35266 361.5162,378.85127 C 361.5162,379.00766 361.96573,379.68421 362.51516,380.35472 C 363.27956,381.28757 363.56192,381.92604 363.71768,383.07382 C 363.9446,384.74595 364.54773,385.61208 365.48521,385.61208 C 366.95169,385.61208 368.30876,386.99901 368.30876,388.49774 C 368.30876,388.91729 368.70907,389.55811 369.38513,390.22078 C 369.97713,390.80107 370.51991,391.56039 370.5913,391.90817 C 370.6627,392.25594 370.8043,392.9073 370.90598,393.35561 C 371.00766,393.80392 371.1679,395.54424 371.26209,397.22299 C 371.41669,399.97826 371.49283,400.31685 372.04468,400.70261 C 372.38091,400.93764 372.65601,401.37754 372.65601,401.68015 C 372.65601,402.3818 370.89342,404.54526 369.9056,405.05609 C 369.06211,405.49227 367.03955,405.51127 364.01966,405.11138 L 364.01966,405.11138 z"/>
<path title="Hamirpur" d="M 348.33861,397.02359 C 347.62337,396.29112 347.04047,395.93678 346.55074,395.93678 C 345.87766,395.93678 345.73657,395.71381 344.63604,392.91096 C 343.69184,390.50624 343.20203,389.64206 342.24987,388.70095 C 341.07816,387.54285 341.06266,387.50472 341.54649,386.97011 C 341.81858,386.66944 342.1774,386.14919 342.34386,385.81398 C 342.60175,385.29467 342.89945,385.19249 344.35665,385.12314 C 345.97681,385.04604 346.08149,384.99959 346.34625,384.24011 C 346.59425,383.52869 346.75072,383.43846 347.73635,383.43846 C 348.50921,383.43846 349.04196,383.2553 349.48805,382.83622 C 350.5175,381.86911 351.02634,382.42141 351.19512,384.68907 C 351.3382,386.61159 351.52212,387.09358 352.86192,389.05732 C 353.84808,390.50273 353.96947,392.40465 353.07555,392.40465 C 352.76685,392.40465 352.29933,392.51968 352.03662,392.66028 C 351.56862,392.91076 350.82867,395.06004 350.51106,397.09152 C 350.30014,398.44056 349.70404,398.42192 348.33861,397.02359 z"/>
</g>
<g class="label" text-anchor="middle" font-size="4" font-family="sans-serif"  fill="#444">
<text x="340" y="356">Chamba</text>
<text x="379" y="365">Lahul &amp; Spiti</text>
<text x="403" y="398">Kinnaur</text>
<text x="381" y="408">Shimla</text>
<text x="373" y="428">Sirmaur</text>
<text x="359" y="413">Solan</text>
<text x="351" y="400">Bilaspur</text>
<text x="339" y="393">Una</text>
<text x="340" y="378">Kangra</text>
<text x="374" y="384">Kullu</text>
<text x="362" y="390">Mandi</text>
<text x="348" y="389">Hamirpur</text>
</g>
</svg>
