<svg xmlns="http://www.w3.org/2000/svg" viewBox="278 413 104 119">
<g title="Haryana" fill="#328707">
<path title="Panchkula" d="M 357.64183,430.41981 C 356.69127,429.86628 356.29498,428.30295 356.28958,425.08542 C 356.2847,422.18035 356.25421,422.01746 355.6399,421.61494 C 355.09148,421.2556 354.99533,420.97064 354.99533,419.70451 C 354.99533,418.88605 355.08703,418.21825 355.19911,418.2205 C 355.31119,418.22275 355.86044,418.38394 356.41967,418.57871 C 357.72637,419.03382 358.79917,420.04556 358.79917,420.82278 C 358.79917,421.22654 359.12042,421.63106 359.75013,422.02024 C 360.27316,422.34349 360.70109,422.76944 360.70109,422.96678 C 360.70109,423.16413 361.06789,423.45346 361.5162,423.60975 C 362.415,423.92307 362.60769,424.71306 361.92375,425.28067 C 361.63329,425.52173 361.5162,426.15939 361.5162,427.50006 L 361.5162,429.38121 L 360.08976,430.04532 C 358.49428,430.78812 358.32008,430.81477 357.64183,430.41981 L 357.64183,430.41981 z"/>
<path title="Ambala" d="M 357.91756,442.8055 C 358.00979,442.32305 357.9283,442.12624 357.63633,442.12624 C 357.41024,442.12624 356.84481,441.69295 356.37984,441.16337 C 355.62743,440.30642 355.4315,440.21982 354.59866,440.37606 C 354.04512,440.4799 353.48854,440.8177 353.23604,441.20308 C 352.94171,441.65227 352.55468,441.85454 351.98951,441.85454 C 351.53869,441.85454 350.71622,442.08415 350.16178,442.36479 C 349.60735,442.64542 348.75636,442.9608 348.27069,443.06563 C 347.50292,443.23135 347.38766,443.18457 347.38766,442.70727 C 347.38766,442.40535 347.26539,442.08275 347.11595,441.99039 C 346.96652,441.89803 346.84425,441.403 346.84425,440.89032 C 346.84425,439.92654 347.03969,439.75216 350.44431,437.67822 C 351.02653,437.32356 351.19149,437.0166 351.19149,436.28793 C 351.19149,435.18248 351.7407,434.79027 353.28867,434.79027 C 354.16287,434.79027 354.41389,434.92421 354.81626,435.60538 C 355.70272,437.10605 356.62555,436.3723 356.62555,434.1668 C 356.62555,433.50536 356.7011,432.41299 356.79344,431.7393 C 356.95935,430.52881 356.97026,430.51779 357.72167,430.80141 C 358.28951,431.01575 358.77303,430.99237 359.6314,430.70908 C 361.54443,430.07772 361.86856,429.66489 361.99516,427.69848 C 362.13532,425.52139 362.56549,424.42051 363.23542,424.52441 C 363.83152,424.61686 364.5425,426.63484 365.03352,429.62792 C 365.21737,430.74869 365.54046,431.99022 365.75148,432.38687 C 365.9625,432.78351 366.13514,433.17519 366.13514,433.25725 C 366.13514,433.33931 365.56752,433.96605 364.87376,434.64999 L 363.61239,435.89352 L 363.76957,437.76839 C 363.89065,439.21273 363.83715,439.7176 363.53658,439.96705 C 363.32198,440.14515 363.14641,440.70382 363.14641,441.20855 C 363.14641,441.86051 363.02315,442.12624 362.72073,442.12624 C 362.4866,442.12624 361.8943,442.43191 361.4045,442.8055 C 360.72807,443.32144 360.1862,443.48476 359.15083,443.48476 C 357.84336,443.48476 357.79301,443.45703 357.91756,442.8055 z"/>
<path title="Yamunanagar" d="M 364.17233,451.26835 C 363.50602,450.88626 363.10292,450.4261 362.99196,449.92095 C 362.89928,449.49901 362.6516,449.08784 362.44153,449.00723 C 362.23147,448.92662 362.0596,448.64817 362.0596,448.38845 C 362.0596,447.90211 361.25962,447.01867 360.81555,447.01459 C 360.67788,447.01333 360.53854,446.34808 360.50591,445.53625 C 360.44929,444.12751 360.49265,444.02415 361.45687,443.26944 C 362.01253,442.83452 362.80339,442.39705 363.21434,442.29728 C 363.91778,442.12651 364.27961,441.58284 363.68982,441.58284 C 363.23153,441.58284 363.38833,440.6072 363.92462,440.12187 C 364.35604,439.73143 364.41087,439.38045 364.29451,437.75415 C 364.16015,435.8764 364.17313,435.82904 365.07859,434.89103 C 365.79014,434.15391 366.15359,433.96965 366.67855,434.07989 C 367.05214,434.15835 367.95885,434.33397 368.69347,434.47017 C 369.98081,434.70885 370.75409,435.30728 370.75409,436.06486 C 370.75409,436.50174 372.19438,436.54125 372.97088,436.12568 C 373.78266,435.69123 374.70791,436.03126 375.92322,437.21068 C 377.42863,438.67164 377.41861,439.71511 375.88498,441.18807 C 373.69319,443.29315 372.1126,445.38212 372.1126,446.17378 C 372.1126,447.0932 371.65516,447.52201 369.53143,448.59339 C 368.63481,449.04571 367.35612,449.97644 366.6899,450.66167 C 366.02368,451.3469 365.41235,451.89428 365.33139,451.87807 C 365.25042,451.86187 364.72884,451.58749 364.17232,451.26835 L 364.17233,451.26835 z"/>
<path title="Karnal" d="M 356.4897,467.08951 C 352.52694,464.94709 352.38474,464.91843 351.40159,466.06395 C 350.89216,466.65752 350.55968,466.8658 350.47022,466.64741 C 350.39023,466.45214 349.84883,466.30778 349.19644,466.30778 C 348.35603,466.30778 347.97377,466.16686 347.72241,465.76438 C 347.28883,465.0701 346.81798,465.07537 346.21356,465.78129 C 345.51645,466.59544 344.38461,466.38887 343.88795,465.35682 C 343.67221,464.90851 343.39324,464.32941 343.26804,464.06992 C 343.14284,463.81044 343.04041,463.29655 343.04041,462.92796 C 343.04041,462.38498 343.23378,462.20408 344.0593,461.97483 C 344.61968,461.81921 345.23101,461.69119 345.41781,461.69035 C 345.61072,461.6895 345.75744,461.35004 345.75744,460.90458 C 345.75744,460.18554 345.85726,460.10535 346.95788,459.9403 C 347.61814,459.8413 348.27523,459.61344 348.41811,459.43397 C 348.68302,459.10122 348.92867,458.06119 349.20108,456.11893 C 349.28491,455.52119 349.52252,454.93435 349.7291,454.81484 C 349.93566,454.69534 350.10468,454.35911 350.10468,454.06766 C 350.10468,453.77621 350.13525,453.53734 350.17261,453.53682 C 350.20997,453.53631 351.13963,453.16952 352.23853,452.72172 C 353.33742,452.27392 354.58344,451.90754 355.00745,451.90754 C 355.43145,451.90754 355.85393,451.78527 355.94629,451.63584 C 356.03865,451.4864 356.33656,451.36413 356.60831,451.36413 C 356.88007,451.36413 357.25462,451.18074 357.44066,450.95658 C 357.90892,450.39235 358.42528,450.44684 359.11131,451.13287 C 359.65447,451.67602 359.80715,451.69588 361.30218,451.41785 C 362.89829,451.12102 363.87805,451.27453 364.69039,451.94871 C 364.95074,452.16479 364.84237,452.38763 364.22381,452.90811 C 363.61877,453.41722 363.41811,453.81838 363.41811,454.5189 C 363.41811,455.06637 362.96753,456.34791 362.3274,457.62106 C 361.20126,459.86082 360.42939,462.31627 360.42939,463.65884 C 360.42939,464.0818 360.67278,464.75915 360.97026,465.16405 C 361.41501,465.7694 361.48072,466.15374 361.33997,467.32667 C 361.17373,468.71194 361.14441,468.75242 360.32361,468.72922 C 359.84415,468.71567 358.18517,468.00614 356.4897,467.08951 L 356.4897,467.08951 z"/>
<path title="Panipat" d="M 358.14983,476.45717 C 357.17422,475.92876 354.40866,475.51569 354.05796,475.84599 C 353.30261,476.55737 352.0066,475.6133 352.0066,474.35168 C 352.0066,472.81092 351.70765,472.63408 349.5106,472.87521 C 347.20138,473.12865 346.84425,473.04903 346.84425,472.2808 C 346.84425,471.50845 348.02085,470.48033 349.23274,470.19372 C 350.10443,469.98757 350.25449,469.8332 350.38928,469.00397 C 350.47447,468.47989 350.93265,467.48647 351.40746,466.79634 C 352.44599,465.2869 352.33029,465.27222 356.39726,467.4295 C 358.05139,468.30692 359.74474,469.02481 360.16025,469.02481 C 360.84134,469.02481 360.93238,469.13849 361.08498,470.17955 C 361.17809,470.81465 361.32706,472.58751 361.41604,474.11924 L 361.57784,476.90419 L 360.25642,476.89331 C 359.52965,476.88733 358.58168,476.69106 358.14982,476.45716 L 358.14983,476.45717 z"/>
<path title="Sonipat" d="M 355.06326,490.1893 C 354.50143,489.82763 354.18022,489.40071 354.18022,489.01564 C 354.18022,488.32675 353.13966,487.22889 352.48673,487.22889 C 351.97151,487.22889 350.91979,485.634 350.91979,484.85269 C 350.91979,484.18549 350.46049,483.77942 349.56493,483.65487 C 349.01853,483.57887 348.85766,483.36493 348.72371,482.53611 C 348.49154,481.09955 347.485,480.08778 346.43677,480.23726 C 345.98842,480.30121 345.41274,480.4444 345.15748,480.55548 C 344.80316,480.70966 344.65116,480.58922 344.5149,480.04631 C 344.30378,479.20511 343.66032,478.80611 342.51487,478.80611 C 341.82415,478.80611 341.6819,478.6982 341.6819,478.17421 C 341.6819,477.82667 341.98756,477.25516 342.36115,476.90419 C 342.73475,476.55322 343.04041,475.99866 343.04041,475.67184 C 343.04041,475.18452 343.1626,475.10098 343.71967,475.20747 C 344.30766,475.31987 344.39893,475.2394 344.39893,474.60853 C 344.39893,472.95249 345.21372,472.46741 346.73458,473.21801 C 347.33666,473.51516 347.94177,473.55435 349.28957,473.38349 C 351.27255,473.13211 351.7349,473.3929 351.7349,474.76278 C 351.7349,475.24234 351.98902,475.70613 352.4508,476.06936 C 353.26757,476.71184 353.70207,476.76602 354.42368,476.31537 C 354.82142,476.06698 355.30637,476.10012 356.66154,476.46834 C 357.61309,476.72688 358.81955,476.9978 359.34257,477.07038 C 361.52665,477.37344 361.5162,477.36599 361.5162,478.61835 C 361.5162,479.25657 361.70826,480.50747 361.94301,481.39813 C 362.31572,482.8122 363.12836,487.20396 363.14167,487.876 C 363.14428,488.00776 362.68791,488.05419 362.12753,487.9792 C 361.56714,487.90421 360.38996,487.98649 359.51157,488.16206 C 358.1591,488.43238 357.76378,488.6556 356.93039,489.6195 L 355.94629,490.75775 L 355.06326,490.1893 z"/>
<path title="Jhajjar" d="M 345.46119,501.06742 L 344.48571,499.99892 L 342.26869,499.99892 C 340.41395,499.99892 339.96289,499.91012 339.50828,499.45551 C 339.2094,499.15664 338.72449,498.91211 338.43068,498.91211 C 338.13688,498.91211 337.46741,498.70749 336.94298,498.45741 C 335.95496,497.98625 335.9407,497.92185 336.42726,496.12716 C 336.58576,495.54249 337.87806,495.46771 337.87806,496.04319 C 337.87806,496.25853 338.00011,496.51015 338.14929,496.60234 C 338.4703,496.80074 340.58309,495.11511 340.59019,494.65495 C 340.59288,494.48035 340.16716,494.07301 339.64413,493.74976 C 338.22601,492.87331 338.33991,492.01644 340.07291,490.52401 C 341.09282,489.64568 341.53187,489.41551 341.75733,489.64097 C 342.15788,490.04153 343.66017,490.03259 344.06551,489.62725 C 344.30113,489.39162 344.55425,489.38606 345.03676,489.60591 C 345.54263,489.83639 345.73348,490.19819 345.8857,491.21517 C 345.99369,491.93673 346.1397,492.62073 346.21015,492.73519 C 346.34298,492.95097 347.9978,492.13918 348.15748,491.77991 C 348.2073,491.66784 348.74135,491.57614 349.34427,491.57614 C 350.17487,491.57614 350.66545,491.37862 351.36886,490.76103 C 352.49762,489.76996 353.52755,489.71228 355.00733,490.55725 C 356.04135,491.14768 356.07803,491.21777 356.08005,492.60737 C 356.08235,494.19233 355.82421,494.55201 353.63739,496.01075 C 353.00529,496.43239 352.35298,497.13543 352.18779,497.57304 C 352.00666,498.05292 351.69043,498.3687 351.39099,498.3687 C 351.11793,498.3687 350.68624,498.73473 350.43167,499.18209 C 349.9263,500.07023 349.27486,500.2284 348.74617,499.59137 C 347.97893,498.66691 346.84425,499.61173 346.84425,501.17505 C 346.84425,501.72367 346.75255,502.1643 346.64047,502.15423 C 346.5284,502.14415 345.99772,501.65509 345.4612,501.06742 L 345.46119,501.06742 z"/>
<path title="Gurgaon" d="M 350.68926,508.56633 C 350.37596,508.03531 349.83069,507.54818 349.43977,507.45006 C 349.05828,507.35432 348.74617,507.16697 348.74617,507.03373 C 348.74617,506.9005 348.19597,506.79149 347.52351,506.79149 C 346.31049,506.79149 346.30084,506.78409 346.30084,505.85331 C 346.30084,505.33731 346.16395,504.6147 345.99665,504.24749 C 345.65231,503.49176 346.11574,502.5801 346.84425,502.5801 C 347.13665,502.5801 347.27495,502.22155 347.33373,501.31115 C 347.42752,499.85865 347.93432,499.21223 348.47169,499.85972 C 349.02821,500.53029 350.24054,500.37733 350.59865,499.59137 C 350.95395,498.81156 351.91226,498.67923 352.39758,499.34295 C 352.91255,500.04723 355.51824,500.79552 357.48917,500.80516 C 359.51045,500.81504 359.91028,501.05447 360.5793,502.65566 C 360.86987,503.35109 360.92286,503.94313 360.76535,504.73429 L 360.54512,505.84053 L 357.50888,505.85434 L 354.47264,505.86815 L 353.10378,507.43244 C 352.35089,508.2928 351.7349,509.11188 351.7349,509.25262 C 351.7349,509.8025 351.21874,509.46372 350.68927,508.56633 L 350.68926,508.56633 z"/>
<path title="Faridabad" d="M 368.41399,508.62548 C 367.96493,508.13981 367.26226,507.28395 366.8525,506.72356 C 366.16478,505.78304 366.00374,505.70468 364.75852,505.70468 C 362.91057,505.70468 361.24449,505.15803 361.24449,504.55171 C 361.24449,504.15954 361.489,504.07446 362.61606,504.07446 C 363.71927,504.07446 364.27849,503.8884 365.47421,503.1235 C 366.29184,502.60047 367.07124,502.17254 367.20622,502.17254 C 367.54873,502.17254 369.77614,504.8425 370.31165,505.89496 C 370.55499,506.37321 370.75409,507.38191 370.75409,508.13651 C 370.75409,509.4585 370.72631,509.50851 369.99228,509.50851 C 369.48142,509.50851 368.96151,509.21763 368.41399,508.62548 L 368.41399,508.62548 z"/>
<path title="Palwal" d="M 365.52028,521.97903 C 365.70988,521.25401 365.20689,520.92954 363.88507,520.92419 C 362.84031,520.91995 362.7855,520.86312 362.47747,519.46492 C 362.37808,519.01369 362.08312,518.63063 361.77255,518.54942 C 361.20606,518.40128 361.08577,518.05851 360.84044,515.89353 C 360.75578,515.14635 360.61626,513.94553 360.53041,513.22505 C 360.39719,512.10695 360.49774,511.68355 361.21696,510.33414 C 362.19785,508.49381 362.29647,507.26069 361.5162,506.59259 C 360.69328,505.88799 360.80517,505.3252 361.71997,505.56765 C 362.13092,505.67658 363.2353,505.8237 364.17414,505.89461 C 365.87196,506.02284 365.88685,506.03127 366.94478,507.46334 C 368.27785,509.26786 369.26293,510.05192 370.197,510.05192 C 371.47976,510.05192 372.25157,512.49701 371.54222,514.31355 C 371.37795,514.73424 371.13508,515.91712 371.00252,516.9422 C 370.78734,518.60617 370.81937,518.87954 371.3012,519.49209 C 371.59803,519.86945 371.8409,520.3226 371.8409,520.49908 C 371.8409,521.26203 368.26502,522.55024 366.14721,522.55024 C 365.49208,522.55024 365.39422,522.46109 365.52028,521.97903 L 365.52028,521.97903 z"/>
<path title="Mewat" d="M 352.21313,526.90454 C 351.66618,526.47431 350.91979,524.6826 350.91979,523.79989 C 350.91979,523.72294 351.46999,523.33752 352.14245,522.94343 L 353.36511,522.2269 L 353.36511,519.82343 C 353.36511,518.50153 353.48738,517.3444 353.63682,517.25204 C 353.78625,517.15968 353.90852,516.62672 353.90852,516.06768 C 353.90852,515.50864 354.01534,514.9351 354.1459,514.79313 C 354.27645,514.65116 354.44789,514.0178 354.52687,513.38566 C 354.6586,512.33129 354.58288,512.14604 353.61054,511.14411 C 353.02758,510.54341 352.42821,510.05192 352.27861,510.05192 C 351.67625,510.05192 352.07664,509.1884 353.35787,507.72426 L 354.70914,506.18009 L 357.59793,506.22969 C 359.26262,506.25828 360.70485,506.41551 361.00147,506.60075 C 361.75646,507.07225 361.67105,508.74291 360.81119,510.32275 C 360.18722,511.46921 360.12564,511.81691 360.27546,513.34825 C 360.36857,514.29985 360.47185,515.68975 360.50499,516.43693 C 360.5716,517.9389 361.05302,519.01811 361.65643,519.01811 C 361.87249,519.01811 362.12292,519.35434 362.21297,519.76529 C 362.50598,521.1025 362.57636,521.19168 363.34166,521.19544 C 364.77806,521.20249 365.30209,521.46461 365.08001,522.06495 C 364.68077,523.14419 361.74231,523.70833 360.42939,522.9578 C 359.41744,522.37932 357.08784,522.43271 356.53181,523.04712 C 356.2845,523.3204 356.08146,523.71776 356.08063,523.93015 C 356.07604,525.0962 355.47897,526.35873 354.85844,526.51447 C 354.49768,526.60502 354.06026,526.85051 353.8864,527.06 C 353.45555,527.57915 353.0192,527.5386 352.21313,526.90454 L 352.21313,526.90454 z"/>
<path title="Rewari" d="M 340.6888,515.14741 C 340.23228,514.66116 339.45589,513.65198 338.9635,512.9048 C 337.8519,511.21798 337.04231,510.30431 336.79481,510.45728 C 336.46324,510.66221 334.8896,508.8266 334.6346,507.93746 C 334.41914,507.18622 334.52118,506.87628 335.46457,505.41668 C 336.65559,503.57394 336.65603,503.603 335.39639,500.92357 C 334.96807,500.01248 334.61763,499.12838 334.61763,498.9589 C 334.61763,498.44189 335.92604,498.27362 336.58945,498.70532 C 336.9246,498.9234 337.66373,499.18815 338.23197,499.29366 C 338.80021,499.39917 339.33292,499.66215 339.41578,499.87806 C 339.53042,500.17682 340.10666,500.27062 341.82747,500.27062 C 344.03656,500.27062 344.11161,500.29239 345.09267,501.21764 C 346.07348,502.14267 346.08639,502.18055 345.64876,502.84847 C 345.24433,503.46571 345.24074,503.60969 345.61197,504.32757 C 345.86563,504.81807 345.95973,505.44041 345.85753,505.95143 C 345.71363,506.67094 345.78786,506.8165 346.42157,507.05744 C 346.82293,507.21005 347.44903,507.33489 347.8129,507.33489 C 348.17675,507.33489 348.47447,507.45716 348.47447,507.6066 C 348.47447,507.75603 348.78193,507.8783 349.15772,507.8783 C 349.63698,507.8783 350.0017,508.14192 350.37936,508.76133 C 350.67547,509.247 350.91822,509.7115 350.91877,509.79356 C 350.91933,509.87561 350.49069,510.09792 349.96623,510.28757 C 349.42242,510.48421 348.84767,510.95144 348.62871,511.37487 C 348.24743,512.11219 346.19909,513.66565 343.85552,514.99485 C 341.86139,516.12586 341.61844,516.13757 340.68881,515.14741 L 340.6888,515.14741 z"/>
<path title="Mahendragarh" d="M 329.15515,521.84009 C 328.56401,521.21029 328.37348,521.16301 327.07788,521.32461 C 325.81006,521.48275 325.65144,521.44702 325.65144,521.00326 C 325.65144,520.72867 325.42375,520.07797 325.14547,519.55728 C 324.73473,518.78875 324.44468,518.58499 323.60442,518.4747 C 323.03512,518.39999 322.52578,518.2063 322.47255,518.04429 C 322.41932,517.88229 322.8819,517.11404 323.50051,516.3371 L 324.62526,514.92448 L 324.52702,512.55613 L 324.42878,510.18777 L 326.05899,510.05192 C 327.67319,509.9174 327.69006,509.90725 327.77543,509.01851 C 327.84533,508.29093 327.68733,507.95649 326.94109,507.25245 C 326.43479,506.77477 325.69307,505.81217 325.29285,505.11335 C 324.89263,504.41453 324.15468,503.49753 323.65297,503.07558 C 322.85741,502.4065 322.75657,502.18133 322.86438,501.31468 C 323.04078,499.89654 324.23639,498.79684 325.33859,499.03892 C 325.97342,499.17835 326.18154,499.38698 326.24646,499.949 C 326.35712,500.90681 327.39505,501.04627 328.74981,500.28534 C 329.53585,499.84384 330.22681,499.72722 332.05625,499.72722 L 334.36899,499.72722 L 335.17236,501.42536 C 335.6142,502.35934 335.97581,503.28847 335.97593,503.4901 C 335.97604,503.69174 335.53648,504.56901 334.99912,505.4396 C 333.82485,507.34206 333.89458,508.19226 335.35766,509.81171 C 336.0353,510.56178 336.23537,510.96733 336.04629,511.20761 C 335.89972,511.39387 335.51415,512.4348 335.18948,513.52075 C 334.65089,515.32222 334.55292,515.47046 334.07123,515.21267 C 333.78086,515.05727 333.39823,514.65782 333.22096,514.32501 C 332.40917,512.80095 331.47478,512.69396 330.90242,514.05953 C 330.56609,514.86197 330.50305,515.75665 330.60571,518.27093 C 330.67741,520.02681 330.63128,521.46343 330.50322,521.46343 C 330.37517,521.46343 330.27038,521.63962 330.27038,521.85495 C 330.27038,522.55456 329.82011,522.54857 329.15514,521.8401 L 329.15515,521.84009 z"/>
<path title="Bhiwani" d="M 320.82872,501.40289 C 319.73602,500.86571 319.40228,500.55807 319.40228,500.08803 C 319.40228,499.33278 318.30926,498.06011 316.28589,496.45945 C 315.44095,495.79102 314.21202,494.49564 313.55495,493.58083 C 312.52884,492.15221 312.33414,491.66236 312.17499,490.10898 C 312.07307,489.11427 311.88467,488.23552 311.7563,488.15618 C 311.62793,488.07685 311.5229,487.65956 311.5229,487.22889 C 311.5229,486.79822 311.40063,486.37029 311.25119,486.27793 C 311.10176,486.18558 310.97997,485.65873 310.98055,485.10716 C 310.98176,483.9645 311.82654,480.75775 312.13423,480.72784 C 312.24631,480.71693 313.04551,480.70803 313.91023,480.70803 C 315.47921,480.70803 315.48452,480.7108 316.49038,482.05812 L 317.49832,483.40821 L 319.74088,483.24458 C 321.95202,483.08325 322.93441,482.67355 322.93441,481.91273 C 322.93441,481.22343 324.5672,480.16462 325.63017,480.16462 C 326.30896,480.16462 326.81977,479.98148 327.1458,479.62122 C 327.75544,478.94757 328.05067,478.94757 328.91187,479.62122 C 329.3677,479.97777 330.02091,480.15453 330.89775,480.15858 C 331.76039,480.16256 332.14294,480.26402 332.02359,480.45713 C 331.92417,480.61801 332.10034,480.98958 332.41511,481.28283 C 332.72987,481.57608 332.98741,482.09768 332.98741,482.44194 C 332.98741,483.32172 334.18918,485.4687 334.66215,485.4339 C 334.92765,485.41437 335.07512,485.72299 335.11652,486.38486 C 335.23492,488.27755 335.33259,488.38047 336.81655,488.17637 C 338.0363,488.00861 338.14976,488.04006 338.14976,488.54588 C 338.14976,488.84995 338.01581,489.18153 337.85208,489.28272 C 337.68086,489.38855 337.61977,489.82816 337.7083,490.31764 C 337.79295,490.78566 337.94124,491.63536 338.03785,492.20586 C 338.16967,492.98426 338.44206,493.39113 339.12923,493.83608 C 340.21771,494.54088 340.25638,494.81099 339.36202,495.462 C 338.74805,495.9089 338.63696,495.91482 338.08744,495.52992 C 337.0924,494.83297 336.39786,494.99529 336.03072,496.0106 C 335.85127,496.50688 335.70444,497.12082 335.70444,497.37493 C 335.70444,497.62903 335.39877,497.97622 335.02518,498.14644 C 334.65159,498.31666 334.34593,498.68084 334.34593,498.95572 C 334.34593,499.40383 334.0939,499.45551 331.90887,499.45551 C 329.97544,499.45551 329.27187,499.56781 328.50432,499.99892 C 327.21132,500.72515 326.79121,500.68393 326.68837,499.82073 C 326.62175,499.26158 326.37195,499.01975 325.57868,498.74647 C 324.59706,498.4083 324.51604,498.42797 323.60883,499.22451 C 322.98035,499.77633 322.66131,500.29661 322.65855,500.77425 C 322.6511,502.06144 322.36689,502.15908 320.82872,501.40289 L 320.82872,501.40289 z"/>
<path title="Hisar" d="M 316.74011,481.75698 C 315.79162,480.48652 315.76457,480.4728 313.85655,480.29392 C 311.45219,480.06852 310.51535,479.41595 310.12927,477.69765 C 309.98184,477.0415 309.66707,476.29013 309.42978,476.02792 C 309.19249,475.76571 308.9424,474.96903 308.87403,474.25752 L 308.74972,472.96385 L 310.02205,472.58819 C 311.05262,472.2839 311.48664,472.27597 312.30626,472.54647 C 313.82273,473.04695 314.62971,472.84718 314.73345,471.94561 C 314.80098,471.35875 314.96129,471.19843 315.48063,471.19843 C 315.8443,471.19843 316.14184,471.07617 316.14184,470.92673 C 316.14184,470.77729 316.55526,470.65503 317.06055,470.65503 C 318.16247,470.65503 319.1506,469.5216 320.11293,467.15384 C 320.44972,466.32519 320.91666,465.50726 321.15059,465.33621 C 321.38451,465.16517 321.5759,464.83444 321.5759,464.60128 C 321.5759,464.35578 321.90292,464.10551 322.35282,464.0067 C 322.78013,463.91284 323.48316,463.464 323.91511,463.00927 C 324.34707,462.55454 325.16139,461.94543 325.72472,461.6557 C 326.63273,461.1887 326.76752,461.17726 326.91241,461.55485 C 327.00231,461.78912 326.87763,462.19982 326.63535,462.46753 C 326.0093,463.15932 326.08283,463.5398 327.00995,464.40586 C 327.45826,464.82465 327.82506,465.43452 327.82506,465.76114 C 327.82506,466.17145 328.07696,466.45007 328.64017,466.66265 C 329.08848,466.83188 329.45528,467.11195 329.45528,467.28504 C 329.45528,467.45814 329.63868,467.75197 329.86283,467.938 C 330.18854,468.20831 330.35475,468.20622 330.69049,467.92759 C 331.03872,467.63857 331.23625,467.67248 331.84522,468.12583 C 332.49026,468.60603 332.61299,468.95031 332.85156,470.94876 C 333.1064,473.08354 333.16963,473.24104 333.87045,473.48672 C 334.28618,473.63246 334.61763,473.95168 334.61763,474.20634 C 334.61763,474.45807 334.80103,474.81624 335.02518,475.00227 C 335.27387,475.20867 335.43274,475.80413 335.43274,476.5299 C 335.43274,477.58191 335.36212,477.71941 334.8214,477.72031 C 333.97711,477.72172 332.52974,478.65138 332.31411,479.33077 C 332.05283,480.15395 330.13884,480.11108 329.07292,479.25816 C 328.16997,478.53565 327.14475,478.58995 326.72046,479.38276 C 326.52523,479.74754 326.1464,479.89292 325.39102,479.89292 C 324.29596,479.89292 322.66271,480.93939 322.66271,481.64103 C 322.66271,482.40211 321.69486,482.82432 319.70466,482.93144 L 317.69758,483.03947 L 316.74011,481.75698 z"/>
<path title="Fatehabad" d="M 307.99073,471.60589 C 307.68341,470.6747 307.64644,470.65503 306.20362,470.65503 C 304.52069,470.65503 304.3667,470.34918 305.18537,468.63242 C 305.61096,467.73995 305.61096,467.64564 305.18537,467.17537 C 304.2954,466.19197 304.7003,464.95182 305.91414,464.94323 C 306.38381,464.9399 307.07062,464.70473 307.44036,464.42062 C 308.11232,463.90429 308.11237,463.90377 307.57621,463.31047 C 307.1547,462.84403 307.06055,462.4207 307.13667,461.33402 C 307.18996,460.57345 307.39191,459.70024 307.58548,459.39356 C 307.77905,459.08688 308.01573,458.45924 308.11145,457.99881 C 308.23649,457.39734 308.78157,456.76627 310.04754,455.75726 C 311.72197,454.42271 311.88953,454.35286 313.41691,454.35286 C 314.68388,454.35286 315.10023,454.46138 315.38318,454.86534 C 315.67892,455.28757 316.03734,455.36629 317.41818,455.31234 C 318.77691,455.25926 319.25594,455.11079 319.94836,454.52816 C 320.67422,453.91739 321.05966,453.80946 322.51497,453.80946 C 324.20014,453.80946 324.24256,453.82789 325.17348,454.9642 C 326.03696,456.01819 326.13664,456.32483 326.31598,458.4791 L 326.51245,460.83927 L 325.47061,461.371 C 324.8976,461.66344 324.18424,462.1761 323.88537,462.51024 C 323.5865,462.84438 322.82233,463.34211 322.18723,463.61631 C 321.55212,463.8905 321.03249,464.25274 321.03249,464.42128 C 321.03249,464.58982 320.78796,465.03858 320.48909,465.41854 C 320.19021,465.7985 319.94568,466.31067 319.94568,466.5567 C 319.94568,466.80274 319.50833,467.70325 318.97378,468.55783 C 318.09611,469.96096 317.91088,470.11162 317.06333,470.11162 C 316.47971,470.11162 316.06565,470.26575 315.9684,470.51918 C 315.88238,470.74333 315.51942,470.92673 315.16181,470.92673 C 314.64942,470.92673 314.51163,471.07068 314.51163,471.60599 C 314.51163,472.19869 314.39271,472.28524 313.57836,472.28524 C 313.06505,472.28524 312.30898,472.15746 311.89818,472.00127 C 311.40629,471.81426 310.91323,471.80672 310.45405,471.97919 C 308.62674,472.66556 308.32538,472.61989 307.99073,471.60588 L 307.99073,471.60589 z"/>
<path title="Sirsa" d="M 300.5375,471.00164 C 300.24882,470.92806 298.59823,469.67467 296.8695,468.21631 C 294.05237,465.83978 292.8328,464.94927 292.39517,464.94927 C 292.31584,464.94927 291.83907,465.31087 291.33571,465.75282 C 290.48602,466.49886 290.34945,466.53457 289.42764,466.25165 C 288.66208,466.0167 288.16962,466.02948 287.27672,466.3075 C 285.59485,466.83118 285.58781,466.82806 285.43944,465.49268 C 285.32133,464.42973 285.18823,464.21924 284.42055,463.88135 C 283.93488,463.66759 283.53752,463.33628 283.53752,463.14512 C 283.53752,462.95395 284.02658,462.34505 284.62433,461.792 L 285.71114,460.78643 L 285.71114,458.51208 C 285.71114,456.74108 285.62094,456.20312 285.30359,456.08134 C 284.75463,455.87068 284.79066,455.45254 285.41589,454.77793 C 286.35048,453.76955 286.24267,453.18727 285.04754,452.7883 C 284.45841,452.59164 283.81651,452.29804 283.6211,452.13586 C 283.10523,451.70773 283.1605,449.34446 283.69679,448.89937 C 283.98645,448.65898 284.07777,448.2917 283.97529,447.77929 L 283.8228,447.01689 L 286.19342,447.00825 C 287.84599,447.00223 288.72377,446.87878 289.09143,446.6007 C 289.46667,446.31688 290.32902,446.20351 292.08016,446.20775 C 294.96153,446.21473 296.17332,446.65278 298.01985,448.35486 C 298.6806,448.9639 299.46438,449.46222 299.7616,449.46222 C 300.05882,449.46222 300.68704,449.59644 301.15765,449.7605 C 301.96719,450.0427 302.01353,450.13422 302.01746,451.45864 C 302.02328,453.41642 302.22831,453.6487 303.74933,453.42061 C 304.94737,453.24095 305.00203,453.26167 305.00203,453.89539 C 305.00203,454.25984 304.82529,454.70472 304.60926,454.884 C 303.97903,455.40704 303.49338,458.01861 303.87186,458.8493 C 304.04515,459.22961 304.18692,459.83056 304.18692,460.18473 C 304.18692,460.5389 304.43129,461.39877 304.72996,462.09554 C 305.23231,463.26747 305.33086,463.34968 306.04518,463.19279 C 306.58475,463.07429 306.92746,463.15585 307.18282,463.46353 C 307.65427,464.03161 307.15332,464.39571 305.89204,464.40171 C 305.19883,464.405 304.92947,464.57317 304.60146,465.20748 C 304.07236,466.23064 304.08014,466.55456 304.64891,467.18304 C 305.05098,467.62732 305.06503,467.80628 304.75723,468.56294 C 304.56271,469.04112 304.34057,469.70746 304.26357,470.0437 C 304.14838,470.5467 303.93945,470.65503 303.08447,470.65503 C 302.51297,470.65503 301.96981,470.77729 301.87745,470.92673 C 301.7023,471.21013 301.41796,471.22603 300.53749,471.00163 L 300.5375,471.00164 z"/>
<path title="Kurukshetra" d="M 351.11088,451.76315 C 350.57185,451.02254 349.95116,450.92644 348.87467,451.41692 C 348.32266,451.66843 348.04565,451.66843 347.64291,451.41692 C 347.01011,451.02172 346.12148,450.99491 345.89329,451.36413 C 345.80093,451.51357 345.2037,451.63584 344.5661,451.63584 C 343.21659,451.63584 342.2253,450.80974 342.2253,449.68512 C 342.2253,449.30396 341.98077,448.68122 341.6819,448.30127 C 341.38303,447.92131 341.13849,447.42016 341.13849,447.18761 C 341.13849,446.52098 343.03305,445.40637 344.49601,445.2123 C 345.40154,445.09217 346.11232,444.78679 346.71217,444.26011 C 347.19787,443.83367 347.85827,443.48476 348.17974,443.48476 C 348.5012,443.48476 349.36744,443.17909 350.10468,442.8055 C 350.84193,442.43191 351.86889,442.12624 352.38681,442.12624 C 353.05105,442.12624 353.37372,441.98376 353.48198,441.64266 C 353.5664,441.37669 353.99198,441.02451 354.42772,440.86003 C 355.16248,440.5827 355.30889,440.64498 356.44491,441.71809 C 357.28885,442.5153 357.5824,442.96263 357.38873,443.1563 C 356.8738,443.67123 357.4578,444.02816 358.8152,444.02816 C 360.13847,444.02816 360.15839,444.0408 360.20737,444.9112 C 360.23471,445.39686 360.23677,446.11178 360.21197,446.49989 C 360.17922,447.01224 360.3517,447.28977 360.84154,447.51295 C 361.23033,447.6901 361.5162,448.04902 361.5162,448.36002 C 361.5162,448.65684 361.74577,449.02255 362.02635,449.17272 C 362.30694,449.32288 362.59442,449.74869 362.6652,450.11895 C 362.78443,450.74263 362.69194,450.80927 361.40786,451.02491 C 360.17096,451.23263 359.9392,451.19032 359.2538,450.63165 C 358.31233,449.86425 357.93885,449.84842 357.3048,450.54903 C 357.03433,450.8479 356.59466,451.09243 356.32777,451.09243 C 356.06087,451.09243 355.76694,451.2147 355.67459,451.36413 C 355.58223,451.51357 355.16246,451.63584 354.74175,451.63584 C 354.32105,451.63584 353.45703,451.81924 352.82171,452.04339 C 352.18639,452.26755 351.65138,452.4471 351.63281,452.44241 C 351.61424,452.43771 351.37937,452.13205 351.11088,451.76315 L 351.11088,451.76315 z"/>
<path title="Kaithal" d="M 339.85363,462.6398 C 338.63696,461.59838 337.56892,461.41913 336.60466,462.09453 C 335.12354,463.13195 333.25911,461.63019 333.25911,459.39975 C 333.25911,458.22205 333.33373,458.09291 334.48178,457.28369 C 335.78034,456.36838 335.93978,455.88296 335.33727,454.679 C 334.9069,453.81899 334.79069,450.89558 335.0458,447.3464 C 335.21953,444.92939 335.25957,444.80627 335.99572,444.42559 C 336.41843,444.207 337.28328,444.02816 337.91763,444.02816 C 338.76452,444.02816 339.25542,443.85374 339.76511,443.37171 C 340.42477,442.74786 340.87923,442.56516 341.5915,442.63746 C 341.89487,442.66825 342.96194,445.04904 342.74001,445.19994 C 340.97937,446.39711 340.58474,446.8296 340.75187,447.37889 C 340.85043,447.70282 341.09855,448.15927 341.30325,448.39323 C 341.50796,448.6272 341.75445,449.23853 341.85101,449.75175 C 342.14007,451.28813 342.90917,451.90754 344.5278,451.90754 C 345.29376,451.90754 346.07023,451.75777 346.25329,451.57472 C 346.51592,451.31208 346.69851,451.31208 347.11905,451.57472 C 347.78698,451.99185 348.52286,451.99763 349.41154,451.59273 C 349.98723,451.33043 350.1933,451.36011 350.64698,451.77069 C 351.37679,452.43115 351.33647,452.63373 350.37638,453.1302 C 349.92808,453.36203 349.56128,453.73581 349.56128,453.96081 C 349.56128,454.18582 349.3843,454.43783 349.16798,454.52084 C 348.90852,454.62041 348.77924,455.05669 348.78807,455.8029 C 348.80422,457.16761 348.50543,458.71152 348.13536,459.17559 C 347.98641,459.36238 347.48213,459.51709 347.01476,459.51938 C 345.91865,459.52474 345.56268,459.7676 345.4452,460.59016 C 345.36808,461.13013 345.11645,461.31387 344.12722,461.55253 C 343.02363,461.81878 342.89627,461.9324 342.81942,462.71914 C 342.74272,463.50431 342.64652,463.59076 341.84944,463.59076 C 341.23095,463.59076 340.63019,463.30451 339.85362,462.6398 L 339.85363,462.6398 z"/>
<path title="Jind" d="M 339.64413,478.78768 C 339.19582,478.50052 338.38052,478.26492 337.83236,478.26413 C 336.18652,478.26177 335.97614,478.07833 335.97614,476.64553 C 335.97614,475.70326 335.83048,475.22638 335.43274,474.86642 C 335.13386,474.59594 334.88933,474.15139 334.88933,473.87852 C 334.88933,473.58013 334.62695,473.31655 334.23099,473.21717 C 333.62917,473.06613 333.55611,472.87323 333.38006,470.97045 C 333.27414,469.82564 333.0241,468.65337 332.82443,468.36542 C 332.37267,467.71398 330.88719,467.05601 330.6682,467.41036 C 330.39121,467.85854 330.06282,467.68712 329.89162,467.00502 C 329.77441,466.53801 329.50636,466.31851 328.97913,466.25784 C 328.40275,466.19152 328.21376,466.00926 328.14987,465.45819 C 328.10436,465.06564 327.76812,464.46355 327.40268,464.12024 C 326.61544,463.38066 326.58468,463.12398 327.20167,462.44221 C 327.5752,462.02946 327.60304,461.83079 327.34521,461.41794 C 327.16927,461.13624 326.94316,459.92041 326.84273,458.71611 L 326.66012,456.52649 L 328.04166,456.52649 C 328.80151,456.52649 329.49156,456.41589 329.5751,456.28071 C 329.84725,455.84036 334.34998,453.37287 334.46415,453.60151 C 334.48396,453.64116 334.64885,454.11022 334.83059,454.64386 C 335.22492,455.80168 335.25498,456.52649 334.90868,456.52649 C 334.76987,456.52649 334.21968,456.93829 333.68601,457.4416 C 332.89571,458.18695 332.71571,458.55329 332.71571,459.4163 C 332.71571,460.59104 333.8182,462.50395 334.49526,462.50395 C 334.71605,462.50395 335.13274,462.65135 335.42122,462.83151 C 335.84943,463.09893 336.03977,463.07399 336.45782,462.69566 C 337.273,461.95792 338.57913,462.11499 339.80215,463.09784 C 340.4651,463.63061 341.31441,464.02238 342.01091,464.11672 C 342.99539,464.25009 343.17069,464.37887 343.35907,465.10722 C 343.47817,465.56768 343.81432,466.16046 344.10608,466.4245 C 344.55811,466.83359 344.77615,466.85851 345.58053,466.59304 C 346.09971,466.4217 346.60168,466.08035 346.69602,465.8345 C 346.8425,465.45278 346.96665,465.49438 347.54615,466.11935 C 348.03323,466.64465 348.49244,466.85119 349.17324,466.85119 C 350.32326,466.85119 350.48607,467.19963 349.99427,468.6083 C 349.73566,469.34901 349.41292,469.74098 348.96242,469.86146 C 347.80842,470.17009 347.13206,470.65086 346.71369,471.4599 C 346.43986,471.98944 346.05942,472.27701 345.55614,472.33488 C 344.97684,472.40151 344.683,472.68349 344.26307,473.57581 C 343.79893,474.5621 343.62513,474.70861 343.07149,474.58027 C 342.47857,474.44282 342.43682,474.49756 342.58178,475.22235 C 342.70948,475.86085 342.58475,476.16366 341.93937,476.78197 C 341.36823,477.32916 341.13849,477.80748 341.13849,478.44939 C 341.13849,479.48138 340.83454,479.55019 339.64413,478.78768 L 339.64413,478.78768 z"/>
<path title="Rohtak" d="M 346.29713,491.53085 C 346.29509,491.03273 346.22768,490.3806 346.14733,490.08168 C 345.95063,489.34989 344.75268,488.79608 344.11021,489.13992 C 343.46023,489.48777 342.33212,489.47337 341.74614,489.10974 C 341.35753,488.86858 341.04595,489.03625 339.97899,490.06069 C 339.26654,490.74475 338.56584,491.30443 338.42187,491.30443 C 337.8892,491.30443 337.79879,489.94044 338.29513,489.392 C 338.66541,488.98284 338.71464,488.72114 338.5083,488.2587 C 338.27835,487.74336 338.05877,487.66856 336.97222,487.73538 L 335.70444,487.81334 L 335.70444,486.87311 C 335.70444,486.17054 335.5331,485.82061 335.0266,485.48874 C 334.23955,484.97304 333.64445,483.68905 333.38232,481.94108 C 333.25777,481.11051 333.06484,480.70803 332.79126,480.70803 C 332.48404,480.70803 332.43069,480.52636 332.57225,479.96236 C 332.83502,478.91541 333.17572,478.5812 334.33404,478.23416 C 335.15927,477.98692 335.49954,478.0116 336.19024,478.36876 C 336.65539,478.6093 337.4861,478.80611 338.03628,478.80611 C 338.58644,478.80611 339.45183,479.06275 339.95936,479.37642 C 340.67666,479.81974 340.9667,479.87654 341.26194,479.63151 C 341.47082,479.45815 342.16982,479.35434 342.81525,479.40084 C 343.8802,479.47754 344.00232,479.56077 344.13526,480.30047 C 344.29435,481.18567 344.54827,481.23798 345.95195,480.67478 C 346.75105,480.35415 346.88385,480.37881 347.5061,480.96338 C 347.88616,481.32043 348.28228,482.09476 348.40349,482.71759 C 348.58779,483.66453 348.75328,483.87192 349.50141,484.09341 C 350.17009,484.29137 350.44128,484.56771 350.62701,485.24035 C 351.00769,486.61906 351.94951,487.7723 352.6948,487.7723 C 353.30261,487.7723 353.90852,488.43997 353.90852,489.10974 C 353.90852,489.26724 353.42879,489.4728 352.84245,489.56656 C 352.17737,489.67292 351.49397,490.03181 351.02555,490.52073 C 350.42524,491.14733 350.03981,491.30443 349.10289,491.30443 C 348.45838,491.30443 347.93106,491.41244 347.93106,491.54445 C 347.93106,491.67646 347.71709,491.85993 347.45558,491.95217 C 347.19407,492.04441 346.82727,492.19113 346.64047,492.27821 C 346.40536,492.38781 346.2997,492.15782 346.29714,491.53085 L 346.29713,491.53085 z"/>
</g>
<g class="label" text-anchor="middle" font-size="4" font-family="sans-serif"  fill="#444">
<text x="358" y="424">Panchkula</text>
<text x="357" y="438">Ambala</text>
<text x="366" y="443">Yamunanagar</text>
<text x="353" y="459">Karnal</text>
<text x="355" y="472">Panipat</text>
<text x="351" y="481">Sonipat</text>
<text x="345" y="495">Jhajjar</text>
<text x="353" y="503">Gurgaon</text>
<text x="367" y="506">Faridabad</text>
<text x="366" y="515">Palwal</text>
<text x="357" y="518">Mewat</text>
<text x="340" y="506">Rewari</text>
<text x="329" y="511">Mahendragarh</text>
<text x="327" y="490">Bhiwani</text>
<text x="324" y="476">Hisar</text>
<text x="314" y="464">Fatehabad</text>
<text x="296" y="460">Sirsa</text>
<text x="353" y="448">Kurukshetra</text>
<text x="343" y="454">Kaithal</text>
<text x="337" y="467">Jind</text>
<text x="343" y="486">Rohtak</text>
</g>
</svg>
