<svg xmlns="http://www.w3.org/2000/svg" viewBox="543 607 152 126">
<g title="Jharkhand" fill="#328707">
<path title="Garhwa" d="M 562.36861,673.70283 C 561.62591,672.93664 561.26523,672.25103 561.00721,671.11495 C 560.68169,669.68162 560.41476,669.31354 557.33072,666.04529 C 555.0408,663.61857 554.00493,662.32393 554.00423,661.88782 C 554.00367,661.53947 553.77384,660.87833 553.4935,660.41861 C 552.90714,659.45704 549.8155,657.16116 548.74534,656.89256 C 548.34786,656.79281 547.95367,656.59957 547.86935,656.46314 C 547.78504,656.32672 547.9841,655.39271 548.31171,654.38755 C 548.72323,653.12491 549.24095,652.2131 549.98656,651.4378 C 551.05985,650.32176 551.06499,650.30614 550.92428,648.58492 C 550.84647,647.63304 550.7058,646.4263 550.6117,645.90327 C 550.46291,645.07637 550.5913,644.7485 551.59588,643.39002 C 552.23129,642.53076 552.89567,641.82773 553.07228,641.82773 C 553.2489,641.82773 553.98944,642.16086 554.71793,642.56803 C 555.84368,643.19722 556.43297,643.32401 558.64445,643.41283 C 560.88497,643.50283 561.4025,643.43773 562.36981,642.94424 C 562.98768,642.62903 563.66484,642.37114 563.87464,642.37114 C 564.64149,642.37114 564.88812,648.10693 564.22085,650.42309 C 564.01142,651.15008 563.7096,652.46033 563.55015,653.33477 C 563.29469,654.73582 563.32388,655.04938 563.79599,655.97478 C 564.09064,656.55236 564.56632,657.15047 564.85305,657.30392 C 565.13979,657.45737 565.5718,657.78034 565.81308,658.02162 C 566.05436,658.26291 566.54272,658.47768 566.89832,658.49888 C 567.25392,658.5201 567.53569,658.59858 567.52449,658.6733 C 567.51328,658.74802 567.6009,659.03136 567.7192,659.30296 C 568.03572,660.02964 567.39797,661.01413 565.8969,662.11602 C 564.31846,663.2747 563.63865,664.41015 564.05622,665.19039 C 564.51977,666.05655 565.23257,666.30329 566.20775,665.9352 C 567.15551,665.57746 567.57783,665.88543 567.58622,666.94039 C 567.58851,667.22836 568.07944,668.47436 568.67719,669.7093 C 569.87425,672.18241 569.98356,672.9203 569.28248,673.79527 C 568.87978,674.29786 568.4268,674.40702 566.09601,674.56316 L 563.37899,674.74518 L 562.36861,673.70283 z M 564.56699,665.26209 C 564.22903,664.83115 564.23864,664.82154 564.66957,665.15951 C 564.93109,665.3646 565.14505,665.57857 565.14505,665.63498 C 565.14505,665.85861 564.92193,665.71468 564.56699,665.26209 z M 564.56699,656.5676 C 564.22903,656.13667 564.23864,656.12706 564.66957,656.46502 C 564.93109,656.67011 565.14505,656.88408 565.14505,656.9405 C 565.14505,657.16412 564.92193,657.02019 564.56699,656.5676 z"/>
<path title="Palamu" d="M 568.14523,659.23277 C 567.83229,658.7933 567.31151,658.34971 566.98794,658.24701 C 566.66436,658.14431 566.02563,657.70971 565.56855,657.28123 C 565.11147,656.85276 564.66063,656.50162 564.56669,656.50093 C 564.47274,656.50024 564.24097,656.1257 564.05164,655.66862 C 563.78596,655.02722 563.77635,654.51568 564.00954,653.42707 C 564.17571,652.6513 564.36848,651.71092 564.43792,651.33733 C 564.50736,650.96373 564.70543,650.10787 564.87808,649.43541 C 565.18203,648.25154 565.0961,644.60471 564.72027,642.73805 C 564.56031,641.94357 564.61883,641.85669 565.53756,641.52447 C 566.18585,641.29005 566.90092,640.67156 567.61096,639.73112 C 568.20707,638.94158 568.86536,638.29559 569.07382,638.29559 C 569.69145,638.29559 570.57911,639.65947 570.57911,640.60844 C 570.57911,641.99174 571.02353,642.1581 573.03824,641.52894 L 574.7905,640.98174 L 576.33357,641.71721 C 577.47815,642.26275 577.92029,642.6351 578.04567,643.15909 C 578.13864,643.54761 578.769,644.67691 579.44647,645.66863 C 580.3349,646.96916 580.98417,647.60971 581.77582,647.9667 C 582.49824,648.29247 582.9638,648.72094 583.13785,649.22023 C 583.30231,649.69199 583.59771,649.97881 583.91912,649.97881 C 584.32695,649.97881 584.43595,650.17597 584.43595,650.91374 C 584.43595,651.42794 584.31368,651.92422 584.16424,652.01658 C 584.01481,652.10894 583.89045,652.51352 583.8879,652.91565 C 583.88397,653.53658 583.66894,653.7392 582.46146,654.25977 C 581.67948,654.5969 580.66382,654.872 580.20445,654.8711 C 579.51506,654.86974 579.27558,655.04737 578.83288,655.88835 C 578.32348,656.85602 578.20895,656.9181 576.55411,657.12351 C 574.9287,657.32527 574.78027,657.29812 574.34352,656.71911 L 573.87534,656.09843 L 573.59247,656.84246 C 573.37724,657.40853 573.12926,657.58549 572.55568,657.58233 C 572.14103,657.58004 571.62247,657.46477 571.40333,657.32617 C 570.90542,657.01125 570.30741,657.461 570.30741,658.15038 C 570.30741,659.00239 569.69902,660.03181 569.19548,660.03181 C 568.93077,660.03181 568.45816,659.67224 568.14523,659.23277 z"/>
<path title="Chatra" d="M 601.55322,671.98673 C 601.16904,671.68622 600.4458,671.45278 599.88834,671.44937 C 599.34626,671.44605 598.7823,671.29049 598.6351,671.1037 C 598.13725,670.47192 598.02777,667.97483 598.43855,666.62107 C 598.94384,664.95587 598.9408,663.5625 598.43029,662.83365 C 598.20705,662.51492 597.42649,661.81525 596.69574,661.27883 C 595.54292,660.43257 595.16485,660.30351 593.83856,660.30351 C 592.64623,660.30351 592.20766,660.18398 591.84473,659.76011 C 591.30143,659.12558 590.55013,659.08014 589.5983,659.62426 C 589.22471,659.83782 588.52991,660.01689 588.05432,660.02218 C 587.07132,660.03313 587.00055,659.89472 586.73931,657.45064 C 586.49168,655.13392 586.417,654.96269 585.37288,654.31738 C 584.65822,653.87571 584.43595,653.55402 584.43595,652.96142 C 584.43595,652.53412 584.55821,652.10894 584.70765,652.01658 C 585.37314,651.60528 584.90262,649.70711 584.13517,649.70711 C 583.85229,649.70711 583.62084,649.65597 583.62084,649.59348 C 583.62084,649.53098 583.54601,649.28486 583.45456,649.04655 C 583.33533,648.73582 583.5224,648.53163 584.11589,648.32474 C 584.57108,648.16606 585.13716,647.74066 585.37386,647.37941 C 585.61056,647.01815 586.44393,646.39885 587.22579,646.00318 C 588.00763,645.60751 589.16998,644.82433 589.80876,644.2628 C 592.13543,642.21748 594.22707,641.85677 594.44412,643.46341 C 594.49419,643.834 594.84009,644.45965 595.21279,644.85375 C 595.58549,645.24785 596.0528,646.04259 596.25124,646.61982 C 596.44969,647.19705 596.74568,647.65711 596.90901,647.64217 C 597.07234,647.62723 597.43369,647.59666 597.71202,647.57424 C 597.99035,647.55183 598.68525,647.16222 599.25625,646.70844 C 599.87618,646.21578 600.46589,645.94991 600.72005,646.04848 C 600.95413,646.13927 601.74356,646.28507 602.47432,646.37247 L 603.80297,646.53139 L 603.63149,649.14806 L 603.46001,651.76475 L 606.04898,652.7737 C 607.47292,653.32862 608.76763,653.78265 608.9261,653.78265 C 609.26556,653.78265 608.99602,656.65061 608.51753,658.12989 C 608.2375,658.99567 608.10042,659.09302 606.98727,659.2167 C 605.76923,659.35204 605.76429,659.35689 605.68145,660.49932 C 605.63571,661.13005 605.72216,662.53611 605.87356,663.6239 C 606.06893,665.02763 606.0635,665.63129 605.85483,665.70361 C 605.69313,665.75964 605.31462,666.05171 605.01369,666.35263 C 604.52359,666.84274 604.48313,667.13468 604.62559,669.15328 L 604.78461,671.40678 L 603.83264,671.96846 C 602.66461,672.65762 602.41347,672.65963 601.55322,671.98673 z"/>
<path title="Hazaribagh" d="M 607.25897,673.35574 C 607.25897,673.21208 606.76991,672.61034 606.17216,672.01854 L 605.08535,670.94254 L 605.08535,668.74179 C 605.08535,666.63191 605.11471,666.52765 605.79619,666.21715 C 606.49332,665.89952 606.50285,665.85903 606.29045,664.11728 C 606.17132,663.14047 606.06542,661.79109 606.05509,661.11862 L 606.03631,659.89596 L 607.12312,659.76011 C 608.0527,659.64391 608.28172,659.47736 608.7061,658.60892 C 608.97899,658.05048 609.27004,656.69742 609.35288,655.60212 L 609.50349,653.61067 L 607.09064,652.74227 C 603.67265,651.51213 603.87087,651.74646 603.96419,649.04627 C 604.03673,646.94735 604.13716,646.56621 605.0013,645.11032 C 605.89421,643.60596 606.0514,643.47666 607.35571,643.17389 C 608.12441,642.99545 609.40508,642.48269 610.20166,642.03443 C 610.99824,641.58616 611.73858,641.32571 611.84687,641.45564 C 612.88727,642.70398 613.50814,643.82059 613.50814,644.44335 C 613.50814,644.85583 613.80115,646.17835 614.15927,647.38228 C 614.5174,648.58622 614.92205,649.99919 615.05851,650.52222 C 615.29503,651.42876 615.35662,651.46907 616.37722,651.38533 C 616.96606,651.33702 617.63123,651.13887 617.85538,650.94502 C 618.07954,650.75116 618.88236,650.51437 619.63944,650.4188 C 620.87861,650.26238 621.08066,650.31393 621.66451,650.9354 C 622.23717,651.54498 622.45445,651.60456 623.52125,651.44458 L 624.72944,651.26341 L 624.07736,652.42478 C 623.60704,653.26244 623.16022,653.67034 622.47433,653.88818 C 621.60742,654.16351 621.51601,654.29175 621.4401,655.33911 C 621.34319,656.67641 621.65681,657.04529 624.27089,658.66859 C 626.1637,659.84401 626.48601,660.58818 625.82153,662.24887 C 625.52322,662.99444 625.21244,663.30411 624.63535,663.43086 C 623.98317,663.5741 623.69235,663.44158 622.8831,662.63232 C 621.82963,661.57884 621.05596,661.43112 619.45821,661.97836 C 617.75075,662.56318 615.73976,664.66632 615.3267,666.29917 C 615.21051,666.75846 614.74161,667.15094 613.7904,667.58505 C 612.40861,668.21568 612.15075,668.61874 612.74737,669.21536 C 613.25266,669.72066 613.62041,669.59973 613.20178,669.06593 C 612.86533,668.63692 612.87451,668.62619 613.29567,668.95613 C 613.55241,669.15727 613.73918,669.4018 613.71073,669.49954 C 613.68227,669.59729 613.8857,670.01662 614.16278,670.4314 C 614.61318,671.10562 614.62334,671.2352 614.25866,671.65406 C 614.03431,671.91175 613.79559,672.30132 613.72818,672.51979 C 613.50643,673.23834 607.25897,674.04564 607.25897,673.35574 z"/>
<path title="Kodarma" d="M 615.19298,649.66357 C 615.03925,648.86561 614.72491,647.72368 614.49443,647.12593 C 614.26396,646.52819 614.07003,645.51232 614.06347,644.86845 C 614.05437,643.97472 613.85059,643.44773 613.20206,642.64072 C 612.73486,642.05934 612.41942,641.40948 612.50111,641.1966 C 612.64249,640.8282 612.99243,640.72994 615.57068,640.33472 C 616.47303,640.1964 616.98944,639.84662 618.31427,638.47635 C 619.21697,637.54269 620.09465,636.33878 620.2783,635.78231 C 620.86878,633.99314 623.8093,631.89372 625.22359,632.25157 C 625.46546,632.31277 626.2267,632.93477 626.91521,633.6338 L 628.16705,634.90475 L 626.1358,637.18008 C 624.29625,639.24067 624.10545,639.56095 624.11417,640.57365 C 624.11946,641.18868 624.29853,641.99754 624.5121,642.37114 C 624.96423,643.16205 625.07306,647.4066 624.64795,647.66934 C 624.18343,647.95643 624.34926,649.13672 624.93663,649.72409 C 625.75688,650.54433 625.49052,650.83658 623.80757,650.96292 C 622.47786,651.06273 622.2334,650.99755 621.6639,650.39135 C 620.98992,649.67393 620.18881,649.50042 619.87734,650.0044 C 619.77629,650.1679 619.3717,650.23928 618.97827,650.16301 C 618.57759,650.08533 618.08367,650.18347 617.85538,650.38613 C 617.63123,650.58513 617.00337,650.83039 616.46015,650.93116 L 615.47248,651.11439 L 615.19298,649.66357 z M 626.00646,637.88804 C 626.66644,637.21558 627.26755,636.66538 627.34227,636.66538 C 627.41698,636.66538 626.93814,637.21558 626.27816,637.88804 C 625.61819,638.56051 625.01708,639.1107 624.94236,639.1107 C 624.86765,639.1107 625.34649,638.56051 626.00646,637.88804 z M 627.36498,636.32436 C 627.36498,636.24964 627.54837,636.0363 627.77253,635.85027 C 627.99668,635.66424 628.18008,635.57316 628.18008,635.64788 C 628.18008,635.7226 627.99668,635.93594 627.77253,636.12197 C 627.54837,636.30801 627.36498,636.39908 627.36498,636.32436 L 627.36498,636.32436 z"/>
<path title="Giridih" d="M 629.69944,661.79788 C 629.32592,661.22782 629.04243,661.11862 627.93608,661.11862 C 626.68547,661.11862 626.60933,661.07632 626.45296,660.29448 C 626.31997,659.62952 625.86736,659.20252 624.10953,658.08366 L 621.93092,656.69698 L 621.93092,655.51152 C 621.93092,654.45185 621.99798,654.32605 622.56282,654.32605 C 623.26455,654.32605 624.21545,653.42787 624.49693,652.49915 C 624.59766,652.16681 624.98839,651.65238 625.36524,651.35595 C 626.09399,650.78272 626.07571,650.05661 625.31668,649.42667 C 624.86439,649.0513 624.78379,647.92123 625.19135,647.66934 C 625.62519,647.40121 625.51878,643.43535 625.05383,642.54385 C 624.8306,642.11582 624.64795,641.23432 624.64795,640.58496 C 624.64795,639.55779 624.78814,639.2746 625.72641,638.40648 C 626.31956,637.85767 627.25257,636.75861 627.79977,635.96411 C 628.69865,634.65897 628.87059,634.53476 629.58155,634.67695 C 630.11623,634.78389 630.532,634.68633 630.87867,634.37259 C 631.32989,633.96425 631.57939,633.94833 633.03607,634.23491 L 634.68326,634.55897 L 634.76002,637.41724 C 634.82283,639.75535 634.92072,640.32831 635.29794,640.5657 C 635.93633,640.96744 637.21046,640.48802 637.55033,639.7182 C 637.76751,639.22629 638.03891,639.1107 638.97677,639.1107 L 640.135,639.1107 L 640.135,640.62293 C 640.135,641.45466 640.00299,642.38182 639.84165,642.6833 C 639.44715,643.42042 640.04649,644.06318 641.98211,644.97888 C 642.99326,645.45723 643.72245,645.63409 644.24918,645.52875 C 644.99649,645.37928 645.02565,645.413 645.02565,646.42649 C 645.02565,647.00566 645.33012,648.13357 645.70225,648.93295 C 646.21469,650.03371 646.3795,650.83835 646.38151,652.24918 C 646.38388,653.91094 646.45748,654.16967 647.06342,654.6463 C 647.89957,655.30402 647.92423,656.00443 647.14818,657.05408 C 646.68148,657.68532 646.34402,657.85819 645.57842,657.85819 C 645.04203,657.85819 644.34481,657.67723 644.02904,657.45606 C 643.51073,657.09302 643.38601,657.10814 642.74592,657.61163 C 642.35596,657.91837 642.03286,658.37443 642.0279,658.62509 C 642.02293,658.87576 641.68288,659.56684 641.27223,660.16083 L 640.52559,661.2408 L 638.3596,661.15873 C 636.33137,661.08188 636.15177,661.12119 635.53577,661.7769 C 634.92646,662.42548 634.70332,662.47714 632.51122,662.47714 C 630.28655,662.47714 630.11779,662.43637 629.69943,661.79788 L 629.69944,661.79788 z"/>
<path title="Deoghar" d="M 654.10902,655.2983 C 653.09427,654.15645 652.89947,654.05435 651.73552,654.05435 C 651.03811,654.05435 649.92141,654.20041 649.25395,654.37893 C 648.27214,654.64152 647.90821,654.63276 647.34813,654.33302 C 646.70734,653.99007 646.65543,653.81949 646.6499,652.0386 C 646.64579,650.71259 646.47691,649.74657 646.1065,648.93026 C 645.81091,648.27883 645.56906,647.17423 645.56906,646.47559 C 645.56906,645.35723 645.66487,645.14873 646.37021,644.73207 C 647.07038,644.31846 647.18169,644.08113 647.25325,642.8491 C 647.33089,641.51219 647.40529,641.38571 648.69364,640.40004 C 649.68875,639.63871 650.23685,639.39508 650.7426,639.48926 C 651.12234,639.55997 651.96099,639.38146 652.60626,639.09256 C 653.25153,638.80367 653.9801,638.57163 654.22529,638.57693 C 655.09842,638.59579 655.95977,639.3145 656.68515,640.62946 C 657.13863,641.45151 657.57121,641.9248 657.81217,641.86253 C 658.02725,641.80696 658.4172,641.701 658.67871,641.62707 C 659.0823,641.51297 659.15419,641.68231 659.15419,642.747 C 659.15419,643.89253 659.2112,644.00135 659.81123,644.00135 C 660.95964,644.00135 661.32781,644.28463 661.32781,645.16825 C 661.32781,645.7475 661.70099,646.4803 662.53945,647.54753 C 664.3508,649.85307 664.50526,650.30915 663.80695,651.28984 C 663.48948,651.73568 663.22973,652.23443 663.22973,652.39815 C 663.22973,652.56188 662.87601,652.69584 662.44369,652.69584 C 661.51822,652.69584 661.32781,653.06453 661.32781,654.85654 L 661.32781,656.15768 L 659.62967,656.13871 C 658.69569,656.12828 657.3202,656.21481 656.57302,656.331 L 655.2145,656.54226 L 654.10902,655.2983 z"/>
<path title="Dumka" d="M 674.7771,657.84865 C 674.17935,657.72168 673.19132,657.61076 672.58146,657.60215 C 671.69759,657.58967 671.40175,657.45404 671.12325,656.93365 C 670.88973,656.4973 670.3564,656.17098 669.51505,655.94966 C 668.8227,655.76753 667.74379,655.38142 667.11748,655.09164 C 666.17164,654.65402 665.96451,654.41796 665.89482,653.69822 C 665.81522,652.87626 665.75851,652.83579 664.79202,652.91138 C 663.94274,652.9778 663.77314,652.90475 663.77314,652.47254 C 663.77314,652.18735 664.01852,651.64206 664.31844,651.26078 C 665.02018,650.36866 664.78629,649.71377 662.95978,647.45641 C 661.96938,646.2324 661.59952,645.54201 661.59952,644.91739 C 661.59952,644.05162 661.23471,643.72965 660.25378,643.72965 C 659.55423,643.72965 659.21039,641.15768 659.81991,640.48418 C 660.05963,640.2193 660.241,639.52704 660.241,638.877 C 660.241,637.47639 660.80337,637.14832 661.72311,638.01238 C 662.08193,638.34947 662.64215,638.58412 662.99988,638.54714 C 663.98242,638.4456 665.7586,638.86218 666.27874,639.31616 C 666.6057,639.60153 667.28782,639.71275 668.54405,639.68551 C 671.09648,639.63017 672.2957,640.04804 672.836,641.18106 C 673.22076,641.98788 673.39823,642.09827 674.29722,642.08989 C 674.86003,642.08464 676.07698,641.918 677.00155,641.71958 C 679.0025,641.29017 679.26019,641.44856 679.26019,643.10783 C 679.26019,644.37347 681.29168,649.81696 682.25125,651.12255 C 682.95631,652.08186 682.94329,652.88301 682.21889,653.11293 C 681.90349,653.21302 681.17607,653.71898 680.60239,654.23727 C 679.77587,654.98398 679.37318,655.16151 678.66259,655.09245 L 677.76583,655.00531 L 677.62998,656.49968 C 677.49935,657.93661 677.4628,657.99568 676.67902,658.03677 C 676.23071,658.06027 675.37484,657.97562 674.7771,657.84865 L 674.7771,657.84865 z"/>
<path title="Godda" d="M 672.89072,640.22265 C 672.56573,639.69681 669.75891,639.0391 668.46436,639.18542 C 667.6379,639.27884 666.92369,639.19997 666.49017,638.96742 C 666.11657,638.76701 665.48994,638.53537 665.09765,638.45266 L 664.38439,638.30227 L 664.51621,635.78568 C 664.59252,634.32865 664.80703,633.01573 665.02569,632.66732 C 665.23341,632.33634 665.40336,631.43618 665.40336,630.66695 C 665.40336,628.62044 667.46238,624.30854 669.00625,623.12197 C 669.61941,622.65071 670.26292,622.26513 670.43627,622.26513 C 670.60961,622.26513 671.20701,621.24274 671.76381,619.99315 C 672.69613,617.9008 672.85776,617.69672 673.80816,617.41198 C 675.32654,616.95706 675.72806,617.01621 675.72806,617.69482 C 675.72806,618.30751 676.14939,619.79293 676.61198,620.81114 C 676.75784,621.13222 676.80588,621.92695 676.71871,622.57721 C 676.18831,626.53376 676.14286,630.48936 676.61904,631.25185 C 676.92038,631.73436 676.84798,632.01116 675.96806,633.74089 C 675.83607,634.00038 675.72585,635.22304 675.72316,636.45791 L 675.71826,638.70315 L 674.65463,639.58618 C 673.55406,640.49988 673.15176,640.64503 672.89071,640.22264 L 672.89072,640.22265 z"/>
<path title="Sahibganj" d="M 685.50936,634.3148 C 685.13576,634.05355 684.67033,633.61969 684.47507,633.35067 C 684.27195,633.07084 683.77784,632.86154 683.32033,632.86154 C 682.88049,632.86154 682.52063,632.76608 682.52063,632.64941 C 682.52063,632.23327 679.51328,631.2623 677.76583,631.11423 C 676.96543,631.04641 676.94651,631.0095 676.71762,629.06911 C 676.56681,627.79058 676.58326,626.87634 676.76425,626.47912 C 676.91811,626.14146 676.97845,625.3767 676.89837,624.77965 C 676.8102,624.12221 676.87217,623.62031 677.05552,623.50699 C 677.65416,623.13701 677.36389,621.14207 676.36708,618.77569 C 676.01498,617.93982 676.03691,617.75573 676.64209,616.46622 C 677.00378,615.69555 677.56831,614.48425 677.89663,613.77443 C 678.22495,613.0646 678.63186,612.48384 678.80089,612.48384 C 678.96992,612.48384 680.13514,613.1136 681.39027,613.8833 C 682.64541,614.65301 684.05509,615.36114 684.52292,615.45693 C 685.24485,615.60475 685.37499,615.7543 685.38331,616.44576 C 685.3887,616.89382 685.78606,617.9567 686.26634,618.8077 C 686.87607,619.88807 687.13957,620.70926 687.13957,621.52901 C 687.13957,623.38565 688.15641,626.05409 689.06194,626.57379 C 689.81627,627.00672 689.82599,627.04607 689.90874,630.00457 C 690.00137,633.31613 689.73584,634.01528 688.27298,634.31173 C 687.87375,634.39263 687.24146,634.5333 686.86787,634.62431 C 686.43393,634.73003 685.9433,634.61825 685.50936,634.3148 z"/>
<path title="Pakur" d="M 680.78308,646.98821 C 680.23716,645.62426 679.8036,644.06642 679.8036,643.46886 C 679.8036,641.27341 679.08422,640.66466 677.19504,641.26147 C 676.76179,641.39835 675.82655,641.5794 675.11673,641.66383 C 673.97544,641.79958 673.82614,641.75752 673.82614,641.3003 C 673.82614,641.01593 674.3152,640.36464 674.91295,639.85299 L 675.99976,638.92272 L 676.00303,636.77517 C 676.00575,634.98895 676.12004,634.42865 676.68229,633.44514 C 677.05409,632.79478 677.35827,632.09175 677.35827,631.88285 C 677.35827,631.44118 677.9304,631.39974 679.10505,631.75632 C 679.56397,631.89563 680.45908,632.15973 681.09419,632.34321 C 681.72929,632.5267 682.24892,632.77951 682.24892,632.90503 C 682.24892,633.03055 682.58516,633.13454 682.99611,633.13614 C 683.4941,633.13807 684.05962,633.46453 684.69181,634.11505 C 685.54669,634.9947 685.74788,635.07661 686.72958,634.9446 C 687.32867,634.86404 688.09393,634.71493 688.43016,634.61325 C 688.98475,634.44554 689.04149,634.5187 689.04149,635.40147 C 689.04149,636.09336 688.88596,636.4578 688.50327,636.6626 C 687.55454,637.17035 686.59631,638.8743 686.59449,640.05681 C 686.59357,640.65723 686.41154,641.49604 686.18998,641.92084 C 685.60342,643.04548 684.96595,645.32799 684.96595,646.30357 C 684.96595,646.94004 684.67837,647.43088 683.80093,648.29202 C 683.16017,648.92089 682.4394,649.43541 682.19923,649.43541 C 681.90295,649.43541 681.44764,648.64862 680.78307,646.98821 L 680.78308,646.98821 z"/>
<path title="Dhanbad" d="M 643.54669,671.65457 C 643.31407,671.32245 643.12373,670.62611 643.12373,670.10715 C 643.12373,668.32552 641.25452,667.10542 639.85961,667.97655 C 639.43003,668.24483 639.20976,668.24483 638.78018,667.97655 C 638.48334,667.79117 638.00195,667.63949 637.71045,667.63949 C 637.26103,667.63949 637.20289,667.50115 637.32808,666.72965 C 637.4592,665.92172 637.33554,665.6816 636.22419,664.58597 C 635.53585,663.90737 634.97265,663.23927 634.97265,663.10132 C 634.97265,662.96338 635.33472,662.50362 635.77724,662.07966 C 636.55495,661.33457 636.64907,661.31449 638.59392,661.47889 C 640.9112,661.67478 641.01995,661.60696 642.28972,659.17399 C 642.85971,658.08187 643.17457,657.74625 643.56102,657.81888 C 643.84354,657.87199 644.6599,657.97578 645.37515,658.04955 C 646.44781,658.16017 646.80477,658.34554 647.41292,659.10773 C 648.07011,659.93137 648.29411,660.0318 649.47416,660.0318 C 650.74306,660.03181 650.86727,660.1032 652.46289,661.74936 C 654.50504,663.85622 655.64526,664.69177 657.31739,665.30675 C 658.02566,665.56724 658.65798,665.86582 658.72253,665.97026 C 658.9159,666.28313 657.91618,668.95791 657.38755,669.54204 C 657.09097,669.86977 656.55095,670.08481 656.02459,670.08481 C 655.54511,670.08481 654.49424,670.21064 653.6893,670.36443 C 652.88436,670.51822 651.02425,670.76825 649.55573,670.92005 C 648.0872,671.07186 646.27925,671.4351 645.53805,671.72725 C 643.89305,672.37565 644.05592,672.3816 643.54669,671.65457 L 643.54669,671.65457 z"/>
<path title="Jamtara" d="M 656.98057,664.77469 C 655.93046,664.33165 654.77361,663.45217 653.0892,661.81631 C 650.84223,659.63412 650.61986,659.48841 649.5365,659.48841 C 648.67977,659.48841 648.22798,659.32573 647.79004,658.85956 C 647.07841,658.10208 647.04836,657.66018 647.66234,656.98175 C 647.91703,656.70032 648.13099,656.14168 648.13782,655.74033 C 648.15232,654.88825 648.76798,654.68159 651.44586,654.6299 C 653.10379,654.5979 653.11578,654.60326 654.11315,655.82042 C 655.16577,657.10499 655.91753,657.3403 657.04357,656.73766 C 657.35744,656.56968 658.51093,656.44268 659.60688,656.45545 L 661.59952,656.47865 L 661.59952,655.15287 C 661.59952,654.42369 661.67373,653.63369 661.76444,653.39732 C 661.95154,652.90973 663.10307,652.81449 663.38066,653.26365 C 663.48885,653.43869 663.92539,653.49189 664.4484,653.39377 C 665.26473,653.24063 665.34575,653.29087 665.49629,654.04357 C 665.66673,654.89572 666.4166,655.34814 669.18942,656.27173 C 670.8051,656.80989 671.0936,657.31093 670.3397,658.26936 C 670.01569,658.68127 669.7506,659.32055 669.7506,659.68998 C 669.7506,660.67175 668.28747,663.57481 667.33113,664.49055 L 666.50532,665.28131 L 664.45225,664.83019 C 661.76712,664.24017 660.73601,664.26105 659.89516,664.92246 C 659.05628,665.58233 658.87279,665.57302 656.98057,664.77469 L 656.98057,664.77469 z"/>
<path title="Bokaro" d="M 640.27085,679.0386 C 637.92338,678.64347 636.47659,677.61247 635.71297,675.79057 C 635.49375,675.26754 634.99655,674.54656 634.60808,674.1884 C 634.0217,673.64777 633.83121,673.59575 633.48625,673.88204 C 633.25772,674.07171 633.07073,674.56421 633.07073,674.97648 C 633.07073,675.51101 632.80324,675.9301 632.13834,676.43724 C 630.93271,677.35682 630.30048,677.58433 628.31296,677.81386 L 626.67977,678.00247 L 625.49369,675.91781 C 624.60049,674.34793 624.00101,673.63872 623.06607,673.04579 C 621.83218,672.26328 620.74181,672.03622 620.45404,672.50185 C 620.30407,672.74452 618.73597,672.4989 618.15913,672.14239 C 617.63326,671.81738 617.82835,670.74834 618.53464,670.08481 C 619.31751,669.34935 619.43611,667.92605 618.80634,666.82438 C 618.40025,666.114 618.26208,663.37081 618.60672,662.86127 C 618.84185,662.51364 620.43612,661.93373 621.15666,661.93373 C 621.4334,661.93373 622.14385,662.43248 622.73543,663.04207 C 623.78481,664.12339 623.834,664.14211 624.753,663.80979 C 625.42788,663.56575 625.82787,663.17445 626.16368,662.42975 C 626.59796,661.46667 626.71542,661.39033 627.7627,661.39033 C 628.70354,661.39033 628.99402,661.52696 629.49564,662.20543 C 630.08207,662.99863 630.15966,663.02054 632.3813,663.02054 C 634.41672,663.02054 634.68282,663.07879 634.83478,663.5576 C 634.92854,663.85298 635.43797,664.45134 635.96685,664.8873 C 636.88191,665.64156 637.13583,666.35274 636.85249,667.36779 C 636.77523,667.64456 636.97211,667.80231 637.46602,667.85939 C 637.86603,667.90562 638.3395,668.11959 638.51817,668.33487 C 638.93952,668.84256 639.70662,668.83491 640.135,668.31874 C 640.63814,667.7125 641.17235,667.81993 642.05782,668.7054 C 642.61995,669.26751 642.85203,669.76594 642.85203,670.41101 C 642.85203,670.91229 643.04475,671.59757 643.28031,671.93387 C 643.67828,672.50206 643.66894,672.57843 643.14826,673.01321 C 642.62622,673.44913 642.60695,673.61103 642.86626,675.38302 C 643.01933,676.42907 643.07698,677.55781 642.99436,677.89132 C 642.77952,678.75864 641.58848,679.26037 640.27085,679.03859 L 640.27085,679.0386 z"/>
<path title="Ramgarh" d="M 620.16485,678.67882 C 618.47249,678.13683 617.95693,677.7785 617.58798,676.88776 L 617.24606,676.06227 L 614.3582,676.0404 C 610.81602,676.01359 609.05844,675.61668 608.94426,674.8178 C 608.86144,674.23832 609.45396,674.03138 612.73894,673.49243 C 613.50638,673.36651 613.86595,673.10833 614.30123,672.37057 C 615.0488,671.10353 615.01952,670.82124 614.02275,669.68598 C 613.06481,668.59495 613.13121,668.01194 614.24369,667.74597 C 615.24125,667.50748 615.68176,667.13923 615.68176,666.54379 C 615.68176,665.7989 617.0773,663.83565 617.60679,663.83565 C 617.97333,663.83565 618.11026,664.14964 618.22882,665.26209 C 618.31243,666.04663 618.45903,667.27813 618.55459,667.99875 C 618.70236,669.11316 618.6399,669.40309 618.13657,669.93886 C 617.71624,670.38629 617.57012,670.83317 617.63217,671.48152 C 617.70878,672.28199 617.85969,672.44274 618.85877,672.78812 C 619.82454,673.12199 620.10289,673.12582 620.68686,672.81329 C 621.3119,672.47878 621.4938,672.51781 622.65038,673.23457 C 623.62312,673.83739 624.22966,674.53938 625.211,676.19812 L 626.49695,678.37174 L 624.96111,678.534 C 624.11641,678.62324 622.93622,678.77064 622.33848,678.86156 C 621.72082,678.95551 620.78251,678.87662 620.16485,678.67882 L 620.16485,678.67882 z"/>
<path title="Ranchi" d="M 623.83284,696.72392 C 623.30981,696.43688 622.07467,696.11929 621.08807,696.01816 C 619.44539,695.84977 619.25323,695.7625 618.80733,694.98239 C 618.53952,694.51384 618.07125,693.8544 617.76674,693.51695 L 617.21307,692.9034 L 617.80593,692.10151 C 618.66974,690.93315 618.5957,690.19081 617.61537,690.19081 C 617.03261,690.19081 616.78999,690.03423 616.66812,689.57948 C 616.34362,688.36863 616.50899,687.31038 617.17612,686.32861 C 617.54971,685.77881 617.85538,685.20024 617.85538,685.04288 C 617.85538,684.48518 616.49048,684.75996 615.90267,685.43602 C 615.19708,686.2475 614.75726,686.27973 613.51079,685.61123 C 612.67926,685.16528 612.4694,685.14963 611.68976,685.47538 C 611.20509,685.67788 610.50619,685.84357 610.13662,685.84357 C 609.76705,685.84357 609.39462,685.95692 609.309,686.09545 C 609.22337,686.23398 608.70461,686.49542 608.15618,686.67642 C 607.2117,686.98812 607.12735,686.96576 606.55899,686.25296 C 606.03932,685.60124 605.83127,685.52437 605.00604,685.67919 C 604.48195,685.7775 603.90362,686.03811 603.72087,686.25831 C 603.53394,686.48355 602.93312,686.65868 602.34727,686.65868 C 601.36463,686.65868 601.21268,686.78118 599.6513,688.8323 C 598.53792,690.29489 597.81584,691.00592 597.44388,691.00592 C 596.95513,691.00592 596.9172,690.90363 597.11646,690.12289 C 597.24042,689.63722 597.29199,688.50626 597.23108,687.60964 C 597.17017,686.71302 597.13805,684.75676 597.1597,683.26239 C 597.24636,677.28049 597.25086,677.34327 596.6804,676.57168 L 596.13604,675.83541 L 597.03402,674.11266 C 597.52789,673.16514 597.98259,672.24 598.04445,672.05678 C 598.21494,671.55189 600.97638,671.9533 601.59615,672.57307 C 602.23253,673.20945 602.25713,673.20736 603.80164,672.38515 C 605.05825,671.71621 605.11334,671.71045 605.75217,672.18138 C 606.11373,672.44792 606.61762,673.12086 606.8719,673.67682 C 607.12619,674.23278 607.53127,674.85778 607.77209,675.06573 C 608.73704,675.89894 610.84972,676.33397 613.93113,676.33397 L 616.97435,676.33397 L 617.31791,677.16341 C 618.00384,678.8194 620.40809,679.51991 623.80801,679.0544 C 625.04844,678.88456 626.12936,678.81163 626.21006,678.89232 C 626.29075,678.97301 626.23551,680.41723 626.08729,682.10168 C 625.80731,685.28353 625.80563,685.27421 626.93787,686.80385 C 627.1093,687.03545 626.95708,687.42134 626.46239,688.00925 C 625.59643,689.03839 625.49524,690.64416 626.15613,692.8696 C 626.38788,693.65 626.54071,694.92542 626.49576,695.70387 C 626.4174,697.06075 626.38034,697.12185 625.59891,697.18251 C 625.1506,697.2173 624.35587,697.01094 623.83284,696.72391 L 623.83284,696.72392 z"/>
<path title="Saraikela-Kharsawan" d="M 631.10089,710.7337 C 630.83937,710.53518 62541,710.1031 630.62541,709.77352 C 630.62541,709.0324 630.20745,708.19653 629.39265,707.30808 C 629.05002,706.93449 628.72873,706.32725 628.67866,705.95865 C 628.58625,705.27824 627.81735,704.74034 626.54987,704.46937 C 625.42126,704.2281 625.10548,703.87553 624.94099,702.6731 C 624.85454,702.04112 624.6004,701.4384 624.37625,701.33372 C 624.15209,701.22904 623.69525,701.00211 623.36105,700.82945 C 623.02685,700.65678 622.51443,700.51552 622.22235,700.51552 C 621.93027,700.51552 621.61572,700.39325 621.52337,700.24381 C 621.43101,700.09438 621.08244,699.97211 620.74876,699.97211 C 620.27269,699.97211 619.98368,699.62702 619.40628,698.36911 C 619.0016,697.48746 618.67049,696.62819 618.67049,696.45962 C 618.67049,695.94785 622.17941,696.43631 623.59669,697.14536 C 624.52048,697.60753 625.11626,697.73242 625.83824,697.61526 L 626.82157,697.45569 L 626.82157,695.63863 C 626.82157,694.63925 626.62561,693.1617 626.3861,692.35518 C 625.46964,689.26911 626.96881,686.50011 628.58764,688.28889 C 628.89059,688.62365 629.42447,688.8323 629.97808,688.8323 C 630.64937,688.8323 631.24024,689.1418 632.31337,690.05556 C 633.10352,690.72837 634.62827,691.98159 635.70172,692.84052 C 637.01699,693.89294 637.65936,694.59633 637.67156,694.9975 C 637.68152,695.32491 637.80794,695.66589 637.95248,695.75522 C 638.27893,695.95697 637.98325,697.56564 637.55197,697.93434 C 637.14383,698.28325 636.05946,700.18809 636.05946,700.55612 C 636.05946,700.71081 635.81592,701.14697 635.51826,701.52539 C 635.10689,702.04834 635.01568,702.45498 635.13806,703.22026 C 635.26572,704.0186 635.12902,704.54575 634.47799,705.76576 C 633.76914,707.09413 633.69241,707.43293 633.91662,708.24494 C 634.15974,709.12543 634.11066,709.24652 633.14805,710.14135 C 632.0112,711.19814 631.7951,711.26068 631.10089,710.7337 L 631.10089,710.7337 z"/>
<path title="Purbi Singhbhum" d="M 653.99184,719.53471 C 653.76769,719.38984 653.18054,719.26945 652.68708,719.26716 C 651.95237,719.26375 651.42994,718.92233 649.80261,717.38207 C 647.88393,715.56603 647.77717,715.50625 646.70862,715.64957 C 645.16208,715.857 644.46968,715.62441 642.9874,714.39952 C 641.76892,713.39264 640.37996,712.72778 638.72542,712.35943 C 638.24785,712.25311 637.78698,711.82657 637.39376,711.12693 C 636.85457,710.16756 636.42289,709.86264 634.93903,709.39301 C 634.69186,709.31478 634.41575,708.81568 634.31112,708.25799 C 634.16404,707.47396 634.27214,706.97999 634.82022,705.93182 C 635.28907,705.03517 635.51606,704.17 635.51606,703.27965 C 635.51606,702.30331 635.65796,701.82983 636.05946,701.46648 C 636.35834,701.196 636.60287,700.80538 636.60287,700.59843 C 636.60287,700.05679 637.65591,698.07019 637.94302,698.07019 C 638.33008,698.07019 638.6051,695.88821 638.26137,695.54447 C 637.68682,694.96993 637.9697,694.51509 639.25197,693.9516 C 640.42037,693.43814 640.73549,693.41168 642.58033,693.67204 C 646.56162,694.23392 647.35597,694.99964 646.0205,696.98824 C 645.31202,698.04321 644.7482,700.01678 644.76499,701.38301 C 644.78082,702.6713 646.0084,704.02096 647.36386,704.24036 C 648.22769,704.38018 648.75743,704.77069 650.24936,706.36748 C 651.73655,707.95921 652.27181,708.35453 653.12432,708.49085 C 654.75551,708.75169 655.19655,709.44679 655.30954,711.9349 L 655.40609,714.06102 L 656.9715,715.15909 C 658.2056,716.02476 658.56859,716.44586 658.68658,717.14875 C 658.7689,717.63912 658.92088,718.25431 659.02429,718.51582 C 659.1875,718.92852 659.03809,718.99257 657.89267,719.00093 C 657.16686,719.00622 656.26735,719.18529 655.89376,719.39885 C 655.09203,719.85716 654.55065,719.89583 653.99184,719.53471 z"/>
<path title="Paschimi Singhbhum" d="M 625.11052,727.27886 C 624.896,726.82901 624.6315,726.05581 624.52275,725.56064 C 624.26587,724.39109 623.81,724.24767 622.08142,724.79256 C 620.03142,725.43876 618.71443,725.36923 617.51063,724.55123 C 616.62091,723.94665 616.11257,723.84143 613.37202,723.69456 L 610.2477,723.52711 L 610.2477,724.22471 C 610.2477,724.77396 609.97326,725.07659 608.95712,725.64784 C 607.82277,726.28554 607.43628,726.36033 605.76461,726.26567 C 604.5883,726.19906 603.24074,725.90389 602.23247,725.49199 L 600.60226,724.82603 L 600.60226,722.44063 L 600.60226,720.05524 L 601.60609,719.18364 C 602.52706,718.38398 603.45514,716.71349 603.45514,715.85543 C 603.45514,715.66158 602.84381,714.83406 602.09662,714.01653 C 600.6942,712.48206 600.44109,711.82744 601.14566,711.55707 C 601.40634,711.45704 601.55322,711.03832 601.55322,710.39524 C 601.55322,709.77067 601.8757,708.81839 602.40449,707.88142 C 602.87268,707.05182 603.35563,706.0638 603.4777,705.68583 C 603.59976,705.30786 604.02153,704.14275 604.41495,703.09669 C 604.80836,702.05064 605.25837,700.73204 605.41494,700.16648 C 605.57152,699.60092 605.90375,699.02895 606.15323,698.89543 C 606.4027,698.76192 607.88452,698.61798 609.44615,698.57557 C 611.73796,698.51333 612.47887,698.59266 613.28837,698.98695 C 614.33292,699.49573 614.42505,699.4858 617.17612,698.56739 C 617.62443,698.41772 618.18895,698.23462 618.4306,698.16049 C 618.75004,698.06249 619.0096,698.36521 619.38156,699.26959 C 619.81007,700.31146 620.01189,700.51364 620.6243,700.5145 C 621.02643,700.51505 621.43616,700.64612 621.53481,700.80574 C 621.63347,700.96536 621.9029,701.02355 622.13355,700.93504 C 622.36419,700.84653 622.77206,700.97244 623.0399,701.21484 C 623.30775,701.45723 623.65709,701.57509 623.81623,701.47674 C 624.16859,701.25898 624.64795,702.43144 624.64795,703.51103 C 624.64795,704.20765 624.77992,704.33218 625.80268,704.60065 C 627.62888,705.08002 628.30775,705.5029 628.41101,706.22541 C 628.46331,706.59129 628.86067,707.29448 629.29405,707.78807 C 629.80993,708.37563 630.082,708.98362 630.082,709.54888 C 630.082,710.15772 630.29471,710.58186 630.8035,710.98756 L 631.52499,711.56286 L 630.92267,713.79514 C 630.23186,716.3553 630.38348,717.83077 631.58033,720.19484 L 632.2496,721.51684 L 631.38811,723.03903 C 630.9143,723.87622 630.08803,725.2948 629.55197,726.19142 L 628.57732,727.82164 L 627.03895,727.9592 C 625.54187,728.09308 625.49008,728.07481 625.11052,727.27886 L 625.11052,727.27886 z"/>
<path title="Simdega" d="M 577.09997,716.28819 C 575.32737,715.36883 574.56149,714.58552 574.13682,713.25757 C 573.7375,712.00886 573.04456,711.37297 570.85081,710.2421 C 569.6367,709.61623 569.05895,709.15311 569.00222,708.76029 C 568.92976,708.25849 569.1615,708.13106 570.90414,707.71436 C 573.19902,707.16562 574.25278,706.34467 575.52355,704.11558 C 575.9708,703.33104 576.4779,702.69295 576.65043,702.69762 C 576.82296,702.70229 577.45319,703.00732 578.05093,703.37548 C 579.45796,704.2421 579.98122,704.22065 581.53931,703.23254 C 582.88868,702.3768 583.47559,702.23432 583.75943,702.69357 C 583.85329,702.84545 584.04251,702.90023 584.17991,702.81531 C 584.31731,702.7304 584.36051,702.84129 584.27591,703.06174 C 584.14483,703.40331 584.85331,704.04765 585.35998,704.04765 C 585.43953,704.04765 586.12406,703.4975 586.88116,702.82509 L 588.25771,701.60253 L 589.21559,702.00275 C 589.74242,702.22287 590.48505,702.64807 590.86588,702.94763 C 591.39581,703.36449 591.67899,703.42769 592.07266,703.217 C 592.35556,703.0656 592.58703,702.82376 592.58703,702.67958 C 592.58703,702.5336 593.52583,702.41744 594.70551,702.41744 C 596.81906,702.41744 596.82646,702.41491 597.88523,701.33062 C 599.26245,699.92023 599.74517,699.93452 600.17976,701.39855 C 600.6856,703.10267 600.84,703.21081 602.51981,703.03743 C 603.33311,702.95349 603.99854,702.94511 603.99854,703.01879 C 603.99854,703.50721 602.6071,706.83173 602.00278,707.78719 C 601.59982,708.42429 601.19494,709.49411 601.10304,710.16458 C 601.01114,710.83506 600.8303,711.38362 600.70118,711.38362 C 600.57206,711.38362 600.46641,711.61038 600.46641,711.88752 C 600.46641,712.33261 600.15729,712.41049 597.81731,712.55484 C 596.3603,712.64472 594.49574,712.9093 593.67384,713.14278 C 592.85194,713.37627 590.95681,713.74447 589.46245,713.96103 C 587.46081,714.2511 585.85604,714.71477 583.36756,715.72207 C 581.50973,716.4741 579.67574,717.0835 579.29202,717.07631 C 578.90829,717.06913 577.92187,716.71447 577.09997,716.28819 L 577.09997,716.28819 z"/>
<path title="Gumla" d="M 578.39056,703.12603 C 577.63344,702.55129 577.81149,702.12903 579.55096,700.37395 L 581.18684,698.72339 L 580.97462,697.24205 L 580.76242,695.76072 L 578.59157,695.57648 C 575.80075,695.33963 574.10169,694.96221 573.82726,694.51819 C 573.70746,694.32434 573.5299,693.72988 573.43269,693.19717 C 573.17997,691.81229 572.63654,691.09939 571.56372,690.74532 C 571.04861,690.57532 570.56231,690.26725 570.48306,690.06071 C 570.4038,689.85417 570.41157,688.14836 570.50033,686.27002 L 570.6617,682.85484 L 571.41947,682.85484 C 571.83625,682.85484 572.24287,682.74867 572.32306,682.61892 C 572.40326,682.48916 573.23577,682.29653 574.17309,682.19084 C 575.96486,681.9888 576.82827,681.48138 576.82827,680.63038 C 576.82827,680.14579 579.29413,676.3463 580.45422,675.04339 C 581.19485,674.21157 581.57662,674.27352 582.23057,675.33163 C 582.72019,676.12386 582.76672,676.51198 582.62048,678.58419 C 582.43442,681.22058 582.56847,681.54808 584.09456,682.18572 C 584.60305,682.39818 585.24391,682.84961 585.51868,683.18891 C 585.95349,683.72582 586.26923,683.8058 587.95399,683.8058 C 589.32287,683.8058 589.95879,683.91753 590.12557,684.18733 C 590.31345,684.49125 590.85029,684.53251 592.76481,684.39015 C 594.08667,684.29187 595.48588,684.14003 595.87416,684.05276 C 596.57099,683.89611 596.58289,683.91984 596.79477,685.8877 C 597.08713,688.60308 597.06067,689.00673 596.51021,690.22741 C 596.04675,691.25518 596.04866,691.30428 596.57487,691.89334 C 598.16855,693.67735 598.44415,694.34158 599.07865,697.9278 L 599.31786,699.27978 L 597.93772,700.71276 L 596.55758,702.14573 L 594.53432,702.14573 C 592.92329,702.14573 592.43903,702.24261 592.15741,702.62121 C 591.86451,703.015 591.71932,703.03883 591.31235,702.75991 C 590.24095,702.0256 588.779,701.33062 588.30575,701.33062 C 588.03125,701.33062 587.3291,701.81969 586.74542,702.41744 C 586.16174,703.01518 585.48745,703.50425 585.24701,703.50425 C 585.00657,703.50425 584.53866,703.13745 584.20721,702.68914 C 583.87575,702.24083 583.4554,701.87455 583.27308,701.87519 C 583.09076,701.87584 582.39138,702.24211 581.71892,702.68914 C 580.4121,703.55786 579.1736,703.72043 578.39056,703.12602 L 578.39056,703.12603 z M 596.89961,691.61725 C 596.56165,691.18632 596.57126,691.17671 597.0022,691.51467 C 597.45479,691.86961 597.59872,692.09273 597.37509,692.09273 C 597.31867,692.09273 597.10471,691.87877 596.89961,691.61725 z"/>
<path title="Latehar" d="M 569.63607,681.6477 L 568.55719,680.71639 L 569.02675,679.40823 C 569.285,678.68872 569.53995,677.17543 569.5933,676.04534 C 569.64665,674.91527 569.82914,673.7312 569.99885,673.41411 C 570.45578,672.56033 570.40684,672.34359 569.21276,669.93316 C 568.58114,668.65812 568.04796,667.13105 567.95226,666.32295 C 567.86103,665.55268 567.6853,664.92246 567.56175,664.92246 C 567.4382,664.92246 566.90197,665.12997 566.37013,665.38358 C 565.43591,665.82909 565.38399,665.82556 564.8381,665.27967 C 564.04522,664.48678 564.35679,663.76732 566.04849,662.48473 C 566.82181,661.89843 567.61677,661.1544 567.81506,660.83134 C 568.09808,660.37023 568.34593,660.27802 568.96793,660.40242 C 569.67868,660.54457 569.81641,660.45084 570.30554,659.49206 C 570.60544,658.90421 570.85081,658.23497 570.85081,658.00487 C 570.85081,657.50594 570.82027,657.50939 571.90048,657.88596 C 572.37296,658.05066 572.97196,658.09621 573.23161,657.98717 C 573.49125,657.87814 574.59764,657.75251 575.69024,657.70801 C 577.95234,657.61587 578.89716,657.15291 579.32442,655.92726 C 579.54475,655.29524 579.71972,655.15991 580.14291,655.29422 C 580.46411,655.39617 581.33031,655.17374 582.29087,654.74267 C 584.05048,653.95301 584.57498,653.99578 585.59103,655.01183 C 586.13337,655.55418 586.28913,656.0513 586.42673,657.67918 C 586.51975,658.7796 586.67316,659.88138 586.76763,660.12758 C 586.98222,660.6868 588.38015,660.7087 589.3266,660.16766 C 590.26451,659.6315 590.88894,659.66728 591.69778,660.30351 C 592.20749,660.70445 592.80002,660.84692 593.95778,660.84692 C 595.37972,660.84692 595.65673,660.9495 596.90987,661.94005 C 598.22838,662.98227 598.29279,663.09385 598.29279,664.33606 C 598.29279,665.05265 598.10013,666.28766 597.86467,667.08055 C 597.55919,668.10923 597.52027,668.60587 597.72882,668.81442 C 598.32529,669.41088 598.0222,671.27249 596.994,673.32776 C 596.43812,674.43892 595.83812,675.39413 595.66067,675.45044 C 595.48321,675.50675 595.09145,675.30626 594.79009,675.0049 C 594.37782,674.59263 593.71776,674.41135 592.12401,674.2727 C 589.86949,674.07657 589.40907,673.86924 589.03331,672.88093 C 588.76818,672.1836 588.28006,672.11045 586.99432,672.57538 C 586.26348,672.83965 586.04581,672.8203 585.68444,672.45893 C 585.44608,672.22057 585.25106,671.89071 585.25106,671.72591 C 585.25106,670.58456 582.91001,671.81388 580.87377,674.0245 C 579.21858,675.82143 576.55657,679.73128 576.55657,680.3654 C 576.55657,681.19917 575.70748,681.68345 573.70369,681.99253 C 572.65763,682.15388 571.55724,682.35185 571.25837,682.43245 C 570.89054,682.53165 570.36636,682.27809 569.63608,681.6477 L 569.63607,681.6477 z"/>
<path title="Lohardaga" d="M 590.05424,683.64559 C 589.61551,683.15093 589.36463,683.10831 587.84765,683.27077 C 586.3492,683.43124 586.08943,683.38933 585.76149,682.93418 C 585.55547,682.64824 584.83671,682.11082 584.16424,681.73992 L 582.94158,681.06554 L 583.01931,678.52416 C 583.09061,676.19303 583.04036,675.89714 582.41196,674.94756 C 582.03518,674.37818 581.79735,673.72871 581.88347,673.50427 C 581.9696,673.27984 582.60238,672.76666 583.28966,672.36389 L 584.53926,671.63158 L 585.29276,672.53417 L 586.04628,673.43674 L 587.19012,672.92094 C 588.16609,672.48084 588.35351,672.46377 588.46714,672.80465 C 588.54038,673.02438 588.93772,673.54158 589.35011,673.95396 C 589.90566,674.50953 590.36926,674.70453 591.13969,674.70675 C 592.79778,674.71152 594.14552,675.0064 594.69172,675.48392 C 594.97009,675.72729 595.43572,676.05997 595.72644,676.22319 C 596.85682,676.85783 597.14096,678.47483 596.72464,681.90388 L 596.52672,683.5341 L 595.30406,683.74937 C 594.63159,683.86777 593.28666,684.01843 592.31533,684.08417 C 590.78713,684.1876 590.48258,684.12853 590.05425,683.64559 L 590.05424,683.64559 z"/>
<path title="Khunti" d="M 600.38359,700.58344 C 600.01464,699.42531 599.57011,697.74415 599.39575,696.84753 C 599.2214,695.95091 598.77964,694.63649 598.41406,693.92658 C 598.04849,693.21669 597.74938,692.49383 597.74938,692.32025 C 597.74938,692.14667 598.60754,690.86293 599.65641,689.46751 C 601.46022,687.0677 601.61831,686.92991 602.57721,686.92174 C 603.13479,686.91699 603.82832,686.73359 604.1184,686.51419 C 604.85258,685.95888 605.72692,686.01658 606.30802,686.65868 C 606.91741,687.33205 607.36881,687.33735 609.20464,686.69271 C 612.54213,685.52076 612.61574,685.5087 613.37873,686.00863 C 613.79804,686.28338 614.5861,686.46496 615.31155,686.45399 C 616.35268,686.43826 616.50754,686.50316 616.34405,686.88671 C 616.12726,687.3953 616.10812,687.67225 616.17673,689.30778 C 616.2241,690.43712 616.24608,690.46252 617.17612,690.46252 C 618.26171,690.46252 618.35722,690.76349 617.58368,691.74689 C 616.93067,692.57706 616.8902,693.26016 617.46574,693.73782 C 618.19606,694.34392 618.76923,695.66763 618.40013,695.89574 C 618.22325,696.00506 618.12002,696.44633 618.17073,696.87634 C 618.24907,697.54062 618.11993,697.72698 617.31198,698.11571 C 615.58903,698.94466 614.29534,699.07722 613.23643,698.53332 C 612.4182,698.11304 611.86835,698.06958 609.29675,698.22197 C 606.00713,698.41691 605.08535,698.76958 605.08535,699.83331 C 605.08535,701.0534 604.26587,702.35038 603.38345,702.52687 C 601.23748,702.95606 601.11399,702.87606 600.3836,700.58344 L 600.38359,700.58344 z"/>
</g>
<g class="label" text-anchor="middle" font-size="5" font-family="sans-serif"  fill="#444">
<text x="558" y="658">Garhwa</text>
<text x="573" y="651">Palamu</text>
<text x="596" y="656">Chatra</text>
<text x="614" y="662">Hazaribagh</text>
<text x="622" y="642">Kodarma</text>
<text x="635" y="650">Giridih</text>
<text x="655" y="647">Deoghar</text>
<text x="673" y="649">Dumka</text>
<text x="671" y="632">Godda</text>
<text x="682" y="625">Sahibganj</text>
<text x="682" y="639">Pakur</text>
<text x="645" y="666">Dhanbad</text>
<text x="659" y="658">Jamtara</text>
<text x="632" y="670">Bokaro</text>
<text x="618" y="675">Ramgarh</text>
<text x="612" y="683">Ranchi</text>
<text x="629" y="700">Saraikela-Kharsawan</text>
<text x="646" y="709">Purbi Singhbhum</text>
<text x="616" y="716">Paschimi Singhbhum</text>
<text x="588" y="707">Simdega</text>
<text x="585" y="692">Gumla</text>
<text x="580" y="667">Latehar</text>
<text x="589" y="678">Lohardaga</text>
<text x="609" y="693">Khunti</text>
</g>
</svg>

