<svg xmlns="http://www.w3.org/2000/svg" viewBox="231 840 157 244">
<g title="Karnataka" fill="#328707">
<path title="Bidar" d="M 350.56576,873.92897 C 350.14309,873.74734 348.60818,873.58658 347.15485,873.57173 C 344.81873,873.54785 344.18969,873.36656 341.72811,872.00774 C 339.11892,870.56743 336.8463,870.04981 336.38795,870.79145 C 336.27893,870.96783 334.15312,871.09751 331.6639,871.07963 C 327.73776,871.05143 327.12145,870.96115 327.01273,870.39832 C 326.9438,870.04148 327.24386,869.39306 327.67952,868.9574 C 328.16681,868.4701 328.47164,867.66586 328.47164,866.86747 C 328.47164,866.15367 328.731,865.3544 329.048,865.09132 C 329.36501,864.82823 329.62702,864.33155 329.63025,863.98759 C 329.64109,862.8357 330.28324,862.32286 332.15183,861.97377 C 333.29487,861.76022 334.42003,861.23178 335.08197,860.5976 C 335.99219,859.72556 336.15655,859.25863 336.15655,857.54472 C 336.15655,855.04017 336.81256,853.41872 337.66591,853.81409 C 337.99811,853.968 339.25207,854.16234 340.4525,854.24595 C 342.54218,854.39152 342.65991,854.35 343.21813,853.27052 C 343.53881,852.65041 344.01037,851.31222 344.26607,850.29675 C 344.72888,848.45877 347.18154,845.49479 348.23964,845.49479 C 349.16463,845.49479 350.33199,847.26683 350.64434,849.14512 C 350.92644,850.84162 351.0832,851.08024 351.9844,851.18512 C 352.5457,851.25043 353.7265,850.93578 354.60838,850.48588 C 355.49025,850.03598 356.31695,849.77303 356.44547,849.90155 C 356.9257,850.38178 356.98579,855.28999 356.53606,857.29961 C 356.13262,859.10234 356.15207,859.47554 356.67979,860.05866 C 357.49487,860.95931 357.46018,861.13939 356.27534,862.15855 C 355.47986,862.84278 355.18942,863.55189 354.93116,865.44036 C 354.48109,868.73132 353.10095,873.24898 352.36725,873.8329 C 351.68202,874.37826 351.61912,874.38161 350.56576,873.92897 z"/>
<path title="Gulbarga" d="M 316.15197,901.10213 C 315.07445,900.26176 315.02894,899.41759 316.01141,898.49461 C 317.00698,897.55933 317.24588,895.90204 316.4936,895.14975 C 316.14885,894.80501 316.14886,894.46657 316.4936,893.70996 C 316.74146,893.16594 316.94427,892.10144 316.94427,891.34438 C 316.94427,890.19705 316.64052,889.68506 315.11956,888.26868 C 313.95463,887.18385 313.0482,886.63394 312.61267,886.74784 C 311.49875,887.03913 309.29593,886.25105 308.13095,885.14443 C 307.53286,884.5763 306.75532,883.35149 306.4031,882.42263 L 305.7627,880.73379 L 307.69955,880.96318 C 309.36374,881.16028 309.6929,881.087 310.03776,880.44261 C 310.58349,879.4229 312.0327,879.49806 313.14547,880.60378 C 313.86143,881.31521 314.34679,881.47253 315.35974,881.32154 L 316.65706,881.12816 L 316.3925,878.96949 C 315.66991,873.07374 315.67059,873.1625 316.34311,872.41938 C 316.70137,872.0235 317.60151,871.58572 318.34341,871.44653 C 319.39128,871.24995 319.80876,870.91481 320.21406,869.94478 C 320.82169,868.49053 322.31516,867.6805 323.78664,868.00708 C 326.03913,868.50699 326.16616,868.59477 326.16616,869.65131 C 326.16616,870.2288 326.37365,870.90879 326.62726,871.1624 C 327.2669,871.80205 335.89689,871.79216 336.92419,871.1506 C 337.57195,870.74606 338.15513,870.91266 340.9592,872.30334 C 343.44519,873.53626 344.68427,873.92897 346.0885,873.92897 C 348.65673,873.92897 352.42471,874.72026 352.79427,875.33721 C 352.96327,875.61935 353.50191,875.85019 353.99125,875.85019 C 354.48057,875.85019 355.34595,876.21597 355.91429,876.66302 C 357.47694,877.8922 357.10931,878.93226 354.71924,880.04398 C 352.96086,880.86188 352.61344,881.22572 351.78404,883.11795 C 351.26663,884.29839 350.30535,885.77207 349.64786,886.39278 C 348.03081,887.91935 348.11477,888.90158 349.98031,890.28176 C 351.52564,891.42504 351.80592,892.2523 351.29417,894.15974 C 351.0815,894.95246 350.91355,894.97868 347.16878,894.80372 C 345.02175,894.70341 342.87542,894.43168 342.39915,894.19986 C 341.6749,893.84736 341.37387,893.92808 340.55946,894.69318 C 339.89599,895.31649 339.20803,895.57919 338.40041,895.51766 C 337.62066,895.45825 336.77916,895.75986 335.94096,896.39918 C 335.18917,896.9726 334.56907,897.21286 334.42839,896.98524 C 334.29727,896.77306 333.41837,896.59946 332.4753,896.59946 C 331.03603,896.59946 330.69283,896.74827 330.33849,897.52596 C 330.05004,898.15903 329.47459,898.53442 328.52156,898.71122 C 327.75443,898.85352 326.81406,899.25065 326.43185,899.59372 C 325.91703,900.05583 325.57321,900.11421 325.1052,899.819 C 324.63693,899.52363 323.59882,899.70179 321.09309,900.50758 C 317.3053,901.72568 316.99877,901.76256 316.15196,901.10213 L 316.15197,901.10213 z"/>
<path title="Yadgir"  d="M 311.8165,917.79878 C 310.49625,916.33991 311.14877,913.70646 312.996,913.03849 C 314.77907,912.39372 316.17577,909.62395 316.17577,906.73273 C 316.17577,905.62242 316.34868,904.60711 316.56002,904.47649 C 316.77135,904.34588 316.94427,903.8312 316.94427,903.33277 C 316.94427,902.52931 317.35979,902.28809 320.60781,901.20601 C 323.59795,900.20984 324.37782,900.07386 324.85058,900.46621 C 325.32461,900.85962 325.63341,900.79639 326.55091,900.11805 C 327.16752,899.66218 328.03622,899.28918 328.48134,899.28918 C 329.64234,899.28918 330.77711,898.59424 330.77711,897.88322 C 330.77711,897.37488 331.14663,897.30361 332.98652,897.45709 C 334.89121,897.61596 335.36296,897.51422 336.40697,896.71938 C 337.25642,896.07264 337.89792,895.86762 338.55554,896.03268 C 339.231,896.20221 339.81545,895.99672 340.64637,895.29755 C 341.46766,894.60649 341.91838,894.44583 342.21202,894.73947 C 342.43881,894.96626 344.54087,895.24266 346.88325,895.35369 L 351.14213,895.55555 L 351.14213,898.46075 C 351.14213,901.18759 351.06918,901.44121 349.95387,902.59192 C 348.95422,903.6233 348.83224,903.94239 349.18538,904.60224 C 349.85672,905.85665 349.67995,907.92809 348.80686,909.03805 C 347.7553,910.37491 346.86526,910.81868 344.06088,911.40446 C 342.17163,911.79907 341.61853,911.79844 341.15174,911.40114 C 340.83474,911.13132 339.77935,910.79615 338.80644,910.65632 C 337.83352,910.51648 336.66142,910.05171 336.20177,909.62347 C 335.74211,909.19523 334.90157,908.81299 334.3339,908.77403 C 333.46897,908.71467 333.26676,908.88993 333.08564,909.85593 C 332.86083,911.05503 332.36397,911.20067 330.49577,910.6151 C 329.79614,910.39581 329.56432,910.54022 329.23793,911.3987 C 328.88421,912.32907 328.68765,912.42678 327.54339,912.24109 C 326.78718,912.11838 325.95218,912.23401 325.53515,912.51921 C 325.14253,912.78769 324.3416,913.12397 323.75529,913.26648 C 323.16898,913.40899 321.92417,914.10962 320.98903,914.82343 C 320.05389,915.53723 318.37221,916.41966 317.25197,916.78436 C 316.13173,917.14906 314.94218,917.68461 314.60854,917.97446 C 313.765,918.70728 312.57068,918.63213 311.8165,917.79878 L 311.8165,917.79878 z"/>
<path title="Raichur" d="M 321.92822,943.04872 C 321.6174,942.60158 321.08993,941.86671 320.75607,941.41567 C 320.4222,940.96462 320.04801,940.31758 319.92454,939.97779 C 319.80106,939.63801 319.15055,939.2501 318.47897,939.11578 C 317.70553,938.9611 317.18398,938.58891 317.05627,938.10053 C 316.94536,937.67646 316.70189,937.3295 316.51521,937.3295 C 316.32852,937.3295 316.17577,936.89487 316.17577,936.36367 C 316.17577,935.83247 316.01984,935.0976 315.82927,934.73063 C 315.63869,934.36366 315.33609,933.37177 315.15684,932.52643 C 314.83716,931.01889 314.79599,930.9872 313.00805,930.87242 C 311.63723,930.78442 311.0805,930.5598 310.76304,929.96662 C 310.45776,929.39617 310.45711,929.06162 310.76074,928.75799 C 311.74516,927.77357 310.98533,924.28552 309.52288,923.07552 C 308.80859,922.48454 308.86143,922.39728 310.97696,920.67398 C 312.18437,919.69043 313.44538,918.88571 313.77921,918.88571 C 314.11302,918.88571 314.65914,918.64855 314.99278,918.35871 C 315.32643,918.06885 316.51597,917.53331 317.63621,917.16861 C 318.75646,916.8039 320.41916,915.93596 321.33112,915.23985 C 322.24307,914.54373 323.52914,913.8556 324.18904,913.71067 C 324.84894,913.56573 325.4875,913.28754 325.60806,913.09246 C 325.72863,912.89738 326.61135,912.73778 327.56967,912.73778 C 328.98342,912.73778 329.34962,912.59418 329.51115,911.97649 C 329.67792,911.33881 329.99755,911.22963 331.47963,911.30406 C 333.16724,911.38881 333.25906,911.33964 333.46644,910.24018 C 333.71512,908.92183 334.65786,908.8512 335.96443,910.05306 C 336.3871,910.44186 337.68392,910.99835 338.84627,911.28971 C 340.70428,911.75545 341.04288,911.9945 341.64872,913.26821 C 342.64604,915.36499 344.9277,916.29397 349.60515,916.50771 C 353.03579,916.66448 353.81071,916.92511 353.82597,917.92736 C 353.8292,918.13994 353.35634,918.53248 352.77517,918.79968 C 350.55502,919.8204 350.24149,920.27784 350.28441,922.43363 C 350.30659,923.54663 350.43851,925.45733 350.57761,926.67962 C 350.93129,929.7876 350.60758,930.08329 347.15786,929.80333 C 345.65085,929.68103 343.92527,929.42542 343.32324,929.2353 C 342.62717,929.01548 341.95619,929.03545 341.48028,929.29015 C 341.06868,929.51043 339.76926,929.84734 338.59268,930.03883 C 336.99262,930.29925 335.93289,930.78862 334.38797,931.98051 C 333.25196,932.85694 332.41604,933.72538 332.53037,933.91037 C 332.6447,934.09537 332.50209,934.15611 332.21345,934.04535 C 331.49337,933.76902 327.3189,938.20055 327.3189,939.24128 C 327.3189,940.35087 326.26258,942.37213 325.26013,943.1807 C 324.12611,944.0954 322.61419,944.0355 321.92822,943.04871 L 321.92822,943.04872 z"/>
<path title="Bellary" d="M 311.66089,975.11534 C 311.39672,975.00875 311.18058,974.50475 311.18058,973.99535 C 311.18058,973.35095 310.69543,972.71772 309.58595,971.91402 C 307.81115,970.62837 307.11308,970.51759 306.01588,971.34746 C 304.88782,972.20068 304.45708,972.04883 303.3774,970.41731 C 302.73713,969.4498 302.34662,968.26455 302.26967,967.05516 C 302.15863,965.31026 302.07715,965.17891 301.03175,965.0597 C 300.41626,964.98952 299.49392,965.15622 298.98209,965.43014 C 298.15108,965.87489 297.98041,965.83394 297.38723,965.04754 C 296.7916,964.2579 296.67097,964.22955 296.21981,964.77317 C 295.94307,965.10661 295.38064,965.37943 294.96995,965.37943 C 294.13243,965.37943 292.67212,966.0676 292.30033,966.63748 C 292.16593,966.84346 292.10191,967.86306 292.15804,968.90324 C 292.21417,969.94343 292.17072,970.70513 292.0615,970.59591 C 291.95229,970.48669 291.36908,970.74898 290.76549,971.17877 C 289.39281,972.15621 288.74184,971.80949 289.05066,970.26543 C 289.21508,969.44327 289.0869,968.87847 288.61834,968.36072 C 287.69091,967.33593 287.8773,961.94003 288.85134,961.61535 C 289.10193,961.53181 289.80105,961.04773 290.40492,960.53961 C 291.0088,960.03148 291.68796,959.61575 291.91418,959.61575 C 292.14041,959.61575 292.51058,959.26993 292.73679,958.84726 C 292.96299,958.42458 293.53104,958.07327 293.99911,958.06654 C 295.00589,958.05209 295.95035,957.38498 296.30616,956.43701 C 296.44676,956.06237 296.78187,955.69371 297.05084,955.61776 C 299.98821,954.78825 301.12126,954.28456 302.47955,953.20453 C 303.35543,952.5081 304.2728,951.93661 304.51819,951.93456 C 304.76356,951.93252 305.42257,952.47542 305.98264,953.14102 L 307.00095,954.35121 L 308.0341,953.58429 C 308.60232,953.16248 309.27204,952.41297 309.52238,951.91871 C 310.10342,950.7715 312.60878,949.24564 313.91561,949.24308 C 315.03385,949.24089 319.74758,946.95315 320.82641,945.88902 C 322.18437,944.54957 322.68736,944.24585 323.55628,944.24068 C 324.04072,944.23779 324.78868,944.14095 325.21844,944.02548 C 326.13449,943.77937 327.70575,941.01336 327.70421,939.6496 C 327.70345,938.98524 328.49674,937.92714 330.36892,936.09533 C 331.8351,934.66077 333.20505,933.48704 333.41327,933.48704 C 333.98837,933.48704 336.54079,937.76416 336.54079,938.72787 C 336.54079,939.34919 336.24454,939.63898 335.42543,939.81889 C 334.07946,940.11451 333.58578,941.21616 333.35544,944.43804 C 333.21344,946.42422 333.35256,947.0728 334.36001,949.12114 C 335.17513,950.77845 335.80314,951.56746 336.43294,951.72553 C 337.41758,951.97265 337.83546,952.78941 338.25425,955.28528 C 338.51912,956.86392 338.46814,956.97155 336.47939,959.03187 C 333.86706,961.7382 332.5489,962.07049 330.38212,960.56892 C 328.38247,959.18316 326.14134,959.05169 325.59644,960.28818 C 325.2037,961.1794 323.72777,961.486 323.28432,960.76848 C 323.15371,960.55715 322.62477,960.38424 322.1089,960.38424 C 321.4534,960.38424 321.17097,960.59771 321.17097,961.09317 C 321.17097,961.4831 320.82515,962.11508 320.40248,962.49759 C 319.27547,963.51751 319.44479,964.71079 320.86555,965.7612 L 322.09713,966.67173 L 321.05767,967.01822 C 320.23667,967.29189 320.01823,967.60634 320.01823,968.51455 C 320.01823,969.27674 319.34673,970.62615 318.02647,972.51711 L 316.03471,975.36982 L 314.08794,975.33947 C 313.01724,975.3228 311.92506,975.22193 311.66089,975.11534 L 311.66089,975.11534 z"/>
<path title="Chitradurga" d="M 307.13202,1008.2775 C 306.00219,1007.8525 304.18313,1006.0235 301.72732,1002.8434 C 299.80408,1000.3529 299.2096,998.93961 299.47969,997.49992 C 299.63349,996.68011 299.51431,995.81165 299.1516,995.10909 C 298.26074,993.38353 298.08613,986.89719 298.93052,986.89719 C 299.16704,986.89719 300.35681,986.292 301.57444,985.55233 C 303.89736,984.14123 305.13702,983.92135 306.71534,984.64048 C 307.23804,984.87865 308.0675,984.97101 308.55859,984.84574 C 309.84746,984.51698 313.61839,981.59902 314.01859,980.62076 C 315.03898,978.12649 315.44849,977.35094 315.97656,976.91269 C 316.29746,976.64636 316.56002,976.22374 316.56002,975.97352 C 316.56002,975.7233 317.42457,974.29147 318.48125,972.79165 C 319.74976,970.99117 320.40248,969.67461 320.40248,968.91647 C 320.40248,968.01212 320.60653,967.717 321.36309,967.52712 C 322.64895,967.20439 322.57522,966.35688 321.17097,965.31867 C 319.81806,964.31843 319.74079,963.82839 320.78672,962.88183 C 321.20939,962.49932 321.55521,961.86734 321.55521,961.47742 C 321.55521,960.62824 322.53339,960.52784 322.84691,961.34485 C 322.96974,961.66497 323.54324,961.92239 324.13681,961.92384 C 324.91404,961.92575 325.44135,962.27285 326.0701,963.19642 C 326.5456,963.8949 326.93465,964.71992 326.93465,965.0298 C 326.93465,965.33969 326.32947,966.85605 325.58979,968.39949 C 324.46539,970.74573 324.24555,971.62577 324.24869,973.76809 C 324.25356,977.09786 325.63702,980.36501 327.04212,980.36501 C 327.54335,980.36501 328.33648,980.77275 328.80466,981.27111 L 329.65589,982.17721 L 328.67952,982.81694 C 328.14251,983.16881 327.70379,983.7553 327.70458,984.12026 C 327.707,985.23499 329.17455,987.28143 329.97154,987.28143 C 331.43627,987.28143 331.92985,987.71968 331.92985,989.02022 C 331.92985,991.04069 331.62343,991.51871 330.58206,991.12278 C 329.94442,990.88036 329.55572,990.93574 329.24199,991.31377 C 328.99894,991.60664 328.42358,991.89994 327.96342,991.96556 C 327.42699,992.04207 327.14746,992.33529 327.18441,992.78274 C 327.2161,993.16656 327.15015,993.3887 327.03783,993.27638 C 326.68475,992.92328 325.39767,993.81375 325.39767,994.41113 C 325.39767,995.42335 323.51442,998.00093 322.32579,998.6156 C 321.23373,999.18033 320.66895,1000.73 321.55521,1000.73 C 322.28398,1000.73 321.93149,1001.3082 320.81572,1001.9429 C 320.18505,1002.3017 319.64122,1002.9724 319.56935,1003.4799 C 319.46357,1004.2271 319.18022,1004.4016 317.90488,1004.5049 C 317.05954,1004.5733 315.84917,1005.0091 315.21516,1005.4733 C 314.09529,1006.2932 313.30083,1006.7001 311.06285,1007.6002 C 310.46977,1007.8388 310.06387,1008.1629 310.16086,1008.3205 C 310.44573,1008.7834 308.39963,1008.7543 307.13203,1008.2775 L 307.13202,1008.2775 z"/>
<path title="Tumkur" d="M 343.48707,999.11352 C 342.64089,996.68618 341.71888,996.11908 338.61859,996.11908 C 337.0877,996.11908 335.55104,996.01006 335.20379,995.87681 C 334.85655,995.74355 334.00199,994.78748 333.30479,993.7522 C 332.16156,992.0546 332.06796,991.71069 332.35101,990.24808 C 332.52364,989.35609 332.6724,988.4864 332.6816,988.31543 C 332.69082,988.14446 332.84288,988.0939 333.01954,988.20308 C 333.19619,988.31228 334.38152,987.90938 335.65359,987.30779 C 337.1203,986.61414 338.33481,986.2844 338.97332,986.40646 C 339.93407,986.59011 341.92023,988.22083 341.92023,988.826 C 341.92023,988.98388 342.30585,989.21387 342.77717,989.33712 C 343.3741,989.49324 343.93425,989.27366 344.62336,988.61345 C 345.78825,987.49741 345.90448,987.47812 346.69586,988.26949 C 347.71234,989.286 347.38971,990.48052 345.58171,992.39451 C 344.07205,993.99266 343.89225,994.36367 344.09884,995.45432 C 344.22814,996.13693 344.48251,996.98668 344.66407,997.34262 C 344.84563,997.69856 344.9942,998.51989 344.9942,999.16779 C 344.9942,1000.7472 344.04465,1000.713 343.48707,999.11352 L 343.48707,999.11352 z M 327.99248,1037.2672 C 326.45689,1036.2079 323.0922,1032.3841 323.0922,1031.6982 C 323.0922,1031.3364 322.56064,1030.3789 321.91095,1029.5705 C 320.36018,1027.6407 318.08108,1027.1472 316.70221,1028.4426 L 315.80525,1029.2853 L 314.95519,1028.2046 C 314.48766,1027.6102 312.84798,1026.5431 311.31147,1025.8332 C 307.75287,1024.189 305.80114,1021.8843 305.80114,1019.3262 C 305.80114,1018.0124 306.0198,1017.4652 306.85389,1016.6918 C 307.43289,1016.1549 308.02101,1015.7156 308.1608,1015.7156 C 308.30059,1015.7156 308.77785,1015.1005 309.2214,1014.3488 C 310.25991,1012.5886 310.27609,1010.8803 309.25935,1010.3362 C 308.83668,1010.11 308.49355,1009.8013 308.49684,1009.6502 C 308.50356,1009.3409 311.63533,1007.8201 313.09624,1007.4167 C 313.62151,1007.2716 314.6847,1006.644 315.45886,1006.0218 C 316.43003,1005.2414 317.20621,1004.9263 317.96226,1005.0056 C 319.34024,1005.1501 320.01823,1004.7421 320.01823,1003.7684 C 320.01823,1003.3085 320.54802,1002.697 321.36309,1002.2161 C 322.8256,1001.3532 323.02405,1000.9336 322.13158,1000.5911 C 321.23968,1000.2488 321.4457,999.65366 322.67636,999.01726 C 323.73,998.47241 326.16616,995.36286 326.16616,994.56284 C 326.16616,994.07937 327.59903,992.66087 328.08739,992.66087 C 328.29872,992.66087 328.47164,993.44586 328.47164,994.40529 C 328.47164,995.3914 328.80569,996.80451 329.24013,997.65607 C 329.6628,998.48457 330.00862,999.48835 330.00862,999.88668 C 330.00862,1000.285 329.6628,1000.9239 329.24013,1001.3064 C 327.96737,1002.4582 328.2454,1003.9364 329.94653,1005.0622 C 331.53897,1006.116 332.82801,1006.4071 334.0432,1005.9874 C 334.88007,1005.6983 336.54079,1003.379 336.54079,1002.4993 C 336.54079,1002.0274 336.81777,1002.0261 338.55808,1002.4894 C 339.66759,1002.7847 340.9411,1003.0284 341.38811,1003.0309 C 342.50212,1003.0372 344.14806,1004.4034 344.29605,1005.4447 C 344.38123,1006.044 344.07136,1006.541 343.26509,1007.0981 C 342.63109,1007.5362 342.13606,1008.1828 342.16504,1008.5349 C 342.19402,1008.887 342.07627,1009.0878 341.9034,1008.9809 C 341.32371,1008.6227 341.13396,1009.5058 341.46963,1010.9997 C 341.79553,1012.4502 341.33988,1013.9044 340.0836,1015.4232 C 339.86314,1015.6897 339.62423,1016.4005 339.5527,1017.0028 C 339.44704,1017.8924 339.13415,1018.1961 337.88565,1018.6209 C 336.17331,1019.2035 334.62439,1020.8567 334.62148,1022.1047 C 334.61924,1023.0648 334.04961,1023.5856 332.63189,1023.9238 C 332.067,1024.0585 331.05546,1024.6311 330.38401,1025.196 C 329.2954,1026.1121 329.18833,1026.3806 329.39544,1027.6758 C 329.52319,1028.4746 330.05922,1029.5938 330.58665,1030.1629 C 331.5331,1031.1842 331.64051,1031.7553 331.71637,1036.1702 C 331.73598,1037.3115 331.62151,1037.4313 330.30741,1037.6449 C 329.31512,1037.8062 328.60619,1037.6906 327.99248,1037.2672 L 327.99248,1037.2672 z"/>
<path title="Chikkaballapura" d="M 356.90581,1021.8377 C 356.90581,1020.6718 354.57996,1018.0363 353.54366,1018.028 C 353.06816,1018.0242 352.67911,1018.194 352.67911,1018.4053 C 352.67911,1019.306 351.44317,1018.6864 350.95461,1017.5408 C 350.48494,1016.4395 350.06751,1016.1809 347.41994,1015.3514 C 345.22191,1014.6627 344.0845,1014.0593 343.17332,1013.0984 C 342.48882,1012.3765 342.02132,1011.6362 342.13441,1011.4532 C 342.2475,1011.2702 342.15943,1010.7831 341.93872,1010.3707 C 341.60743,1009.7517 341.76305,1009.3816 342.83087,1008.2494 C 344.30194,1006.6896 345.02508,1006.4847 344.70228,1007.7192 C 344.49144,1008.5253 344.56892,1008.5118 346.56342,1007.3935 C 348.05857,1006.5553 349.37346,1006.1603 351.23334,1005.9909 C 354.35662,1005.7064 357.69941,1003.8147 358.6679,1001.7838 C 359.24096,1000.5821 359.36125,1000.5284 361.55063,1000.4987 C 363.46361,1000.4727 363.80769,1000.5671 363.66536,1001.0791 C 362.95104,1003.6487 362.9856,1004.1876 363.88755,1004.5439 C 364.62532,1004.8353 364.93297,1004.7182 365.63608,1003.8784 C 366.27576,1003.1143 366.59917,1002.969 366.92823,1003.2981 C 367.60135,1003.9712 368.10154,1007.2144 367.65959,1008.0402 C 366.82704,1009.5959 367.69249,1011.8732 369.11626,1011.8732 C 369.40579,1011.8732 369.35528,1012.3313 368.96199,1013.2726 C 368.64039,1014.0423 368.47285,1015.0528 368.58967,1015.5183 C 368.73633,1016.1026 368.51569,1016.6336 367.87689,1017.2337 C 367.36804,1017.7118 367.03436,1018.3183 367.13538,1018.5815 C 367.52274,1019.591 363.06293,1021.274 362.48379,1020.3369 C 362.07863,1019.6814 360.24311,1020.3251 359.12064,1021.5163 C 357.88624,1022.8264 356.90581,1022.9687 356.90581,1021.8377 z"/>
<path title="Kolar" d="M 367.56134,1040.2721 C 366.5535,1039.8733 365.30885,1039.2718 364.79546,1038.9354 C 364.26699,1038.5891 363.28353,1038.3736 362.5286,1038.4387 C 361.50416,1038.5269 360.95883,1038.3172 360.17521,1037.5336 C 359.61423,1036.9726 358.64912,1036.4025 358.03053,1036.2666 C 357.07485,1036.0567 356.90614,1035.8365 356.90796,1034.8013 C 356.90915,1034.1313 357.08267,1032.9618 357.29358,1032.2025 C 357.60875,1031.068 357.93355,1030.7449 359.11661,1030.3889 C 359.90836,1030.1508 360.77156,1029.6084 361.03484,1029.1836 C 361.45162,1028.5112 361.3895,1028.33 360.55453,1027.783 C 359.34238,1026.9887 359.3428,1026.5516 360.55615,1026.0902 C 361.84789,1025.5991 361.76558,1024.7098 360.30183,1023.3424 C 359.15891,1022.2748 359.12557,1022.1688 359.7394,1021.5552 C 360.2103,1021.0845 361.05746,1020.8998 362.78299,1020.8918 C 365.74474,1020.8781 367.66469,1020.1546 367.66469,1019.0522 C 367.66469,1018.6139 368.12333,1017.7765 368.68388,1017.1914 C 369.46342,1016.3778 369.60273,1016.0067 369.27633,1015.6134 C 368.85677,1015.1079 369.05859,1013.3971 369.53467,1013.4238 C 369.66852,1013.4312 370.20028,1013.6712 370.71636,1013.9571 C 371.50697,1014.3949 371.89259,1014.3928 373.1662,1013.9434 C 373.99754,1013.6501 375.11276,1013.4101 375.64447,1013.4101 L 376.61121,1013.4101 L 376.34146,1018.0218 L 376.07173,1022.6334 L 377.08054,1023.017 C 377.63539,1023.2279 378.51898,1023.4005 379.04405,1023.4005 C 380.41385,1023.4005 382.26749,1024.459 382.25757,1025.2356 C 382.24132,1026.5132 380.66653,1029.3686 378.78541,1031.5314 C 376.71599,1033.9106 376.479,1034.8242 377.65508,1035.8885 C 378.07775,1036.271 378.42357,1036.8282 378.42357,1037.1267 C 378.42357,1037.8257 377.00502,1037.4286 375.90121,1036.4207 C 374.83674,1035.4487 373.93934,1035.5085 372.44123,1036.6512 C 370.37996,1038.2234 369.97017,1038.7706 369.97017,1039.9505 C 369.97017,1041.2408 369.99943,1041.2369 367.56135,1040.2721 L 367.56134,1040.2721 z"/>
<path title="Bangalore Rural" d="M 354.47227,1036.593 C 354.06879,1036.1895 354.17234,1034.9875 354.68071,1034.1735 C 355.05622,1033.5722 355.01938,1033.1654 354.48859,1032.0523 C 354.12738,1031.2949 353.82924,1030.3784 353.82606,1030.0157 C 353.81926,1029.2398 352.938,1026.6053 352.5582,1026.2255 C 352.41336,1026.0807 352.29487,1025.6577 352.29487,1025.2856 C 352.29487,1024.3044 350.64446,1023.1578 348.80964,1022.8644 C 347.93479,1022.7245 346.72937,1022.3569 346.13094,1022.0474 C 344.29984,1021.1005 343.80348,1021.553 343.28211,1024.6447 C 343.13805,1025.4989 342.73517,1026.244 342.28794,1026.4833 C 341.87437,1026.7047 341.53513,1027.2687 341.53408,1027.7368 C 341.53181,1028.7414 339.81693,1031.0255 339.3859,1030.598 C 339.22214,1030.4356 338.99051,1029.571 338.87115,1028.6768 L 338.65415,1027.0509 L 336.66042,1026.8503 C 334.40042,1026.6229 334.42923,1026.6407 334.10096,1025.2697 C 333.94013,1024.5979 334.05129,1024.097 334.43116,1023.7817 C 334.74613,1023.5203 335.00381,1022.9136 335.00381,1022.4335 C 335.00381,1021.1619 337.00537,1019.1738 338.28564,1019.1738 C 339.49705,1019.1738 340.34101,1018.2532 340.39911,1016.8683 C 340.44405,1015.7975 341.5379,1013.7297 342.17113,1013.5186 C 342.39656,1013.4435 342.99428,1013.8176 343.49941,1014.35 C 344.00454,1014.8825 344.79338,1015.3211 345.25239,1015.3247 C 346.75938,1015.3367 349.83831,1016.9643 350.48477,1018.0907 C 350.91043,1018.8324 351.41482,1019.1738 352.08487,1019.1738 C 352.62304,1019.1738 353.06336,1019.0009 353.06336,1018.7896 C 353.06336,1017.402 355.16106,1019.3847 356.51894,1022.0557 C 356.95757,1022.9185 357.33624,1023.1828 358.02453,1023.1065 C 360.0219,1022.8852 361.79451,1025.3428 359.97978,1025.8173 C 358.96213,1026.0835 358.99179,1027.3878 360.03118,1028.0779 C 360.80382,1028.5909 360.81332,1028.66 360.19586,1029.2775 C 359.83549,1029.6379 359.11189,1029.9327 358.58786,1029.9327 C 357.42027,1029.9327 356.52157,1031.789 356.52157,1034.2008 C 356.52157,1035.2768 356.30052,1035.9716 355.84914,1036.3142 C 355.07674,1036.9006 354.82985,1036.9505 354.47226,1036.593 L 354.47227,1036.593 z"/>
<path title="Bangalore" d="M 347.1716,1043.5094 C 347.0307,1043.3685 346.91543,1042.2507 346.91543,1041.0253 C 346.91543,1038.4651 346.21055,1037.7045 344.45598,1038.3716 C 343.39568,1038.7747 342.30448,1038.0784 342.30448,1036.9986 C 342.30448,1036.6884 341.69929,1035.5359 340.95962,1034.4376 C 340.21995,1033.3392 339.62179,1032.2653 339.63037,1032.0512 C 339.63896,1031.837 340.15769,1031.0632 340.78311,1030.3315 C 341.40853,1029.5998 341.92023,1028.6908 341.92023,1028.3116 C 341.92023,1027.9324 342.35045,1027.2481 342.87628,1026.7909 C 343.54926,1026.2057 343.90657,1025.3999 344.08309,1024.0692 C 344.36458,1021.9472 344.03835,1022.0087 348.26029,1023.2817 C 351.08452,1024.1333 351.52637,1024.406 351.52637,1025.2974 C 351.52637,1025.6817 351.78574,1026.2114 352.10274,1026.4745 C 352.41975,1026.7376 352.67911,1027.3537 352.67911,1027.8437 C 352.67911,1028.3337 352.86603,1028.8501 353.09449,1028.9913 C 353.32294,1029.1325 353.41957,1029.6182 353.30921,1030.0707 C 353.19884,1030.5231 353.36484,1031.2387 353.6781,1031.6608 C 354.09236,1032.219 354.18284,1032.9523 354.00995,1034.3505 C 353.87922,1035.4077 353.93684,1036.705 354.13802,1037.2334 C 354.38105,1037.8717 354.34839,1038.9676 354.04067,1040.4995 L 353.57758,1042.8049 L 351.46345,1042.8531 C 350.30069,1042.8796 348.98599,1043.0957 348.54189,1043.3334 C 347.59873,1043.8382 347.51157,1043.8494 347.17159,1043.5094 L 347.1716,1043.5094 z"/>
<path title="Ramanagara" d="M 341.53599,1055.5145 C 338.46316,1054.6648 337.9931,1054.1978 338.27542,1052.2751 C 338.48213,1050.8675 338.38392,1050.4562 337.65607,1049.6815 C 337.08763,1049.0764 336.36307,1048.7607 335.54268,1048.7607 C 333.86165,1048.7607 332.09514,1047.2385 331.82184,1045.5543 C 331.70544,1044.8371 331.14815,1043.0953 330.5834,1041.6836 C 329.43741,1038.8191 329.52219,1038.0019 330.96541,1038.0019 C 332.28186,1038.0019 333.01253,1036.4995 332.37577,1035.1019 C 332.13051,1034.5637 331.92985,1033.4232 331.92985,1032.5676 C 331.92985,1031.7109 331.62149,1030.5537 331.24357,1029.992 C 329.59691,1027.5448 329.43948,1026.9314 330.23296,1026.0546 C 331.1291,1025.0644 332.89666,1024.1112 333.22599,1024.4405 C 333.35845,1024.573 333.46683,1025.0502 333.46683,1025.5011 C 333.46683,1026.756 334.21879,1027.243 336.15645,1027.243 L 337.92388,1027.243 L 338.66404,1030.2152 C 339.10035,1031.9674 339.92059,1033.9549 340.66221,1035.0569 C 341.35413,1036.0851 341.92023,1037.1472 341.92023,1037.4171 C 341.92023,1038.2541 343.13841,1038.9625 344.578,1038.9625 L 345.95481,1038.9625 L 346.17852,1041.0758 C 346.30156,1042.2382 346.53704,1043.494 346.70182,1043.8665 C 346.87567,1044.2596 346.81429,1044.7693 346.55554,1045.0811 C 346.21444,1045.4921 346.26855,1046.447 346.78583,1049.1454 L 347.46199,1052.6726 L 345.55565,1054.3522 C 344.50718,1055.276 343.56288,1056.0231 343.45722,1056.0123 C 343.35155,1056.0015 342.487,1055.7775 341.53599,1055.5145 L 341.53599,1055.5145 z"/>
<path title="Chamarajanagar" d="M 314.80453,1078.1555 C 313.76392,1077.1741 313.03329,1076.8107 312.10096,1076.8107 C 311.19145,1076.8107 310.69743,1076.5754 310.38625,1075.9939 C 309.99523,1075.2632 309.73043,1075.2028 307.87513,1075.4209 C 305.86405,1075.6572 305.80114,1075.6361 305.80114,1074.7234 C 305.80114,1074.2056 305.6212,1073.6709 305.40126,1073.5349 C 304.74473,1073.1292 305.4012,1071.7252 307.04369,1070.0223 C 308.38217,1068.6347 308.75334,1068.4482 309.82874,1068.6227 C 310.88369,1068.7939 311.19289,1068.6507 311.89353,1067.6668 C 312.74168,1066.4756 313.01529,1064.5148 312.33332,1064.5148 C 312.12198,1064.5148 311.94907,1064.0825 311.94907,1063.5542 C 311.94907,1062.4559 313.0797,1062.2173 313.85537,1063.152 C 314.11026,1063.4591 314.77984,1063.6896 315.34334,1063.6643 C 315.90684,1063.639 316.65934,1063.7478 317.01555,1063.906 C 317.50763,1064.1247 317.90525,1063.8104 318.67079,1062.5977 C 319.59299,1061.1368 319.79858,1061.012 321.0971,1061.1251 C 322.27256,1061.2275 322.58171,1061.0973 322.90007,1060.3656 C 323.17818,1059.7265 323.4966,1059.5433 324.05281,1059.7025 C 326.43442,1060.3839 326.76711,1060.3583 327.26416,1059.4552 C 327.53545,1058.9623 328.5233,1057.9916 329.45938,1057.298 C 330.91103,1056.2225 331.16135,1055.8382 331.16135,1054.6853 L 331.16135,1053.3335 L 333.56289,1053.5726 C 335.88995,1053.8043 336.82867,1054.0774 338.84627,1055.1094 C 339.37461,1055.3797 340.50558,1055.7878 341.35954,1056.0164 C 342.68835,1056.3721 342.90994,1056.5797 342.89652,1057.4563 C 342.88205,1058.4032 343.11911,1058.5577 346.03102,1059.499 C 350.07094,1060.805 350.75788,1061.4181 350.75788,1063.7182 C 350.75788,1065.2759 350.55451,1065.7137 349.08989,1067.309 C 347.55769,1068.9778 347.27576,1069.1258 345.62702,1069.1258 C 343.94301,1069.1258 343.68473,1069.2718 341.44501,1071.4908 L 339.05788,1073.8558 L 337.26744,1073.2199 C 334.95553,1072.3987 334.46109,1072.4169 332.06221,1073.4112 C 330.12589,1074.2138 329.99888,1074.2195 327.80287,1073.6033 C 326.55796,1073.254 324.75834,1072.9682 323.80373,1072.9682 C 322.23856,1072.9682 321.9458,1073.1204 320.82317,1074.5173 C 319.80639,1075.7826 319.6248,1076.2784 319.83223,1077.2228 C 320.17363,1078.7772 319.49436,1079.5004 317.69307,1079.5004 C 316.54934,1079.5004 315.91964,1079.2072 314.80452,1078.1555 L 314.80453,1078.1555 z"/>
<path title="Mysore" d="M 301.19143,1071.4769 C 300.22944,1070.336 299.13283,1069.4568 298.49809,1069.3174 C 297.22014,1069.0367 296.4595,1068.2506 295.71005,1066.436 C 295.1788,1065.1498 295.21077,1064.9785 296.44329,1062.5071 C 297.76249,1059.8619 298.02706,1058.5946 297.34774,1058.1748 C 297.1364,1058.0441 296.96349,1057.6216 296.96349,1057.2357 C 296.96349,1056.8498 296.5382,1056.2554 296.01841,1055.9148 C 294.25204,1054.7574 291.97626,1052.0758 291.75953,1050.8965 C 291.64075,1050.2502 291.76882,1048.2516 292.04412,1046.4553 L 292.54467,1043.1892 L 296.74027,1042.9971 C 299.72866,1042.8602 300.98404,1042.6596 301.10332,1042.2998 C 301.36105,1041.5224 303.10709,1040.9781 303.7177,1041.4849 C 303.99974,1041.719 304.4377,1041.7824 304.69094,1041.6259 C 304.95272,1041.4641 305.0511,1041.5036 304.91895,1041.7174 C 304.61031,1042.2168 310.16669,1047.7168 310.59032,1047.3313 C 310.77139,1047.1665 310.79818,1047.2429 310.64985,1047.5011 C 310.30914,1048.0941 311.47294,1049.9135 312.19302,1049.9135 C 312.48992,1049.9135 313.40667,1050.3389 314.23026,1050.8588 C 316.5293,1052.3101 317.58992,1052.4543 318.89085,1051.4925 C 321.35101,1049.6736 323.11046,1049.692 323.69787,1051.5428 C 323.84827,1052.0167 324.66516,1053.2273 325.51315,1054.2329 C 326.86201,1055.8326 327.24053,1056.0614 328.53801,1056.0614 L 330.02107,1056.0614 L 328.18969,1057.8866 C 326.55473,1059.516 326.23491,1059.6808 325.20808,1059.4236 C 323.39768,1058.97 322.8127,1059.0775 322.59662,1059.9039 C 322.43827,1060.5093 322.0725,1060.6724 320.87222,1060.6724 C 319.56521,1060.6724 319.21895,1060.8619 318.43472,1062.0064 C 317.58407,1063.2479 317.41397,1063.3244 315.98365,1063.11 C 315.13831,1062.9833 314.2824,1062.7288 314.08164,1062.5445 C 313.88087,1062.3601 313.20864,1062.2093 312.58781,1062.2093 L 311.45903,1062.2093 L 311.70922,1064.3383 C 312.04154,1067.1657 311.59141,1067.973 309.68266,1067.973 C 308.41506,1067.973 307.96553,1068.2363 306.43009,1069.8778 C 305.45016,1070.9254 304.6484,1072.0493 304.6484,1072.3754 C 304.6484,1072.7014 304.48963,1072.9682 304.29559,1072.9682 C 304.10153,1072.9682 303.68882,1073.0657 303.37844,1073.1848 C 303.01771,1073.3232 302.22867,1072.707 301.19144,1071.4769 L 301.19143,1071.4769 z"/>
<path title="Kodagu" d="M 287.81929,1064.6525 C 286.71989,1063.8828 285.82037,1063.0128 285.82037,1062.7192 C 285.82037,1062.4255 285.51777,1062.0751 285.14794,1061.9405 C 284.7781,1061.8059 283.78387,1061.2328 282.93852,1060.667 C 282.09318,1060.1012 280.53699,1059.3234 279.48031,1058.9385 C 277.2103,1058.1117 276.06844,1057.1667 274.96307,1055.1999 C 274.51671,1054.4057 274.01274,1053.7559 273.84315,1053.7559 C 273.13948,1053.7559 272.37177,1050.8315 272.37177,1048.151 C 272.37177,1045.8415 272.49559,1045.2633 273.05412,1044.9644 C 273.48371,1044.7345 273.97719,1044.7339 274.38631,1044.9629 C 274.74486,1045.1635 276.13043,1045.2144 277.4775,1045.0764 C 279.85254,1044.8331 279.94812,1044.78 280.9963,1043.1232 C 281.85028,1041.7734 282.03283,1041.1151 281.87649,1039.9495 L 281.67922,1038.4788 L 283.35652,1038.2489 C 284.27902,1038.1225 285.26954,1038.1095 285.55768,1038.2201 C 285.86658,1038.3386 286.46162,1037.8631 287.00764,1037.0614 C 287.51698,1036.3135 288.14986,1035.7005 288.41403,1035.699 C 288.67819,1035.6976 288.89433,1035.3506 288.89433,1034.9279 C 288.89433,1033.9335 289.951,1033.945 291.161,1034.9526 C 292.01146,1035.6608 292.04864,1035.8343 291.64131,1037.1938 C 291.05177,1039.1615 291.08157,1041.6521 291.70082,1042.166 C 292.24525,1042.6178 292.12456,1045.1606 291.5416,1045.5209 C 291.3536,1045.6371 291.19981,1047.1256 291.19981,1048.8288 C 291.19981,1051.7571 291.26604,1052.0012 292.41837,1053.321 C 293.08858,1054.0885 294.28957,1055.2001 295.08723,1055.7911 C 296.24939,1056.6522 296.58678,1057.1941 296.78541,1058.5187 C 297.12574,1060.7882 295.20525,1064.7648 293.59924,1065.1162 C 293.01923,1065.243 292.04336,1065.5055 291.43065,1065.6993 C 289.91363,1066.1793 290.06171,1066.2222 287.8193,1064.6525 L 287.81929,1064.6525 z"/>
<path title="Dakshina Kannada" d="M 269.2978,1044.1586 C 269.2978,1043.636 268.84037,1043.2005 267.86213,1042.7917 C 266.03607,1042.0288 264.68686,1040.7667 264.68686,1039.8216 C 264.68686,1038.3085 261.9889,1037.0111 260.96712,1038.0328 C 260.66966,1038.3303 260.29213,1037.9761 259.63594,1036.784 L 258.71996,1035.12 L 255.68577,1034.9279 L 252.65158,1034.7358 L 251.79338,1031.4697 C 250.45201,1026.3648 250.08552,1024.632 250.08552,1023.395 C 250.08552,1021.7475 251.55557,1021.8246 253.07189,1023.5516 C 253.7015,1024.2687 254.58397,1024.972 255.03292,1025.1145 C 255.48188,1025.257 255.84921,1025.6298 255.84921,1025.9431 C 255.84921,1026.2563 256.11301,1027.0228 256.43544,1027.6463 C 256.8758,1028.4979 257.29316,1028.78 258.11273,1028.78 C 258.71281,1028.78 259.64342,1029.1258 260.18076,1029.5485 C 260.71809,1029.9711 261.35031,1030.3169 261.58567,1030.3169 C 262.00103,1030.3169 262.16485,1030.0067 263.17364,1027.3096 C 263.52969,1026.3577 263.83209,1026.0785 264.35828,1026.2161 C 265.05993,1026.3996 266.66952,1024.7289 267.71874,1022.7281 C 268.02225,1022.1493 268.52325,1021.8635 269.23447,1021.8635 C 269.81876,1021.8635 270.48327,1021.6771 270.71113,1021.4493 C 270.93899,1021.2214 271.60628,1021.0917 272.19402,1021.1611 C 272.98741,1021.2547 273.46215,1021.673 274.0374,1022.7855 C 274.5818,1023.8383 275.24914,1024.4555 276.28169,1024.8611 C 277.76413,1025.4434 278.07202,1025.8466 277.36696,1026.2824 C 277.15563,1026.413 276.98272,1027.205 276.98272,1028.0424 C 276.98272,1029.2936 277.15394,1029.6429 277.94333,1030.0026 C 278.52904,1030.2695 278.90001,1030.7536 278.89387,1031.2432 C 278.88833,1031.6848 279.52463,1034.0801 280.30787,1036.5661 L 281.73196,1041.0862 L 280.58383,1042.7141 L 279.43568,1044.3419 L 276.1919,1044.4099 C 274.40783,1044.4473 272.12681,1044.5786 271.12297,1044.7018 C 269.48038,1044.9032 269.2978,1044.8489 269.2978,1044.1586 L 269.2978,1044.1586 z"/>
<path title="Udupi" d="M 260.77463,1029.2291 C 260.496,1028.835 259.57678,1028.384 258.73193,1028.2268 C 257.05359,1027.9145 256.63253,1027.5053 256.62358,1026.1781 C 256.61969,1025.6012 256.26101,1025.1452 255.56581,1024.8332 C 254.98729,1024.5736 254.01836,1023.7992 253.41266,1023.1123 C 252.66231,1022.2615 251.96763,1021.8635 251.23258,1021.8635 C 250.18164,1021.8635 250.15042,1021.8026 250.02359,1019.5047 C 249.94425,1018.0672 250.07604,1016.8858 250.36101,1016.48 C 250.89429,1015.7205 250.61736,1014.4267 249.41374,1012.0543 C 248.76429,1010.7743 248.6403,1009.7851 248.64443,1005.9173 C 248.64886,1001.7583 248.53073,1000.9525 247.43897,997.69532 C 246.77325,995.70924 246.27507,994.06419 246.33189,994.03967 C 246.38871,994.01515 247.46232,993.50772 248.71771,992.91205 L 251.00024,991.82901 L 252.44869,993.39768 C 253.6099,994.65526 254.1624,994.96635 255.23474,994.96635 C 255.97042,994.96635 256.68095,995.14208 256.81369,995.35686 C 256.94644,995.57165 257.24272,995.63138 257.47211,995.48961 C 257.70149,995.34784 257.78033,995.40796 257.6473,995.62321 C 257.22394,996.30821 258.79987,998.93676 260.81556,1000.9077 L 262.76563,1002.8145 L 262.76563,1005.779 C 262.76563,1008.5238 262.84062,1008.8024 263.77806,1009.5398 C 264.33489,1009.9778 265.01035,1010.3362 265.27907,1010.3362 C 266.00926,1010.3362 265.49023,1011.9146 264.4322,1012.9115 C 263.54108,1013.7511 263.18112,1015.7156 263.91836,1015.7156 C 264.1297,1015.7156 264.30261,1015.9819 264.30261,1016.3073 C 264.30261,1017.109 265.75156,1019.9435 266.68008,1020.9582 C 267.42908,1021.7767 267.42899,1021.7914 266.6648,1023.2894 C 265.73705,1025.1079 264.97485,1025.7929 264.05677,1025.6333 C 263.34588,1025.5097 262.05261,1027.5499 262.01559,1028.8533 C 261.98762,1029.8382 261.3433,1030.0333 260.77463,1029.2291 z"/>
<path title="Uttara Kannada" d="M 244.2846,990.05844 C 242.47465,985.66697 242.13224,984.54173 241.62719,981.32563 C 241.39488,979.84628 241.04159,978.47164 240.8421,978.27087 C 240.26775,977.69286 240.41876,975.9224 241.15181,974.63982 C 241.90987,973.31348 241.53603,972.21003 240.24607,971.96632 C 238.83752,971.7002 238.55815,971.11099 238.55815,968.40635 C 238.55815,966.17671 238.42302,965.62929 237.6936,964.90389 C 237.21809,964.43101 236.54352,963.41279 236.19455,962.64119 L 235.56006,961.23827 L 237.15517,959.69978 C 238.03248,958.8536 239.11652,958.05184 239.56415,957.91809 C 240.9919,957.49147 241.52683,956.45678 241.73425,953.72055 C 241.84387,952.27454 242.1251,950.89991 242.35921,950.6658 C 242.95866,950.06634 242.88789,949.03648 242.20849,948.47262 C 241.89148,948.20953 241.63212,947.60435 241.63212,947.12776 C 241.63212,946.65118 241.89148,946.04599 242.20849,945.7829 C 243.10048,945.04261 242.89618,943.40998 241.60991,940.99957 C 240.92486,939.71579 240.48428,938.37152 240.55324,937.77545 C 240.65613,936.88601 240.82133,936.77046 241.82424,936.88649 C 243.28837,937.05588 243.84797,937.52393 244.52572,939.14601 C 244.93979,940.13702 244.96584,940.61322 244.635,941.14299 C 244.02866,942.11388 244.51935,943.25681 245.38175,942.88237 C 246.95437,942.1996 248.62505,942.23668 249.64052,942.97691 C 251.30045,944.18693 252.03791,944.31014 254.73511,943.82813 C 257.1663,943.39365 257.38179,943.41743 258.9743,944.2959 C 261.16346,945.50351 262.20928,947.46984 261.36342,948.78788 C 261.04869,949.27827 260.54183,950.3863 260.23705,951.25016 C 259.75969,952.60312 259.75791,952.93532 260.22415,953.6469 C 260.61009,954.23592 260.65506,954.67017 260.38085,955.16016 C 259.77617,956.24068 260.53692,956.72415 262.02536,956.20527 C 262.7069,955.96768 263.93921,955.77329 264.7638,955.77329 C 266.11139,955.77329 266.31937,955.90809 266.81982,957.10581 C 267.44939,958.61262 267.55661,960.38424 267.01822,960.38424 C 266.41237,960.38424 266.20833,961.6801 266.59947,963.04391 C 266.93219,964.2041 266.85085,964.4785 265.82918,965.64212 C 264.56582,967.08101 264.36149,968.58637 265.25616,969.86369 C 265.75907,970.58171 265.75907,970.7316 265.25616,971.14898 C 264.94304,971.40884 264.68686,971.95747 264.68686,972.36816 C 264.68686,972.77885 264.499,973.46588 264.2694,973.8949 C 263.85229,974.67426 263.85128,974.67423 263.08247,973.84901 C 262.14242,972.83997 261.64672,972.96898 260.83079,974.43502 C 259.72429,976.42312 259.62922,977.49227 260.46447,978.55411 C 261.59182,979.98733 261.39688,982.75733 260.13645,983.2149 C 257.71505,984.09394 257.34299,984.12702 256.21383,983.56371 C 254.53046,982.72393 253.80857,983.13636 254.00573,984.8252 L 254.16665,986.20365 L 252.70247,985.9695 L 251.23826,985.73538 L 251.23826,988.44594 L 251.23826,991.15651 L 248.83672,992.29265 C 247.51588,992.91751 246.26228,993.42495 246.05094,993.42029 C 245.83961,993.41563 245.04475,991.9028 244.2846,990.05844 L 244.2846,990.05844 z"/>
<path title="Belgaum" d="M 250.52012,942.85925 C 249.07688,941.98503 248.55127,941.87231 246.77372,942.05577 C 244.69357,942.27046 244.32615,942.08983 245.15564,941.26034 C 245.49888,940.9171 245.48218,940.43805 245.085,939.23459 C 244.47454,937.38487 243.10758,936.17676 241.62511,936.17676 C 240.89217,936.17676 240.50752,935.94161 240.36804,935.40827 C 240.20137,934.77096 239.84393,934.63978 238.27392,934.63978 C 237.23267,934.63978 236.27861,934.53763 236.15376,934.41278 C 235.98194,934.24095 237.75133,931.57229 238.76797,930.46994 C 238.83658,930.39555 239.28818,930.61169 239.77154,930.95025 C 240.98583,931.80077 241.58956,931.72355 242.46926,930.6052 C 242.89742,930.06088 243.62152,929.64459 244.14014,929.64459 C 245.51228,929.64459 247.05823,927.83229 247.84644,925.29979 C 248.76568,922.34625 248.73287,921.69922 247.63377,921.10739 C 246.20153,920.33618 246.90656,919.10013 249.09265,918.54967 C 250.61623,918.16603 250.85401,917.97208 250.85401,917.11308 C 250.85401,914.6209 248.75216,912.35353 246.44189,912.35353 C 245.7647,912.35353 245.34854,912.07978 245.13077,911.49109 C 244.86682,910.77759 245.00773,910.50946 245.94673,909.93842 C 246.76577,909.44033 247.00794,909.06536 246.81666,908.59144 C 246.67087,908.23023 246.46201,907.3057 246.35252,906.5369 C 246.15536,905.15257 246.1795,905.12388 248.85896,903.559 C 252.18751,901.61502 253.02252,901.55813 253.72158,903.2277 C 254.47513,905.02741 254.63909,905.09775 256.21118,904.29573 C 257.73691,903.51737 259.90077,901.31532 261.04747,899.37412 C 261.66967,898.32081 262.01833,898.14571 263.89412,897.9445 C 266.69726,897.64382 266.97489,897.46214 267.73022,895.43441 L 268.36972,893.71762 L 270.85106,893.84979 C 272.83209,893.95532 273.5303,894.16837 274.31402,894.90647 C 275.58214,896.10078 275.96062,896.07382 278.21248,894.6288 C 279.24285,893.9676 280.12255,893.4921 280.16735,893.57213 C 281.66682,896.25054 281.82905,896.92037 281.25076,898.04559 C 281.06217,898.41256 280.72742,899.17214 280.50688,899.73355 C 280.24016,900.41254 279.71349,900.84048 278.9338,901.01172 C 278.28522,901.15418 277.41161,901.76082 276.97789,902.36993 C 276.39805,903.18423 275.82171,903.50157 274.76323,903.58935 C 273.45898,903.69751 273.32173,903.81849 273.21198,904.9568 C 273.07586,906.36854 272.04469,906.69931 271.71461,905.43711 C 271.60409,905.01444 271.19198,904.66862 270.79883,904.66862 C 269.57204,904.66862 268.95868,906.16613 268.98896,909.08744 C 269.01311,911.41786 269.14786,911.91831 269.9977,912.83384 C 270.53717,913.41501 271.25103,913.89051 271.58405,913.89051 C 271.91707,913.89051 272.36022,914.27855 272.56884,914.75282 C 272.77745,915.22709 273.29396,915.6749 273.71663,915.74795 C 274.64387,915.90822 275.80964,917.28034 275.82143,918.22533 C 275.82613,918.60181 276.08276,919.00683 276.39172,919.12539 C 276.70069,919.24394 277.05625,919.66479 277.18187,920.06059 C 277.32867,920.52313 277.91733,920.86563 278.82954,921.01926 C 281.50625,921.47005 281.39143,921.30663 281.52759,924.85961 C 281.59692,926.66862 281.48584,928.35561 281.28075,928.60847 C 281.07566,928.86134 280.84364,929.41404 280.76515,929.83671 C 280.64516,930.48278 280.3187,930.6052 278.71565,930.6052 C 277.01544,930.6052 276.75358,930.71967 276.29846,931.66187 C 276.01773,932.24305 275.62457,932.71855 275.42477,932.71855 C 275.22497,932.71855 275.06149,933.49665 275.06149,934.44766 C 275.06149,936.01219 274.97453,936.17676 274.1478,936.17676 C 273.64527,936.17676 272.59762,935.91082 271.81969,935.58578 C 270.46203,935.01851 270.3771,935.02958 269.70346,935.8615 C 269.09902,936.60793 268.9146,936.65597 268.3744,936.20765 C 267.60778,935.57141 264.79056,935.834 262.48466,936.75664 C 261.23067,937.25839 260.72206,937.76476 260.04539,939.1852 C 259.57517,940.17224 259.08523,941.47299 258.95662,942.07574 C 258.73115,943.13248 258.63365,943.1747 256.22932,943.25689 C 254.85791,943.30377 253.39003,943.46227 252.96736,943.60914 C 252.45451,943.78733 251.64043,943.53788 250.52011,942.85926 L 250.52012,942.85925 z"/>
<path title="Bijapur" d="M 307.26108,920.20672 C 306.77512,919.95949 305.4265,919.63746 304.26416,919.49109 C 302.55229,919.27551 301.88172,918.96347 300.73439,917.84854 C 299.59869,916.74491 298.94336,916.43614 297.42765,916.2905 C 295.6411,916.11883 295.49294,916.01752 294.72899,914.44509 C 293.95105,912.84386 293.85902,912.7841 292.28075,912.85561 C 291.32906,912.89873 290.63718,912.75718 290.63213,912.51834 C 290.6183,911.86375 288.1842,909.45505 285.76675,907.70374 C 283.5831,906.12181 283.54817,906.06697 283.73631,904.51681 C 283.91779,903.02157 283.84669,902.88447 282.36947,901.88151 C 281.00679,900.95631 280.84267,900.69104 281.06192,899.76816 C 281.1998,899.18772 281.56436,898.42261 281.87203,898.06792 C 282.47032,897.37818 282.28173,896.22734 281.34978,894.88092 C 281.06125,894.46406 280.82517,893.81565 280.82517,893.44 C 280.82517,892.85485 281.18661,892.757 283.34803,892.757 C 284.73561,892.757 286.22552,892.94679 286.65895,893.17876 C 287.27322,893.50751 287.5782,893.46933 288.04192,893.0056 C 288.57897,892.46854 288.73844,892.48303 289.68154,893.15458 C 290.71523,893.89062 290.73632,893.89055 291.68056,893.14781 C 292.41124,892.57306 292.58972,892.14665 292.44215,891.32827 C 292.33614,890.74039 292.12327,890.0865 291.96909,889.87516 C 291.8149,889.66382 291.57584,887.42173 291.43784,884.89273 C 291.29983,882.36373 291.04258,880.15021 290.86617,879.97381 C 290.47736,879.585 290.76502,877.84801 291.2699,877.53598 C 291.46931,877.41273 291.93779,877.5882 292.31095,877.9259 C 292.80505,878.37304 293.76931,878.53991 295.85909,878.53991 C 298.71295,878.53991 298.73712,878.54856 300.24766,880.10958 C 301.67725,881.58694 301.8728,881.66944 303.57329,881.51261 C 305.37963,881.34602 305.38014,881.34631 306.00555,882.92085 C 306.34959,883.78703 306.98913,884.88042 307.42675,885.3506 C 308.39051,886.38611 311.1456,887.49258 312.31738,887.31474 C 312.89637,887.22686 313.71237,887.69265 314.86465,888.76881 C 316.76495,890.54357 316.96373,891.50009 315.89707,893.73691 C 315.26929,895.05336 315.26929,895.14683 315.89707,895.49815 C 316.87688,896.04648 316.70521,897.08507 315.43333,898.3036 C 314.45747,899.23854 314.36746,899.49186 314.7609,900.19598 C 315.01074,900.6431 315.51775,901.23697 315.88759,901.5157 C 316.61525,902.0641 316.79902,903.70707 316.17577,904.09225 C 315.96444,904.22286 315.79153,905.23817 315.79153,906.34849 C 315.79153,909.19332 314.3927,912.00857 312.66551,912.63982 C 310.47368,913.44088 309.76684,916.04053 311.23378,917.90546 L 312.05548,918.95007 L 311.2844,919.72116 C 310.38367,920.62188 308.51942,920.84687 307.26108,920.20672 z"/>
<path title="Bagalkot" d="M 290.98995,930.76863 C 290.81507,930.48567 290.07104,930.39726 288.94032,930.52508 C 287.05891,930.73775 285.05188,929.94303 285.05188,928.98537 C 285.05188,928.69538 284.58584,928.49185 283.92182,928.49185 C 282.49826,928.49185 282.19268,928.00711 282.1051,925.61001 C 281.9319,920.86962 282.01397,921.0426 279.7685,920.68518 C 278.46951,920.47841 277.75121,920.17608 277.75121,919.83611 C 277.75121,919.54573 277.45679,919.14337 277.09694,918.94199 C 276.7371,918.74061 276.25894,917.921 276.03438,917.12063 C 275.71357,915.97721 275.38037,915.60167 274.47923,915.3679 C 273.84083,915.20228 273.16203,914.68107 272.94814,914.19226 C 272.7368,913.7093 272.19633,913.26171 271.74709,913.19761 C 271.29785,913.13353 270.52596,912.6507 270.03178,912.12467 C 269.26658,911.31015 269.20379,911.05533 269.60857,910.40718 C 269.94592,909.86697 269.9698,909.43299 269.69083,908.91173 C 269.10175,907.81105 269.21359,906.77898 270.03133,905.76911 L 270.76487,904.86324 L 271.25376,905.93626 C 271.95421,907.47356 273.2893,907.22883 273.45279,905.53317 C 273.5598,904.42338 273.70372,904.28437 274.74583,904.28437 C 275.58973,904.28437 276.25614,903.91602 277.12302,902.97041 C 278.85389,901.08232 279.99484,900.90805 281.92283,902.23723 C 283.42021,903.26955 283.48813,903.40088 283.28417,904.86971 C 283.07658,906.36474 283.13064,906.45916 284.92524,907.73594 C 287.25829,909.39578 289.90658,912.07406 290.23359,913.10436 C 290.51541,913.99232 292.27307,914.20053 293.03713,913.43647 C 293.38636,913.08725 293.69239,913.43998 294.36278,914.9644 L 295.23439,916.94636 L 297.05845,916.95543 C 298.60094,916.96308 299.11507,917.17458 300.38913,918.32562 C 301.59156,919.41194 302.38698,919.76556 304.32875,920.07701 C 305.66691,920.29165 306.92602,920.63014 307.12679,920.82922 C 307.32755,921.0283 307.89098,921.19118 308.37884,921.19118 C 309.17379,921.19118 309.21568,921.27271 308.7823,921.97669 C 308.36078,922.66141 308.42058,922.85474 309.24826,923.48335 C 310.06407,924.10296 310.19933,924.51988 310.20887,926.44424 C 310.22105,928.90385 310.38397,928.79923 307.41317,928.23949 C 306.65734,928.09707 305.76835,928.20094 305.21686,928.49608 C 304.46622,928.89781 304.17846,928.89907 303.70089,928.50272 C 303.37667,928.23365 303.11142,927.77277 303.11142,927.47854 C 303.11142,926.80973 300.87782,925.41442 300.21459,925.66893 C 299.94453,925.77256 299.50499,926.40689 299.23783,927.07854 C 298.97068,927.75019 298.72354,928.3437 298.68865,928.39745 C 298.65376,928.45121 298.08041,928.22339 297.41451,927.8912 C 296.74863,927.55901 295.72632,927.34212 295.14272,927.40922 C 294.26329,927.51035 294.0614,927.74011 293.96338,928.75142 C 293.89833,929.42251 293.63896,930.13622 293.38701,930.33743 C 292.56158,930.99662 291.274,931.22823 290.98995,930.76862 L 290.98995,930.76863 z"/>
<path title="Koppal" d="M 296.57925,951.05571 C 296.57925,946.88408 296.43062,946.42492 294.34839,944.16375 C 293.54816,943.29477 293.46977,943.02259 293.87799,942.53071 C 294.14744,942.20606 294.60162,941.94045 294.88732,941.94045 C 295.72104,941.94045 296.66792,939.65731 296.66792,937.64709 C 296.66792,935.5911 297.25341,935.21292 298.20879,936.65179 C 298.71651,937.41648 298.85298,937.44994 299.44842,936.95577 C 299.81642,936.65035 300.26813,936.00431 300.45222,935.52012 C 300.63632,935.03593 301.06325,934.63978 301.40098,934.63978 C 302.56567,934.63978 301.77482,933.31074 300.08294,932.42479 C 298.71396,931.70793 298.30262,931.63592 297.8278,932.02999 C 297.34058,932.43434 297.0076,932.24214 295.76041,930.83673 C 294.94277,929.91536 294.27377,928.92438 294.27377,928.63455 C 294.27377,927.91716 296.5996,927.94347 297.56248,928.67175 C 298.49417,929.37645 299.26897,929.41678 299.26897,928.76057 C 299.26897,927.95116 300.19599,926.19263 300.62439,926.18937 C 301.39156,926.18354 302.64236,927.33311 302.87428,928.25714 C 303.10069,929.15923 303.22156,929.19084 306.21435,929.13066 C 309.22082,929.0702 309.35114,929.10486 310.31451,930.22095 C 311.11733,931.15103 311.6125,931.37369 312.87809,931.37369 C 314.39761,931.37369 314.45686,931.42176 314.77259,932.91067 C 314.95185,933.75601 315.25444,934.7479 315.44502,935.11487 C 315.6356,935.48185 315.79153,936.19146 315.79153,936.69181 C 315.79153,937.8438 317.42463,939.63497 318.47496,939.63497 C 318.91435,939.63497 319.38644,939.93757 319.52403,940.3074 C 319.84003,941.15677 321.26929,943.24362 321.65127,943.41339 C 322.17353,943.6455 321.95127,944.63017 321.37661,944.63017 C 321.06705,944.63017 320.64238,944.9504 320.43291,945.34179 C 319.93857,946.26548 314.82116,948.85687 313.49144,948.85687 C 312.32045,948.85687 308.87511,950.99028 308.87511,951.71537 C 308.87511,951.97971 308.52631,952.51163 308.09999,952.89744 C 307.34519,953.58053 307.29681,953.57202 306.2538,952.57275 C 304.8658,951.24295 303.99601,951.2785 302.22622,952.73731 C 301.13354,953.63799 297.93916,954.94024 296.67531,955.00024 C 296.62247,955.00275 296.57925,953.22771 296.57925,951.05572 L 296.57925,951.05571 z"/>
<path title="Gadag" d="M 286.29713,959.41886 C 285.64154,958.40678 285.16205,958.07876 284.33821,958.07876 C 283.43722,958.07876 283.12672,957.81124 282.55428,956.54178 C 282.1204,955.57961 281.60409,955.0048 281.17374,955.0048 C 280.1546,955.0048 280.02162,954.52607 280.4351,952.34583 C 280.64072,951.26164 280.85582,949.25281 280.91312,947.88176 C 281.0112,945.5347 280.95211,945.33697 279.90228,944.49969 C 278.9461,943.7371 278.83031,943.45042 279.08947,942.48725 C 279.25569,941.8695 279.44254,941.01826 279.50469,940.59559 C 279.56683,940.17292 279.73663,939.35159 279.88199,938.77042 C 280.13088,937.77527 280.07096,937.71341 278.85268,937.70808 C 278.1412,937.70496 277.12681,937.48141 276.59847,937.2113 C 275.77975,936.79273 275.65548,936.4956 275.75718,935.19968 C 275.93242,932.9667 276.84731,931.23019 278.0011,930.94061 C 278.6108,930.78758 279.09812,930.87403 279.27942,931.16737 C 279.76599,931.95467 281.00528,931.45238 281.15018,930.40915 C 281.22326,929.88297 281.4405,929.26051 281.63292,929.02591 C 282.15197,928.39309 283.96153,928.86117 285.016,929.901 C 286.11383,930.98359 287.3692,931.35834 288.7429,931.01357 C 289.36827,930.85661 290.07337,930.97794 290.62097,931.33674 C 291.41271,931.85551 291.63999,931.8387 292.96472,931.16331 L 294.4317,930.4154 L 295.60154,931.53765 C 296.48694,932.38704 297.11034,932.64884 298.16553,932.6144 C 298.94475,932.58897 300.03791,932.88223 300.64386,933.27926 C 301.71635,933.98199 301.71893,933.993 300.88274,934.30232 C 300.41784,934.4743 300.03746,934.85878 300.03746,935.15672 C 300.03746,935.45465 299.78966,935.90407 299.4868,936.15542 C 299.04908,936.51871 298.77327,936.44956 298.14194,935.81823 C 297.70514,935.38141 297.08837,935.02402 296.77137,935.02402 C 296.21549,935.02402 296.14639,935.2345 296.01444,937.3295 C 295.8436,940.04219 295.42209,940.99958 294.08052,941.72206 C 293.34146,942.12006 292.73679,942.60808 292.73679,942.80654 C 292.73679,943.005 293.41818,943.94148 294.25099,944.8876 L 295.76519,946.60782 L 295.88402,951.0945 C 296.0175,956.13306 295.67643,957.20265 293.81778,957.57438 C 293.20822,957.69629 292.53664,958.11902 292.32538,958.51377 C 292.1141,958.90852 291.71478,959.2315 291.43796,959.2315 C 291.16115,959.2315 290.62171,959.57732 290.23919,959.99999 C 289.82631,960.45623 289.0605,960.76655 288.35447,960.76373 C 287.42083,960.76 286.97865,960.47094 286.29714,959.41887 L 286.29713,959.41886 z"/>
<path title="Dharwad" d="M 266.84582,955.9457 C 266.6395,955.40806 266.13927,955.32872 263.72452,955.45066 C 261.08614,955.58389 260.8672,955.53827 261.07053,954.89765 C 261.19241,954.51363 261.07922,953.94287 260.81898,953.62931 C 260.29103,952.99316 260.82684,950.5958 261.84387,949.04362 C 262.66333,947.79295 262.12615,945.9186 260.59904,944.70012 C 259.04679,943.46159 259.01024,942.89086 260.2992,940.01868 C 261.31548,937.75409 262.3173,936.94525 264.10589,936.94525 C 264.61181,936.94525 265.13261,936.77234 265.26322,936.56101 C 265.62695,935.97249 267.60673,936.10447 268.14507,936.75313 C 268.79969,937.5419 269.24673,937.47771 270.05562,936.47876 C 270.66379,935.72771 270.86447,935.68269 271.76834,936.09452 C 272.33145,936.35109 273.23227,936.56101 273.77016,936.56101 C 274.30805,936.56101 275.18779,936.90683 275.72513,937.3295 C 276.32969,937.80504 277.28393,938.09799 278.22838,938.09799 C 279.53551,938.09799 279.71331,938.19454 279.46672,938.77042 C 279.30838,939.14026 279.0021,940.4653 278.78614,941.71497 C 278.40048,943.94668 278.41264,944.00235 279.46987,944.84536 L 280.54625,945.70363 L 280.26536,949.29419 C 280.11088,951.269 279.82174,953.18885 279.62282,953.56053 C 279.1768,954.39393 277.63269,954.44311 276.97032,953.645 C 276.53664,953.12244 276.35668,953.17145 275.42235,954.06659 C 274.64947,954.80705 274.14132,955.00845 273.53303,954.81538 C 273.01726,954.65168 272.45577,954.76436 272.05605,955.11176 C 271.70136,955.42002 270.71951,955.76439 269.87417,955.87702 C 269.02883,955.98966 268.05691,956.19524 267.71434,956.33388 C 267.31911,956.49383 267.00172,956.35198 266.84581,955.9457 L 266.84582,955.9457 z"/>
<path title="Haveri" d="M 280.98578,982.86831 C 280.58044,982.56162 279.86577,982.30518 279.39762,982.29846 C 278.92947,982.29174 277.93524,981.74959 277.18821,981.0937 C 276.084,980.12418 275.82998,979.62996 275.82998,978.45103 C 275.82998,977.63078 275.57963,976.79312 275.25361,976.52256 C 274.93661,976.25947 274.67724,975.80174 274.67724,975.50538 C 274.67724,975.20903 274.22823,974.79584 273.67945,974.58719 C 273.13065,974.37855 272.59176,973.86409 272.48189,973.44396 C 272.35762,972.96877 271.95725,972.6801 271.42245,972.6801 C 270.94961,972.6801 270.08792,972.24004 269.50757,971.70219 C 268.92723,971.16433 267.95484,970.62476 267.34673,970.50314 C 266.06111,970.24601 265.65818,969.81918 265.30442,968.33956 C 265.09546,967.46557 265.2648,967.04784 266.21206,966.10059 C 267.44224,964.87039 267.6094,964.1206 267.00678,962.5356 C 266.72464,961.79349 266.78147,961.41848 267.24659,960.95336 C 267.68779,960.51215 267.80398,959.88039 267.66714,958.66643 C 267.45905,956.82034 267.78582,956.55804 270.30743,956.54703 C 270.96839,956.54414 271.72443,956.28242 271.98752,955.96541 C 272.25061,955.64841 272.99551,955.38904 273.64285,955.38904 C 274.29743,955.38904 275.18897,955.04227 275.65148,954.60775 C 276.37955,953.92377 276.54234,953.89781 276.95856,954.39932 C 277.27582,954.78161 277.80633,954.89771 278.55321,954.74834 C 279.25875,954.60723 279.67244,954.68427 279.67244,954.95677 C 279.67244,955.19452 280.08594,955.38904 280.59133,955.38904 C 281.30215,955.38904 281.64719,955.73135 282.11506,956.90069 C 282.6251,958.17539 282.91695,958.43137 283.97694,958.53374 C 284.89809,958.62269 285.44067,958.98069 286.00748,959.87346 C 286.43291,960.54353 287.10097,961.18031 287.49207,961.28851 C 287.92623,961.40863 288.0921,961.66494 287.91799,961.94667 C 287.14723,963.1938 287.16153,967.60013 287.93913,968.45938 C 288.25315,968.80638 288.51009,969.67535 288.51009,970.39045 C 288.51009,971.33545 288.78735,971.9117 289.52506,972.49993 C 290.47722,973.25916 290.50695,973.37726 290.00537,974.40834 C 289.7113,975.01285 288.95197,975.80151 288.31796,976.16092 C 287.68396,976.52034 287.21274,977.02096 287.27081,977.27341 C 287.32888,977.52586 287.18426,977.61367 286.94942,977.46853 C 286.34829,977.09701 283.89914,979.57846 283.89914,980.55907 C 283.89914,981.39569 283.39052,982.17781 282.33063,982.97102 C 281.85442,983.32739 281.56309,983.30516 280.98577,982.86832 L 280.98578,982.86831 z"/>
<path title="Shimoga" d="M 264.68686,1009.4565 C 263.80765,1009.0135 263.70996,1008.7055 263.53412,1005.8224 L 263.342,1002.6724 L 261.13258,1000.4413 C 259.91741,999.21416 258.91852,997.9558 258.91284,997.64492 C 258.89083,996.44113 256.84943,994.56929 255.28245,994.31607 C 254.27026,994.15249 253.36301,993.65444 252.59273,992.83949 C 251.50507,991.68875 251.4377,991.44505 251.54433,989.04693 L 251.65827,986.48414 L 253.08132,986.5946 C 254.50204,986.70489 254.50421,986.70273 254.41977,985.26414 C 254.34683,984.02135 254.44834,983.82322 255.15801,983.82322 C 255.61055,983.82322 256.28046,984.0944 256.6467,984.42584 C 257.1374,984.86992 257.49915,984.92708 258.02181,984.64312 C 258.41188,984.4312 259.26983,984.04162 259.92833,983.77739 C 260.69957,983.46793 261.28067,982.86816 261.56137,982.0919 C 262.17442,980.39656 262.11221,979.84645 261.17238,978.65166 C 260.39182,977.65931 260.37737,977.5074 260.90271,975.81575 C 261.43819,974.09152 262.76563,973.05302 262.76563,974.35835 C 262.76563,974.67837 262.96686,975.06459 263.21281,975.21659 C 263.83293,975.59984 265.56029,973.50714 265.33497,972.64554 C 265.23571,972.2659 265.47712,971.66327 265.87147,971.30639 C 266.48843,970.74805 266.75273,970.72555 267.7657,971.14514 C 268.41317,971.41333 269.11531,971.95487 269.32601,972.34855 C 269.55557,972.77752 270.128,973.06434 270.75451,973.06434 C 271.54653,973.06434 271.9236,973.34375 272.31018,974.21708 C 272.59081,974.85109 273.03278,975.36982 273.29233,975.36982 C 274.10771,975.36982 275.44573,977.58147 275.44573,978.92922 C 275.44573,980.45074 277.4594,982.67049 278.8397,982.67049 C 279.31259,982.67049 280.12567,982.94974 280.64657,983.29105 C 281.44489,983.81413 281.59367,984.21444 281.59367,985.83935 C 281.59367,987.11866 281.32591,988.20033 280.79764,989.05508 C 279.85883,990.57412 279.94442,992.01859 280.98501,992.2171 C 281.76844,992.36654 284.61438,991.58789 285.22479,991.05708 C 285.42555,990.88249 285.92522,990.73964 286.33516,990.73964 C 286.74509,990.73964 287.28688,990.45741 287.53912,990.11245 C 287.96252,989.53341 288.07388,989.53514 288.98936,990.13499 C 289.94049,990.75819 289.99123,990.75243 290.23204,989.99369 C 290.37012,989.55863 290.72752,989.20266 291.02626,989.20266 C 291.76167,989.20266 292.13241,990.86776 291.61307,991.83817 C 291.34135,992.34589 291.28185,993.78653 291.44496,995.90854 L 291.69742,999.19305 L 290.50997,999.19305 C 289.85686,999.19305 288.74795,999.53205 288.04571,999.94637 C 286.2597,1001.0002 282.70805,1001.8717 281.90711,1001.4528 C 281.11644,1001.0392 279.13668,1001.0077 278.74914,1001.4025 C 278.59355,1001.561 277.7434,1001.8793 276.85993,1002.1099 C 275.78604,1002.3902 275.30286,1002.7086 275.4022,1003.0705 C 275.95838,1005.097 275.92221,1005.341 275.06552,1005.341 C 274.5958,1005.341 273.87145,1005.7733 273.45586,1006.3016 C 272.83943,1007.0852 272.36419,1007.2622 270.87606,1007.2622 C 269.34672,1007.2622 268.79794,1007.4796 267.48072,1008.6071 C 265.67336,1010.1541 265.92145,1010.0787 264.68686,1009.4565 L 264.68686,1009.4565 z"/>
<path title="Davanagere" d="M 292.13629,999.15402 C 291.99242,998.92122 291.93899,996.56393 292.01756,993.91561 C 292.14529,989.61037 292.08751,989.05502 291.47186,988.67126 C 290.90887,988.32034 290.6561,988.40926 290.08592,989.15887 C 289.62474,989.76517 289.29717,989.92785 289.11876,989.63918 C 288.70942,988.97683 287.44331,989.1173 287.02102,989.87189 C 286.81503,990.23996 286.5312,990.42582 286.39029,990.28491 C 286.24937,990.144 285.35752,990.36157 284.40838,990.76842 C 282.43758,991.6132 280.43969,991.74392 280.44346,991.02783 C 280.44485,990.76366 280.78954,990.02879 281.20942,989.39478 C 281.74519,988.5858 281.9736,987.591 281.97538,986.0588 C 281.97768,984.07285 282.08209,983.80137 283.13065,983.05473 C 283.91138,982.4988 284.28338,981.90767 284.28338,981.22298 C 284.28338,980.50354 284.84992,979.68016 286.24829,978.3673 C 287.32899,977.35269 288.42276,976.52256 288.67891,976.52256 C 288.93505,976.52256 289.54163,976.09996 290.02686,975.58346 C 290.69448,974.87282 290.86403,974.33727 290.72383,973.38205 C 290.57316,972.35545 290.7438,971.92803 291.63768,971.09302 C 292.53619,970.25367 292.73679,969.74653 292.73679,968.31412 L 292.73679,966.56194 L 294.71815,965.97354 C 296.07874,965.56949 296.8468,965.50738 297.16963,965.77531 C 297.45015,966.00813 298.51064,966.06312 299.79922,965.91167 L 301.95868,965.65787 L 301.95868,967.44812 C 301.95868,968.72984 302.24063,969.66442 302.95128,970.73827 C 304.19197,972.61308 304.72409,972.8202 306.17558,971.99328 C 307.27944,971.36441 307.39468,971.3693 308.77531,972.10373 C 309.75791,972.62643 310.25938,973.17946 310.34321,973.83284 C 310.52274,975.2322 311.44857,975.75406 313.75162,975.75406 C 314.87358,975.75406 315.79153,975.8726 315.79153,976.01748 C 315.79153,976.16236 315.46286,976.63787 315.06115,977.07416 C 314.65946,977.51045 314.09287,978.58292 313.80209,979.45744 C 313.43533,980.56046 312.73226,981.46052 311.50664,982.39606 C 308.57348,984.63498 308.33756,984.70534 306.24967,983.96379 L 304.39786,983.30607 L 302.12395,984.62134 C 300.87331,985.34471 299.50317,986.02987 299.07921,986.14389 C 298.56585,986.28196 298.27174,986.73121 298.19874,987.48875 C 298.13845,988.1144 297.90466,988.99373 297.67921,989.44282 C 297.3867,990.02545 297.39059,990.48599 297.69276,991.0506 C 297.92565,991.48579 298.11623,992.38055 298.11623,993.03894 C 298.11623,993.69732 298.38811,994.76177 298.7204,995.40436 C 299.51224,996.93559 299.23461,997.57396 297.86364,997.37451 C 297.02486,997.25248 296.50944,997.48967 295.6428,998.39645 C 294.48943,999.60323 292.65842,999.99883 292.1363,999.15402 L 292.13629,999.15402 z"/>
<path title="Chikmagalur" d="M 277.62314,1029.2923 C 277.16264,1028.8318 277.35381,1027.236 277.98482,1026.273 C 278.59655,1025.3394 278.58568,1025.3227 276.88964,1024.5957 C 275.65639,1024.0671 274.95919,1023.4471 274.40031,1022.3822 L 273.62399,1020.9029 L 270.54226,1021.0169 C 267.61622,1021.1251 267.42073,1021.0803 266.67336,1020.1301 C 266.24043,1019.5798 265.582,1018.3181 265.2102,1017.3265 C 264.83839,1016.3348 264.37712,1015.4154 264.18516,1015.2833 C 263.6723,1014.9303 264.24316,1013.469 265.06589,1013.0287 C 265.45707,1012.8193 265.89091,1012.13 266.02998,1011.4968 C 266.17682,1010.8283 266.94392,1009.7797 267.85948,1008.996 C 269.17183,1007.8727 269.73537,1007.6465 271.22121,1007.6465 C 272.62849,1007.6465 273.19731,1007.4431 273.90875,1006.6858 C 274.4051,1006.1575 275.10838,1005.7252 275.47161,1005.7252 C 276.32916,1005.7252 276.70346,1004.7181 276.19738,1003.7725 C 275.86101,1003.144 275.96582,1002.9603 276.87119,1002.5911 C 277.46086,1002.3507 279.49953,1002.1107 281.40154,1002.0577 C 284.19296,1001.9799 285.30428,1001.7618 287.16523,1000.9264 C 289.1653,1000.0286 289.80027,999.92071 291.95864,1000.1122 C 294.41758,1000.3304 294.46318,1000.3168 295.87005,998.94302 C 297.58026,997.27306 298.18376,997.40562 299.186,999.67136 C 300.49575,1002.6323 305.1005,1008.1676 306.78743,1008.809 C 308.46924,1009.4484 307.7435,1010.3359 305.06878,1010.9108 C 304.34898,1011.0655 302.92763,1011.7901 301.91022,1012.521 C 300.89281,1013.252 299.40681,1014.0265 298.608,1014.2422 C 296.6062,1014.7829 295.14685,1016.2649 294.84251,1018.0662 C 294.70426,1018.8845 294.46721,1019.6306 294.31573,1019.7243 C 294.16424,1019.8179 292.97329,1019.6257 291.66916,1019.2972 C 289.15357,1018.6635 289.15541,1018.6632 286.78438,1020.0628 C 285.34968,1020.9097 285.22466,1021.1274 284.8455,1023.439 C 284.62259,1024.798 284.30826,1026.1234 284.14699,1026.3843 C 283.98574,1026.6452 283.16652,1026.8587 282.32652,1026.8587 C 280.98837,1026.8587 280.701,1027.0253 280.00577,1028.2036 C 279.27399,1029.4439 278.24492,1029.9141 277.62313,1029.2923 L 277.62314,1029.2923 z"/>
<path title="Hassan" d="M 292.4081,1042.1034 C 291.90001,1041.4912 291.77158,1038.7768 292.15038,1036.657 C 292.40388,1035.2384 292.33238,1035.0517 291.22244,1034.2339 C 290.00366,1033.3359 288.52073,1033.3617 288.49969,1034.2814 C 288.49396,1034.5313 287.9011,1035.3682 287.1822,1036.1412 C 285.9971,1037.4154 285.65719,1037.5589 283.54046,1037.6782 L 281.20581,1037.8097 L 280.64027,1036.0806 C 280.32922,1035.1296 279.8865,1033.4581 279.65646,1032.3662 C 279.26738,1030.5193 279.30728,1030.2714 280.22864,1028.8119 C 281.10881,1027.4176 281.38437,1027.243 282.70417,1027.243 C 284.591,1027.243 284.97125,1026.7582 285.36973,1023.8444 C 285.5477,1022.543 285.76513,1021.4281 285.85291,1021.3667 C 285.94068,1021.3054 286.76037,1020.7758 287.67445,1020.1899 L 289.33641,1019.1246 L 291.70903,1019.9064 L 294.08165,1020.6882 L 294.75408,1019.8884 C 295.12392,1019.4486 295.42651,1018.6623 295.42651,1018.1411 C 295.42651,1016.9979 297.36199,1014.9471 298.44085,1014.9471 C 298.86322,1014.9471 300.36184,1014.1739 301.77108,1013.2289 C 303.18032,1012.2839 304.96619,1011.3972 305.73967,1011.2584 C 306.51315,1011.1197 307.4009,1010.87 307.71245,1010.7037 C 308.02399,1010.5374 308.56848,1010.5563 308.92242,1010.7457 C 309.42814,1011.0164 309.50372,1011.366 309.27542,1012.3783 C 308.88755,1014.098 308.55664,1014.6048 306.85782,1016.0805 C 305.5345,1017.23 305.4169,1017.4969 305.4169,1019.3505 C 305.4169,1022.2876 307.16618,1024.4761 310.90586,1026.2178 C 312.43064,1026.928 313.99953,1027.8725 314.3923,1028.3169 C 315.0901,1029.1063 315.08579,1029.1823 314.20362,1031.6421 C 313.54619,1033.4752 313.11289,1034.1594 312.60938,1034.1594 C 312.2291,1034.1594 311.42696,1034.5224 310.82686,1034.9661 C 309.94874,1035.6153 309.58171,1035.6903 308.94646,1035.3503 C 307.88559,1034.7826 305.98045,1034.8149 305.53316,1035.4082 C 305.33402,1035.6724 304.9363,1036.6666 304.64934,1037.6176 C 304.08272,1039.4955 303.25871,1040.6916 302.53161,1040.6916 C 302.27822,1040.6916 301.60447,1041.1239 301.03438,1041.6522 C 300.08281,1042.5341 299.70419,1042.6128 296.41437,1042.6128 C 293.90708,1042.6128 292.70391,1042.4598 292.4081,1042.1034 L 292.4081,1042.1034 z"/>
<path title="Mandya" d="M 326.31773,1054.3157 C 325.61154,1053.5669 324.7549,1052.3667 324.4141,1051.6485 C 324.07332,1050.9303 323.36092,1050.0586 322.83101,1049.7114 C 321.90125,1049.1022 321.78767,1049.1294 319.58463,1050.4892 L 317.30173,1051.8983 L 315.68208,1051.0303 C 314.79126,1050.5528 313.52232,1049.9072 312.86218,1049.5955 C 312.20206,1049.2839 311.39066,1048.5696 311.05909,1048.0084 C 310.72752,1047.4471 308.97718,1045.5678 307.16942,1043.8323 C 304.48913,1041.2591 303.94982,1040.5541 304.24689,1040.0118 C 304.65329,1039.2698 305.60036,1037.0172 305.94007,1035.9846 C 306.19941,1035.1962 306.98948,1035.1363 308.74729,1035.772 C 309.8726,1036.1789 310.15023,1036.1347 311.16054,1035.3877 C 311.78844,1034.9235 312.63185,1034.5436 313.03477,1034.5436 C 313.58137,1034.5436 313.98287,1033.9525 314.61642,1032.2149 C 315.08342,1030.9342 315.755,1029.7852 316.10882,1029.6616 C 316.46266,1029.5381 317.0454,1029.0731 317.40383,1028.6282 C 317.92543,1027.9808 318.1517,1027.9152 318.53735,1028.2997 C 318.80237,1028.5638 319.37366,1028.78 319.8069,1028.78 C 320.72904,1028.78 322.70795,1031.0916 322.70795,1032.1687 C 322.70795,1032.5758 323.48605,1033.626 324.43706,1034.5026 C 325.38806,1035.3792 326.16616,1036.2428 326.16616,1036.4217 C 326.16616,1036.6006 326.81458,1037.1787 327.60708,1037.7064 C 329.09685,1038.6984 329.2565,1039.0218 330.92704,1044.4324 C 331.99398,1047.8881 333.08331,1049.145 335.01124,1049.145 C 336.85636,1049.145 337.69353,1050.0839 337.69353,1052.1531 C 337.69353,1053.6684 337.25785,1054.221 336.73292,1053.3717 C 336.6023,1053.1604 335.20881,1052.9874 333.63627,1052.9874 L 330.77711,1052.9874 L 330.77711,1054.3323 C 330.77711,1055.6523 330.74776,1055.6772 329.18944,1055.6772 C 327.86902,1055.6772 327.38562,1055.448 326.31775,1054.3157 L 326.31773,1054.3157 z"/>
</g>
<g class="label" text-anchor="middle" font-size="6" font-family="sans-serif">
<text x="345" y="861.4">Bidar</text>
<text x="329.5" y="886.1">Gulbarga</text>
<text x="330.6" y="906.4">Yadgir</text>
<text x="328.0" y="926.1">Raichur</text>
<text x="311.5" y="959.2">Bellary</text>
<text x="318.9" y="992">Chitradurga</text>
<text x="324" y="1015">Tumkur</text>
<text x="357.1" y="1015">Chikkaballapura</text>
<text x="372" y="1030.0">Kolar</text>
<text x="348.5" y="1025.3">BLR Rural</text>
<text x="348.0" y="1033.2">Bangalore</text>
<text x="338.0" y="1040.6">Ramanagara</text>
<text x="324.0" y="1067.1">Chamarajanagar</text>
<text x="308.7" y="1057.7">Mysore</text>
<text x="285.5" y="1049.7">Kodagu</text>
<text x="266.3" y="1037">Dakshina Kannada</text>
<text x="257.3" y="1006">Udupi</text>
<text x="251.6" y="962.8">Uttara Kannada</text>
<text x="262.2" y="928.2">Belgaum</text>
<text x="298.5" y="900">Bijapur</text>
<text x="289.2" y="919.3">Bagalkot</text>
<text x="305.1" y="939.0">Koppal</text>
<text x="288.1" y="945">Gadag</text>
<text x="270.3" y="953">Dharwad</text>
<text x="278.2" y="972">Haveri</text>
<text x="271.6" y="989.3">Davanagere</text>
<text x="300" y="980">Shimoga</text>
<text x="282.2" y="1014.4">Chikmagalur</text>
<text x="298.0" y="1028.0">Hassan</text>
<text x="320.9" y="1047">Mandya</text>
</g>
</svg>

