<svg xmlns="http://www.w3.org/2000/svg" viewBox="248 1031 92 171">
<g title="Kerala" fill="#328707">
<path title="Kasargod" d="M 260.91524,1056.7426 C 260.79569,1056.4594 260.05259,1054.6688 259.26391,1052.7635 C 258.47523,1050.8582 257.32568,1048.1378 256.70935,1046.7181 C 256.09301,1045.2985 255.23611,1043.1894 254.80512,1042.0312 C 254.37413,1040.8731 253.81622,1039.5144 253.56532,1039.0119 C 253.14885,1038.1778 253.10916,1037.9916 253.10916,1036.8723 L 253.10916,1035.6462 L 255.49548,1035.6462 C 256.80797,1035.6462 257.99421,1035.7064 258.13159,1035.7799 C 258.41818,1035.9333 259.38456,1037.5516 259.62547,1038.2815 C 259.89762,1039.1062 260.6704,1039.2927 261.37131,1038.7029 C 261.95884,1038.2085 262.5156,1038.2554 263.31717,1038.8666 C 263.96756,1039.3626 263.97726,1039.3812 263.97726,1040.1272 C 263.97726,1040.8766 263.98592,1040.8928 264.82633,1041.7166 C 265.6749,1042.5483 267.11318,1043.3911 268.01884,1043.5874 C 268.44311,1043.6793 268.46036,1043.7088 268.46036,1044.3418 C 268.46036,1045.1409 268.64196,1045.3499 269.57814,1045.6279 C 270.45629,1045.8887 270.8272,1045.8895 271.04153,1045.6313 C 271.26144,1045.3663 271.53434,1045.3714 271.63833,1045.6424 C 271.68368,1045.7606 271.72079,1047.1007 271.72079,1048.6203 L 271.72079,1051.3834 L 271.3472,1051.4587 C 271.14172,1051.5001 270.40365,1051.6299 269.70703,1051.7471 C 269.01041,1051.8643 268.137,1052.0798 267.76612,1052.226 C 267.38679,1052.3755 266.76593,1052.4918 266.34693,1052.4918 C 265.23725,1052.4918 264.1532,1052.9923 262.83036,1054.1154 L 261.70687,1055.0692 L 261.53152,1056.0943 C 261.43508,1056.6581 261.30587,1057.1505 261.24439,1057.1885 C 261.18291,1057.2265 261.03479,1057.0258 260.91524,1056.7426 z"/>
<path title="Kannur" d="M 276.01852,1070.7917 C 275.96571,1070.5833 275.50547,1070.2504 274.50683,1069.6984 L 273.07106,1068.9046 L 271.81856,1069.1214 C 271.12968,1069.2406 270.4285,1069.3757 270.26039,1069.4215 C 270.08476,1069.4694 269.95472,1069.4443 269.95472,1069.3625 C 269.95472,1069.2841 269.45038,1068.8536 268.83395,1068.4058 C 266.80237,1066.93 265.97231,1065.9331 264.17998,1062.8165 C 263.2991,1061.2848 262.3363,1059.6122 262.04042,1059.0996 L 261.50248,1058.1676 L 261.66418,1057.3335 C 262.08969,1055.1388 262.0047,1055.3101 263.13638,1054.3656 C 264.38606,1053.3227 265.33693,1052.8993 266.42944,1052.8993 C 266.91122,1052.8993 267.45842,1052.7951 267.844,1052.6298 C 268.34601,1052.4146 271.26664,1051.8125 271.80848,1051.8125 C 272.03206,1051.8125 272.40005,1052.5892 272.40005,1053.0611 C 272.40005,1053.4535 272.49794,1053.5937 273.07021,1054.0209 C 273.54388,1054.3746 273.98097,1054.9108 274.56097,1055.85 C 275.44293,1057.278 276.78323,1058.8768 277.09844,1058.8768 C 277.20492,1058.8768 278.11057,1059.178 279.11101,1059.5461 C 280.887,1060.1996 282.77675,1061.2295 283.5824,1061.983 C 283.7926,1062.1795 284.18997,1062.4032 284.46544,1062.4801 C 284.89296,1062.5994 284.97246,1062.6831 285.00841,1063.0516 C 285.04403,1063.417 285.22641,1063.6137 286.19304,1064.3296 C 287.1609,1065.0465 287.31085,1065.2084 287.17386,1065.3886 C 287.08493,1065.5057 286.47496,1066.2486 285.81837,1067.0395 L 284.62458,1068.4776 L 283.16522,1068.9061 C 282.12833,1069.2106 281.62721,1069.4294 281.43416,1069.6622 C 281.20186,1069.9423 280.97529,1070.0103 279.87187,1070.1308 C 279.12185,1070.2127 278.23988,1070.4097 277.76618,1070.6011 C 277.31787,1070.7823 276.75833,1070.9667 276.52276,1071.0109 C 276.16043,1071.079 276.08276,1071.0452 276.01853,1070.7917 L 276.01852,1070.7917 z"/>
<path title="Wayanad" d="M 293.15914,1081.7338 C 293.0378,1081.5283 292.8949,1081.1275 292.84157,1080.843 C 292.70011,1080.0885 292.31646,1079.9013 290.5153,1079.7082 C 288.80166,1079.5246 288.1588,1079.2623 288.1588,1078.7469 C 288.1588,1078.5264 287.96957,1078.3041 287.51893,1077.9951 C 286.5303,1077.3172 286.30822,1077.0489 286.20577,1076.4082 C 286.07079,1075.5641 284.78758,1073.5413 283.61622,1072.3261 C 281.9829,1070.6317 281.62758,1070.154 281.78368,1069.8623 C 281.85822,1069.723 281.98669,1069.6091 282.06918,1069.6091 C 282.15167,1069.6091 282.81293,1069.4258 283.53866,1069.2019 L 284.85816,1068.7947 L 286.12596,1067.266 C 286.82324,1066.4252 287.45923,1065.6627 287.53925,1065.5716 C 287.65067,1065.4447 287.88912,1065.5482 288.55726,1066.0131 C 289.29248,1066.5248 289.53144,1066.6203 290.07602,1066.6203 C 290.43147,1066.6203 290.89439,1066.5546 291.10473,1066.4742 C 291.31507,1066.3938 292.17315,1066.1884 293.01158,1066.0177 C 294.80529,1065.6524 294.7764,1065.6392 295.24721,1067.0404 C 295.40808,1067.5192 295.68141,1068.1264 295.85462,1068.3897 C 296.33901,1069.1261 297.3743,1069.8286 298.23992,1070.0083 C 298.91731,1070.149 299.08689,1070.2628 299.93102,1071.1435 C 300.44704,1071.6818 301.16865,1072.4779 301.53459,1072.9125 C 302.36998,1073.9046 302.83309,1074.1653 303.40575,1073.9656 C 304.02589,1073.7495 304.66248,1073.7888 304.90175,1074.0582 C 305.01791,1074.1889 305.16973,1074.7437 305.23913,1075.2911 L 305.36533,1076.2862 L 304.33578,1076.8203 C 303.76953,1077.114 302.84165,1077.6815 302.27383,1078.0813 L 301.24144,1078.8083 L 300.55158,1078.6669 C 299.76271,1078.5053 299.43447,1078.661 299.43447,1079.1968 C 299.43447,1079.371 299.36352,1079.6691 299.27681,1079.8594 C 299.13943,1080.161 299.03446,1080.2055 298.46068,1080.2055 C 297.36989,1080.2055 294.99472,1080.9711 294.19164,1081.5815 C 293.81114,1081.8707 293.47281,1082.1074 293.43979,1082.1074 C 293.40676,1082.1074 293.28047,1081.9393 293.15913,1081.7338 L 293.15914,1081.7338 z"/>
<path title="Kozhikode" d="M 281.42691,1091.5151 C 281.30824,1090.5365 281.32573,1090.5692 279.72027,1088.3263 C 278.23689,1086.254 278.06039,1085.9363 276.96757,1083.3722 C 276.3376,1081.894 276.20389,1081.4442 276.20389,1080.8029 C 276.20389,1080.0552 276.17349,1079.9886 275.4091,1079.0626 C 274.97197,1078.533 274.36127,1077.6522 274.05199,1077.1052 C 273.74271,1076.5581 273.21496,1075.7609 272.87922,1075.3335 C 272.54347,1074.9062 272.23105,1074.3679 272.18494,1074.1374 L 272.10111,1073.7182 L 273.71098,1073.4858 C 274.59641,1073.3579 275.46872,1073.2094 275.64946,1073.1557 C 276.02376,1073.0444 276.38321,1072.207 276.26272,1071.7269 C 276.19765,1071.4677 276.26781,1071.414 276.84158,1071.2843 C 277.20067,1071.2031 277.83071,1071.0128 278.24166,1070.8613 C 278.65261,1070.7099 279.52677,1070.5421 280.18424,1070.4885 L 281.37964,1070.3909 L 281.87781,1070.9849 C 282.15181,1071.3116 282.81028,1072.0374 283.34107,1072.5978 C 284.63506,1073.9639 285.69533,1075.672 285.88608,1076.6977 C 286.02903,1077.4663 286.0558,1077.5025 286.87627,1078.0371 C 287.4759,1078.4278 287.742,1078.6928 287.79729,1078.9545 C 287.93356,1079.5994 288.62309,1079.903 290.3563,1080.0813 C 291.20243,1080.1683 291.99673,1080.2925 292.12141,1080.3572 C 292.2461,1080.4219 292.38964,1080.6741 292.4404,1080.9176 C 292.49115,1081.161 292.67903,1081.6148 292.8579,1081.9259 L 293.18311,1082.4916 L 292.75712,1083.4882 C 292.52283,1084.0363 292.25549,1084.7686 292.16304,1085.1155 C 292.06786,1085.4726 291.66946,1086.1863 291.2447,1086.7606 C 290.63602,1087.5837 290.31895,1087.8724 289.56437,1088.2904 C 289.05282,1088.5739 288.14522,1089.156 287.54747,1089.584 C 286.72023,1090.1763 286.2011,1090.4348 285.37385,1090.6662 C 284.77611,1090.8334 283.6921,1091.2686 282.96496,1091.6332 C 282.23781,1091.9979 281.6156,1092.2962 281.58226,1092.2962 C 281.54891,1092.2962 281.47901,1091.9447 281.42691,1091.5151 L 281.42691,1091.5151 z"/>
<path title="Malappuram" d="M 285.10702,1109.2437 C 284.85335,1108.1072 284.62747,1106.3395 284.6271,1105.4879 C 284.62678,1104.7281 284.52227,1104.1649 284.19854,1103.1784 C 283.85823,1102.1413 283.752,1101.5394 283.68061,1100.2435 C 283.60205,1098.8177 283.53652,1098.4908 283.15777,1097.6358 C 282.91961,1097.0982 282.72339,1096.5175 282.72173,1096.3453 C 282.72006,1096.173 282.59916,1095.8793 282.45305,1095.6925 C 282.27738,1095.4679 282.18636,1095.1381 282.18437,1094.7189 C 282.18271,1094.3701 282.05754,1093.796 281.90623,1093.443 C 281.75492,1093.09 281.64793,1092.7863 281.66849,1092.7681 C 281.95057,1092.5183 284.8102,1091.2367 285.59371,1091.0089 C 286.36485,1090.7848 286.92792,1090.4958 287.77,1089.892 C 288.39479,1089.444 289.32623,1088.8446 289.83985,1088.56 C 290.61839,1088.1287 290.90681,1087.8609 291.57392,1086.9502 C 292.01403,1086.3493 292.43724,1085.61 292.51438,1085.3071 C 292.59151,1085.0043 292.84859,1084.2772 293.08566,1083.6913 C 293.42615,1082.8499 293.64599,1082.5194 294.13215,1082.1181 C 294.47065,1081.8387 294.81597,1081.5705 294.89954,1081.5222 C 295.25307,1081.3175 298.24299,1080.4772 298.61783,1080.4772 C 299.01737,1080.4772 299.02691,1080.4928 299.02691,1081.1467 C 299.02691,1081.985 299.22233,1082.1891 300.14416,1082.3136 C 301.06153,1082.4375 300.94204,1082.3696 304.05341,1084.5344 C 306.83551,1086.4701 308.29394,1087.7191 308.51606,1088.3563 C 308.69252,1088.8625 308.39284,1089.3075 307.87551,1089.3075 C 307.42436,1089.3075 307.29324,1089.411 306.38857,1090.4807 C 306.00085,1090.9391 305.68363,1091.4435 305.68363,1091.6015 C 305.68363,1091.8755 305.61853,1091.8887 304.26927,1091.8887 C 302.87446,1091.8887 302.85031,1091.8941 302.52247,1092.2838 C 302.33963,1092.5011 302.12286,1092.9456 302.04077,1093.2716 C 301.8678,1093.9585 301.34302,1094.5058 300.64314,1094.7291 C 299.9622,1094.9464 299.29862,1095.7242 299.29862,1096.3051 C 299.29862,1096.4277 299.54315,1096.9397 299.84202,1097.4427 C 300.44783,1098.4625 300.50432,1098.8612 300.11372,1099.3605 C 299.9622,1099.5542 299.84676,1099.9142 299.84504,1100.1985 C 299.83911,1101.1772 300.02114,1101.1266 296.50757,1101.1266 L 293.33804,1101.1266 L 292.89902,1101.7379 C 292.61303,1102.1361 292.35837,1102.3492 292.16846,1102.3492 C 292.00812,1102.3492 291.31769,1102.7619 290.63416,1103.2662 L 289.39138,1104.1832 L 289.39235,1105.6097 C 289.39287,1106.3942 289.44329,1107.2944 289.50439,1107.6102 C 289.60609,1108.1357 289.58603,1108.2036 289.26735,1108.4124 C 289.07587,1108.5379 288.64114,1108.7105 288.30127,1108.796 C 287.88948,1108.8997 287.63859,1109.0513 287.54922,1109.2505 C 287.42676,1109.5234 287.31786,1109.5494 286.29518,1109.5494 C 285.24456,1109.5494 285.17103,1109.5304 285.10702,1109.2437 L 285.10702,1109.2437 z"/>
<path title="Palakkad" d="M 314.3047,1122.2954 C 313.93413,1122.0685 313.346,1121.6067 312.99775,1121.2691 L 312.36456,1120.6553 L 310.59376,1120.5144 L 308.82297,1120.3735 L 308.65081,1119.954 C 308.37049,1119.2708 307.35534,1118.2919 305.64526,1117.0558 C 303.96546,1115.8415 302.01564,1113.8367 302.01564,1113.3237 C 302.01564,1113.1792 302.26965,1112.626 302.58011,1112.0945 C 302.89056,1111.5629 303.2252,1110.8601 303.32375,1110.5326 C 303.4223,1110.2052 303.80791,1109.5722 304.18066,1109.1261 C 305.10383,1108.0213 305.29945,1106.9499 304.59543,1106.8544 C 304.40939,1106.8292 304.12249,1106.6836 303.95786,1106.531 C 303.68447,1106.2775 303.60207,1106.2676 303.00691,1106.4167 C 302.6485,1106.5065 302.21872,1106.7076 302.05183,1106.8636 C 301.75757,1107.1386 301.69383,1107.1426 299.94613,1106.9952 C 298.9549,1106.9116 297.94115,1106.7722 297.69338,1106.6855 C 297.41545,1106.5882 296.97311,1106.5642 296.53864,1106.6229 C 296.15131,1106.6752 295.46761,1106.759 295.0193,1106.8091 C 294.25389,1106.8947 292.6419,1107.6351 292.6419,1107.9011 C 292.6419,1108.1054 291.08813,1108.3315 290.5594,1108.2041 C 290.27329,1108.1352 290.02111,1108.0581 289.99899,1108.0329 C 289.88236,1107.8999 289.65393,1106.0825 289.65888,1105.3268 L 289.66458,1104.4549 L 290.81023,1103.6059 C 291.48698,1103.1043 292.0928,1102.7568 292.29044,1102.7568 C 292.53136,1102.7568 292.7479,1102.5857 293.06404,1102.1455 L 293.50307,1101.5341 L 296.66906,1101.5341 L 299.83505,1101.5341 L 300.04231,1101.1333 C 300.1563,1100.9129 300.24998,1100.5308 300.25047,1100.2842 C 300.25096,1100.0377 300.37283,1099.6526 300.52128,1099.4284 C 300.91418,1098.8352 300.85881,1098.4165 300.24957,1097.3739 C 299.9507,1096.8625 299.70617,1096.3408 299.70617,1096.2145 C 299.70617,1095.8321 300.33748,1095.2065 300.89068,1095.0407 C 301.58242,1094.8335 302.22713,1094.1367 302.42434,1093.383 C 302.69178,1092.3611 302.8099,1092.2962 304.4033,1092.2962 L 305.79789,1092.2962 L 305.89018,1092.7164 C 306.0563,1093.4728 306.45803,1093.5412 310.53252,1093.5075 C 313.46081,1093.4833 314.15848,1093.513 314.31275,1093.6682 C 314.49129,1093.8478 314.92152,1095.908 314.92152,1096.5834 C 314.92152,1096.8061 315.19999,1097.1214 315.89569,1097.6864 C 316.43148,1098.1215 316.89023,1098.5394 316.91514,1098.615 C 316.98202,1098.8182 315.6951,1099.1226 314.38643,1099.2132 L 313.24,1099.2926 L 313.05898,1099.9718 C 312.91776,1100.5017 312.91102,1100.8303 313.02831,1101.4662 C 313.29856,1102.9314 314.01887,1103.7136 315.70938,1104.3773 C 317.22126,1104.971 317.47017,1105.1509 317.56626,1105.7197 C 317.6359,1106.1319 317.85727,1106.4453 318.5977,1107.1801 L 319.54047,1108.1156 L 319.54011,1109.0023 C 319.53981,1109.78 319.47937,1109.9891 319.04855,1110.7036 C 318.77837,1111.1517 318.28947,1112.1224 317.96209,1112.8608 L 317.36685,1114.2033 L 317.36685,1117.7767 L 317.36685,1121.3501 L 317.06118,1121.4463 C 316.89306,1121.4992 316.41928,1121.7678 316.00833,1122.0431 C 315.59738,1122.3185 315.19755,1122.5807 315.11981,1122.6258 C 315.04207,1122.6709 314.67527,1122.5222 314.3047,1122.2954 z"/>
<path title="Thrissur" d="M 291.76031,1127.8062 C 291.63842,1127.3869 291.32427,1126.124 291.06221,1124.9996 C 290.75669,1123.6888 290.41845,1122.6231 290.11945,1122.0294 C 289.85283,1121.5 289.65317,1120.8994 289.65317,1120.6268 C 289.65317,1120.2654 289.47117,1119.8965 288.90048,1119.1011 L 288.14779,1118.0521 L 288.59482,1117.8419 C 288.96383,1117.6684 289.04906,1117.5451 289.08323,1117.1356 C 289.13408,1116.5262 288.75939,1116.2061 287.99531,1116.2061 C 287.57445,1116.2061 287.47401,1116.1524 287.42375,1115.9004 C 287.39021,1115.7323 287.20213,1114.9223 287.00579,1114.1004 C 286.67749,1112.7261 286.60111,1112.5569 286.05496,1111.9947 C 285.5824,1111.5082 285.43535,1111.2386 285.33499,1110.6748 L 285.20887,1109.9663 L 286.51402,1109.9276 C 287.73838,1109.8914 287.82179,1109.8706 287.86141,1109.5923 C 287.89127,1109.3825 288.03053,1109.2692 288.33689,1109.2054 C 288.57517,1109.1558 289.02593,1108.9681 289.33856,1108.7884 C 289.85786,1108.4898 289.96676,1108.4744 290.59879,1108.6099 C 291.09787,1108.717 291.40879,1108.7171 291.71482,1108.6104 C 291.94814,1108.5291 292.31116,1108.4625 292.52154,1108.4625 C 292.7573,1108.4625 292.95665,1108.3643 293.04116,1108.2063 C 293.27414,1107.771 294.16279,1107.3291 295.0193,1107.2225 C 295.46761,1107.1668 296.15131,1107.0793 296.53864,1107.0282 C 296.94344,1106.9748 297.41786,1106.9963 297.65441,1107.0788 C 297.88075,1107.1577 298.9273,1107.2957 299.98007,1107.3854 L 301.8942,1107.5486 L 302.26059,1107.2011 C 302.78221,1106.7064 303.51144,1106.5945 303.841,1106.9586 C 303.98099,1107.1133 304.20831,1107.2399 304.34617,1107.2399 C 304.89827,1107.2399 304.55507,1108.2773 303.71699,1109.1418 C 303.34863,1109.5218 303.06803,1109.967 302.97559,1110.3183 C 302.89378,1110.6291 302.55309,1111.3627 302.21848,1111.9485 C 301.88388,1112.5343 301.60965,1113.1678 301.6091,1113.3564 C 301.60731,1113.9627 303.57162,1116.0383 305.38435,1117.3455 C 307.13449,1118.6075 307.9949,1119.4361 308.26242,1120.117 C 308.35895,1120.3627 308.53652,1120.6159 308.65703,1120.6798 C 308.77754,1120.7436 309.60667,1120.8411 310.49954,1120.8963 L 312.12294,1120.9968 L 312.80901,1121.634 C 313.38993,1122.1736 314.78493,1123.1345 314.98729,1123.1345 C 315.02122,1123.1345 315.5172,1122.8288 316.08949,1122.4552 C 316.66178,1122.0816 317.20273,1121.776 317.29162,1121.776 C 317.3913,1121.776 317.51105,1122.2055 317.60407,1122.8968 C 317.68702,1123.5132 317.79639,1124.1245 317.84711,1124.2553 C 317.93003,1124.469 317.83859,1124.4919 316.93986,1124.4822 C 316.39016,1124.4762 315.02341,1124.4238 313.90264,1124.3656 C 311.30939,1124.231 304.61183,1124.4637 304.32512,1124.6984 C 304.20703,1124.795 303.26438,1124.9308 302.08357,1125.0213 C 300.2158,1125.1644 299.96435,1125.2159 299.06945,1125.6395 C 298.53245,1125.8937 297.81652,1126.3052 297.47849,1126.554 C 296.97558,1126.9241 296.86292,1127.0853 296.85859,1127.4414 C 296.8539,1127.8266 296.79519,1127.8926 296.34641,1128.0165 C 295.9301,1128.1314 295.67232,1128.1026 294.90387,1127.8551 L 293.96822,1127.5537 L 293.038,1128.0611 C 292.52638,1128.3402 292.07946,1128.5685 292.04485,1128.5685 C 292.01024,1128.5685 291.88219,1128.2255 291.7603,1127.8062 L 291.76031,1127.8062 z"/>
<path title="Ernakulam" d="M 299.29862,1139.8312 C 299.29862,1138.8651 299.02114,1138.4717 297.56651,1137.3757 L 296.30989,1136.4289 L 296.30989,1134.8579 C 296.30989,1132.9887 296.14365,1132.3308 295.55865,1131.8846 C 295.04208,1131.4906 294.86649,1131.4807 294.3567,1131.8168 C 293.56121,1132.3412 293.07072,1131.8362 292.38939,1129.7912 L 292.14044,1129.044 L 292.96854,1128.5394 C 293.42399,1128.2618 293.89405,1128.0326 294.01311,1128.0299 C 294.13217,1128.0273 294.58459,1128.1473 295.0185,1128.2966 C 295.67978,1128.5241 295.89752,1128.5439 296.36432,1128.4191 C 297.09132,1128.2248 297.26085,1128.0723 297.26085,1127.6124 C 297.26085,1127.1426 297.93857,1126.5721 299.19522,1125.984 C 299.9658,1125.6234 300.30081,1125.5584 302.02733,1125.4346 C 303.10432,1125.3574 304.16889,1125.2099 304.39304,1125.1068 C 305.09182,1124.7854 310.80952,1124.6082 314.74346,1124.7861 C 316.59727,1124.8699 318.14459,1124.9766 318.18195,1125.0233 C 318.21931,1125.0699 318.56084,1125.3644 318.9409,1125.6776 C 319.59402,1126.216 319.72816,1126.2648 321.38623,1126.5672 C 322.97761,1126.8575 323.23162,1126.8714 324.12128,1126.7167 C 324.72055,1126.6126 325.29881,1126.4125 325.60793,1126.2025 C 325.88617,1126.0134 326.13802,1125.8829 326.16759,1125.9125 C 326.21785,1125.9628 325.94779,1127.9272 325.88591,1127.9615 C 325.87031,1127.9702 325.67416,1128.0999 325.45,1128.2497 C 325.22585,1128.3995 324.62263,1128.6976 324.10951,1128.9121 C 323.19481,1129.2945 323.17301,1129.2969 322.99337,1129.0372 C 322.59519,1128.4615 322.55107,1128.4392 322.11245,1128.5921 C 321.7324,1128.7246 321.65344,1128.6989 321.25597,1128.3137 C 320.76219,1127.8351 320.75957,1127.8346 319.59963,1128.0366 C 318.75518,1128.1837 318.75303,1128.1852 318.52168,1128.8178 C 318.39417,1129.1664 318.0669,1129.7816 317.79438,1130.1849 C 317.52188,1130.5882 317.20722,1131.1924 317.09514,1131.5276 C 316.91328,1132.0714 316.81831,1132.1652 316.21211,1132.3993 C 315.37556,1132.7224 315.19055,1132.8969 315.07249,1133.4742 C 314.99417,1133.8571 314.9023,1133.9451 314.47525,1134.0461 C 314.19767,1134.1117 313.97056,1134.2389 313.97056,1134.3287 C 313.97056,1134.5253 315.08801,1135.0894 315.47749,1135.0894 C 315.82024,1135.0894 316.28003,1135.3256 316.28003,1135.5017 C 316.28003,1135.5775 315.68903,1135.6328 314.88077,1135.6328 C 314.11117,1135.6328 313.42342,1135.6888 313.35244,1135.7572 C 313.28145,1135.8256 313.07055,1135.902 312.88375,1135.927 C 312.61154,1135.9634 312.53567,1136.0601 312.50155,1136.414 C 312.46063,1136.8384 312.43593,1136.8555 311.86428,1136.8555 C 311.53719,1136.8555 311.23179,1136.9166 311.18561,1136.9913 C 311.13943,1137.066 310.73846,1137.1272 310.29456,1137.1272 C 309.5895,1137.1272 309.48747,1137.1601 309.48747,1137.3878 C 309.48747,1137.9769 309.38552,1138.038 308.65319,1137.888 C 308.03808,1137.762 307.94483,1137.7746 307.77526,1138.0065 C 307.6646,1138.1578 307.58555,1138.5937 307.58555,1139.0525 C 307.58555,1139.9593 307.82197,1139.8364 305.38792,1140.1949 C 304.13521,1140.3794 303.5924,1140.4002 302.80674,1140.2936 C 302.03472,1140.1889 301.71394,1140.1996 301.37471,1140.3411 C 301.13428,1140.4414 300.5688,1140.5235 300.11809,1140.5235 L 299.29862,1140.5235 L 299.29862,1139.8312 z"/>
<path title="Idukki" d="M 329.57867,1162.0117 C 328.99261,1161.8288 328.93828,1161.7711 328.7296,1161.1091 C 328.44721,1160.2132 328.45013,1160.0519 328.75992,1159.4354 C 328.89923,1159.1581 329.08178,1158.4608 329.16559,1157.8856 C 329.30515,1156.9281 329.29326,1156.7753 329.0246,1156.0733 C 328.69151,1155.2029 328.55195,1155.0895 327.01456,1154.4411 C 325.77528,1153.9185 324.53212,1153.8134 323.70028,1154.1609 C 323.18545,1154.3761 322.66505,1155.1261 322.66505,1155.653 C 322.66505,1155.9782 322.61701,1156.0105 322.13372,1156.0105 C 321.70719,1156.0105 321.53303,1155.9281 321.25069,1155.5925 C 321.05725,1155.3627 320.89898,1155.1197 320.89898,1155.0526 C 320.89898,1154.857 320.13336,1154.5162 319.69386,1154.5162 C 319.35735,1154.5162 319.27572,1154.4495 319.2022,1154.1148 C 319.15306,1153.891 318.99888,1153.6768 318.85393,1153.6308 C 318.71086,1153.5854 318.36993,1153.275 318.0963,1152.9411 C 317.64855,1152.3947 317.58517,1152.2154 317.46281,1151.1494 C 317.33715,1150.0546 317.34896,1149.9214 317.61855,1149.393 C 317.8257,1148.987 317.91009,1148.5735 317.90967,1147.9667 C 317.909,1146.9869 317.83148,1146.8621 315.50178,1144.0896 C 314.31316,1142.675 314.18197,1142.5612 313.73933,1142.5612 C 313.23329,1142.5612 312.58953,1142.1129 311.18561,1140.7828 C 310.4385,1140.075 309.83354,1139.8462 308.70632,1139.845 L 307.9931,1139.8442 L 307.9931,1139.0291 C 307.9931,1138.1321 308.04558,1138.0922 308.90109,1138.3375 C 309.24485,1138.4361 309.37495,1138.4134 309.54549,1138.2249 C 309.66301,1138.0951 309.75917,1137.8867 309.75917,1137.7618 C 309.75917,1137.5774 309.8982,1137.5347 310.49833,1137.5347 C 310.90487,1137.5347 311.27528,1137.4736 311.32146,1137.3989 C 311.36764,1137.3242 311.70748,1137.263 312.07666,1137.263 L 312.7479,1137.263 L 312.7479,1136.7876 C 312.7479,1136.374 312.79109,1136.3121 313.07951,1136.3121 C 313.2619,1136.3121 313.4489,1136.2509 313.49508,1136.1762 C 313.54314,1136.0985 314.24367,1136.0404 315.13332,1136.0404 L 316.68759,1136.0404 L 316.68759,1135.5697 C 316.68759,1135.0494 316.41547,1134.8177 315.80455,1134.8177 C 315.40771,1134.8177 314.92152,1134.5994 314.92152,1134.4212 C 314.92152,1134.3579 315.03969,1134.2751 315.18412,1134.2373 C 315.37563,1134.1872 315.45838,1134.0267 315.48979,1133.6443 C 315.52804,1133.1787 315.59367,1133.0932 316.07626,1132.8807 C 317.18718,1132.3915 317.26816,1132.3195 317.49548,1131.6192 C 317.61782,1131.2423 317.87815,1130.7227 318.07399,1130.4645 C 318.26984,1130.2063 318.58136,1129.6514 318.76625,1129.2314 L 319.10243,1128.4678 L 319.88027,1128.3706 C 320.62703,1128.2773 320.6758,1128.2906 321.10046,1128.7022 C 321.48169,1129.0717 321.6078,1129.1187 322.01326,1129.0427 C 322.4191,1128.9665 322.51527,1129.0025 322.71337,1129.3049 C 322.83967,1129.4976 323.03666,1129.6554 323.15111,1129.6554 C 323.4633,1129.6554 325.16526,1128.9048 325.75112,1128.5088 C 326.23984,1128.1784 326.27512,1128.1041 326.46889,1126.996 L 326.67266,1125.8306 L 327.41985,1125.5776 C 327.8308,1125.4384 328.5548,1125.2826 329.02876,1125.2312 L 329.89049,1125.1379 L 330.69293,1125.932 L 331.49539,1126.726 L 331.49539,1128.5357 C 331.49539,1130.1163 331.45861,1130.4175 331.20492,1130.9148 C 330.73285,1131.8401 330.27272,1133.3293 330.27272,1133.9318 C 330.27272,1134.3945 330.35599,1134.5734 330.7482,1134.9536 C 331.12967,1135.3233 331.22368,1135.5179 331.22368,1135.9381 C 331.22368,1136.402 331.17258,1136.4831 330.77592,1136.6489 C 330.52965,1136.7518 330.04058,1137.1434 329.68911,1137.5192 C 329.16014,1138.0847 329.05006,1138.2911 329.05006,1138.7173 C 329.05006,1139.8696 328.769,1145.1789 328.62991,1146.6543 L 328.48098,1148.234 L 328.84548,1148.7848 C 329.30677,1149.4819 329.72471,1149.6255 331.29161,1149.6255 C 333.06418,1149.6255 333.29762,1149.7361 334.09134,1150.952 L 334.75582,1151.9698 L 334.75582,1153.2895 L 334.75582,1154.6092 L 333.50323,1155.6852 C 332.02833,1156.952 331.65026,1157.5907 331.2073,1159.5637 C 330.96426,1160.6463 330.85834,1160.9002 330.60091,1161.0175 C 330.36809,1161.1236 330.27832,1161.2924 330.2469,1161.6833 L 330.2048,1162.207 L 329.57867,1162.0117 z"/>
<path title="Kottayam" d="M 314.68134,1153.9728 C 314.55587,1153.7718 314.36155,1153.6999 313.93545,1153.6968 C 313.57449,1153.6941 313.16505,1153.5732 312.83943,1153.3731 C 312.39527,1153.1001 312.25325,1153.074 311.86338,1153.1936 C 311.43766,1153.3243 311.36207,1153.2959 310.7341,1152.7702 C 310.09743,1152.2371 310.01374,1152.2067 309.184,1152.2067 C 308.48658,1152.2067 308.25775,1152.261 308.06689,1152.4719 C 307.93476,1152.6179 307.48256,1152.808 307.06091,1152.8948 C 306.60012,1152.9897 306.0514,1153.2301 305.68363,1153.4984 C 305.08734,1153.9334 305.05307,1153.941 304.29115,1153.8092 L 303.51001,1153.674 L 303.51001,1152.384 C 303.51001,1151.3139 303.46392,1151.0292 303.23969,1150.7143 C 303.09102,1150.5055 302.89231,1150.0987 302.79811,1149.8103 C 302.64916,1149.3542 302.54346,1149.2593 301.98672,1149.0821 C 301.59424,1148.9572 301.11313,1148.6489 300.74307,1148.2853 C 300.17417,1147.7264 300.11541,1147.596 299.71908,1146.0134 C 299.37521,1144.6403 299.29862,1144.0599 299.29862,1142.8276 C 299.29862,1140.8659 299.33925,1140.7952 300.46706,1140.7952 C 300.95501,1140.7952 301.46203,1140.7375 301.59376,1140.667 C 301.74589,1140.5856 302.19039,1140.5918 302.81214,1140.6841 C 303.60956,1140.8024 304.04828,1140.7864 305.17884,1140.5978 C 306.94777,1140.3027 308.71865,1140.1871 309.55371,1140.3123 C 310.07423,1140.3904 310.3478,1140.541 310.90007,1141.0537 C 312.34881,1142.3986 313.15973,1142.9688 313.62359,1142.9688 C 314.02071,1142.9688 314.19399,1143.1207 315.28915,1144.4292 C 317.46764,1147.032 317.5027,1147.0887 317.5027,1148.0111 C 317.5027,1148.57 317.41282,1148.9974 317.21283,1149.3894 C 316.94168,1149.9209 316.93266,1150.0363 317.07308,1151.1767 C 317.1976,1152.1881 317.2955,1152.4965 317.64775,1152.987 C 317.95893,1153.4203 318.04997,1153.6671 317.98869,1153.9113 C 317.90613,1154.2402 317.88565,1154.2445 316.37805,1154.2445 C 314.99815,1154.2445 314.83468,1154.2183 314.68135,1153.9728 L 314.68134,1153.9728 z"/>
<path title="Alappuzha" d="M 299.92118,1163.6522 C 299.6986,1162.8315 299.51731,1162.453 297.30169,1158.1841 C 296.11964,1155.9066 295.91315,1155.4112 295.82969,1154.652 C 295.7763,1154.1663 295.4628,1152.5769 295.13303,1151.1199 C 294.80325,1149.6629 294.32044,1147.4621 294.06012,1146.2292 C 293.7998,1144.9964 293.48991,1143.7431 293.37149,1143.4443 C 293.25099,1143.1402 293.12404,1142.2869 293.08322,1141.5068 C 292.99716,1139.8623 293.13623,1139.5725 294.0115,1139.5725 C 294.48734,1139.5725 294.55291,1139.6234 294.931,1140.2857 C 295.22623,1140.8029 295.37998,1141.3163 295.49043,1142.1537 C 295.5742,1142.7888 295.84775,1144.0726 296.09832,1145.0066 C 296.34889,1145.9405 296.69072,1147.3233 296.85794,1148.0795 L 297.16199,1149.4542 L 297.90084,1150.0313 C 298.30721,1150.3486 298.70455,1150.7507 298.78382,1150.9246 C 298.8631,1151.0986 299.17082,1151.3382 299.46766,1151.4569 L 300.00736,1151.6729 L 300.66605,1151.0567 C 301.25926,1150.5019 301.38994,1150.4406 301.98053,1150.4406 C 302.56031,1150.4406 302.66333,1150.4863 302.86939,1150.8352 C 303.26837,1151.5106 303.13888,1155.0177 302.67174,1156.1883 C 302.53191,1156.5387 302.56215,1156.6136 303.04231,1157.1053 C 303.63481,1157.7121 304.1377,1157.8013 304.52889,1157.369 C 304.83595,1157.0297 305.91926,1156.9811 306.04205,1157.3011 C 306.08506,1157.4132 306.51108,1157.6914 306.98875,1157.9194 C 307.76891,1158.2917 307.85725,1158.375 307.85725,1158.7384 C 307.85725,1159.2511 308.48352,1160.4949 309.51114,1162.0232 C 310.57622,1163.6072 310.57939,1163.6182 309.97041,1163.6182 C 309.54024,1163.6182 309.45421,1163.6731 309.33126,1164.0258 C 309.16432,1164.5046 308.91722,1164.5476 308.64939,1164.1442 C 308.46511,1163.8667 308.41959,1163.8618 307.51204,1164.0224 C 306.94935,1164.122 306.15422,1164.1552 305.54778,1164.1045 C 302.8138,1163.8757 302.13034,1163.869 301.69831,1164.0669 C 301.46189,1164.1752 301.01299,1164.3019 300.70075,1164.3486 L 300.13303,1164.4334 L 299.92118,1163.6522 z"/>
<path title="Pathanarothitta" d="M 326.06133,1167.371 C 325.35151,1167.0516 324.3904,1166.5962 323.92554,1166.359 C 323.20105,1165.9893 322.93655,1165.9277 322.07321,1165.9277 C 321.14184,1165.9277 321.04889,1165.9014 320.83759,1165.579 C 320.28321,1164.7329 320.34267,1164.7471 318.10916,1164.9269 C 316.99107,1165.0169 316.07221,1165.0955 316.06727,1165.1015 C 316.06233,1165.1076 315.88208,1165.4812 315.66671,1165.9319 C 315.37003,1166.5526 315.22403,1166.7286 315.06436,1166.6583 C 314.43155,1166.3795 313.45678,1166.0718 313.19414,1166.068 C 312.75426,1166.0615 312.07638,1165.3975 311.45731,1164.3669 C 311.15844,1163.8693 310.44239,1162.7351 309.8661,1161.8465 C 308.5397,1159.8013 308.2648,1159.2582 308.2648,1158.6831 C 308.2648,1158.2952 308.17858,1158.1632 307.73239,1157.8679 C 307.43956,1157.6741 307.03731,1157.4748 306.83849,1157.4249 C 306.63968,1157.375 306.41095,1157.1891 306.33021,1157.012 C 306.20082,1156.728 306.09192,1156.6898 305.41118,1156.6898 C 304.81146,1156.6898 304.58399,1156.7505 304.39304,1156.9615 C 304.0547,1157.3353 303.76278,1157.3022 303.31947,1156.8394 C 303.00868,1156.5151 302.96782,1156.3979 303.08741,1156.1745 C 303.16725,1156.0253 303.27208,1155.5671 303.32037,1155.1562 C 303.44545,1154.092 303.4756,1154.0645 304.33917,1154.2271 C 305.05008,1154.3609 305.09295,1154.3511 305.75366,1153.9026 C 306.13299,1153.6451 306.76529,1153.3711 307.1801,1153.2844 C 307.60946,1153.1946 308.07224,1152.9909 308.27224,1152.8035 C 308.85177,1152.2606 309.56297,1152.3514 310.51375,1153.0897 C 311.30737,1153.706 311.50451,1153.7703 312.00072,1153.575 C 312.19166,1153.4999 312.41303,1153.5633 312.74547,1153.7883 C 313.04846,1153.9935 313.41521,1154.1086 313.76564,1154.1086 C 314.1683,1154.1086 314.35823,1154.1814 314.48496,1154.3843 C 314.64552,1154.6414 314.77388,1154.6575 316.38399,1154.6221 L 318.11082,1154.5841 L 318.29092,1154.2078 C 318.50395,1153.7628 318.65965,1153.8242 318.92426,1154.4575 C 319.10069,1154.8798 319.17092,1154.9237 319.66939,1154.9237 C 320.02444,1154.9237 320.29287,1155.0081 320.42584,1155.1614 C 320.53919,1155.2922 320.82308,1155.6312 321.05668,1155.9148 C 321.46699,1156.413 321.50728,1156.4291 322.24304,1156.3903 L 323.00468,1156.3501 L 323.04508,1155.8009 C 323.06884,1155.4779 323.21688,1155.0869 323.40447,1154.8516 C 323.70131,1154.4793 323.79759,1154.4483 324.79051,1154.4051 C 325.77077,1154.3624 325.95559,1154.3998 327.0628,1154.8654 C 328.25371,1155.3663 328.27197,1155.3812 328.59762,1156.1175 C 328.9097,1156.8232 328.91887,1156.9176 328.77045,1157.8967 C 328.68425,1158.4654 328.49793,1159.1576 328.3564,1159.435 C 328.03195,1160.071 328.03445,1160.2494 328.38214,1161.279 C 328.66236,1162.1087 328.67252,1162.1194 329.40102,1162.349 C 329.80573,1162.4766 330.13687,1162.6393 330.13687,1162.7105 C 330.13687,1162.7817 329.77051,1163.3522 329.32274,1163.9782 C 328.6221,1164.9577 328.48723,1165.2458 328.35532,1166.0446 C 328.23766,1166.757 328.10322,1167.0865 327.77697,1167.4622 L 327.35192,1167.9517 L 326.06133,1167.371 z"/>
<path title="Kollam" d="M 323.77491,1176.601 C 323.15248,1175.8862 322.58496,1175.3014 322.51376,1175.3014 C 322.26827,1175.3014 321.03483,1175.9856 321.03483,1176.1217 C 321.03483,1176.1968 320.87388,1176.5014 320.67715,1176.7987 L 320.31947,1177.3392 L 318.60202,1177.3392 L 316.88457,1177.3392 L 315.87248,1176.3203 L 314.86039,1175.3014 L 313.94,1175.3014 L 313.0196,1175.3014 L 313.0196,1175.8996 L 313.0196,1176.4978 L 311.69505,1176.5723 C 310.96655,1176.6132 310.30937,1176.6541 310.23465,1176.6632 C 310.15993,1176.6722 309.96061,1176.6373 309.79172,1176.5856 C 309.5338,1176.5067 309.46099,1176.5595 309.33691,1176.9154 C 309.19075,1177.3347 309.1792,1177.3392 308.25151,1177.3392 C 307.7358,1177.3392 307.31385,1177.2866 307.31385,1177.2223 C 307.31385,1177.1581 306.65072,1176.5159 305.84023,1175.7953 C 305.02974,1175.0747 303.95887,1174.002 303.46053,1173.4115 C 302.7012,1172.5116 302.53238,1172.2183 302.41814,1171.6003 C 302.34316,1171.1947 301.82996,1169.5104 301.27769,1167.8572 C 300.17215,1164.548 300.17294,1164.8221 301.26846,1164.6368 C 301.56733,1164.5862 301.8846,1164.4847 301.97351,1164.4113 C 302.07048,1164.3312 302.64115,1164.3111 303.39995,1164.361 C 305.47054,1164.4973 307.20923,1164.5085 307.811,1164.3895 C 308.31498,1164.2898 308.38575,1164.3082 308.46545,1164.5593 C 308.53247,1164.7704 308.66881,1164.8409 309.01061,1164.8409 C 309.41105,1164.8409 309.48545,1164.7831 309.62332,1164.3654 C 309.76073,1163.949 309.8363,1163.8899 310.23102,1163.8899 C 310.62641,1163.8899 310.73778,1163.9775 311.13733,1164.6031 C 311.98039,1165.9231 312.41085,1166.3025 313.26609,1166.4791 C 313.69091,1166.5669 314.3273,1166.7846 314.6803,1166.963 L 315.32212,1167.2872 L 315.5184,1166.981 C 315.62635,1166.8126 315.85051,1166.3918 316.01654,1166.0458 L 316.3184,1165.4167 L 317.82754,1165.3272 C 318.65757,1165.278 319.49166,1165.2076 319.68105,1165.1708 C 319.96851,1165.1149 320.0971,1165.2055 320.45939,1165.7195 L 320.89337,1166.3352 L 321.96452,1166.3352 C 323.01261,1166.3352 323.07802,1166.3557 325.00453,1167.2862 C 326.0874,1167.8092 327.05009,1168.2371 327.14382,1168.2371 C 327.26109,1168.2371 327.29057,1168.3749 327.23838,1168.6787 C 326.97279,1170.2244 326.97516,1170.6932 327.25007,1170.9957 C 327.6614,1171.4482 327.73157,1171.9043 327.78738,1174.4881 L 327.83877,1176.8673 L 327.39155,1177.2991 C 326.99505,1177.682 326.82889,1177.7406 325.92548,1177.8158 L 324.9066,1177.9006 L 323.77491,1176.601 z"/>
<path title="Thiruvananthapuram" d="M 319.20019,1195.6331 L 317.5693,1194.2587 L 314.44539,1189.653 C 310.88508,1184.4038 310.26942,1183.3945 309.81743,1182.0656 C 309.63964,1181.5428 309.16339,1180.5865 308.75909,1179.9404 C 308.05078,1178.8084 307.58555,1177.9708 307.58555,1177.8276 C 307.58555,1177.79 307.99664,1177.7411 308.49908,1177.719 C 309.30636,1177.6835 309.43137,1177.6411 309.57382,1177.3544 C 309.74904,1177.0017 309.74461,1177.0026 312.10261,1176.8534 L 313.42716,1176.7696 L 313.42716,1176.2393 L 313.42716,1175.709 L 314.07585,1175.709 C 314.70258,1175.709 314.75881,1175.7435 315.73663,1176.7279 L 316.74871,1177.7467 L 318.61922,1177.7467 L 320.48973,1177.7467 L 320.89334,1177.1896 C 321.11534,1176.8831 321.33031,1176.5273 321.37106,1176.3989 C 321.42952,1176.2147 322.22143,1175.709 322.45137,1175.709 C 322.47821,1175.709 323.01105,1176.2955 323.63546,1177.0123 L 324.77074,1178.3156 L 325.76812,1178.2282 L 326.76552,1178.1407 L 326.54927,1178.4494 C 326.18929,1178.9634 326.27921,1179.8203 326.80205,1180.8585 C 327.06,1181.3707 327.35711,1182.1623 327.4623,1182.6176 C 327.60163,1183.2207 327.79134,1183.5979 328.16123,1184.0074 C 329.57704,1185.5745 329.24597,1186.7206 326.84248,1188.5723 C 326.10156,1189.1431 326.06133,1189.2048 326.06133,1189.7705 C 326.06133,1190.2881 325.97005,1190.4765 325.36956,1191.198 C 324.98908,1191.6552 324.48101,1192.3767 324.24049,1192.8014 C 323.6898,1193.7736 322.19325,1195.7071 321.42007,1196.4452 L 320.83105,1197.0076 L 319.20019,1195.6331 z"/>
</g>
<g class="label" text-anchor="middle" font-size="4" font-family="sans-serif">
<text x="263" y="1046">Kasargod</text>
<text x="275" y="1063">Kannur</text>
<text x="294" y="1074">Wayanad</text>
<text x="283" y="1083">Kozhikode</text>
<text x="293" y="1095">Malappuram</text>
<text x="306" y="1106">Palakkad</text>
<text x="299" y="1117">Thrissur</text>
<text x="311" y="1132">Ernakulam</text>
<text x="322" y="1142">Idukki</text>
<text x="309" y="1148">Kottayam</text>
<text x="301" y="1154">Alappuzha</text>
<text x="317" y="1162">Pathanarothitta</text>
<text x="314" y="1171">Kollam</text>
<text x="319" y="1182">Thiruvananthapuram</text>
</g>
</svg>

