<svg xmlns="http://www.w3.org/2000/svg" viewBox="147 1060 66 72">
<g title="Lakshadweep" fill="#328707">
<path title="Lakshadweep" d="M 154.33912,1068.7757 C 154.33912,1068.2876 154.37076,1067.8291 154.40943,1067.7568 C 154.47089,1067.642 154.55614,1067.6254 155.08639,1067.6254 C 155.51501,1067.6254 155.76346,1067.659 155.93307,1067.7399 L 156.17311,1067.8544 L 156.17311,1068.6551 L 156.17311,1069.4559 L 155.97271,1069.5596 C 155.83023,1069.6332 155.56519,1069.6632 155.05571,1069.6632 L 154.33912,1069.6632 L 154.33912,1068.7757 z M 172.67465,1067.722 C 172.62573,1067.6631 172.44623,1067.5434 172.27576,1067.4562 C 172.1053,1067.3689 171.85257,1067.1803 171.71414,1067.0369 L 171.46245,1066.7763 L 171.59371,1065.8933 C 171.6659,1065.4076 171.72567,1064.9874 171.72653,1064.9593 C 171.72739,1064.9313 172.02612,1064.9094 172.39037,1064.9106 L 173.05264,1064.9129 L 173.44321,1065.4454 C 173.82097,1065.9604 173.83379,1065.9919 173.83379,1066.4057 C 173.83379,1066.7842 173.80468,1066.8784 173.58082,1067.2241 C 173.42763,1067.4607 173.2392,1067.6571 173.10304,1067.722 C 172.82353,1067.8553 172.78526,1067.8553 172.67465,1067.722 L 172.67465,1067.722 z M 182.80122,1076.3551 L 182.56809,1076.1146 L 182.70805,1074.8209 L 182.84801,1073.5271 L 183.10131,1073.2677 L 183.3546,1073.0083 L 183.87541,1073.1405 C 184.20353,1073.2238 184.55331,1073.3744 184.82077,1073.5476 L 185.2453,1073.8226 L 185.2453,1074.8197 L 185.2453,1075.8169 L 184.99058,1076.0612 C 184.75882,1076.2834 184.67463,1076.3154 184.0566,1076.4159 C 183.68301,1076.4767 183.30017,1076.542 183.20585,1076.561 C 183.07332,1076.5878 182.98138,1076.541 182.80122,1076.3551 L 182.80122,1076.3551 z M 174.07153,1084.5622 C 173.95945,1084.5022 173.86032,1084.4471 173.85125,1084.4399 C 173.84217,1084.4326 173.77195,1084.1188 173.69521,1083.7425 L 173.55567,1083.0583 L 173.70016,1082.491 C 173.77963,1082.179 173.89156,1081.8716 173.94889,1081.8079 C 174.00623,1081.7442 174.43485,1081.5649 174.9014,1081.4094 L 175.74966,1081.1267 L 176.15024,1081.5231 L 176.55081,1081.9195 L 176.55081,1082.6397 C 176.55081,1083.3173 176.53543,1083.3979 176.29138,1084.0004 L 176.03194,1084.6408 L 175.15362,1084.6561 C 174.45496,1084.6683 174.23362,1084.6491 174.07153,1084.5622 L 174.07153,1084.5622 z M 171.69313,1089.4126 C 171.45204,1088.7458 171.45435,1088.7797 171.60053,1088.0521 C 171.71178,1087.4984 171.79443,1087.2734 172.00873,1086.941 L 172.27743,1086.5241 L 172.80089,1086.6571 C 173.21071,1086.7613 173.37964,1086.8437 173.57907,1087.0368 L 173.83379,1087.2835 L 173.83319,1088.1358 L 173.8326,1088.988 L 173.43719,1089.2428 C 173.04962,1089.4924 173.02871,1089.4975 172.3828,1089.4975 C 171.91728,1089.4975 171.71482,1089.4726 171.69313,1089.4126 z M 158.28826,1092.6198 C 158.18282,1092.532 158.0266,1092.4862 157.83207,1092.4862 C 157.66936,1092.4862 157.42821,1092.4347 157.29619,1092.3717 C 157.07825,1092.2678 157.05615,1092.2313 157.05615,1091.9748 C 157.05615,1091.8195 156.99451,1091.5132 156.91918,1091.2943 L 156.78221,1090.8962 L 157.1739,1090.4971 C 157.736,1089.9243 158.09192,1089.7582 158.70328,1089.7833 C 159.1722,1089.8025 159.19317,1089.8108 159.31895,1090.0266 C 159.39057,1090.1495 159.51846,1090.5223 159.60315,1090.8552 L 159.75714,1091.4604 L 159.61001,1091.9903 L 159.46287,1092.5202 L 159.05763,1092.6336 C 158.53362,1092.7803 158.47975,1092.7793 158.28826,1092.6198 L 158.28826,1092.6198 z M 153.08249,1097.1631 C 152.93306,1097.0861 152.61975,1096.8362 152.38626,1096.6076 L 151.96172,1096.1921 L 151.96172,1095.6515 C 151.96172,1095.1346 151.97379,1095.0923 152.23615,1094.6896 C 152.67729,1094.0125 152.68045,1094.0109 153.2665,1094.1505 C 153.71694,1094.2578 153.80016,1094.306 154.18629,1094.683 L 154.61082,1095.0974 L 154.60927,1095.5749 C 154.60842,1095.8375 154.55315,1096.2663 154.48645,1096.5278 L 154.36518,1097.0033 L 153.96158,1097.1521 C 153.46301,1097.3359 153.41925,1097.3364 153.08249,1097.1631 L 153.08249,1097.1631 z M 162.08265,1100.742 C 161.91453,1100.6536 161.67321,1100.4733 161.54639,1100.3412 C 161.31699,1100.1023 161.31625,1100.0995 161.40328,1099.7886 C 161.4514,1099.6168 161.54974,1099.4012 161.62182,1099.3095 C 161.74514,1099.1528 161.7925,1099.1429 162.42373,1099.1429 L 163.09459,1099.1429 L 163.20897,1099.5058 C 163.31686,1099.8481 163.31657,1099.8895 163.20393,1100.236 C 162.98035,1100.9238 162.68339,1101.0578 162.08265,1100.742 z M 164.67741,1098.7218 C 164.62676,1098.6711 164.5959,1098.4211 164.5959,1098.0615 L 164.5959,1097.4827 L 164.98434,1097.0901 C 165.3651,1096.7054 165.38029,1096.6976 165.7517,1096.6976 C 166.1008,1096.6976 166.1504,1096.7179 166.38214,1096.9552 L 166.63367,1097.2128 L 166.63367,1097.866 L 166.63367,1098.5191 L 166.21292,1098.6612 C 165.73526,1098.8225 164.81446,1098.8588 164.67741,1098.7218 L 164.67741,1098.7218 z M 166.26543,1106.394 C 166.21615,1106.2726 166.14669,1106.0815 166.11108,1105.9695 C 166.0685,1105.8355 165.94915,1105.7116 165.76262,1105.6078 C 165.60659,1105.5209 165.47893,1105.4161 165.47893,1105.3748 C 165.47893,1105.1676 166.05394,1104.4394 166.3979,1104.211 C 166.82183,1103.9295 166.8308,1103.9283 167.41783,1104.0758 L 167.85633,1104.1859 L 167.85633,1105.1091 L 167.85633,1106.0322 L 167.57048,1106.3235 C 167.28898,1106.6103 167.27758,1106.6148 166.81983,1106.6148 C 166.3591,1106.6148 166.35425,1106.6128 166.26543,1106.394 L 166.26543,1106.394 z M 204.39669,1101.2116 C 204.1928,1101.0018 204.14438,1100.8813 204.02137,1100.2776 L 203.88014,1099.5844 L 204.14099,1099.058 L 204.40186,1098.5316 L 204.9422,1098.5316 C 206.01587,1098.5316 206.23434,1098.7993 206.23434,1100.1148 L 206.23434,1100.9563 L 205.96464,1101.0779 C 205.81631,1101.1448 205.64346,1101.2564 205.58053,1101.326 C 205.49257,1101.4232 205.36947,1101.4524 205.04843,1101.4524 C 204.65937,1101.4524 204.61474,1101.4359 204.39669,1101.2116 L 204.39669,1101.2116 z M 155.37498,1120.7339 L 154.95045,1120.454 L 154.95352,1119.9364 C 154.95764,1119.242 155.11951,1118.9311 155.66616,1118.5677 C 156.02115,1118.3317 156.11984,1118.2984 156.4645,1118.2982 C 157.01422,1118.2979 157.32481,1118.4726 157.66504,1118.9736 C 157.90798,1119.3314 157.93918,1119.4225 157.93918,1119.7745 C 157.93918,1120.1527 157.92542,1120.1849 157.6505,1120.4503 C 157.20758,1120.878 156.87802,1121.0151 156.29469,1121.0144 C 155.82902,1121.0138 155.77422,1120.9971 155.37498,1120.7339 L 155.37498,1120.7339 z M 152.64098,1124.1589 C 152.47286,1124.1007 152.32713,1124.0465 152.31713,1124.0385 C 152.30151,1124.026 152.43621,1123.3158 152.53754,1122.8765 C 152.59341,1122.6342 153.81945,1121.898 154.16705,1121.898 L 154.33912,1121.898 L 154.33912,1122.7158 C 154.33912,1123.3856 154.31572,1123.5795 154.20992,1123.7869 C 153.97661,1124.2442 153.33018,1124.3975 152.64098,1124.1589 L 152.64098,1124.1589 z M 202.78371,1126.5713 C 202.64838,1126.436 202.67376,1124.2078 202.81577,1123.7573 C 202.92733,1123.4034 202.93661,1123.3945 203.33841,1123.2588 C 204.02072,1123.0284 204.17338,1123.0586 204.62323,1123.5132 L 205.01167,1123.9058 L 205.01167,1124.925 L 205.01167,1125.9442 L 204.65293,1126.2985 L 204.29418,1126.6528 L 203.5797,1126.6528 C 203.11456,1126.6528 202.83677,1126.6244 202.78371,1126.5713 L 202.78371,1126.5713 z M 205.40225,1122.0494 L 205.0796,1121.9421 L 205.0796,1121.1023 C 205.0796,1119.7387 205.27933,1119.5206 206.52852,1119.5206 L 207.22565,1119.5206 L 207.47718,1119.7782 L 207.7287,1120.0358 L 207.7287,1120.8541 L 207.7287,1121.6724 L 207.5419,1121.7594 C 206.69042,1122.1558 206.00232,1122.249 205.40225,1122.0494 z"/>
</g>
</svg>
