<svg xmlns="http://www.w3.org/2000/svg" viewBox="745 579 104 45">
<g title="Meghalaya" fill="#328707">
<path title="West Garo Hills" d="M 763.19242,615.22546 C 762.35059,614.95619 761.00566,614.65145 760.20369,614.54826 C 758.54844,614.33528 752.34233,612.11328 751.19401,611.32249 C 750.47574,610.82785 750.4393,610.70376 750.51475,609.00903 L 750.59448,607.21824 L 751.74285,607.1601 C 753.20071,607.0863 754.80472,606.12866 754.8091,605.32948 C 754.81149,604.89154 755.22996,604.51091 756.43931,603.84663 C 757.68842,603.1605 758.0663,602.80946 758.0663,602.33517 C 758.0663,601.63848 757.00461,600.53751 755.69632,599.87754 C 754.90804,599.47988 754.83794,599.34807 754.99347,598.55593 C 755.08848,598.07199 755.57124,597.14272 756.06625,596.49088 C 756.56127,595.83905 757.03595,594.86091 757.12109,594.31726 C 757.40507,592.50405 758.38744,590.93895 759.50967,590.51183 C 760.46135,590.14962 760.56789,590.16235 761.14842,590.70773 C 762.0937,591.59578 762.99556,591.42621 765.99391,589.79666 C 768.71683,588.31681 769.56188,588.05057 769.88363,588.57119 C 769.97504,588.71908 770.0757,590.35299 770.10735,592.20212 C 770.14486,594.3937 770.28179,595.70502 770.50069,595.96878 C 770.68538,596.19133 770.9162,597.31628 771.01362,598.46868 L 771.19073,600.56394 L 769.75843,602.01426 C 768.83523,602.94907 768.40087,603.5855 768.5364,603.80479 C 768.66998,604.02095 768.63602,604.07663 768.44325,603.95749 C 768.05491,603.71749 766.68176,605.76113 766.80515,606.39546 C 766.85546,606.65416 767.31782,607.00755 767.83259,607.18077 C 768.42176,607.37902 768.64827,607.57004 768.44392,607.69634 C 768.26538,607.80668 768.1193,608.35436 768.1193,608.9134 C 768.1193,609.47244 767.97501,610.07412 767.79866,610.25048 C 767.6223,610.42682 767.40834,611.08873 767.32318,611.72137 C 767.18784,612.72673 767.06002,612.90265 766.30846,613.11795 C 765.44734,613.36462 765.14183,613.88892 765.13428,615.13294 C 765.12991,615.85393 765.15367,615.8528 763.19242,615.22546 L 763.19242,615.22546 z"/>
<path title="East Garo Hills" d="M 767.98345,606.85604 C 767.68458,606.78415 767.32883,606.61987 767.1929,606.49098 C 766.86185,606.17706 768.11968,604.30954 769.97126,602.36592 L 771.45672,600.80664 L 771.31217,598.48999 C 771.23268,597.21583 771.03953,596.01895 770.88293,595.83027 C 770.49204,595.35927 770.18183,591.62042 770.40833,590.11001 C 770.62514,588.66425 770.99969,588.66565 772.274,590.11701 C 772.91673,590.84903 773.26605,591.01932 774.12491,591.01932 C 775.00244,591.01932 775.18357,591.1123 775.18357,591.56273 C 775.18357,592.00454 775.36471,592.10613 776.1524,592.10613 C 777.53888,592.10613 778.1723,591.68755 778.1723,590.77133 C 778.1723,590.34657 778.36893,589.83586 778.60926,589.63641 C 778.98051,589.32829 779.10307,589.35153 779.42437,589.79092 C 779.63235,590.07536 779.80252,590.53896 779.80252,590.82114 C 779.80252,591.26091 779.92867,591.30491 780.68555,591.12914 C 781.17122,591.01636 781.81312,590.95347 782.11199,590.98939 C 782.41087,591.02532 783.32786,591.10893 784.14976,591.17522 C 786.76188,591.38587 788.36208,591.6901 788.33162,591.97028 C 788.25871,592.64105 787.86617,593.46465 787.61937,593.46465 C 787.47039,593.46465 787.40141,593.82499 787.46605,594.26541 C 787.53068,594.70582 787.4918,595.00944 787.37962,594.94012 C 787.01554,594.71509 786.32339,596.00723 786.32339,596.91193 C 786.32339,597.81622 784.96834,599.71381 784.32262,599.71381 C 784.14978,599.71381 783.69746,599.98891 783.31747,600.32514 C 782.93748,600.66137 782.38853,601.07566 782.09759,601.24578 C 781.80664,601.4159 781.58477,601.74733 781.60455,601.9823 C 781.62434,602.21727 781.56319,602.39458 781.4687,602.37631 C 781.09793,602.30461 779.63346,603.04133 779.0289,603.60367 C 778.67811,603.92996 778.1715,604.62484 777.90307,605.14786 C 776.92726,607.04922 776.78496,607.0947 772.89572,606.7483 C 770.33808,606.52051 769.35588,606.51963 769.13057,606.74495 C 768.96292,606.91261 768.75848,607.0356 768.67629,607.01827 C 768.59411,607.00094 768.28232,606.92793 767.98345,606.85604 z"/>
<path title="West Khasi Hills" d="M 791.46398,614.72688 L 788.58933,614.64001 L 788.16177,613.7434 C 787.9266,613.25026 787.09826,612.30662 786.321,611.64643 C 785.54375,610.98623 784.43658,609.9974 783.86065,609.44902 C 783.28472,608.90065 782.56396,608.37278 782.25897,608.27597 C 781.76073,608.11784 781.70402,607.87428 781.70028,605.87674 C 781.69799,604.65395 781.58436,603.47685 781.44776,603.26095 C 781.14992,602.79018 782.07494,601.34403 782.6739,601.34403 C 782.88787,601.34403 783.06295,601.22176 783.06295,601.07232 C 783.06295,600.92289 783.23327,600.80062 783.44144,600.80062 C 783.6496,600.80062 783.8903,600.61722 783.97632,600.39307 C 784.06233,600.16891 784.30728,599.98551 784.52064,599.98551 C 785.17265,599.98551 786.55759,598.1614 786.73384,597.07052 C 786.8249,596.50694 787.07546,595.72129 787.29065,595.32465 C 787.50584,594.928 787.6819,594.40837 787.6819,594.16991 C 787.6819,593.93145 787.80416,593.73635 787.9536,593.73635 C 788.10304,593.73635 788.2253,593.56017 788.2253,593.34483 C 788.2253,592.71606 788.72056,592.585 789.37209,593.04135 C 790.13189,593.57353 791.12497,593.5786 792.12813,593.05542 C 792.55616,592.83219 792.98409,592.65049 793.07909,592.65166 C 793.51088,592.65696 793.89961,594.16164 793.75041,595.25019 C 793.59804,596.36184 793.63,596.43566 794.34088,596.61408 C 794.75424,596.71783 795.53416,596.69354 796.07404,596.56012 C 797.04598,596.31992 797.05644,596.30215 797.13713,594.75524 C 797.18194,593.89598 797.25883,593.19294 797.30799,593.19294 C 797.35714,593.19294 798.1152,593.62808 798.99257,594.15992 C 800.53899,595.09732 800.64595,595.1213 802.4897,594.94398 C 804.44428,594.756 805.34257,594.45828 805.34257,593.99849 C 805.34257,593.85431 805.64102,593.73635 806.0058,593.73635 C 806.37057,593.73635 806.73623,593.62759 806.81839,593.49467 C 806.90054,593.36175 807.38824,593.20389 807.90217,593.1439 C 808.4161,593.0839 808.77629,593.13238 808.70258,593.25165 C 808.62887,593.3709 808.76701,593.54464 809.00956,593.63771 C 809.28403,593.74304 809.73218,593.53712 810.19639,593.09239 C 811.2101,592.12119 811.59174,592.18485 811.59174,593.32515 C 811.59174,594.15281 811.71309,594.32317 812.55248,594.67388 C 813.22946,594.95676 813.63917,595.37676 813.93969,596.09602 C 814.45813,597.33682 814.27049,597.71378 812.69658,598.59333 C 812.06119,598.94841 811.12882,599.65144 810.62463,600.15562 C 810.12045,600.65981 809.45932,601.07232 809.15547,601.07232 C 808.85162,601.07232 808.60301,601.19459 808.60301,601.34403 C 808.60301,601.49346 808.29734,601.61573 807.92375,601.61573 C 807.52794,601.61573 807.24449,601.77191 807.24449,601.99002 C 807.24449,602.19587 807.06433,602.51382 806.84413,602.69657 C 806.62392,602.87933 806.36344,603.47506 806.26527,604.02043 C 806.1671,604.56581 805.8582,605.49348 805.57883,606.08193 C 805.29946,606.67039 805.07087,607.47232 805.07087,607.86399 C 805.07087,608.83786 804.51514,609.51719 803.41454,609.88869 C 802.90587,610.06038 802.52329,610.35682 802.56435,610.54744 C 802.60571,610.73941 802.50583,610.8117 802.34046,610.7095 C 801.93924,610.46154 800.67067,611.68222 800.84836,612.14528 C 800.92578,612.347 800.88458,612.44746 800.75683,612.3685 C 800.46732,612.18958 799.84116,612.88905 799.25505,614.04613 L 798.80776,614.92916 L 796.57318,614.87145 C 795.34417,614.83972 793.04503,614.77466 791.46397,614.72688 L 791.46398,614.72688 z"/>
<path title="Ri Bhoi" d="M 816.09097,597.56631 C 815.98974,597.4025 815.67123,597.26849 815.38319,597.26849 C 815.03573,597.26849 814.71758,596.92891 814.4379,596.25954 C 813.90332,594.98011 813.27185,594.27976 812.65284,594.27976 C 812.28886,594.27976 812.14692,594.02623 812.08362,593.26313 C 811.97962,592.00935 811.29446,591.78019 810.33757,592.67914 C 809.73197,593.24807 809.57706,593.27493 808.52781,592.99295 C 807.81506,592.8014 807.28256,592.78087 807.12223,592.93876 C 806.98027,593.07856 806.57193,593.19294 806.21482,593.19294 C 805.85772,593.19294 805.35682,593.45069 805.10173,593.76572 C 804.75027,594.19973 804.18024,594.38871 802.7487,594.54577 C 801.02742,594.73461 800.74414,594.6916 799.56191,594.06186 C 798.84825,593.68171 798.3075,593.23899 798.36025,593.07804 C 798.49042,592.68089 800.4518,592.54073 800.81377,592.90271 C 801.28318,593.37212 803.03415,593.24884 803.51981,592.71219 C 803.80056,592.40196 803.98415,591.60692 804.0374,590.47065 C 804.11244,588.86942 804.1765,588.70183 804.74433,588.62131 C 805.08776,588.57262 805.85569,588.78658 806.45084,589.09679 C 807.77274,589.78581 808.83091,589.81856 809.31159,589.18533 C 809.74457,588.61495 809.80751,586.35505 809.40172,585.94926 C 809.19873,585.74627 809.36541,585.4493 809.96597,584.94396 C 810.93818,584.1259 812.40952,583.98277 812.96512,584.65223 C 814.14547,586.07447 816.6044,586.15828 820.29755,584.90216 C 822.41737,584.18116 824.90517,583.99288 824.90517,584.55345 C 824.90517,584.73313 824.52012,585.27741 824.04951,585.76295 C 823.25939,586.57814 823.18758,586.80806 823.1119,588.76462 C 822.81955,596.3224 822.75253,597.09224 822.35202,597.49275 C 822.01667,597.8281 821.86857,597.83871 821.5232,597.55207 C 821.11038,597.20946 819.22305,597.26975 817.12589,597.69258 C 816.61941,597.79469 816.20054,597.74358 816.09097,597.5663 L 816.09097,597.56631 z"/>
<path title="East Khasi Hills" d="M 800.1123,615.01662 C 799.22102,614.86924 799.20833,614.78209 799.91044,613.63052 C 800.78579,612.19481 802.83045,610.30999 803.70156,610.13577 C 804.60468,609.95514 805.34257,609.02237 805.34257,608.06133 C 805.34257,607.71055 805.59724,606.89646 805.90849,606.25224 C 806.21974,605.60801 806.5411,604.67 806.6226,604.16778 C 806.70409,603.66555 806.9385,603.11545 807.14349,602.94533 C 807.34848,602.7752 807.5162,602.46757 807.5162,602.26172 C 807.5162,602.04361 807.79964,601.88743 808.19545,601.88743 C 808.56904,601.88743 808.87471,601.76517 808.87471,601.61573 C 808.87471,601.46629 809.17607,601.34403 809.54441,601.34403 C 809.9418,601.34403 810.33549,601.11721 810.51265,600.78619 C 810.67684,600.47938 811.45061,599.81932 812.23213,599.3194 C 813.01365,598.81947 813.81557,598.21463 814.01418,597.97531 C 814.40478,597.50468 815.40027,597.39504 815.81671,597.77681 C 816.23022,598.15588 817.52136,598.3808 817.69268,598.10361 C 817.97322,597.64968 820.81132,597.43856 821.52175,597.81878 C 822.04838,598.10062 822.24884,598.09975 822.593,597.81413 C 823.33323,597.1998 823.41607,597.8002 822.76138,599.03431 C 822.26769,599.96492 822.16301,600.48531 822.28604,601.39722 C 822.70909,604.53265 822.80109,607.32149 822.4815,607.32149 C 822.30251,607.32149 822.22072,607.42609 822.29974,607.55394 C 822.37876,607.68179 822.13123,607.72672 821.7497,607.65378 C 821.36817,607.58085 820.57713,607.67921 819.99185,607.87237 C 818.83298,608.25483 818.77392,608.44302 819.17037,610.48994 L 819.38936,611.62064 L 816.91699,612.18996 C 815.55718,612.5031 814.34694,612.75846 814.22756,612.75742 C 814.10819,612.75639 813.27405,613.27517 812.37394,613.91028 L 810.73738,615.06501 L 805.79842,615.10259 C 803.08201,615.12326 800.52325,615.08457 800.1123,615.01662 L 800.1123,615.01662 z"/>
<path title="Jaintia Hills" d="M 830.61093,617.25389 C 828.06361,615.44565 821.13328,611.66873 820.3626,611.66873 C 819.89212,611.66873 819.73446,611.41981 819.49363,610.29684 C 819.08973,608.41353 819.07542,608.45374 820.2183,608.26188 C 820.77869,608.1678 821.63455,607.96938 822.12022,607.82094 C 822.99984,607.55209 823.00325,607.54412 823.00325,605.76038 C 823.00325,604.77552 822.86951,603.2017 822.70604,602.26302 C 822.42358,600.64101 822.44718,600.47544 823.18152,598.92605 C 823.6065,598.02939 824.10967,597.28963 824.29966,597.28212 C 824.48967,597.27463 825.1197,596.95442 825.69973,596.57057 C 826.27977,596.18672 827.33585,595.69766 828.04656,595.48376 C 830.66318,594.69628 832.14941,595.10645 834.33771,597.22002 C 834.90683,597.76971 835.89928,598.69091 836.54315,599.26715 C 837.69046,600.29395 837.70259,600.32271 837.1511,600.70899 C 836.70475,601.02163 836.58839,601.395 836.58839,602.51464 C 836.58839,603.90688 836.6048,603.93484 837.79136,604.56431 C 838.453,604.91531 839.64327,605.75641 840.43643,606.43344 C 841.22959,607.11045 842.18601,607.85404 842.56181,608.08583 C 843.7329,608.80815 844.73947,609.84824 844.73947,610.33604 C 844.73947,610.5932 844.38027,611.02882 843.94124,611.30409 C 843.50222,611.57936 842.37125,612.49384 841.42799,613.33628 C 840.0457,614.57082 839.37034,614.96064 837.9469,615.34562 C 835.76157,615.93667 834.68296,616.56402 833.75071,617.78626 C 833.35355,618.30697 832.94312,618.72567 832.83865,618.71672 C 832.73418,618.70778 831.7317,618.0495 830.61093,617.2539 L 830.61093,617.25389 z"/>
<path title="South Garo Hills" d="M 768.16229,616.43513 C 766.91573,616.23694 765.76944,615.94841 765.61499,615.79397 C 765.45626,615.63523 765.41031,615.10738 765.5093,614.57971 C 765.65124,613.82311 765.85073,613.59862 766.56223,613.39479 C 767.33392,613.17372 767.45876,613.00426 767.59488,611.99307 C 767.68004,611.36044 767.89401,610.69853 768.07036,610.52218 C 768.24671,610.34582 768.3954,609.76749 768.40078,609.23699 C 768.40678,608.64445 768.65154,607.97795 769.03539,607.50886 L 769.66024,606.74528 L 773.15897,607.06156 L 776.65771,607.37784 L 777.34708,606.55905 C 777.72623,606.10872 778.28098,605.34209 778.57986,604.85544 C 778.87873,604.36879 779.46903,603.71587 779.89165,603.4045 C 780.64996,602.84582 780.6651,602.84531 781.04638,603.3658 C 781.30648,603.72085 781.43274,604.62503 781.43274,606.13244 C 781.43274,608.14803 781.48812,608.38926 781.98727,608.54768 C 782.29225,608.64448 783.01301,609.17235 783.58895,609.72072 C 784.16488,610.2691 785.26407,611.25082 786.03159,611.90232 C 786.79911,612.55381 787.60982,613.44025 787.83317,613.87216 L 788.23925,614.65746 L 784.71592,614.65746 C 781.40728,614.65746 780.9971,614.71896 777.98431,615.66684 C 774.295,616.82756 771.83879,617.01969 768.16229,616.43514 L 768.16229,616.43513 z"/>
</g>
<g class="label" text-anchor="middle" font-size="4" font-family="sans-serif"  fill="#444">
<text x="763" y="603">West Garo Hills</text>
<text x="778" y="597">East Garo Hills</text>
<text x="798" y="601">West Khasi Hills</text>
<text x="815" y="592">Ri Bhoi</text>
<text x="813" y="605">East Khasi Hills</text>
<text x="832" y="609">Jaintia Hills</text>
<text x="775" y="611">South Garo Hills</text>
</g>
</svg>
