<svg xmlns="http://www.w3.org/2000/svg" viewBox="847 588 61 72">
<g title="Manipur" fill="#328707">
<path title="Tamenglong" d="M 857.81667,635.37313 C 857.47444,634.73367 857.75685,632.40488 858.2236,632.01751 C 858.42859,631.84739 858.59631,631.50308 858.59631,631.2524 C 858.59631,631.00171 858.73971,630.6532 858.91498,630.47793 C 859.15875,630.23416 859.15874,629.99484 858.91498,629.45984 C 858.73971,629.07517 858.59631,627.54927 858.59631,626.06897 C 858.59631,624.58867 858.4638,623.08669 858.30184,622.73123 C 858.07547,622.23439 858.10687,621.84681 858.43769,621.05505 C 858.67437,620.4886 858.86801,619.49119 858.86801,618.83858 C 858.86801,617.46816 859.69076,615.11378 860.46108,614.27984 C 860.75236,613.9645 861.18033,613.05995 861.41213,612.26972 C 861.92175,610.53237 862.92639,608.68 863.35902,608.68 C 863.5325,608.68 863.89573,608.92453 864.16621,609.2234 C 864.489,609.58008 865.00305,609.76681 865.66214,609.76681 C 866.21443,609.76681 867.05344,609.90177 867.5266,610.06671 C 868.87332,610.53619 869.54485,609.91794 870.37722,607.44227 C 870.8645,605.993 871.44869,604.92787 872.30793,603.92212 C 873.67495,602.322 873.83427,601.51977 872.99655,600.45478 C 872.32247,599.59782 872.3107,599.11183 872.95002,598.53326 C 873.57277,597.96968 873.97838,597.96152 874.18822,598.50837 C 874.27947,598.74613 874.49017,598.84727 874.66683,598.73809 C 874.86717,598.61428 874.90894,598.66195 874.78121,598.86862 C 874.52993,599.27519 875.13072,600.04197 875.51464,599.80469 C 875.67054,599.70834 875.71718,599.75987 875.61854,599.91948 C 875.52009,600.07877 875.64407,600.61729 875.89406,601.1162 C 876.14404,601.61509 876.43205,602.20668 876.53407,602.43084 C 876.63768,602.65847 877.16236,602.87592 877.72257,602.92341 L 878.72557,603.00844 L 878.64601,604.45859 C 878.60226,605.25618 878.49578,605.86559 878.4094,605.81285 C 878.19613,605.68262 875.3073,608.66811 874.92937,609.40932 C 874.4555,610.33869 874.57103,611.28771 875.25978,612.12336 C 876.11392,613.15968 876.29468,613.74453 875.8698,614.09714 C 875.67462,614.25913 875.43664,614.96279 875.34097,615.66083 C 875.20665,616.6408 874.9674,617.09664 874.291,617.66133 C 873.41748,618.39056 873.41497,618.40002 873.40955,620.98142 C 873.40656,622.40524 873.33169,623.52578 873.24317,623.47151 C 873.15466,623.41724 872.88612,624.18059 872.64642,625.16785 C 872.22745,626.8934 872.23179,627.00441 872.75838,628.03662 C 873.40892,629.31178 873.30836,629.68872 872.12264,630.41971 C 871.39102,630.87075 870.84709,630.95686 869.09978,630.89826 C 867.92789,630.85895 866.91198,630.73442 866.8422,630.62151 C 866.77241,630.5086 866.31748,630.41622 865.83123,630.41622 C 865.17901,630.41622 864.73784,630.64755 864.14912,631.29826 L 863.3511,632.18031 L 864.16621,631.50204 L 864.98132,630.82377 L 864.36722,631.52349 C 863.88602,632.07178 863.56896,632.19618 862.90218,632.09832 C 862.31774,632.01254 862.11031,632.06898 862.23981,632.27852 C 862.3641,632.47963 862.26946,632.52264 861.96213,632.4047 C 861.62077,632.27371 861.55546,632.32217 861.7183,632.58565 C 861.87105,632.83282 861.83618,632.8809 861.6069,632.7392 C 861.1513,632.45763 860.13463,633.46093 859.54054,634.77837 C 859.01916,635.9346 858.25774,636.1973 857.81666,635.37313 L 857.81667,635.37313 z"/>
<path title="Senapati" d="M 873.41556,628.4225 C 872.54941,626.94452 872.56131,625.92733 873.47489,623.35195 C 873.5544,623.12779 873.64399,621.97354 873.67396,620.78693 C 873.72507,618.76378 873.77862,618.58619 874.53408,617.93406 C 875.01445,617.51939 875.47506,616.74503 875.67502,616.01597 C 875.85945,615.34351 876.13379,614.54409 876.28466,614.23948 C 876.60005,613.60268 876.31553,612.75311 875.40889,611.62446 C 874.57574,610.58729 874.88106,609.78143 876.93624,607.59319 C 878.7612,605.65007 879.07153,605.00974 878.9261,603.48732 C 878.84512,602.63955 878.75359,602.55594 877.76958,602.43084 C 876.88459,602.31832 876.66693,602.16675 876.50269,601.54857 C 876.39362,601.13804 875.86579,600.20466 875.32973,599.4744 C 874.79367,598.74413 874.35506,598.03676 874.35506,597.90246 C 874.35506,597.76816 875.18036,597.70479 876.18906,597.76164 C 877.53513,597.8375 878.43249,597.72102 879.56205,597.32379 L 881.10105,596.78258 L 881.87153,597.59226 C 882.58103,598.33787 882.74589,598.38837 883.95495,598.23044 C 884.99973,598.09397 885.70367,598.2133 887.40148,598.81469 L 889.53508,599.57043 L 890.29994,599.00764 C 890.7206,598.69811 891.49271,598.37671 892.01574,598.29341 C 893.2684,598.09391 894.02593,598.95695 893.65171,600.15723 C 893.51807,600.58582 893.19214,601.67007 892.9274,602.56669 C 892.66266,603.46331 892.28783,604.39023 892.09445,604.62651 C 891.90108,604.86279 891.83109,605.14435 891.93894,605.2522 C 892.04678,605.36005 891.95535,605.38261 891.73576,605.30235 C 891.22264,605.1148 888.74769,607.2754 888.64476,608.00074 C 888.60235,608.29962 888.50044,608.48301 888.4183,608.4083 C 888.14926,608.16356 887.10234,609.31561 887.24825,609.69585 C 887.32652,609.89984 887.27815,609.99726 887.14075,609.91234 C 886.64662,609.60694 886.49439,610.44769 886.53901,613.23572 C 886.57396,615.41919 886.74797,616.61067 887.29623,618.4207 C 887.68775,619.71324 888.0672,621.16715 888.13946,621.65162 C 888.21172,622.1361 888.37845,622.46598 888.50997,622.3847 C 888.64147,622.30342 888.66857,622.44672 888.57017,622.70315 C 888.47117,622.96114 888.5029,623.10039 888.64121,623.01491 C 888.77868,622.92994 888.91676,623.12385 888.94805,623.44582 C 888.97935,623.76778 889.08698,624.51172 889.18726,625.09901 C 889.44654,626.61745 888.72127,627.90168 887.47213,628.13602 C 886.96006,628.23209 886.42342,628.19301 886.27959,628.04918 C 885.98505,627.75464 886.36389,626.50735 886.83663,626.21518 C 887.18477,626.00003 887.21178,624.45295 886.87665,623.92368 C 886.53916,623.39069 885.82606,623.7398 885.71973,624.49007 C 885.66021,624.90993 885.41797,625.14812 884.98867,625.20886 C 884.37589,625.29557 884.35489,625.24602 884.52823,624.12205 C 884.99786,621.07681 885.01035,619.55365 884.56708,619.38355 C 884.2059,619.24495 884.13636,618.67324 884.13636,615.84253 C 884.13636,613.07988 884.06171,612.43814 883.72535,612.30906 C 883.20274,612.10851 882.43732,612.7277 882.61985,613.20337 C 882.69599,613.40178 882.60986,613.53503 882.42844,613.49946 C 882.24703,613.46389 882.11535,613.64745 882.13584,613.90735 C 882.15633,614.16726 882.05062,614.30422 881.90095,614.21171 C 881.72218,614.10123 881.69555,614.70819 881.82335,615.98071 C 881.9917,617.65706 881.9593,617.91789 881.58276,617.91789 C 881.34344,617.91789 880.87253,618.19299 880.5363,618.52922 L 879.92497,619.14055 L 879.83988,617.95427 C 879.78223,617.15051 879.97542,616.23058 880.439,615.10139 C 881.2509,613.12375 882.04049,609.59665 881.91565,608.50515 C 881.79177,607.42202 880.56411,607.25887 879.92118,608.2401 C 879.3681,609.08419 878.72488,611.71018 878.71199,613.17668 C 878.70666,613.7819 878.56542,614.41396 878.39812,614.58127 C 878.23081,614.74857 877.99642,615.35379 877.87724,615.92619 C 877.75806,616.4986 877.16134,618.28944 876.55121,619.90583 C 875.56499,622.51857 875.44171,623.10657 875.44036,625.20403 C 875.43865,627.85759 875.06166,629.60111 874.4896,629.60111 C 874.27876,629.60111 873.79545,629.07073 873.41556,628.4225 L 873.41556,628.4225 z"/>
<path title="Ukhrul" d="M 893.76279,631.96104 C 893.1755,631.46576 891.83913,630.4647 890.79308,629.73646 C 889.74702,629.00822 888.83885,628.37282 888.77491,628.32445 C 888.71098,628.27609 888.92494,627.76274 889.25039,627.18368 C 889.97773,625.88956 889.98083,625.44894 889.27359,623.89535 C 888.96747,623.22289 888.6144,622.18362 888.48899,621.58588 C 888.36357,620.98813 888.02285,619.70434 887.73182,618.733 C 887.42244,617.70044 887.12385,615.61277 887.01288,613.7065 L 886.82309,610.44607 L 888.31515,608.6579 C 889.13578,607.67441 890.45695,606.3752 891.2511,605.77078 C 892.54028,604.78958 892.7477,604.48625 893.18685,602.94 C 893.45737,601.9875 893.813,600.75018 893.97715,600.19041 C 894.22662,599.33971 894.20162,599.09089 893.82493,598.67465 C 893.57706,598.40075 893.37425,598.05643 893.37425,597.90948 C 893.37425,597.76253 893.89389,596.67519 894.52899,595.49317 C 895.63535,593.43407 895.73344,593.33425 896.87048,593.11032 C 898.49593,592.79021 898.72231,593.10228 898.01868,594.69299 C 897.7058,595.40032 897.44951,596.2386 897.44917,596.55584 C 897.44882,596.87308 898.00556,597.94846 898.68637,598.94559 L 899.92419,600.75855 L 899.037,602.47773 C 898.22036,604.06025 898.14901,604.40361 898.13945,606.79731 C 898.12995,609.1716 898.19234,609.49342 898.85694,610.49824 C 899.33297,611.21795 900.17908,611.92741 901.30227,612.5486 L 903.0197,613.49844 L 902.94558,615.09684 C 902.88659,616.36921 902.7039,616.92957 902.04986,617.84415 C 900.98492,619.3333 900.26667,621.00837 900.03771,622.53684 C 899.76853,624.33384 899.12655,625.96708 897.84833,628.10674 C 897.22343,629.1528 896.38698,630.65056 895.98958,631.4351 C 895.59217,632.21964 895.16882,632.86154 895.0488,632.86154 C 894.92878,632.86154 894.35007,632.45631 893.76279,631.96104 L 893.76279,631.96104 z"/>
<path title="Chandel" d="M 884.67977,654.96401 C 884.30618,654.90126 882.19708,654.21949 879.9929,653.44896 C 875.61475,651.91848 875.6197,651.92312 876.39283,650.07276 C 876.61699,649.53628 876.80039,648.62047 876.80039,648.03764 C 876.80039,647.17897 877.00656,646.75427 877.8872,645.79889 C 878.48494,645.15041 878.97401,644.4788 878.97401,644.30642 C 878.97401,644.13403 879.41354,643.331 879.95075,642.52191 C 880.73775,641.33661 880.89275,640.89262 880.74863,640.23645 C 880.63383,639.7138 880.72193,639.1278 880.99455,638.60062 C 881.22848,638.14825 881.41933,637.1089 881.41933,636.28735 C 881.41933,634.62942 881.74478,634.21029 882.50086,634.89453 C 882.778,635.14533 883.28992,635.31014 883.63847,635.26077 C 884.20981,635.17985 884.28039,635.0121 884.35524,633.55701 C 884.42721,632.15797 884.56291,631.80504 885.37412,630.90713 C 885.88884,630.3374 886.30998,629.58597 886.30998,629.23731 C 886.30998,628.68273 886.4503,628.59788 887.43107,628.55945 C 888.36624,628.5228 888.85065,628.72657 890.35188,629.78804 C 891.34172,630.48793 892.77929,631.59077 893.54648,632.2388 L 894.94137,633.41705 L 892.93514,637.21491 C 891.6373,639.6718 890.92834,641.32454 890.92726,641.89573 C 890.92633,642.38135 890.72626,643.14549 890.48264,643.5938 C 890.23902,644.04211 889.85755,644.7581 889.63494,645.18489 C 889.34868,645.73367 889.18055,647.28495 889.06067,650.48309 L 888.89116,655.00531 L 887.12509,655.0417 C 886.15375,655.06172 885.05336,655.02676 884.67977,654.96401 L 884.67977,654.96401 z"/>
<path title="Churachandpur" d="M 866.22042,650.94489 C 864.27445,649.15589 862.76809,648.3472 861.39208,648.35276 C 860.13045,648.35785 859.88437,648.5114 859.29511,649.6612 C 858.94037,650.35339 858.72377,650.51575 858.37417,650.35148 C 858.12274,650.23335 857.33184,650.1161 856.61659,650.09093 C 855.77851,650.06144 855.11599,649.86431 854.75323,649.53651 C 853.54206,648.44206 851.7561,643.77044 852.29479,643.10584 C 852.6989,642.60726 853.23091,639.69294 853.04965,638.97074 C 852.91338,638.4278 853.00164,638.31889 853.6371,638.24578 C 854.28465,638.17128 854.39612,638.02476 854.46852,637.15295 C 854.53314,636.37466 854.42524,636.06692 853.99304,635.79701 C 853.32284,635.37847 853.30433,635.09843 853.85568,633.72047 L 854.2774,632.66649 L 855.91347,632.69609 L 857.54954,632.72569 L 857.37857,633.87008 C 857.15733,635.35097 857.5634,636.12197 858.5646,636.12197 C 859.19542,636.12197 859.41581,635.92921 859.82665,635.01813 C 860.43683,633.66498 861.54861,632.69375 862.90567,632.32834 C 863.469,632.17665 864.21835,631.7455 864.5709,631.37023 C 865.22214,630.67701 866.15693,630.48178 866.62512,630.9412 C 866.76709,631.0805 867.86137,631.2253 869.05686,631.26295 C 871.309,631.33388 872.03732,631.12259 873.20392,630.05982 C 873.58386,629.7137 873.91414,629.59689 874.06819,629.75414 C 874.20532,629.89413 874.40292,631.18807 874.5073,632.62957 C 874.6662,634.82406 874.62505,635.3533 874.25437,635.88253 C 874.01088,636.23016 873.81166,636.72878 873.81166,636.99056 C 873.81166,637.55723 875.12447,638.29559 876.13201,638.29559 C 876.8539,638.29559 877.8609,639.20162 877.87816,639.86664 C 877.89103,640.36269 879.00066,640.71268 879.71157,640.44492 C 880.71088,640.06852 880.69847,640.65054 879.67114,642.34172 C 879.13827,643.2189 878.70231,644.02409 878.70231,644.13105 C 878.70231,644.23801 878.21324,644.88113 877.6155,645.5602 C 876.78435,646.50444 876.5266,647.02557 876.51981,647.77552 C 876.51494,648.31487 876.27882,649.42861 875.99512,650.25051 L 875.4793,651.74488 L 872.48552,651.74488 C 870.45282,651.74488 869.38269,651.85391 869.15204,652.08451 C 868.53127,652.70513 867.8449,652.43831 866.22042,650.94488 L 866.22042,650.94489 z"/>
<path title="Imphal East" d="M 855.10409,632.39065 C 854.24156,632.28544 854.20194,632.23354 854.35997,631.4158 C 854.45178,630.94074 854.63243,629.65651 854.76142,628.56195 C 854.96595,626.82645 855.16045,626.33108 856.28163,624.69018 C 856.98876,623.65528 857.67656,622.80854 857.8101,622.80854 C 857.94364,622.80854 858.0529,624.12626 858.0529,625.73681 C 858.0529,627.981 858.15443,628.81004 858.48751,629.28558 C 858.88585,629.8543 858.88586,629.94615 858.48751,630.38632 C 858.24847,630.65045 858.0529,631.07473 858.0529,631.32917 C 858.0529,631.58361 857.8702,631.86189 857.64691,631.94758 C 857.42361,632.03327 857.29289,632.18747 857.35641,632.29025 C 857.48924,632.50519 856.43024,632.55239 855.10409,632.39064 L 855.10409,632.39065 z M 881.69908,626.81616 C 881.24915,626.03161 880.88197,625.26745 880.88311,625.11801 C 880.88426,624.96858 881.24782,624.23498 881.69104,623.4878 C 882.13425,622.74061 882.49896,621.98003 882.50151,621.7976 C 882.50406,621.61517 882.13353,620.93729 881.67812,620.29119 C 880.78123,619.01875 880.81318,618.18959 881.75912,618.18959 C 882.28013,618.18959 882.3021,618.07799 882.13501,616.28018 C 881.97697,614.57958 882.02285,614.28245 882.55465,613.56315 C 882.88305,613.11897 883.25102,612.75554 883.37235,612.75554 C 883.49369,612.75554 883.59296,614.1616 883.59296,615.88012 C 883.59296,618.64243 883.65596,619.0677 884.13636,619.54811 C 884.78853,620.20028 884.85977,622.05242 884.27221,623.08024 C 883.79366,623.91738 883.75553,625.03605 884.1907,625.47123 C 884.63728,625.91781 885.3593,625.88046 885.76658,625.38972 C 886.58043,624.40909 886.84239,625.19119 886.15895,626.56117 C 885.84858,627.18333 885.48669,627.45537 884.79744,627.58467 C 884.2811,627.68154 883.79166,627.8692 883.70977,628.00169 C 883.30405,628.65816 882.47519,628.16946 881.69908,626.81616 L 881.69908,626.81616 z"/>
<path title="Imphal West" d="M 879.4277,632.11436 C 879.36072,632.00228 879.153,630.78156 878.96611,629.40165 L 878.62632,626.89271 L 877.3058,626.71754 L 875.98528,626.54237 L 875.98528,624.45575 C 875.98528,622.81079 876.15929,621.89234 876.80742,620.11643 C 877.2596,618.87744 877.8098,617.51517 878.03008,617.08918 C 878.25037,616.6632 878.4306,616.0624 878.4306,615.75408 C 878.4306,615.44575 878.54189,614.98118 878.67791,614.7217 C 878.81393,614.46221 879.05684,613.30228 879.21772,612.14407 C 879.67289,608.86729 880.60286,607.21144 881.48988,608.09846 C 881.9011,608.50968 881.04199,612.91363 880.1642,614.89407 C 879.74397,615.84219 879.51742,616.86528 879.51742,617.81487 C 879.51742,619.08654 879.58676,619.27641 880.05126,619.27641 C 880.34487,619.27641 880.71781,619.52436 880.88,619.82742 C 881.04219,620.13048 881.30992,620.29499 881.47495,620.19299 C 881.66154,620.07768 881.69768,620.13265 881.57055,620.33836 C 881.45641,620.52303 881.56746,620.89166 881.82193,621.17284 C 882.18573,621.57484 882.21599,621.79193 881.97183,622.24815 C 881.80358,622.56254 881.75159,622.9584 881.8563,623.12784 C 881.97069,623.31293 881.92564,623.36109 881.74343,623.24848 C 881.56147,623.13602 881.21452,623.50335 880.87607,624.16678 C 880.32285,625.25115 880.35336,625.98438 880.93668,625.62387 C 881.11078,625.51628 881.1536,625.56781 881.04119,625.74967 C 880.93647,625.91911 880.99076,626.31927 881.16183,626.63892 C 881.40831,627.09946 881.37579,627.43537 881.00515,628.2573 C 880.7479,628.82777 880.59133,629.66174 880.6572,630.11058 C 880.72893,630.59936 880.66061,630.90601 880.48682,630.8752 C 880.32725,630.84691 880.15798,631.16 880.1107,631.57095 C 880.02883,632.28245 879.6895,632.55242 879.4277,632.11436 z"/>
<path title="Thoubal" d="M 879.42367,638.61383 C 878.79924,637.92383 878.86085,637.12476 879.65327,635.63621 C 880.11378,634.77114 880.33252,633.92826 880.33252,633.01884 C 880.33252,632.28108 880.45055,631.30198 880.5948,630.84306 C 880.73905,630.38414 880.92137,629.703 880.99996,629.32941 C 881.26879,628.0513 881.51664,627.89607 882.44126,628.42674 C 883.2176,628.8723 883.31634,628.8751 883.77592,628.46465 C 884.36055,627.94251 885.22115,627.76212 885.69865,628.06164 C 886.35926,628.476 886.05221,629.59813 884.95147,630.7923 C 883.95144,631.8772 883.86466,632.09368 883.86466,633.50326 C 883.86466,635.18199 883.51932,635.46119 882.642,634.49176 C 882.37152,634.19288 882.0054,633.94835 881.82839,633.94835 C 881.31565,633.94835 880.87593,635.21689 880.87593,636.69602 C 880.87593,638.0354 880.52744,639.1107 880.09337,639.1107 C 879.97235,639.1107 879.67099,638.88711 879.42368,638.61383 L 879.42367,638.61383 z"/>
<path title="Bishnupur" d="M 877.91987,639.1107 C 877.32056,638.36495 876.83311,638.02389 876.36654,638.02389 C 875.99257,638.02389 875.33007,637.83953 874.89433,637.61419 C 874.10248,637.20472 874.05033,636.76155 874.69568,635.92607 C 874.83662,635.74361 874.91043,634.38558 874.85971,632.90824 C 874.79754,631.09739 874.87348,630.09445 875.09277,629.83023 C 875.27167,629.61467 875.5006,628.92202 875.6015,628.29102 C 875.70241,627.66002 875.8661,627.09359 875.96528,627.03229 C 876.06445,626.971 876.63821,626.98692 877.24029,627.06768 L 878.33498,627.21451 L 878.67269,629.69839 C 879.09536,632.80722 879.19017,633.13324 879.67158,633.13324 C 880.25195,633.13324 880.14408,633.98253 879.38156,635.41663 C 878.50052,637.07363 878.49778,638.28043 879.37319,639.10284 C 879.74218,639.44948 879.97949,639.83759 879.90056,639.96531 C 879.57506,640.49198 878.74054,640.13192 877.91987,639.1107 z"/>
</g>
<g class="label" text-anchor="middle" font-size="3" font-family="sans-serif"  fill="#444">
<text x="868" y="618">Tamenglong</text>
<text x="886" y="604">Senapati</text>
<text x="893" y="613">Ukhrul</text>
<text x="886" y="641">Chandel</text>
<text x="866" y="640">Churachandpur</text>
<text x="873" y="625">Imphal East</text>
<text x="880" y="622">Imphal West</text>
<text x="882" y="633">Thoubal</text>
<text x="877" y="636">Bishnupur</text>
</g>
</svg>

