<svg xmlns="http://www.w3.org/2000/svg" viewBox="825 632 45 100">
<g title="Mizoram" fill="#328707">
<path title="Mamit" d="M 835.77328,677.40603 C 835.77328,676.88839 835.32489,675.92022 834.55062,674.76605 C 833.59601,673.34306 833.32795,672.69893 833.32795,671.82796 C 833.32795,671.0735 833.15933,670.55983 832.80697,670.24095 C 832.4954,669.95899 832.1024,668.93181 831.82927,667.68559 C 831.57808,666.53946 831.26232,665.48556 831.12759,665.3436 C 830.72551,664.91992 830.8475,663.88285 831.43489,662.73147 C 832.13233,661.36439 832.1602,659.85001 831.57712,655.00531 C 831.32533,652.9132 831.01754,650.30729 830.89317,649.2144 C 830.76879,648.1215 830.60624,647.16653 830.53194,647.09223 C 830.45765,647.01794 830.69511,646.65889 831.05965,646.29436 C 831.56248,645.79152 832.01253,645.63157 832.92453,645.63157 C 834.12484,645.63157 834.12717,645.63348 834.50156,646.92216 C 834.87572,648.2101 834.87916,648.21292 836.1779,648.2971 C 836.89367,648.3435 837.60897,648.2518 837.76744,648.09333 C 838.23517,647.62559 838.36513,647.73626 839.03988,649.17688 C 839.60885,650.39164 839.64736,650.67916 839.3765,651.69013 C 839.10508,652.7032 839.13149,652.89669 839.61118,653.4092 C 839.9451,653.76598 840.79481,654.11325 841.83425,654.31778 C 842.75966,654.49986 843.70021,654.71849 843.92436,654.80361 C 844.14851,654.88873 844.45418,654.96894 844.60362,654.98184 C 844.75305,654.99475 844.88088,655.18871 844.88767,655.41287 C 844.89446,655.63702 845.01673,655.79972 845.15937,655.77442 C 845.48944,655.71587 845.3322,659.52983 844.99001,659.88238 C 844.60188,660.28224 844.66383,668.53341 845.05315,668.2928 C 845.22569,668.18617 845.29431,668.21627 845.20568,668.35969 C 845.11704,668.5031 845.14536,669.06755 845.26861,669.61402 C 845.42639,670.31362 845.40136,670.59055 845.18401,670.54998 C 844.98315,670.51249 844.87532,671.02927 844.87532,672.02942 C 844.87532,672.8748 844.78339,673.50934 844.67103,673.43951 C 844.55868,673.36968 844.34253,673.63926 844.19071,674.03858 C 843.96659,674.62808 843.80063,674.72886 843.30819,674.5745 C 842.22794,674.2359 841.62476,674.28174 841.60717,674.70376 C 841.59782,674.92791 841.42617,675.07517 841.2257,675.03098 C 840.74649,674.92537 839.54525,676.06261 839.76332,676.41545 C 839.86274,676.5763 839.79604,676.60513 839.60198,676.48519 C 839.18563,676.22786 838.15266,677.12873 838.33104,677.59358 C 838.41696,677.8175 838.31052,677.87815 838.02434,677.76833 C 837.78328,677.67583 837.65478,677.71262 837.73879,677.85009 C 837.82278,677.98756 837.41491,678.12781 836.8324,678.16174 C 835.8224,678.22059 835.77328,678.18553 835.77328,677.40603 z M 839.54246,653.03547 C 839.2045,652.60453 839.21411,652.59492 839.64504,652.93288 C 840.09763,653.28783 840.24156,653.51095 840.01794,653.51095 C 839.96152,653.51095 839.74755,653.29698 839.54246,653.03547 z"/>
<path title="Kolasib" d="M 846.36968,661.58767 C 846.36968,661.08794 846.19017,660.44174 845.97077,660.15167 C 845.71739,659.81666 845.5687,658.97778 845.56322,657.85217 C 845.55563,656.2968 845.45639,655.96097 844.75171,655.10606 C 844.02969,654.23012 843.78143,654.11687 842.28631,653.98129 C 839.99996,653.77397 839.53167,653.31384 839.74652,651.48576 C 839.88438,650.31291 839.79658,649.85767 839.20898,648.69809 L 838.50669,647.31219 L 839.54027,645.99639 C 840.10874,645.27271 840.73574,644.06928 840.93361,643.3221 C 841.35475,641.73184 842.31708,639.71606 843.43056,638.09182 C 844.36594,636.72736 845.14252,636.59743 846.11855,637.64211 C 846.68489,638.24829 846.93502,638.32576 847.90269,638.19472 C 848.85832,638.06531 849.04886,638.12152 849.16542,638.56722 C 849.24605,638.87556 849.17405,639.06793 848.99092,639.03349 C 848.81945,639.00124 848.6975,639.19697 848.71991,639.46845 C 848.74232,639.73992 848.69244,639.89382 848.60906,639.81043 C 848.52568,639.72704 848.29337,639.795 848.09283,639.96144 C 847.7189,640.27178 847.56461,642.2325 847.93198,642.0057 C 848.04405,641.93651 848.1768,642.8727 848.22698,644.08613 C 848.29389,645.70443 848.45495,646.48442 848.83133,647.013 C 850.07913,648.76537 850.92299,657.88731 850.04901,660.17579 C 849.69467,661.10359 849.50106,661.3057 849.07366,661.19394 C 848.4545,661.03202 847.65256,661.59153 847.90902,662.0065 C 848.00942,662.16894 847.9527,662.20833 847.77579,662.099 C 847.60636,661.99428 847.22067,662.04082 846.91871,662.20243 C 846.41868,662.47003 846.36968,662.41516 846.36968,661.58767 L 846.36968,661.58767 z"/>
<path title="Aizawl" d="M 844.91645,675.59812 C 844.49874,675.49049 844.44428,675.30136 844.59297,674.4749 C 844.69131,673.92832 844.83695,672.8392 844.91662,672.05466 C 844.99629,671.27012 845.18579,670.62822 845.33775,670.62822 C 845.50956,670.62822 845.54237,670.24296 845.42452,669.60933 C 845.08301,667.77315 844.95031,660.52739 845.25267,660.22503 C 845.58156,659.89614 846.09798,661.03382 846.09798,662.08727 C 846.09798,662.92699 846.57353,662.92781 847.80779,662.09022 C 848.36765,661.71029 849.00271,661.49028 849.30863,661.57029 C 849.73468,661.6817 849.92954,661.47175 850.29973,660.50244 C 850.67848,659.5107 850.73737,658.64797 850.63058,655.65625 C 850.47157,651.2022 850.0971,648.90485 849.24009,647.12593 C 848.87385,646.3657 848.52644,645.04948 848.45124,644.1372 C 848.37733,643.24058 848.23289,642.11804 848.13028,641.64266 C 847.98115,640.95177 848.08566,640.59223 848.65106,639.85094 C 849.0401,639.34088 849.35841,638.71503 849.35841,638.46017 C 849.35841,638.06772 849.59762,638.00925 850.9207,638.07826 L 852.483,638.15974 L 852.46271,639.96872 C 852.44914,641.17864 852.29084,642.00904 851.9847,642.47628 C 851.55341,643.1345 851.55682,643.28257 852.04367,645.03942 C 852.62735,647.14568 853.19643,648.34852 854.22229,649.64425 C 854.83815,650.42211 855.08447,650.53392 856.15098,650.51981 C 858.14055,650.49348 859.41033,650.79619 859.41989,651.29913 C 859.42456,651.54429 859.7296,652.23394 860.09776,652.83169 C 860.85238,654.05687 860.94516,655.0958 860.39624,656.17354 C 860.19073,656.57707 859.88838,658.05951 859.72438,659.46785 C 859.45531,661.77841 859.34232,662.11499 858.56741,662.9145 C 857.97888,663.52171 857.75404,663.97414 857.8529,664.35221 C 857.93841,664.6792 857.87282,664.88 857.69186,664.84525 C 857.36209,664.78191 857.35157,664.83697 857.09301,667.97912 C 856.92023,670.07867 856.91744,670.08481 856.13627,670.08481 C 855.67389,670.08481 854.59776,669.59882 853.51035,668.89891 C 850.13361,666.72547 849.08371,666.38021 848.64774,667.29986 C 848.52377,667.56137 848.35786,669.3648 848.27905,671.30747 L 848.13575,674.83961 L 847.10169,674.92483 C 846.51828,674.97293 846.00238,675.18014 845.91789,675.40032 C 845.76221,675.80605 845.74024,675.81038 844.91645,675.59812 L 844.91645,675.59812 z"/>
<path title="Champhai" d="M 861.31232,684.41713 C 861.31173,683.74293 861.08559,682.8922 860.76891,682.37279 C 860.40233,681.77154 860.22652,681.00404 860.22652,680.00495 C 860.22652,678.80439 860.12437,678.47204 859.68267,678.23565 C 858.59888,677.65562 857.91353,674.62103 858.58356,673.36906 C 858.78899,672.9852 858.67289,672.75978 858.02186,672.27845 L 857.20121,671.67171 L 857.39074,668.50086 C 857.58764,665.20663 857.87612,664.24626 859.04435,662.99579 C 859.57665,662.42601 859.76917,661.77842 860.05397,659.5995 C 860.34394,657.38116 860.90457,655.53785 861.48657,654.88927 C 861.54384,654.82544 861.92566,655.08865 862.33505,655.47418 C 862.74444,655.8597 863.31083,656.21759 863.59369,656.26948 C 864.56118,656.44696 864.69671,657.11124 864.19042,659.1943 L 863.71702,661.14202 L 864.62088,662.54963 L 865.52473,663.95723 L 865.61641,668.23787 C 865.6929,671.80864 865.62733,672.75602 865.22098,673.95076 C 864.84387,675.05953 864.73111,676.27285 864.72173,679.3227 L 864.70962,683.26239 L 863.78111,684.41713 C 863.08299,685.28535 862.66164,685.57187 862.08297,685.57187 C 861.35881,685.57187 861.31327,685.50363 861.31232,684.41713 L 861.31232,684.41713 z"/>
<path title="Serchhip" d="M 855.51746,683.52529 C 854.0052,681.89025 853.2041,681.22462 852.74854,681.22462 C 852.39598,681.22462 852.03195,681.34689 851.93959,681.49633 C 851.63744,681.98521 849.94484,681.81268 849.65066,681.26301 C 849.26503,680.54245 847.05743,679.95149 846.49501,680.41825 C 846.26305,680.61076 846.13855,680.93844 846.21836,681.14641 C 846.29816,681.35439 846.2426,681.44985 846.09487,681.35855 C 845.94715,681.26725 845.82628,681.32203 845.82628,681.48029 C 845.82628,681.63855 845.64288,681.76803 845.41872,681.76803 C 845.11145,681.76803 845.01117,681.43773 845.01117,680.42555 C 845.01117,679.68719 845.13344,679.00751 845.28287,678.91515 C 845.43231,678.82279 845.55458,678.23145 845.55458,677.60106 C 845.55458,676.04755 846.20293,675.14589 847.17955,675.34121 C 848.38292,675.58189 848.54331,675.15055 848.54331,671.67347 C 848.54331,668.3645 848.86705,666.95365 849.56488,667.22144 C 849.77465,667.30193 850.09476,667.36779 850.27625,667.36779 C 850.45775,667.36779 851.54829,667.98624 852.69969,668.74212 C 853.86382,669.50636 854.93225,670.03049 855.10649,669.9228 C 855.30051,669.80289 855.34601,669.8486 855.22597,670.04283 C 855.09329,670.25749 855.33734,670.35651 855.99909,670.35651 C 856.88707,670.35651 856.96609,670.42151 856.96609,671.1519 C 856.96609,671.68402 857.19896,672.13046 857.66963,672.50069 C 858.32969,673.01991 858.35287,673.11559 858.04475,674.0492 C 857.76627,674.89302 857.79356,675.27199 858.22425,676.54198 C 858.51143,677.38878 858.99784,678.21396 859.34349,678.44073 C 859.85349,678.77531 859.95482,679.08698 859.95482,680.32095 C 859.95482,681.13449 860.05089,681.74073 860.1683,681.66816 C 860.3997,681.52515 860.43352,681.6826 860.66294,683.97032 L 860.81566,685.49334 L 859.77391,685.66546 C 857.87631,685.979 857.70917,685.89496 855.51746,683.52529 L 855.51746,683.52529 z"/>
<path title="Lunglei" d="M 846.55162,703.59562 C 846.45156,703.49555 846.36968,702.95221 846.36968,702.38819 C 846.36968,701.82417 846.25806,701.29371 846.12162,701.20938 C 845.98518,701.12507 845.79104,700.56765 845.69019,699.97069 C 845.58934,699.37373 845.40149,698.8853 845.27276,698.8853 C 845.14404,698.8853 844.69628,698.52624 844.27776,698.08738 C 843.30844,697.07099 841.74807,696.73491 841.18991,697.42233 C 840.86523,697.8222 840.86379,697.86422 841.18139,697.67281 C 841.44237,697.51552 841.50085,697.54338 841.36639,697.76094 C 841.25826,697.9359 841.06348,698.01336 840.93355,697.93306 C 840.80363,697.85275 840.56756,698.0036 840.40896,698.26825 C 840.14055,698.71618 840.08302,698.7051 839.57716,698.10802 C 839.23418,697.70319 839.03371,697.07168 839.03371,696.39601 C 839.03371,695.43781 838.93788,695.2854 838.12079,694.94399 C 836.82911,694.4043 836.53782,693.53833 835.88925,688.31007 C 835.53648,685.46635 835.43032,685.11666 834.68684,684.34959 C 833.50707,683.13238 833.5532,681.7785 834.82232,680.37374 C 835.34535,679.7948 835.77328,679.13809 835.77328,678.91437 C 835.77328,678.69064 836.01206,678.5076 836.3039,678.5076 C 837.16761,678.5076 838.13921,677.95182 839.51006,676.67361 C 841.65135,674.67702 841.87999,674.56977 843.12167,674.97956 C 843.71259,675.17458 844.19606,675.42358 844.19606,675.5329 C 844.19606,675.64222 844.47244,675.80103 844.81024,675.88581 C 845.35965,676.02371 845.41418,676.17722 845.3273,677.3417 C 845.27389,678.05766 845.11978,678.7596 844.98483,678.90157 C 844.84987,679.04353 844.73947,679.80769 844.73947,680.59971 C 844.73947,681.92825 844.78868,682.03973 845.37511,682.03973 C 845.79765,682.03973 846.11978,681.80045 846.33594,681.32602 C 846.63144,680.67749 846.76544,680.62631 847.80322,680.7655 C 848.48867,680.85745 849.12678,681.1428 849.39919,681.47921 C 849.88669,682.08125 851.89052,682.28706 852.21129,681.76803 C 852.62162,681.1041 853.5095,681.62301 855.21961,683.5262 C 856.22277,684.64262 857.13993,685.4965 857.25774,685.42369 C 857.74779,685.12083 857.72601,685.80929 857.23139,686.25692 C 856.5583,686.86605 856.48933,689.5413 857.10194,691.27762 C 857.6248,692.75955 857.61547,692.90784 856.99936,692.90784 C 856.45691,692.90784 855.77897,693.53207 856.03901,693.79212 C 856.12428,693.87737 855.72585,693.83848 855.15362,693.70567 C 853.43059,693.30579 853.16349,693.38193 852.74083,694.39348 C 852.1292,695.85733 852.26153,699.1382 852.91591,698.73378 C 853.04798,698.65215 853.07552,698.79518 852.97712,699.05161 C 852.85655,699.36581 852.90084,699.45441 853.11297,699.32331 C 853.32509,699.19221 853.36939,699.28081 853.24882,699.59502 C 853.14979,699.85307 853.18151,699.99215 853.31986,699.90648 C 853.4583,699.82075 853.55657,700.25538 853.54015,700.8808 C 853.51518,701.83098 853.41411,702.02419 852.90222,702.10019 C 852.02844,702.22991 851.08317,701.21584 850.8772,699.92775 C 850.72662,698.98614 850.64361,698.87961 850.28948,699.17351 C 850.06267,699.36175 849.93939,699.67811 850.01553,699.87653 C 850.09166,700.07496 850.00553,700.2082 849.82412,700.17263 C 849.6427,700.13707 849.51103,700.32061 849.53152,700.58052 C 849.5527,700.84925 849.44489,700.97652 849.28157,700.87557 C 849.10083,700.76387 849.06069,700.87091 849.17328,701.16431 C 849.29385,701.47852 849.24955,701.56711 849.03743,701.43601 C 848.82531,701.30492 848.78101,701.39352 848.90158,701.70772 C 849.02215,702.02192 848.97785,702.11052 848.76572,701.97942 C 848.5536,701.84833 848.5093,701.93692 848.62987,702.25112 C 848.75045,702.56533 848.70614,702.65393 848.49402,702.52283 C 848.2819,702.39173 848.2376,702.48033 848.35817,702.79453 C 848.47874,703.10873 848.43444,703.19733 848.22232,703.06623 C 848.02095,702.94178 847.96238,703.01457 848.05975,703.2683 C 848.16766,703.54953 847.99688,703.6813 847.47275,703.72123 C 847.0662,703.7522 846.65169,703.69568 846.55162,703.59562 L 846.55162,703.59562 z"/>
<path title="Lawngtlai" d="M 844.17489,725.6225 C 843.88714,725.27579 843.88135,724.64758 844.1441,722.28462 C 844.32211,720.68368 844.46777,717.51002 844.46777,715.23205 C 844.46777,711.66704 844.39425,710.94618 843.93987,710.05552 C 843.64954,709.48639 843.21494,707.87124 842.97411,706.46628 C 842.31384,702.61437 841.86997,701.13068 841.06027,700.06911 L 840.32493,699.10503 L 840.86092,698.38383 C 841.52239,697.49382 842.63435,697.328 843.60229,697.97502 C 844.00359,698.24327 844.4327,698.43252 844.55589,698.39559 C 844.67907,698.35864 844.71034,698.44091 844.62537,698.5784 C 844.5404,698.71588 844.63814,698.89254 844.84257,698.97099 C 845.047,699.04944 845.30177,699.58188 845.40873,700.15419 C 845.5157,700.72651 845.70542,701.31859 845.83035,701.46992 C 845.95528,701.62125 846.09717,702.23258 846.14566,702.82843 C 846.22601,703.81561 846.30776,703.91902 847.06659,703.99319 C 847.84555,704.06932 847.9684,703.94769 848.9685,702.11014 C 850.10555,700.02098 850.71693,699.48641 850.71693,700.58136 C 850.71693,701.57625 851.82808,702.47428 852.92875,702.36894 C 853.79049,702.28646 853.83747,702.22843 853.76921,701.33062 C 853.72944,700.8076 853.51548,699.91869 853.29373,699.35528 C 852.83239,698.18314 852.75495,695.0274 853.16857,694.25455 C 853.39917,693.82367 853.64423,693.76217 854.60554,693.89393 C 855.48069,694.01388 855.85324,693.94586 856.12686,693.61616 C 856.92142,692.65878 857.40503,693.08363 857.85501,695.13427 C 858.22908,696.83899 858.23441,697.18477 857.89672,697.8378 C 857.6355,698.34294 857.50894,699.49726 857.50778,701.38506 L 857.50606,704.1835 L 856.63212,704.6811 C 856.15145,704.95478 855.72238,705.07704 855.67863,704.9528 C 855.38333,704.11415 854.85948,703.36839 854.56566,703.36839 C 854.37503,703.36839 853.70794,704.31067 853.08324,705.46233 C 852.00431,707.4514 851.96562,707.60109 852.31067,708.45106 C 853.10035,710.39633 853.06771,710.52586 851.76424,710.61943 L 850.58108,710.70437 L 850.50179,712.96897 C 850.44874,714.48423 850.51589,715.17586 850.70474,715.05914 C 850.89932,714.93889 850.90086,715.11123 850.70973,715.61395 C 850.55723,716.01504 850.35711,717.23467 850.26501,718.32424 L 850.09755,720.30527 L 848.48634,720.49228 C 847.18558,720.64325 846.83209,720.79151 846.65179,721.26173 C 846.52895,721.58207 846.09905,722.7299 845.69643,723.81245 C 844.87932,726.00942 844.68644,726.23889 844.17489,725.6225 L 844.17489,725.6225 z"/>
<path title="Saiha" d="M 851.4392,721.26693 L 850.39539,720.29683 L 850.61187,718.35349 C 850.73094,717.28464 850.83385,715.18746 850.84057,713.6931 L 850.85278,710.97607 L 851.93959,710.88999 C 853.38922,710.77517 853.54838,710.55322 853.04499,709.34843 C 852.8106,708.78749 852.61885,708.02914 852.61885,707.66323 C 852.61885,706.84739 854.2804,703.75109 854.65662,703.86584 C 854.80605,703.91142 855.0435,704.46004 855.18428,705.08499 C 855.48093,706.40193 855.65112,706.47411 856.26185,705.54202 C 856.70563,704.86473 857.479,704.61879 857.54346,705.13446 C 857.60002,705.58693 857.66873,705.76586 858.2738,707.03638 C 858.64121,707.80787 858.85828,708.79864 858.86204,709.72134 C 858.86589,710.66299 859.05009,711.48527 859.3794,712.03081 C 859.66067,712.49676 859.97167,713.44438 860.07052,714.13664 C 860.2388,715.31524 860.20008,715.42757 859.46165,715.90271 C 857.02559,717.47018 856.42555,718.06989 855.88693,719.4755 C 854.9955,721.80177 854.60191,722.2528 853.47063,722.24438 C 852.72013,722.23879 852.23237,722.0041 851.4392,721.26693 L 851.4392,721.26693 z"/>
</g>
<g class="label" text-anchor="middle" font-size="4" font-family="sans-serif"  fill="#444">
<text x="839" y="663">Mamit</text>
<text x="846" y="650">Kolasib</text>
<text x="855" y="659">Aizawl</text>
<text x="862" y="671">Champhai</text>
<text x="852" y="677">Serchhip</text>
<text x="847" y="693">Lunglei</text>
<text x="849" y="706">Lawngtlai</text>
<text x="855" y="712">Saiha</text>
</g>
</svg>
