<svg xmlns="http://www.w3.org/2000/svg" viewBox="855 541 65 74">
<g title="Nagaland" fill="#328707">
<path title="Peren" d="M 866.58212,609.56783 C 865.48051,609.48969 865.03923,609.30764 864.44302,608.68533 L 863.69186,607.90127 L 864.2904,606.9328 C 864.72242,606.23379 864.84006,605.74174 864.71322,605.16428 C 864.46061,604.01409 863.18243,602.36445 861.74282,601.3306 C 860.59213,600.50424 860.49823,600.3476 860.49823,599.2546 C 860.49823,598.15265 860.58461,598.01283 861.7707,597.19496 C 862.47056,596.71237 863.71536,595.77846 864.53692,595.11959 C 866.01728,593.93239 866.04122,593.92449 867.20804,594.23656 C 868.87849,594.68334 869.66776,594.63175 871.26034,593.97166 C 872.28872,593.54542 872.92536,593.44179 873.66412,593.58038 C 874.65714,593.76667 874.66695,593.78125 874.49288,594.81155 C 874.32654,595.79613 874.57649,596.29986 875.2381,596.31337 C 875.35017,596.31566 875.44187,596.40923 875.44187,596.5213 C 875.44187,596.63338 875.44187,596.8616 875.44187,597.02846 C 875.44187,597.20507 875.15972,597.2779 874.76661,597.20275 C 874.27393,597.10857 873.79642,597.32612 873.00055,598.00736 C 871.78815,599.04512 871.6421,599.71787 872.45314,600.52892 C 873.28675,601.36252 873.11406,602.1898 871.78026,603.75239 C 870.94489,604.73104 870.38915,605.74329 870.00579,606.98447 C 869.44018,608.81567 868.80885,609.80799 868.26757,609.71655 C 868.10393,609.6889 867.34548,609.62198 866.58212,609.56783 L 866.58212,609.56783 z" />
<path title="Dimapur" d="M 867.29079,593.93422 C 866.76777,593.77469 866.30748,593.62236 866.26794,593.59572 C 866.08265,593.47087 867.62779,591.05241 867.97894,590.91766 C 868.1982,590.83352 868.3776,590.52265 868.3776,590.22685 C 868.3776,589.57695 870.96077,586.40038 871.48926,586.40038 C 871.6954,586.40038 872.24616,586.88279 872.71314,587.47241 C 873.94674,589.02994 874.32284,589.05684 876.72794,587.75955 C 878.70477,586.69326 878.83624,586.65939 879.1801,587.12795 C 879.38373,587.40541 879.46444,587.86191 879.36373,588.16644 C 879.26489,588.46532 879.12469,589.16033 879.05218,589.71091 C 878.97966,590.2615 878.68788,590.92235 878.40377,591.17946 C 878.11965,591.43658 877.8872,591.80267 877.8872,591.99299 C 877.8872,592.90974 877.05575,593.21058 874.66689,593.15819 C 872.77275,593.11665 872.06043,593.22036 870.99217,593.69321 C 869.55361,594.32996 868.75807,594.38177 867.29079,593.93422 L 867.29079,593.93422 z" />
<path title="Kohima" d="M 882.07325,596.9819 L 881.24327,596.15191 L 879.82688,596.7102 C 877.77444,597.51919 876.29528,597.45582 875.41776,596.5213 C 874.85268,595.91952 874.73968,595.57584 874.83703,594.75524 C 874.93952,593.89149 875.05815,593.73635 875.61618,593.73635 C 876.72593,593.73635 878.1589,593.0023 878.1589,592.43381 C 878.1589,592.15047 878.40343,591.69735 878.70231,591.42688 C 879.00118,591.1564 879.24571,590.6265 879.24571,590.24932 C 879.24571,589.87214 879.39573,589.14869 879.57907,588.64164 C 879.85424,587.88068 879.84239,587.59274 879.51115,586.99214 C 879.19639,586.42141 879.1649,585.95449 879.3651,584.8267 L 879.62035,583.38889 L 881.40287,583.55684 C 882.61276,583.67084 883.75276,583.5885 884.95147,583.30053 C 887.8623,582.60127 887.9402,582.62728 887.9402,584.29831 C 887.9402,585.48001 887.77658,585.97134 886.99808,587.12734 L 886.05596,588.52631 L 886.68105,589.70489 C 887.76728,591.75291 887.77726,592.75206 886.73331,594.93971 C 886.22908,595.99639 885.74798,597.0749 885.66422,597.33641 C 885.5471,597.70207 885.21067,597.81189 884.20759,597.81189 C 883.11539,597.81189 882.76825,597.6769 882.07326,596.9819 L 882.07325,596.9819 z" />
<path title="Wokha" d="M 880.808,583.21193 L 879.51742,583.11017 L 879.51742,580.25927 L 879.51742,577.40838 L 880.85974,574.63633 C 881.59803,573.1117 882.57828,571.37188 883.03809,570.77006 C 883.55901,570.08825 884.00033,569.06333 884.20901,568.0507 C 884.52249,566.52951 885.91166,563.85062 886.38757,563.84954 C 886.92906,563.8483 887.69743,566.45089 887.61606,568.01059 L 887.53265,569.60949 L 888.4836,569.92468 C 889.42942,570.23815 889.43456,570.24865 889.43456,571.8665 C 889.43456,573.12549 889.52668,573.49609 889.84212,573.50617 C 890.06627,573.51334 890.21482,573.67934 890.17221,573.87507 C 890.01574,574.59399 890.71249,575.03897 891.70351,574.85306 L 892.6488,574.67572 L 892.18512,575.38337 C 891.9301,575.77258 891.80656,576.22873 891.91058,576.39703 C 892.01871,576.572 891.97856,576.62817 891.8168,576.5282 C 891.34161,576.23451 890.91892,577.0307 890.73805,578.56016 C 890.6434,579.36052 890.3464,580.51203 890.07805,581.11907 C 889.50755,582.40959 888.46933,583.46197 888.28542,582.93617 C 888.12429,582.47551 886.41144,582.50625 884.50009,583.00409 C 883.6395,583.22825 882.7471,583.38961 882.51699,583.36267 C 882.28686,583.33574 881.51783,583.26791 880.808,583.21193 L 880.808,583.21193 z" />
<path title="Mokokchung" d="M 890.35136,573.93276 C 889.90971,573.37129 889.84697,573.00683 889.99207,571.84555 C 890.15045,570.57786 890.1054,570.39483 889.53698,569.99669 C 889.18999,569.75366 888.65232,569.55481 888.34215,569.55481 C 887.81728,569.55481 887.77911,569.40426 887.79127,567.38192 L 887.80435,565.20903 L 889.06369,565.2083 C 890.12943,565.20768 890.3964,565.09558 890.80034,564.4791 C 891.27159,563.75987 891.26769,563.74251 890.49196,563.11037 L 889.70627,562.47012 L 891.48213,560.77168 C 893.09967,559.22467 897.20767,556.78478 898.19481,556.78478 C 898.36926,556.78478 898.58883,557.24328 898.68273,557.80367 C 898.77665,558.36405 899.04137,559.4178 899.27099,560.14533 C 899.76285,561.70376 899.56125,565.72652 898.91362,567.27654 C 898.69675,567.79556 898.60323,568.35599 898.70579,568.52194 C 898.81252,568.69463 898.76951,568.74779 898.60518,568.64623 C 898.31911,568.46943 897.02346,570.30387 897.13362,570.72974 C 897.16549,570.85292 897.05856,570.87152 896.896,570.77105 C 896.53889,570.55034 895.54788,571.3912 895.54788,571.91492 C 895.54788,572.1206 895.74843,572.36585 895.99355,572.45991 C 896.39619,572.61443 896.39118,572.66606 895.94162,572.99479 C 895.09188,573.61614 894.73277,573.43611 894.73277,572.38879 C 894.73277,571.53842 894.65745,571.42963 894.12144,571.50576 C 893.6892,571.56715 893.46287,571.83137 893.34886,572.40769 C 893.01028,574.11923 892.81611,574.38773 891.83398,574.50238 C 891.07111,574.59144 890.78216,574.48043 890.35136,573.93276 L 890.35136,573.93276 z" />
<path title="Longleng" d="M 903.97066,565.75097 C 903.07352,564.78022 902.51023,564.39246 901.99717,564.39246 C 901.60228,564.39246 900.96777,564.25057 900.58717,564.07714 C 899.97821,563.79969 899.89477,563.59578 899.89218,562.379 C 899.89055,561.61845 899.70715,560.39598 899.48463,559.6624 C 899.26208,558.92883 899.08001,557.8851 899.08001,557.343 C 899.08001,556.47442 899.24406,556.23488 900.46143,555.32604 C 901.22122,554.75881 901.89355,554.34539 901.95549,554.40734 C 902.19891,554.65077 902.68423,557.28628 902.80231,559.00608 L 902.92686,560.81982 L 903.99215,560.99981 L 905.05747,561.17979 L 905.05747,562.59944 C 905.05747,563.82215 905.17055,564.12742 905.87258,564.80001 C 906.32089,565.22952 906.68769,565.48196 906.68769,565.36098 C 906.68769,565.24001 906.86973,565.29212 907.09225,565.47678 C 907.31475,565.66145 907.4265,565.92631 907.34056,566.06536 C 907.25459,566.20442 907.33208,566.49622 907.51268,566.71383 C 907.79243,567.05091 907.64748,567.10948 906.5336,567.10948 C 905.3132,567.10948 905.14257,567.01904 903.97066,565.75097 z" />
<path title="Mon" d="M 908.0462,568.08932 C 908.0462,566.69331 907.96958,566.52604 906.68769,565.12344 C 905.42951,563.74679 905.32917,563.53471 905.32917,562.25188 L 905.32917,560.86675 L 904.26342,560.69633 L 903.19769,560.5259 L 903.06931,558.72327 C 902.99872,557.73182 902.80576,556.22792 902.64051,555.38127 C 902.37968,554.04471 902.40739,553.68676 902.85092,552.66424 C 903.65385,550.81321 905.80647,549.17998 907.44568,549.17812 C 908.59382,549.17682 910.02354,548.43887 911.64156,547.01242 C 912.34878,546.38892 913.0383,545.94731 913.17383,546.03106 C 913.44189,546.19674 913.70465,547.45591 913.91539,549.58466 C 913.98937,550.33184 914.15565,551.18771 914.28493,551.48658 C 914.41426,551.78545 914.72291,552.94698 914.9709,554.06775 C 915.21888,555.18853 915.52495,556.44291 915.65105,556.85526 C 915.95288,557.84232 915.29895,558.22071 912.96429,558.40993 C 911.45183,558.53252 911.15141,558.65106 910.65482,559.32119 C 910.1263,560.03442 910.08604,560.42155 910.1119,564.54279 C 910.12728,566.99098 910.03917,568.93182 909.91611,568.85577 C 909.79306,568.77972 909.32198,568.90903 908.8693,569.14313 L 908.0462,569.56876 L 908.0462,568.08932 z" />
<path title="Tuensang" d="M 908.42827,582.75197 C 907.95564,582.42091 907.66794,581.76794 907.06476,579.65754 C 906.92782,579.17845 905.4394,579.34851 905.53969,579.83178 C 905.58074,580.02968 905.48366,580.11084 905.32396,580.01214 C 905.16425,579.91343 904.72982,580.03169 904.3586,580.27494 C 903.41617,580.89244 903.21375,580.64744 903.36506,579.07254 L 903.4964,577.70589 L 902.28224,577.70589 L 901.06809,577.70589 L 901.28211,576.55115 C 901.39981,575.91605 901.57813,575.05996 901.67836,574.64875 C 901.84823,573.95174 901.76177,573.85671 900.40236,573.24633 C 899.60035,572.88622 898.30226,572.50817 897.51772,572.40621 C 895.83795,572.18792 895.71213,571.81042 896.99342,570.83313 C 898.18689,569.92282 899.62342,567.00009 899.62342,565.48218 C 899.62342,564.36081 899.64396,564.33417 900.3706,564.5131 C 900.78155,564.61429 901.48458,564.76173 901.93289,564.84074 C 902.43247,564.92879 903.13039,565.41795 903.73585,566.1044 C 904.60661,567.09164 904.89646,567.24174 906.18118,567.37072 L 907.63865,567.51704 L 907.72219,568.67177 C 907.81218,569.91567 908.04677,570.0399 909.13301,569.41896 C 910.12296,568.85305 910.16907,568.89662 909.92348,570.16614 C 909.42482,572.74379 909.57184,573.41098 911.04218,575.24306 C 912.2805,576.78605 912.39173,577.03736 912.23447,577.93669 C 912.02781,579.11835 909.76246,583.13994 909.3035,583.13994 C 909.12682,583.13994 908.73296,582.96536 908.4283,582.75197 L 908.42827,582.75197 z" />
<path title="Kiphire" d="M 907.63865,590.15357 C 907.33977,589.98537 906.62827,589.43155 906.05753,588.92287 C 904.82055,587.82038 904.22155,587.85584 903.91213,589.04989 C 903.50928,590.60452 902.66782,590.06442 902.21823,587.96267 C 902.1174,587.49143 901.88194,587.21549 901.58063,587.21549 C 901.31784,587.21549 900.86064,587.04584 900.56462,586.83851 C 900.2686,586.63117 899.50637,586.30571 898.87072,586.11528 C 898.23511,585.92484 897.60862,585.63598 897.47855,585.47337 C 897.27943,585.22444 898.172,583.12193 900.43002,578.521 C 900.55601,578.26427 901.1111,578.08224 901.92998,578.02911 L 903.22992,577.94478 L 903.06089,579.25177 C 902.80973,581.19382 903.10143,581.45188 904.57297,580.5895 C 905.23929,580.19901 905.96077,579.87951 906.17626,579.87951 C 906.39792,579.87951 906.80052,580.48921 907.10336,581.28342 C 907.53947,582.42723 907.82446,582.76701 908.64161,583.11741 C 909.46894,583.47219 909.69492,583.74697 909.9322,584.6867 C 910.28663,586.09054 910.30313,587.40363 909.9689,587.6102 C 909.83088,587.69549 909.51538,588.37517 909.2678,589.1206 C 908.80238,590.52184 908.56287,590.67371 907.63865,590.15357 L 907.63865,590.15357 z" />
<path title="Phek" d="M 898.98932,598.53919 C 897.84333,596.87526 897.79057,596.42774 898.53549,594.6899 C 898.94693,593.73008 899.0092,593.29663 898.79361,592.89375 C 898.54682,592.43266 898.32335,592.38572 897.09656,592.53732 C 895.48967,592.7359 895.31699,592.89833 894.03802,595.41439 C 893.04863,597.36074 892.28805,598.08359 891.22949,598.08359 C 890.86357,598.08359 890.34023,598.28625 890.06654,598.53394 C 889.6027,598.9537 889.45635,598.9502 887.91112,598.48234 C 886.99933,598.20628 886.18726,597.80823 886.10651,597.59779 C 886.02576,597.38736 886.46182,596.23238 887.07553,595.03117 C 887.92461,593.3693 888.12887,592.73037 887.92993,592.35865 C 887.50109,591.55735 887.61557,591.21381 888.25565,591.38119 C 889.20747,591.6301 891.0735,589.55371 891.30894,587.98371 C 891.59848,586.05297 893.03405,585.0608 893.98833,586.1319 C 894.25799,586.43457 894.21678,586.43225 893.78181,586.12025 C 893.24402,585.73452 893.24375,585.73675 893.75599,586.33713 C 894.04067,586.67079 894.41516,586.94378 894.58819,586.94378 C 894.76123,586.94378 895.25422,587.31058 895.68373,587.75889 C 896.41073,588.51771 896.60059,588.574 898.43328,588.574 C 900.16329,588.574 900.42282,588.50813 900.57438,588.03059 C 900.83662,587.20433 901.75536,587.34077 901.94653,588.23437 C 902.29371,589.85746 902.57881,590.24423 903.36164,590.15412 C 903.94604,590.08684 904.12504,589.90741 904.19248,589.32118 C 904.31186,588.28355 904.88222,588.37356 906.34461,589.66081 C 907.0237,590.25856 907.76444,590.74762 907.99072,590.74762 C 908.76597,590.74762 907.53931,591.76711 906.53803,591.95494 C 905.99055,592.05766 905.41182,592.41015 905.12936,592.81297 C 904.86568,593.18901 904.13789,594.11515 903.51208,594.87106 C 902.88627,595.62698 901.93205,597.08697 901.39158,598.11548 C 900.8511,599.144 900.31362,599.98551 900.19717,599.98551 C 900.08072,599.98551 899.53718,599.33467 898.98932,598.53919 z" />
<path title="Zunheboto" d="M 887.7669,590.67969 C 887.63499,590.4929 887.30464,589.93797 887.0328,589.44651 L 886.53854,588.55296 L 887.37522,587.24911 C 887.92677,586.38958 888.2119,585.60016 888.2119,584.93261 C 888.2119,584.13268 888.3897,583.77037 889.05831,583.20777 C 890.06966,582.35677 890.79147,580.77988 891.05855,578.83802 C 891.19464,577.84851 891.58737,576.91696 892.34978,575.77525 C 893.07249,574.69298 893.49158,573.72501 893.58103,572.93146 C 893.74812,571.44895 894.46106,571.23175 894.46106,572.66335 C 894.46106,573.17756 894.57974,573.67162 894.72479,573.76127 C 895.02975,573.94975 896.63469,573.18301 896.63469,572.84884 C 896.63469,572.50879 899.08414,572.96814 900.25944,573.5286 C 901.20665,573.98029 901.28232,574.09555 901.1243,574.84586 C 901.02907,575.2981 900.88455,576.12193 900.80315,576.6766 C 900.72175,577.23126 900.48414,577.827 900.27512,578.00045 C 900.06613,578.17391 899.89512,578.46623 899.89512,578.65004 C 899.89512,578.83386 899.27911,580.29019 898.5262,581.88634 C 897.77332,583.48248 897.24201,584.92547 897.34553,585.09297 C 897.46013,585.27841 897.41107,585.3217 897.22007,585.20366 C 896.79629,584.94175 896.81883,585.44938 897.24602,585.78775 C 897.43281,585.93571 898.23419,586.26838 899.02687,586.52702 C 900.08403,586.87197 900.44529,587.11684 900.38255,587.44601 C 900.31482,587.80157 899.9087,587.91161 898.4267,587.97598 C 896.78113,588.04744 896.47126,587.98042 895.84834,587.41827 C 895.45893,587.06686 894.61385,586.42817 893.97037,585.99896 L 892.80043,585.21858 L 891.99229,586.02673 C 891.51176,586.50725 891.11763,587.24471 891.02009,587.84582 C 890.91867,588.47078 890.47865,589.26962 889.86765,589.93805 C 888.85523,591.04561 888.19092,591.28014 887.7669,590.67969 L 887.7669,590.67969 z" />
</g>
<g class="label" text-anchor="middle" font-size="3" font-family="sans-serif"  fill="#444">
<text x="869" y="600">Peren</text>
<text x="873" y="591">Dimapur</text>
<text x="881" y="595">Kohima</text>
<text x="887" y="576">Wokha</text>
<text x="894" y="568">Mokokchung</text>
<text x="904" y="563">Longleng</text>
<text x="909" y="558">Mon</text>
<text x="905" y="574">Tuensang</text>
<text x="905" y="585">Kiphire</text>
<text x="897" y="592">Phek</text>
<text x="895" y="582">Zunheboto</text>
</g>
</svg>
