<svg xmlns="http://www.w3.org/2000/svg" viewBox="261 356 100 112">
<g title="Punjab" fill="#328707">
<path title="Gurdaspur" d="M 312.85241,389.8914 C 312.6765,389.55516 312.05814,388.76021 311.47828,388.12484 C 310.89841,387.48946 310.29684,386.69054 310.14143,386.34946 C 309.98601,386.00837 309.32773,385.39328 308.67856,384.98259 C 308.0294,384.57189 307.31005,383.94863 307.08002,383.59756 C 306.85,383.24649 305.98268,382.67777 305.15265,382.33375 C 304.32264,381.98973 303.64352,381.59018 303.64352,381.44588 C 303.64352,381.30158 303.03219,380.59737 302.28501,379.88098 L 300.92649,378.57845 L 300.92649,376.59102 L 300.92649,374.6036 L 303.22737,374.00879 C 304.49287,373.68165 306.29629,373.08466 307.23499,372.68213 C 308.1737,372.2796 309.55305,371.89255 310.30024,371.822 C 311.41932,371.71635 311.95503,371.45801 313.33979,370.35619 C 314.52111,369.41625 315.0461,368.80425 315.10585,368.29743 C 315.17792,367.68609 315.38835,367.52608 316.48699,367.24715 C 317.57157,366.97178 318.00276,366.98833 319.12913,367.34853 C 320.84459,367.8971 321.54839,367.57044 322.79537,365.64684 C 323.92321,363.90703 324.84881,363.07858 326.85442,362.01384 C 328.65667,361.05706 328.91187,360.99702 328.91187,361.52975 C 328.91187,361.73375 329.1564,362.21153 329.45528,362.59149 C 329.75415,362.97145 329.99868,363.49342 329.99868,363.75144 C 329.99868,364.00946 328.34809,365.84935 326.3307,367.84009 L 322.66271,371.45961 L 322.66271,373.38647 C 322.66271,375.12113 322.591,375.37978 321.94378,375.97961 C 321.54544,376.34877 320.89389,376.64589 320.48268,376.64589 C 320.07448,376.64589 319.6155,376.79872 319.46271,376.98552 C 319.30992,377.17231 319.11942,378.42554 319.03939,379.77047 C 318.84337,383.06461 318.52033,384.82018 317.96409,385.61433 C 317.70903,385.97846 317.50036,386.54764 317.50036,386.87916 C 317.50036,387.21069 317.36976,387.56264 317.21013,387.6613 C 317.05051,387.75995 316.98797,388.01805 317.07117,388.23485 C 317.15564,388.45498 317.10383,388.55573 316.95384,388.46303 C 316.80612,388.37174 316.68525,388.53788 316.68525,388.83224 C 316.68525,389.19435 316.30601,389.55103 315.51266,389.93508 C 313.99942,390.66763 313.25208,390.65536 312.8524,389.8914 L 312.85241,389.8914 z"/>
<path title="Hoshiarpur" d="M 336.34743,407.98061 C 336.04173,407.70755 335.27155,406.84225 334.63592,406.05771 C 334.00028,405.27317 333.35805,404.63127 333.20874,404.63127 C 333.05943,404.63127 332.64395,404.40054 332.28545,404.11854 C 331.92694,403.83655 331.17406,403.52703 330.61238,403.43074 C 327.69956,402.93137 326.27494,401.37341 326.43428,398.86166 C 326.52479,397.435 326.0662,396.49128 324.27901,394.42634 C 323.71956,393.77996 323.21874,393.14067 323.16605,393.00571 C 322.98622,392.54501 320.35638,390.84745 318.65509,390.09388 C 317.72112,389.68019 316.95776,389.20557 316.95874,389.03919 C 316.95973,388.8728 317.20345,388.36986 317.50036,387.92155 C 317.79726,387.47324 318.04099,386.93108 318.04197,386.71675 C 318.04296,386.50241 318.29198,385.8143 318.59535,385.18761 C 319.01184,384.32727 319.18727,383.2581 319.31158,380.82251 C 319.40213,379.04839 319.59682,377.44402 319.74422,377.25722 C 319.89163,377.07043 320.38673,376.91759 320.84447,376.91759 C 321.30304,376.91759 321.93669,376.67337 322.25569,376.37368 C 322.81192,375.85114 322.88561,375.84714 324.1322,376.27189 C 324.84585,376.51506 325.8284,377.11267 326.31565,377.59991 C 327.40689,378.69116 328.22106,379.14486 329.45528,379.34949 L 330.40624,379.50715 L 330.5886,381.34774 C 330.73006,382.7754 330.97387,383.50407 331.67542,384.59583 C 332.57223,385.99147 333.15886,387.58458 333.45034,389.41592 C 333.53358,389.93894 333.76914,390.60805 333.97381,390.90281 C 334.17847,391.19758 334.34593,391.81262 334.34593,392.26957 C 334.34593,394.08417 337.03247,399.55669 338.92664,401.60051 C 339.81486,402.55891 340.33522,403.39057 340.45667,404.04584 C 340.5579,404.59197 340.88381,405.43434 341.18092,405.91774 C 342.0291,407.29773 341.68835,407.81935 339.83708,407.97482 C 338.98378,408.04648 337.97458,408.18879 337.59443,408.29108 C 337.10955,408.42153 336.73733,408.32886 336.34743,407.9806 L 336.34743,407.98061 z"/>
<path title="Rupnagar" d="M 343.74128,417.96857 C 343.48363,417.68388 342.92651,417.3075 342.50324,417.13217 C 342.07995,416.95684 341.67231,416.57888 341.59736,416.29224 C 341.47163,415.81148 341.62492,415.77108 343.57529,415.77108 L 345.68951,415.77108 L 345.85933,414.92201 C 346.22192,413.10904 346.05442,412.34246 344.99881,410.98385 C 343.3149,408.81658 340.95335,404.83483 340.76784,403.85012 C 340.59873,402.95247 340.61203,402.93652 341.39824,403.09376 C 342.06702,403.22752 342.29429,403.12391 342.75675,402.47444 C 343.0622,402.04547 343.31211,401.51439 343.31211,401.29424 C 343.31211,401.07409 343.49914,400.73876 343.72771,400.54905 C 344.38638,400.00241 345.2397,400.56621 347.10152,402.77816 C 348.02228,403.87209 349.20055,405.21666 349.71988,405.76611 L 350.66412,406.76509 L 350.4832,408.93452 C 350.32241,410.8625 350.36688,411.20846 350.88274,412.04314 C 351.70711,413.37701 351.64805,414.4606 350.72765,414.88805 C 350.32543,415.07484 349.72197,415.22767 349.38662,415.22767 C 348.99727,415.22767 348.60285,415.5223 348.29539,416.04278 C 347.95971,416.61105 347.6031,416.85789 347.11783,416.85789 C 346.26237,416.85789 345.13867,417.60294 345.38732,418.00527 C 345.4986,418.18533 345.44276,418.22191 345.24411,418.09914 C 345.06503,417.98847 344.75904,418.03028 344.56412,418.19205 C 344.30068,418.41069 344.08947,418.35333 343.74127,417.96857 L 343.74128,417.96857 z"/>
<path title="SAS Nagar" d="M 355.03807,434.91685 C 354.69375,434.52085 354.16208,434.24686 353.73796,434.24686 L 353.02039,434.24686 L 353.15424,432.37631 C 353.32137,430.04035 352.85863,428.67824 351.99143,428.95348 C 351.36519,429.15225 350.57248,428.39155 350.78306,427.79392 C 350.86927,427.54927 350.49081,427.4543 349.42967,427.4543 C 347.9589,427.4543 347.95616,427.45271 347.67364,426.43541 C 347.51803,425.87502 347.39,424.96378 347.38917,424.41042 C 347.38733,423.1812 346.95978,422.12445 346.06637,421.14082 C 345.69491,420.73186 345.24517,419.97306 345.06693,419.45461 C 344.75117,418.53612 344.76843,418.49423 345.74023,417.82077 C 346.28878,417.44063 347.04661,417.12959 347.42427,417.12959 C 347.87864,417.12959 348.23392,416.8998 348.47447,416.45034 C 348.70354,416.0223 349.0736,415.77108 349.47502,415.77108 C 349.82539,415.77108 350.34937,415.62287 350.63942,415.44174 C 350.92947,415.2606 351.20406,415.1689 351.24963,415.23796 C 351.29519,415.30702 352.03436,416.11861 352.8922,417.0415 C 354.39522,418.65846 354.45193,418.77338 354.45193,420.20239 C 354.45193,421.58786 354.38045,421.74988 353.36433,422.66788 C 352.76615,423.20829 352.15482,423.65046 352.00582,423.65046 C 351.85681,423.65046 351.7349,424.06341 351.7349,424.56814 C 351.7349,425.35251 351.95653,425.66828 353.26048,426.74176 C 354.09955,427.43253 354.95227,427.9977 355.15542,427.9977 C 355.35858,427.9977 355.7151,428.36574 355.94771,428.81556 C 356.29114,429.47969 356.3359,430.1708 356.18579,432.4926 C 356.08412,434.06515 355.91537,435.40468 355.81078,435.46932 C 355.70619,435.53396 355.35847,435.28535 355.03807,434.91685 L 355.03807,434.91685 z"/>
<path title="Patiala" d="M 332.49198,453.19813 C 332.30917,453.01133 331.27643,452.61138 330.197,452.30934 C 328.61235,451.86593 328.16731,451.62017 327.88595,451.03311 C 327.57597,450.38636 327.61798,450.16186 328.26633,449.00061 C 328.66721,448.28262 329.46219,447.36268 330.03296,446.95631 C 330.60373,446.54994 331.44085,445.70652 331.89322,445.08204 C 332.62948,444.06566 332.71571,443.73922 332.71571,441.96813 C 332.71571,440.0604 332.74622,439.9679 333.56868,439.38225 L 334.42165,438.77488 L 334.25213,436.17125 L 334.08261,433.56761 L 334.91555,433.09213 C 335.37366,432.83061 335.95865,432.61665 336.21552,432.61665 C 336.4724,432.61665 336.82411,432.47511 336.9971,432.30212 C 337.39996,431.89924 337.92384,432.31067 338.73384,433.66608 C 340.1525,436.03997 340.95361,436.35493 342.64812,435.20501 C 343.19282,434.83537 344.06146,434.45358 344.57845,434.3566 C 345.29497,434.22218 345.76578,433.84908 346.55894,432.78712 C 347.71944,431.23334 349.01787,428.78082 349.01787,428.14258 C 349.01787,427.35767 350.21364,427.65802 350.60454,428.54111 C 350.88184,429.16758 351.14189,429.35622 351.72822,429.35622 C 352.68939,429.35622 352.92777,430.13658 352.67598,432.45881 C 352.51198,433.97149 352.42452,434.14543 351.64039,434.51857 C 350.95987,434.8424 350.75603,435.13382 350.64809,435.93723 C 350.52521,436.85176 350.33059,437.05702 348.61032,438.0863 C 347.56426,438.71219 346.61857,439.35758 346.50878,439.52052 C 346.19781,439.98202 346.2662,441.80644 346.61543,442.36564 C 347.22805,443.34662 346.21559,444.37811 344.37223,444.651 C 343.41761,444.79231 343.37918,444.76266 342.74201,443.39306 C 342.1367,442.09195 342.02355,441.99351 341.17937,442.03339 C 340.61322,442.06015 339.99153,442.34251 339.53429,442.78058 C 338.97673,443.31475 338.51781,443.48476 337.63341,443.48476 C 336.39708,443.48476 335.01461,444.12762 334.74288,444.82889 C 334.65295,445.06096 334.50775,447.00341 334.4202,449.14545 C 334.26492,452.94471 334.24499,453.04618 333.60653,453.28892 C 332.79905,453.59592 332.88845,453.60321 332.49199,453.19813 L 332.49198,453.19813 z"/>
<path title="Sangrur" d="M 326.27816,455.37175 C 325.97302,455.03552 325.51351,454.42998 325.25703,454.02611 C 324.85331,453.39039 324.58402,453.28096 323.25123,453.21101 L 321.71175,453.1302 L 321.63127,451.63584 C 321.54411,450.01756 320.92478,449.20846 319.76413,449.19656 C 318.28084,449.18135 317.84983,448.33761 318.85887,447.42445 C 319.59381,446.75933 319.5426,445.76774 318.72302,444.79372 C 318.34943,444.34973 318.04301,443.72075 318.04209,443.39598 C 318.04117,443.07121 317.85777,442.45529 317.63453,442.02726 C 317.4113,441.59923 317.22865,441.10247 317.22865,440.92336 C 317.22865,440.39972 318.605,439.23371 320.21738,438.39137 L 321.71175,437.61069 L 321.60998,434.93599 C 321.53338,432.92293 321.37927,432.04275 320.987,431.37791 C 320.67106,430.84243 320.52719,430.24365 320.62169,429.85745 C 320.77516,429.23022 320.47389,427.22964 320.0859,426.29956 C 319.91092,425.88011 320.06472,425.82408 321.39126,425.82408 C 322.6716,425.82408 322.97434,425.72318 323.42927,425.14482 C 324.29018,424.05035 325.50286,424.21421 326.77999,425.59759 C 327.35477,426.2202 327.82506,426.99598 327.82506,427.32154 C 327.82506,427.6471 328.07643,428.14097 328.38366,428.41901 C 328.84954,428.84064 329.03149,428.86882 329.47979,428.58885 C 329.83007,428.37011 330.47519,428.3139 331.33164,428.42751 L 332.64596,428.60187 L 332.79327,429.99793 C 332.8743,430.76576 333.12725,431.94418 333.35538,432.61665 C 333.58352,433.28911 333.85394,434.8912 333.95633,436.17685 L 334.14248,438.51439 L 333.15739,439.26575 L 332.1723,440.01712 L 332.1723,442.17621 L 332.1723,444.3353 L 330.61635,445.87988 C 329.76056,446.72939 329.09113,447.52523 329.12871,447.64842 C 329.16628,447.7716 329.08338,447.80214 328.94445,447.71629 C 328.65845,447.53953 327.28165,449.74577 327.28165,450.38085 C 327.28165,451.61641 327.87487,452.13303 329.82899,452.59925 C 332.73427,453.2924 332.81792,453.51432 330.67938,454.85518 C 328.54799,456.19156 327.16905,456.3534 326.27816,455.37175 L 326.27816,455.37175 z"/>
<path title="Mansa" d="M 305.14896,461.5376 C 304.91871,460.98653 304.73033,460.23689 304.73033,459.87173 C 304.73033,459.50656 304.60969,458.98237 304.46224,458.70685 C 304.07865,457.99013 304.54616,455.80659 305.24171,455.06621 C 305.84329,454.42584 306.00351,453.2894 305.55536,452.84125 C 305.38746,452.67335 305.4319,452.19105 305.67929,451.49632 C 306.11491,450.27301 306.20966,448.48215 305.85052,448.26018 C 305.71943,448.17917 305.69327,447.71346 305.79237,447.22526 C 305.95765,446.41105 306.07287,446.3264 307.18544,446.20178 L 308.39832,446.06593 L 308.48239,444.74435 C 308.58488,443.13345 309.41323,441.74039 311.08151,440.37336 C 312.36035,439.32544 312.83309,439.3198 313.68172,440.34235 C 313.87316,440.57302 314.13681,440.69561 314.2676,440.61477 C 314.39838,440.53393 314.43619,440.64817 314.35159,440.86863 C 314.16178,441.36325 314.81742,441.72957 316.34562,441.98272 C 317.4237,442.16132 317.50036,442.23172 317.50036,443.04342 C 317.50036,443.61374 317.77698,444.23646 318.30442,444.85353 C 319.2963,446.01395 319.31229,446.31493 318.43733,447.35477 C 317.5204,448.44447 317.63966,449.3004 318.72302,449.40527 C 319.17133,449.44867 319.87436,449.61634 320.28531,449.77786 C 320.98238,450.05185 321.03249,450.17867 321.03249,451.6688 C 321.03249,452.54728 320.91961,453.26605 320.78164,453.26605 C 320.64367,453.26605 320.15255,453.58431 319.69027,453.97329 C 318.5091,454.96718 316.23479,455.0685 315.51079,454.1595 C 315.09802,453.64125 314.75574,453.53776 313.45461,453.53776 C 311.95388,453.53776 311.81374,453.60131 309.82444,455.18388 C 308.2581,456.42997 307.71135,457.04073 307.57463,457.69713 C 307.47529,458.17406 307.22995,458.82386 307.02942,459.14116 C 306.8289,459.45846 306.62694,460.31322 306.58062,461.04064 C 306.4707,462.76668 305.76488,463.01169 305.14896,461.53759 L 305.14896,461.5376 z"/>
<path title="Bathinda" d="M 302.82841,451.53795 C 302.82841,450.23455 302.73578,449.95746 302.17789,449.59191 C 301.82011,449.35748 301.05594,449.09466 300.47975,449.00786 C 299.8182,448.90819 299.08168,448.52023 298.48117,447.95509 C 296.71262,446.29071 295.13059,445.65838 292.73494,445.65838 L 290.60179,445.65838 L 290.60179,444.3424 C 290.60179,443.09446 290.53048,442.96628 289.22257,441.86344 L 287.84335,440.70047 L 288.63526,439.85106 C 289.07082,439.38389 289.7664,438.40615 290.18099,437.67831 C 290.82777,436.54288 290.90991,436.16725 290.75947,435.03319 L 290.58413,433.71144 L 291.81563,433.88022 C 292.65279,433.99497 293.04711,433.9502 293.04711,433.74039 C 293.04711,433.31684 297.31048,433.31599 297.45166,433.73951 C 297.63795,434.29838 298.61726,433.72581 299.14215,432.75116 C 299.57592,431.94569 299.60328,431.69592 299.31642,431.15992 C 298.71738,430.04062 299.03345,429.26212 300.24724,428.86719 C 300.84498,428.67269 301.78292,428.07641 302.33154,427.54212 C 303.20979,426.68681 303.44195,426.59187 304.27371,426.74791 C 304.97821,426.88007 305.26129,427.09602 305.38709,427.59727 C 305.52614,428.15129 305.72201,428.2694 306.50157,428.2694 C 307.57549,428.2694 307.60809,428.36176 307.02592,429.75509 C 306.53026,430.94136 306.58659,433.33221 307.10773,433.22798 C 307.29452,433.19062 307.41679,433.26381 307.37943,433.39062 C 307.34207,433.51744 307.77576,434.15933 308.34318,434.81706 C 310.8151,437.68242 311.7946,438.89821 311.7946,439.10111 C 311.7946,439.22055 311.30127,439.71472 310.6983,440.19928 C 309.15712,441.4378 308.31133,442.89076 308.21069,444.47265 L 308.12661,445.79423 L 306.91272,445.93008 C 305.81171,446.0533 305.67464,446.15071 305.43878,446.97755 C 305.25259,447.63027 305.27486,448.04311 305.51722,448.43119 C 306.10589,449.37381 305.22363,452.71699 304.38372,452.72636 C 304.20077,452.72839 303.77597,452.80379 303.43974,452.8939 C 302.85911,453.0495 302.82841,452.98143 302.82841,451.53794 L 302.82841,451.53795 z"/>
<path title="Muktsar" d="M 283.53752,446.20429 C 283.53752,446.05622 283.10463,445.65885 282.57555,445.32125 L 281.61358,444.70742 L 281.78794,443.13816 C 281.90313,442.10127 281.85477,441.43937 281.64539,441.18708 C 281.47111,440.97708 281.25526,440.09558 281.16574,439.22819 C 281.04984,438.10524 280.78111,437.34486 280.23248,436.58749 C 279.44039,435.49406 279.25579,434.67807 279.73368,434.38272 C 279.88312,434.29036 280.00538,433.63355 280.00538,432.92315 C 280.00538,431.84267 279.87213,431.50384 279.19028,430.85058 C 278.13343,429.83806 278.16236,429.46859 279.32861,429.08369 C 280.70275,428.63017 281.09219,428.1246 281.09219,426.7941 C 281.09219,425.68365 281.16189,425.58304 282.58656,424.63711 C 283.71594,423.88725 284.08092,423.4836 284.08092,422.98446 C 284.08092,422.62121 284.17262,422.27097 284.2847,422.20613 C 284.67437,421.9807 285.46756,422.44805 285.79213,423.09432 C 285.97174,423.45197 286.43501,423.93737 286.82162,424.173 C 287.20822,424.40862 288.21085,425.14824 289.04968,425.81659 C 290.55725,427.01777 290.57299,427.04515 290.41553,428.19399 C 290.3105,428.96027 290.35899,429.35622 290.55788,429.35622 C 290.86185,429.35622 291.82562,430.95717 291.55973,431.02039 C 291.48117,431.03907 291.30482,431.06964 291.16784,431.08832 C 290.50402,431.17884 290.58425,431.62172 291.42084,432.48487 L 292.3386,433.43176 L 291.30303,433.43176 L 290.26747,433.43176 L 290.44755,434.87305 C 290.59903,436.08541 290.53926,436.4267 290.0713,437.02161 C 289.76532,437.4106 289.51498,437.86205 289.51498,438.02485 C 289.51498,438.18764 289.08705,438.79451 288.56402,439.37344 C 288.04099,439.95236 287.61306,440.55677 287.61306,440.71656 C 287.61306,440.87634 288.22439,441.52257 288.97157,442.1526 C 290.15713,443.15229 290.33009,443.42798 290.33009,444.31816 C 290.33009,445.25183 290.23079,445.38627 289.15749,445.90584 C 288.26104,446.33982 287.46124,446.47349 285.76121,446.47349 C 284.47364,446.47349 283.53752,446.36016 283.53752,446.20428 L 283.53752,446.20429 z"/>
<path title="Firozpur" d="M 279.14968,445.24558 C 278.6338,444.96535 277.13261,444.82124 273.85148,444.73697 C 268.58294,444.60167 266.81066,444.1882 266.51906,443.02637 C 266.35814,442.38521 267.08708,439.58408 267.56286,439.01525 C 267.93882,438.56578 267.7982,437.56184 267.1815,436.29248 L 266.58423,435.06313 L 267.4825,434.13635 C 268.25946,433.33474 268.39882,432.97689 268.51442,431.48667 C 268.63318,429.95575 268.56937,429.64889 267.94172,428.73282 C 266.89397,427.20362 267.01112,426.38095 268.52594,424.63009 C 272.38031,420.17516 274.44437,418.04453 277.01665,415.86555 C 281.04195,412.45573 282.31327,411.58306 285.34882,410.1461 C 288.36162,408.71991 290.0425,407.59927 290.51613,406.70105 C 290.78523,406.19071 291.27544,406.01476 293.50486,405.62829 C 294.97162,405.37403 296.53849,405.1665 296.9868,405.16711 C 297.43511,405.16772 298.45947,404.99321 299.26317,404.7793 C 300.5342,404.44101 300.77547,404.44143 301.11657,404.78253 C 301.33224,404.99821 301.77508,405.17513 302.10064,405.17569 C 302.98018,405.1772 304.37489,406.12654 304.85144,407.04808 C 305.08199,407.49393 305.50852,408.02534 305.79927,408.22899 C 306.29963,408.57946 306.2377,408.67996 304.64143,410.10771 C 303.71386,410.93735 302.57293,411.8137 302.10602,412.05515 C 301.62012,412.30641 301.1352,412.84385 300.97201,413.31197 C 300.81521,413.76177 300.11952,414.7364 299.42603,415.47779 C 298.42364,416.54943 298.18229,416.98921 298.24876,417.62298 C 298.38275,418.90036 297.85833,419.28645 296.17784,419.14759 C 295.09033,419.05772 294.26237,418.74568 292.87487,417.90274 C 291.08631,416.81615 290.98349,416.78844 289.85764,417.08956 C 289.21657,417.26101 288.41455,417.4013 288.07536,417.4013 C 287.32741,417.4013 284.4669,420.18719 284.74794,420.64192 C 284.85221,420.81063 284.79042,420.91354 284.60963,420.87224 C 284.42368,420.82976 284.09295,421.42757 283.84225,422.2593 C 283.44552,423.57551 283.25967,423.80123 281.97523,424.52678 L 280.54879,425.33255 L 280.54879,426.74705 L 280.54879,428.16156 L 279.19028,428.73552 C 278.39928,429.0697 277.83176,429.48371 277.83176,429.72657 C 277.83176,429.95597 278.25969,430.47007 278.78272,430.869 C 279.61098,431.50074 279.73368,431.74586 279.73368,432.76871 C 279.73368,433.41461 279.61141,434.01866 279.46198,434.11101 C 278.97603,434.41134 279.1749,435.75066 279.83912,436.65096 C 280.28478,437.25503 280.5467,438.07893 280.67555,439.28207 C 280.77871,440.24547 280.9758,441.10335 281.11351,441.18846 C 281.25122,441.27356 281.3639,442.12379 281.3639,443.07783 C 281.3639,444.56233 281.27682,444.87345 280.76003,445.23542 C 280.03968,445.73998 280.05957,445.73985 279.14969,445.24559 L 279.14968,445.24558 z M 298.20946,418.28572 C 298.20946,418.211 298.02607,418.30207 297.80191,418.48811 C 297.57776,418.67414 297.39436,418.88748 297.39436,418.9622 C 297.39436,419.03692 297.57776,418.94584 297.80191,418.75981 C 298.02607,418.57378 298.20946,418.36044 298.20946,418.28572 L 298.20946,418.28572 z"/>
<path title="Tarn Taran" d="M 290.87349,405.20794 C 290.87349,404.3688 290.29523,404.12725 287.7382,403.8983 C 285.34064,403.68363 285.30227,403.66885 285.21703,402.9271 C 285.14899,402.33501 285.6369,401.49221 287.49775,398.98741 C 289.82721,395.85182 291.13732,393.55484 291.14254,392.59706 C 291.14502,392.14243 291.48233,392.1177 296.23962,392.22322 C 301.55857,392.3412 304.21055,392.62911 306.4964,393.33673 C 308.28335,393.88991 308.26246,393.89485 308.26246,392.91898 C 308.26246,392.22273 308.34578,392.10857 308.73794,392.26752 C 308.99946,392.3735 309.54966,392.58195 309.96061,392.73072 C 310.37156,392.87949 310.70779,393.11582 310.70779,393.25589 C 310.70779,393.77778 309.78625,394.89106 309.03092,395.28165 C 307.62054,396.01098 305.74764,398.27154 305.12185,399.99982 C 304.79872,400.89222 304.34323,401.91404 304.10965,402.27053 C 303.52802,403.15821 299.12254,404.5979 295.99896,404.92106 C 294.68201,405.05731 293.08174,405.28939 292.44279,405.43679 C 290.88798,405.79547 290.87349,405.79336 290.87349,405.20794 z"/>
<path title="Amritsar" d="M 305.81714,392.77452 C 303.63478,392.07569 301.15367,391.79153 296.23962,391.67762 C 292.38088,391.58818 291.4169,391.49109 291.4169,391.19192 C 291.4169,390.98627 290.74443,390.1762 289.92253,389.39178 C 289.10063,388.60736 288.42817,387.81618 288.42817,387.6336 C 288.42817,387.45102 288.18632,386.76866 287.89073,386.11723 C 286.80066,383.71494 287.35862,382.14579 290.19423,379.63911 C 291.3268,378.63792 292.9945,377.62932 295.65732,376.33513 C 297.7654,375.31056 299.69109,374.47227 299.93664,374.47227 C 300.31097,374.47227 300.38309,374.80051 300.38309,376.5043 L 300.38309,378.53633 L 301.87745,380.00702 C 302.69935,380.81589 303.37182,381.599 303.37182,381.74726 C 303.37182,381.89553 304.05312,382.29335 304.88581,382.63132 C 305.71851,382.96929 306.58583,383.5297 306.81319,383.87669 C 307.04054,384.22367 307.76508,384.84779 308.42328,385.2636 C 309.08147,385.67942 309.62023,386.10725 309.62049,386.21434 C 309.62076,386.32143 310.16871,387.02577 310.83817,387.77954 C 312.42241,389.56332 312.96971,390.61946 312.6344,391.24582 C 312.4932,391.50958 312.31145,391.93936 312.23051,392.20087 C 312.03356,392.83725 310.88717,392.80746 309.38753,392.12698 C 308.7361,391.83139 308.15534,391.58954 308.09694,391.58954 C 308.03854,391.58954 307.99076,391.95634 307.99076,392.40465 C 307.99076,393.34106 307.72671,393.38599 305.81714,392.77451 L 305.81714,392.77452 z"/>
<path title="Kapurthala" d="M 303.58367,405.29597 C 303.48232,405.19461 302.99582,405.02914 302.50257,404.92826 C 301.25119,404.67233 301.38481,404.10764 302.82841,403.55133 C 303.80579,403.17468 304.19972,402.8133 304.79203,401.75002 C 305.19955,401.01844 305.61107,400.01958 305.70652,399.53033 C 305.8907,398.58625 308.07649,396.20312 309.39097,395.51323 C 309.7875,395.30512 310.37657,394.70664 310.70003,394.18328 C 311.02348,393.65991 311.61088,393.07618 312.00535,392.8861 C 312.39982,392.69602 312.79188,392.24548 312.87659,391.8849 C 312.99421,391.38416 313.374,391.11258 314.48449,390.73511 C 315.28413,390.4633 316.11218,390.09669 316.32458,389.92041 C 316.6292,389.66761 317.05288,389.76342 318.33036,390.37399 C 320.17265,391.25453 320.19919,391.43104 318.78675,393.40897 C 318.17429,394.26665 317.76259,394.56959 317.12512,394.63163 L 316.27769,394.71412 L 316.10349,397.38542 C 315.95155,399.71505 315.84347,400.14945 315.25846,400.78171 C 314.88952,401.18045 314.42367,401.89223 314.22324,402.36345 C 313.80377,403.34966 312.71129,404.08786 311.67126,404.08786 C 311.27596,404.08786 310.62235,404.25569 310.21882,404.46081 C 309.81529,404.66592 308.75153,404.91314 307.85491,405.01019 C 306.95829,405.10723 305.67193,405.2527 304.99633,405.33344 C 304.32073,405.41419 303.68504,405.39732 303.58368,405.29597 L 303.58367,405.29597 z M 323.5169,406.44442 C 323.07595,405.91312 322.39101,404.18192 322.39101,403.59874 C 322.39101,403.32012 322.91064,402.28086 323.54574,401.28927 C 324.43977,399.89341 324.84873,399.48439 325.35709,399.47764 C 325.71823,399.47285 325.93648,399.54615 325.84208,399.64054 C 325.74769,399.73494 325.97185,400.32644 326.34021,400.955 C 327.0717,402.20321 327.17638,403.25766 326.70347,404.61426 C 326.07196,406.42577 324.33117,407.42557 323.5169,406.44442 L 323.5169,406.44442 z"/>
<path title="Jalandhar" d="M 320.56113,413.60481 C 320.07771,413.49 318.18258,413.30738 316.34973,413.19899 L 313.01726,413.00192 L 311.73742,411.57007 C 310.73474,410.44828 310.2287,410.10161 309.40064,409.9692 C 308.18044,409.77408 305.71144,407.90789 305.09094,406.71172 C 304.87056,406.28689 304.73593,405.89361 304.79176,405.83778 C 304.84759,405.78197 305.92643,405.61277 307.18919,405.46182 C 308.45196,405.31086 309.97419,405.00646 310.57194,404.78538 C 311.16968,404.5643 311.96441,404.37398 312.33801,404.36245 C 313.16886,404.33681 313.97374,403.67785 314.49866,402.5935 C 314.71568,402.14519 315.19919,401.43993 315.57313,401.02625 C 316.17516,400.36023 316.26591,399.97913 316.36569,397.69789 L 316.47837,395.12167 L 317.23792,395.12167 C 317.83226,395.12167 318.2081,394.83476 318.96572,393.80266 C 319.49826,393.07721 320.02944,392.22557 320.14612,391.91013 C 320.35502,391.34545 320.37814,391.34952 321.64635,392.17448 C 322.35479,392.63531 322.93441,393.1198 322.93441,393.25113 C 322.93441,393.38245 323.33983,393.94874 323.83533,394.50956 C 325.27732,396.14161 325.86337,397.10793 326.0659,398.1875 C 326.25375,399.18885 326.24775,399.19729 325.34205,399.20594 C 324.51654,399.21383 324.31782,399.3879 323.27404,401.01757 C 321.9119,403.14428 321.83722,403.95851 322.82286,405.93644 C 323.45742,407.20985 323.61423,407.3483 324.42183,407.3483 C 325.07712,407.3483 325.43659,407.16614 325.7623,406.66904 C 326.96287,404.83675 329.18357,406.70623 329.18357,409.54919 C 329.18357,410.39431 329.36697,411.52471 329.59113,412.06119 C 330.36771,413.91981 330.47121,413.87223 325.71936,413.84135 C 323.36574,413.82605 321.04453,413.71961 320.56112,413.6048 L 320.56113,413.60481 z"/>
<path title="SBS Nagar" d="M 339.76051,414.40874 C 338.56901,413.62931 338.45827,413.60825 337.04348,413.89197 C 336.08028,414.08514 334.6767,414.10892 332.99783,413.96053 L 330.42706,413.73331 L 330.17891,412.78235 C 330.04242,412.25932 329.87413,410.98719 329.80492,409.95539 C 329.65275,407.68666 328.74196,406.0509 327.49167,405.80084 C 326.90567,405.68364 326.75342,405.53378 326.887,405.20566 C 326.98519,404.96447 327.19344,404.40032 327.34978,403.95201 C 327.50612,403.5037 327.66175,403.10122 327.69563,403.05761 C 327.72952,403.014 328.23099,403.15604 328.81003,403.37326 C 329.38907,403.59048 330.24505,403.83405 330.7122,403.91451 C 332.25772,404.18072 335.16103,406.5872 335.16103,407.60202 C 335.16103,408.13207 336.82285,408.76661 337.71022,408.5754 C 338.17613,408.475 339.2257,408.32838 340.04261,408.24957 C 340.9185,408.16508 341.65203,407.93654 341.83043,407.69256 C 342.08274,407.34751 342.26158,407.49881 342.90789,408.60415 C 343.3341,409.33308 344.14961,410.52122 344.72013,411.24446 C 345.74,412.53734 345.93739,413.30585 345.58619,414.61634 C 345.43323,415.18714 345.27582,415.22746 343.2125,415.22448 C 341.21951,415.2216 340.88074,415.14154 339.76051,414.40874 L 339.76051,414.40874 z"/>
<path title="Ludhiana" d="M 328.54556,428.04327 C 328.29872,427.77052 328.09676,427.29311 328.09676,426.98236 C 328.09676,426.6716 327.55113,425.85594 326.88424,425.16976 C 325.90152,424.15861 325.49247,423.92216 324.72598,423.92216 C 323.9633,423.92216 323.68704,424.07993 323.29875,424.73727 L 322.81725,425.55238 L 319.87857,425.55238 C 317.51706,425.55238 316.90918,425.63242 316.7835,425.95993 C 316.60605,426.42236 314.91575,426.52986 314.64748,426.09578 C 314.55512,425.94635 314.21167,425.82386 313.88426,425.82359 C 313.06135,425.82292 311.65356,423.61062 311.93468,422.75989 C 312.04443,422.42779 312.23598,420.75003 312.36036,419.03151 C 312.48475,417.31299 312.66584,415.31783 312.7628,414.59781 L 312.93907,413.28868 L 314.60839,413.43748 C 320.61276,413.97272 323.59356,414.13719 329.87614,414.27989 C 334.24483,414.37912 337.22132,414.33891 337.65288,414.17483 C 338.24394,413.95011 338.56746,414.05408 339.74526,414.84726 C 340.62594,415.44034 341.13849,415.98074 341.13849,416.31618 C 341.13849,416.65751 341.50852,417.03562 342.17555,417.37592 C 344.18192,418.39948 344.14928,418.56076 341.59145,420.26297 C 339.854,421.41921 339.13168,422.08861 338.65804,422.98142 C 338.17465,423.89262 337.76144,424.26834 336.86706,424.60991 C 336.22763,424.85411 335.70444,425.14886 335.70444,425.26489 C 335.70444,425.38094 335.21939,426.02692 334.62655,426.70042 C 334.0337,427.37393 333.6161,427.99241 333.69852,428.07484 C 333.78095,428.15726 332.89921,428.1768 331.73911,428.11825 C 330.579,428.05971 329.48684,428.13046 329.31209,428.27549 C 329.09677,428.45419 328.84969,428.37934 328.54556,428.04327 L 328.54556,428.04327 z"/>
<path title="Fatehgarh Sahib" d="M 340.00275,434.8582 C 339.78008,434.59668 339.32317,433.92412 338.98739,433.36363 C 338.65162,432.80313 338.12723,432.16967 337.82208,431.95593 C 337.24415,431.55113 337.18689,431.56476 335.24305,432.57012 C 334.6157,432.89458 334.04945,433.16005 333.98472,433.16005 C 333.76248,433.16005 333.25911,430.74533 333.25911,429.6792 C 333.25911,428.78503 333.44968,428.42016 334.43793,427.42212 C 335.08627,426.76735 335.73689,426.01077 335.88375,425.74083 C 336.0306,425.47088 336.63109,425.08858 337.21818,424.89125 C 338.04584,424.61308 338.44375,424.24698 338.98965,423.26139 C 339.52295,422.29857 340.2424,421.62293 341.95618,420.47555 C 344.07728,419.05547 344.24128,418.99173 344.5805,419.45564 C 344.7795,419.7278 344.94233,420.07413 344.94233,420.22524 C 344.94233,420.37637 345.31871,420.88833 345.77873,421.36296 C 346.46633,422.07238 346.65868,422.55805 346.85994,424.09292 C 347.22785,426.8989 347.47265,427.57735 348.15313,427.67697 C 348.92638,427.79017 348.90633,427.96752 347.89317,429.9753 C 346.76283,432.21535 345.30263,433.97429 344.56997,433.97844 C 344.25175,433.98024 343.45926,434.2859 342.8089,434.65769 C 341.417,435.4534 340.56159,435.51452 340.00275,434.8582 L 340.00275,434.8582 z"/>
<path title="Barnala" d="M 314.18226,440.36018 C 313.57026,439.68771 312.92321,439.13751 312.74437,439.13751 C 312.56552,439.13751 311.82016,438.39304 311.08801,437.48312 C 310.35586,436.57321 309.17607,435.1859 308.46624,434.40021 C 307.03404,432.81495 306.85712,431.9135 307.50371,429.49597 L 307.83176,428.2694 L 309.6635,428.2694 C 311.43367,428.2694 311.51935,428.2378 312.21245,427.3291 C 313.09344,426.17407 313.77556,425.93002 314.56923,426.48593 C 315.42842,427.08775 316.60266,427.02949 316.95695,426.36749 C 317.17221,425.96527 317.52585,425.82408 318.31805,425.82408 C 319.21328,425.82408 319.44985,425.94628 319.76452,426.57126 C 320.29059,427.6161 320.52635,429.39149 320.19245,429.79381 C 319.99623,430.03023 320.06865,430.43823 320.43659,431.1695 C 320.78209,431.85616 321.02295,433.09787 321.14605,434.82713 L 321.33242,437.44516 L 320.02772,438.05941 C 318.3388,438.85456 316.95695,440.15842 316.95695,440.95688 C 316.95695,441.47391 316.81235,441.58284 316.12597,441.58284 C 315.48707,441.58284 315.03776,441.3002 314.18226,440.36018 L 314.18226,440.36018 z"/>
<path title="Faridkot" d="M 305.71845,427.38637 C 305.56021,426.77249 304.46592,426.09578 303.63146,426.09578 C 303.38554,426.09578 302.96304,426.34032 302.69256,426.63919 C 302.42208,426.93806 302.10643,427.18259 301.99111,427.18259 C 301.87579,427.18259 301.4611,426.48288 301.06957,425.62767 C 300.67804,424.77247 300.19479,423.88604 299.99568,423.65783 C 299.79657,423.42963 299.50289,422.20364 299.34306,420.93343 C 299.18323,419.66322 298.97167,418.22999 298.87294,417.74847 C 298.71595,416.98291 298.83812,416.70996 299.84577,415.57485 C 300.47958,414.86087 301.16334,413.88825 301.36525,413.41346 C 301.56716,412.93867 302.00955,412.46251 302.34831,412.35534 C 302.68708,412.24816 303.74611,411.44454 304.7017,410.56949 C 305.6573,409.69446 306.52875,408.97851 306.63828,408.97851 C 306.74781,408.97851 306.99065,409.16315 307.17793,409.38881 C 307.36522,409.61448 308.20548,409.99553 309.04519,410.2356 C 310.72273,410.7152 311.38396,411.18215 311.95827,412.29274 C 312.39498,413.13722 312.4703,415.65725 312.0663,415.90693 C 311.91207,416.00225 311.7946,417.35457 311.7946,419.03476 C 311.7946,420.66271 311.65819,422.29407 311.49146,422.65999 C 311.2299,423.23406 311.30684,423.49758 312.05247,424.5813 L 312.9166,425.8373 L 312.06106,426.91749 L 311.20554,427.9977 L 308.54078,427.9977 C 306.00519,427.9977 305.86841,427.96808 305.71846,427.38637 L 305.71845,427.38637 z"/>
<path title="Moga" d="M 291.85276,432.42564 C 291.26147,431.73031 291.14332,431.42303 291.37728,431.18907 C 291.86772,430.69862 291.74124,429.6654 291.14519,429.29316 C 290.54532,428.91853 290.43895,428.26922 290.90165,427.80653 C 291.32527,427.38289 290.9665,426.87979 289.3112,425.57625 C 288.52666,424.95843 287.88476,424.33351 287.88476,424.18755 C 287.88476,424.04159 287.65918,423.92216 287.38347,423.92216 C 286.83491,423.92216 285.98284,423.11993 285.98284,422.60345 C 285.98284,422.42473 285.67718,422.16228 285.30359,422.02024 C 284.31097,421.64285 284.46099,421.07361 285.97489,419.47288 C 287.37111,417.99659 287.20678,418.0681 291.03493,417.27078 C 291.04901,417.26785 291.90488,417.7635 292.93685,418.37223 C 295.20145,419.70804 296.64304,419.89454 297.78152,418.99901 C 298.76401,418.22617 298.91486,418.48598 299.15459,421.36393 C 299.26214,422.65505 299.49221,423.74654 299.69172,423.91211 C 300.21084,424.34295 301.53648,427.43229 301.37868,427.84351 C 301.30354,428.03929 300.89597,428.28463 300.47295,428.38869 C 298.61356,428.84613 298.00585,429.9152 298.88871,431.17567 C 299.25442,431.69781 299.24745,431.8444 298.82079,432.60384 C 298.45062,433.26271 298.22496,433.40899 297.80191,433.2643 C 296.87361,432.9468 293.66068,432.83239 293.13721,433.09819 C 292.74126,433.29924 292.47877,433.1618 291.85276,432.42564 L 291.85276,432.42564 z"/>
</g>
<g class="label" text-anchor="middle" font-size="4" font-family="sans-serif"  fill="#444">
<text x="316" y="378">Gurdaspur</text>
<text x="329" y="393">Hoshiarpur</text>
<text x="345" y="407">Rupnagar</text>
<text x="351" y="425">SAS Nagar</text>
<text x="340" y="440">Patiala</text>
<text x="326" y="440">Sangrur</text>
<text x="312" y="451">Mansa</text>
<text x="301" y="439">Bathinda</text>
<text x="286" y="435">Muktsar</text>
<text x="280" y="423">Firozpur</text>
<text x="299" y="398">Tarn Taran</text>
<text x="302" y="386">Amritsar</text>
<text x="314" y="402">Kapurthala</text>
<text x="319" y="408">Jalandhar</text>
<text x="336" y="412">SBS Nagar</text>
<text x="328" y="423">Ludhiana</text>
<text x="341" y="430">Fatehgarh Sahib</text>
<text x="315" y="433">Barnala</text>
<text x="305" y="419">Faridkot</text>
<text x="295" y="426">Moga</text>
</g>
</svg>
