<svg xmlns="http://www.w3.org/2000/svg" viewBox="685 514 37 45">
<g title="Sikkim" fill="#328707">
<path title="West District" d="M 694.5803,552.69277 C 693.9785,552.296 693.01709,551.47581 692.44384,550.87013 C 691.87058,550.26445 691.06614,549.57646 690.65618,549.34125 C 689.64984,548.76386 689.74244,545.51227 690.89962,540.79383 L 691.75875,537.29072 L 693.00675,537.38188 C 693.69315,537.43202 694.15678,537.63211 694.03703,537.82652 C 693.9166,538.02204 694.11398,538.06693 694.47868,537.92698 C 694.8931,537.76796 695.04493,537.82462 694.8874,538.07951 C 694.73852,538.32039 694.92544,538.43561 695.34775,538.36329 C 695.78522,538.28837 696.0166,538.44187 695.9492,538.76228 C 695.79498,539.49543 696.59074,540.34779 697.2082,540.11085 C 697.60646,539.95802 697.75435,540.57252 697.85254,542.78802 C 697.92263,544.36955 697.85029,545.5828 697.69179,545.48413 C 697.53329,545.38545 697.40625,546.0498 697.40949,546.96044 C 697.41302,547.95625 697.53955,548.42048 697.72695,548.12518 C 697.9228,547.81656 698.03901,548.10199 698.03983,548.89367 C 698.04057,549.58638 698.17868,550.71511 698.34678,551.40195 C 698.6171,552.5065 698.5607,552.65074 697.85856,552.65074 C 697.42194,552.65074 696.95785,552.82365 696.82723,553.03499 C 696.47598,553.60334 695.80684,553.50143 694.5803,552.69277 L 694.5803,552.69277 z"/>
<path title="North District" d="M 703.67048,544.30135 C 702.22291,544.17013 702.01591,544.02086 701.62066,542.82326 C 701.13978,541.36617 698.91038,539.58639 697.56608,539.58639 C 697.11956,539.58639 696.42834,539.2263 696.03004,538.78618 C 695.63173,538.34606 694.74038,537.7497 694.04925,537.46093 C 692.54017,536.83039 692.49834,536.33813 693.75327,533.97793 C 694.778,532.05067 695.02558,529.31313 694.33857,527.50615 C 693.70154,525.83064 694.50665,524.72958 696.78081,524.16618 C 697.86301,523.89806 699.52656,523.71902 700.47757,523.76829 C 702.1389,523.85436 702.30413,523.75948 704.69317,521.3475 C 706.06073,519.96679 707.44403,518.84302 707.76713,518.85023 C 708.09024,518.85743 709.26238,520.10074 710.37189,521.61315 C 712.23412,524.15162 712.38918,524.52727 712.38918,526.50041 C 712.38918,527.67599 712.04336,529.84711 711.62069,531.32511 C 710.76879,534.30404 710.62331,537.80858 711.28276,539.46532 C 712.00171,541.27151 712.01969,542.25765 711.32883,541.99255 C 710.95498,541.84908 710.82322,541.91836 710.98182,542.17498 C 711.14729,542.44272 710.94496,542.51218 710.4084,542.37187 C 709.93293,542.24754 709.67537,542.31051 709.80455,542.51953 C 709.93551,542.73143 709.49713,542.82181 708.75728,542.73543 C 708.00622,542.64775 707.3631,542.78372 707.18788,543.06723 C 706.98333,543.39819 707.04744,543.45091 707.39399,543.23673 C 707.71092,543.04085 707.80381,543.07661 707.6451,543.33341 C 707.50657,543.55755 707.02054,543.64349 706.56503,543.52437 C 706.00183,543.37709 705.82392,543.4487 706.009,543.74816 C 706.19105,544.04272 706.06284,544.10476 705.62181,543.93552 C 705.17446,543.76386 705.05178,543.82704 705.24028,544.13204 C 705.3931,544.3793 705.46468,544.55138 705.39938,544.51445 C 705.33407,544.47753 704.55606,544.38164 703.67047,544.30136 L 703.67048,544.30135 z"/>
<path title="East District" d="M 706.62306,550.46333 C 705.5571,550.29616 704.45138,548.74021 703.67201,546.31069 C 703.40082,545.46535 703.17633,544.73048 703.17312,544.67765 C 703.1699,544.62481 703.60145,544.58159 704.13209,544.58159 C 704.66272,544.58159 705.82988,544.25116 706.72575,543.8473 C 707.62161,543.44343 709.27499,542.90444 710.39991,542.64951 C 712.35984,542.20537 712.48816,542.22604 713.47388,543.14473 C 714.03963,543.67202 714.90676,544.31169 715.40082,544.56621 C 716.61198,545.19015 716.25388,546.60639 714.40195,548.5167 C 712.90373,550.06215 711.0297,550.67294 709.80205,550.01593 C 708.96922,549.57021 707.28454,549.85731 707.61311,550.38896 C 707.72888,550.57627 707.77016,550.70361 707.70485,550.67194 C 707.63955,550.64028 707.15274,550.5464 706.62306,550.46333 L 706.62306,550.46333 z"/>
<path title="South District" d="M 700.66969,553.08813 C 699.2523,552.44401 699.0814,552.1969 698.47322,549.91207 C 697.60715,546.65832 697.90234,540.73913 698.93068,540.73913 C 699.71493,540.73913 701.24606,542.29778 701.24606,543.09614 C 701.24606,543.41424 701.66872,544.042 702.1853,544.49116 C 702.71034,544.9477 703.24314,545.95255 703.3935,546.76987 C 703.54143,547.574 704.0769,548.72916 704.58344,549.3369 C 705.4726,550.40369 705.48065,550.46817 704.81617,551.20241 C 704.43763,551.62069 704.17113,552.07446 704.22396,552.21078 C 704.2768,552.34709 704.13317,552.45862 703.9048,552.45862 C 703.67644,552.45862 703.26832,552.76121 702.99789,553.13105 C 702.40488,553.94205 702.55482,553.94481 700.66969,553.08813 z"/>
</g>
<g class="label" text-anchor="middle" font-size="2" font-family="sans-serif"  fill="#444">
<text x="696" y="545">West District</text>
<text x="703" y="533">North District</text>
<text x="709" y="547">East District</text>
<text x="702" y="549">South District</text>
</g>
</svg>
