<svg xmlns="http://www.w3.org/2000/svg" viewBox="295 1012 151 197">
<g title="Tamil Nadu" fill="#328707">
<path title="Thiruvallur" d="M 423.95668,1035.5371 C 423.21607,1035.2699 422.55095,1034.7389 422.47634,1034.3552 C 422.40184,1033.972 422.01278,1033.3063 421.61179,1032.8758 C 421.21081,1032.4454 420.88271,1031.8068 420.88271,1031.4568 C 420.88271,1030.6909 419.70022,1029.5485 418.90743,1029.5485 C 418.59398,1029.5485 417.96788,1030.0484 417.51609,1030.6595 C 416.76337,1031.6776 416.42795,1031.7936 413.50532,1032.0469 C 411.75118,1032.199 410.14305,1032.4541 409.93171,1032.6139 C 409.50611,1032.9357 405.14501,1034.5862 405.10084,1034.4422 C 405.08556,1034.3923 405.01731,1033.3765 404.9492,1032.1848 L 404.82538,1030.018 L 406.37749,1029.7698 C 407.82314,1029.5386 409.93369,1028.3832 410.60822,1027.4536 C 410.76896,1027.2321 410.797,1026.4024 410.67051,1025.6099 L 410.44054,1024.169 L 411.8737,1024.169 C 412.89239,1024.169 414.03643,1024.6298 415.82944,1025.7622 C 417.3726,1026.7368 418.95518,1027.4177 419.90555,1027.516 C 421.35039,1027.6655 421.49941,1027.5885 422.03545,1026.4156 C 422.53343,1025.326 423.02987,1025.0096 425.68578,1024.0889 C 429.24466,1022.8551 429.85337,1022.2517 429.59221,1020.2166 C 429.43254,1018.9725 429.54803,1018.6684 430.38971,1018.117 C 431.33375,1017.4984 431.39695,1017.5068 431.93886,1018.323 C 432.56354,1019.2638 434.56405,1019.4876 435.90997,1018.7673 C 436.50822,1018.4471 436.80897,1018.5122 437.32563,1019.0736 C 437.68643,1019.4656 437.80874,1019.5189 437.5974,1019.1919 C 437.26319,1018.6749 437.30017,1018.6657 437.88135,1019.1213 C 438.24885,1019.4094 438.463,1019.7852 438.35722,1019.9564 C 438.25143,1020.1275 438.55072,1020.9215 439.02231,1021.7208 C 439.82118,1023.0748 440.65723,1027.3983 440.04729,1027.0214 C 439.64059,1026.77 438.84136,1029.4586 439.16643,1029.9846 C 439.34082,1030.2668 439.27912,1030.333 439.00163,1030.1615 C 438.75765,1030.0107 438.55801,1030.0705 438.55801,1030.2943 C 438.55801,1030.5181 438.11885,1030.7012 437.58209,1030.7012 C 436.39056,1030.7012 433.73297,1032.009 433.45557,1032.7319 C 433.30624,1033.1211 432.59469,1033.2283 430.72824,1033.1429 L 428.20294,1033.0274 L 426.97612,1034.554 C 426.30136,1035.3937 425.64854,1036.0675 425.52542,1036.0514 C 425.40228,1036.0353 424.69635,1035.8039 423.95668,1035.5371 L 423.95668,1035.5371 z"/>
<path title="Chennai" d="M 434.72238,1034.743 C 433.51894,1033.462 433.75228,1032.6733 435.58011,1031.8436 C 437.70178,1030.8805 437.98165,1030.8998 437.98165,1032.0094 C 437.98165,1032.5175 437.87008,1032.8643 437.73372,1032.7801 C 437.38664,1032.5655 436.97045,1033.7667 437.24047,1034.2036 C 437.36252,1034.4011 437.23341,1034.5152 436.95353,1034.4571 C 436.67365,1034.399 436.46388,1034.6253 436.48736,1034.9599 C 436.54808,1035.825 435.63326,1035.7126 434.72237,1034.743 L 434.72238,1034.743 z"/>
<path title="Kancheepuram" d="M 424.34093,1061.4156 C 424.34093,1059.485 423.74968,1059.1354 420.48495,1059.1354 C 417.62513,1059.1354 417.4245,1059.0821 417.4245,1058.3226 C 417.4245,1057.8756 418.03812,1056.9479 418.7881,1056.2609 C 420.12721,1055.0343 420.14963,1054.9644 420.03689,1052.3666 C 419.93231,1049.9568 419.84514,1049.7104 419.05755,1049.5986 C 417.92366,1049.4375 417.96109,1048.5735 419.15361,1047.3809 C 420.51397,1046.0206 420.50002,1043.6866 419.12578,1042.7268 C 418.58215,1042.3471 417.6753,1041.6632 417.11059,1041.207 L 416.08384,1040.3775 L 417.13843,1039.4001 C 417.71844,1038.8626 418.19299,1038.2581 418.19299,1038.0567 C 418.19299,1037.5224 421.45629,1035.6964 422.41114,1035.6964 C 422.85951,1035.6964 423.76648,1035.9757 424.42664,1036.3171 L 425.62694,1036.9378 L 427.25877,1035.0683 C 428.53925,1033.6013 428.99261,1033.2983 429.36435,1033.6611 C 429.70267,1033.9913 430.04953,1034.0103 430.57775,1033.7276 C 430.98456,1033.5099 431.60648,1033.4598 431.9598,1033.6163 C 432.31313,1033.7728 432.69472,1033.9158 432.80779,1033.9341 C 432.92086,1033.9523 433.68267,1034.519 434.5007,1035.1933 L 435.98802,1036.4192 L 435.67472,1040.9569 C 435.5024,1043.4527 435.34578,1046.0401 435.32667,1046.7068 C 435.30755,1047.3734 435.16731,1047.8418 435.01501,1047.7477 C 434.62734,1047.5081 434.19956,1049.4002 434.47759,1050.1247 C 434.62739,1050.515 434.55258,1050.6266 434.26161,1050.4468 C 433.96163,1050.2614 433.89898,1050.3867 434.06949,1050.831 C 434.24001,1051.2754 434.17735,1051.4007 433.87737,1051.2153 C 433.57738,1051.0299 433.51473,1051.1552 433.68525,1051.5995 C 433.83554,1051.9912 433.78404,1052.1635 433.55842,1052.0241 C 433.34951,1051.895 433.15224,1052.1021 433.12005,1052.4845 C 433.08785,1052.8668 433.04243,1053.3835 433.01909,1053.6328 C 432.99576,1053.882 432.82145,1054.2278 432.63176,1054.4012 C 432.43241,1054.5835 432.40596,1054.4733 432.5691,1054.1402 C 432.72432,1053.8232 432.57531,1053.9047 432.23798,1054.3213 C 431.90065,1054.7379 431.70868,1055.2978 431.81141,1055.5655 C 431.91413,1055.8332 431.78827,1056.011 431.5317,1055.9607 C 431.27515,1055.9104 431.08893,1056.17 431.1179,1056.5376 C 431.14787,1056.9176 430.9954,1057.0976 430.76442,1056.9549 C 430.5183,1056.8027 430.44728,1056.9358 430.5842,1057.2926 C 430.81732,1057.9001 427.37858,1061.6607 426.96666,1061.2488 C 426.85073,1061.1329 426.53719,1061.3016 426.26986,1061.6237 C 425.54403,1062.4982 424.34093,1062.3684 424.34093,1061.4156 L 424.34093,1061.4156 z M 428.95187,1059.3275 C 429.88522,1058.3765 430.56241,1057.5984 430.45674,1057.5984 C 430.35106,1057.5984 429.50097,1058.3765 428.56763,1059.3275 C 427.63428,1060.2785 426.95709,1061.0566 427.06276,1061.0566 C 427.16844,1061.0566 428.01853,1060.2785 428.95187,1059.3275 z"/>
<path title="Viluppuram" d="M 390.63697,1083.9776 C 388.81114,1083.4786 387.86783,1082.4711 387.84981,1081.0009 C 387.84309,1080.4524 387.50235,1079.7004 387.09262,1079.3296 C 386.40518,1078.7074 386.27989,1078.7028 385.47014,1079.27 C 384.18081,1080.1731 383.8628,1080.0477 383.12516,1078.345 C 382.30394,1076.4495 382.29879,1076.5858 383.22664,1075.6579 C 383.64931,1075.2353 383.99513,1074.3892 383.99513,1073.7778 C 383.99513,1073.1664 384.2428,1072.5712 384.54551,1072.455 C 384.84822,1072.3388 385.15082,1071.6846 385.21794,1071.0012 C 385.31902,1069.972 385.63709,1069.6002 387.0691,1068.8369 C 388.47369,1068.0883 389.14037,1067.9593 390.62138,1068.1493 C 392.13335,1068.3433 392.64213,1068.2371 393.60193,1067.5275 C 394.49839,1066.8647 394.86263,1066.7752 395.21774,1067.1303 C 395.4699,1067.3825 396.25108,1067.5888 396.95372,1067.5888 C 397.95533,1067.5888 398.30842,1067.7918 398.58857,1068.5286 C 398.92925,1069.4247 398.99815,1069.4424 400.06682,1068.9093 C 400.68332,1068.6017 401.99766,1067.4842 402.98758,1066.4259 L 404.78743,1064.5017 L 403.98069,1063.3688 C 403.22768,1062.3113 403.21346,1062.1595 403.76706,1061.0889 C 404.51933,1059.6342 404.51372,1058.9585 403.73959,1057.777 C 403.39827,1057.2561 403.2798,1056.8299 403.4763,1056.8299 C 403.6728,1056.8299 404.12216,1056.2247 404.47489,1055.485 C 405.17259,1054.022 405.89217,1053.8351 407.43412,1054.7165 C 408.01926,1055.051 409.52114,1055.2743 411.27657,1055.2878 C 413.52974,1055.3052 414.36798,1055.4739 415.11903,1056.0614 C 415.64737,1056.4747 416.37796,1056.8167 416.74256,1056.8214 C 417.27757,1056.8283 417.3397,1057.0029 417.06458,1057.7265 C 416.51674,1059.1675 417.05441,1059.4768 420.3181,1059.598 L 423.38031,1059.7117 L 423.57243,1061.0522 C 423.70901,1062.0052 423.98673,1062.4325 424.53305,1062.5305 C 424.95572,1062.6062 425.47445,1062.8367 425.68578,1063.0426 C 425.93907,1063.2894 425.87359,1063.3749 425.49366,1063.2935 C 425.14495,1063.2187 424.93738,1063.4296 424.96815,1063.8273 C 424.99613,1064.1889 424.82321,1064.4482 424.5839,1064.4037 C 424.34461,1064.3591 424.17251,1064.6234 424.20148,1064.991 C 424.23046,1065.3585 424.10077,1065.5645 423.9133,1065.4486 C 423.72583,1065.3328 423.57243,1065.5199 423.57243,1065.8644 C 423.57243,1067.0781 422.6153,1067.4624 419.00985,1067.6959 C 417.03527,1067.8239 415.32253,1068.0257 415.2038,1068.1444 C 415.08508,1068.2632 415.37043,1068.7675 415.83795,1069.2651 C 416.30548,1069.7628 416.85221,1070.7647 417.05293,1071.4917 C 417.30859,1072.4176 417.84653,1073.0584 418.84932,1073.6314 L 420.28076,1074.4495 L 418.82527,1075.8222 C 417.23139,1077.3254 416.61325,1077.493 415.88752,1076.6185 C 415.58505,1076.2541 414.7374,1076.0422 413.58205,1076.0422 C 412.49142,1076.0422 411.57633,1075.827 411.31189,1075.5084 C 410.64486,1074.7046 408.89008,1074.4899 407.94781,1075.0967 C 407.49067,1075.391 407.00226,1076.1997 406.86245,1076.8937 C 406.41287,1079.1253 406.24041,1079.5004 405.66381,1079.5004 C 405.35263,1079.5004 404.45217,1079.8299 403.66278,1080.2326 C 402.40546,1080.874 402.10965,1080.8995 401.27656,1080.4383 C 399.75212,1079.5944 399.06923,1079.7596 398.78789,1081.0406 C 398.48978,1082.3978 397.61379,1082.9586 395.7917,1082.9586 C 395.05522,1082.9586 394.04222,1083.2978 393.49642,1083.7271 C 392.95909,1084.1498 392.46026,1084.4786 392.38793,1084.4579 C 392.31559,1084.4371 391.52766,1084.221 390.63698,1083.9776 L 390.63697,1083.9776 z M 417.80469,1075.8549 C 418.36858,1075.1755 418.05647,1074.121 417.29149,1074.121 C 416.99374,1074.121 416.53486,1074.3803 416.27177,1074.6973 C 415.89014,1075.1572 415.89014,1075.3902 416.27177,1075.8501 C 416.87316,1076.5747 417.20647,1076.5758 417.80469,1075.8549 L 417.80469,1075.8549 z M 416.08178,1073.7333 C 416.37546,1073.2581 415.95455,1071.8155 415.5222,1071.8155 C 415.13,1071.8155 414.80543,1072.9986 415.02147,1073.6406 C 415.21626,1074.2196 415.75225,1074.2664 416.08177,1073.7333 L 416.08178,1073.7333 z"/>
<path title="Cuddalore" d="M 411.66082,1095.6905 C 411.66082,1094.776 410.23705,1092.949 409.5244,1092.949 C 409.22539,1092.949 408.55278,1092.2711 408.02972,1091.4425 C 406.96864,1089.7616 405.91763,1089.2471 404.78417,1089.8537 C 404.36741,1090.0768 402.89882,1090.2593 401.52063,1090.2593 C 399.49004,1090.2593 398.74981,1090.0794 397.61732,1089.3109 C 396.45535,1088.5224 395.93128,1088.402 394.50805,1088.5971 C 392.84709,1088.8248 392.74554,1088.7772 391.08544,1086.9946 C 388.81972,1084.5616 388.81511,1083.9797 391.06695,1084.6574 C 392.64034,1085.131 392.81593,1085.1102 393.56455,1084.3615 C 394.09587,1083.8302 395.05267,1083.4873 396.37729,1083.3535 C 397.98565,1083.191 398.4734,1082.9724 398.83038,1082.2538 C 399.56148,1080.7822 399.89781,1080.611 401.1797,1081.0578 C 402.16716,1081.4021 402.63431,1081.3376 403.92592,1080.6786 C 404.78191,1080.2419 405.72077,1079.8846 406.01227,1079.8846 C 406.63499,1079.8846 407.43412,1078.298 407.43412,1077.0616 C 407.43412,1075.3319 408.72142,1074.8476 410.64807,1075.8524 C 411.25339,1076.1681 412.39722,1076.4264 413.1899,1076.4264 C 414.04933,1076.4264 415.02555,1076.7367 415.60812,1077.1949 C 416.14545,1077.6176 416.70347,1077.9634 416.84813,1077.9634 C 416.9928,1077.9634 417.55081,1077.6176 418.08815,1077.1949 C 419.34462,1076.2066 419.53785,1076.2273 419.53785,1077.3503 C 419.53785,1077.8585 419.42062,1078.2018 419.27734,1078.1133 C 418.88744,1077.8723 418.48522,1079.4249 418.80393,1079.9406 C 418.98451,1080.2327 418.91179,1080.2835 418.59402,1080.0871 C 418.22247,1079.8575 418.14051,1080.1972 418.24647,1081.5281 C 418.32272,1082.4858 418.25543,1083.1893 418.09693,1083.0914 C 417.93843,1082.9934 417.80875,1084.144 417.80875,1085.6483 C 417.80875,1087.1526 417.95668,1088.292 418.13749,1088.1802 C 418.3183,1088.0685 418.37968,1088.4298 418.2739,1088.9831 C 418.16811,1089.5365 418.23633,1089.8941 418.42547,1089.7778 C 418.61462,1089.6615 418.78921,1090.0965 418.81347,1090.7444 C 418.85772,1091.9265 417.424,1093.6779 416.38961,1093.7053 C 416.13743,1093.712 415.67692,1094.0804 415.36626,1094.5239 C 414.75548,1095.3959 413.05166,1096.4072 412.19326,1096.4072 C 411.90042,1096.4072 411.66082,1096.0847 411.66082,1095.6905 L 411.66082,1095.6905 z"/>
<path title="Nagapattinam" d="M 410.50808,1104.4013 C 410.50808,1103.5847 410.86196,1102.8052 411.56476,1102.0737 C 412.29361,1101.3151 412.74064,1100.2985 413.00568,1098.7968 C 413.30723,1097.0882 413.58997,1096.5202 414.31947,1096.1574 C 414.83072,1095.9032 415.40127,1095.4231 415.58736,1095.0906 C 415.77346,1094.758 416.12379,1094.486 416.36589,1094.486 C 416.60799,1094.486 417.28924,1094.0231 417.87978,1093.4573 C 418.4703,1092.8916 419.07317,1092.5484 419.21948,1092.6947 C 419.68575,1093.1609 419.87554,1103.7079 419.41766,1103.7079 C 419.19171,1103.7079 418.89998,1103.535 418.76936,1103.3236 C 418.63875,1103.1123 417.70797,1102.9394 416.70097,1102.9394 C 415.22496,1102.9394 414.50339,1103.2001 412.97848,1104.2842 C 411.93812,1105.0239 410.95667,1105.6291 410.7975,1105.6291 C 410.63833,1105.6291 410.50808,1105.0766 410.50808,1104.4013 L 410.50808,1104.4013 z M 414.53598,1128.5747 C 413.70117,1125.5663 413.86477,1123.7695 415.26837,1120.531 C 416.04425,1118.7408 416.06211,1117.0112 415.31115,1116.388 C 414.87961,1116.0298 414.73478,1115.0693 414.73478,1112.5654 C 414.73478,1109.5344 414.82094,1109.1403 415.65486,1108.3569 C 416.24355,1107.8039 416.66691,1107.6413 416.83028,1107.9057 C 416.97072,1108.1329 417.69447,1108.3188 418.43864,1108.3188 L 419.79168,1108.3188 L 419.68898,1119.4402 C 419.63252,1125.557 419.4445,1130.474 419.27118,1130.3669 C 419.09787,1130.2598 418.85233,1130.4424 418.72554,1130.7728 C 418.56756,1131.1845 417.99416,1131.3727 416.90309,1131.3709 L 415.31115,1131.3682 L 414.53598,1128.5747 z"/>
<path title="Thiruvarur" d="M 413.77417,1131.7788 C 413.3515,1131.6058 412.68768,1131.1106 412.29903,1130.6784 C 411.91037,1130.2462 410.94028,1129.7824 410.14327,1129.6477 L 408.69417,1129.4029 L 408.46863,1126.7126 C 408.25773,1124.1971 408.14187,1123.924 406.68586,1122.511 C 405.32624,1121.1915 405.12864,1120.7832 405.12864,1119.2929 C 405.12864,1118.3542 404.96611,1117.4856 404.76746,1117.3628 C 404.25267,1117.0447 404.76575,1111.7008 405.36901,1111.0975 C 405.64288,1110.8237 405.97786,1110.0084 406.11341,1109.2858 C 406.35231,1108.0124 406.42066,1107.9685 408.33792,1107.8572 C 410.05508,1107.7576 410.33215,1107.6284 410.43874,1106.8779 C 410.50626,1106.4024 410.77481,1106.0133 411.03548,1106.0133 C 411.29614,1106.0133 412.1919,1105.5153 413.02604,1104.9065 C 414.69539,1103.6881 416.60019,1103.1322 417.80011,1103.513 C 418.68573,1103.7941 418.8521,1104.4764 418.03503,1104.4764 C 417.40201,1104.4764 415.50328,1106.6151 415.50328,1107.3281 C 415.50328,1107.5962 415.15745,1108.1284 414.73478,1108.5109 C 414.08517,1109.0988 413.96629,1109.6944 413.96629,1112.3611 C 413.96629,1114.934 414.10803,1115.696 414.73478,1116.4928 C 415.68321,1117.6985 415.69075,1118.1902 414.79307,1120.2946 C 413.35477,1123.6664 413.06318,1125.7748 413.74945,1127.8409 C 414.27574,1129.4254 414.83402,1132.1976 414.61074,1132.1177 C 414.57329,1132.1043 414.19684,1131.9518 413.77417,1131.7788 L 413.77417,1131.7788 z"/>
<path title="Thanjavur" d="M 396.67524,1131.5645 C 396.67524,1130.6391 396.50233,1129.7751 396.29099,1129.6444 C 395.86842,1129.3833 395.77126,1127.1785 396.13998,1126.2177 C 396.26826,1125.8834 396.68204,1125.6099 397.05948,1125.6099 C 397.98937,1125.6099 398.21222,1124.862 398.21222,1121.7411 L 398.21222,1119.088 L 396.85455,1118.5207 C 396.10783,1118.2087 395.05076,1117.4233 394.5055,1116.7753 C 393.74163,1115.8675 393.23755,1115.6155 392.3089,1115.6773 C 391.64602,1115.7215 390.46613,1115.7265 389.68691,1115.6885 C 388.27879,1115.6199 388.27139,1115.6107 388.47323,1114.1786 C 388.94934,1110.8005 389.26608,1110.3261 391.47401,1109.6843 C 392.60338,1109.3559 393.92731,1109.0873 394.41605,1109.0873 C 395.58816,1109.0873 398.55303,1107.97 399.70496,1107.0943 C 400.20895,1106.7111 400.98706,1106.3969 401.43407,1106.3962 C 401.88106,1106.3954 402.76553,1106.0695 403.39954,1105.672 C 405.03334,1104.6476 409.35534,1100.3221 409.35534,1099.7114 C 409.35534,1098.8559 410.90149,1097.1757 411.68871,1097.1757 C 412.30554,1097.1757 412.42931,1097.4527 412.42931,1098.8329 C 412.42931,1100.1672 412.20798,1100.7022 411.29346,1101.5783 C 410.31509,1102.5157 410.14195,1102.9918 410.04466,1105.0124 L 409.93171,1107.3582 L 407.82296,1107.5503 C 405.72526,1107.7414 405.71299,1107.7501 405.48017,1109.1941 C 405.35144,1109.9925 404.96936,1110.8571 404.63109,1111.1153 C 404.17488,1111.4636 404.01033,1112.2795 403.99392,1114.2746 C 403.95524,1118.9782 404.49274,1122.1517 405.32809,1122.1517 C 405.64106,1122.1517 405.89713,1122.4153 405.89713,1122.7375 C 405.89713,1123.0598 406.304,1123.4781 406.80127,1123.6672 C 407.51356,1123.938 407.75816,1124.3958 407.95401,1125.8246 C 408.46167,1129.5285 408.66609,1129.306 404.50418,1129.5794 C 400.89438,1129.8165 399.50517,1130.2836 400.00493,1131.0922 C 400.15308,1131.3319 400.06468,1131.3764 399.78436,1131.2032 C 399.22526,1130.8576 397.72882,1132.0979 397.96433,1132.7116 C 398.05423,1132.9459 397.80096,1133.1622 397.40151,1133.1923 C 396.79155,1133.2383 396.67524,1132.9776 396.67524,1131.5645 L 396.67524,1131.5645 z M 398.21222,1132.4283 C 398.21222,1132.3226 398.47159,1132.0209 398.78859,1131.7578 C 399.10559,1131.4947 399.36496,1131.3659 399.36496,1131.4716 C 399.36496,1131.5772 399.10559,1131.879 398.78859,1132.142 C 398.47159,1132.4051 398.21222,1132.5339 398.21222,1132.4283 L 398.21222,1132.4283 z"/>
<path title="Pudukkottai" d="M 393.25741,1142.1707 C 392.863,1141.9172 392.72581,1140.9278 392.73801,1138.425 C 392.75599,1134.7346 392.43728,1133.679 391.30496,1133.679 C 390.9022,1133.679 390.47653,1133.5235 390.35905,1133.3334 C 390.24157,1133.1433 389.29705,1132.7842 388.26014,1132.5355 C 386.92149,1132.2143 386.31651,1131.8601 386.17363,1131.3137 C 386.03004,1130.7647 385.71674,1130.5831 385.07983,1130.6798 C 384.58891,1130.7544 384.21611,1130.9843 384.25137,1131.1908 C 384.28789,1131.4046 383.58506,1131.508 382.61833,1131.4312 C 380.99185,1131.3018 380.92117,1131.2448 380.92117,1130.0619 C 380.92117,1129.1913 380.58057,1128.5013 379.76528,1127.7202 L 378.60938,1126.6128 L 377.1182,1128.0689 C 375.79987,1129.3562 375.52908,1129.4726 374.78215,1129.0728 C 374.1109,1128.7136 373.98998,1128.41 374.19373,1127.5956 C 374.33478,1127.0318 374.69578,1126.4322 374.99595,1126.2632 C 375.29614,1126.0942 375.54173,1125.8251 375.54173,1125.6651 C 375.54173,1125.5051 376.31982,1124.5387 377.27083,1123.5175 C 379.49329,1121.1309 379.49569,1120.6147 377.28435,1120.6147 C 375.96491,1120.6147 375.47427,1120.4381 375.15954,1119.85 C 374.81354,1119.2035 375.00358,1118.8106 376.38942,1117.3072 L 378.02851,1115.529 L 380.27233,1115.7635 C 381.50645,1115.8925 382.7829,1116.1473 383.10892,1116.3297 C 383.46859,1116.531 384.43198,1116.4474 385.55893,1116.117 C 386.91327,1115.72 387.6218,1115.6826 388.17542,1115.9789 C 388.593,1116.2024 389.19303,1116.2861 389.50883,1116.1649 C 389.82463,1116.0437 390.4534,1116.1428 390.90609,1116.385 C 391.52924,1116.7186 391.86238,1116.715 392.2776,1116.3704 C 392.71796,1116.0049 393.03589,1116.1399 393.89088,1117.0552 C 394.47654,1117.6821 395.51553,1118.4846 396.19973,1118.8384 C 397.43389,1119.4766 397.44373,1119.5044 397.44373,1122.3536 C 397.44373,1124.9403 397.36965,1125.2256 396.69792,1125.2256 C 395.53998,1125.2256 395.42375,1125.7726 395.71552,1129.8491 C 395.96311,1133.3083 396.08478,1133.7513 397.07029,1134.7826 C 397.6658,1135.4057 398.26196,1135.8067 398.39507,1135.6736 C 398.52819,1135.5405 398.51211,1135.7572 398.35935,1136.1553 C 398.19619,1136.5805 398.23175,1136.7863 398.44556,1136.6541 C 398.65772,1136.523 398.80514,1137.2846 398.79904,1138.4803 C 398.78936,1140.3803 398.53077,1141.1515 397.89202,1141.1854 C 397.75112,1141.1929 397.29003,1141.3886 396.86736,1141.6203 C 395.67612,1142.2732 393.84996,1142.5517 393.25741,1142.1707 L 393.25741,1142.1707 z"/>
<path title="Ramanathapuram" d="M 370.45047,1169.8824 C 369.63206,1169.7776 369.3938,1169.5411 369.3938,1168.8338 C 369.3938,1168.3314 369.06573,1167.6907 368.66475,1167.4098 C 367.70476,1166.7374 366.45567,1164.2061 366.19335,1162.4014 C 366.00253,1161.0887 366.06356,1160.9605 366.87925,1160.9605 C 367.7897,1160.9605 368.24106,1160.3198 368.24106,1159.0274 C 368.24106,1158.6327 367.63587,1157.8483 366.8962,1157.2841 C 365.17551,1155.9717 365.08927,1154.8125 366.71232,1154.8125 C 367.57129,1154.8125 367.98479,1154.5678 368.30194,1153.8718 C 368.5377,1153.3543 369.09595,1152.8788 369.5425,1152.8151 C 370.10142,1152.7353 370.37254,1152.3999 370.41261,1151.7386 C 370.4446,1151.2102 370.48784,1150.4906 370.50867,1150.1393 C 370.53462,1149.7013 371.04164,1149.417 372.12211,1149.2345 C 373.56392,1148.9909 373.81674,1149.0818 375.10001,1150.3053 C 375.87129,1151.0406 376.97785,1151.7537 377.55902,1151.8899 C 378.14019,1152.026 378.61569,1152.3071 378.61569,1152.5144 C 378.61569,1153.2716 379.35804,1152.862 380.02167,1151.7386 C 380.55841,1150.83 380.96987,1150.5858 381.96463,1150.5858 C 382.68896,1150.5858 383.53545,1150.277 383.95147,1149.861 C 384.97696,1148.8355 384.30803,1146.7653 382.6799,1145.9258 C 381.72273,1145.4322 381.51587,1145.1044 381.59378,1144.2046 C 381.6467,1143.5932 381.70809,1142.5679 381.73019,1141.9261 C 381.76772,1140.8361 381.85472,1140.769 383.05096,1140.9087 C 384.07215,1141.0279 384.41424,1141.2954 384.73972,1142.229 C 384.96419,1142.873 385.14787,1143.7199 385.14787,1144.111 C 385.14787,1144.9967 386.39144,1145.0607 387.23377,1144.2183 C 387.56586,1143.8862 387.83759,1143.2638 387.83759,1142.8351 C 387.83759,1141.6786 390.31066,1139.3587 391.38152,1139.5107 C 392.08747,1139.6109 392.27943,1139.9128 392.37558,1141.0742 C 392.46922,1142.2052 392.68426,1142.5612 393.37927,1142.7356 C 394.20976,1142.9441 394.13565,1143.0788 392.16633,1144.9413 C 389.89323,1147.0911 388.80995,1148.7931 389.15024,1149.6799 C 389.28598,1150.0336 389.20454,1150.1419 388.93021,1149.9723 C 388.63245,1149.7883 388.5555,1150.0214 388.68698,1150.7092 C 388.79644,1151.2818 388.7245,1151.6196 388.52001,1151.4933 C 388.30468,1151.3602 388.21145,1152.5055 388.28733,1154.3513 C 388.35697,1156.0454 388.28427,1157.3507 388.12577,1157.2521 C 387.96727,1157.1534 387.83759,1157.7847 387.83759,1158.655 C 387.83759,1159.5253 387.99098,1160.1425 388.17845,1160.0267 C 388.36593,1159.9108 388.49561,1160.1167 388.46664,1160.4843 C 388.43767,1160.8519 388.62387,1161.1114 388.88043,1161.0611 C 389.14732,1161.0088 389.25441,1161.2108 389.13071,1161.5331 C 389.00577,1161.8587 389.40459,1162.5866 390.0756,1163.2576 C 391.09884,1164.2808 391.14626,1164.4187 390.47507,1164.4187 C 390.05618,1164.4187 389.79558,1164.5515 389.89594,1164.7139 C 389.9963,1164.8763 389.37855,1164.9424 388.52316,1164.8609 C 387.66776,1164.7793 387.06115,1164.8626 387.17514,1165.0459 C 387.28913,1165.2293 386.30666,1165.3227 384.99189,1165.2536 C 383.17111,1165.1579 382.48155,1165.2724 382.09848,1165.7339 C 381.79638,1166.098 380.99159,1166.3399 380.08295,1166.3399 C 379.18407,1166.3399 378.66559,1166.494 378.80509,1166.7198 C 378.94454,1166.9454 378.77215,1166.9969 378.38049,1166.8466 C 377.89774,1166.6613 377.80538,1166.7299 378.03566,1167.1025 C 378.24579,1167.4425 378.20181,1167.5197 377.90313,1167.3351 C 377.31965,1166.9745 375.8502,1167.4434 376.13247,1167.9002 C 376.25245,1168.0943 376.05421,1168.1388 375.69077,1167.9993 C 375.26972,1167.8377 375.12382,1167.8958 375.2871,1168.16 C 375.45257,1168.4277 375.25024,1168.4972 374.71368,1168.3569 C 374.18239,1168.218 373.97536,1168.287 374.13731,1168.549 C 374.29926,1168.8111 374.09223,1168.8801 373.56094,1168.7411 C 373.02965,1168.6022 372.82262,1168.6712 372.98458,1168.9333 C 373.14145,1169.1871 372.96209,1169.2702 372.51166,1169.1524 C 372.11254,1169.0481 371.65331,1169.1774 371.49114,1169.4398 C 371.30107,1169.7473 371.35394,1169.8194 371.6399,1169.6427 C 371.88388,1169.4919 372.08352,1169.455 372.08352,1169.5606 C 372.08352,1169.9091 371.52228,1170.0196 370.45047,1169.8824 L 370.45047,1169.8824 z M 391.68004,1145.7828 C 392.39696,1145.0431 393.06999,1144.4379 393.17566,1144.4379 C 393.28132,1144.4379 392.78121,1145.0431 392.06429,1145.7828 C 391.34737,1146.5224 390.67435,1147.1276 390.56868,1147.1276 C 390.46301,1147.1276 390.96313,1146.5224 391.68004,1145.7828 z"/>
<path title="Thoothukkudi" d="M 350.8565,1192.9544 C 350.52282,1192.5815 350.12882,1191.4119 349.98096,1190.3553 C 349.8331,1189.2986 349.38761,1187.6821 348.99101,1186.763 C 348.34508,1185.2662 348.32948,1185.0069 348.84147,1184.276 C 349.24603,1183.6984 349.41302,1182.4353 349.41302,1179.9528 C 349.41302,1176.6739 349.33876,1176.3431 348.27234,1174.8709 C 347.64497,1174.0049 346.8129,1173.1257 346.42329,1172.9172 C 346.03368,1172.7087 345.52632,1171.9235 345.29581,1171.1725 C 344.93678,1170.0026 344.98426,1169.6701 345.62722,1168.8528 C 346.23714,1168.0774 346.29629,1167.7465 345.94302,1167.0864 C 345.36165,1166.0001 345.60588,1165.8288 348.37795,1165.379 C 350.40262,1165.0504 350.82161,1164.8405 351.25414,1163.938 C 351.65716,1163.0972 352.02262,1162.8817 353.04574,1162.8817 C 354.34115,1162.8817 358.00673,1160.5324 358.73122,1159.2378 C 359.4249,1157.9982 364.01436,1159.2438 364.01436,1160.6716 C 364.01436,1160.9416 364.40341,1161.3332 364.87891,1161.5418 C 365.51747,1161.8219 365.77493,1162.3026 365.86384,1163.3808 C 365.97866,1164.7731 367.01522,1166.7059 368.37791,1168.0686 C 369.35498,1169.0457 369.13409,1169.6974 367.66115,1170.1835 C 366.91954,1170.4283 366.40978,1170.7855 366.52837,1170.9774 C 366.64697,1171.1693 366.44728,1171.2124 366.08463,1171.0733 C 365.64029,1170.9028 365.51499,1170.9654 365.70039,1171.2654 C 365.876,1171.5496 365.7739,1171.6332 365.41807,1171.4966 C 364.70169,1171.2217 360.83874,1173.1652 361.13825,1173.6499 C 361.26273,1173.8512 361.11369,1173.9198 360.80709,1173.8021 C 360.5005,1173.6845 360.11897,1173.7996 359.95928,1174.058 C 359.76136,1174.3782 359.82907,1174.4288 360.1719,1174.2169 C 360.50722,1174.0097 360.5822,1174.056 360.39684,1174.356 C 360.24393,1174.6034 359.95026,1174.7017 359.74427,1174.5744 C 359.19891,1174.2373 358.18017,1175.2081 358.42091,1175.8354 C 358.54226,1176.1517 358.4577,1176.2661 358.21396,1176.1155 C 357.95411,1175.9549 357.84924,1176.196 357.93017,1176.768 C 358.00079,1177.2669 358.30358,1177.6752 358.60307,1177.6752 C 358.90256,1177.6752 359.18062,1178.021 359.22098,1178.4436 C 359.26135,1178.8663 359.3615,1179.9035 359.44354,1180.7486 C 359.57259,1182.0776 359.48916,1182.2851 358.82564,1182.2855 C 358.28297,1182.2859 358.06688,1182.5335 358.08701,1183.1316 C 358.10267,1183.5966 357.95484,1183.8777 357.75853,1183.7564 C 357.55046,1183.6278 357.45846,1184.3418 357.53795,1185.4685 C 357.61385,1186.5443 357.52183,1187.3067 357.33041,1187.1881 C 357.14128,1187.0709 357.07306,1187.4277 357.17884,1187.9811 C 357.29417,1188.5844 357.22028,1188.8939 356.99427,1188.7542 C 356.76458,1188.6123 356.67986,1189.0566 356.77735,1189.8916 C 356.8727,1190.7083 356.78814,1191.1698 356.56809,1191.0338 C 356.35731,1190.9035 356.30339,1191.078 356.44244,1191.4404 C 356.59263,1191.8317 356.50717,1192.0401 356.21955,1191.9837 C 355.963,1191.9334 355.7717,1192.1625 355.79446,1192.4928 C 355.82486,1192.9341 355.41736,1193.1159 354.25748,1193.1785 C 353.38937,1193.2254 352.40553,1193.3466 352.07115,1193.448 C 351.73677,1193.5493 351.19018,1193.3272 350.8565,1192.9544 L 350.8565,1192.9544 z"/>
<path title="Tirunelveli" d="M 340.57537,1201.1955 C 340.57537,1201.0288 339.78109,1199.1268 338.81029,1196.9687 C 337.05659,1193.0702 335.35564,1190.9316 334.0087,1190.9316 C 333.65676,1190.9316 333.16024,1190.6803 332.90532,1190.3732 C 332.6504,1190.066 331.50532,1189.5425 330.36068,1189.2097 C 329.21603,1188.8769 328.27951,1188.5161 328.27951,1188.4077 C 328.27951,1188.2994 328.65999,1187.6962 329.12502,1187.0672 L 329.97053,1185.9236 L 328.97347,1183.9127 C 328.4251,1182.8067 327.75125,1181.2555 327.47603,1180.4654 C 327.01645,1179.1461 327.04698,1178.9325 327.85022,1177.846 C 328.61528,1176.8112 328.7005,1176.3415 328.53074,1174.0952 C 328.42401,1172.6828 328.21974,1170.89 328.07682,1170.1111 C 327.89076,1169.097 327.99173,1168.4454 328.43249,1167.8162 C 328.77102,1167.3329 329.048,1166.6185 329.048,1166.2288 C 329.048,1165.839 329.48028,1164.9534 330.00862,1164.2607 C 330.53696,1163.568 330.96923,1162.6286 330.96923,1162.173 C 330.96923,1161.7174 331.1229,1161.3447 331.31071,1161.3447 C 331.49852,1161.3447 331.77069,1160.6963 331.91551,1159.9038 C 332.3277,1157.6481 333.09302,1156.7338 334.56887,1156.7338 C 335.33731,1156.7338 336.10967,1157.0259 336.50952,1157.4677 C 337.34367,1158.3895 338.95818,1158.8157 339.59947,1158.2834 C 340.11848,1157.8527 342.91523,1157.901 342.64762,1158.336 C 342.42749,1158.6939 344.39632,1160.192 345.08678,1160.192 C 345.3977,1160.192 346.28217,1160.6812 347.05226,1161.2791 C 348.05933,1162.0611 348.84191,1162.3496 349.83982,1162.3068 C 351.06277,1162.2544 351.20421,1162.3419 351.03311,1163.0448 C 350.6927,1164.4434 350.13108,1164.8029 348.28668,1164.8029 C 345.93882,1164.8029 345.0037,1165.4736 345.28998,1166.9523 C 345.42974,1167.6741 345.29762,1168.3014 344.91637,1168.7261 C 343.98294,1169.7659 344.59185,1171.983 346.20248,1173.409 C 348.51971,1175.4605 349.02878,1176.6417 349.02878,1179.9667 C 349.02878,1182.0411 348.83692,1183.2608 348.39222,1184.0136 C 347.79126,1185.031 347.80024,1185.2062 348.5531,1187.1469 C 348.9917,1188.2775 349.4364,1189.9508 349.54134,1190.8654 C 349.82414,1193.3299 350.71838,1194.1256 352.96298,1193.9099 L 354.78498,1193.7349 L 353.92953,1195.119 C 353.45902,1195.8803 353.11488,1196.5896 353.16477,1196.6953 C 353.25449,1196.8853 353.05445,1196.938 351.88794,1197.0315 C 351.55847,1197.0579 351.37696,1197.2221 351.48459,1197.3962 C 351.59223,1197.5704 351.29983,1197.7 350.83484,1197.6844 C 350.36652,1197.6686 350.03018,1197.864 350.08084,1198.1224 C 350.13724,1198.41 349.9289,1198.4955 349.5375,1198.3453 C 349.11448,1198.183 348.99449,1198.2502 349.17782,1198.5468 C 349.36323,1198.8468 349.23793,1198.9095 348.79358,1198.739 C 348.37252,1198.5774 348.22663,1198.6355 348.3899,1198.8997 C 348.55537,1199.1674 348.35304,1199.2369 347.81649,1199.0966 C 347.28519,1198.9576 347.07817,1199.0266 347.24012,1199.2887 C 347.40206,1199.5507 347.19503,1199.6197 346.66375,1199.4808 C 346.13246,1199.3419 345.92543,1199.4109 346.08738,1199.6729 C 346.24932,1199.935 346.0423,1200.004 345.51101,1199.865 C 344.89333,1199.7035 344.76136,1199.7768 344.99348,1200.1524 C 345.20072,1200.4877 345.15537,1200.564 344.85801,1200.3802 C 344.27452,1200.0196 342.80507,1200.4885 343.08735,1200.9453 C 343.20733,1201.1394 343.00908,1201.1839 342.64565,1201.0444 C 342.28079,1200.9044 342.08386,1200.9493 342.20475,1201.1449 C 342.3249,1201.3393 342.00745,1201.4984 341.4993,1201.4984 C 340.99115,1201.4984 340.57537,1201.3621 340.57537,1201.1954 L 340.57537,1201.1955 z"/>
<path title="Kanniyakumari" d="M 331.87835,1203.9518 C 331.21601,1203.7654 330.3907,1203.1803 330.04432,1202.6517 C 329.69794,1202.123 329.22639,1201.6905 328.99645,1201.6905 C 328.68798,1201.6905 322.76608,1198.3418 321.8167,1197.6305 C 321.70148,1197.5442 324.21601,1193.9062 325.95775,1191.6393 C 326.38939,1191.0776 326.74253,1190.3529 326.74253,1190.029 C 326.74253,1189.705 326.90953,1189.3368 327.11363,1189.2106 C 327.53472,1188.9504 331.68875,1190.063 332.38961,1190.6238 C 332.64249,1190.8261 333.59046,1191.3672 334.49622,1191.8262 C 335.94132,1192.5585 336.34663,1193.0802 337.80498,1196.0855 C 339.63205,1199.8506 340.17138,1201.6905 339.44799,1201.6905 C 339.19776,1201.6905 339.08447,1201.8384 339.19621,1202.0192 C 339.30796,1202.2001 338.94664,1202.2614 338.39328,1202.1557 C 337.75885,1202.0344 337.47773,1202.1098 337.63229,1202.3599 C 337.76804,1202.5796 337.57928,1202.733 337.20909,1202.7038 C 336.79738,1202.6714 336.53979,1202.9234 336.53817,1203.3603 C 336.53608,1203.9275 336.19006,1204.0915 334.80906,1204.1801 C 333.8595,1204.2409 332.54067,1204.1382 331.87834,1203.9518 L 331.87835,1203.9518 z"/>
<path title="Virudhunagar" d="M 350.51524,1161.804 C 350.10075,1161.5137 349.48764,1161.3813 349.15278,1161.5098 C 348.80093,1161.6448 348.00835,1161.3349 347.27501,1160.7756 C 346.57711,1160.2433 345.75952,1159.8077 345.45816,1159.8077 C 345.15679,1159.8077 344.15102,1159.2042 343.22311,1158.4666 C 341.37424,1156.9969 340.70881,1156.8469 339.60823,1157.6516 C 338.79962,1158.2429 338.07834,1158.0995 336.92504,1157.118 C 336.50237,1156.7583 335.85395,1156.3572 335.48412,1156.2267 C 334.74093,1155.9644 334.60127,1155.3722 335.19593,1155.0047 C 335.40727,1154.874 335.58018,1154.1819 335.58018,1153.4665 C 335.58018,1152.2467 335.7247,1152.1011 337.90635,1151.122 C 339.18574,1150.5478 340.52579,1149.7168 340.88425,1149.2753 C 341.24271,1148.8337 342.1844,1148.1727 342.97691,1147.8063 C 343.78603,1147.4322 344.41783,1146.8636 344.41783,1146.5094 C 344.41783,1145.5171 346.56839,1146.1356 348.58764,1147.7088 C 350.45927,1149.167 350.76821,1149.245 352.3252,1148.6531 C 353.04898,1148.3779 353.75055,1148.3842 354.62757,1148.6736 C 355.69326,1149.0253 356.18918,1148.9526 357.82375,1148.2048 C 359.07026,1147.6346 359.91083,1146.9587 360.18667,1146.3048 C 360.73283,1145.0101 363.29416,1144.1831 364.88492,1144.7879 C 365.4628,1145.0076 365.93559,1145.4309 365.93559,1145.7284 C 365.93559,1146.3547 367.36706,1146.8407 367.68699,1146.3231 C 368.03103,1145.7664 368.62531,1145.9207 368.62531,1146.5668 C 368.62531,1146.8924 368.96492,1147.6272 369.38001,1148.1999 C 370.33805,1149.5215 370.08894,1152.5071 369.02064,1152.5071 C 368.65971,1152.5071 368.16193,1152.9515 367.91444,1153.4946 C 367.59462,1154.1966 367.21559,1154.4501 366.60397,1154.3711 C 364.34436,1154.0791 364.18736,1155.8348 366.31983,1157.5485 C 368.46629,1159.2734 368.32987,1160.2725 365.88658,1160.7215 C 364.69134,1160.9411 364.46353,1160.866 364.28783,1160.1941 C 364.00383,1159.1082 360.86654,1157.7573 359.38445,1158.0828 C 358.76087,1158.2197 358.25067,1158.5419 358.25067,1158.7987 C 358.25067,1159.0555 357.42935,1159.8871 356.42551,1160.6467 C 354.36415,1162.2066 351.80534,1162.7076 350.51524,1161.804 L 350.51524,1161.804 z"/>
<path title="Theni" d="M 334.50638,1150.3524 C 333.75889,1149.2121 333.44783,1149.0481 332.02238,1149.043 C 329.29778,1149.0331 329.28197,1148.9968 329.57603,1143.4186 C 329.81876,1138.8137 329.90011,1138.4253 330.78699,1137.636 C 331.82049,1136.7162 331.99446,1135.6167 331.28601,1134.4823 C 330.92805,1133.9091 330.97309,1133.3956 331.50304,1132.0079 C 332.30493,1129.9082 333.04837,1129.5988 335.38526,1130.3922 C 337.70716,1131.1805 339.95225,1131.1639 340.62439,1130.3534 C 341.80696,1128.9275 345.1596,1128.2312 346.74856,1129.0816 C 347.52069,1129.4948 347.7212,1130.8008 347.15074,1131.7011 C 346.72916,1132.3664 347.73686,1134.4475 348.48055,1134.4475 C 349.26329,1134.4475 349.17472,1134.729 347.87604,1136.3687 C 347.24204,1137.1692 346.7233,1138.0696 346.7233,1138.3694 C 346.7233,1138.6693 346.18717,1139.4225 345.5319,1140.0433 C 344.87663,1140.664 344.18539,1141.5176 343.99583,1141.9403 C 343.53056,1142.9778 342.86045,1144.0234 341.82417,1145.3289 C 341.34867,1145.9279 340.95962,1146.8968 340.95962,1147.4818 C 340.95962,1148.8009 340.18182,1149.5239 337.47476,1150.7211 L 335.36088,1151.6559 L 334.50638,1150.3524 z"/>
<path title="Dingugul" d="M 348.27293,1133.7059 C 347.87138,1133.4441 347.73433,1132.7375 347.79657,1131.25 C 347.87387,1129.4028 347.77415,1129.0897 346.93291,1128.5385 C 346.40983,1128.1958 345.56461,1127.9153 345.05464,1127.9153 C 343.88049,1127.9153 341.38641,1128.9338 340.38325,1129.8228 C 339.72339,1130.4077 339.28888,1130.4546 337.30928,1130.1552 C 336.04127,1129.9634 334.3554,1129.7087 333.56289,1129.5891 C 332.31546,1129.4008 332.12211,1129.2351 332.12301,1128.3553 C 332.12381,1127.5744 332.45758,1127.161 333.56393,1126.5705 C 334.96357,1125.8235 335.00699,1125.7357 335.11745,1123.4298 C 335.22066,1121.2752 335.37046,1120.9051 336.75049,1119.3954 C 337.64435,1118.4175 338.2699,1117.3501 338.2699,1116.8026 C 338.2699,1116.2909 338.53334,1115.581 338.85532,1115.2252 C 339.3475,1114.6814 339.68266,1114.6429 340.95947,1114.9837 C 342.22377,1115.3212 342.59238,1115.2824 343.15982,1114.752 C 345.16051,1112.882 347.05899,1111.3928 347.4423,1111.3928 C 347.68085,1111.3928 347.87604,1111.8039 347.87604,1112.3063 C 347.87604,1113.4475 348.93986,1114.4639 349.38331,1113.7463 C 349.75453,1113.1457 352.78517,1113.0742 353.36345,1113.6525 C 353.92427,1114.2133 356.41063,1114.2041 357.65623,1113.6366 C 358.36632,1113.313 358.63492,1112.8949 358.63492,1112.1131 C 358.63492,1110.8054 359.47747,1110.2861 362.10413,1109.975 L 364.01436,1109.7488 L 364.01436,1111.3166 C 364.01436,1112.1789 363.86105,1112.9792 363.67367,1113.095 C 363.02416,1113.4964 362.80435,1116.0199 363.31785,1117.1799 C 363.59278,1117.801 363.94841,1118.3092 364.10816,1118.3092 C 364.26791,1118.3092 364.3986,1118.7289 364.3986,1119.2419 C 364.3986,1120.2761 366.00415,1121.7674 367.11746,1121.7674 C 368.07589,1121.7674 368.26486,1122.1976 368.47579,1124.8599 C 368.61599,1126.6295 368.48981,1127.51 367.93962,1128.6014 C 367.54386,1129.3864 366.82059,1130.85 366.33232,1131.8539 C 365.26804,1134.0419 364.39864,1134.1994 363.28961,1132.405 C 361.87651,1130.1185 361.18311,1129.7129 359.19646,1130.0108 C 357.92665,1130.2013 356.9828,1130.674 355.87608,1131.6738 C 354.68726,1132.7479 353.87254,1133.1321 352.35173,1133.3358 C 351.26377,1133.4816 350.02782,1133.7072 349.60515,1133.8371 C 349.18248,1133.967 348.58297,1133.9079 348.27292,1133.7058 L 348.27293,1133.7059 z"/>
<path title="Tiruppur" d="M 331.38495,1125.5278 C 330.55229,1124.4918 330.28459,1124.391 328.80658,1124.5576 C 326.9338,1124.7687 326.55997,1124.4834 325.22109,1121.8215 C 324.2943,1119.9789 324.32698,1119.7824 326.21727,1115.8322 C 327.26945,1113.6335 327.36495,1112.453 326.54567,1111.7731 C 326.12128,1111.4209 326.07577,1111.1568 326.37694,1110.7939 C 326.60375,1110.5207 326.73556,1109.9816 326.66986,1109.5961 C 326.56918,1109.0053 326.82201,1108.8932 328.27951,1108.8826 C 330.14568,1108.869 332.39272,1108.0379 333.20219,1107.0618 C 333.62504,1106.5519 333.54157,1106.0431 332.6829,1103.8968 C 332.03588,1102.2795 331.73953,1100.9625 331.87676,1100.3142 C 332.65459,1096.6397 332.66552,1096.7914 331.62337,1096.7914 C 331.01723,1096.7914 330.28941,1096.359 329.68333,1095.6387 C 328.5316,1094.2699 328.43174,1094.2466 328.16078,1095.2827 C 328.0008,1095.8945 327.70047,1096.0506 326.86717,1095.9552 C 325.89441,1095.8437 325.78192,1095.6836 325.78192,1094.4099 C 325.78192,1093.4582 325.54064,1092.8114 325.05128,1092.4513 C 324.54717,1092.0803 324.45782,1091.8288 324.76309,1091.6401 C 325.00644,1091.4897 325.20555,1090.7902 325.20555,1090.0856 C 325.20555,1088.6756 325.6776,1088.338 327.64918,1088.338 C 328.4053,1088.338 329.13231,1088.636 329.54104,1089.1133 C 330.00922,1089.6601 330.4767,1089.8204 331.12719,1089.6571 C 331.82738,1089.4814 332.10725,1089.6076 332.28923,1090.1809 C 332.42901,1090.6213 333.00485,1091.0314 333.67032,1091.1645 C 334.36986,1091.3044 334.81169,1091.6327 334.81169,1092.0125 C 334.81169,1092.5212 335.08325,1092.5864 336.32639,1092.3764 L 337.84109,1092.1205 L 337.95944,1093.9757 L 338.07778,1095.8308 L 342.04634,1095.9407 L 346.01487,1096.0505 L 349.08825,1098.5932 C 351.61864,1100.6866 352.11813,1101.2782 351.91554,1101.9415 C 351.17259,1104.3743 351.22912,1106.0666 352.09232,1107.2342 C 352.76675,1108.1464 352.87389,1108.5831 352.58081,1109.2253 C 352.37433,1109.6777 352.05261,1110.5499 351.86588,1111.1633 C 351.62043,1111.9698 351.13626,1112.4135 350.11808,1112.765 C 348.53246,1113.3124 348.26029,1113.1864 348.26029,1111.9051 C 348.26029,1110.5982 346.74707,1110.7327 345.37844,1112.1613 C 344.77103,1112.7953 343.96058,1113.314 343.57745,1113.314 C 343.19431,1113.314 342.88085,1113.5632 342.88085,1113.8677 C 342.88085,1114.7518 342.19857,1114.939 340.73589,1114.4563 C 339.56993,1114.0715 339.26758,1114.1037 338.63005,1114.6807 C 338.22063,1115.0512 337.88565,1115.8048 337.88565,1116.3554 C 337.88565,1117.0127 337.32477,1117.9352 336.25261,1119.0416 C 334.69762,1120.6461 334.61957,1120.8376 334.61957,1123.0475 C 334.61957,1125.2239 334.54782,1125.4093 333.46683,1126.0261 C 332.32181,1126.6795 332.30787,1126.6761 331.38496,1125.5278 L 331.38495,1125.5278 z"/>
<path title="Coimbatore" d="M 320.78672,1125.6676 C 318.49009,1124.9209 318.49073,1124.9226 318.35603,1119.0988 C 318.23533,1113.8809 318.26662,1113.621 319.22058,1111.9141 C 320.4971,1109.6302 320.50658,1107.9626 319.24974,1106.7818 C 318.7214,1106.2855 318.28913,1105.6537 318.28913,1105.3778 C 318.28913,1105.1019 317.55426,1104.5067 316.65608,1104.0552 C 314.35166,1102.8965 313.67818,1102.2062 313.67818,1101.0029 C 313.67818,1100.0196 313.8105,1099.9374 315.79153,1099.6899 C 318.22574,1099.3858 318.5014,1098.7925 316.79473,1097.5307 C 316.05907,1096.9868 315.60548,1096.2376 315.45008,1095.3098 C 315.3211,1094.5397 315.11327,1093.5374 314.98824,1093.0826 C 314.80022,1092.3985 314.99917,1092.1694 316.1392,1091.7572 C 316.89726,1091.483 317.61636,1090.9472 317.73721,1090.5665 C 318.03116,1089.6403 319.01289,1089.1597 321.58103,1088.685 C 323.17244,1088.3908 323.86405,1088.4062 324.27211,1088.7448 C 324.94914,1089.3067 324.97717,1090.4007 324.34099,1091.4342 C 323.9248,1092.1104 323.98307,1092.3075 324.77751,1092.911 C 325.32623,1093.3279 325.53261,1093.7075 325.29154,1093.8565 C 325.05018,1094.0056 325.0031,1094.5282 325.17405,1095.1602 C 325.43727,1096.1334 325.61081,1096.2157 327.41458,1096.2233 C 328.71896,1096.2288 329.61409,1096.4527 330.10371,1096.8958 C 330.50735,1097.2611 331.12232,1097.5599 331.47028,1097.5599 C 331.99063,1097.5599 332.03642,1097.7349 331.72821,1098.5456 C 331.1537,1100.0567 331.27811,1101.7795 332.12216,1104.0002 C 332.54473,1105.1119 332.89046,1106.2556 332.89046,1106.5416 C 332.89046,1107.2932 329.8002,1108.3732 328.43234,1108.0996 C 327.58765,1107.9307 327.04374,1108.086 326.34392,1108.6961 C 325.67083,1109.2828 325.5422,1109.5805 325.89834,1109.7272 C 326.27392,1109.8819 326.22717,1110.0591 325.71132,1110.4363 C 325.05793,1110.914 325.05691,1110.9759 325.69096,1111.6765 C 326.56488,1112.6422 326.53674,1114.2189 325.61465,1115.9514 C 323.48564,1119.9515 323.49503,1119.8496 325.00894,1122.528 C 325.76186,1123.86 326.33024,1124.9885 326.27202,1125.0357 C 325.16486,1125.9334 322.53559,1126.2363 320.78672,1125.6676 L 320.78672,1125.6676 z"/>
<path title="The Nilgiris" d="M 306.85782,1092.6945 C 305.98378,1092.3418 306.35743,1091.4644 307.91449,1090.2131 C 308.75983,1089.5337 309.45148,1088.8472 309.45148,1088.6875 C 309.45148,1087.6243 302.88249,1082.3338 300.70393,1081.6423 C 299.67529,1081.3159 299.54704,1079.9497 300.51776,1079.6594 C 300.8876,1079.5487 301.62247,1079.2163 302.15081,1078.9207 C 307.70572,1075.8121 309.07003,1075.4418 309.92489,1076.8107 C 310.26386,1077.3534 310.82097,1077.5792 311.82153,1077.5792 C 312.95488,1077.5792 313.42825,1077.822 314.18833,1078.7932 C 315.00727,1079.8396 315.43539,1080.0318 317.28956,1080.1856 C 318.70729,1080.3031 319.64214,1080.1968 320.03154,1079.8736 C 320.52526,1079.4638 320.79724,1079.5508 321.68619,1080.4024 C 322.28566,1080.9767 323.19075,1081.4216 323.75976,1081.4216 C 325.42337,1081.4216 325.53076,1083.878 323.92541,1085.2104 C 323.59998,1085.4804 323.22488,1086.1969 323.09186,1086.8026 C 322.91569,1087.6047 322.56981,1087.957 321.81836,1088.0998 C 321.25095,1088.2076 320.20654,1088.4095 319.49742,1088.5485 C 318.63084,1088.7183 318.00094,1089.1654 317.5762,1089.912 C 317.22864,1090.523 316.71896,1091.024 316.44357,1091.0253 C 316.16819,1091.0267 315.30673,1091.46 314.52921,1091.9884 C 313.3168,1092.8122 312.7043,1092.9447 310.22683,1092.9187 C 308.63804,1092.902 307.12199,1092.8011 306.85782,1092.6945 L 306.85782,1092.6945 z"/>
<path title="Erode" d="M 349.00277,1097.8111 L 346.14693,1095.4466 L 342.30448,1095.2545 L 338.46202,1095.0623 L 338.34549,1093.4626 C 338.21889,1091.7245 337.53962,1091.1589 336.3461,1091.7976 C 335.37929,1092.315 335.31566,1092.2956 335.0846,1091.412 C 334.95186,1090.9044 334.56048,1090.6435 333.93186,1090.6435 C 333.30324,1090.6435 332.91186,1090.3826 332.77912,1089.875 C 332.62663,1089.2919 332.25501,1089.1065 331.23844,1089.1065 C 330.36407,1089.1065 329.81666,1088.8927 329.66248,1088.4909 C 329.47482,1088.0019 328.93313,1087.8951 327.02771,1087.9714 C 323.33452,1088.1195 323.19314,1088.0842 323.49372,1087.0892 C 323.63736,1086.6137 324.2001,1085.7492 324.74424,1085.168 C 325.28837,1084.5868 325.59359,1084.1113 325.42251,1084.1113 C 325.25143,1084.1113 325.33159,1083.8461 325.60066,1083.5219 C 326.35237,1082.6161 325.37546,1081.0374 324.06326,1081.0374 C 322.50181,1081.0374 320.5946,1078.8618 320.5946,1077.0806 C 320.5946,1076.2981 320.73976,1075.6579 320.91717,1075.6579 C 321.09458,1075.6579 321.43669,1075.2257 321.67742,1074.6973 C 322.04087,1073.8996 322.38277,1073.7367 323.69332,1073.7367 C 324.56133,1073.7367 326.37423,1074.0305 327.72197,1074.3897 C 330.14123,1075.0343 330.19963,1075.0313 332.31323,1074.1553 C 334.45711,1073.2667 334.7359,1073.2676 337.77467,1074.1736 L 339.3928,1074.656 L 341.71528,1072.2751 C 343.85129,1070.0854 344.17054,1069.8943 345.69134,1069.8943 C 346.6008,1069.8943 347.68056,1069.6404 348.09078,1069.3301 C 348.501,1069.0198 348.96634,1068.7605 349.12484,1068.7537 C 349.28334,1068.747 349.41302,1069.9307 349.41302,1071.3842 C 349.41302,1073.2119 349.58315,1074.168 349.96469,1074.4847 C 350.86908,1075.2353 351.04947,1077.0534 350.56098,1080.4947 C 350.21597,1082.9252 349.92419,1083.8378 349.40292,1084.1167 C 349.01966,1084.3219 348.50265,1085.1061 348.25402,1085.8594 C 347.84047,1087.1125 347.89279,1087.3603 348.86778,1088.7672 C 349.454,1089.6131 350.24876,1090.4739 350.63393,1090.68 C 351.03137,1090.8927 351.33425,1091.48 351.33425,1092.0379 C 351.33425,1092.6833 351.58702,1093.087 352.0702,1093.2134 C 352.96237,1093.4467 353.36635,1094.8491 353.04099,1096.5834 C 352.85226,1097.5895 352.95236,1097.9514 353.505,1098.2607 C 353.89257,1098.4776 354.12468,1098.7203 354.02077,1098.8002 C 352.04219,1100.3199 352.03009,1100.3176 349.00277,1097.8111 L 349.00277,1097.8111 z"/>
<path title="Salem" d="M 377.8472,1090.4514 C 377.30948,1089.879 376.51828,1089.4908 375.88952,1089.4908 C 375.02167,1089.4908 374.78779,1089.279 374.5724,1088.2984 C 374.34645,1087.2696 374.50428,1086.9075 375.72276,1085.6597 C 376.8816,1084.4729 377.11272,1083.9802 377.0108,1082.9136 C 376.91295,1081.8895 376.69643,1081.5868 375.99035,1081.4868 C 375.49741,1081.417 374.80577,1081.6123 374.45336,1081.9208 C 374.10095,1082.2293 373.24756,1082.7679 372.55692,1083.1178 C 371.37309,1083.7176 371.28648,1083.7147 371.04375,1083.0681 C 370.74513,1082.2726 369.78613,1081.4515 369.1351,1081.4338 C 368.88714,1081.4271 368.11904,1081.8971 367.42822,1082.4783 C 366.31605,1083.4139 365.85956,1083.535 363.44345,1083.535 C 361.45358,1083.535 360.42621,1083.724 359.64912,1084.2331 C 358.83591,1084.7659 358.45887,1084.8278 358.0574,1084.4946 C 357.69032,1084.19 357.31038,1084.1762 356.80038,1084.4492 C 356.39837,1084.6643 355.69475,1084.7424 355.23678,1084.6226 C 354.77881,1084.5029 354.16107,1084.6066 353.86401,1084.8531 C 353.49455,1085.1598 353.24522,1085.1741 353.07489,1084.8985 C 352.93793,1084.6769 352.22069,1084.4956 351.48102,1084.4956 C 350.74135,1084.4956 350.23301,1084.3389 350.35139,1084.1473 C 350.75115,1083.5005 351.37663,1078.9376 351.33073,1077.0028 C 351.29933,1075.679 351.05382,1074.8349 350.54121,1074.2883 C 350.03383,1073.7473 349.79914,1072.9531 349.80315,1071.7907 C 349.81187,1069.2661 350.10173,1068.9961 352.06131,1069.6875 C 354.95074,1070.707 359.27107,1071.0631 360.83285,1070.4105 C 361.58327,1070.097 363.62968,1069.7804 365.38042,1069.7069 C 368.13298,1069.5915 368.65381,1069.6731 369.23038,1070.3102 C 369.5971,1070.7154 370.18159,1071.047 370.52924,1071.047 C 371.55928,1071.047 372.09508,1071.8074 371.61109,1072.5824 C 371.38155,1072.9499 371.30206,1073.5329 371.43444,1073.8779 C 371.74448,1074.6859 374.00474,1074.7506 374.00474,1073.9515 C 374.00474,1073.0663 374.76389,1072.8406 375.50013,1073.5069 C 375.8733,1073.8446 376.45318,1074.121 376.78876,1074.121 C 377.12434,1074.121 377.47719,1074.3371 377.57285,1074.6013 C 377.70716,1074.9721 377.91932,1074.9801 378.50381,1074.6365 C 378.97084,1074.362 379.46844,1074.3229 379.80281,1074.5346 C 380.63413,1075.0608 380.9028,1074.9659 381.34805,1073.9887 C 381.65644,1073.3119 381.98871,1073.132 382.68467,1073.265 C 383.81183,1073.4805 383.87181,1074.2443 382.84239,1075.2737 C 381.93641,1076.1797 381.83234,1078.0531 382.65027,1078.7319 C 382.96727,1078.995 383.22664,1079.4484 383.22664,1079.7396 C 383.22664,1080.3906 384.3883,1080.4234 385.73367,1079.8104 C 386.86475,1079.2951 387.43661,1079.781 387.44746,1081.2665 C 387.4507,1081.7096 387.7317,1082.63 388.07191,1083.312 C 388.66129,1084.4934 388.65221,1084.5876 387.87979,1085.3072 C 387.40761,1085.7471 387.0691,1086.5376 387.0691,1087.2003 C 387.0691,1088.4814 386.68204,1088.6057 385.36975,1087.7458 C 384.55201,1087.21 384.40692,1087.2127 383.84629,1087.7733 C 383.5055,1088.1141 383.22633,1088.5967 383.22595,1088.8458 C 383.22513,1089.3815 380.13044,1091.412 379.31481,1091.412 C 379.00397,1091.412 378.34355,1090.9797 377.8472,1090.4514 z"/>
<path title="Dharmapuri" d="M 372.22899,1072.9132 C 372.49657,1071.5754 371.97515,1070.6627 370.94328,1070.6627 C 370.57925,1070.6627 369.96843,1070.3169 369.58592,1069.8943 C 369.00353,1069.2507 368.40245,1069.1258 365.88946,1069.1258 C 364.14396,1069.1258 362.12769,1069.3841 361.06996,1069.7432 C 359.7563,1070.1892 358.62315,1070.2895 356.98834,1070.1045 C 354.55012,1069.8287 349.79727,1068.4868 349.79727,1068.0743 C 349.79727,1067.9356 350.25218,1067.1658 350.80817,1066.3635 C 351.63945,1065.1639 351.78514,1064.6036 351.62808,1063.2102 C 351.46025,1061.7212 351.54738,1061.4566 352.34628,1061.0291 C 352.9085,1060.7282 353.25548,1060.1961 353.25548,1059.6348 C 353.25548,1058.7106 353.39605,1058.6113 355.2946,1058.1941 C 356.15766,1058.0044 356.32457,1057.8041 356.13012,1057.1915 C 355.93646,1056.5813 356.13298,1056.3402 357.09854,1056.0036 C 358.06091,1055.6681 358.26974,1055.4135 358.11441,1054.7647 C 358.00688,1054.3155 357.80078,1053.2964 357.65641,1052.4999 L 357.39393,1051.0517 L 358.46123,1051.4575 C 359.13936,1051.7153 359.66238,1051.7294 359.89556,1051.4963 C 360.09742,1051.2944 360.84736,1051.2241 361.56209,1051.3401 C 362.39684,1051.4756 362.86162,1051.3956 362.86162,1051.1165 C 362.86162,1050.8775 363.07805,1050.682 363.34259,1050.682 C 364.05099,1050.682 365.55364,1053.752 365.55241,1055.1969 C 365.55174,1055.9597 365.74386,1056.4457 366.04609,1056.4457 C 366.62808,1056.4457 369.95669,1059.8137 370.26932,1060.719 C 370.38764,1061.0616 370.97297,1061.4646 371.57003,1061.6144 C 372.98572,1061.9697 373.6205,1062.5211 373.6205,1063.3956 C 373.6205,1064.8233 376.2185,1065.3818 377.77821,1064.2893 C 378.47348,1063.8024 378.76286,1063.7744 379.21578,1064.1502 C 379.67012,1064.5273 379.9211,1064.4958 380.47832,1063.9915 C 381.55044,1063.0212 382.36535,1063.2176 382.65027,1064.5148 C 382.85018,1065.425 383.10791,1065.6675 383.87519,1065.6675 C 384.75147,1065.6675 384.81761,1065.7713 384.54842,1066.7242 C 384.21184,1067.9157 384.22064,1068.7735 384.5875,1070.5325 C 384.8,1071.5514 384.6953,1071.8269 383.93767,1072.2421 C 383.44093,1072.5144 382.63295,1072.6887 382.14214,1072.6294 C 381.52147,1072.5545 381.18913,1072.7535 381.05064,1073.2831 C 380.76688,1074.3682 378.40777,1074.1926 375.66371,1072.8823 C 374.65015,1072.3983 373.6205,1072.726 373.6205,1073.5325 C 373.6205,1073.8763 373.28105,1074.121 372.80398,1074.121 C 372.0934,1074.121 372.01879,1073.9642 372.229,1072.9132 L 372.22899,1072.9132 z"/>
<path title="Krishnagiri" d="M 374.67717,1064.0998 C 374.30734,1063.8844 374.00474,1063.3921 374.00474,1063.0058 C 374.00474,1062.1372 373.3676,1061.5849 371.95728,1061.2309 C 371.36187,1061.0815 370.73461,1060.5921 370.56335,1060.1434 C 370.3921,1059.6946 369.28078,1058.4099 368.09378,1057.2885 C 366.67979,1055.9525 365.93559,1054.9424 365.93559,1054.3589 C 365.93559,1053.3739 364.13677,1049.9135 363.62471,1049.9135 C 363.44655,1049.9135 363.01846,1050.1958 362.67343,1050.5408 C 362.1719,1051.0423 361.86092,1051.0838 361.12272,1050.7474 C 360.47977,1050.4545 360.12347,1050.4495 359.9495,1050.731 C 359.80017,1050.9726 359.15502,1051.0331 358.34607,1050.8813 L 356.9925,1050.6274 L 357.25052,1052.9081 C 357.50689,1055.174 357.50112,1055.1918 356.35455,1055.6668 C 355.53154,1056.0077 355.22467,1056.3767 355.28468,1056.9534 C 355.34955,1057.5767 355.10463,1057.8098 354.21609,1057.9702 C 353.32639,1058.1309 353.03677,1058.4072 352.94682,1059.1809 C 352.87261,1059.8194 352.46929,1060.3479 351.83623,1060.6363 C 350.99414,1061.02 350.71825,1060.9764 350.03154,1060.3507 C 349.58569,1059.9445 347.88084,1059.2203 346.243,1058.7414 C 344.60515,1058.2625 343.26509,1057.7441 343.26509,1057.5893 C 343.26509,1057.4346 344.36168,1056.3452 345.70194,1055.1686 L 348.1388,1053.0291 L 347.7762,1050.6067 C 347.11075,1046.161 347.18672,1045.2979 348.31883,1044.442 C 349.0672,1043.8762 349.98604,1043.6585 351.77704,1043.6225 L 354.21609,1043.5734 L 354.65461,1041.3524 C 354.89579,1040.1308 355.31328,1038.5998 355.58236,1037.9502 C 356.0279,1036.8745 356.19167,1036.7886 357.41673,1036.9874 C 358.15708,1037.1075 359.29479,1037.7172 359.94719,1038.3433 C 360.88822,1039.2465 361.36239,1039.4358 362.24783,1039.2618 C 362.98191,1039.1175 363.90132,1039.3177 364.93755,1039.8474 C 365.80348,1040.29 367.29717,1040.9301 368.25688,1041.2698 C 369.59888,1041.7448 370.23423,1042.2722 371.00837,1043.5539 C 371.71885,1044.7301 372.42058,1045.3542 373.394,1045.6754 L 374.77307,1046.1306 L 374.53113,1048.7338 C 374.31318,1051.0788 374.36775,1051.392 375.08124,1051.8918 C 375.51688,1052.1969 376.09777,1053.1658 376.37213,1054.0448 C 376.86248,1055.616 376.90371,1055.645 378.8,1055.7562 C 380.64961,1055.8646 380.73384,1055.9185 380.84555,1057.0658 C 380.91512,1057.7803 381.41816,1058.6993 382.09435,1059.3471 C 383.62289,1060.8115 383.65958,1062.4877 382.16996,1062.8016 C 381.58879,1062.9241 380.83062,1063.1757 380.48514,1063.3609 C 380.13965,1063.546 379.49154,1063.602 379.04489,1063.4852 C 378.59824,1063.3684 377.80631,1063.5523 377.28503,1063.8938 C 376.19749,1064.6064 375.62465,1064.6516 374.67717,1064.0998 L 374.67717,1064.0998 z"/>
<path title="Vellore" d="M 382.52513,1059.0145 C 382.06562,1058.5254 381.68966,1057.6954 381.68966,1057.1702 C 381.68966,1055.7802 380.99327,1055.2929 379.00698,1055.2929 C 377.25657,1055.2929 377.24361,1055.2832 376.74421,1053.5918 C 376.46796,1052.6562 375.99793,1051.7971 375.69971,1051.6827 C 375.3247,1051.5387 375.15748,1050.8288 375.15748,1049.3806 C 375.15748,1046.6849 375.41519,1046.071 376.54695,1046.071 C 377.0546,1046.071 378.01275,1045.5523 378.67618,1044.9183 C 379.33961,1044.2843 380.0729,1043.7582 380.30572,1043.7492 C 380.53855,1043.7402 381.40943,1042.8511 382.24101,1041.7735 C 383.42816,1040.2351 383.81984,1039.3252 384.06421,1037.5383 C 384.31855,1035.6785 384.66105,1034.9238 385.93803,1033.4094 C 387.52874,1031.5229 388.50534,1031.0854 391.12581,1031.0854 C 392.05928,1031.0854 392.46151,1031.2895 392.64066,1031.8539 C 392.77481,1032.2766 393.03348,1032.6224 393.21547,1032.6224 C 393.39747,1032.6224 393.85015,1032.925 394.22143,1033.2949 C 394.68965,1033.7613 395.61047,1033.9941 397.22678,1034.055 C 398.50845,1034.1032 400.681,1034.2364 402.05468,1034.3511 C 406.45542,1034.7183 406.82277,1034.6817 408.89138,1033.6703 C 410.34256,1032.9608 411.29151,1032.7355 412.20468,1032.8837 C 412.93136,1033.0016 413.59492,1032.9125 413.74022,1032.6774 C 413.88512,1032.4429 414.4861,1032.3614 415.12592,1032.4893 C 416.06146,1032.6764 416.48623,1032.4848 417.596,1031.375 C 418.82089,1030.1501 419.00347,1030.0819 419.71736,1030.5819 C 420.14697,1030.8828 420.49847,1031.4439 420.49847,1031.8287 C 420.49847,1032.2135 420.75783,1032.7436 421.07484,1033.0067 C 422.13346,1033.8853 421.72675,1034.8969 419.83175,1036.0987 C 418.83105,1036.7333 417.78807,1037.6805 417.51401,1038.2036 C 417.23995,1038.7266 416.76795,1039.1546 416.46514,1039.1546 C 416.16233,1039.1546 415.72948,1039.5004 415.50328,1039.9231 C 415.26786,1040.363 414.69873,1040.6916 414.17234,1040.6916 C 412.89269,1040.6916 412.19515,1041.52 411.89519,1043.3958 C 411.57032,1045.4275 410.71936,1047.0836 409.72767,1047.6144 C 408.70495,1048.1617 408.08925,1047.7693 408.56779,1046.8751 C 408.85863,1046.3317 408.70216,1046.0167 407.8159,1045.3615 C 407.20036,1044.9064 406.55474,1044.534 406.38118,1044.534 C 406.20763,1044.534 405.86982,1044.0153 405.63051,1043.3813 C 405.19508,1042.2277 403.91092,1041.7854 403.39954,1042.6128 C 403.26892,1042.8241 402.85892,1042.9971 402.48842,1042.9971 C 401.35957,1042.9971 398.71219,1044.4578 397.84648,1045.5584 C 397.15919,1046.4321 396.76808,1046.5838 395.38624,1046.5123 C 394.48257,1046.4655 393.30296,1046.6556 392.76489,1046.9348 C 391.23526,1047.7283 389.37457,1049.6462 389.37457,1050.4293 C 389.37457,1050.82 389.06025,1051.5987 388.67608,1052.1596 C 388.2919,1052.7206 387.5013,1054.3035 386.91916,1055.6772 C 385.84166,1058.2198 384.60007,1059.9039 383.80301,1059.9039 C 383.55969,1059.9039 382.98464,1059.5037 382.52513,1059.0145 L 382.52513,1059.0145 z"/>
<path title="Tiruvannamalai" d="M 384.95521,1067.2085 C 385.20729,1065.3756 385.17321,1065.2739 384.17974,1064.8962 C 383.35309,1064.5819 383.18761,1064.3257 383.37049,1063.6434 C 383.49693,1063.1717 383.60276,1062.2237 383.60564,1061.5369 C 383.60892,1060.7586 383.80282,1060.2881 384.12028,1060.2881 C 384.40044,1060.2881 384.98068,1059.8991 385.40971,1059.4236 C 386.17359,1058.5769 390.13661,1050.7563 390.1497,1050.0696 C 390.15967,1049.5467 391.70876,1048.1896 393.13167,1047.4571 C 393.97658,1047.0221 394.8168,1046.8886 395.68413,1047.0513 C 396.82194,1047.2647 397.12628,1047.1299 398.22051,1045.9274 C 399.3879,1044.6445 401.68587,1043.5003 402.69813,1043.6978 C 402.94638,1043.7463 403.25916,1043.6084 403.39324,1043.3915 C 403.83968,1042.6692 405.03872,1042.9707 405.26245,1043.8616 C 405.38187,1044.3371 406.08343,1045.0512 406.82149,1045.4485 C 407.9928,1046.0791 408.13537,1046.3111 407.94286,1047.2737 C 407.74727,1048.2517 407.83055,1048.3765 408.67913,1048.3765 C 410.40148,1048.3765 411.50227,1047.0869 412.25398,1044.1887 C 412.7866,1042.1352 413.13261,1041.465 413.7451,1041.3005 C 415.25621,1040.8947 416.26652,1041.0779 416.74518,1041.8443 C 417.00915,1042.267 417.51954,1042.6128 417.87939,1042.6128 C 418.69859,1042.6128 419.72998,1044.0427 419.72998,1045.1784 C 419.72998,1045.6501 419.2977,1046.4684 418.76936,1046.9967 C 417.57428,1048.1918 417.46088,1049.9135 418.57724,1049.9135 C 419.26798,1049.9135 419.34573,1050.1696 419.34573,1052.4455 C 419.34573,1054.6015 419.21732,1055.0847 418.48118,1055.6988 C 417.3788,1056.6185 416.70037,1056.6135 415.50328,1055.6772 C 414.75795,1055.0942 413.92926,1054.9238 411.80573,1054.9172 C 409.8829,1054.9112 408.53075,1054.6707 407.25998,1054.1085 C 405.53876,1053.3472 405.41546,1053.3408 404.71354,1053.976 C 404.30785,1054.3431 403.97591,1054.8637 403.97591,1055.1329 C 403.97591,1055.4021 403.68666,1055.9115 403.33314,1056.265 C 402.73227,1056.8659 402.73391,1056.9887 403.35826,1058.148 C 403.99342,1059.3274 403.99294,1059.4578 403.34827,1060.8097 C 402.69721,1062.175 402.6985,1062.2788 403.38078,1063.4338 L 404.09118,1064.6364 L 402.14086,1066.4968 C 400.02201,1068.5181 399.16996,1068.7904 398.78264,1067.57 C 398.64153,1067.1254 398.25395,1066.8237 397.89219,1066.8768 C 397.53987,1066.9286 396.58889,1066.8401 395.77891,1066.6801 C 394.70048,1066.4672 394.06117,1066.5499 393.39089,1066.989 C 392.84969,1067.3436 391.63574,1067.5888 390.42088,1067.5888 C 389.15254,1067.5888 387.75743,1067.8829 386.77559,1068.3573 C 385.90076,1068.7799 385.07396,1069.1258 384.93825,1069.1258 C 384.80254,1069.1258 384.81017,1068.263 384.9552,1067.2085 L 384.95521,1067.2085 z"/>
<path title="Perambalur" d="M 387.5494,1098.7007 C 386.85949,1098.4234 386.68485,1098.0497 386.68485,1096.8508 C 386.68485,1094.6748 385.72527,1092.6279 384.56916,1092.3377 C 383.73923,1092.1294 383.61167,1091.884 383.61677,1090.5058 C 383.6248,1088.3333 384.10934,1087.6089 385.13093,1088.242 C 385.55718,1088.5061 386.2541,1088.7223 386.67964,1088.7223 C 387.27894,1088.7223 387.45334,1088.4687 387.45334,1087.597 C 387.45334,1086.9781 387.74157,1086.1835 388.09384,1085.8312 C 388.69167,1085.2334 388.85164,1085.3234 390.49537,1087.1822 C 392.23138,1089.1454 392.29055,1089.1751 394.65739,1089.2722 C 396.24006,1089.3371 397.29804,1089.5876 397.76161,1090.0071 C 398.21902,1090.421 399.13708,1090.6435 400.38785,1090.6435 C 401.4455,1090.6435 402.41427,1090.747 402.54069,1090.8734 C 402.66713,1090.9998 402.01988,1092.0248 401.1024,1093.1513 C 400.18491,1094.2777 399.31234,1095.6007 399.16332,1096.0914 C 398.6324,1097.8397 397.49898,1098.6718 395.96438,1098.4401 C 395.193,1098.3236 394.39762,1098.078 394.19685,1097.8941 C 393.60691,1097.354 392.55486,1097.5064 391.20902,1098.327 C 389.8545,1099.1529 388.91338,1099.249 387.5494,1098.7007 z"/>
<path title="Ariyalur" d="M 395.24084,1107.8385 C 395.33247,1107.5743 395.17397,1106.688 394.8886,1105.869 C 394.09402,1103.5883 394.23097,1102.7063 395.5225,1101.7866 C 396.15651,1101.3352 396.67524,1100.7506 396.67524,1100.4875 C 396.67524,1100.2244 397.21383,1099.5013 397.8721,1098.8806 C 398.53036,1098.2599 399.37399,1097.0517 399.7468,1096.1957 C 400.11962,1095.3397 401.05076,1093.9755 401.81602,1093.1641 C 402.58129,1092.3526 403.20741,1091.4752 403.20741,1091.2142 C 403.20741,1090.7839 404.8146,1090.2593 406.13247,1090.2593 C 406.42039,1090.2593 407.0926,1090.9509 407.62624,1091.7963 C 408.15988,1092.6416 408.82689,1093.3332 409.10849,1093.3332 C 410.59813,1093.3332 411.47513,1096.2137 410.28598,1097.2006 C 409.95249,1097.4773 409.27056,1098.4927 408.77058,1099.457 C 408.27061,1100.4213 406.87261,1102.0748 405.66394,1103.1315 C 403.07421,1105.3955 402.13882,1105.9813 401.0835,1105.9997 C 400.65501,1106.0072 399.87692,1106.3159 399.35439,1106.6858 C 398.45016,1107.3258 396.07768,1108.3007 395.39442,1108.313 C 395.2183,1108.3162 395.14919,1108.1027 395.24083,1107.8385 L 395.24084,1107.8385 z"/>
<path title="Tiruchinappalli" d="M 369.17473,1125.3217 C 369.00841,1124.7405 368.85998,1123.7672 368.84488,1123.1588 C 368.81737,1122.0505 368.58001,1121.8268 366.60236,1121.0456 C 365.02086,1120.4209 364.50853,1119.0181 365.41007,1117.7811 C 365.80478,1117.2395 366.31124,1116.7909 366.53556,1116.7843 C 367.37975,1116.7593 368.62531,1115.1755 368.62531,1114.1271 C 368.62531,1112.9481 370.02794,1111.3436 370.47393,1112.0125 C 370.96613,1112.7506 372.16726,1112.9426 374.68121,1112.685 C 376.65546,1112.4828 377.44451,1112.2009 378.4105,1111.3527 C 380.47913,1109.5364 381.29743,1104.8995 379.79006,1103.5353 C 378.88021,1102.7119 373.49853,1102.0035 372.44331,1102.5682 C 370.90269,1103.3927 367.20124,1102.7204 366.81424,1101.5458 C 366.56016,1100.7746 367.8141,1100.6452 368.99612,1101.3207 C 370.35853,1102.0993 371.39316,1101.6736 371.69927,1100.2086 C 371.89561,1099.2689 372.46611,1098.2713 374.50743,1095.2982 C 375.27084,1094.1864 375.72569,1092.977 375.84417,1091.744 C 375.94293,1090.716 376.1232,1089.875 376.24475,1089.875 C 376.36631,1089.875 377.04666,1090.437 377.75665,1091.1238 L 379.04755,1092.3726 L 380.94518,1091.3159 C 381.98887,1090.7348 382.91821,1090.2593 383.01037,1090.2593 C 383.10255,1090.2593 383.23213,1090.8212 383.29836,1091.5081 C 383.39093,1092.4682 383.62006,1092.7854 384.28968,1092.8805 C 385.347,1093.0306 386.30061,1095.0763 386.30061,1097.1945 C 386.30061,1098.4507 386.4711,1098.7414 387.51238,1099.2609 C 389.13384,1100.0698 389.51001,1100.0321 391.33867,1098.8777 C 392.8381,1097.9312 392.9562,1097.9152 394.17488,1098.4935 C 394.87429,1098.8254 395.70679,1099.0969 396.02491,1099.0969 C 396.97394,1099.0969 396.34575,1100.5009 394.90505,1101.5998 C 393.45572,1102.7053 393.26195,1103.7379 394.17527,1105.4891 C 394.49097,1106.0944 394.75034,1107.0652 394.75164,1107.6464 C 394.75361,1108.5248 394.58792,1108.7031 393.76953,1108.7031 C 393.22806,1108.7031 391.93232,1108.982 390.8901,1109.3229 C 389.16581,1109.8869 388.95625,1110.0858 388.56325,1111.5323 C 388.32571,1112.4066 388.00911,1113.5497 387.85969,1114.0726 C 387.67128,1114.732 387.18462,1115.1305 386.27188,1115.373 C 384.65053,1115.8037 381.76746,1115.7685 381.17108,1115.3108 C 380.92796,1115.1242 379.99384,1115.049 379.09526,1115.1438 C 377.72184,1115.2886 377.18773,1115.6206 375.74373,1117.2266 C 374.08206,1119.0748 374.04591,1119.1675 374.63593,1120.068 C 375.13223,1120.8255 375.56901,1120.9989 376.98053,1120.9989 L 378.7152,1120.9989 L 377.37051,1122.632 C 376.28301,1123.9527 375.74499,1124.2887 374.55767,1124.3886 C 373.70872,1124.4601 372.62189,1124.9058 371.98068,1125.4453 C 370.50444,1126.6875 369.55358,1126.6456 369.17472,1125.3217 L 369.17473,1125.3217 z"/>
<path title="Karur" d="M 363.75488,1116.9456 C 363.3967,1116.1735 363.42151,1115.6252 363.87479,1114.2948 C 364.18912,1113.3723 364.39235,1111.8665 364.3264,1110.9485 L 364.20648,1109.2794 L 362.57344,1109.2555 C 361.67526,1109.2423 360.94039,1109.372 360.94039,1109.5437 C 360.94039,1109.7153 360.5427,1109.8558 360.05663,1109.8558 C 358.95552,1109.8558 358.25067,1110.5307 358.25067,1111.5849 C 358.25067,1112.0287 358.04318,1112.5993 357.78958,1112.8529 C 357.2404,1113.4021 354.46197,1113.4615 353.12366,1112.9527 C 352.23918,1112.6164 352.19936,1112.49 352.54902,1111.1275 C 352.75564,1110.3224 353.01621,1109.2907 353.12804,1108.8349 C 353.25462,1108.319 352.99912,1107.5567 352.45134,1106.8158 L 351.57128,1105.6255 L 352.2853,1102.8415 C 353.05564,1099.8379 353.4236,1099.3385 354.45831,1099.8922 C 354.82565,1100.0888 356.91494,1100.2497 359.1012,1100.2497 C 362.63542,1100.2497 363.13764,1100.3349 363.63011,1101.0181 C 363.93476,1101.4408 364.60773,1101.7866 365.1256,1101.7866 C 365.64347,1101.7866 366.40174,1102.0892 366.81062,1102.4591 C 367.44059,1103.0289 368.35422,1103.1334 372.79669,1103.1436 C 375.68015,1103.1503 378.41908,1103.2887 378.88324,1103.4512 C 380.07627,1103.8688 380.4231,1106.4441 379.56465,1108.5109 C 378.51342,1111.0419 377.59801,1111.777 375.49742,1111.777 C 374.49006,1111.777 373.57332,1111.9267 373.46022,1112.1097 C 373.21527,1112.5061 371.39327,1112.2145 371.09455,1111.7311 C 370.3879,1110.5878 368.24106,1112.1124 368.24106,1113.7576 C 368.24106,1114.7258 366.83777,1116.388 366.0204,1116.388 C 365.7773,1116.388 365.3933,1116.7338 365.16709,1117.1565 C 364.62448,1118.1703 364.30067,1118.122 363.75488,1116.9456 L 363.75488,1116.9456 z"/>
<path title="Namakkal" d="M 364.01436,1100.5877 C 363.51189,1099.91 362.86065,1099.782 358.93534,1099.5892 C 356.11349,1099.4507 354.52047,1099.2261 354.66784,1098.9877 C 354.79718,1098.7784 354.52065,1098.3188 354.05335,1097.9663 C 353.30767,1097.4039 353.25962,1097.2028 353.66057,1096.3228 C 354.20798,1095.1213 353.48524,1093.0737 352.39119,1092.7265 C 352.02122,1092.609 351.7185,1092.1929 351.7185,1091.8018 C 351.7185,1090.7275 351.30725,1089.875 350.78903,1089.875 C 350.09838,1089.875 348.64367,1087.7293 348.65041,1086.7206 C 348.66121,1085.1048 349.16898,1084.756 351.09069,1085.0442 C 352.06013,1085.1895 352.9592,1085.4798 353.08861,1085.6892 C 353.24243,1085.9381 353.49061,1085.9315 353.80544,1085.6702 C 354.07029,1085.4504 355.37661,1085.246 356.70837,1085.2159 C 358.04014,1085.1858 359.58038,1084.926 360.13114,1084.6386 C 360.69331,1084.3453 362.303,1084.115 363.80121,1084.1137 C 366.15639,1084.1116 366.59358,1083.9929 367.5226,1083.1028 C 368.73978,1081.9367 370.32127,1082.0557 370.65677,1083.3386 C 370.93942,1084.4195 371.87997,1084.3032 373.90407,1082.9371 C 376.81967,1080.9694 377.79552,1082.5061 375.3496,1085.2135 C 374.32871,1086.3435 374.00474,1087.0409 374.00474,1088.1085 C 374.00474,1089.0042 374.21405,1089.5952 374.58111,1089.7361 C 374.98238,1089.89 375.15748,1090.5161 375.15748,1091.7967 C 375.15748,1093.3102 374.95319,1093.8549 374.00474,1094.8702 C 373.37074,1095.5489 372.85201,1096.322 372.85201,1096.5881 C 372.85201,1096.8543 372.50619,1097.5117 372.08352,1098.049 C 371.66085,1098.5864 371.31503,1099.3666 371.31503,1099.7829 C 371.31503,1100.1992 371.05652,1100.7543 370.74058,1101.0166 C 370.27791,1101.4005 369.98148,1101.3723 369.21712,1100.8715 C 368.16669,1100.1832 367.05186,1100.0683 366.49274,1100.5907 C 365.67055,1101.3589 364.58512,1101.3576 364.01436,1100.5877 L 364.01436,1100.5877 z"/>
<path title="Sivagangai" d="M 377.8472,1151.4628 C 377.31886,1151.3688 376.24927,1150.6764 375.47033,1149.9243 C 374.18408,1148.6824 373.90539,1148.5767 372.43462,1148.774 C 371.0846,1148.9551 370.69907,1148.8522 370.11727,1148.1555 C 369.73342,1147.6958 369.41096,1147.0604 369.4007,1146.7434 C 369.36103,1145.5184 368.78527,1145.0938 367.84569,1145.5966 C 367.08842,1146.0019 366.8845,1145.9557 366.3559,1145.2596 C 366.01906,1144.816 365.20673,1144.3466 364.55073,1144.2165 C 363.44399,1143.9971 363.37652,1143.8926 363.61508,1142.768 C 363.87878,1141.5249 364.13304,1141.4348 365.99014,1141.9263 C 366.82221,1142.1464 367.1341,1142.0076 367.71925,1141.1563 C 369.04626,1139.2259 370.13777,1138.2757 371.29383,1138.0445 C 372.51211,1137.8008 373.05862,1136.8566 372.6771,1135.6545 C 372.54624,1135.2422 372.69771,1134.735 373.03545,1134.4547 C 373.91114,1133.728 373.75042,1133.0322 372.4364,1131.8614 C 371.20301,1130.7625 371.17203,1130.4929 371.91657,1127.339 C 372.24918,1125.93 373.31985,1124.8414 374.37292,1124.8414 C 375.29706,1124.8414 375.4064,1125.4324 374.56896,1125.901 C 374.24527,1126.0822 373.87943,1126.8529 373.75597,1127.6136 C 373.55555,1128.8488 373.64943,1129.0595 374.63268,1129.5814 C 375.70393,1130.1501 375.77371,1130.1276 377.20127,1128.7525 L 378.66867,1127.339 L 379.60281,1128.4171 C 380.15096,1129.0497 380.53692,1129.9779 380.53692,1130.6636 C 380.53692,1131.8239 380.54954,1131.8309 382.36209,1131.6709 C 383.36593,1131.5823 384.48745,1131.3752 384.85434,1131.2105 C 385.35662,1130.9851 385.61021,1131.1447 385.88073,1131.8562 C 386.15958,1132.5897 386.59759,1132.8492 387.83712,1133.0154 C 388.71552,1133.1333 389.73701,1133.5037 390.10708,1133.8386 C 390.47715,1134.1735 391.05042,1134.4475 391.38101,1134.4475 C 392.02441,1134.4475 392.44854,1135.2161 392.44854,1136.3821 C 392.44854,1137.6091 391.59005,1139.0585 390.86325,1139.0585 C 389.71349,1139.0585 387.56273,1141.2368 387.29302,1142.6744 C 386.95738,1144.4636 386.04569,1144.7487 385.69956,1143.1728 C 385.196,1140.8801 384.44632,1140.1593 382.69934,1140.2879 L 381.13301,1140.4033 L 381.02766,1142.966 C 380.92318,1145.508 380.93284,1145.5352 382.22661,1146.3348 C 383.478,1147.1082 384.26802,1148.6807 383.79209,1149.4508 C 383.66749,1149.6524 382.88808,1149.8173 382.06009,1149.8173 C 380.87828,1149.8173 380.41932,1150.0239 379.92522,1150.778 C 379.57905,1151.3063 379.186,1151.715 379.05181,1151.6862 C 378.91761,1151.6575 378.37554,1151.5569 377.8472,1151.4629 L 377.8472,1151.4628 z"/>
<path title="Madurai" d="M 348.32647,1146.881 C 346.4216,1145.4029 344.19017,1145.1009 343.76137,1146.2631 C 343.27301,1147.5867 341.72811,1147.9969 341.72811,1146.8029 C 341.72811,1146.413 342.09377,1145.7646 342.5407,1145.362 C 342.98762,1144.9594 343.51378,1144.2842 343.70993,1143.8615 C 344.40201,1142.3703 345.09997,1141.3037 346.05186,1140.2828 C 346.58115,1139.7151 347.29503,1138.6454 347.63825,1137.9057 C 347.98147,1137.1661 348.85821,1135.9125 349.58656,1135.1199 C 350.74432,1133.8602 351.13057,1133.679 352.65842,1133.679 C 354.13504,1133.679 354.65085,1133.4578 355.98522,1132.2523 C 357.36761,1131.0034 357.8104,1130.8238 359.5379,1130.8114 C 361.47696,1130.7974 361.53149,1130.8288 362.66679,1132.6138 C 364.23316,1135.0764 365.28645,1135.0022 366.63797,1132.3342 C 367.17324,1131.2775 367.75397,1130.1536 367.92849,1129.8366 C 368.10301,1129.5196 368.53612,1128.6982 368.89097,1128.0114 C 369.33515,1127.1516 369.81136,1126.7626 370.41969,1126.7626 C 371.26733,1126.7626 371.29373,1126.8537 371.06912,1129.0025 C 370.85037,1131.0954 370.90121,1131.2945 371.84351,1132.0357 C 372.88704,1132.8566 373.1514,1133.8329 372.44787,1134.2677 C 372.22558,1134.4051 372.0959,1135.0621 372.15968,1135.7277 C 372.26715,1136.8494 372.12807,1137.0063 370.25835,1137.8724 C 369.14884,1138.3864 368.24106,1139.0131 368.24106,1139.2651 C 368.24106,1139.5171 367.88304,1140.1785 367.44546,1140.7348 C 366.8084,1141.5447 366.50716,1141.6698 365.93374,1141.363 C 365.53987,1141.1522 364.77602,1140.9797 364.23628,1140.9797 C 363.39005,1140.9797 363.22142,1141.1893 363.01147,1142.5023 C 362.80168,1143.8143 362.58369,1144.0858 361.43562,1144.4647 C 360.55715,1144.7546 359.98124,1145.2504 359.7451,1145.92 C 359.19363,1147.4837 357.10922,1148.2129 353.25548,1148.1904 C 350.1486,1148.1722 349.90833,1148.1084 348.32648,1146.881 L 348.32647,1146.881 z"/>
</g>
<g class="label" text-anchor="middle" font-size="4" font-family="sans-serif">
<text x="426" y="1028">Thiruvallur</text>
<text x="436" y="1034">Chennai</text>
<text x="428" y="1050">Kancheepuram</text>
<text x="400" y="1074">Viluppuram</text>
<text x="410" y="1085">Cuddalore</text>
<text x="416" y="1109">Nagapattinam</text>
<text x="412" y="1117">Thiruvarur</text>
<text x="401" y="1123">Thanjavur</text>
<text x="388" y="1128">Pudukkottai</text>
<text x="381" y="1162">Ramanathapuram</text>
<text x="357" y="1175">Thoothukkudi</text>
<text x="342" y="1184">Tirunelveli</text>
<text x="333" y="1199">Kanniyakumari</text>
<text x="354" y="1154">Virudhunagar</text>
<text x="338" y="1139">Theni</text>
<text x="351" y="1123">Dingugul</text>
<text x="335" y="1112">Tiruppur</text>
<text x="323" y="1104">Coimbatore</text>
<text x="314" y="1085">The Nilgiris</text>
<text x="338" y="1084">Erode</text>
<text x="371" y="1080">Salem</text>
<text x="368" y="1064">Dharmapuri</text>
<text x="364" y="1053">Krishnagiri</text>
<text x="398" y="1042">Vellore</text>
<text x="400" y="1058">Tiruvannamalai</text>
<text x="392" y="1092">Perambalur</text>
<text x="401" y="1100">Ariyalur</text>
<text x="379" y="1105">Tiruchinappalli</text>
<text x="364" y="1109">Karur</text>
<text x="363" y="1092">Namakkal</text>
<text x="378" y="1144">Sivagangai</text>
<text x="359" y="1138">Madurai</text>
</g>
</svg>

