<svg xmlns="http://www.w3.org/2000/svg" viewBox="793 633 44 61">
<g title="Tripura" fill="#328707">
<path title="South Tripura" d="M 808.70591,688.9315 C 808.11099,688.79956 807.7879,687.55749 807.7879,685.40238 C 807.7879,684.78642 807.53756,684.21345 807.01089,683.624 C 806.29715,682.82519 806.15888,682.77587 805.31275,683.01835 C 804.45877,683.26307 804.37941,683.38162 804.22415,684.64434 C 803.76388,688.38765 802.12023,687.95488 801.55533,683.94165 C 801.37654,682.67144 801.04723,681.03486 800.82354,680.3048 C 800.53594,679.36618 800.50154,678.89271 800.70608,678.68817 C 800.86516,678.52908 800.99533,678.13324 800.99533,677.80854 C 800.99533,677.48383 801.25001,676.64242 801.56128,675.93875 C 802.05181,674.82982 802.10211,674.35785 801.93876,672.39687 C 801.64005,668.81098 802.05696,667.90232 805.25654,665.16555 L 807.84889,662.94817 L 809.74622,663.12452 C 810.78975,663.2215 811.90699,663.44742 812.22897,663.62655 C 812.55096,663.80568 812.89999,663.95658 813.00459,663.96187 C 813.10919,663.96717 813.35373,664.149 813.548,664.36595 C 813.85675,664.71075 813.83281,664.71075 813.3578,664.36595 C 812.85297,663.99949 812.84146,664.00596 813.19562,664.45701 C 813.4053,664.72404 813.78388,664.90745 814.03691,664.86458 C 814.84437,664.72779 815.39551,665.45312 815.39651,666.65387 C 815.39718,667.44578 815.7416,668.43562 816.56856,670.02221 C 817.21267,671.258 817.83005,672.17872 817.9405,672.06827 C 818.05095,671.95781 818.05295,672.09774 817.94494,672.37921 C 817.82857,672.68246 817.85435,672.8256 818.00821,672.73051 C 818.15102,672.64224 818.26786,672.80475 818.26786,673.09163 C 818.26787,673.43879 817.97364,673.71034 817.3881,673.90358 C 816.4373,674.21738 816.3359,674.41306 816.05824,676.46983 C 815.95737,677.21701 815.62646,678.41662 815.32287,679.13562 C 814.8327,680.2965 814.78929,680.80889 814.9352,683.7109 C 815.09916,686.97171 815.09797,686.98033 814.39555,687.63131 C 813.35129,688.5991 810.32515,689.29062 808.7059,688.9315 L 808.70591,688.9315 z"/>
<path title="West Tripura" d="M 798.83857,676.03081 L 797.7349,673.82573 L 797.7349,668.40528 C 797.7349,661.87167 797.90211,661.37857 800.24471,661.00397 C 801.21626,660.84862 801.26681,660.79006 801.26259,659.82482 C 801.26014,659.26621 801.59637,657.74493 802.00977,656.44421 L 802.7614,654.07928 L 803.90652,653.90155 C 804.54585,653.80233 805.66562,653.87113 806.44174,654.05731 C 807.22331,654.2448 807.92573,654.28742 808.04631,654.15465 C 808.16427,654.02477 808.52298,653.03775 808.84344,651.96127 C 809.47862,649.82761 810.09389,649.16048 811.22679,649.37705 L 811.93818,649.51305 L 811.79382,652.13285 C 811.68875,654.03959 811.74503,654.88334 812.00058,655.23284 C 812.1937,655.49694 812.43619,656.16512 812.53944,656.71768 C 812.75643,657.87891 813.16114,658.47125 813.56642,658.22077 C 813.72612,658.12207 813.76856,658.1766 813.66388,658.34598 C 813.56188,658.511 813.7033,658.76638 813.97813,658.91346 C 814.42181,659.15092 814.46512,659.46465 814.36446,661.71205 C 814.3021,663.10419 814.15873,664.34243 814.04584,664.4637 C 813.93295,664.58498 813.46628,664.30987 813.00877,663.85237 C 812.55126,663.39487 812.01471,663.01426 811.81641,663.00659 C 811.61813,662.99891 810.60002,662.89691 809.55397,662.77992 L 807.65205,662.5672 L 805.6901,664.32697 C 804.61103,665.29483 803.80463,666.21045 803.89809,666.36168 C 803.99797,666.52329 803.93166,666.55236 803.73722,666.43219 C 803.22834,666.11767 802.42274,667.02016 801.95481,668.42894 C 801.66306,669.30731 801.54973,670.57278 801.5866,672.54045 C 801.63297,675.0152 801.563,675.52229 801.04589,676.45935 C 800.71921,677.05134 800.45193,677.69323 800.45193,677.88579 C 800.45193,678.74944 799.85683,678.06522 798.83858,676.03081 L 798.83857,676.03081 z"/>
<path title="Dhalai" d="M 817.17386,670.45829 C 815.94364,667.9477 815.64209,667.08487 815.75396,666.39548 C 815.86623,665.70365 815.75423,665.38702 815.21958,664.88475 C 814.59409,664.29713 814.55054,664.09564 814.6412,662.20847 C 814.69514,661.08603 814.83482,659.96424 814.95163,659.71562 C 815.11152,659.37533 814.90849,659.08994 814.13038,658.56119 C 812.86115,657.69874 812.38761,656.1983 812.21494,652.49206 C 812.10616,650.15696 812.13471,649.97881 812.61779,649.97881 C 812.90377,649.97881 813.35903,649.73428 813.62951,649.43541 C 814.1952,648.81033 814.55263,648.76717 815.51864,649.20732 C 816.1307,649.48618 816.21068,649.68545 816.21068,650.93127 C 816.21068,652.7268 816.81144,653.35166 818.56949,653.38471 C 819.43035,653.40088 819.87741,653.54729 820.05949,653.87265 C 820.20255,654.12832 820.45326,654.25489 820.61661,654.15394 C 820.79466,654.0439 820.83595,654.09602 820.71972,654.28407 C 820.35598,654.8726 820.84251,655.19522 821.47188,654.78284 C 822.19665,654.30795 824.34364,654.05714 824.18687,654.46567 C 824.12703,654.62162 824.27324,654.99023 824.51177,655.28481 C 824.75031,655.5794 824.85567,655.63702 824.74591,655.41287 C 824.63615,655.18871 824.64298,655.09253 824.76109,655.19914 C 825.06595,655.4743 825.09487,657.84024 824.79107,657.65212 C 824.65272,657.56644 824.62101,657.70552 824.72003,657.96358 C 824.84061,658.27779 824.7963,658.36638 824.58418,658.23528 C 824.37206,658.10419 824.32776,658.19279 824.44833,658.50699 C 824.56891,658.82119 824.5246,658.90979 824.31248,658.77869 C 824.10036,658.6476 824.05606,658.73619 824.17663,659.05039 C 824.2972,659.3646 824.2529,659.45319 824.04078,659.32209 C 823.82866,659.191 823.78436,659.2796 823.90493,659.5938 C 824.00333,659.85023 823.97578,659.99325 823.84372,659.91163 C 823.17386,659.49764 823.2753,661.64696 823.99302,663.07497 C 824.19583,663.47851 824.36176,664.18957 824.36176,664.65513 C 824.36176,665.12069 824.49044,665.74202 824.64771,666.03588 C 824.90804,666.52233 824.86546,666.55402 824.17223,666.38979 C 823.75344,666.29058 822.82731,665.88928 822.11414,665.49801 L 820.81747,664.78661 L 819.80467,665.37363 C 818.92097,665.88581 818.80051,666.07631 818.85975,666.86799 C 819.19078,671.29216 819.23083,673.15081 819.00009,673.38155 C 818.82885,673.5528 818.18593,672.52367 817.17386,670.45829 L 817.17386,670.45829 z"/>
<path title="North Tripura" d="M 824.78922,665.39794 C 824.71976,665.06171 824.60328,664.41981 824.53037,663.9715 C 824.45747,663.52319 824.24816,662.58139 824.06524,661.8786 C 823.7572,660.69505 823.78592,660.48213 824.45477,658.99175 C 825.28975,657.13115 825.34596,656.37871 824.74062,655.16527 C 824.09223,653.86555 822.5683,653.51561 821.43247,654.40561 C 821.08277,654.67961 820.66966,654.32238 819.9963,653.16371 C 819.8419,652.89801 819.59743,652.75362 819.45305,652.84285 C 819.30867,652.93209 819.25604,653.11105 819.33607,653.24056 C 819.5076,653.51809 817.97284,653.11664 817.09372,652.65402 C 816.57643,652.3818 816.48239,652.1095 816.48239,650.88386 C 816.48239,649.80278 816.58185,649.43541 816.87453,649.43541 C 817.52772,649.43541 818.08688,648.33746 818.27343,646.68855 C 818.47146,644.93822 819.18308,644.03591 820.78832,643.49977 C 822.70079,642.86102 826.53539,639.60318 826.53539,638.61711 C 826.53539,638.47514 826.79201,638.29186 827.10567,638.20984 C 827.41931,638.12782 827.6016,638.13505 827.51074,638.22592 C 827.41987,638.31678 827.60173,638.66385 827.91487,638.99717 C 828.30768,639.41531 828.52909,640.09808 828.62894,641.19918 C 828.7565,642.60601 828.68933,642.91941 828.06208,643.84372 C 826.90278,645.55205 827.13559,646.27175 829.00227,646.75016 C 829.73759,646.93863 830.33922,647.24385 830.33922,647.42844 C 830.33922,647.61304 830.65585,650.43262 831.04283,653.69417 C 831.79437,660.02816 831.77675,661.07181 830.88431,663.08932 C 830.30513,664.39866 830.10858,664.5659 829.64638,664.14274 C 829.29855,663.82428 827.50205,663.56783 827.18978,663.79204 C 827.05231,663.89074 826.59809,664.43 826.18039,664.99039 C 825.30746,666.16148 824.96754,666.26107 824.78922,665.39794 L 824.78922,665.39794 z"/>
</g>
<g class="label" text-anchor="middle" font-size="3" font-family="sans-serif"  fill="#444">
<text x="811" y="675">South Tripura</text>
<text x="807" y="662">West Tripura</text>
<text x="820" y="659">Dhalai</text>
<text x="825" y="652">North Tripura</text>
</g>
</svg>
