<svg xmlns="http://www.w3.org/2000/svg" viewBox="377 397 104 104">
<g title="Uttarakhand" fill="#328707">
 <path title="Uttarakshi" d="M 399.4407,430.71473 C 398.2604,429.64509 397.41038,429.08451 396.96877,429.08451 C 396.2565,429.08451 394.12052,427.36438 394.12052,426.79078 C 394.12052,426.61007 393.80436,426.1658 393.41794,425.80351 C 393.03152,425.44123 392.15644,424.30474 391.47332,423.27798 C 390.31178,421.53215 390.25166,421.35478 390.54568,420.54166 C 390.91913,419.5089 390.95129,417.69441 390.60582,417.14849 C 390.4524,416.90607 389.73233,416.71445 388.69197,416.63919 C 387.2817,416.53719 387.0528,416.45033 387.21005,416.07689 C 387.31235,415.83398 387.48615,415.17897 387.5963,414.62131 C 387.90935,413.03644 388.89255,411.99023 390.0824,411.97588 C 390.86489,411.96645 394.23519,410.50407 395.01341,409.83631 C 395.28035,409.60726 396.21702,409.33517 397.09492,409.23165 C 397.97281,409.12814 399.55228,408.6465 400.60486,408.16134 L 402.51863,407.27923 L 403.36692,407.99302 C 403.84291,408.39354 404.55078,408.70681 404.9798,408.70681 C 405.40033,408.70681 406.27738,408.94866 406.9288,409.24425 C 407.58022,409.53984 408.44617,409.78437 408.85312,409.78765 C 409.26007,409.79094 410.11594,410.02422 410.75504,410.30606 C 411.39416,410.5879 412.37832,411.01517 412.9421,411.25556 C 413.51933,411.50168 414.07407,411.9738 414.21185,412.3362 C 414.62514,413.42321 417.49994,413.77342 418.0208,412.80021 C 418.38015,412.12877 418.38672,410.14972 418.03036,409.92947 C 417.88092,409.83711 417.75866,409.46885 417.75866,409.11111 C 417.75866,408.50512 417.27008,407.11334 416.94909,406.80489 C 416.87133,406.73017 416.67011,406.42451 416.50195,406.12563 C 416.24171,405.66312 416.34281,405.42045 417.18121,404.49542 C 417.72295,403.89767 418.37689,403.10294 418.63435,402.72935 C 419.09834,402.05614 419.10638,402.05493 419.53768,402.5935 C 419.77705,402.89237 420.84593,404.6041 421.91299,406.39734 C 422.98005,408.19057 424.23689,410.14683 424.70599,410.74458 C 425.17505,411.34233 426.20176,412.79386 426.98758,413.97021 C 427.77337,415.14656 428.84383,416.58222 429.36634,417.16058 L 430.31638,418.21214 L 429.47157,419.52865 C 429.00693,420.25273 428.62677,421.17717 428.62677,421.58296 C 428.62677,421.98876 428.3211,422.7706 427.94751,423.32039 C 427.45771,424.04119 427.26825,424.68134 427.26825,425.61545 C 427.26825,426.32794 427.16308,426.91089 427.03456,426.91089 C 426.90602,426.91089 426.34712,426.48296 425.79255,425.95993 C 425.00486,425.21704 424.55845,425.00897 423.75231,425.00897 C 422.77097,425.00897 422.71215,424.95905 422.55198,423.99009 C 422.45936,423.4297 422.38225,422.62907 422.38059,422.2109 C 422.37823,421.61243 422.18967,421.37086 421.49457,421.07593 C 420.67071,420.72636 420.56502,420.74546 419.91742,421.36075 C 419.53565,421.72347 419.02322,422.02024 418.77871,422.02024 C 418.5342,422.02024 418.25856,422.14251 418.16621,422.29194 C 418.07386,422.44138 417.60813,422.56552 417.1313,422.56781 C 415.91752,422.57363 415.59109,422.85783 415.39446,424.08 C 415.30024,424.66565 415.02946,425.28898 414.79275,425.46518 C 414.14341,425.94854 412.60424,426.1689 412.20307,425.83596 C 411.94607,425.62267 411.38438,425.71012 410.1225,426.15989 C 408.51732,426.73202 408.3827,426.8438 408.23597,427.72647 C 408.04124,428.8979 407.53407,429.86258 406.78273,430.49066 C 406.03424,431.11635 405.94876,431.10675 405.14932,430.30731 C 404.55501,429.71301 404.38349,429.6677 403.77595,429.94451 C 403.32635,430.14936 402.97169,430.62803 402.7695,431.30289 C 402.3178,432.81051 401.6166,432.68661 399.4407,430.71473 L 399.4407,430.71473 z"/>
 <path title="Chamoli" d="M 429.13227,453.81428 C 428.13596,453.14516 427.89385,453.08 427.54455,453.38702 C 427.06159,453.81154 426.2495,453.57339 425.62005,452.82264 C 425.386,452.54349 424.56375,450.72563 423.79285,448.78296 L 422.39119,445.25082 L 422.87577,443.62156 C 423.28908,442.23191 423.47789,441.95752 424.15956,441.75581 C 425.5237,441.35215 425.7709,441.14598 425.86586,440.33277 C 425.91645,439.89953 426.09322,439.38143 426.25869,439.18143 C 426.74327,438.59572 427.53995,436.10728 427.53995,435.1794 C 427.53995,434.62131 427.86975,433.89309 428.49091,433.07957 C 429.01394,432.39458 429.44187,431.65277 429.44187,431.4311 C 429.44187,431.20942 429.01544,430.46938 428.4942,429.78655 C 427.55291,428.55337 427.54764,428.53092 427.71088,426.43738 C 427.81217,425.13757 428.0713,423.9853 428.38682,423.43115 C 428.66823,422.93694 428.89847,422.21405 428.89847,421.82472 C 428.89847,421.43539 429.27551,420.52928 429.73634,419.81114 C 430.52711,418.57887 430.60734,418.52709 431.16278,418.89059 C 432.11353,419.51275 433.93377,419.67613 435.71149,419.29887 C 437.00537,419.0243 437.65455,419.01963 438.80301,419.27664 C 440.30371,419.61248 440.73933,419.98208 443.89015,423.59253 C 444.43962,424.22214 445.13124,424.73727 445.42712,424.73727 C 446.04261,424.73727 449.54787,426.25441 449.54787,426.5208 C 449.54787,426.61762 449.16947,427.17459 448.70701,427.75852 L 447.86614,428.8202 L 447.90299,433.09582 C 447.92323,435.44742 448.07019,437.80911 448.22957,438.34404 C 448.47285,439.16049 448.43123,439.48764 447.97061,440.38181 C 447.6688,440.96766 446.98683,441.86484 446.45511,442.37555 C 445.60411,443.19294 445.2678,443.32307 443.64635,443.46237 L 441.80435,443.62061 L 441.72254,445.51981 C 441.65839,447.00823 441.51591,447.55183 441.06382,448.03306 L 440.48697,448.64711 L 441.07773,449.27595 C 441.79902,450.04373 441.83029,450.8324 441.17174,451.6457 C 440.69015,452.24039 440.61081,452.24963 438.57945,451.94751 C 437.42689,451.77609 435.46275,451.63584 434.21463,451.63584 C 431.7968,451.63584 431.61549,451.73943 431.61549,453.12118 C 431.61549,453.48238 431.33904,453.9281 430.96164,454.17537 C 430.34425,454.57992 430.24231,454.55979 429.13227,453.81427 L 429.13227,453.81428 z"/>
 <path title="Pithoragarh" d="M 451.62637,471.6103 C 451.05101,471.10207 450.22572,470.60838 449.79238,470.5132 C 449.33165,470.41201 449.00447,470.16328 449.00447,469.91424 C 449.00447,469.67998 448.57654,468.9661 448.05351,468.32781 C 447.48407,467.63288 447.10255,466.87071 447.10255,466.42804 C 447.10255,465.91783 446.63112,465.15183 445.58096,463.95569 C 443.76813,461.89084 443.78729,461.41714 445.68358,461.41714 C 447.47125,461.41714 448.04941,460.96528 447.79968,459.76326 C 447.69375,459.25324 447.58526,458.40803 447.55858,457.885 L 447.5101,456.93404 L 449.27617,456.51017 C 451.2574,456.03466 451.17314,456.23099 450.75442,453.06542 C 450.64452,452.23452 450.68538,451.32984 450.85264,450.8918 C 451.0102,450.47912 451.21808,449.01202 451.31459,447.63157 L 451.49006,445.12167 L 450.72274,444.79627 C 449.64259,444.33819 447.91766,442.65576 447.91766,442.06028 C 447.91766,441.78578 448.16893,441.06867 448.47603,440.4667 C 448.93206,439.57279 448.98368,439.21376 448.75765,438.50768 C 448.60542,438.03219 448.45941,435.63266 448.43313,433.17541 L 448.38537,428.70767 L 449.26484,427.66013 L 450.14429,426.6126 L 451.26552,427.53833 C 452.31829,428.40755 452.40657,428.59222 452.71136,430.56363 C 452.88993,431.7184 453.09438,432.7216 453.16576,432.79296 C 453.39461,433.02183 456.18006,433.6969 456.90931,433.70023 C 457.29689,433.70201 458.35373,434.20016 459.25782,434.80725 C 461.06138,436.01831 462.78969,436.57191 465.6455,436.85331 C 467.75494,437.06117 467.8943,437.18637 468.9744,439.8439 C 469.5919,441.36313 469.61527,441.38329 472.68148,443.0401 C 474.37862,443.95712 475.76719,444.82968 475.76719,444.97912 C 475.76719,445.12856 474.97716,445.2879 474.01152,445.33321 C 473.04592,445.37852 472.09836,445.54632 471.90583,445.70611 C 471.71333,445.86589 471.5528,446.56241 471.54916,447.25394 C 471.53873,449.22422 471.07235,450.77797 470.14495,451.93202 C 469.3703,452.89595 469.17277,452.99435 468.01236,452.99435 C 466.29182,452.99435 464.55035,453.64723 463.45191,454.70405 C 461.32931,456.74619 458.77381,460.53053 457.16688,464.0113 C 456.16655,466.17805 455.23947,467.79148 454.75446,468.2097 C 453.72131,469.10057 453.08001,470.39616 453.08001,471.59249 C 453.08001,472.12295 452.98831,472.55186 452.87623,472.54564 C 452.76415,472.53942 452.2017,472.11851 451.62637,471.61029 L 451.62637,471.6103 z"/>
 <path title="Champawat" d="M 448.50098,483.13249 C 448.23976,482.45583 446.76219,481.41065 446.47407,481.69876 C 446.38536,481.78749 445.87915,481.77872 445.34914,481.67929 C 444.43481,481.50777 444.38552,481.44252 444.38552,480.40384 C 444.38552,479.44801 444.19601,479.11048 442.89116,477.74249 C 440.86089,475.61397 440.91933,475.20971 443.29594,474.94248 C 443.72281,474.89448 444.0093,474.6659 444.07236,474.32301 C 444.22125,473.51345 444.64978,473.10035 445.34069,473.10035 C 445.68,473.10035 446.02797,472.91695 446.11399,472.6928 C 446.20433,472.45737 446.61052,472.28524 447.07571,472.28524 C 447.62971,472.28524 447.93244,472.12332 448.04571,471.76638 C 448.36053,470.77452 448.86867,470.59099 449.99591,471.06198 C 451.08191,471.51575 452.2649,472.47423 452.2649,472.90038 C 452.2649,473.03717 452.50585,473.3521 452.80037,473.60021 C 453.1847,473.924 453.35103,474.43805 453.38975,475.42166 C 453.43999,476.69723 453.30653,477.00731 451.46036,479.90476 C 448.92948,483.87682 448.83012,483.9852 448.50095,483.13248 L 448.50098,483.13249 z"/>
 <path title="Udham Singh Nagar" d="M 445.96259,495.02257 C 445.26095,494.54668 444.68018,493.9678 444.67203,493.73617 C 444.65068,493.12835 444.09841,492.66295 443.39853,492.66295 C 443.03054,492.66295 442.72409,492.44918 442.61945,492.11954 C 442.3831,491.37484 440.34446,491.37944 438.79782,492.12816 C 437.35339,492.82739 435.75122,492.53946 434.5035,491.35637 C 433.84525,490.73222 433.29954,490.5081 432.08682,490.36383 C 430.52151,490.17761 430.51936,490.17608 429.07233,488.2194 C 427.31583,485.84426 426.55867,485.19921 424.08281,483.96846 C 422.39241,483.12819 422.15187,482.91257 422.01605,482.11595 C 421.91362,481.5151 421.47253,480.86181 420.69354,480.15725 C 419.39523,478.98297 418.83973,478.85065 418.14111,479.54928 C 417.55352,480.13686 416.18544,480.60535 415.39509,480.48963 C 414.98772,480.42998 414.49578,479.86723 413.84913,478.7211 C 412.83785,476.92866 411.35185,475.54568 410.4372,475.54568 C 409.47602,475.54568 409.80343,474.76942 410.84721,474.57361 C 411.4069,474.46861 412.39671,473.89561 413.19405,473.21501 L 414.57294,472.038 L 415.34216,472.76402 C 415.76523,473.16333 416.24717,473.81784 416.4131,474.21848 C 416.71149,474.93881 416.95523,475.04248 419.31144,475.45133 C 419.79186,475.5347 420.32646,475.77343 420.49943,475.98185 C 420.6724,476.19025 421.02452,476.36078 421.28196,476.36078 C 421.97934,476.36078 422.59535,477.18932 422.69598,478.2627 L 422.78516,479.21366 L 424.41537,479.35976 C 426.68281,479.56296 429.32841,480.93146 429.5687,482.02545 C 429.71227,482.67919 429.91515,482.84379 430.74675,482.98128 C 431.29929,483.07263 432.12472,483.14872 432.58107,483.15036 C 433.17029,483.15248 433.67802,483.42903 434.33252,484.10431 C 435.14478,484.94235 435.4173,485.05575 436.62738,485.05928 C 437.4042,485.06156 439.1804,484.69924 440.71754,484.22495 C 442.2119,483.76386 443.74023,483.2974 444.11382,483.18836 C 444.49741,483.07641 444.77868,482.80128 444.76001,482.55629 C 444.73338,482.2073 444.98196,482.13392 446.03128,482.18107 C 447.57018,482.25021 448.06329,482.59092 448.29402,483.74457 C 448.42696,484.4094 448.28742,484.87077 447.65533,485.85577 C 446.70111,487.34279 446.01574,489.16987 446.01574,490.2266 C 446.01574,490.7915 446.36566,491.29699 447.40131,492.22811 L 448.78686,493.47386 L 448.0691,494.69861 C 447.67435,495.37224 447.32594,495.91538 447.29486,495.90561 C 447.2638,495.89584 446.66429,495.49847 445.96262,495.02258 L 445.96259,495.02257 z"/>
 <path title="Nainital" d="M 434.4531,483.69195 C 433.75937,482.99821 433.35466,482.84601 431.82362,482.70303 C 430.12776,482.54468 430.00889,482.48963 429.93173,481.82701 C 429.80568,480.74409 426.6451,479.01017 424.51664,478.85621 C 422.924,478.74102 422.92101,478.73916 422.92101,477.8646 C 422.92101,476.52046 421.6345,475.65916 418.63175,474.993 C 417.24824,474.68607 416.91366,474.49925 416.66277,473.89358 C 416.49654,473.49226 416.0638,472.90589 415.70108,472.59053 C 414.84174,471.84332 414.86942,471.5435 415.84967,470.98202 C 416.32591,470.70922 416.72608,470.20855 416.82427,469.76265 C 416.91586,469.34655 417.35787,468.73523 417.80645,468.40414 C 418.25506,468.07303 418.80251,467.37422 419.02308,466.85119 L 419.42406,465.90023 L 420.42534,467.04636 C 421.28764,468.03339 421.62099,468.21693 422.82667,468.36845 C 424.11047,468.52979 424.25482,468.49103 424.56549,467.90157 C 425.04347,466.99467 425.33071,466.86006 426.79818,466.85535 C 428.29578,466.85054 429.84921,467.68902 430.78968,469.00979 C 431.1148,469.46636 431.53146,469.83992 431.71562,469.83992 C 431.89975,469.83992 432.75529,469.21169 433.61678,468.44386 L 435.18311,467.0478 L 437.13522,469.06178 C 438.442,470.40996 439.85078,471.51242 441.39679,472.3967 C 442.667,473.12322 443.73971,473.74466 443.78058,473.77767 C 443.82144,473.81068 443.7778,474.03858 443.68358,474.28412 C 443.57226,474.57426 443.19631,474.73057 442.60978,474.73057 C 441.70056,474.73057 440.85339,475.30238 440.85339,475.91607 C 440.85339,476.09843 441.41339,476.79273 442.09784,477.45895 C 443.62992,478.95021 443.99381,479.63871 444.19563,481.42798 L 444.35346,482.82719 L 443.39525,483.00694 C 442.86825,483.10581 441.56112,483.48401 440.4905,483.84739 C 439.2849,484.25658 437.92136,484.5088 436.90848,484.50997 C 435.4502,484.51166 435.1842,484.42305 434.4531,483.69194 L 434.4531,483.69195 z"/>
 <path title="Garhwal" d="M 413.13971,470.25756 C 411.94248,469.54706 410.72455,469.02481 410.26488,469.02481 C 409.48041,469.02481 405.94529,465.21961 405.13375,463.50167 C 404.2555,461.64252 400.91103,457.99509 400.29966,458.2297 C 400.03601,458.33087 399.74814,458.05005 399.43475,457.38599 C 399.17641,456.83854 398.36408,455.44984 397.62958,454.29997 C 396.89509,453.15011 396.29414,452.13109 396.29414,452.03548 C 396.29414,451.93987 396.84434,451.16133 397.5168,450.30539 C 398.18927,449.44946 398.73947,448.56724 398.73947,448.34491 C 398.73947,447.65051 399.34875,447.28859 400.51776,447.28859 C 401.29892,447.28859 401.79465,447.45509 402.13575,447.832 C 402.40623,448.13087 402.90703,448.3754 403.24864,448.3754 C 403.59025,448.3754 403.94531,448.49767 404.03767,448.64711 C 404.13003,448.79654 404.80971,448.91881 405.54807,448.91881 C 406.68023,448.91881 406.89055,448.83889 406.89055,448.40867 C 406.89055,448.1281 407.07395,447.74633 407.2981,447.5603 C 407.52226,447.37426 407.70566,446.89743 407.70566,446.50067 C 407.70566,446.10391 407.89599,445.50755 408.12862,445.17543 C 408.52577,444.60842 408.7507,444.57157 411.81445,444.57157 C 413.6307,444.57157 415.32037,444.4415 415.62549,444.27821 C 416.04918,444.05145 416.28133,444.0823 416.64791,444.41406 C 416.99743,444.73037 417.69741,444.84327 419.30907,444.84327 C 420.73079,444.84327 421.59216,444.9621 421.77094,445.1829 C 422.09666,445.58519 424.06743,450.2327 424.54791,451.73163 C 424.88276,452.77617 424.88075,452.78112 423.59983,454.08161 C 422.89384,454.79838 421.84094,455.59915 421.26009,455.86108 C 420.67922,456.12301 420.20398,456.44588 420.20398,456.57857 C 420.20398,456.71127 420.43126,457.27346 420.70905,457.8279 C 421.57372,459.55366 421.22493,461.77186 419.62631,464.71402 C 418.89796,466.05448 418.30206,467.25304 418.30206,467.3775 C 418.30206,467.50197 418.00909,467.79576 417.65104,468.03038 C 417.29296,468.26499 416.77333,468.92096 416.4963,469.48807 C 416.05109,470.39941 415.86636,470.52739 414.90578,470.58992 C 414.30643,470.62892 413.51431,470.47985 413.13971,470.25756 z"/>
 <path title="Hardwar" d="M 391.13179,463.59373 C 390.90764,463.44723 390.2619,463.3255 389.69683,463.32321 C 388.60769,463.3188 388.56089,463.26121 388.2801,461.58003 C 388.06171,460.27249 386.79077,458.88563 386.05863,459.15595 C 385.78543,459.25683 385.18355,459.62346 384.72113,459.97069 C 383.66457,460.76407 383.25568,460.76959 383.24049,459.9907 C 383.23393,459.65446 383.07156,458.94012 382.87966,458.40327 C 382.62493,457.69065 382.57317,456.33215 382.68786,453.37048 C 382.84432,449.33012 382.84869,449.30797 383.77287,447.86776 C 384.28323,447.07244 385.2002,446.10436 385.81059,445.71647 C 386.42099,445.32857 387.29691,444.66399 387.75708,444.23961 L 388.59375,443.46802 L 390.10561,445.7398 C 391.27459,447.4964 391.58596,448.17632 391.4786,448.73795 C 391.37343,449.28807 391.56796,449.74423 392.28034,450.618 C 392.79766,451.25252 393.36651,452.04679 393.54444,452.38302 C 393.85157,452.96342 393.90172,452.97222 394.53554,452.55692 C 394.90272,452.31634 395.3763,452.18594 395.58794,452.26716 C 395.99604,452.42376 398.07685,455.51019 399.0178,457.35458 L 399.57919,458.45499 L 398.72894,459.52852 C 397.82979,460.66378 397.71061,460.70632 395.69108,460.61272 C 394.49838,460.55745 394.32748,460.63741 393.24575,461.75684 C 392.60611,462.41878 391.96048,463.16282 391.81105,463.41023 C 391.61483,463.73511 391.42612,463.78608 391.13179,463.59373 L 391.13179,463.59373 z"/>
 <path title="Dehradun" d="M 393.84882,452.19287 C 393.84882,452.07498 393.37141,451.37893 392.78791,450.64609 C 391.9848,449.63741 391.75993,449.14144 391.86249,448.60495 C 391.96731,448.05661 391.59259,447.29005 390.20637,445.2171 C 389.22098,443.74356 388.41476,442.3282 388.41476,442.07185 C 388.41476,441.54516 386.70179,440.46092 384.38202,439.51926 C 382.96872,438.94557 381.6222,437.82858 381.6222,437.2299 C 381.6222,437.09399 381.9719,436.58118 382.39931,436.09031 C 382.82671,435.59945 383.34074,434.70876 383.54159,434.11101 C 383.74243,433.51327 384.00406,432.90805 384.12299,432.76608 C 384.24191,432.62412 384.33922,432.24173 384.33922,431.91632 C 384.33922,431.59091 384.52262,431.17246 384.74678,430.98643 C 385.4962,430.36446 385.21735,429.34409 383.91846,427.95547 L 382.68259,426.63422 L 382.84749,424.93857 C 383.09881,422.35466 383.20068,422.06448 384.00305,421.64707 C 384.55866,421.35803 384.95692,420.72058 385.57759,419.12695 C 386.50062,416.75694 386.72249,416.62391 389.14597,416.98733 L 390.31668,417.16289 L 390.31668,418.76042 C 390.31668,419.63907 390.19397,420.4338 390.04398,420.52649 C 389.41117,420.91759 390.47748,422.90083 392.78897,425.63194 L 393.66116,426.66245 L 392.76836,427.5836 C 392.27732,428.09022 391.52326,428.65066 391.09266,428.82902 C 390.31878,429.14956 390.23339,429.33032 389.91217,431.32765 C 389.69102,432.70276 390.79148,434.24686 391.99264,434.24686 C 393.27808,434.24686 394.306,434.9625 395.41134,436.62695 C 397.16867,439.27317 397.65266,440.81941 397.65266,443.78753 C 397.65266,446.00617 397.72931,446.45863 398.17323,446.86038 C 398.65914,447.30011 398.6663,447.39795 398.28081,448.32893 C 397.63103,449.8982 396.17653,451.49288 394.95861,451.97129 C 394.34822,452.21106 393.84882,452.31077 393.84882,452.19288 L 393.84882,452.19287 z"/>
 <path title="Tehri Garhwal" d="M 404.30937,448.3754 C 404.21702,448.22597 403.88145,448.1037 403.56367,448.1037 C 403.24588,448.1037 402.70384,447.83874 402.35913,447.5149 C 401.91422,447.09692 401.2785,446.89021 400.168,446.8024 C 399.30759,446.73438 398.45078,446.55643 398.26399,446.40698 C 398.0347,446.22354 397.92436,445.28707 397.92436,443.52466 C 397.92436,440.54687 397.442,439.00391 395.68304,436.35524 C 394.57419,434.68551 393.54976,433.97516 392.2506,433.97516 C 390.21136,433.97516 389.49569,429.87475 391.39745,429.08702 C 391.81397,428.91449 392.49915,428.41386 392.92007,427.97452 L 393.68539,427.1757 L 394.78598,428.23433 C 395.48159,428.90341 396.25243,429.35742 396.8808,429.46812 C 397.54186,429.58459 398.18629,429.98213 398.80394,430.65449 C 401.13578,433.19286 402.4284,433.4779 403.07856,431.5971 C 403.55772,430.21097 404.3666,429.81227 404.94186,430.67867 C 405.15347,430.99737 405.5868,431.25407 405.9048,431.24909 C 407.04566,431.23126 408.52076,429.39541 408.52076,427.9934 C 408.52076,427.28557 408.67959,427.08471 409.53965,426.70479 C 410.20379,426.41142 411.15867,426.27444 412.28222,426.31137 C 414.60345,426.38766 415.47434,425.879 415.70972,424.3095 C 415.89239,423.09141 416.20215,422.83535 417.49315,422.83535 C 417.9204,422.83535 418.34556,422.71308 418.43791,422.56365 C 418.53027,422.41421 418.80471,422.29194 419.04778,422.29194 C 419.29084,422.29194 419.76227,422.03587 420.09544,421.72289 C 421.03439,420.84078 421.72579,421.22488 421.93408,422.74431 C 422.20953,424.75401 422.16445,425.00897 421.53367,425.00897 C 420.80485,425.00897 418.78425,426.59202 419.02202,426.97672 C 419.12051,427.13613 419.07631,427.18941 418.92377,427.09513 C 418.44128,426.79693 417.81376,427.79832 416.95056,430.24393 C 416.16392,432.47258 416.13857,432.66325 416.5286,433.41746 C 416.79015,433.92321 416.94355,434.95704 416.94355,436.21369 C 416.94355,437.62256 417.09212,438.49893 417.44998,439.20083 C 418.59784,441.45231 418.34089,442.49466 416.39302,443.48839 C 415.50545,443.94119 414.7912,444.02816 411.96011,444.02816 L 408.58526,444.02816 L 407.87376,444.961 C 407.48243,445.47405 407.16225,446.20043 407.16225,446.57517 C 407.16225,446.94991 407.03998,447.33209 406.89055,447.42445 C 406.74111,447.5168 406.61885,447.82968 406.61885,448.11974 C 406.61885,448.55255 406.42686,448.64711 405.54807,448.64711 C 404.95914,448.64711 404.40173,448.52484 404.30937,448.3754 z"/>
 <path title="Rudraprayag" d="M 419.52472,444.3728 C 416.53686,444.25781 416.45117,444.19981 417.62846,443.08947 C 418.55168,442.21875 418.61172,442.06819 418.44028,441.05339 C 418.33844,440.45068 418.02115,439.47328 417.73518,438.8814 C 417.36379,438.11269 417.21525,437.2183 417.21525,435.75067 C 417.21525,434.58808 417.06913,433.46209 416.87867,433.15712 C 416.59683,432.70582 416.67416,432.23626 417.35415,430.27014 C 418.07215,428.19409 418.33771,427.76916 419.64688,426.6014 C 421.08571,425.31799 421.17594,425.28067 422.83939,425.28067 C 424.47683,425.28067 424.59888,425.32833 425.64795,426.37739 C 426.25113,426.98059 426.87556,427.39323 427.03551,427.29436 C 427.23087,427.17363 427.26825,427.37919 427.14938,427.92042 C 427.02133,428.50346 427.0986,428.83098 427.42896,429.10516 C 427.68007,429.31357 428.17723,429.94613 428.53373,430.51085 L 429.18191,431.53762 L 428.11648,432.96016 C 427.37514,433.94997 427.00676,434.75465 426.9055,435.60538 C 426.66374,437.63616 426.41345,438.5605 426.01603,438.89034 C 425.80812,439.06288 425.63804,439.48601 425.63804,439.83063 C 425.63804,440.63902 424.9581,441.31113 424.1403,441.31113 C 423.39252,441.31113 423.20306,441.5498 422.64931,443.18957 C 422.42515,443.85334 422.11949,444.40994 421.97005,444.42645 C 421.82061,444.44295 420.72022,444.41881 419.52472,444.3728 L 419.52472,444.3728 z"/>
 <path title="Bageshwar" d="M 441.57775,462.49088 C 441.19701,462.1914 440.80891,461.70502 440.71528,461.41005 C 440.58962,461.01407 440.30235,460.87373 439.6176,460.87373 C 438.66588,460.87373 438.59652,460.7772 438.34848,459.10766 C 438.29161,458.72459 438.02526,458.54043 437.44585,458.48351 C 436.90786,458.43065 436.53323,458.19602 436.36127,457.80425 C 436.15266,457.32895 435.83289,457.18869 434.808,457.12293 C 433.58295,457.04432 433.51741,456.99996 433.51741,456.24935 C 433.51741,455.75336 433.20504,455.1028 432.6794,454.50415 C 431.99145,453.72058 431.87369,453.4027 432.02174,452.72862 C 432.20072,451.91377 432.21585,451.90761 434.01449,451.91718 C 435.01132,451.92248 436.92728,452.09542 438.27221,452.3015 C 440.61516,452.6605 440.74196,452.65352 441.30115,452.13468 C 442.11474,451.37984 442.24921,450.12633 441.60459,449.30683 C 441.0923,448.65555 441.09287,448.63795 441.64877,447.93121 C 442.07015,447.39552 442.2119,446.82213 442.2119,445.65339 L 442.2119,444.09147 L 443.94441,443.90593 C 445.37349,443.75289 445.81066,443.58079 446.44057,442.92332 C 447.27459,442.05278 447.64595,441.92212 447.64595,442.49919 C 447.64595,443.005 449.96833,445.11497 450.52508,445.11497 C 450.92065,445.11497 450.95016,445.41406 450.78624,447.76407 C 450.68465,449.22108 450.48522,450.7862 450.34315,451.24213 C 450.177,451.77527 450.18295,452.58839 450.35975,453.52076 C 450.80681,455.87825 450.80146,455.89095 449.26538,456.09472 C 447.6418,456.31009 446.68837,457.0886 446.9589,457.97804 C 447.05698,458.30046 447.20645,459.08389 447.29106,459.71899 L 447.44492,460.87373 L 445.84731,460.87545 C 444.36849,460.87704 444.21625,460.93591 443.80036,461.667 C 443.10605,462.88744 442.40994,463.14548 441.57775,462.49088 z"/>
 <path title="Almora" d="M 441.53264,472.06555 C 440.1979,471.28166 438.54617,469.96805 437.25286,468.66186 L 435.14671,466.53473 L 433.46267,468.05871 L 431.7786,469.58268 L 430.81403,468.5194 C 429.476,467.04449 428.11387,466.30778 426.72485,466.30778 C 425.75775,466.30778 425.42141,466.46146 424.68909,467.23796 C 423.89523,468.07968 423.7052,468.15385 422.69098,468.01781 C 421.78499,467.89629 421.38396,467.64023 420.59855,466.68175 L 419.62694,465.49601 L 420.43468,463.93206 C 421.45126,461.96385 421.79418,459.12113 421.16241,457.89944 C 420.57559,456.76464 420.63289,456.54728 421.63042,456.12454 C 422.11609,455.91872 423.11378,455.13674 423.84751,454.3868 L 425.18155,453.02328 L 425.85398,453.55222 C 426.60231,454.14085 427.28387,454.22856 427.72007,453.79237 C 427.92401,453.58845 428.31042,453.70822 429.03497,454.19992 C 430.21106,454.99803 430.46367,455.03092 431.1911,454.4807 C 431.66421,454.12284 431.7814,454.14231 432.34583,454.67255 C 432.78996,455.08979 432.97401,455.56724 432.97401,456.30214 L 432.97401,457.34159 L 434.32551,457.34159 C 435.54557,457.34159 435.71717,457.41914 436.08913,458.13842 C 436.36442,458.67076 436.74679,458.96385 437.24118,459.02145 C 437.82197,459.08912 438.01776,459.28812 438.15128,459.94649 C 438.39918,461.16923 438.62312,461.41714 439.47966,461.41714 C 440.00252,461.41714 440.39206,461.63779 440.70066,462.10877 C 441.37997,463.14552 442.32759,463.49438 443.19845,463.02831 C 443.88844,462.65903 443.95001,462.69448 445.36316,464.27422 C 446.38582,465.41743 446.81963,466.12867 446.82424,466.66961 C 446.82835,467.14736 447.21093,467.90285 447.83365,468.66277 C 448.66886,469.68206 448.78203,469.9621 448.51092,470.33871 C 448.3319,470.5874 448.04441,471.06598 447.87207,471.40221 C 447.66343,471.8093 447.31209,472.01354 446.82049,472.01354 C 446.41449,472.01354 445.93007,472.19694 445.74404,472.42109 C 445.558,472.64525 445.18346,472.82865 444.9117,472.82865 C 444.63994,472.82865 444.34202,472.95092 444.24967,473.10035 C 444.00416,473.49761 443.90996,473.46174 441.53264,472.06554 L 441.53264,472.06555 z"/>
</g>
<g class="label" text-anchor="middle" font-size="4" font-family="sans-serif"  fill="#444">
<text x="411" y="418">Uttarakshi</text>
<text x="435" y="440">Chamoli</text>
<text x="456" y="451">Pithoragarh</text>
<text x="448" y="479">Champawat</text>
<text x="432" y="488">Udham Singh Nagar</text>
<text x="430" y="475">Nainital</text>
<text x="411" y="454">Garhwal</text>
<text x="390" y="456">Hardwar</text>
<text x="389" y="435">Dehradun</text>
<text x="408" y="440">Tehri Garhwal</text>
<text x="423" y="435">Rudraprayag</text>
<text x="442" y="454">Bageshwar</text>
<text x="435" y="464">Almora</text>
</g>
</svg>
