<svg xmlns="http://www.w3.org/2000/svg" viewBox="621 545 134 203">
<g title="West Bengal" fill="#328707">
<path title="Puruliya" d="M 646.94993,703.58081 C 646.27395,703.31367 645.31482,702.03143 645.30594,701.38301 C 645.29174,700.34622 645.89076,698.25287 646.41869,697.49435 C 648.25948,694.84956 647.44971,693.9121 642.58033,693.05071 C 641.03308,692.777 640.6684,692.79929 639.637,693.23062 C 638.9895,693.5014 638.25591,693.71892 638.00678,693.714 C 637.57191,693.70541 636.39533,692.80155 632.80161,689.71533 C 631.5367,688.62905 630.93042,688.28889 630.25921,688.28889 C 629.56024,688.28889 629.07925,687.99365 627.93535,686.86245 L 626.49289,685.43602 L 626.67897,682.3449 C 626.78133,680.64479 626.92448,679.09898 626.99709,678.90976 C 627.06969,678.72055 627.81612,678.4799 628.6558,678.37498 C 629.49549,678.27007 630.48315,678.06993 630.85062,677.93022 C 631.95933,677.50869 633.61414,676.05108 633.61414,675.49604 C 633.61414,674.49509 634.6475,674.89098 635.26949,676.1302 C 635.58827,676.7653 636.11038,677.57071 636.42975,677.91999 C 637.60598,679.20639 640.68489,680.0579 642.22852,679.52371 C 643.48731,679.0881 643.78806,678.15811 643.48006,675.65365 C 643.23895,673.69312 643.25376,673.59425 643.84672,673.20573 C 645.04228,672.42236 647.0959,671.76943 648.97175,671.57627 C 653.96138,671.06247 657.61105,670.40508 657.85062,669.97699 C 658.17014,669.40603 658.59533,669.43514 659.4259,670.08481 C 659.79949,670.37704 660.50252,670.61885 660.98819,670.62218 C 662.15115,670.63014 662.14056,671.11807 660.92534,673.51631 C 660.4051,674.543 659.97718,675.51957 659.97438,675.68647 C 659.97158,675.85337 659.29553,676.8315 658.47204,677.86009 C 657.5512,679.01029 656.82199,680.25326 656.57789,681.08877 C 656.35961,681.83595 655.92539,683.36428 655.61298,684.48506 C 655.30057,685.60583 654.93026,686.80368 654.7901,687.14694 C 654.64992,687.4902 654.53525,688.54482 654.53525,689.49053 C 654.53525,690.72469 654.34731,691.63496 653.86941,692.71559 C 653.38979,693.80009 653.24751,694.49199 653.3607,695.18946 C 653.52822,696.22175 653.13925,697.07097 651.9168,698.34189 C 650.87818,699.42171 649.89081,701.06956 650.08964,701.39129 C 650.19893,701.56812 650.14544,701.60809 649.95608,701.49106 C 649.75342,701.3658 649.44968,701.7403 649.10865,702.53589 C 648.57478,703.78133 648.0725,704.02446 646.94992,703.58081 L 646.94993,703.58081 z M 659.29004,677.42079 C 659.56052,677.12191 659.84295,676.87738 659.91767,676.87738 C 659.99238,676.87738 659.83222,677.12191 659.56175,677.42079 C 659.29127,677.71966 659.00884,677.96419 658.93412,677.96419 C 658.85941,677.96419 659.01957,677.71966 659.29004,677.42079 z"/>
<path title="Barddhaman" d="M 687.92019,693.80326 C 687.52763,693.74279 686.9522,693.42267 686.64144,693.09189 L 686.07644,692.49047 L 686.77737,690.20071 L 687.47832,687.91096 L 686.78041,687.31064 C 686.39655,686.98046 685.85858,686.54586 685.5849,686.34487 C 685.31122,686.14387 684.69226,685.36809 684.20942,684.62091 C 682.92716,682.63667 682.11973,681.8131 681.25234,681.6047 C 680.82912,681.50302 679.7889,680.76457 678.94074,679.96371 C 678.09258,679.16284 677.20582,678.5076 676.97018,678.5076 C 676.73454,678.5076 676.11638,678.03676 675.59648,677.4613 C 674.58698,676.34389 671.79393,674.70376 670.90057,674.70376 C 670.60355,674.70376 670.20833,674.52036 670.0223,674.2962 C 669.83627,674.07205 669.46933,673.88865 669.20689,673.88865 C 668.93256,673.88865 668.58578,673.54118 668.39114,673.07126 C 668.16715,672.53051 667.67322,672.08566 666.93173,671.7569 C 666.31528,671.48357 665.64311,671.05667 665.43801,670.80823 C 665.14443,670.45259 664.58017,670.35651 662.7851,670.35651 C 660.88142,670.35651 660.34931,670.25561 659.5613,669.74518 C 658.43854,669.01792 658.4127,668.75562 659.28027,666.89214 C 660.22541,664.86206 660.70127,664.70825 664.06165,665.34668 C 666.43048,665.79673 666.80279,665.94185 666.93447,666.46651 C 667.05631,666.95196 667.58663,667.23056 669.65895,667.89779 C 671.07981,668.35528 672.8242,668.7263 673.55424,668.7263 C 674.61415,668.7263 674.9088,668.82859 675.04005,669.24213 C 675.1301,669.52584 675.56087,670.25092 675.99732,670.85342 L 676.79086,671.94888 L 679.31611,672.09627 C 680.70501,672.17733 683.30856,672.31891 685.1018,672.41088 C 687.82518,672.55055 688.4423,672.66366 688.8483,673.09752 C 689.11564,673.38321 689.62233,673.61695 689.9743,673.61695 C 691.14036,673.61695 693.11703,671.22447 693.11703,669.81311 C 693.11703,669.49939 692.94797,668.91256 692.74133,668.50903 C 692.5347,668.1055 692.28005,667.14327 692.17544,666.37074 C 691.99628,665.04772 692.0214,664.96094 692.60792,664.87638 C 693.01067,664.81831 693.28632,664.54669 693.38834,664.10735 C 693.49859,663.63261 693.75675,663.40328 694.24578,663.34567 C 694.91315,663.26705 694.95414,663.3398 695.13296,664.92035 C 695.30023,666.3988 695.39939,666.60546 696.05273,666.83727 C 697.79766,667.4564 698.1306,667.8179 698.58594,669.58782 C 699.21019,672.01428 699.31832,672.20474 700.17887,672.39375 C 700.60087,672.48644 701.36851,672.95241 701.88475,673.42924 C 702.40098,673.90607 703.32929,674.65589 703.94765,675.09551 L 705.07195,675.89481 L 705.07195,679.88496 C 705.07195,683.14903 705.14821,683.9384 705.49102,684.22291 C 706.05131,684.68791 705.81265,684.85485 703.57759,685.56139 C 699.16254,686.95705 698.69538,687.33777 697.7303,690.32666 C 697.13911,692.15759 696.14719,693.41408 695.05304,693.71801 C 694.11286,693.97916 689.42553,694.03519 687.92019,693.80327 L 687.92019,693.80326 z M 676.50851,670.96785 C 676.17055,670.53691 676.18016,670.5273 676.61109,670.86526 C 677.06368,671.22021 677.20761,671.44333 676.98399,671.44333 C 676.92757,671.44333 676.7136,671.22936 676.50851,670.96785 z"/>
<path title="Birbhum" d="M 689.72075,673.14759 C 689.42187,673.07355 689.07957,672.8432 688.96006,672.6357 C 688.79732,672.35313 688.04717,672.25741 685.97133,672.25434 C 684.25212,672.2518 682.78725,672.1016 682.11307,671.85872 C 681.51533,671.64337 680.1525,671.46181 679.08456,671.45525 C 677.21895,671.4438 677.11076,671.40677 676.32358,670.51022 C 675.87298,669.99701 675.42833,669.33775 675.33548,669.04519 C 675.14426,668.44269 674.4375,668.192 672.91495,668.1866 C 672.33909,668.18456 670.84132,667.86282 669.58659,667.47161 C 667.52396,666.82852 667.30527,666.69522 667.30527,666.08104 C 667.30527,665.7069 667.68874,664.965 668.15893,664.42949 C 669.14685,663.30431 670.294,660.86433 670.294,659.88821 C 670.294,659.00291 671.19759,658.12989 672.1139,658.12989 C 672.51709,658.12989 673.85674,658.27589 675.09089,658.45433 C 677.15729,658.7531 677.37871,658.73902 677.88994,658.27637 C 678.26564,657.93637 678.44509,657.43627 678.44509,656.72927 C 678.44509,655.78241 678.51198,655.68457 679.15934,655.68457 C 679.59301,655.68457 680.28409,655.3137 680.91856,654.7405 C 681.49329,654.22127 682.27227,653.71895 682.64963,653.62424 C 683.3037,653.46008 683.33573,653.36085 683.33573,651.49886 C 683.33573,649.57817 683.35381,649.52804 684.42255,648.48445 C 685.29713,647.63044 685.50936,647.23005 685.50936,646.43407 C 685.50936,645.39943 686.41634,642.44228 686.87406,641.98456 C 687.0201,641.83853 687.13957,641.15938 687.13957,640.47533 C 687.13957,639.06892 687.72697,638.02389 688.51749,638.02389 C 689.11791,638.02389 689.97515,639.25993 690.4459,640.80447 C 690.61596,641.36245 690.98087,642.0233 691.25681,642.27302 C 691.53276,642.52274 691.75852,643.02547 691.75852,643.39019 C 691.75852,643.75491 691.98839,644.37786 692.26934,644.77452 C 692.58795,645.22433 692.85451,646.24276 692.97772,647.48094 L 693.17527,649.46615 L 691.10838,652.18403 C 689.62605,654.13323 689.04149,655.12629 689.04149,655.69529 C 689.04149,656.13166 688.84405,656.98213 688.60273,657.58524 C 688.07534,658.90334 688.30008,659.62383 689.90488,661.75961 C 690.47607,662.5198 690.94416,663.32846 690.94508,663.55664 C 690.946,663.78481 691.10948,664.28331 691.30836,664.6644 C 691.50725,665.04549 691.74449,665.98649 691.83556,666.75549 C 691.92664,667.52449 692.19341,668.52545 692.42838,668.97983 C 692.8112,669.72012 692.81316,669.90756 692.44725,670.78329 C 692.12858,671.54596 690.49813,673.47037 690.30334,673.31373 C 690.28179,673.29639 690.01962,673.22163 689.72075,673.14759 L 689.72075,673.14759 z M 689.72075,654.59776 C 689.99123,654.29888 690.27366,654.05435 690.34838,654.05435 C 690.42309,654.05435 690.26293,654.29888 689.99245,654.59776 C 689.72197,654.89663 689.43954,655.14116 689.36482,655.14116 C 689.29011,655.14116 689.45027,654.89663 689.72075,654.59776 z M 690.4,653.71334 C 690.4,653.63862 690.5834,653.42528 690.80756,653.23924 C 691.03171,653.05321 691.21511,652.96214 691.21511,653.03686 C 691.21511,653.11158 691.03171,653.32491 690.80756,653.51095 C 690.5834,653.69698 690.4,653.78805 690.4,653.71334 L 690.4,653.71334 z M 691.21511,652.62653 C 691.21511,652.55181 691.39851,652.33847 691.62267,652.15243 C 691.84682,651.9664 692.03022,651.87533 692.03022,651.95004 C 692.03022,652.02477 691.84682,652.2381 691.62267,652.42414 C 691.39851,652.61017 691.21511,652.70124 691.21511,652.62652 L 691.21511,652.62653 z M 692.03022,651.53972 C 692.03022,651.465 692.21362,651.25165 692.43778,651.06562 C 692.66193,650.87959 692.84533,650.78852 692.84533,650.86323 C 692.84533,650.93795 692.66193,651.15129 692.43778,651.33733 C 692.21362,651.52336 692.03022,651.61443 692.03022,651.53971 L 692.03022,651.53972 z"/>
<path title="Murshidabad" d="M 696.71203,666.75589 C 696.15524,666.57738 695.78283,666.25833 695.71371,665.90059 C 695.65306,665.58677 695.50196,664.77982 695.37791,664.10735 C 695.17006,662.98057 695.08854,662.88469 694.33848,662.88469 C 693.67887,662.88469 693.44995,663.05432 693.13085,663.77953 C 692.60391,664.97711 691.79571,664.86672 691.33644,663.53442 C 691.15055,662.99516 690.5581,661.97705 690.0199,661.27197 C 688.82165,659.70218 688.60772,658.92715 689.00586,657.59828 C 689.17489,657.03409 689.31319,656.1893 689.31319,655.72097 C 689.31319,655.25264 689.41188,654.86946 689.53249,654.86946 C 689.754,654.86946 692.01295,651.91901 692.93975,650.41918 C 693.67321,649.23221 693.49821,645.83965 692.64155,644.63867 C 692.30532,644.16729 692.03022,643.48321 692.03022,643.11849 C 692.03022,642.75377 691.80445,642.25104 691.52851,642.00132 C 691.25258,641.75159 690.88614,641.07778 690.71422,640.50395 C 690.5423,639.93012 690.08205,638.9897 689.69145,638.41412 C 689.12284,637.57623 689.04143,637.27127 689.28308,636.88433 C 689.44909,636.61853 689.5849,636.02455 689.5849,635.56439 C 689.5849,634.19228 690.01458,633.67652 691.15675,633.67767 C 691.71188,633.67822 692.56639,633.92275 693.05567,634.22107 C 693.54495,634.51938 694.23798,634.76346 694.59574,634.76346 C 695.93244,634.76346 696.10492,634.98976 696.11931,636.76237 L 696.13286,638.43145 L 698.77377,641.20486 C 701.64046,644.21539 705.26556,646.71838 706.75903,646.71838 C 707.19091,646.71838 707.87443,646.8846 708.27796,647.08775 C 708.68147,647.29091 709.59651,647.53366 710.31133,647.62721 C 712.01406,647.85003 714.60138,649.57854 715.23692,650.91784 C 715.52452,651.52391 715.66673,652.37268 715.61516,653.17547 L 715.53251,654.46191 L 714.24097,654.7807 C 711.70487,655.40667 708.87579,658.37122 708.87579,660.40275 C 708.87579,660.75016 708.63414,661.25309 708.3388,661.52038 C 708.04346,661.78766 707.87894,662.13117 707.97322,662.28373 C 708.07052,662.44116 708.01096,662.47848 707.83552,662.37005 C 707.66549,662.26497 706.80794,662.66689 705.92983,663.2632 C 704.87628,663.97866 703.4655,664.59516 701.78181,665.07588 C 698.77948,665.93309 698.27938,666.16472 698.27938,666.69809 C 698.27938,667.15007 697.97643,667.16125 696.71204,666.75589 L 696.71203,666.75589 z"/>
<path title="Nadia" d="M 713.08718,695.03712 C 712.48944,694.72707 711.81697,694.31815 711.59282,694.12841 C 711.36866,693.93867 710.75733,693.69956 710.2343,693.59705 C 708.18431,693.19528 708.25457,693.27391 708.44011,691.58922 C 708.53304,690.74537 708.68024,689.48893 708.76719,688.79711 C 708.92266,687.56027 708.89763,687.50873 707.27032,685.71305 L 705.61536,683.88686 L 705.61536,679.87045 L 705.61536,675.85403 L 704.35492,674.93927 C 703.66168,674.43615 702.73134,673.68434 702.28751,673.26858 C 701.84367,672.85283 701.07579,672.34354 700.58109,672.13685 C 700.08638,671.93015 699.56409,671.53672 699.42042,671.26255 C 698.98111,670.42422 698.43738,666.82885 698.70971,666.563 C 698.84662,666.42935 700.21905,665.94701 701.75956,665.49113 C 703.91995,664.85181 705.03328,664.33475 706.62797,663.23007 C 708.91701,661.6444 708.94559,661.60781 709.55132,659.48841 C 709.91701,658.20897 710.20512,657.81083 711.55456,656.72022 C 712.42143,656.01961 713.4877,655.36635 713.92405,655.26852 C 714.36038,655.1707 714.93136,655.03265 715.19288,654.96175 C 715.57573,654.85796 715.66887,655.00842 715.67102,655.73418 C 715.67246,656.22992 715.96367,657.25837 716.31813,658.01961 C 716.84037,659.14112 717.17044,659.48684 718.05801,659.84198 C 719.24652,660.31752 720.06013,661.22984 719.83019,661.82907 C 719.71795,662.12155 718.94023,662.20543 716.34071,662.20543 L 712.99564,662.20543 L 712.42045,663.13614 C 711.92326,663.9406 711.8702,664.31042 712.02923,665.86261 C 712.19211,667.45261 712.14858,667.72735 711.64941,668.26026 C 710.40958,669.58386 710.14317,671.80085 711.06791,673.09953 C 711.37695,673.53354 711.85362,673.88865 712.12712,673.88865 C 712.76073,673.88865 715.61296,675.37866 716.41554,676.12893 C 716.99405,676.66972 717.02687,676.90778 717.02687,680.56366 C 717.02687,683.62895 716.9481,684.45714 716.64554,684.57325 C 716.14992,684.76342 715.88778,686.95599 715.84102,691.30113 C 715.79277,695.78455 715.44298,696.25908 713.08718,695.03712 L 713.08718,695.03712 z"/>
<path title="North Twenty Four Parganas" d="M 725.58551,718.17619 C 725.49315,718.02676 725.05416,717.90449 724.60998,717.90449 C 724.14279,717.90449 723.73646,717.73272 723.64598,717.49694 C 723.54404,717.23124 723.12143,717.08938 722.43185,717.08938 C 721.41615,717.08938 721.37411,717.05374 721.37411,716.19177 C 721.37411,714.7281 720.12249,712.60073 718.35889,711.0668 C 717.47684,710.29961 716.75517,709.54853 716.75517,709.39772 C 716.75517,709.24691 716.26214,708.47052 715.65955,707.6724 C 714.39603,705.99891 713.78059,705.85663 712.90837,707.03638 C 712.37149,707.76253 712.14962,707.85149 710.87525,707.85149 C 709.00346,707.85149 708.18015,707.45145 707.87867,706.39548 C 707.71374,705.81781 707.44038,705.51396 707.03272,705.45519 C 706.5471,705.38519 706.43046,705.19096 706.43046,704.45234 C 706.43046,703.94854 706.31295,703.46369 706.16933,703.37492 C 706.0257,703.28615 705.93736,702.20515 705.97301,700.97269 C 706.02734,699.09446 706.15754,698.52758 706.77755,697.4696 C 707.18441,696.77536 707.51728,695.97228 707.51728,695.68495 C 707.51728,695.39764 707.645,694.79618 707.8011,694.34839 L 708.08492,693.53423 L 709.49924,693.80295 C 710.27712,693.95073 711.09696,694.22348 711.32111,694.40905 C 712.0787,695.03622 714.01241,695.89657 714.66447,695.89657 C 715.02083,695.89657 715.53242,695.65349 715.80127,695.3564 C 716.23119,694.88131 716.2711,694.4639 716.13218,691.89219 C 715.95082,688.53543 716.45358,686.11527 717.33216,686.11527 C 717.59489,686.11527 717.88333,686.23406 717.97305,686.37924 C 718.34697,686.98422 720.56947,687.66591 722.70456,687.83048 C 723.95931,687.9272 725.05079,688.07118 725.13008,688.15045 C 725.20931,688.22971 724.97051,688.62952 724.59931,689.03891 C 722.63256,691.20818 722.39512,691.74157 722.5079,693.73775 C 722.60677,695.48727 722.67994,695.67387 723.59626,696.5132 C 724.17363,697.04205 724.72089,697.8878 724.92367,698.56459 C 725.228,699.58038 725.20039,699.94747 724.68954,701.67813 C 723.74649,704.87303 723.7604,705.91326 724.79686,709.69497 C 725.30435,711.5467 725.9645,713.37311 726.26387,713.75368 C 726.69655,714.30376 726.80817,714.85596 726.80817,716.44677 C 726.80817,718.24647 726.75508,718.4479 726.28079,718.4479 C 725.99075,718.4479 725.67786,718.32563 725.58551,718.17619 z"/>
<path title="South Twenty Four Parganas" d="M 719.67437,739.71391 L 719.79435,737.05953 L 718.27692,735.57659 C 716.68213,734.01804 716.20106,733.97335 716.1168,735.37594 C 716.09431,735.7502 715.96343,735.98697 715.82597,735.90208 C 715.68767,735.81668 715.65594,735.95599 715.75492,736.21396 C 715.85822,736.48314 715.82369,736.61212 715.67322,736.51912 C 715.29928,736.28802 715.05564,737.50168 715.16598,739.04601 C 715.24094,740.09556 715.17546,740.36792 714.85325,740.34675 C 714.62909,740.33202 714.46749,740.44647 714.49411,740.60108 C 714.57022,741.04282 712.90049,740.91075 712.65775,740.45581 C 712.53815,740.23166 712.36953,739.71203 712.28308,739.30108 C 712.19396,738.87749 711.94467,738.5539 711.70745,738.5539 C 711.47734,738.5539 711.35608,738.66236 711.438,738.79492 C 711.51995,738.92749 711.37431,739.01919 711.1144,738.9987 C 710.82015,738.97551 710.6559,739.13973 710.67911,739.43401 C 710.7003,739.70274 710.59249,739.83 710.42917,739.72906 C 710.24843,739.61736 710.20827,739.7244 710.32087,740.0178 C 710.4396,740.32723 710.39621,740.42002 710.19181,740.29369 C 709.98042,740.16306 709.92752,740.33206 710.02319,740.83239 C 710.09984,741.23337 710.0969,741.4958 710.0167,741.41559 C 709.93649,741.33537 709.65606,741.46412 709.39355,741.7017 C 708.69834,742.33085 707.97602,742.07891 707.76423,741.13343 C 707.66402,740.68602 707.3824,739.86147 707.13844,739.30108 C 706.74433,738.3958 706.58632,738.28219 705.72134,738.28219 L 704.7478,738.28219 L 704.84195,739.5885 C 704.93163,740.83284 704.90198,740.89738 704.21687,740.9492 L 703.49764,741.0036 L 703.3097,737.40135 C 703.20632,735.42011 703.19706,731.72057 703.28912,729.18015 C 703.38117,726.63973 703.48374,723.75649 703.51704,722.77294 C 703.61853,719.77535 702.49062,718.43281 700.14897,718.76396 C 699.65142,718.83433 699.39226,718.65178 699.02657,717.9734 C 698.49592,716.98903 698.41193,716.12065 698.82279,715.86672 C 698.97223,715.77436 699.09449,715.17224 699.09449,714.52868 C 699.09449,713.14399 700.72667,709.64518 701.58756,709.18445 C 702.22949,708.8409 703.87111,709.07951 704.17234,709.56015 C 704.28579,709.74115 704.4429,710.43946 704.5215,711.11192 C 704.64836,712.19739 704.74715,712.34413 705.40192,712.41962 C 706.22577,712.51462 708.14336,711.50152 709.13239,710.44874 C 709.61911,709.93066 709.72568,709.58771 709.59817,708.95006 L 709.43278,708.12319 L 711.02496,708.12319 C 712.42347,708.12319 712.67126,708.04057 713.06218,707.44394 C 713.73296,706.42023 714.41494,706.60074 715.50936,708.09167 C 716.04513,708.82151 716.48347,709.51283 716.48347,709.62793 C 716.48347,709.74303 717.20647,710.49148 718.0901,711.29114 C 719.83959,712.87432 721.10241,715.0305 721.10241,716.4344 C 721.10241,717.3443 721.45948,717.63279 722.58572,717.63279 C 722.92877,717.63279 723.3617,717.81619 723.54774,718.04034 C 723.73377,718.2645 724.23058,718.4479 724.65177,718.4479 C 725.07297,718.4479 725.49438,718.57216 725.58825,718.72403 C 725.6821,718.87591 725.87131,718.93069 726.00871,718.84577 C 726.14611,718.76086 726.1926,718.86323 726.11198,719.07328 C 726.0208,719.31089 726.47191,719.84144 727.30598,720.47751 C 728.87824,721.67653 728.88286,721.6957 729.15864,728.16127 C 729.31922,731.92632 729.29379,732.30473 728.88015,732.30473 C 728.20583,732.30473 727.85985,733.46637 727.5854,736.65198 C 727.2637,740.38616 727.25545,740.45025 727.11457,740.30938 C 727.04827,740.24308 726.82577,740.32846 726.62012,740.49913 C 726.33872,740.73268 726.09055,740.72611 725.61681,740.47256 C 724.89016,740.08367 723.65642,740.18991 723.74086,740.63408 C 723.77235,740.79975 723.58895,740.91911 723.33331,740.89933 C 723.07766,740.87956 722.90206,741.02529 722.94314,741.22319 C 722.9842,741.42109 722.90353,741.5124 722.76387,741.42609 C 722.45495,741.23515 721.6056,741.52945 721.7573,741.77487 C 721.81688,741.87129 721.60221,741.95619 721.28024,741.96354 C 720.95827,741.97089 720.43826,742.06495 720.12461,742.17258 C 719.56593,742.36431 719.5568,742.31449 719.67437,739.7139 L 719.67437,739.71391 z"/>
<path title="Purba Medinipur" d="M 679.5319,741.38336 C 679.5319,739.07507 678.36254,735.83145 677.17814,734.85439 C 676.56238,734.34642 677.09923,728.65646 677.88655,727.34616 L 678.49877,726.32727 L 680.47572,726.32727 C 683.63891,726.32727 684.11063,726.1639 684.29663,725.00396 C 684.3836,724.46158 684.70051,723.34534 685.00086,722.52344 C 685.76752,720.4255 685.75758,720.33075 684.69425,719.60097 C 683.62153,718.86474 683.62348,718.96442 684.61662,715.64696 C 685.44351,712.88481 685.76069,712.60395 687.79357,712.83383 C 688.95441,712.96511 689.35243,712.883 690.26415,712.32421 C 690.8619,711.95787 691.54549,711.65748 691.78325,711.65672 C 692.23636,711.65526 693.47463,714.46624 693.81734,716.27427 C 694.24552,718.53323 695.67083,719.80641 697.77155,719.80641 C 698.74926,719.80641 699.01424,719.91719 699.23384,720.41774 C 699.38135,720.75397 699.70738,721.03063 699.95835,721.03254 C 700.20931,721.03444 700.51498,721.14575 700.63761,721.27987 C 700.76713,721.42155 700.70347,721.43272 700.48568,721.30651 C 700.22775,721.15705 700.15359,721.20703 700.24794,721.46673 C 700.32336,721.67433 700.51823,721.81508 700.68097,721.77951 C 700.85179,721.74217 700.90405,721.90457 700.80461,722.16371 C 700.70987,722.41059 700.74484,722.54306 700.88231,722.4581 C 701.01978,722.37314 701.13226,722.7082 701.13226,723.20269 C 701.13226,723.69718 701.01979,724.03225 700.88231,723.94728 C 700.74399,723.8618 700.71227,724.00105 700.81127,724.25904 C 700.93185,724.57325 700.88754,724.66184 700.67542,724.53075 C 700.4633,724.39965 700.419,724.48825 700.53957,724.80245 C 700.64191,725.06914 700.60799,725.20039 700.46031,725.10913 C 700.31831,725.02138 699.95292,725.43808 699.64831,726.03515 C 698.98814,727.3292 698.93481,727.71725 699.51704,726.99054 C 699.9218,726.48532 699.92694,726.48917 699.63925,727.08207 C 699.47407,727.42248 699.23665,727.6378 699.11164,727.56054 C 698.80718,727.37237 698.24046,728.08076 698.33777,728.52787 C 698.38038,728.7236 698.29297,728.89118 698.14353,728.90026 C 697.60515,728.93298 697.17964,729.36583 697.25329,729.80588 C 697.29462,730.05276 697.20616,730.25939 697.05672,730.26503 C 696.52518,730.2851 696.09248,730.72223 696.16648,731.16439 C 696.20791,731.41186 696.05874,731.61896 695.83406,731.62593 C 695.6099,731.63288 695.44327,731.84829 695.46376,732.10459 C 695.48425,732.36088 695.39868,732.50735 695.27361,732.43005 C 694.95456,732.23286 694.40936,733.33635 694.64081,733.71084 C 694.75753,733.89971 694.70983,733.9439 694.51753,733.82504 C 694.29632,733.68832 694.20384,734.03357 694.20384,734.99617 C 694.20384,736.08936 694.09413,736.41987 693.65283,736.65605 C 693.34977,736.81824 693.18526,737.08597 693.28725,737.25099 C 693.39793,737.43009 693.3485,737.47429 693.16463,737.36065 C 692.77153,737.1177 691.69142,737.6821 691.90087,738.02101 C 691.98988,738.16503 691.85557,738.19812 691.59221,738.09706 C 691.29881,737.98447 691.19177,738.02461 691.30347,738.20534 C 691.40441,738.36867 691.27715,738.47648 691.00841,738.45529 C 690.7485,738.43481 690.56496,738.56648 690.60052,738.74789 C 690.6404,738.95127 690.49308,739.0117 690.21632,738.9055 C 689.93723,738.7984 689.83459,738.84188 689.94495,739.02045 C 690.04258,739.17841 689.97094,739.29157 689.78575,739.27191 C 689.19849,739.20959 686.58595,740.21947 686.73028,740.45301 C 686.80638,740.57611 686.6048,740.60785 686.28235,740.52353 C 685.90667,740.42529 685.76028,740.47409 685.8748,740.65938 C 685.98931,740.84468 685.84292,740.89347 685.46724,740.79523 C 685.03047,740.68102 684.93716,740.73282 685.1013,740.9984 C 685.24873,741.23696 685.21584,741.28951 685.00183,741.15724 C 684.60667,740.91302 681.92004,741.7737 682.11134,742.08323 C 682.18743,742.20633 681.98585,742.23806 681.66341,742.15374 C 681.34095,742.06942 681.14504,742.11139 681.22802,742.24701 C 681.31102,742.38263 680.96333,742.51546 680.4554,742.5422 C 679.53644,742.59057 679.5319,742.58486 679.5319,741.38336 L 679.5319,741.38336 z"/>
<path title="Paschim Medinipur" d="M 672.62707,733.95959 C 672.24051,733.55609 671.92422,733.06 671.92422,732.85715 C 671.92422,732.65432 671.72006,731.84067 671.47053,731.04907 C 671.06995,729.77829 670.88854,729.55845 669.92097,729.17131 C 668.43288,728.57589 667.18947,728.83239 666.58245,729.85999 C 666.09412,730.68668 664.99418,731.11168 664.08762,730.82395 C 663.64574,730.68369 663.55605,730.30302 663.43937,728.07235 C 663.31489,725.69249 663.24203,725.41888 662.53676,724.68274 C 661.92976,724.04918 661.53514,723.88195 660.64704,723.88195 C 659.2658,723.88195 657.04505,723.22827 656.26027,722.5907 C 655.93882,722.32955 655.59474,721.72702 655.49565,721.25174 C 655.26574,720.14905 655.91049,719.74176 658.20323,719.54135 C 659.99916,719.38436 659.9463,719.48532 659.38722,717.28024 C 659.10376,716.16226 658.83546,715.81421 657.50217,714.83491 L 655.94761,713.6931 L 655.8496,711.56229 C 655.75728,709.55508 655.70032,709.38567 654.86743,708.64149 C 654.32658,708.15824 653.68053,707.85149 653.2036,707.85149 C 652.59414,707.85149 652.06124,707.46377 650.76256,706.07548 C 649.8488,705.09867 649.10119,704.13548 649.10119,703.93504 C 649.10119,703.35589 649.81402,701.80544 650.45474,700.991 C 650.89049,700.4371 651.28203,700.24381 651.96829,700.24381 C 653.19029,700.24381 655.02515,700.99469 655.36784,701.635 C 655.51818,701.9159 655.86516,702.14573 656.13892,702.14573 C 656.4182,702.14573 656.95077,702.62038 657.35232,703.22718 C 658.2603,704.59923 659.81356,705.40616 661.54658,705.40616 C 662.91829,705.40616 663.77314,704.86704 663.77314,704.00194 C 663.77314,703.77618 664.06141,703.46012 664.41375,703.29959 C 665.08344,702.99446 665.40336,702.03677 665.40336,700.33718 C 665.40336,699.70415 665.55363,699.35582 665.87883,699.23501 C 666.14035,699.13784 667.03626,698.46922 667.86976,697.74917 C 668.70325,697.02911 669.60096,696.43998 669.86467,696.43998 C 670.12838,696.43998 670.65502,696.19544 671.03497,695.89657 C 671.52867,695.50824 672.13721,695.35316 673.16749,695.35316 C 673.96041,695.35316 674.69395,695.216 674.79757,695.04834 C 675.0209,694.68698 677.51817,694.91837 678.57073,695.39795 C 679.07705,695.62864 679.26019,695.92039 679.26019,696.49623 C 679.26019,697.09341 679.46174,697.3907 680.10556,697.7432 C 680.57051,697.99776 681.67503,698.66454 682.56005,699.22493 C 683.44507,699.78531 684.4679,700.24381 684.833,700.24381 C 685.66382,700.24381 686.06891,700.85222 687.29415,703.94021 C 687.87491,705.40391 688.56933,706.6503 689.05487,707.10048 C 689.49581,707.50932 689.8566,707.98357 689.8566,708.15436 C 689.8566,708.32515 690.28453,708.93856 690.80756,709.51748 C 691.33059,710.09642 691.75852,710.66232 691.75852,710.77505 C 691.75852,710.8878 691.20334,711.31537 690.52478,711.72523 C 689.52814,712.32723 688.96376,712.47044 687.58798,712.47044 C 686.63916,712.47044 685.69186,712.62085 685.44899,712.81006 C 685.03467,713.13285 683.33573,717.99915 683.33573,718.86309 C 683.33573,719.08788 683.76367,719.47586 684.28669,719.72528 C 685.30267,720.20975 685.43075,720.57883 684.91034,721.52241 C 684.73031,721.84882 684.38593,722.91061 684.14503,723.88195 L 683.70704,725.64802 L 681.00814,725.72694 L 678.30923,725.80584 L 677.51312,727.2213 C 676.8184,728.45646 676.69727,729.00012 676.56216,731.48963 C 676.41289,734.23985 676.38567,734.3395 675.80565,734.25914 C 675.47474,734.21328 674.78233,734.2922 674.26697,734.43449 C 673.43051,734.66545 673.2545,734.61448 672.62708,733.95959 L 672.62707,733.95959 z"/>
<path title="Bankura" d="M 659.35731,704.57222 C 658.79655,704.27619 658.01614,703.548 657.62306,702.95401 C 657.20704,702.32538 656.69278,701.87403 656.39253,701.87403 C 656.10882,701.87403 655.80849,701.69627 655.72512,701.479 C 655.48044,700.84139 653.7663,699.97211 652.75365,699.97211 C 652.00884,699.97211 651.81822,699.86465 651.81822,699.44474 C 651.81822,699.15469 651.95244,698.83442 652.11649,698.73303 C 652.28053,698.63164 652.75735,698.00848 653.17607,697.34823 C 653.77366,696.40591 653.90801,695.92877 653.80079,695.12941 C 653.71311,694.47573 653.8375,693.72536 654.14815,693.03398 C 654.41431,692.44158 654.71562,690.97875 654.8177,689.78326 C 654.9198,688.58777 655.32222,686.57037 655.71199,685.30016 C 656.10175,684.02995 656.60714,682.30159 656.83506,681.45935 C 657.12325,680.39441 657.6097,679.52551 658.43226,678.60647 C 659.59654,677.30562 661.76326,673.17371 662.11728,671.57918 C 662.27903,670.85057 662.41941,670.75522 663.43994,670.68068 C 664.3671,670.61296 664.77371,670.74819 665.60383,671.40032 C 666.16602,671.84198 666.87906,672.27812 667.18834,672.3695 C 667.49761,672.46088 667.95414,672.96234 668.20283,673.48385 C 668.48424,674.07401 668.84929,674.43206 669.16953,674.43206 C 669.45252,674.43206 669.83627,674.61546 670.0223,674.83961 C 670.20833,675.06376 670.6818,675.24831 671.07445,675.24971 C 672.06785,675.25326 674.30616,676.59996 675.53523,677.93357 C 676.10165,678.54816 676.7787,679.051 677.03981,679.051 C 677.30092,679.051 678.11165,679.65721 678.84144,680.39814 C 679.57123,681.13907 680.52714,681.82409 680.96568,681.92041 C 681.85974,682.11678 682.93598,683.20562 684.04132,685.03204 C 684.44948,685.70647 685.31029,686.65545 685.95424,687.14088 C 686.96692,687.90426 687.09131,688.10563 686.87518,688.63166 C 686.73775,688.96617 686.43193,689.94288 686.19559,690.80214 C 685.85414,692.04354 685.65368,692.36443 685.21961,692.36443 C 684.8638,692.36443 684.41647,692.78774 683.93661,693.57851 C 683.25418,694.70309 683.1157,694.79322 682.05793,694.80117 C 681.42985,694.8059 680.60132,694.95313 680.21674,695.12835 C 679.64586,695.38846 679.33546,695.36014 678.52576,694.97402 C 677.25894,694.36991 675.05272,694.09209 674.7978,694.50456 C 674.69406,694.67242 673.9969,694.80976 673.24857,694.80976 C 672.21587,694.80976 671.67334,694.97346 670.99741,695.48902 C 670.50761,695.86261 669.89908,696.16827 669.64512,696.16827 C 669.39116,696.16827 668.46089,696.76954 667.57784,697.50443 C 666.69478,698.2393 665.72201,698.92002 665.41612,699.0171 C 664.93137,699.17095 664.85995,699.41883 664.85995,700.94721 C 664.85995,702.55403 664.8031,702.72669 664.18069,703.01028 C 663.8071,703.1805 663.50144,703.52572 663.50144,703.77745 C 663.50144,705.10769 661.20567,705.54798 659.3573,704.57222 L 659.35731,704.57222 z"/>
<path title="Hugli" d="M 689.37049,706.90705 C 688.90336,706.51398 688.29536,705.47119 687.83254,704.26929 C 687.41155,703.17606 686.75832,701.70082 686.38091,700.991 C 685.78952,699.87877 685.57863,699.70016 684.85484,699.69862 C 684.39293,699.69763 683.64819,699.44687 683.19988,699.14136 C 682.75157,698.83585 681.80401,698.2844 681.09419,697.91591 C 680.00898,697.35255 679.8036,697.12157 679.8036,696.46447 C 679.8036,695.543 680.17428,695.35316 681.97363,695.35316 C 683.2343,695.35316 683.31062,695.30792 683.98197,694.16233 C 684.90509,692.58714 685.36087,692.44947 686.45939,693.41398 C 687.23884,694.09835 687.64688,694.22171 689.69576,694.39238 C 692.15437,694.59718 694.37299,694.43034 695.62788,693.9463 C 696.525,693.60026 697.32061,692.37231 698.41324,689.64741 L 699.23034,687.60964 L 701.40396,686.74289 C 702.59946,686.26617 704.15791,685.72129 704.8672,685.53205 L 706.15682,685.18798 L 707.26753,686.26296 C 708.36067,687.32095 708.37575,687.36154 708.22169,688.8323 C 707.6747,694.05433 707.26489,695.9198 706.28998,697.62524 C 705.63923,698.76362 705.54242,699.20837 705.59009,700.84063 L 705.64539,702.73491 L 703.66054,702.56962 C 698.0389,702.1015 697.02824,702.09653 696.66414,702.53525 C 696.22074,703.06951 695.2648,703.07126 693.52459,702.54102 C 692.21177,702.141 692.15008,702.14668 691.69059,702.70991 C 691.42196,703.03919 691.21511,703.74547 691.21511,704.33342 C 691.21511,704.90579 691.09685,705.44718 690.95231,705.53652 C 690.80776,705.62585 690.7584,706.0434 690.8426,706.46441 C 691.05578,707.53029 690.35984,707.73953 689.37049,706.90704 L 689.37049,706.90705 z"/>
<path title="Haora" d="M 695.7672,718.84968 C 694.94721,718.29248 694.68013,717.87415 694.33611,716.60812 C 693.60674,713.92403 691.9819,710.07444 691.3132,709.44623 C 690.61166,708.78716 690.47886,708.00187 691.01134,707.66121 C 691.19813,707.54171 691.37672,707.016 691.40819,706.49298 C 691.53599,704.3694 691.83592,702.91408 692.17239,702.78497 C 692.36822,702.70982 693.27894,702.85892 694.19624,703.1163 C 695.84104,703.57781 695.87493,703.57622 696.65316,703.00085 C 697.61672,702.28845 700.0552,702.20532 701.81152,702.82499 C 702.44684,703.04914 703.53816,703.23254 704.23666,703.23254 C 705.64154,703.23254 706.15876,703.57369 706.15876,704.50033 C 706.15876,705.08424 705.36187,707.09398 705.07195,707.24124 C 704.99723,707.27919 704.50817,707.57711 703.98514,707.90328 C 703.46211,708.22946 702.77513,708.46686 702.45852,708.43084 C 701.1249,708.27912 698.82279,711.94977 698.82279,714.2279 C 698.82279,714.88745 698.70052,715.50266 698.55109,715.59502 C 698.15502,715.8398 698.23652,717.38826 698.68694,718.17619 C 699.32922,719.29976 699.19916,719.53471 697.9349,719.53471 C 697.1431,719.53471 696.45557,719.31743 695.76719,718.84967 L 695.7672,718.84968 z"/>
<path title="Kolkata" d="M 704.71581,710.77229 C 704.63927,710.13719 704.49112,709.28489 704.38658,708.87829 C 704.22866,708.2641 704.30773,708.08836 704.85388,707.83951 C 705.21543,707.67478 705.64631,707.18216 705.8114,706.74478 C 706.23378,705.62574 707.4005,705.61451 707.64489,706.72715 C 707.7417,707.16793 708.08853,707.62905 708.44566,707.79177 C 709.27123,708.16791 709.53019,709.441 708.92095,710.12828 C 708.13752,711.0121 706.47277,711.92703 705.64812,711.92703 C 704.91797,711.92703 704.84391,711.83531 704.71581,710.77229 z"/>
<path title="Maldah" d="M 693.25288,633.94694 C 692.65514,633.66583 691.84612,633.36951 691.45507,633.28844 C 690.60557,633.11234 690.40757,632.27908 690.403,628.8609 C 690.40005,626.65405 690.38989,626.62111 689.5849,626.20482 C 689.13659,625.97299 688.76979,625.75416 688.76979,625.71853 C 688.76979,625.6829 688.52526,624.98474 688.22638,624.16705 C 687.92751,623.34937 687.68298,622.12276 687.68298,621.44125 C 687.68298,620.55024 687.42133,619.71243 686.75161,618.45896 C 686.23936,617.50021 685.88087,616.6177 685.95496,616.49782 C 686.02905,616.37794 685.95252,615.61922 685.78489,614.81178 C 685.52349,613.55261 685.55658,613.07954 686.01745,611.48733 C 686.31298,610.46632 686.62834,609.29163 686.71823,608.87689 C 686.83773,608.32557 687.2075,607.96453 688.09347,607.53409 C 689.25056,606.97193 689.34772,606.9656 690.24577,607.39385 C 690.76306,607.64053 691.77985,607.92109 692.50533,608.01733 C 693.78366,608.18691 693.83835,608.23165 694.27714,609.46707 C 694.88605,611.18153 697.37264,613.91137 698.6951,614.31724 C 699.56555,614.5844 700.00567,614.53242 701.87586,613.94163 L 704.04638,613.25595 L 704.77781,613.95671 C 705.1801,614.34212 705.70881,614.65746 705.95274,614.65746 C 706.43729,614.65746 708.32622,616.51302 708.33002,616.99275 C 708.33132,617.15638 708.07019,617.52318 707.74974,617.80785 C 706.87027,618.58916 705.88706,621.02407 705.88706,622.42082 C 705.88706,623.09567 705.69565,624.40655 705.46171,625.33388 C 705.10294,626.75604 704.87289,627.13688 703.99186,627.76711 C 703.41739,628.17807 702.83804,628.5143 702.70444,628.5143 C 702.41115,628.5143 701.10533,627.12674 700.08355,625.72934 C 699.41907,624.8206 699.20997,624.71046 698.14919,624.71046 L 696.95984,624.71046 L 696.62597,626.20234 C 696.36836,627.35346 696.36306,628.19597 696.60277,629.891 C 696.86404,631.73844 696.84922,632.21198 696.5096,632.86873 C 696.28749,633.29825 696.10576,633.83914 696.10576,634.07071 C 696.10576,634.65807 694.62875,634.59399 693.25288,633.94694 L 693.25288,633.94694 z"/>
<path title="Dakshin Dinajpur" d="M 710.48248,617.7344 C 709.6975,617.64118 709.27478,617.33391 708.30885,616.15435 C 707.64932,615.34896 706.74818,614.55796 706.3063,614.39656 C 705.23386,614.00486 704.25684,613.05558 704.25684,612.40532 C 704.25684,612.11536 704.752,610.76256 705.35721,609.39911 C 706.99256,605.71483 707.89271,604.98581 709.09671,606.37053 C 709.47976,606.81107 709.97195,607.04978 710.49723,607.04978 C 711.13013,607.04978 711.40347,607.236 711.74774,607.90178 L 712.18833,608.75378 L 714.29987,608.57769 C 716.75071,608.3733 716.94664,608.49589 717.0761,610.31483 C 717.16047,611.49961 717.22138,611.57315 719.40427,613.12523 C 721.45234,614.58144 721.64582,614.79797 721.64582,615.63368 C 721.64582,616.43269 721.4998,616.62565 720.49108,617.15985 C 719.45983,617.70596 718.91501,617.77557 715.39665,617.81074 C 713.22983,617.8324 711.01844,617.79805 710.48248,617.7344 L 710.48248,617.7344 z"/>
<path title="Uttar Dinajpur" d="M 698.39137,613.85019 C 697.44138,613.46597 695.06828,610.57628 694.61349,609.24992 C 694.37793,608.56287 694.10968,606.86779 694.01739,605.48307 L 693.8496,602.9654 L 691.3677,600.68717 C 688.36754,597.93323 687.35388,596.19428 687.18283,593.50801 C 687.08147,591.91624 687.16551,591.55808 688.0807,589.68098 C 689.08778,587.61541 689.96389,586.73946 691.49321,586.26911 C 692.43354,585.97991 692.84533,585.60085 692.84533,585.02447 C 692.84533,584.74047 693.54428,583.99239 694.48841,583.26589 C 697.22457,581.16047 698.34205,578.76109 697.81885,576.115 C 697.50824,574.54406 697.29529,574.74514 699.84167,574.20483 C 700.75771,574.01047 700.99641,574.0368 700.99641,574.33222 C 700.99641,574.53705 701.33264,574.91342 701.74359,575.16861 C 703.22832,576.09058 703.71344,576.68915 703.71344,577.59909 C 703.71344,578.19762 703.55942,578.53834 703.23796,578.65098 C 702.97644,578.74261 701.83153,580.06521 700.69371,581.59009 C 699.2085,583.58052 698.52355,584.76437 698.2655,585.78686 C 698.06153,586.5951 697.72239,587.27102 697.4814,587.34961 C 696.55727,587.65097 695.03915,589.4127 694.85424,590.39834 C 694.64897,591.49251 694.90393,598.55453 695.17413,599.25864 C 695.43399,599.93582 697.10934,600.13357 698.43238,599.64322 C 699.55243,599.2281 699.59377,599.23456 701.03066,600.04929 C 701.83372,600.50463 702.58042,601.02884 702.69,601.21419 C 702.79957,601.39954 703.83883,602.26339 704.99947,603.13385 C 706.16011,604.00431 707.22506,604.81275 707.36605,604.93039 C 707.51643,605.05588 707.32611,605.45384 706.90558,605.89326 C 706.10374,606.73109 704.33739,610.42506 704.02912,611.9088 C 703.84331,612.8031 703.69886,612.91963 702.07283,613.48702 C 700.2144,614.1355 699.31597,614.22413 698.39137,613.85018 L 698.39137,613.85019 z"/>
<path title="Darjiling" d="M 695.86356,572.95109 C 695.07575,572.27863 694.19663,571.72843 693.90996,571.72843 C 693.20647,571.72843 693.25352,571.11731 694.02863,570.18699 C 695.76996,568.09698 696.21905,562.07768 694.88156,558.7551 C 694.45245,557.68907 691.78712,554.88286 691.20374,554.88286 C 690.86125,554.88286 690.1283,552.25683 690.1283,551.02971 C 690.1283,550.26013 690.24048,549.99221 690.5627,549.99221 C 690.99308,549.99221 692.57363,551.4847 692.57363,551.89111 C 692.57363,552.00728 693.33118,552.5536 694.25708,553.10515 L 695.94053,554.10798 L 696.94317,553.54446 C 698.24824,552.81097 698.72228,552.8325 700.89279,553.72387 L 702.70185,554.46679 L 703.13015,553.79179 C 704.45444,551.70472 706.74446,550.39469 708.87579,550.50494 C 709.39882,550.53199 710.52592,550.56374 711.38045,550.57548 C 712.61086,550.59239 712.96559,550.69595 713.08533,551.07322 C 713.1685,551.33523 713.81431,551.90876 714.52047,552.34774 C 715.76965,553.12426 715.81605,553.20153 716.23344,555.19909 L 716.66246,557.25229 L 715.4182,558.02973 C 714.72297,558.46415 713.33481,558.97466 712.27207,559.18677 C 710.51948,559.53656 709.45636,559.58097 706.59168,559.42409 C 705.62914,559.37137 705.50662,559.44191 705.27674,560.18107 C 705.13733,560.62937 704.8653,561.36297 704.67226,561.81128 C 704.47923,562.25959 704.24271,563.07106 704.14667,563.61454 C 704.05063,564.15803 703.66933,565.34769 703.29934,566.25824 C 702.92935,567.1688 702.62663,568.34718 702.62663,568.87688 C 702.62663,569.6456 702.49397,569.8904 701.9693,570.08988 C 701.05951,570.43578 700.77752,571.06141 700.92834,572.39939 L 701.05726,573.54311 L 699.48715,573.85843 C 697.34111,574.28942 697.46895,574.32143 695.86356,572.95109 z"/>
<path title="Jalpaiguri" d="M 714.69572,583.37237 C 713.58508,582.83346 713.22303,581.74736 713.22303,578.95456 C 713.22303,577.39758 713.11359,576.34738 712.95133,576.34738 C 712.80189,576.34738 712.71019,576.20981 712.74755,576.04167 C 712.78491,575.87354 710.98149,574.47232 708.73994,572.92786 C 705.5818,570.75185 704.45775,570.11732 703.74636,570.10898 L 702.82831,570.09821 L 703.00839,568.7407 C 703.10745,567.99408 703.43254,566.81384 703.73083,566.11795 C 704.02912,565.42206 704.39458,564.29065 704.54295,563.6037 C 704.69133,562.91674 704.98553,561.98789 705.19673,561.53958 C 705.40792,561.09127 705.64581,560.5105 705.72536,560.24899 C 705.89243,559.69975 706.85734,559.63099 708.39708,560.0586 C 709.1839,560.27712 709.69103,560.24618 710.64811,559.92124 C 711.32758,559.69055 712.42466,559.50181 713.08609,559.50181 C 713.88319,559.50181 714.45257,559.33685 714.77473,559.01258 C 715.04205,558.74349 715.60228,558.30931 716.01967,558.0477 L 716.77851,557.57206 L 721.31787,559.79058 L 725.85721,562.00911 L 730.47615,561.87924 L 735.0951,561.74938 L 736.58947,562.86714 C 738.79759,564.51878 739.89772,564.93586 742.04613,564.93586 C 743.47892,564.93586 744.3841,565.12369 745.95109,565.74616 C 747.58049,566.39342 748.13216,566.50276 748.6929,566.28957 C 750.16591,565.72952 750.1746,565.74801 750.1746,569.44496 C 750.1746,572.19038 750.08241,573.02332 749.70847,573.65635 C 749.45209,574.09036 749.11404,574.44546 748.95726,574.44546 C 748.80044,574.44546 748.19715,574.70006 747.61655,575.01124 C 746.68776,575.50905 746.18807,575.56617 743.45754,575.48672 C 740.70756,575.4067 740.32019,575.33559 740.05569,574.86223 C 739.3179,573.54189 738.64927,573.17965 736.59811,572.98901 C 735.33898,572.872 734.48801,572.9061 734.31352,573.08059 C 733.89686,573.49723 730.58622,573.40231 729.7969,572.95109 C 729.42331,572.73753 728.41461,572.55846 727.55535,572.55317 C 726.69609,572.54788 725.99306,572.43358 725.99306,572.29919 C 725.99306,571.98977 724.28927,571.77582 720.1255,571.56238 L 716.83915,571.39393 L 716.66129,573.0954 C 716.56348,574.03121 716.48347,575.33717 716.48347,575.99754 C 716.48347,576.65791 716.35071,577.44624 716.18848,577.74939 C 715.94848,578.19783 716.00777,578.42219 716.50653,578.95312 C 717.26711,579.76274 717.5784,579.56685 716.8667,578.72644 L 716.34761,578.11344 L 716.91512,578.59138 C 717.54873,579.12497 717.64747,580.62611 717.09289,581.29432 C 716.91354,581.51043 716.57913,582.13638 716.34979,582.6853 C 715.91656,583.72211 715.64714,583.83403 714.69572,583.37237 L 714.69572,583.37237 z"/>
<path title="Koch Bihar" d="M 737.15806,587.60285 C 736.17134,587.05977 735.57362,586.94299 733.76177,586.93931 C 731.98967,586.93571 731.35701,586.81707 730.50169,586.32798 C 728.70963,585.30323 728.40738,584.6513 727.92318,580.76627 C 727.52052,577.5357 727.41955,577.18466 726.59404,576.14526 C 725.2415,574.44227 724.18347,573.8971 722.29301,573.92914 C 719.58147,573.97509 719.37267,574.1023 719.08869,575.88146 C 718.81383,577.60321 719.14566,578.7927 719.90078,578.7927 C 720.49116,578.7927 721.91752,580.35031 721.91752,580.99506 C 721.91752,581.68152 721.05541,581.66494 720.42315,580.96632 C 720.09276,580.60125 719.58631,580.42292 718.87996,580.42292 C 717.98128,580.42292 717.78826,580.31436 717.55131,579.67573 C 717.39886,579.26478 717.07564,578.77777 716.83309,578.59349 C 716.46825,578.31628 716.44689,578.13814 716.70947,577.56182 C 716.88404,577.17869 717.02875,575.86227 717.03103,574.63645 C 717.03331,573.41063 717.14215,572.23881 717.27287,572.03241 C 717.47241,571.71739 718.1371,571.70798 721.41218,571.97385 C 723.55809,572.14805 725.35456,572.40863 725.40436,572.55292 C 725.45419,572.69719 726.22322,572.81524 727.11334,572.81524 C 728.19554,572.81524 729.08463,572.99528 729.7969,573.35865 C 730.98215,573.96331 733.82418,574.11334 734.33909,573.59842 C 734.52898,573.40854 735.37588,573.33622 736.59974,573.40537 C 738.28437,573.50057 738.62987,573.609 739.08207,574.18448 C 740.50899,576.00051 740.0806,575.87249 744.36019,575.76182 C 747.78258,575.67333 748.2595,575.71278 748.1077,576.07183 C 748.01204,576.2981 747.85719,576.79898 747.76359,577.1849 C 747.66999,577.57082 747.07882,578.46875 746.44988,579.18029 L 745.30631,580.47402 L 743.90887,580.00986 C 742.73277,579.61922 742.40706,579.60155 741.85256,579.89829 C 741.49022,580.09222 741.14027,580.50356 741.0749,580.81238 C 741.00953,581.12121 740.69449,582.77994 740.37486,584.49846 C 740.0552,586.21698 739.66908,587.77587 739.51682,587.96267 C 739.12212,588.44689 738.52654,588.35604 737.15806,587.60285 L 737.15806,587.60285 z"/>
</g>
<g class="label" text-anchor="middle" font-size="6" font-family="sans-serif"  fill="#444">
<text x="647" y="685">Puruliya</text>
<text x="688" y="680">Barddhaman</text>
<text x="680" y="663">Birbhum</text>
<text x="698" y="652">Murshidabad</text>
<text x="711" y="673">Nadia</text>
<text x="717" y="703">North Twenty Four Parganas</text>
<text x="715" y="720">South Twenty Four Parganas</text>
<text x="692" y="730">Purba Medinipur</text>
<text x="670" y="710">Paschim Medinipur</text>
<text x="668" y="690">Bankura</text>
<text x="693" y="698">Hugli</text>
<text x="698" y="715">Haora</text>
<text x="706" y="709">Kolkata</text>
<text x="695" y="621">Maldah</text>
<text x="712" y="613">Dakshin Dinajpur</text>
<text x="698" y="594">Uttar Dinajpur</text>
<text x="702" y="560">Darjiling</text>
<text x="723" y="571">Jalpaiguri</text>
<text x="730" y="578">Koch Bihar</text>
</g>
</svg>
